<?xml version="1.0" encoding="UTF-8"?>
<svg width="97px" height="37px" viewBox="0 0 97 37" version="1.1" xmlns="http://www.w3.org/2000/svg" xmlns:xlink="http://www.w3.org/1999/xlink">
    <!-- Generator: Sketch 57.1 (83088) - https://sketch.com -->
    <title>Group 13</title>
    <desc>Created with Sketch.</desc>
    <g id="Page-1" stroke="none" stroke-width="1" fill="none" fill-rule="evenodd">
        <g id="Artboard-Copy-18" transform="translate(-56.000000, -36.000000)" fill="#FFFFFF" fill-rule="nonzero">
            <g id="Group-13" transform="translate(56.000000, 36.000000)">
                <g id="Group">
                    <polygon id="Path" points="18.5866795 5.23041348 17.4550299 9.2754002 8.43224692 6.81056474 8.43224692 2.45481072"/>
                    <path d="M21.8915272,13.619513 C21.8915272,13.619513 21.9059991,15.2739602 21.8915272,15.8250708 C21.8724298,16.5501109 21.7988663,17.2517557 21.7259363,17.9290153 C20.1315143,32.7378397 10.4605736,36.4796777 2.22881749,36.8892514 L-1.42108547e-13,37 L-1.42108547e-13,0 L4.24477584,1.16023954 L4.24477584,32.4941879 C12.5054632,31.373709 16.7974185,26.3039799 17.5733525,16.7939629 L8.43262707,14.2955696 L8.43262707,9.94079302 L21.4057923,13.4867477 L21.8915272,13.619513 Z" id="Path"/>
                </g>
                <path d="M40.7578125,27 L40.7578125,11 L46.6171875,11 C47.7526098,11 48.6940067,11.1861961 49.4414062,11.5585938 C50.1888058,11.9309914 50.7460919,12.4335906 51.1132812,13.0664062 C51.4804706,13.6992219 51.6640625,14.4114544 51.6640625,15.203125 C51.6640625,16.20313 51.3984402,16.9687473 50.8671875,17.5 C50.3359348,18.0312527 49.7031287,18.3906241 48.96875,18.578125 L48.96875,18.734375 C49.5000027,18.7604168 50.0195287,18.930988 50.5273438,19.2460938 C51.0351588,19.5611995 51.4557275,20.0078096 51.7890625,20.5859375 C52.1223975,21.1640654 52.2890625,21.8671834 52.2890625,22.6953125 C52.2890625,23.5130249 52.0976582,24.2460905 51.7148438,24.8945312 C51.3320293,25.542972 50.7421915,26.0559877 49.9453125,26.4335938 C49.1484335,26.8111998 48.1302145,27 46.890625,27 L40.7578125,27 Z M43.171875,24.9296875 L46.65625,24.9296875 C47.8177141,24.9296875 48.6471329,24.7057314 49.1445312,24.2578125 C49.6419296,23.8098936 49.890625,23.2500034 49.890625,22.578125 C49.890625,21.8177045 49.6080757,21.1653673 49.0429688,20.6210938 C48.4778618,20.0768202 47.7109423,19.8046875 46.7421875,19.8046875 L43.171875,19.8046875 L43.171875,24.9296875 Z M43.171875,17.921875 L46.40625,17.921875 C47.2187541,17.921875 47.903643,17.6927106 48.4609375,17.234375 C49.018232,16.7760394 49.296875,16.1614622 49.296875,15.390625 C49.296875,14.723955 49.0651065,14.167971 48.6015625,13.7226562 C48.1380185,13.2773415 47.4270881,13.0546875 46.46875,13.0546875 L43.171875,13.0546875 L43.171875,17.921875 Z M54.9609375,27 L54.9609375,15 L57.296875,15 L57.296875,27 L54.9609375,27 Z M56.140625,13.1484375 C55.734373,13.1484375 55.3867202,13.0117201 55.0976562,12.7382812 C54.8085923,12.4648424 54.6640625,12.1380227 54.6640625,11.7578125 C54.6640625,11.3723939 54.8085923,11.0429701 55.0976562,10.7695312 C55.3867202,10.4960924 55.734373,10.359375 56.140625,10.359375 C56.5416687,10.359375 56.8880194,10.4960924 57.1796875,10.7695312 C57.4713556,11.0429701 57.6171875,11.3723939 57.6171875,11.7578125 C57.6171875,12.1380227 57.4713556,12.4648424 57.1796875,12.7382812 C56.8880194,13.0117201 56.5416687,13.1484375 56.140625,13.1484375 Z M60.625,27 L60.625,11 L63.0390625,11 L63.0390625,24.921875 L70.2890625,24.921875 L70.2890625,27 L60.625,27 Z M72.8515625,27 L72.8515625,15 L75.1875,15 L75.1875,27 L72.8515625,27 Z M74.03125,13.1484375 C73.624998,13.1484375 73.2773452,13.0117201 72.9882812,12.7382812 C72.6992173,12.4648424 72.5546875,12.1380227 72.5546875,11.7578125 C72.5546875,11.3723939 72.6992173,11.0429701 72.9882812,10.7695312 C73.2773452,10.4960924 73.624998,10.359375 74.03125,10.359375 C74.4322937,10.359375 74.7786444,10.4960924 75.0703125,10.7695312 C75.3619806,11.0429701 75.5078125,11.3723939 75.5078125,11.7578125 C75.5078125,12.1380227 75.3619806,12.4648424 75.0703125,12.7382812 C74.7786444,13.0117201 74.4322937,13.1484375 74.03125,13.1484375 Z M78.328125,27 L78.328125,15 L80.5859375,15 L80.5859375,16.90625 L80.7109375,16.90625 C80.9296886,16.2604134 81.3164035,15.7513039 81.8710938,15.3789062 C82.425784,15.0065086 83.054684,14.8203125 83.7578125,14.8203125 C83.9088549,14.8203125 84.0833323,14.8255208 84.28125,14.8359375 C84.4791677,14.8463542 84.6354161,14.8593749 84.75,14.875 L84.75,17.109375 C84.6562495,17.0833332 84.4908866,17.0533856 84.2539062,17.0195312 C84.0169259,16.9856769 83.7760429,16.96875 83.53125,16.96875 C82.7031209,16.96875 82.0182319,17.2226537 81.4765625,17.7304688 C80.9348931,18.2382838 80.6640625,18.8854127 80.6640625,19.671875 L80.6640625,27 L78.328125,27 Z M90.1640625,27.265625 C89.403642,27.265625 88.717451,27.1250014 88.1054688,26.84375 C87.4934865,26.5624986 87.0078143,26.1497423 86.6484375,25.6054688 C86.2890607,25.0611952 86.109375,24.3958373 86.109375,23.609375 C86.109375,22.9270799 86.2408841,22.3671897 86.5039062,21.9296875 C86.7669284,21.4921853 87.1184874,21.1458346 87.5585938,20.890625 C87.9987001,20.6354154 88.4921848,20.4440111 89.0390625,20.3164062 C89.5859402,20.1888014 90.1432263,20.0911462 90.7109375,20.0234375 C91.4296911,19.9401037 92.0117165,19.871094 92.4570312,19.8164062 C92.902346,19.7617185 93.2278636,19.6718756 93.4335938,19.546875 C93.6393239,19.4218744 93.7421875,19.2187514 93.7421875,18.9375 L93.7421875,18.8828125 C93.7421875,18.2005174 93.5507832,17.6718769 93.1679688,17.296875 C92.7851543,16.9218731 92.2161496,16.734375 91.4609375,16.734375 C90.6744752,16.734375 90.0559918,16.9062483 89.6054688,17.25 C89.1549457,17.5937517 88.8437509,17.9791645 88.671875,18.40625 L86.4765625,17.90625 C86.8671895,16.8124945 87.5195267,16.0286482 88.4335938,15.5546875 C89.3476608,15.0807268 90.3463488,14.84375 91.4296875,14.84375 C91.9088566,14.84375 92.416664,14.899739 92.953125,15.0117188 C93.489586,15.1236985 93.9960914,15.3294256 94.4726562,15.6289062 C94.9492211,15.9283869 95.3372381,16.3515598 95.6367188,16.8984375 C95.9361994,17.4453152 96.0859375,18.1562456 96.0859375,19.03125 L96.0859375,27 L93.8046875,27 L93.8046875,25.359375 L93.7109375,25.359375 C93.486978,25.8072939 93.0885445,26.2369771 92.515625,26.6484375 C91.9427055,27.0598979 91.1588591,27.265625 90.1640625,27.265625 Z M90.671875,25.390625 C91.3229199,25.390625 91.8776019,25.2630221 92.3359375,25.0078125 C92.7942731,24.7526029 93.14453,24.4179708 93.3867188,24.0039062 C93.6289075,23.5898417 93.75,23.1458357 93.75,22.671875 L93.75,21.125 C93.6406245,21.2343755 93.4010435,21.3307287 93.03125,21.4140625 C92.6614565,21.4973963 92.2708354,21.567708 91.859375,21.625 C91.4479146,21.682292 91.1145846,21.7291665 90.859375,21.765625 C90.1822883,21.8541671 89.602867,22.0325507 89.1210938,22.3007812 C88.6393205,22.5690118 88.3984375,23.0156219 88.3984375,23.640625 C88.3984375,24.2187529 88.611977,24.6549464 89.0390625,24.9492188 C89.466148,25.2434911 90.0104134,25.390625 90.671875,25.390625 Z" id="BiLira"/>
            </g>
        </g>
    </g>
</svg>