<svg width="126" height="32" viewBox="0 0 126 32" fill="none" xmlns="http://www.w3.org/2000/svg">
<path fill-rule="evenodd" clip-rule="evenodd" d="M32 0H24H16H8H0V8V16V24V32H8V24H16V16H24V8H32V0Z" fill="url(#paint0_linear)"/>
<path d="M42 21.5931V15.3216C42 15.0875 42.136 14.8868 42.408 14.7196C42.6799 14.5356 42.9944 14.4436 43.3513 14.4436C43.7083 14.4436 44.0143 14.5356 44.2692 14.7196C44.5412 14.8868 44.6772 15.0875 44.6772 15.3216V21.5931C44.6772 22.2621 44.9322 22.8641 45.4421 23.3993C45.969 23.9345 46.581 24.202 47.2779 24.202C47.9918 24.202 48.6037 23.9428 49.1137 23.4244C49.6236 22.8892 49.8786 22.2788 49.8786 21.5931V15.2966C49.8786 15.0624 50.0061 14.8617 50.261 14.6945C50.533 14.5273 50.856 14.4436 51.2299 14.4436C51.6039 14.4436 51.9099 14.5273 52.1478 14.6945C52.4028 14.8617 52.5303 15.0624 52.5303 15.2966V21.5931C52.5303 22.9143 52.0118 24.0682 50.975 25.055C49.9381 26.0417 48.7057 26.535 47.2779 26.535C45.8501 26.535 44.6092 26.0417 43.5553 25.055C42.5184 24.0682 42 22.9143 42 21.5931Z" fill="#303030"/>
<path d="M54.7906 21.5429V19.2852C54.7906 17.7968 55.2325 16.5927 56.1164 15.6728C57.0003 14.753 58.3176 14.2931 60.0684 14.2931C61.1733 14.2931 62.0997 14.4854 62.8476 14.8701C63.5955 15.238 63.9695 15.6561 63.9695 16.1244C63.9695 16.4087 63.859 16.693 63.638 16.9773C63.434 17.2616 63.1876 17.4038 62.8986 17.4038C62.8136 17.4038 62.5077 17.2783 61.9807 17.0275C61.4708 16.7599 60.9013 16.6261 60.2724 16.6261C58.4026 16.6261 57.4677 17.5125 57.4677 19.2852V21.5429C57.4677 23.3157 58.4111 24.202 60.2979 24.202C60.9438 24.202 61.5218 24.0682 62.0317 23.8007C62.5587 23.5164 62.8731 23.3742 62.9751 23.3742C63.3151 23.3742 63.587 23.508 63.791 23.7756C64.012 24.0432 64.1225 24.3275 64.1225 24.6285C64.1225 25.0466 63.791 25.448 63.1281 25.8326C62.4652 26.2173 61.6408 26.443 60.6549 26.5099L60.3234 27.7141C61.1393 27.7308 61.7512 27.9147 62.1592 28.2659C62.5841 28.6339 62.7966 29.0771 62.7966 29.5955C62.7966 30.1307 62.5841 30.6157 62.1592 31.0505C61.7512 31.4853 61.1223 31.7027 60.2724 31.7027C59.7965 31.7027 59.329 31.6358 58.8701 31.502C58.4111 31.385 58.1817 31.2177 58.1817 31.0003C58.1817 30.8665 58.2242 30.6993 58.3091 30.4986C58.4111 30.2979 58.5386 30.1976 58.6916 30.1976C58.7256 30.1976 58.8956 30.2561 59.2015 30.3732C59.5075 30.4902 59.822 30.5488 60.1449 30.5488C60.9948 30.5488 61.4198 30.2477 61.4198 29.6457C61.4198 29.0938 60.9608 28.776 60.0429 28.6924L58.8191 28.567L59.38 26.5099C57.8502 26.3929 56.7028 25.8911 55.9379 25.0048C55.173 24.1017 54.7906 22.9477 54.7906 21.5429Z" fill="#303030"/>
<path d="M65.9533 21.5931V15.3216C65.9533 15.0875 66.0893 14.8868 66.3612 14.7196C66.6332 14.5356 66.9477 14.4436 67.3046 14.4436C67.6616 14.4436 67.9675 14.5356 68.2225 14.7196C68.4945 14.8868 68.6305 15.0875 68.6305 15.3216V21.5931C68.6305 22.2621 68.8854 22.8641 69.3954 23.3993C69.9223 23.9345 70.5342 24.202 71.2312 24.202C71.9451 24.202 72.557 23.9428 73.0669 23.4244C73.5769 22.8892 73.8319 22.2788 73.8319 21.5931V15.2966C73.8319 15.0624 73.9593 14.8617 74.2143 14.6945C74.4863 14.5273 74.8092 14.4436 75.1832 14.4436C75.5572 14.4436 75.8631 14.5273 76.1011 14.6945C76.3561 14.8617 76.4836 15.0624 76.4836 15.2966V21.5931C76.4836 22.9143 75.9651 24.0682 74.9282 25.055C73.8914 26.0417 72.659 26.535 71.2312 26.535C69.8033 26.535 68.5625 26.0417 67.5086 25.055C66.4717 24.0682 65.9533 22.9143 65.9533 21.5931Z" fill="#303030"/>
<path d="M79.1773 25.4563V15.2966C79.1773 15.0457 79.2963 14.845 79.5342 14.6945C79.7892 14.5273 80.1037 14.4436 80.4776 14.4436C80.8176 14.4436 81.1065 14.5273 81.3445 14.6945C81.5825 14.845 81.7015 15.0457 81.7015 15.2966V16.4003C81.9905 15.815 82.4239 15.3216 83.0018 14.9203C83.5968 14.5022 84.2427 14.2931 84.9396 14.2931H85.7555C86.0275 14.2931 86.2654 14.4102 86.4694 14.6443C86.6734 14.8617 86.7754 15.1293 86.7754 15.4471C86.7754 15.7648 86.6734 16.0408 86.4694 16.2749C86.2654 16.509 86.0275 16.6261 85.7555 16.6261H84.9396C84.1237 16.6261 83.4013 16.9689 82.7724 17.6546C82.1604 18.3403 81.8545 19.2267 81.8545 20.3137V25.4563C81.8545 25.6737 81.7185 25.8744 81.4465 26.0584C81.1745 26.2424 80.8516 26.3343 80.4776 26.3343C80.1037 26.3343 79.7892 26.2424 79.5342 26.0584C79.2963 25.8744 79.1773 25.6737 79.1773 25.4563Z" fill="#303030"/>
<path d="M88.3397 22.4209V9.85292C88.3397 9.61879 88.4757 9.4181 88.7476 9.25086C89.0196 9.08362 89.3256 9 89.6655 9C90.0055 9 90.3114 9.08362 90.5834 9.25086C90.8724 9.4181 91.0169 9.61879 91.0169 9.85292V14.4436H94.1275C94.3485 14.4436 94.527 14.544 94.6629 14.7447C94.7989 14.9286 94.8669 15.1544 94.8669 15.422C94.8669 15.6896 94.7989 15.9237 94.6629 16.1244C94.527 16.3083 94.3485 16.4003 94.1275 16.4003H91.0169V22.4209C91.0169 23.023 91.1444 23.4495 91.3993 23.7003C91.6713 23.9512 92.1387 24.0766 92.8017 24.0766H93.6941C94.051 24.0766 94.3315 24.1853 94.5355 24.4027C94.7394 24.6201 94.8414 24.8877 94.8414 25.2055C94.8414 25.5232 94.7394 25.7908 94.5355 26.0082C94.3315 26.2256 94.051 26.3343 93.6941 26.3343H92.8017C89.827 26.3343 88.3397 25.0299 88.3397 22.4209Z" fill="#303030"/>
<path d="M96.7563 25.4563V15.2966C96.7563 15.0457 96.8753 14.845 97.1132 14.6945C97.3682 14.5273 97.6912 14.4436 98.0821 14.4436C98.4051 14.4436 98.6856 14.5273 98.9235 14.6945C99.1615 14.845 99.2805 15.0457 99.2805 15.2966V16.1996C100.011 14.9286 101.142 14.2931 102.672 14.2931C103.42 14.2931 104.082 14.5273 104.66 14.9955C105.255 15.4471 105.706 16.0491 106.012 16.8017C106.437 15.9822 106.989 15.3634 107.669 14.9454C108.366 14.5105 109.097 14.2931 109.862 14.2931C111.069 14.2931 112.106 14.7447 112.972 15.6478C113.856 16.5341 114.298 17.7299 114.298 19.235V25.4563C114.298 25.6737 114.162 25.8744 113.89 26.0584C113.618 26.2424 113.304 26.3343 112.947 26.3343C112.607 26.3343 112.301 26.2424 112.029 26.0584C111.757 25.8744 111.621 25.6737 111.621 25.4563V19.235C111.621 18.4156 111.383 17.7717 110.907 17.3034C110.431 16.8352 109.879 16.601 109.25 16.601C108.621 16.601 108.06 16.8352 107.567 17.3034C107.091 17.7717 106.853 18.3988 106.853 19.1849V25.4814C106.853 25.7657 106.717 25.9831 106.445 26.1336C106.19 26.2674 105.876 26.3343 105.502 26.3343C105.162 26.3343 104.856 26.2674 104.584 26.1336C104.312 25.9831 104.176 25.7657 104.176 25.4814V19.2099C104.176 18.4574 103.938 17.8386 103.462 17.3536C103.003 16.8686 102.451 16.6261 101.805 16.6261C101.159 16.6261 100.598 16.8602 100.122 17.3285C99.663 17.7968 99.4335 18.4323 99.4335 19.235V25.4563C99.4335 25.6737 99.2975 25.8744 99.0255 26.0584C98.7536 26.2424 98.4391 26.3343 98.0821 26.3343C97.7082 26.3343 97.3937 26.2424 97.1387 26.0584C96.8838 25.8744 96.7563 25.6737 96.7563 25.4563Z" fill="#303030"/>
<path d="M116.235 23.2237C116.235 21.8858 116.745 20.9576 117.764 20.4392C118.784 19.904 120.263 19.6364 122.201 19.6364H123.323V19.1849C123.323 18.449 123.11 17.8135 122.685 17.2783C122.277 16.7432 121.648 16.4756 120.799 16.4756C120.068 16.4756 119.422 16.601 118.861 16.8519C118.317 17.1027 118.019 17.2282 117.968 17.2282C117.679 17.2282 117.441 17.0944 117.255 16.8268C117.085 16.5425 117 16.2331 117 15.8986C117 15.4638 117.407 15.0875 118.223 14.7697C119.056 14.452 119.932 14.2931 120.85 14.2931C122.6 14.2931 123.892 14.7614 124.725 15.6979C125.575 16.6177 126 17.7717 126 19.1598V25.4563C126 25.6905 125.873 25.8995 125.618 26.0835C125.38 26.2507 125.074 26.3343 124.7 26.3343C124.36 26.3343 124.071 26.2507 123.833 26.0835C123.595 25.8995 123.476 25.6905 123.476 25.4563V24.5783C122.337 25.8828 121.054 26.535 119.626 26.535C118.64 26.535 117.824 26.2507 117.178 25.6821C116.549 25.1135 116.235 24.294 116.235 23.2237ZM118.937 22.8976C118.937 23.4327 119.09 23.8425 119.396 24.1268C119.702 24.3944 120.102 24.5282 120.595 24.5282C121.241 24.5282 121.852 24.2606 122.43 23.7254C123.025 23.1902 123.323 22.6216 123.323 22.0196V21.0914H122.685C121.92 21.0914 121.292 21.1248 120.799 21.1917C120.323 21.2586 119.889 21.4342 119.498 21.7185C119.124 22.0028 118.937 22.3959 118.937 22.8976Z" fill="#303030"/>
<defs>
<linearGradient id="paint0_linear" x1="0" y1="0" x2="21.5652" y2="23.3043" gradientUnits="userSpaceOnUse">
<stop stop-color="#BAEE2B"/>
<stop offset="0.479167" stop-color="#39BABA"/>
<stop offset="1" stop-color="#843472"/>
</linearGradient>
</defs>
</svg>
