<svg width="3195" height="647" viewBox="0 0 3195 647" fill="none" xmlns="http://www.w3.org/2000/svg">
<path d="M864.427 210.703H899.149L996.307 436.238H950.436L929.411 384.632H831.616L811.228 436.238H766.312L864.427 210.703ZM915.395 350.229L880.673 258.486L845.313 350.229H915.395Z" fill="#E84142"/>
<path d="M1039.36 210.703H1085.55L1147.03 381.128L1210.42 210.703H1253.75L1162.64 436.238H1127.92L1039.36 210.703Z" fill="#E84142"/>
<path d="M1397.19 210.703H1431.92L1529.07 436.238H1483.2L1462.18 384.632H1364.38L1343.99 436.238H1299.08L1397.19 210.703ZM1448.16 350.229L1413.44 258.486L1378.08 350.229H1448.16Z" fill="#E84142"/>
<path d="M1617.85 210.703H1657.99V399.923H1753.87V436.238H1617.85V210.703Z" fill="#E84142"/>
<path d="M1919.69 210.703H1954.42L2051.57 436.238H2005.7L1984.68 384.632H1886.88L1866.49 436.238H1821.58L1919.69 210.703ZM1970.66 350.229L1935.94 258.486L1900.58 350.229H1970.66Z" fill="#E84142"/>
<path d="M2140.35 210.703H2193.55L2302.81 378.261H2303.45V210.703H2343.58V436.238H2292.62L2181.12 263.264H2180.49V436.238H2140.35V210.703Z" fill="#E84142"/>
<path d="M2612.41 263.582C2604.13 254.663 2596.06 248.717 2588.2 245.743C2580.55 242.77 2572.8 241.284 2564.95 241.284C2553.27 241.284 2542.65 243.407 2533.09 247.655C2523.75 251.69 2515.68 257.424 2508.88 264.857C2502.08 272.077 2496.78 280.572 2492.95 290.341C2489.34 300.11 2487.54 310.622 2487.54 321.877C2487.54 333.982 2489.34 345.132 2492.95 355.325C2496.78 365.519 2502.08 374.332 2508.88 381.765C2515.68 389.198 2523.75 395.038 2533.09 399.286C2542.65 403.533 2553.27 405.657 2564.95 405.657C2574.08 405.657 2582.89 403.533 2591.39 399.286C2600.09 394.826 2608.16 387.818 2615.6 378.261L2648.72 401.834C2638.53 415.85 2626.11 426.044 2611.45 432.415C2596.8 438.786 2581.19 441.972 2564.63 441.972C2547.21 441.972 2531.18 439.211 2516.53 433.689C2502.08 427.955 2489.55 419.992 2478.94 409.798C2468.53 399.392 2460.35 386.968 2454.41 372.527C2448.46 358.086 2445.49 342.052 2445.49 324.426C2445.49 306.375 2448.46 290.022 2454.41 275.369C2460.35 260.503 2468.53 247.867 2478.94 237.461C2489.55 227.055 2502.08 219.091 2516.53 213.57C2531.18 207.836 2547.21 204.969 2564.63 204.969C2579.92 204.969 2594.04 207.73 2606.99 213.251C2620.16 218.56 2632.37 227.692 2643.63 240.647L2612.41 263.582Z" fill="#E84142"/>
<path d="M2739.38 210.703H2779.51V300.534H2884.95V210.703H2925.09V436.238H2884.95V336.849H2779.51V436.238H2739.38V210.703Z" fill="#E84142"/>
<path d="M3039.2 210.703H3188.6V247.018H3079.34V302.446H3182.87V338.761H3079.34V399.923H3194.34V436.238H3039.2V210.703Z" fill="#E84142"/>
<circle cx="323.5" cy="323.5" r="323.5" fill="#E84142"/>
<path d="M220.939 467.362H167.112C150.549 467.362 142.267 467.362 137.307 464.152C131.947 460.682 128.566 454.861 128.207 448.486C127.875 442.587 131.978 435.393 140.184 421.005L295.678 148.359C304.003 133.762 308.166 126.463 313.461 123.747C319.183 120.811 325.967 120.806 331.694 123.733C336.993 126.442 341.166 133.735 349.512 148.32L376.971 196.302C386.075 212.211 390.626 220.165 392.628 228.558C394.807 237.692 394.811 247.211 392.64 256.348C390.645 264.742 386.1 272.7 377.01 288.616L377.01 288.616L301.696 420.485C292.473 436.633 287.862 444.707 281.543 450.744C274.666 457.315 266.326 462.156 257.209 464.87C248.833 467.362 239.535 467.362 220.939 467.362Z" fill="white"/>
<path d="M491.446 467.366H408.123C391.409 467.366 383.052 467.366 378.077 464.129C372.702 460.63 369.33 454.765 369.012 448.359C368.717 442.431 372.923 435.209 381.335 420.766L422.928 349.346C431.233 335.085 435.386 327.955 440.644 325.284C446.326 322.398 453.045 322.393 458.732 325.271C463.994 327.934 468.156 335.059 476.482 349.308L518.212 420.727L518.212 420.728C526.656 435.179 530.878 442.405 530.589 448.338C530.277 454.749 526.908 460.621 521.529 464.124C516.553 467.366 508.184 467.366 491.446 467.366Z" fill="white"/>
</svg>
