<svg width="27" height="27" viewBox="0 0 27 27" fill="none" xmlns="http://www.w3.org/2000/svg">
<path d="M23.5812 5.33917L24.1954 5.95332L25.9327 4.21598C26.0141 4.13453 26.0599 4.02408 26.0599 3.90891C26.0599 3.79374 26.0141 3.68328 25.9327 3.60184L24.1954 1.8645L23.5812 2.47865L24.5772 3.47458H19.545V4.34324H24.5772L23.5812 5.33917Z" fill="black"/>
<path d="M20.9753 9.42817L21.5894 8.81402L20.5935 7.8181H25.6257V6.94943H20.5935L21.5894 5.9535L20.9753 5.33936L19.2379 7.07669C19.1565 7.15814 19.1108 7.26859 19.1108 7.38376C19.1108 7.49893 19.1565 7.60939 19.2379 7.69084L20.9753 9.42817Z" fill="black"/>
<path d="M25.5518 12.6695C25.2439 12.3606 24.8307 12.1796 24.3949 12.1626C23.9591 12.1457 23.533 12.2942 23.2021 12.5783C23.0502 12.3192 22.8332 12.1044 22.5726 11.955C22.3121 11.8057 22.017 11.7271 21.7167 11.727C21.5224 11.7243 21.3294 11.7582 21.1477 11.8269C20.9464 11.898 20.7606 12.0071 20.6004 12.1483C20.4476 11.8888 20.2299 11.6735 19.9687 11.5235C19.7075 11.3734 19.4119 11.2939 19.1107 11.2927C18.805 11.2936 18.5051 11.376 18.242 11.5315V4.34333C18.242 3.88256 18.059 3.44067 17.7331 3.11485C17.4073 2.78904 16.9654 2.606 16.5047 2.606C16.199 2.60688 15.8991 2.68935 15.636 2.84488V1.303C15.635 0.95774 15.4974 0.626916 15.2532 0.382779C15.0091 0.138642 14.6783 0.00103115 14.333 0H3.909C3.56374 0.00103115 3.23292 0.138642 2.98878 0.382779C2.74464 0.626916 2.60703 0.95774 2.606 1.303V9.98967H2.17167C1.5957 9.98967 1.04333 10.2185 0.636066 10.6257C0.2288 11.033 0 11.5854 0 12.1613V13.9378L0.868667 23.0414V25.6257C0.868667 25.7409 0.914427 25.8513 0.99588 25.9328C1.07733 26.0142 1.18781 26.06 1.303 26.06H10.8583C10.9735 26.06 11.084 26.0142 11.1655 25.9328C11.2469 25.8513 11.2927 25.7409 11.2927 25.6257V23.1587L12.9084 20.848H13.8422L14.333 22.2248V25.6257C14.333 25.7409 14.3788 25.8513 14.4602 25.9328C14.5417 26.0142 14.6521 26.06 14.7673 26.06H23.454C23.5692 26.06 23.6797 26.0142 23.7611 25.9328C23.8426 25.8513 23.8883 25.7409 23.8883 25.6257V22.2248L25.8819 16.6393C25.9992 16.3118 26.0595 15.9665 26.06 15.6186V13.8987C26.0602 13.6704 26.0154 13.4444 25.9282 13.2335C25.841 13.0226 25.7131 12.831 25.5518 12.6695ZM10.424 25.1913H1.73733V23.454H10.424V25.1913ZM10.6325 22.5853H1.69824L0.868667 13.8987V12.1613C0.869698 11.8161 1.00731 11.4852 1.25145 11.2411C1.49558 10.997 1.82641 10.8594 2.17167 10.8583H5.212C5.55758 10.8583 5.889 10.9956 6.13336 11.24C6.37772 11.4843 6.515 11.8158 6.515 12.1613C6.515 12.5069 6.37772 12.8383 6.13336 13.0827C5.889 13.3271 5.55758 13.4643 5.212 13.4643H3.04033C2.92514 13.4643 2.81467 13.5101 2.73321 13.5915C2.65176 13.673 2.606 13.7835 2.606 13.8987V19.545C2.60703 19.8903 2.74464 20.2211 2.98878 20.4652C3.23292 20.7094 3.56374 20.847 3.909 20.848H11.8486L10.6325 22.5853ZM3.909 19.9793C3.79381 19.9793 3.68333 19.9336 3.60188 19.8521C3.52043 19.7707 3.47467 19.6602 3.47467 19.545V18.242H11.2927V17.3733H3.47467V14.333H5.212C5.78796 14.333 6.34033 14.1042 6.7476 13.6969C7.15487 13.2897 7.38367 12.7373 7.38367 12.1613C7.38367 11.5854 7.15487 11.033 6.7476 10.6257C6.34033 10.2185 5.78796 9.98967 5.212 9.98967H3.47467V1.303C3.47467 1.18781 3.52043 1.07733 3.60188 0.99588C3.68333 0.914427 3.79381 0.868667 3.909 0.868667H14.333C14.4482 0.868667 14.5587 0.914427 14.6401 0.99588C14.7216 1.07733 14.7673 1.18781 14.7673 1.303V10.2329C14.5036 10.0746 14.2019 9.99053 13.8943 9.98967C13.4351 9.99081 12.9949 10.1738 12.6702 10.4985C12.3454 10.8233 12.1625 11.2634 12.1613 11.7227V15.6186C12.1622 15.9679 12.2224 16.3145 12.3394 16.6437L13.5295 19.9793H3.909ZM16.5047 25.1913H15.2017V22.5853H16.5047V25.1913ZM18.6763 25.1913H17.3733V22.5853H18.6763V25.1913ZM20.848 25.1913H19.545V22.5853H20.848V25.1913ZM23.0197 25.1913H21.7167V22.5853H23.0197V25.1913ZM25.1913 15.6186C25.1908 15.8672 25.1482 16.1139 25.0654 16.3483L23.15 21.7167H15.0714L13.156 16.3526C13.0735 16.1167 13.0309 15.8686 13.03 15.6186V11.7227C13.0306 11.4923 13.1226 11.2716 13.286 11.1091C13.4493 10.9466 13.6705 10.8556 13.9008 10.8562C14.1312 10.8567 14.3519 10.9488 14.5144 11.1121C14.6769 11.2754 14.7679 11.4966 14.7673 11.727V15.2017H15.636V4.34333C15.6377 4.11348 15.7298 3.89352 15.8923 3.73098C16.0548 3.56844 16.2748 3.47637 16.5047 3.47467C16.7348 3.47535 16.9554 3.56709 17.1181 3.72985C17.2809 3.89261 17.3726 4.11316 17.3733 4.34333V15.2017H18.242V13.03C18.2437 12.8001 18.3358 12.5802 18.4983 12.4176C18.6608 12.2551 18.8808 12.163 19.1107 12.1613C19.3408 12.162 19.5614 12.2538 19.7241 12.4165C19.8869 12.5793 19.9786 12.7998 19.9793 13.03V15.2017H20.848V13.4643C20.8481 13.3504 20.8708 13.2376 20.9148 13.1324C20.9587 13.0273 21.0232 12.932 21.1043 12.8519C21.1961 12.755 21.3112 12.6832 21.4387 12.6434C21.5279 12.6114 21.6219 12.5952 21.7167 12.5957C21.9468 12.5964 22.1674 12.6881 22.3301 12.8509C22.4929 13.0136 22.5846 13.2342 22.5853 13.4643V15.636H23.454V13.8987C23.4547 13.6685 23.5464 13.4479 23.7092 13.2852C23.8719 13.1224 24.0925 13.0307 24.3227 13.03C24.5525 13.0317 24.7725 13.1238 24.935 13.2863C25.0976 13.4488 25.1896 13.6688 25.1913 13.8987V15.6186Z" fill="black"/>
<path d="M9.12098 1.7373C8.26195 1.7373 7.42221 1.99204 6.70796 2.46929C5.9937 2.94654 5.437 3.62488 5.10827 4.41852C4.77953 5.21216 4.69352 6.08546 4.86111 6.92798C5.0287 7.7705 5.44236 8.54441 6.04978 9.15184C6.65721 9.75926 7.43112 10.1729 8.27364 10.3405C9.11617 10.5081 9.98947 10.4221 10.7831 10.0934C11.5767 9.76462 12.2551 9.20792 12.7323 8.49367C13.2096 7.77941 13.4643 6.93967 13.4643 6.08064C13.4625 4.92928 13.0043 3.8256 12.1902 3.01147C11.376 2.19733 10.2723 1.73914 9.12098 1.7373ZM9.12098 9.55531C8.43376 9.55531 7.76197 9.35152 7.19056 8.96972C6.61916 8.58792 6.1738 8.04525 5.91081 7.41034C5.64782 6.77542 5.57901 6.07678 5.71308 5.40276C5.84715 4.72874 6.17808 4.10962 6.66402 3.62368C7.14996 3.13774 7.76909 2.80681 8.44311 2.67274C9.11713 2.53867 9.81577 2.60748 10.4507 2.87046C11.0856 3.13345 11.6283 3.57881 12.0101 4.15022C12.3919 4.72162 12.5957 5.39341 12.5957 6.08064C12.5944 7.00179 12.2279 7.88485 11.5765 8.5362C10.9252 9.18756 10.0421 9.55404 9.12098 9.55531Z" fill="black"/>
</svg>
