<svg width="27" height="27" viewBox="0 0 27 27" fill="none" xmlns="http://www.w3.org/2000/svg">

<path d="M25.6682 16.1823C23.9279 23.1627 16.8579 27.4109 9.87668 25.6702C2.8983 23.9298 -1.34988 16.8594 0.39125 9.87943C2.13075 2.8982 9.20075 -1.3504 16.1799 0.389921C23.1608 2.13024 27.4085 9.20146 25.6682 16.1823Z" fill="white"/>
<path d="M18.7752 11.1738C19.0345 9.43997 17.7144 8.50792 15.9094 7.88614L16.4949 5.53749L15.0653 5.1812L14.4952 7.46796C14.1194 7.37431 13.7334 7.28595 13.3498 7.1984L13.9239 4.89657L12.4951 4.54028L11.9092 6.88813C11.5981 6.81728 11.2927 6.74724 10.9963 6.67354L10.9979 6.66621L9.02628 6.17392L8.64597 7.70087C8.64597 7.70087 9.70669 7.94396 9.6843 7.95903C10.2633 8.10358 10.368 8.48674 10.3505 8.79051L9.68348 11.4661C9.72339 11.4763 9.7751 11.491 9.83211 11.5138C9.78447 11.502 9.73357 11.4889 9.68104 11.4763L8.74614 15.2245C8.67529 15.4004 8.49572 15.6642 8.09097 15.5641C8.10522 15.5848 7.05183 15.3047 7.05183 15.3047L6.3421 16.9412L8.20254 17.405C8.54865 17.4917 8.88784 17.5825 9.22173 17.668L8.63009 20.0435L10.0581 20.3998L10.644 18.0495C11.0341 18.1554 11.4128 18.2531 11.7833 18.3452L11.1994 20.6845L12.6291 21.0407L13.2207 18.6697C15.6586 19.131 17.4917 18.9449 18.2633 16.74C18.8851 14.9647 18.2324 13.9406 16.9497 13.2728C17.8838 13.0574 18.5875 12.443 18.7752 11.1738V11.1738ZM15.5087 15.7542C15.0669 17.5296 12.0777 16.5698 11.1086 16.3292L11.8937 13.182C12.8628 13.4239 15.9705 13.9027 15.5087 15.7542ZM15.9509 11.1481C15.5478 12.763 13.0599 11.9425 12.2528 11.7414L12.9646 8.88701C13.7716 9.08816 16.3707 9.46359 15.9509 11.1481V11.1481Z" fill="#F7931A"/>

<defs>
<clipPath id="clip0">
<rect width="26.06" height="26.06" fill="white"/>
</clipPath>
</defs>
</svg>
