<svg width="27" height="27" fill="none" xmlns="http://www.w3.org/2000/svg"><path d="M25.6682 16.1823c-1.7403 6.9804-8.8103 11.2286-15.79152 9.4879C2.8983 23.9298-1.34988 16.8594.39125 9.87943 2.13075 2.8982 9.20075-1.3504 16.1799.389921 23.1608 2.13024 27.4086 9.20146 25.6682 16.1823z" fill="#F7931A"/><path d="M18.7751 11.1738c.2594-1.73383-1.0607-2.66588-2.8658-3.28766l.5856-2.34865-1.4296-.35629-.5701 2.28676c-.3758-.09365-.7619-.18201-1.1454-.26956l.5741-2.30183-1.4288-.35629-.586 2.34785c-.3111-.07085-.6164-.14089-.9129-.21459l.0017-.00733-1.97165-.49229-.38031 1.52695s1.06072.24309 1.03833.25816c.57903.14455.68363.52771.66613.83148l-.66695 2.67559c.03991.0102.09162.0249.14863.0477-.04765-.0118-.09854-.0249-.15107-.0375l-.9349 3.7482c-.07085.1759-.25042.4397-.65517.3396.01425.0207-1.03914-.2594-1.03914-.2594l-.70973 1.6365 1.86044.4638c.34611.0867.6853.1775 1.01919.263l-.59164 2.3755 1.42804.3563.5859-2.3503c.3901.1059.7688.2036 1.1393.2957l-.5839 2.3393 1.4296.3562.5917-2.371c2.4378.4613 4.271.2752 5.0426-1.9297.6218-1.7753-.0309-2.7994-1.3136-3.4672.9341-.2154 1.6377-.8298 1.8254-2.099zm-3.2664 4.5804c-.4418 1.7754-3.431.8156-4.4001.575l.7851-3.1472c.9691.2419 4.0767.7207 3.615 2.5722zm.4422-4.6061c-.4031 1.6149-2.891.7944-3.6981.5933l.7118-2.85439c.807.20115 3.4061.57658 2.9863 2.26109z" fill="#fff"/><defs><path fill="#fff" d="M0 0h26.06v26.06H0z"/></defs></svg>
