<svg width="903" height="1024" fill="none" xmlns="http://www.w3.org/2000/svg"><path fill="url(#paint0_radial)" d="M0 0h903v1024H0z"/><path fill-rule="evenodd" clip-rule="evenodd" d="M859.464 194c-52.203 0-96.681 35.591-113.558 85.424-13.094-5.434-27.318-8.437-42.202-8.437-23.801 0-45.938 7.644-64.448 20.723-11.901-32.233-41.166-55.032-75.392-55.032-29.202 0-54.793 16.589-69.064 41.481-29.563-23.592-66.16-37.549-105.802-37.549-76.349 0-141.457 51.775-166.577 124.441-18.526-14.31-41.228-22.765-65.783-22.765A106.322 106.322 0 00118 349.593V793h785V202.674A113.232 113.232 0 00859.464 194z" fill="#fff"/><path d="M903 424H0v600h903V424z" fill="#88C180"/><path fill-rule="evenodd" clip-rule="evenodd" d="M755.188 443.362H903V324.785c-9.204-2.102-11.907 18.972-19.271 19.53-8.846.657-10.54-53.547-21.911-53.087-11.381.443-14.169 54.714-26.055 62.795-11.876 8.065-26.771-18.594-34.071 0-7.311 18.594-1.304 53.646-14.001 53.235-12.696-.427-31.662-7.654-32.503 36.104z" fill="#248F8B"/><path d="M862.092 311.908s4.355 77.972.568 131.552M903 427.412c-.726 5.848-1.651 11.17-2.84 15.605M899.108 347.601l3.892 5.913M896.268 369.677l6.732 7.982M894.259 389.453L903 400.195M867.846 317.098l-5.007 10.989M853.245 323.866l10.004 15.045M874.452 343.773l-10.561 18.381M848.049 352.955l16.157 24.737M883.309 365.324l-19.113 28.794M842.842 384.115l21.101 30.206M886.254 400.967l-22.647 24.573M810.865 365.324s8.288 39.914 8.993 78.136M816.766 368.724l-3.03 12.533M826.601 375.048l-9.425 30.831M829.273 402.298l-10.067 25.886M807.078 380.402l7.458 5.864M803.007 399.21l14.705 11.465M806.173 423.257l13.222 7.999" stroke="#94CFB9" stroke-miterlimit="10"/><path fill-rule="evenodd" clip-rule="evenodd" d="M744.359 443.362c4.123-28.219-5.716-44.973-17.411-47.043-12.023-2.135-20.138-6.537-23.768-25.64-3.63-19.103-5.864-38.502-19.283-35.972-13.42 2.513-18.167 19.562-19.284 39.142-1.117 19.563-9.51 17.329-20.975 24.999-8.952 5.996-2.546 32.999.673 44.514h100.048z" fill="#37B4B1"/><path opacity=".2" fill-rule="evenodd" clip-rule="evenodd" d="M731.334 421.549c-5.453-3.811-16.491 3.81-25.295 2.825-8.805-.986-6.571-28.384-18.873-28.384-12.303 0-11.318 31.307-21.107 31.455-9.79.132-8.952-13.551-16.919-8.984-6.57 3.761-2.299 19.497-.607 24.901h79.253c3.022-7.178 7.309-19.185 3.548-21.813z" fill="#000"/><path d="M684.932 348.816s4.878 56.028.624 94.546M691.387 352.545l-5.618 7.9M674.994 357.407l11.235 10.808M698.795 371.713l-11.843 13.207M669.163 378.316l18.134 17.773M708.732 387.203l-21.451 20.696M674.37 409.985l12.631 12.434M702.868 413.303l-16.245 17.181M654.462 407.85s4.895 8.032 5.683 35.512M666.321 420.99l-6.898 11.399M644.787 428.825l14.833 5.765M724.484 414.026s-2.513 1.856-3.301 29.336M715.023 421.023l6.883 11.367M732.155 430.533l-10.447 4.057" stroke="#94CFB9" stroke-miterlimit="10"/><path fill-rule="evenodd" clip-rule="evenodd" d="M652.687 443.263s5.585-73.192-7.178-74.769c-12.779-1.577-10.512 30.65-23.225 30.371-12.697-.279-19.645-10.907-24.294.525-4.648 11.433-4.763 22.553-15.735 19.12-10.989-3.433-27.201 24.737-27.201 24.737h97.633v.016z" fill="#229E9D"/><path opacity=".11" fill-rule="evenodd" clip-rule="evenodd" d="M582.239 418.51c10.989 3.433 11.104-7.687 15.736-19.12 3.925-9.674 9.51-3.564 18.807-1.281v45.138h-61.76c.016.016 16.228-28.17 27.217-24.737z" fill="#000" stroke="#7DBD77" stroke-width=".216" stroke-miterlimit="22.926"/><path fill-rule="evenodd" clip-rule="evenodd" d="M175.507 443.362H0v-78.367c3.63-19.99 9.527-36.087 19.12-36.612 25.738-1.396 26.888 64.618 64.93 60.38 29.861-3.318 69.151-2.48 91.457 25.263v29.336z" fill="#248F8B"/><path fill-rule="evenodd" clip-rule="evenodd" d="M87.211 443.263s-7.72-101.099 9.921-103.267c17.642-2.169 14.521 42.328 32.08 41.95 17.542-.377 27.135-15.062 33.557.723 6.406 15.802 6.57 31.16 21.747 26.413 15.178-4.747 37.582 34.181 37.582 34.181H87.211z" fill="#37B4B1"/><path opacity=".11" fill-rule="evenodd" clip-rule="evenodd" d="M184.516 409.082c-15.177 4.747-15.325-10.628-21.747-26.413-5.42-13.354-13.124-4.911-25.985-1.757v62.351h85.314c-.016 0-22.421-38.928-37.582-34.181z" fill="#000" stroke="#7DBD77" stroke-width=".216" stroke-miterlimit="22.926"/><path d="M149.579 404.367s-4.648-1.084-5.798 38.88M134.813 410.757l10.019 16.524M160.782 424.177l-16.245 6.307M103.522 366.72s-4.024 30.239 1.1 76.642M112.211 376.904l-9.675 9.494M96.607 394.89l5.929 5.732M121.163 398.454l-18.282 19.662M91.022 419.282l12.319 8.558" stroke="#94CFB9" stroke-miterlimit="10"/><path fill-rule="evenodd" clip-rule="evenodd" d="M827.227 404.269c-15.523 11.777-40.654 1.051-54.583-11.005-2.431-2.103-4.221-4.879-4.878-8.032-3.17-15.112 20.696-18.824 21.386-32.359.312-5.929-4.156-10.841-7.457-15.768-7.507-11.268-9.642-25.526-8.049-38.978 1.594-13.453 6.636-26.265 12.5-38.469 4.796-9.987 13.371-21.271 24.195-18.873 6.948 1.544 11.399 8.459 13.436 15.276 2.776 9.379 2.382 19.464.509 29.073-.821 4.254-1.938 8.673-.788 12.861 2.94 10.71 17.953 13.124 23.39 22.799 5.552 9.839-1.068 21.83-7.194 31.324-5.24 8.13-8.46 13.173-5.027 20.105.904 1.839 2.251 3.416 3.811 4.763 3.302 2.858 9.494 11.547-11.251 27.283z" fill="#EF855A"/><path fill-rule="evenodd" clip-rule="evenodd" d="M806.826 268.561c-.017 3.367-3.417 187.448-3.417 187.448l13.338 1.167-9.921-188.615z" fill="#9C4F5F"/><path fill-rule="evenodd" clip-rule="evenodd" d="M807.401 399.046l-27.316-28.959 29.681 26.528c.706.624.756 1.708.132 2.398a1.695 1.695 0 01-2.399.131 4.528 4.528 0 00-.098-.098zM804.789 315.571l-11.054-21.666 13.239 20.417a1.252 1.252 0 01-.378 1.741 1.255 1.255 0 01-1.741-.377c-.016-.033-.049-.066-.066-.115zM809.503 361.004l26.429-39.865-26.429 39.865zM808.14 360.1l27.792-38.961-25.065 40.768a1.633 1.633 0 01-2.251.542 1.633 1.633 0 01-.542-2.25c.017-.033.05-.066.066-.099z" fill="#9C4F5F"/><path fill-rule="evenodd" clip-rule="evenodd" d="M787.23 413.336c-11.892 9.017-31.159.805-41.819-8.427-1.856-1.609-3.236-3.745-3.745-6.159-2.431-11.58 15.85-14.422 16.392-24.803.23-4.533-3.186-8.311-5.699-12.089-5.749-8.64-7.392-19.563-6.176-29.862 1.215-10.315 5.075-20.121 9.576-29.484 3.679-7.654 10.249-16.294 18.544-14.454 5.322 1.183 8.739 6.472 10.299 11.711 2.135 7.195 1.823 14.915.394 22.273-.64 3.253-1.478 6.653-.608 9.856 2.251 8.196 13.765 10.052 17.937 17.477 4.254 7.539-.821 16.721-5.519 24.014-4.024 6.225-6.488 10.085-3.843 15.407.689 1.413 1.724 2.612 2.907 3.646 2.53 2.169 7.26 8.821-8.64 20.894z" fill="#F3AF47"/><path fill-rule="evenodd" clip-rule="evenodd" d="M770.263 306.717c-.017 2.76-3.828 134.657-3.828 134.657l10.973.969-7.145-135.626z" fill="#9C4F5F"/><path fill-rule="evenodd" clip-rule="evenodd" d="M773.285 386.316l22.47-23.834-24.425 21.83a1.4 1.4 0 00-.115 1.971 1.4 1.4 0 001.971.115.448.448 0 00.099-.082zM768.587 345.4l-9.1-17.822 10.891 16.787c.312.476.18 1.117-.312 1.429a1.024 1.024 0 01-1.43-.312c-.016-.033-.032-.05-.049-.082zM772.48 382.768l21.731-32.802-21.731 32.802z" fill="#9C4F5F"/><path fill-rule="evenodd" clip-rule="evenodd" d="M459.294 443.362c3.367-23.013-4.665-36.662-14.192-38.354-9.806-1.741-16.409-5.322-19.366-20.893-2.957-15.572-4.78-31.373-15.719-29.32-10.94 2.053-14.816 15.949-15.719 31.898-.904 15.95-7.753 14.126-17.083 20.385-7.293 4.894-2.086 26.905.558 36.284h81.521z" fill="#229E9D"/><path opacity=".2" fill-rule="evenodd" clip-rule="evenodd" d="M448.683 425.573c-4.452-3.105-13.436 3.104-20.614 2.299-7.178-.804-5.355-23.127-15.375-23.127-10.019 0-9.231 25.526-17.197 25.641-7.983.114-7.293-11.055-13.781-7.326-5.355 3.071-1.873 15.9-.493 20.302h64.585c2.431-5.848 5.93-15.637 2.875-17.789z" fill="#000"/><path d="M410.838 366.309s3.975 45.663.509 77.053M416.111 369.348l-4.583 6.439M402.757 373.307l9.149 8.804M422.155 384.969l-9.658 10.759M397.993 390.356l14.783 14.488M430.237 397.6l-17.461 16.853M402.247 416.161l10.299 10.135M425.473 418.855l-13.239 14.011M386.019 414.42s3.991 6.554 4.632 28.942M395.694 425.129l-5.634 9.281M378.135 431.519l12.089 4.681M443.098 419.462s-2.053 1.512-2.694 23.916M435.378 425.162l5.617 9.248M449.34 432.899l-8.509 3.301" stroke="#94CFB9" stroke-miterlimit="10"/><path fill-rule="evenodd" clip-rule="evenodd" d="M394.61 443.362c2.332-15.917-3.22-25.378-9.823-26.544-6.784-1.199-11.35-3.696-13.403-14.455-2.053-10.775-3.318-21.714-10.89-20.302-7.573 1.413-10.25 11.038-10.89 22.076-.625 11.038-5.355 9.774-11.827 14.11-5.059 3.384-1.445 18.61.378 25.115h56.455z" fill="#37B4B1"/><path opacity=".2" fill-rule="evenodd" clip-rule="evenodd" d="M387.678 431.059c-3.072-2.152-9.313 2.152-14.274 1.593-4.96-.558-3.712-16.015-10.644-16.015-6.931 0-6.389 17.658-11.908 17.74-5.519.082-5.043-7.654-9.543-5.076-3.713 2.119-1.298 11.006-.345 14.044h44.694c1.724-4.04 4.139-10.808 2.02-12.286z" fill="#000"/><path fill-rule="evenodd" clip-rule="evenodd" d="M461.183 447.337c-7.293 5.535-19.103.492-25.641-5.174-1.15-.986-1.987-2.3-2.299-3.778-1.479-7.096 9.724-8.837 10.052-15.194.148-2.776-1.955-5.092-3.499-7.408-3.531-5.289-4.533-11.991-3.777-18.298.739-6.324 3.104-12.336 5.863-18.068 2.251-4.698 6.275-9.987 11.367-8.87 3.269.723 5.355 3.975 6.307 7.178 1.314 4.402 1.117 9.149.247 13.65-.394 2.004-.904 4.073-.378 6.044 1.38 5.027 8.426 6.16 10.989 10.71 2.611 4.615-.51 10.249-3.384 14.717-2.464 3.811-3.975 6.176-2.365 9.445.427.87 1.051 1.61 1.79 2.234 1.577 1.347 4.468 5.42-5.272 12.812z" fill="#F3AF47"/><path fill-rule="evenodd" clip-rule="evenodd" d="M472.533 448.092c-4.977 3.778-13.042.329-17.51-3.531-.788-.674-1.363-1.561-1.577-2.579-1.018-4.846 6.636-6.045 6.866-10.381.099-1.905-1.33-3.482-2.398-5.059-2.415-3.614-3.088-8.196-2.579-12.5.509-4.32 2.119-8.426 4.008-12.336 1.544-3.203 4.287-6.833 7.753-6.061 2.234.493 3.663 2.711 4.32 4.895.887 3.006.755 6.242.164 9.33-.263 1.363-.624 2.776-.246 4.123.936 3.433 5.765 4.205 7.506 7.309 1.774 3.154-.345 6.997-2.3 10.053-1.675 2.611-2.71 4.221-1.609 6.455.295.591.722 1.1 1.215 1.527 1.068.92 3.055 3.713-3.613 8.755z" fill="#248F8B"/><path fill-rule="evenodd" clip-rule="evenodd" d="M12.894 424.62s37.96-22.257 41.672-10.282c4.254 13.715-41.672 10.282-41.672 10.282zM9.905 423.865C9.33 416.834 5.552 401.132 0 392.032v22.519c5.256 5.388 9.905 9.314 9.905 9.314zM27.48 396.401s38.764-16.36 41.162-4.747c2.596 12.648-41.162 4.747-41.162 4.747zM25.098 396.171s-8.59-40.637-23.291-33.574c-.723.345-1.314.739-1.79 1.183v8.574c5.716 10.315 25.081 23.817 25.081 23.817zM40.21 372.452c6.685-5.338 38.666-17.131 39.815-8.442 2.004 15.128-39.815 8.442-39.815 8.442zM36.645 371.631c-4.073-14.208-14.947-37.844-22.65-33.442-12.632 7.243 22.65 33.442 22.65 33.442zM46.32 347.601c-.854-12.632-11.53-33.936-20.729-30.223-9.198 3.712 20.73 30.223 20.73 30.223zM50.016 344.644s25.952-31.603 13.699-36.547c-12.237-4.944-13.7 36.547-13.7 36.547z" fill="#F3AF47"/><path d="M59.23 320.515S42.428 373.569.74 443.017" stroke="#9C4F5F" stroke-miterlimit="10"/><path fill-rule="evenodd" clip-rule="evenodd" d="M47.831 349.9s33.985-17.592 37.32-7.802c4.09 12.089-37.32 7.802-37.32 7.802z" fill="#F3AF47"/><path d="M74.835 344.365L47.83 349.9l-15.095-23.423M68.987 367.246l-31.438 5.699-17.658-25.739M55.519 393.379l-29.534 3.186L8.46 371.27M47.634 416.49l-35.939 10.413-10.61-19.283" stroke="#9C4F5F" stroke-miterlimit="10"/><path fill-rule="evenodd" clip-rule="evenodd" d="M335.806 758.651c0 1.872-37.729 3.383-84.263 3.383-46.534 0-84.263-1.511-84.263-3.383 0-1.873 37.729-3.384 84.263-3.384 46.534 0 84.263 1.511 84.263 3.384z" fill="#73A36D"/><path fill-rule="evenodd" clip-rule="evenodd" d="M255.353 757.797s4.451-58.295-5.716-59.56c-10.168-1.248-8.377 24.409-18.495 24.195-10.119-.213-15.654-8.689-19.35.411-3.696 9.1-3.794 17.97-12.533 15.243-8.754-2.743-21.665 19.711-21.665 19.711h77.759z" fill="#207F7C"/><path opacity=".11" fill-rule="evenodd" clip-rule="evenodd" d="M199.244 738.086c8.755 2.727 8.837-6.127 12.533-15.243 3.12-7.704 7.572-2.825 14.98-1.018v35.955h-49.179c0 .017 12.927-22.437 21.666-19.694z" fill="#000" stroke="#7DBD77" stroke-width=".216" stroke-miterlimit="22.926"/><path fill-rule="evenodd" clip-rule="evenodd" d="M322.501 757.797c2.891-19.81-4.008-31.57-12.22-33.032-8.443-1.495-14.126-4.583-16.689-18.003-2.546-13.403-4.123-27.02-13.534-25.262-9.429 1.774-12.763 13.731-13.535 27.48-.788 13.732-6.669 12.171-14.717 17.559-6.291 4.205-1.791 23.16.476 31.258h70.219z" fill="#229E9D"/><path opacity=".2" fill-rule="evenodd" clip-rule="evenodd" d="M313.369 742.471c-3.828-2.677-11.58 2.678-17.756 1.988s-4.616-19.924-13.256-19.924-7.95 21.977-14.816 22.076c-6.866.098-6.274-9.511-11.875-6.308-4.616 2.645-1.627 13.683-.427 17.477h55.633c2.119-5.026 5.141-13.469 2.497-15.309z" fill="#000"/><path d="M280.78 691.421s3.433 39.339.444 66.376M285.314 694.032l-3.942 5.552M273.816 697.449l7.884 7.589M290.521 707.485l-8.328 9.28M269.709 712.133l12.73 12.467M297.485 718.359l-15.046 14.536M273.372 734.357l8.87 8.722M293.379 736.673l-11.4 12.073M259.394 732.862s3.433 5.634 3.992 24.935M267.722 742.077l-4.846 7.999M252.61 747.596l10.414 4.025M308.556 737.199s-1.758 1.298-2.316 20.598M301.92 742.11l4.829 7.966M313.944 748.779l-7.343 2.842" stroke="#94CFB9" stroke-miterlimit="10"/><path fill-rule="evenodd" clip-rule="evenodd" d="M161.251 804.084c0 1.872-16.869 3.384-37.696 3.384-20.811 0-37.697-1.512-37.697-3.384 0-1.873 16.869-3.384 37.697-3.384 20.827 0 37.696 1.511 37.696 3.384z" fill="#73A36D"/><path fill-rule="evenodd" clip-rule="evenodd" d="M140.769 746.562c-17.51 13.288-45.877 1.182-61.596-12.418-2.743-2.382-4.764-5.519-5.503-9.067-3.58-17.05 23.358-21.238 24.146-36.514.345-6.685-4.698-12.221-8.41-17.789-8.476-12.714-10.874-28.794-9.083-43.971 1.79-15.178 7.473-29.632 14.11-43.413 5.42-11.268 15.094-24.014 27.299-21.304 7.835 1.741 12.877 9.543 15.16 17.247 3.138 10.594 2.694 21.961.575 32.802-.936 4.796-2.184 9.789-.887 14.503 3.302 12.073 20.253 14.816 26.396 25.723 6.258 11.103-1.215 24.638-8.114 35.348-5.913 9.165-9.543 14.865-5.667 22.7 1.035 2.069 2.53 3.86 4.287 5.371 3.729 3.219 10.693 13.025-12.713 30.782z" fill="#EF855A"/><path fill-rule="evenodd" clip-rule="evenodd" d="M117.74 593.426c-.033 3.794-3.843 211.545-3.843 211.545l15.062 1.314-11.219-212.859z" fill="#9C4F5F"/><path fill-rule="evenodd" clip-rule="evenodd" d="M118.397 740.665l-30.814-32.687 33.491 29.944a1.92 1.92 0 01-2.562 2.858.394.394 0 01-.115-.115zM115.457 646.48l-12.483-24.457 14.947 23.028a1.417 1.417 0 01-.427 1.971 1.415 1.415 0 01-1.971-.427c-.017-.032-.05-.065-.066-.115zM120.779 697.745l29.812-44.99-29.812 44.99z" fill="#9C4F5F"/><path fill-rule="evenodd" clip-rule="evenodd" d="M119.235 696.726l31.356-43.971-28.268 46.008a1.847 1.847 0 01-2.546.608 1.847 1.847 0 01-.608-2.546c.017-.033.049-.066.066-.099z" fill="#9C4F5F"/><path fill-rule="evenodd" clip-rule="evenodd" d="M761.836 983.008c0 1.872-16.869 3.383-37.696 3.383-20.812 0-37.697-1.511-37.697-3.383 0-1.873 16.869-3.384 37.697-3.384 20.811-.016 37.696 1.511 37.696 3.384zM804.477 947.233c0 1.872-11.646 3.383-26.002 3.383-14.356 0-26.001-1.511-26.001-3.383 0-1.873 11.645-3.384 26.001-3.384 14.356 0 26.002 1.511 26.002 3.384z" fill="#73A36D"/><path fill-rule="evenodd" clip-rule="evenodd" d="M797.496 910.587c-14.783 11.219-38.715 1.002-51.97-10.479-2.316-2.004-4.025-4.649-4.649-7.655-3.022-14.372 19.711-17.92 20.368-30.814.296-5.634-3.959-10.315-7.096-15.029-7.161-10.726-9.182-24.294-7.671-37.106 1.512-12.812 6.308-24.999 11.909-36.629 4.566-9.51 12.73-20.252 23.029-17.969 6.619 1.462 10.873 8.048 12.795 14.553 2.645 8.935 2.267 18.544.476 27.693-.788 4.057-1.839 8.262-.755 12.237 2.792 10.201 17.099 12.5 22.273 21.715 5.289 9.379-1.018 20.795-6.85 29.829-4.993 7.736-8.048 12.532-4.779 19.152.87 1.758 2.135 3.252 3.63 4.533 3.17 2.711 9.05 10.989-10.71 25.969z" fill="#F3AF47"/><path fill-rule="evenodd" clip-rule="evenodd" d="M776.406 778.115c-.017 3.433-4.764 167.344-4.764 167.344l13.634 1.199-8.87-168.543z" fill="#9C4F5F"/><path fill-rule="evenodd" clip-rule="evenodd" d="M780.167 877.03l27.924-29.616-30.338 27.119a1.742 1.742 0 00-.132 2.464 1.723 1.723 0 002.448.131c.016-.032.065-.065.098-.098zM774.336 826.176l-11.301-22.158 13.535 20.861a1.276 1.276 0 01-.378 1.774 1.277 1.277 0 01-1.774-.378.448.448 0 01-.082-.099zM779.165 872.611l27.004-40.752-27.004 40.752z" fill="#9C4F5F"/><path fill-rule="evenodd" clip-rule="evenodd" d="M745.427 916.944c-19.284 14.635-50.525 1.298-67.821-13.683-3.022-2.611-5.256-6.077-6.061-9.986-3.942-18.775 25.706-23.39 26.576-40.21.378-7.359-5.157-13.469-9.247-19.596-9.33-14.011-11.974-31.718-10.003-48.422 1.971-16.722 8.245-32.638 15.538-47.799 5.963-12.401 16.623-26.429 30.059-23.456 8.64 1.922 14.175 10.513 16.688 18.988 3.45 11.663 2.957 24.195.641 36.137-1.018 5.289-2.398 10.775-.969 15.965 3.646 13.305 22.306 16.311 29.073 28.334 6.899 12.238-1.33 27.136-8.935 38.929-6.505 10.102-10.513 16.36-6.242 24.983 1.133 2.284 2.792 4.255 4.73 5.914 4.074 3.548 11.761 14.339-14.027 33.902z" fill="#EF855A"/><path fill-rule="evenodd" clip-rule="evenodd" d="M720.083 748.319c-.033 4.172-4.238 232.948-4.238 232.948l16.59 1.461-12.352-234.409z" fill="#9C4F5F"/><path fill-rule="evenodd" clip-rule="evenodd" d="M720.805 910.456l-33.935-35.989 36.892 32.967c.87.772.953 2.118.164 2.989a2.108 2.108 0 01-2.989.164l-.132-.131zM717.569 806.728l-13.748-26.921 16.442 25.361a1.567 1.567 0 11-2.628 1.708c-.016-.049-.049-.098-.066-.148zM723.417 863.183l32.835-49.54-32.835 49.54zM721.725 862.05l34.527-48.423-31.143 50.673a2.047 2.047 0 01-2.809.673 2.033 2.033 0 01-.674-2.808c.05-.033.083-.066.099-.115z" fill="#9C4F5F"/><path fill-rule="evenodd" clip-rule="evenodd" d="M647.284 984.19c0 1.873-31.553 3.384-70.482 3.384s-70.482-1.511-70.482-3.384c0-1.872 31.553-3.383 70.482-3.383s70.482 1.511 70.482 3.383z" fill="#73A36D"/><path fill-rule="evenodd" clip-rule="evenodd" d="M581.057 983.336c2.332-15.916-3.22-25.377-9.823-26.544-6.784-1.199-11.35-3.679-13.403-14.454-2.054-10.775-3.318-21.715-10.89-20.302-7.573 1.429-10.25 11.038-10.891 22.076-.624 11.038-5.354 9.773-11.826 14.109-5.059 3.384-1.446 18.611.378 25.115h56.455z" fill="#207F7C"/><path opacity=".2" fill-rule="evenodd" clip-rule="evenodd" d="M574.125 971.017c-3.072-2.152-9.297 2.152-14.274 1.593-4.977-.558-3.712-16.015-10.644-16.015-6.931 0-6.389 17.658-11.908 17.74-5.519.082-5.043-7.654-9.544-5.076-3.712 2.119-1.297 11.006-.344 14.044h44.694c1.724-4.024 4.139-10.791 2.02-12.286z" fill="#000"/><path fill-rule="evenodd" clip-rule="evenodd" d="M633.996 983.336c2.891-19.809-4.008-31.57-12.237-33.032-8.443-1.494-14.126-4.582-16.672-18.002-2.546-13.403-4.123-27.02-13.551-25.263-9.428 1.758-12.763 13.732-13.535 27.48-.788 13.732-6.669 12.172-14.717 17.559-6.291 4.205-1.79 23.16.476 31.258h70.236z" fill="#229E9D"/><path opacity=".2" fill-rule="evenodd" clip-rule="evenodd" d="M624.847 968.011c-3.827-2.677-11.58 2.677-17.756 1.988-6.176-.69-4.616-19.925-13.239-19.925-8.64 0-7.95 21.978-14.816 22.076-6.866.099-6.275-9.526-11.876-6.307-4.615 2.644-1.609 13.682-.427 17.477h55.634c2.102-5.026 5.124-13.453 2.48-15.309z" fill="#000"/><path d="M592.259 916.96s3.433 39.34.443 66.376M596.809 919.589l-3.959 5.535M585.294 922.989l7.884 7.588M601.999 933.041l-8.311 9.264M581.204 937.673l12.73 12.467M608.98 943.915l-15.062 14.52M584.867 959.897l8.854 8.722M604.857 962.229l-11.399 12.057M570.872 958.402s3.45 5.634 3.992 24.918M579.217 967.633l-4.862 7.983M564.089 973.136l10.414 4.024M620.051 962.739s-1.774 1.297-2.316 20.597M613.398 967.65l4.846 7.966M625.422 974.319l-7.326 2.841" stroke="#94CFB9" stroke-miterlimit="10"/><path fill-rule="evenodd" clip-rule="evenodd" d="M728.016 582.618c0 1.577-34.067 2.874-76.067 2.874-42.016 0-76.067-1.281-76.067-2.874 0-1.577 34.051-2.858 76.067-2.858 42 0 76.067 1.281 76.067 2.858z" fill="#73A36D"/><path fill-rule="evenodd" clip-rule="evenodd" d="M587.939 579.678c6.176 4.681 16.162.41 21.698-4.386.969-.838 1.675-1.938 1.938-3.187 1.265-6.011-8.229-7.49-8.508-12.861-.132-2.349 1.659-4.32 2.956-6.274 2.99-4.485 3.827-10.151 3.203-15.506-.624-5.355-2.628-10.447-4.977-15.292-1.905-3.975-5.322-8.46-9.625-7.507-2.76.608-4.534 3.367-5.338 6.078-1.101 3.728-.953 7.736-.214 11.563.329 1.692.772 3.45.312 5.109-1.166 4.254-7.145 5.223-9.313 9.066-2.201 3.91.427 8.69 2.858 12.467 2.086 3.236 3.367 5.24 2.004 8-.362.739-.887 1.363-1.511 1.889-1.282 1.133-3.729 4.582 4.517 10.841z" fill="#207F7C"/><path fill-rule="evenodd" clip-rule="evenodd" d="M665.599 581.895c2.891-19.776-4.008-31.504-12.204-32.966-8.427-1.495-14.11-4.583-16.656-17.953-2.546-13.387-4.106-26.971-13.518-25.197-9.396 1.757-12.73 13.715-13.519 27.414-.788 13.716-6.652 12.139-14.684 17.526-6.275 4.205-1.79 23.111.476 31.192h70.105v-.016z" fill="#229E9D"/><path opacity=".2" fill-rule="evenodd" clip-rule="evenodd" d="M656.466 566.603c-3.827-2.661-11.564 2.661-17.723 1.987-6.176-.69-4.599-19.875-13.223-19.875-8.623 0-7.933 21.929-14.783 22.027-6.849.099-6.258-9.494-11.843-6.291-4.599 2.645-1.609 13.666-.427 17.444h55.519c2.119-5.026 5.125-13.436 2.48-15.292z" fill="#000"/><path d="M623.96 515.667s3.417 39.257.443 66.228M628.477 518.279l-3.926 5.519M616.995 521.679l7.868 7.572M633.667 531.698l-8.294 9.248M612.906 536.331l12.713 12.45M640.632 542.556l-15.013 14.487M616.568 558.521l8.837 8.706M636.525 560.838l-11.382 12.039M602.607 557.027s3.433 5.634 3.991 24.868M610.918 566.225l-4.829 7.983M595.839 571.711l10.398 4.041M651.67 561.347s-1.758 1.297-2.316 20.548M645.05 566.242l4.813 7.966M657.041 572.91l-7.309 2.842" stroke="#94CFB9" stroke-miterlimit="10"/><path fill-rule="evenodd" clip-rule="evenodd" d="M658.996 581.813s-3.762-49.375 4.845-50.443c8.624-1.068 7.096 20.68 15.67 20.483 8.574-.181 13.256-7.359 16.393.361 3.137 7.72 3.203 15.226 10.611 12.894 7.408-2.316 18.347 16.688 18.347 16.688h-65.866v.017z" fill="#207F7C"/><path opacity=".11" fill-rule="evenodd" clip-rule="evenodd" d="M706.515 565.108c-7.408 2.316-7.49-5.19-10.611-12.894-2.644-6.521-6.406-2.398-12.697-.854v30.453h41.672c-.017 0-10.956-19.021-18.364-16.705z" fill="#000" stroke="#7DBD77" stroke-width=".216" stroke-miterlimit="22.926"/><path fill-rule="evenodd" clip-rule="evenodd" d="M455.943 907.072c-5.306-1.166-10.562 2.201-11.712 7.507 5.289 1.166 10.545-2.201 11.712-7.507zM442.589 914.776c-.641-5.404-5.552-9.248-10.94-8.591.641 5.388 5.552 9.248 10.94 8.591zM455.943 895.049c-5.306-1.166-10.562 2.201-11.712 7.523 5.289 1.149 10.545-2.218 11.712-7.523zM443.246 884.323a9.834 9.834 0 00-.033 13.912c3.86-3.827 3.876-10.052.033-13.912zM442.589 902.769c-.641-5.404-5.552-9.248-10.94-8.591.641 5.388 5.552 9.231 10.94 8.591z" fill="#207F7C"/><path d="M443.41 892.109h-.361v34.707h.361v-34.707z" fill="#7DCBE4" stroke="#486640" stroke-width=".5" stroke-miterlimit="22.926"/><path fill-rule="evenodd" clip-rule="evenodd" d="M443.229 903.491l-6.11-5.141.23-.263 5.897 4.944 7.326-5.19.197.279-7.54 5.371zM443.229 915.712l-6.11-5.125.23-.263 5.897 4.945 7.326-5.207.197.295-7.54 5.355z" fill="#7DCBE4" stroke="#486640" stroke-width=".5" stroke-miterlimit="22.926"/><path fill-rule="evenodd" clip-rule="evenodd" d="M421.58 923.793s3.433 3.236 7.014 4.994c0-.017-.854-2.119-7.014-4.994zM420.841 918.505s6.882 6.471 14.044 9.986c0 0-1.725-4.205-14.044-9.986zM429.728 920.41s5.634 5.289 11.497 8.163c0 0-1.412-3.449-11.497-8.163zM456.715 919.309s-6.472 6.078-13.19 9.363c0 0 1.626-3.942 13.19-9.363zM456.304 923.793s-3.433 3.236-7.014 4.994c0-.017.854-2.119 7.014-4.994zM461.527 923.793s-3.433 3.236-7.013 4.994c0-.017.854-2.119 7.013-4.994z" fill="#486640"/><path fill-rule="evenodd" clip-rule="evenodd" d="M651.637 862.608c-5.306-1.166-10.562 2.201-11.711 7.523 5.305 1.15 10.561-2.217 11.711-7.523zM638.299 870.328c-.64-5.404-5.551-9.247-10.939-8.59.641 5.387 5.552 9.231 10.939 8.59zM651.637 850.601c-5.306-1.166-10.562 2.201-11.711 7.523 5.305 1.15 10.561-2.217 11.711-7.523zM638.957 839.875c-3.844 3.844-3.86 10.069-.017 13.913 3.844-3.828 3.86-10.069.017-13.913zM638.299 858.305c-.64-5.388-5.551-9.248-10.939-8.591.641 5.404 5.552 9.248 10.939 8.591z" fill="#207F7C"/><path d="M639.121 847.644h-.362v34.708h.362v-34.708z" fill="#7DCBE4" stroke="#486640" stroke-width=".5" stroke-miterlimit="22.926"/><path fill-rule="evenodd" clip-rule="evenodd" d="M638.94 859.027l-6.11-5.124.23-.28 5.896 4.961 7.326-5.207.197.296-7.539 5.354zM638.94 871.264l-6.11-5.124.23-.28 5.896 4.945 7.326-5.191.197.296-7.539 5.354z" fill="#7DCBE4" stroke="#486640" stroke-width=".5" stroke-miterlimit="22.926"/><path fill-rule="evenodd" clip-rule="evenodd" d="M617.291 879.329s3.433 3.236 7.014 4.994c0 0-.854-2.103-7.014-4.994zM616.552 874.04s6.882 6.472 14.044 9.987c0 0-1.725-4.205-14.044-9.987zM625.438 875.946s5.634 5.289 11.498 8.163c-.016 0-1.429-3.433-11.498-8.163zM652.426 874.845s-6.456 6.078-13.19 9.363c0 .016 1.626-3.942 13.19-9.363zM652.015 879.329s-3.433 3.236-7.014 4.994c-.016 0 .854-2.103 7.014-4.994zM657.238 879.329s-3.433 3.236-7.013 4.994c0 0 .854-2.103 7.013-4.994z" fill="#486640"/><path fill-rule="evenodd" clip-rule="evenodd" d="M322.6 634.293c-5.306-1.167-10.545 2.201-11.712 7.522 5.322 1.15 10.562-2.217 11.712-7.522zM309.262 642.013c-.657-5.404-5.551-9.248-10.939-8.591.641 5.388 5.552 9.231 10.939 8.591zM322.6 622.286c-5.306-1.167-10.545 2.201-11.712 7.522 5.322 1.15 10.562-2.217 11.712-7.522zM309.919 611.56c-3.843 3.843-3.86 10.069-.016 13.912 3.844-3.827 3.86-10.069.016-13.912zM309.262 629.989c-.657-5.404-5.551-9.248-10.939-8.59.641 5.404 5.552 9.247 10.939 8.59z" fill="#207F7C"/><path d="M310.084 619.329h-.362v34.707h.362v-34.707z" fill="#7DCBE4" stroke="#486640" stroke-width=".5" stroke-miterlimit="22.926"/><path fill-rule="evenodd" clip-rule="evenodd" d="M309.903 630.712l-6.11-5.125.23-.279 5.896 4.944 7.326-5.191.197.296-7.539 5.355zM309.903 642.949l-6.11-5.125.23-.279 5.896 4.944 7.326-5.191.197.296-7.539 5.355z" fill="#7DCBE4" stroke="#486640" stroke-width=".5" stroke-miterlimit="22.926"/><path fill-rule="evenodd" clip-rule="evenodd" d="M460.558 640.518s3.45 3.236 7.014 4.993c0 0-.854-2.102-7.014-4.993zM459.819 635.229s6.883 6.472 14.044 9.987c0 0-1.725-4.205-14.044-9.987zM468.705 637.134s5.634 5.289 11.498 8.164c0 0-1.412-3.433-11.498-8.164zM495.693 636.034s-6.456 6.077-13.19 9.362c0 0 1.626-3.942 13.19-9.362zM495.282 640.518s-3.433 3.236-7.014 4.993c0 0 .854-2.102 7.014-4.993zM500.505 640.518s-3.449 3.236-7.014 4.993c0 0 .855-2.102 7.014-4.993z" fill="#486640"/><path fill-rule="evenodd" clip-rule="evenodd" d="M169.645 780.891c-5.305-1.166-10.545 2.201-11.711 7.523 5.305 1.166 10.545-2.201 11.711-7.523zM156.307 788.611c-.64-5.404-5.551-9.248-10.939-8.591a9.811 9.811 0 0010.939 8.591zM169.645 768.884c-5.305-1.166-10.545 2.201-11.711 7.523 5.305 1.149 10.545-2.218 11.711-7.523zM156.964 758.158c-3.843 3.843-3.86 10.069-.016 13.912 3.844-3.827 3.844-10.052.016-13.912zM156.307 776.604c-.64-5.404-5.551-9.248-10.939-8.591.641 5.388 5.535 9.248 10.939 8.591z" fill="#207F7C"/><path d="M157.129 765.944h-.362v34.707h.362v-34.707z" fill="#7DCBE4" stroke="#486640" stroke-width=".5" stroke-miterlimit="22.926"/><path fill-rule="evenodd" clip-rule="evenodd" d="M156.932 777.327l-6.111-5.125.247-.279 5.88 4.944 7.326-5.191.213.279-7.555 5.372zM156.932 789.564l-6.111-5.142.247-.262 5.88 4.944 7.326-5.207.213.295-7.555 5.372z" fill="#7DCBE4" stroke="#486640" stroke-width=".5" stroke-miterlimit="22.926"/><path fill-rule="evenodd" clip-rule="evenodd" d="M135.283 797.629s3.433 3.235 7.013 4.993c.017-.017-.854-2.119-7.013-4.993zM134.543 792.34s6.883 6.471 14.044 9.986c.017 0-1.708-4.205-14.044-9.986zM143.446 794.245s5.634 5.289 11.498 8.163c-.016 0-1.429-3.449-11.498-8.163zM170.417 793.144s-6.455 6.078-13.173 9.363c0 0 1.609-3.942 13.173-9.363zM170.006 797.629s-3.449 3.235-7.013 4.993c0-.017.87-2.119 7.013-4.993zM175.23 797.629s-3.45 3.235-7.014 4.993c0-.017.87-2.119 7.014-4.993z" fill="#486640"/><path fill-rule="evenodd" clip-rule="evenodd" d="M578.593 641.438a7.346 7.346 0 00-8.755 5.617c3.975.871 7.901-1.642 8.755-5.617zM568.622 647.203c-.492-4.041-4.155-6.915-8.18-6.422.493 4.04 4.156 6.915 8.18 6.422zM578.593 632.453a7.347 7.347 0 00-8.755 5.617c3.975.871 7.901-1.642 8.755-5.617zM569.115 624.437c-2.875 2.875-2.891 7.523-.017 10.398 2.891-2.858 2.891-7.523.017-10.398zM568.622 638.218c-.492-4.04-4.155-6.915-8.18-6.422.493 4.041 4.156 6.915 8.18 6.422z" fill="#207F7C"/><path d="M569.23 630.252h-.263v25.952h.263v-25.952z" fill="#7DCBE4" stroke="#486640" stroke-width=".5" stroke-miterlimit="22.926"/><path fill-rule="evenodd" clip-rule="evenodd" d="M569.099 638.76l-4.567-3.827.181-.213 4.402 3.712 5.47-3.893.164.214-5.65 4.007zM569.099 647.909l-4.567-3.827.181-.213 4.402 3.695 5.47-3.876.164.214-5.65 4.007z" fill="#7DCBE4" stroke="#486640" stroke-width=".5" stroke-miterlimit="22.926"/><path fill-rule="evenodd" clip-rule="evenodd" d="M548.107 652.492s3.449 3.236 7.013 4.994c0-.017-.854-2.119-7.013-4.994zM547.368 647.203s6.882 6.472 14.044 9.987c0 0-1.725-4.205-14.044-9.987zM556.254 649.108s5.634 5.289 11.481 8.164c.017 0-1.396-3.449-11.481-8.164zM583.241 648.008s-6.472 6.077-13.19 9.363c0 0 1.626-3.943 13.19-9.363zM582.83 652.492s-3.433 3.236-7.013 4.994c0-.017.854-2.119 7.013-4.994zM588.054 652.492s-3.45 3.236-7.014 4.994c0-.017.854-2.119 7.014-4.994z" fill="#486640"/><path fill-rule="evenodd" clip-rule="evenodd" d="M662.675 963.133c-5.306-1.167-10.562 2.201-11.711 7.523 5.321 1.149 10.561-2.201 11.711-7.523zM649.337 970.853c-.657-5.404-5.551-9.248-10.939-8.591.657 5.388 5.552 9.248 10.939 8.591zM662.675 951.126c-5.306-1.167-10.562 2.201-11.711 7.523 5.321 1.149 10.561-2.218 11.711-7.523zM649.994 940.4c-3.843 3.843-3.86 10.069-.016 13.912 3.844-3.827 3.86-10.052.016-13.912zM649.337 958.846c-.657-5.404-5.551-9.248-10.939-8.591.657 5.388 5.552 9.231 10.939 8.591z" fill="#207F7C"/><path d="M650.159 948.169h-.362v34.707h.362v-34.707z" fill="#7DCBE4" stroke="#486640" stroke-width=".5" stroke-miterlimit="22.926"/><path fill-rule="evenodd" clip-rule="evenodd" d="M649.978 959.568l-6.11-5.141.23-.263 5.896 4.944 7.326-5.207.197.296-7.539 5.371zM649.978 971.789l-6.11-5.125.23-.279 5.896 4.96 7.326-5.206.197.295-7.539 5.355z" fill="#7DCBE4" stroke="#486640" stroke-width=".5" stroke-miterlimit="22.926"/><path fill-rule="evenodd" clip-rule="evenodd" d="M628.329 979.87s3.433 3.236 7.014 4.994c0-.017-.854-2.119-7.014-4.994zM627.59 974.581s6.882 6.472 14.044 9.987c0 0-1.725-4.205-14.044-9.987zM636.476 976.487s5.634 5.289 11.498 8.163c0 0-1.412-3.449-11.498-8.163zM663.464 975.386s-6.456 6.078-13.174 9.363c0 0 1.61-3.942 13.174-9.363zM663.053 979.87s-3.45 3.236-7.014 4.994c0-.017.854-2.119 7.014-4.994zM668.276 979.87s-3.449 3.236-7.014 4.994c0-.017.855-2.119 7.014-4.994zM369.134 848.039s3.432 3.236 7.013 4.977c0 0-.87-2.103-7.013-4.977zM368.394 842.75s6.883 6.471 14.044 9.986c0 0-1.724-4.205-14.044-9.986zM377.281 844.655s5.634 5.289 11.498 8.164c-.017 0-1.43-3.45-11.498-8.164zM404.268 843.554s-6.472 6.078-13.19 9.363c0 0 1.626-3.942 13.19-9.363zM403.857 848.039s-3.449 3.236-7.013 4.977c-.017 0 .854-2.103 7.013-4.977zM409.081 848.039s-3.45 3.236-7.014 4.977c-.017 0 .854-2.103 7.014-4.977zM503.199 479.038s3.433 3.236 7.014 4.993c.016 0-.854-2.102-7.014-4.993zM502.46 473.765s6.882 6.472 14.044 9.987c.016-.016-1.725-4.221-14.044-9.987zM511.363 475.654s5.634 5.289 11.498 8.164c-.017 0-1.429-3.433-11.498-8.164zM538.333 474.57s-6.471 6.078-13.189 9.363c.016 0 1.642-3.942 13.189-9.363zM537.923 479.038s-3.433 3.236-7.014 4.993c0 0 .871-2.102 7.014-4.993zM543.163 479.038s-3.45 3.236-7.014 4.993c-.017 0 .854-2.102 7.014-4.993zM95.91 987.886s3.433 3.236 7.014 4.993c0 0-.854-2.102-7.014-4.993zM95.171 982.613s6.883 6.472 14.044 9.987c0-.016-1.725-4.221-14.044-9.987zM104.058 984.502s5.634 5.289 11.497 8.164c0 0-1.412-3.433-11.497-8.164zM131.045 983.418s-6.455 6.078-13.174 9.363c-.016 0 1.61-3.942 13.174-9.363zM130.634 987.886s-3.449 3.236-7.014 4.993c0 0 .855-2.102 7.014-4.993zM135.857 987.886s-3.432 3.236-7.013 4.993c0 0 .854-2.102 7.013-4.993zM655.891 521.925s3.433 3.236 7.014 4.994c0-.017-.854-2.119-7.014-4.994zM655.152 516.636s6.882 6.472 14.044 9.987c0 0-1.725-4.205-14.044-9.987zM664.055 518.542s5.634 5.289 11.481 8.163c0 0-1.412-3.449-11.481-8.163zM691.026 517.441s-6.472 6.078-13.19 9.363c.016 0 1.626-3.943 13.19-9.363zM690.615 521.925s-3.433 3.236-7.014 4.994c0-.017.871-2.119 7.014-4.994zM695.838 521.925s-3.449 3.236-7.013 4.994c0-.017.87-2.119 7.013-4.994zM288.599 651.49s3.433 3.236 7.014 4.994c0-.017-.871-2.119-7.014-4.994zM287.86 646.201s6.882 6.472 14.044 9.987c0 0-1.725-4.205-14.044-9.987zM296.746 648.107s5.634 5.288 11.481 8.163c0 0-1.412-3.449-11.481-8.163zM323.733 647.006s-6.471 6.077-13.189 9.363c0 0 1.626-3.943 13.189-9.363zM323.323 651.49s-3.433 3.236-7.014 4.994c-.016-.017.854-2.119 7.014-4.994zM328.546 651.49s-3.433 3.236-7.014 4.994c-.016-.017.854-2.119 7.014-4.994zM800.502 971.756s3.433 3.236 7.014 4.994c0 0-.871-2.103-7.014-4.994zM799.763 966.467s6.882 6.472 14.044 9.987c0 0-1.725-4.205-14.044-9.987zM808.649 968.372s5.634 5.29 11.482 8.164c0 0-1.413-3.433-11.482-8.164zM835.636 967.272s-6.471 6.077-13.189 9.362c0 0 1.626-3.942 13.189-9.362zM835.226 971.756s-3.433 3.236-7.014 4.994c-.016 0 .854-2.103 7.014-4.994zM840.449 971.756s-3.433 3.236-7.014 4.994c0 0 .855-2.103 7.014-4.994zM753.722 731.401s3.433 3.235 7.014 4.993c0 0-.854-2.102-7.014-4.993zM752.983 726.112s6.882 6.471 14.044 9.986c0 0-1.725-4.205-14.044-9.986zM761.869 728.017s5.634 5.289 11.498 8.163c0 0-1.413-3.433-11.498-8.163zM788.856 726.917s-6.455 6.077-13.189 9.362c0 0 1.626-3.942 13.189-9.362zM788.446 731.401s-3.433 3.235-7.014 4.993c0 0 .854-2.102 7.014-4.993zM793.669 731.401s-3.449 3.235-7.014 4.993c0 0 .855-2.102 7.014-4.993z" fill="#486640"/><path fill-rule="evenodd" clip-rule="evenodd" d="M405.007 560.657c0 1.215-15.621 2.217-34.888 2.217-19.267 0-34.904-.985-34.904-2.217 0-1.216 15.62-2.218 34.904-2.218 19.251 0 34.888 1.002 34.888 2.218z" fill="#73A36D"/><path fill-rule="evenodd" clip-rule="evenodd" d="M394.429 559.293c2.973 2.251 7.786.198 10.463-2.102.46-.411.805-.936.936-1.544.608-2.891-3.958-3.597-4.106-6.193-.066-1.133.788-2.069 1.429-3.022 1.445-2.152 1.84-4.895 1.544-7.473-.296-2.579-1.265-5.027-2.398-7.376-.92-1.905-2.563-4.073-4.632-3.613-1.331.295-2.185 1.626-2.579 2.924-.542 1.79-.46 3.728-.099 5.568.165.821.362 1.659.148 2.464-.558 2.053-3.433 2.513-4.484 4.369-1.068 1.889.214 4.188 1.38 5.995 1.002 1.561 1.626 2.53.969 3.86a3.261 3.261 0 01-.723.92c-.64.542-1.823 2.218 2.152 5.223z" fill="#0D6D6B"/><path fill-rule="evenodd" clip-rule="evenodd" d="M399.192 560.098c2.234-15.275-3.088-24.326-9.428-25.459-6.505-1.15-10.89-3.532-12.861-13.863-1.971-10.332-3.17-20.828-10.43-19.465-7.261 1.364-9.839 10.595-10.431 21.173-.607 10.594-5.141 9.379-11.35 13.534-4.845 3.253-1.38 17.855.362 24.08h54.138z" fill="#229E9D"/><path opacity=".2" fill-rule="evenodd" clip-rule="evenodd" d="M392.146 548.288c-2.94-2.053-8.919 2.07-13.683 1.528-4.763-.526-3.548-15.358-10.216-15.358-6.653 0-6.127 16.935-11.416 17.017-5.289.082-4.846-7.342-9.149-4.862-3.565 2.037-1.249 10.545-.329 13.469h42.871c1.643-3.86 3.959-10.365 1.922-11.794z" fill="#000"/><path d="M367.031 508.949s2.645 30.322.345 51.149M370.53 510.969l-3.039 4.271M361.66 513.597l6.077 5.848M374.538 521.334l-6.406 7.145M358.506 524.915l9.823 9.609M379.925 529.711l-11.613 11.202M361.331 542.047l6.833 6.718M376.755 543.837l-8.804 9.297M350.556 540.897s2.661 4.353 3.072 19.201M356.979 547.993l-3.729 6.159M345.333 552.23l8.015 3.121M388.45 544.231s-1.363 1.002-1.79 15.867M383.325 548.009l3.729 6.143M392.589 553.167l-5.65 2.184" stroke="#94CFB9" stroke-miterlimit="10"/><path fill-rule="evenodd" clip-rule="evenodd" d="M104.255 506.896s2.973 2.792 6.061 4.303c0 .017-.739-1.806-6.061-4.303zM103.614 502.329s5.946 5.585 12.139 8.624c0 0-1.495-3.63-12.139-8.624zM111.301 503.972s4.862 4.566 9.921 7.047c0 .016-1.215-2.957-9.921-7.047zM134.609 503.036s-5.585 5.24-11.383 8.098c0-.017 1.396-3.417 11.383-8.098zM134.264 506.896s-2.973 2.792-6.061 4.303c-.016.017.739-1.806 6.061-4.303zM138.765 506.896s-2.973 2.792-6.061 4.303c0 .017.755-1.806 6.061-4.303z" fill="#486640"/><path fill-rule="evenodd" clip-rule="evenodd" d="M205.666 543.229c0 1.873-13.436 3.384-30.009 3.384-16.574 0-30.01-1.511-30.01-3.384 0-1.872 13.436-3.383 30.01-3.383 16.573 0 30.009 1.511 30.009 3.383zM252.643 518.788c0 .936-6.718 1.692-15.013 1.692s-15.013-.756-15.013-1.692c0-.936 6.718-1.692 15.013-1.692s15.013.756 15.013 1.692zM333.359 540.782c0 1.872-15.325 3.384-34.215 3.384-18.906 0-34.214-1.512-34.214-3.384 0-1.873 15.325-3.384 34.214-3.384 18.89-.016 34.215 1.511 34.215 3.384z" fill="#73A36D"/><path d="M224.851 372.847c62.368-58.557 228.841-59.559 231.946-99.72M343.789 344.808c77.512-1.067 116.392-14.618 160.001-69.398" stroke="#9C4F5F" stroke-width=".5" stroke-miterlimit="22.926"/><path fill-rule="evenodd" clip-rule="evenodd" d="M175.936 335.019l5.19 10.676a4.778 4.778 0 01-2.217 6.39l-1.413.673 1.38 8.032-11.186 1.906-3.876-22.651 12.122-5.026z" fill="#F4B5AD"/><path fill-rule="evenodd" clip-rule="evenodd" d="M171.567 355.222s3.876-2.973 3.236-6.291c0 0-6.587-2.119-5.01-4.106 1.577-1.988 5.519.969 5.519.969s-2.94-4.665-2.497-6.078c0 0 8.18-1.412 6.028-6.011 0 0-2.628-1.676-7.835-1.084-5.207.591-6.554 9.773-6.554 9.773l7.113 12.828z" fill="#A04E61"/><path fill-rule="evenodd" clip-rule="evenodd" d="M169.842 333.342c-1.38-.755-3.072-.689-4.599-.328-3.827.92-7.178 3.63-8.87 7.178-1.692 3.548-1.675 7.868.016 11.416.395.821.871 1.593 1.528 2.217 1.708 1.61 4.238 1.873 6.57 2.07 2.037.164 5.634.509 7.047-.969 0 0-4.451-7.228-3.992-12.32.444-5.124 2.3-9.264 2.3-9.264z" fill="#A04E61"/><path fill-rule="evenodd" clip-rule="evenodd" d="M183.295 435.987l29.566 21.484 20.581 39.34s3.761.772 6.028-.28c2.267-1.051-17.395-53.219-17.74-54.27-.361-1.051-22.667-25.689-22.667-25.689s-7.736 12.072-8.525 12.335c-.805.247-7.243 7.08-7.243 7.08z" fill="#312871"/><path fill-rule="evenodd" clip-rule="evenodd" d="M199.227 419.265l-8.935 19.317-4.156 45.696-2.792 55.124-5.93.542-6.061-67.591-5.289-45.138 33.163-7.95z" fill="#564A9B"/><path fill-rule="evenodd" clip-rule="evenodd" d="M183.64 367.689l26.264 25.246 13.847 4.813-1.232 6.094-19.941-2.333s-25.64-17.312-25.64-18.183c.016-.854 6.702-15.637 6.702-15.637z" fill="#EF855A"/><path fill-rule="evenodd" clip-rule="evenodd" d="M168.413 358.836l-.509 5.42-7.802 7.326a7.277 7.277 0 00-2.185 6.472l8.164 49.161 10.66-.377 22.503-7.573.772-2.874-16.376-48.685-2.793-2.267-.887-5.24-11.547-1.363z" fill="#F7B74F"/><path fill-rule="evenodd" clip-rule="evenodd" d="M236.152 406.141a3.843 3.843 0 01-5.24-1.429 3.843 3.843 0 011.429-5.239 3.842 3.842 0 015.24 1.429c1.035 1.839.411 4.188-1.429 5.239z" fill="#F4B5AD"/><path fill-rule="evenodd" clip-rule="evenodd" d="M223.751 397.764l11.218 3.433-.262 3.795-12.172-1.134 1.216-6.094z" fill="#F4B5AD"/><path fill-rule="evenodd" clip-rule="evenodd" d="M162.007 381.372l31.324 21.221 19.25-17.246-3.548-5.799-16.409 10.119-20.154-18.791c-.016 0-13.206-2.858-10.463 10.496z" fill="#F3AF47"/><path fill-rule="evenodd" clip-rule="evenodd" d="M222.519 377.413l-9.938 7.934-3.547-5.799 9.871-6.389 3.614 4.254z" fill="#F4B5AD"/><path fill-rule="evenodd" clip-rule="evenodd" d="M223.422 378.086a3.841 3.841 0 01-5.239-1.429 3.841 3.841 0 011.429-5.239 3.841 3.841 0 015.239 1.429 3.841 3.841 0 01-1.429 5.239z" fill="#F4B5AD"/><path fill-rule="evenodd" clip-rule="evenodd" d="M183.59 542.671c3.318.558 6.915 1.051 10.036-.394-.197-1.068-1.593-1.413-2.743-1.561l-6.701-.887c-.953-.131-6.85-.887-6.505.477.411 1.576 4.55 2.135 5.913 2.365zM244.858 492.129c1.544-.476 3.17-.936 4.747-.657.427.082.903.279.985.707.099.492-.427.886-.87 1.116-2.596 1.331-5.404 2.185-8.213 3.039-2.234.69-4.484 1.364-6.718 2.053-.164.05-.329.099-.493.05-.509-.181-1.183-1.511-.986-2.037.296-.772 2.661-1.232 3.384-1.495a149.438 149.438 0 018.164-2.776z" fill="#A04E61"/><path fill-rule="evenodd" clip-rule="evenodd" d="M164.109 358.228c-2.956 1.922-5.946 3.86-8.377 6.406-2.431 2.546-4.303 5.815-4.517 9.33-.049.887.033 1.872.657 2.496.345.345.822.526 1.298.657 3.663 1.002 7.359-1.166 10.529-3.235 5.305-3.45 10.693-6.981 14.701-11.86.295-.361.591-.854.378-1.248-.132-.246-.428-.361-.69-.46-3.713-1.363-10.118-1.15-13.979-2.086z" fill="#564A9B"/><path opacity=".18" fill-rule="evenodd" clip-rule="evenodd" d="M156.143 379.516s-7.227 8.426 3.022 6.208c10.234-2.217 19.448-21.566 19.448-21.566s-13.534 17.591-22.47 15.358z" fill="#EF855A"/><path fill-rule="evenodd" clip-rule="evenodd" d="M295.317 383.868c22.158-12.615 26.248-10.463 40.21-29.944l5.502 2.908c-2.628 6.159-6.57 15.391-7.884 18.462-1.314 3.072-26.511 19.957-27.349 19.711-.854-.263-10.479-11.137-10.479-11.137z" fill="#564A9B"/><path fill-rule="evenodd" clip-rule="evenodd" d="M347.09 344.414a3.846 3.846 0 01-2.858 4.632 3.846 3.846 0 01-4.632-2.858 3.823 3.823 0 012.859-4.616 3.848 3.848 0 014.631 2.842z" fill="#F4B5AD"/><path fill-rule="evenodd" clip-rule="evenodd" d="M335.527 353.924l6.472-9.773 3.58 1.314-4.566 11.367-5.486-2.908z" fill="#F4B5AD"/><path fill-rule="evenodd" clip-rule="evenodd" d="M272.633 427.774l31.16-1.462 23.57 105.534c-.492 1.38-2.808 4.649-3.909 6.242-10.003-27.743-20.006-55.502-30.026-83.245.164 13.387.329 26.757.476 40.144l-13.699 18.151-7.522 9.97c-.214-.033-.428-.066-.657-.066-2.267 0-4.37-.361-6.259-.394 3.417-5.667 6.833-11.334 10.266-17.001 2.152-3.58 4.32-7.145 6.472-10.725l-11.826-45.089 1.954-22.059z" fill="#CE677C"/><path fill-rule="evenodd" clip-rule="evenodd" d="M294.676 458.325l-.706-6.635 9.806-25.378 10.414 46.632-19.514-14.619z" fill="#A04E61"/><path fill-rule="evenodd" clip-rule="evenodd" d="M298.487 381.881c3.072-.838 8.377 10.627 7.638 13.452a57.788 57.788 0 00-.263 28.269l3.45 7.161-36.81 8.312s-3.893-15.26-1.183-32.539c.329-.608 5.93-24.902 6.603-27.283l1.758-.017 18.807 2.645z" fill="#564A9B"/><path fill-rule="evenodd" clip-rule="evenodd" d="M299.013 361.201l2.086 9.658a3.98 3.98 0 01-3.072 4.731l-1.264.263-.477 6.767-9.428-.674 1.363-19.086 10.792-1.659z" fill="#F4B5AD"/><path fill-rule="evenodd" clip-rule="evenodd" d="M287.219 376.674s7.983-1.643 8.131-4.451c0 0-4.895-3.023-3.236-4.32 1.659-1.298 4.271 1.872 4.271 1.872s-1.446-4.353-.805-5.404c0 0 6.899.476 6.077-3.663 0 0-1.79-1.872-6.11-2.431-4.32-.558-7.227 6.603-7.227 6.603l-1.101 11.794z" fill="#A04E61"/><path fill-rule="evenodd" clip-rule="evenodd" d="M293.116 354.056c-4.156 5.108-6.603 10.151-8.722 16.393l-.246.985c-2.366-3.991-3.203-8.87-2.3-13.436.246-1.232.608-2.464 1.298-3.515a6.677 6.677 0 014.714-2.924 6.68 6.68 0 015.272 1.708l-.016.789z" fill="#E0A821"/><path fill-rule="evenodd" clip-rule="evenodd" d="M293.691 350.606c.87-1.429 2.776-4.714 4.353-7.276.591-.986 2.102-.394 1.872.723-1.018 4.862-2.907 11.103-4.041 14.651-.903-1.347-2.66-.525-4.007.378-1.347.903-2.398 1.659-3.236 3.055-2.267 3.86-2.858 5.864-4.484 9.281.016.016-3.729 1.051 9.543-20.812z" fill="#F9C028"/><path fill-rule="evenodd" clip-rule="evenodd" d="M299.078 352.216c.362-.427.855-.87 1.397-.788.558.098.854.755.772 1.33-.082.575-.427 1.068-.756 1.528.444-.444.871-.887 1.314-1.347.23-.23.559-.493.838-.345.312.164.246.657.115 1.002-.23.673-.477 1.347-.706 2.02.492-.492 1.034-.985 1.691-1.166.657-.181 1.479.115 1.643.788.066.28.016.575-.066.855-.575 2.184-2.365 3.86-4.205 5.124-3.63 2.497-7.9 3.992-12.22 4.304.87 3.285.657 6.882-.592 10.085-.246.608-.673 1.314-1.297 1.281-.28-.016-.51-.164-.723-.345-1.725-1.379-2.316-3.876-1.971-6.126.345-2.251 1.478-4.304 2.71-6.242 2.283-3.581 5.174-7.063 9.067-8.574-.016 0 .641-.674 2.989-3.384z" fill="#A04E61"/><path fill-rule="evenodd" clip-rule="evenodd" d="M290.094 388.484c-16.59 13.535-25.246 16.951-34.675 36.218l-5.896-1.954a6472.181 6472.181 0 004.697-19.514c.789-3.252 22.832-24.08 23.686-23.981.887.115 12.188 9.231 12.188 9.231z" fill="#564A9B"/><path fill-rule="evenodd" clip-rule="evenodd" d="M245.613 436.003c-.821-1.955.082-4.205 2.037-5.026a3.856 3.856 0 015.043 2.037c.821 1.954-.082 4.205-2.037 5.026-1.971.821-4.221-.082-5.043-2.037z" fill="#F4B5AD"/><path fill-rule="evenodd" clip-rule="evenodd" d="M255.436 424.702l-4.764 10.726-3.745-.706 2.595-11.958 5.914 1.938z" fill="#F4B5AD"/><path fill-rule="evenodd" clip-rule="evenodd" d="M330.205 527.707c1.002-1.265 2.086-2.562 3.548-3.219.394-.181.903-.28 1.215.016.362.361.148.969-.082 1.413-1.396 2.562-3.236 4.862-5.059 7.145-1.462 1.823-2.924 3.663-4.385 5.486-.099.131-.214.263-.378.312-.509.131-1.824-.575-1.955-1.133-.181-.805 1.495-2.513 1.938-3.154a186.838 186.838 0 015.158-6.866zM270.629 524.422c3.318.558 6.916 1.051 10.036-.394-.197-1.068-1.593-1.413-2.743-1.561l-6.701-.887c-.953-.131-6.833-.87-6.505.477.411 1.576 4.55 2.135 5.913 2.365z" fill="#A04E61"/><path fill-rule="evenodd" clip-rule="evenodd" d="M502.854 286.333s-.542-5.716.444-10.463c0 0 1.379 2.398-.444 10.463z" fill="#207F7C"/><path fill-rule="evenodd" clip-rule="evenodd" d="M506.961 289.043s-2.957-7.079-3.581-13.534c0 0 2.71 2.513 3.581 13.534z" fill="#207F7C"/><path fill-rule="evenodd" clip-rule="evenodd" d="M508.619 285.643s-3.811-4.994-5.667-9.954c.016 0 2.677 1.429 5.667 9.954z" fill="#207F7C"/><path fill-rule="evenodd" clip-rule="evenodd" d="M511.297 282.457s-3.712-4.386-7.786-6.998c0 0 .739 2.661 7.786 6.998z" fill="#207F7C"/><path fill-rule="evenodd" clip-rule="evenodd" d="M492.095 240.653l4.616 14.996-.246.05c-.296.065-12.714 4.155-12.796 4.172.197-.624 1.823-2.842 2.234-3.499 2.152-3.384 4.698-8.081 5.732-12.45.066-.214.46-3.253.46-3.269z" fill="#248F8B"/><path fill-rule="evenodd" clip-rule="evenodd" d="M483.685 259.888l13.026-4.287 7.835 23.833c-.214-.624-1.166-2.086-1.774-2.447-2.07-1.232-3.696-3.055-4.632-3.564-2.513-1.38-14.356-12.106-14.455-13.535z" fill="#207F7C"/><path fill-rule="evenodd" clip-rule="evenodd" d="M492.03 240.637l4.664 14.931.23-.098c.263-.115 13.059-4.041 13.124-4.074-.525-.394-3.12-1.248-3.86-1.544-3.712-1.511-8.524-3.844-11.892-6.8-.164-.164-2.25-2.398-2.266-2.415z" fill="#37B4B1"/><path fill-rule="evenodd" clip-rule="evenodd" d="M510.065 251.38l-13.387 4.106 7.769 23.916c-.197-.625-.262-2.366.017-3.023.985-2.201 1.232-4.632 1.708-5.601 1.232-2.546 4.632-18.15 3.893-19.398z" fill="#229E9D"/><path fill-rule="evenodd" clip-rule="evenodd" d="M455.877 288.386s-.756-8.032.624-14.7c0 0 1.938 3.367-.624 14.7z" fill="#312871"/><path fill-rule="evenodd" clip-rule="evenodd" d="M461.642 292.197s-4.155-9.954-5.026-19.021c.017 0 3.811 3.532 5.026 19.021z" fill="#312871"/><path fill-rule="evenodd" clip-rule="evenodd" d="M463.991 287.434s-5.371-6.998-7.95-13.978c0-.017 3.745 1.987 7.95 13.978z" fill="#312871"/><path fill-rule="evenodd" clip-rule="evenodd" d="M467.736 282.95s-5.207-6.16-10.939-9.823c0 0 1.051 3.729 10.939 9.823z" fill="#312871"/><path fill-rule="evenodd" clip-rule="evenodd" d="M440.766 224.21l6.488 21.074-.345.082c-.411.082-17.871 5.848-17.986 5.864.279-.887 2.546-3.975 3.137-4.911 3.022-4.747 6.603-11.366 8.049-17.493.098-.312.657-4.599.657-4.616z" fill="#5B57A3"/><path fill-rule="evenodd" clip-rule="evenodd" d="M428.939 251.215l18.298-6.028 11.005 33.492c-.295-.871-1.626-2.94-2.496-3.449-2.924-1.725-5.207-4.288-6.521-5.01-3.499-1.906-20.138-16.968-20.286-19.005z" fill="#412C89"/><path fill-rule="evenodd" clip-rule="evenodd" d="M440.683 224.179l6.554 20.959.329-.148c.377-.164 18.347-5.667 18.446-5.716-.74-.559-4.386-1.758-5.404-2.168-5.224-2.119-11.975-5.404-16.722-9.56-.246-.197-3.203-3.351-3.203-3.367z" fill="#564A9B"/><path fill-rule="evenodd" clip-rule="evenodd" d="M465.995 239.29l-18.807 5.766 10.923 33.606c-.263-.887-.378-3.334.033-4.254 1.363-3.104 1.741-6.504 2.398-7.851 1.725-3.614 6.504-25.542 5.453-27.267z" fill="#312871"/><path fill-rule="evenodd" clip-rule="evenodd" d="M633.126 244.809l2.365 4.32 4.32 2.366-4.32 2.365-2.365 4.32-2.349-4.32-4.32-2.365 4.32-2.366 2.349-4.32zM122.586 221.14l2.365 4.32 4.32 2.365-4.32 2.349-2.365 4.32-2.349-4.32-4.32-2.349 4.32-2.365 2.349-4.32z" fill="#FDF2DE"/><path fill-rule="evenodd" clip-rule="evenodd" d="M257.062 296.451l3.597 6.571 6.57 3.597-6.57 3.597-3.597 6.57-3.597-6.57-6.571-3.597 6.571-3.597 3.597-6.571zM519.345 350.147l2.431 4.451 4.452 2.431-4.452 2.431-2.431 4.451-2.431-4.451-4.451-2.431 4.451-2.431 2.431-4.451zM385.165 360.626l1.15 2.119 2.135 1.166-2.135 1.166-1.15 2.119-1.166-2.119-2.119-1.166 2.119-1.166 1.166-2.119z" fill="#EB6B59"/><path fill-rule="evenodd" clip-rule="evenodd" d="M610.721 214.34l1.15 2.119 2.135 1.166-2.135 1.166-1.15 2.119-1.166-2.119-2.119-1.166 2.119-1.166 1.166-2.119z" fill="#FDF2DE"/><path fill-rule="evenodd" clip-rule="evenodd" d="M353.266 258.18l1.167 2.119 2.119 1.166-2.119 1.15-1.167 2.135-1.149-2.135-2.136-1.15 2.136-1.166 1.149-2.119zM772.727 247.602l2.348 4.303 4.304 2.349-4.304 2.365-2.348 4.287-2.349-4.287-4.304-2.365 4.304-2.349 2.349-4.303zM849.894 262.073l4.155 7.605 7.589 4.155-7.589 4.156-4.155 7.589-4.156-7.589-7.605-4.156 7.605-4.155 4.156-7.605z" fill="#EB6B59"/><path d="M426.59 766.863c35.171 0 63.682-1.514 63.682-3.383s-28.511-3.384-63.682-3.384c-35.17 0-63.682 1.515-63.682 3.384s28.512 3.383 63.682 3.383zM550.784 792.684c49.34 0 89.339-2.853 89.339-6.373 0-3.519-39.999-6.373-89.339-6.373-49.34 0-89.339 2.854-89.339 6.373 0 3.52 39.999 6.373 89.339 6.373z" fill="#73A36D"/><path fill-rule="evenodd" clip-rule="evenodd" d="M659.62 796.939c0 .87-6.275 1.593-14.011 1.593-7.737 0-14.011-.706-14.011-1.593s6.274-1.594 14.011-1.594c7.736 0 14.011.723 14.011 1.594z" fill="#73A36D"/><path fill-rule="evenodd" clip-rule="evenodd" d="M457.437 702.048c17.773-12.22 18.939-12.795 30.913-28.235.69-.657 1.741.213 1.249 1.018-11.005 17.805-8.903 15.801-24.359 29.927-2.645 2.415-8.673 6.998-12.123 7.983-.673.197-1.412.296-2.036 0-.707-.328-1.101-1.035-1.413-1.774-1.035-2.414-1.987-4.845-2.809-7.342-1.987-5.995-5.847-14.816-1.954-21.173.509-.837 1.182-1.626 2.102-1.954 1.626-.591 3.482.46 4.353 1.954.887 1.512 6.077 19.596 6.077 19.596z" fill="#EF8F88"/><path fill-rule="evenodd" clip-rule="evenodd" d="M426.13 659.621l-.542.115c-4.172.92-10.315-4.468-11.235-8.64l-.476-8.394 8.098-1.806 4.155 18.725z" fill="#312871"/><path fill-rule="evenodd" clip-rule="evenodd" d="M433.374 670.265h-15.276l4.402-15.243 10.414 1.297.46 13.946z" fill="#F4B5AD"/><path fill-rule="evenodd" clip-rule="evenodd" d="M432.914 656.319l-10.414-1.297-2.053 7.096c2.332 2.628 5.782 6.701 9.576 6.701 1.199 0 2.3-.345 3.285-.969l-.394-11.531z" fill="#EF8F88"/><path fill-rule="evenodd" clip-rule="evenodd" d="M434.491 664.417c-6.866 1.528-13.65-2.792-15.177-9.658l-3.072-13.83 21.288-4.731s2.398 10.792 2.463 18.429c.05 5.717-2.02 9.002-5.502 9.79z" fill="#F4B5AD"/><path d="M420.26 645.608l-4.008.89.402 1.812 4.009-.89-.403-1.812z" fill="#312871"/><path fill-rule="evenodd" clip-rule="evenodd" d="M422.336 651.342c.608 2.694-.214 5.174-1.79 5.536-1.594.361-4.14-2.793-4.731-5.486-.608-2.694.969-3.926 2.562-4.287 1.577-.362 3.351 1.527 3.959 4.237z" fill="#F4B5AD"/><path fill-rule="evenodd" clip-rule="evenodd" d="M433.982 631.418a8.503 8.503 0 00-2.415-.296c-4.402-1.527-5.42-2.201-8.804-1.166-3.449 1.051-4.254 3.055-4.254 3.055s-7.523 1.331-6.817 10.151c.279 3.532 1.708 6.472 2.973 8.443-.049-.591-.016-1.232-.016-1.84 0-1.281.509-2.792 1.232-4.024l2.743 1.594 1.741 3.022.279-.066a2.658 2.658 0 002.037-2.989c-.361-2.267.772-4.468 3.006-4.961l2.168-.476c.903.246 1.856.673 2.825 1.347 3.318 2.332 6.127 3.268 8.574 2.661l.181 1.232.213-1.347c1.085-.345 2.103-1.019 3.072-2.004 2.677-2.776 2.743-14.455-4.156-16.804-.016 0-1.494 3.975-4.582 4.468z" fill="#312871"/><path fill-rule="evenodd" clip-rule="evenodd" d="M418.772 636.51c-.493 3.942 13.699 8.952 17.427 9.412 3.745.46 7.162-2.365 7.654-6.307.493-3.943-2.151-7.523-5.88-7.983-3.745-.477-18.725.936-19.201 4.878z" fill="#312871"/><path fill-rule="evenodd" clip-rule="evenodd" d="M422.796 666.75s-3.992 1.889-7.359 2.726c-3.367.838-3.367 0-3.367 0s-2.102 15.769 4.205 19.12c6.307 3.367 15.966 5.469 15.966 5.469l8.623-4.829-2.94-16.392s-3.778-2.941-6.094-4.205c-2.3-1.265-9.034-1.889-9.034-1.889z" fill="#F4B5AD"/><path fill-rule="evenodd" clip-rule="evenodd" d="M439.238 668.294h-27.529a4.41 4.41 0 00-4.419 4.418l-1.445 28.613-13.009 26.873 30.338 16.524 37.713-13.584-15.736-30.108-1.511-28.318c.016-2.431-1.971-4.418-4.402-4.418z" fill="#EF855A"/><path fill-rule="evenodd" clip-rule="evenodd" d="M459.721 732.041l8.952-6.882s23.176-3.679 24.178 11.843l-33.147 6.833v-11.794h.017z" fill="#F4B5AD"/><path fill-rule="evenodd" clip-rule="evenodd" d="M443.656 730.169c6.702 0 16.294-4.271 25.016-4.994 0 0-10.676 9.33-6.176 21.682 0 0-16.507 7.342-37.023 7.342v-24.014h18.183v-.016z" fill="#312871"/><path fill-rule="evenodd" clip-rule="evenodd" d="M477.181 757.025c-13.863 4.122-30.732 3.58-38.321 3.038-.411-.033-.805-.065-1.166-.082a18.636 18.636 0 00-7.293.854 36.043 36.043 0 00-4.583 1.873l-1.035.493c-4.369 1.987-8.82 2.841-8.82 2.841a16.033 16.033 0 01.345-4.32c.837-3.843 2.825-5.847 2.825-5.847h9.461c2.431 0 4.796-.542 6.981-1.544a17.492 17.492 0 002.349-1.314c36.021-24.343 54.927-15.982 54.927-15.982s2.841 14.487-15.67 19.99z" fill="#F4B5AD"/><path fill-rule="evenodd" clip-rule="evenodd" d="M461.396 740.155s5.338-4.155 15.358-5.847c0 0-7.08-.936-14.816 2.004.016 0-1.084 2.546-.542 3.843z" fill="#EF8F88"/><path fill-rule="evenodd" clip-rule="evenodd" d="M394.068 732.041l-8.952-6.882s-23.177-3.679-24.179 11.843l33.147 6.833v-11.794h-.016z" fill="#F4B5AD"/><path fill-rule="evenodd" clip-rule="evenodd" d="M385.116 725.175s10.676 9.33 6.176 21.682c0 0 14.848 7.342 35.364 7.342v-24.014H407.29c-6.702-.016-13.929-4.32-22.174-5.01z" fill="#312871"/><path fill-rule="evenodd" clip-rule="evenodd" d="M438.844 760.047c-.411-.033-.805-.066-1.167-.082a18.64 18.64 0 00-7.293.854 36.077 36.077 0 00-4.582 1.872l-1.035.493a24.345 24.345 0 00-1.938-.706 17.031 17.031 0 00-6.538-.772c.838-3.844 2.826-5.848 2.826-5.848h9.461c2.431 0 4.796-.542 6.98-1.544l.313.312c.115.115 1.938 1.955 2.973 5.421z" fill="#EF8F88"/><path fill-rule="evenodd" clip-rule="evenodd" d="M360.937 737.002s18.906-8.377 54.944 15.982a16.683 16.683 0 009.313 2.858h9.461s3.499 3.499 3.17 10.167c0 0-5.174-1.002-9.839-3.334a32.677 32.677 0 00-4.582-1.873 18.601 18.601 0 00-7.293-.854c-6.883.559-24.852 1.413-39.487-2.94-18.528-5.486-15.687-20.006-15.687-20.006z" fill="#F4B5AD"/><path fill-rule="evenodd" clip-rule="evenodd" d="M439.238 668.294s7.424-1.446 18.758 25.854c0 0-3.844 8.344-15.933 7.177l-2.825-33.031z" fill="#E12D21"/><path fill-rule="evenodd" clip-rule="evenodd" d="M411.709 668.294s-7.425-1.446-18.758 25.854c0 0 3.843 8.344 15.932 7.177l2.826-33.031z" fill="#EF855A"/><path fill-rule="evenodd" clip-rule="evenodd" d="M405.845 701.325l5.354-20.827-6.718 20.827h1.364z" fill="#831B20"/><path fill-rule="evenodd" clip-rule="evenodd" d="M392.162 740.155s-5.338-4.155-15.374-5.847c0 0 7.079-.936 14.816 2.004 0 0 1.1 2.546.558 3.843z" fill="#EF8F88"/><path fill-rule="evenodd" clip-rule="evenodd" d="M433.686 668.294c-8.788-2.152-14.767 0-14.767 0 4.008 6.668 10.135 6.668 14.767 0z" fill="#F4B5AD"/><path fill-rule="evenodd" clip-rule="evenodd" d="M439.238 668.294s7.424-1.446 18.758 25.854c0 0-3.844 8.344-15.933 7.177l-2.825-33.031z" fill="#EF855A"/><path fill-rule="evenodd" clip-rule="evenodd" d="M445.25 701.309l-5.536-20.811 6.899 20.811h-1.363z" fill="#831B20"/><path fill-rule="evenodd" clip-rule="evenodd" d="M443.393 698.894c12.155-6.438 38.371-20.532 47.585-29.303 3.253-3.088 19.218-7.703 1.15 7.802-6.701 5.749-53.794 36.859-54.089 27.907-.082-2.546 5.092-6.274 5.354-6.406z" fill="#9C4F5F"/><path fill-rule="evenodd" clip-rule="evenodd" d="M421.63 695.363c10.348-3.991 21.369-.394 24.605 8.016 3.252 8.426-2.513 18.478-12.861 22.47-10.348 3.991-21.37.394-24.606-8.016-3.235-8.426 2.514-18.479 12.862-22.47z" fill="#9C4F5F"/><path fill-rule="evenodd" clip-rule="evenodd" d="M480.729 686.657a4.747 4.747 0 005.667-3.564 4.722 4.722 0 00-3.565-5.65 4.722 4.722 0 00-5.65 3.564 4.7 4.7 0 003.548 5.65z" fill="#F4B5AD"/><path fill-rule="evenodd" clip-rule="evenodd" d="M423.19 699.42c7.589-2.924 15.67-.296 18.052 5.88 2.382 6.176-1.84 13.552-9.428 16.492-7.589 2.923-15.67.295-18.052-5.881-2.382-6.176 1.84-13.567 9.428-16.491z" fill="#884353"/><path d="M413.039 705.399c.723.131 6.422-2.234 7.802-2.579 3.532-.903 5.798-2.086 9.806-3.039 2.168-.509 4.731-1.199 6.899-1.757M412.661 708.273c1.889 0 27.497-5.995 28.893-7.703l-.115-.164M413.105 712.61c-1.084-.329 1.38-.608 2.694-1.101 3.137-1.149 13.354-2.923 17.427-3.942.394-.098 10.66-3.104 10.627-3.433M412.563 715.484c2.825-.755 23.735-6.981 31.274-7.67.674-.066 1.495-.033 2.185-.033M413.942 717.554c.033 0 24.672-4.649 25.969-5.65 1.019-.789 3.318-.559 4.632-.559M417.408 721.315c1.035-.263 24.097-5.667 24.672-5.634.279.017.18-.016.394-.098" stroke="#EF855A" stroke-width=".5" stroke-miterlimit="22.926"/><path fill-rule="evenodd" clip-rule="evenodd" d="M393.821 695.527c-2.743 6.423-6.554 16.442-5.552 20.269 2.678 5.782 11.219 4.6 18.381 1.199 10.463-4.944 18.56-19.365 10.528-16.294 0 0-12.122 15.276-16.54 11.383l4.303-10.726c-6.34-.509-9.691-3.893-11.12-5.831z" fill="#F4B5AD"/><path fill-rule="evenodd" clip-rule="evenodd" d="M657.255 701.161c-4.353-1.922-7.983-5.223-9.724-9.658-5.207-16.606-19.629-16.853-20.516-26.265l-7.819 2.776v6.571c-11.842 2.677-20.778 14.766-20.778 29.286 0 15.917 10.742 28.893 24.277 29.78 1.922 14.29 12.533 25.246 25.394 25.246 14.208 0 25.739-13.37 25.739-29.862-.017-12.746-6.899-23.587-16.573-27.874z" fill="#A04E61"/><path fill-rule="evenodd" clip-rule="evenodd" d="M609.013 703.017l14.618-.837-4.714-14.816-8.902 1.1-1.002 14.553z" fill="#F4B5AD"/><path fill-rule="evenodd" clip-rule="evenodd" d="M610.014 688.464l8.903-1.1 1.363 4.697c-1.987 2.251-4.549 7.096-7.802 7.096a5.198 5.198 0 01-2.808-.821l.344-9.872z" fill="#EF8F88"/><path fill-rule="evenodd" clip-rule="evenodd" d="M609.719 695.741c3.022 0 6.291-1.511 10.792-5.454 2.578-2.266 4.5-6.192 4.5-8.853v-14.717h-22.667s-1.708 7.818-.049 15.571c1.248 5.815 5.042 13.453 7.424 13.453z" fill="#F4B5AD"/><path d="M626.21 672.367h-4.254v1.938h4.254v-1.938z" fill="#fff"/><path fill-rule="evenodd" clip-rule="evenodd" d="M621.168 678.658c0 2.875 1.379 5.207 3.071 5.207 1.692 0 3.565-3.761 3.565-6.636 0-2.874-1.873-3.761-3.565-3.761-1.692-.017-3.071 2.316-3.071 5.19z" fill="#F4B5AD"/><path fill-rule="evenodd" clip-rule="evenodd" d="M601.292 668.212c1.364 3.038 2.924 5.206 13.683 7.769 10.759 2.562 13.37-.345 17.543 4.287-11.646-38.239-34.002-18.282-31.226-12.056z" fill="#A04E61"/><path fill-rule="evenodd" clip-rule="evenodd" d="M623.828 674.256c5.224 0 9.494-4.271 9.494-9.494s-4.27-9.494-9.494-9.494c-5.223 0-9.494 4.271-9.494 9.494s4.271 9.494 9.494 9.494z" fill="#A04E61"/><path fill-rule="evenodd" clip-rule="evenodd" d="M577.049 765.977c-1.068 2.66-3.926 4.27-6.768 4.582-2.841.312-5.699-.476-8.393-1.429a60.455 60.455 0 01-18.906-10.972c-13.502 13.058-32.49 19.218-50.18 24.556-.624.181-1.068-.608-.575-1.035 5.026-4.467 18.134-16.031 25.542-21.961 5.321-4.237 10.43-8.754 15.982-12.697 5.469-3.876 11.563-8.607 18.478-5.88 6.784 2.677 12.599 7.26 18.463 11.449 2.398 1.708 4.648 2.677 5.634 5.519.805 2.332 1.692 5.453.723 7.868z" fill="#F4B5AD"/><path fill-rule="evenodd" clip-rule="evenodd" d="M489.5 774.189c-.953-5.207-1.084-9.527-.328-9.658.772-.131 2.151 3.959 3.104 9.166.953 5.19 1.084 9.526.329 9.658-.772.148-2.152-3.959-3.105-9.166z" fill="#312871"/><path opacity=".5" fill-rule="evenodd" clip-rule="evenodd" d="M570.692 752.705l-17.346 12.729 18.857-1.067c0-.017 2.809-10.25-1.511-11.662z" fill="#E7E7E8"/><path fill-rule="evenodd" clip-rule="evenodd" d="M529.201 769.065c-16.672 1.708-33.18 4.911-49.638 8.097-.887.165-.822 1.462.082 1.528 17.937 1.38 86.628 5.338 91.096 4.632 4.468-.706 8.952-3.4 10.282-7.736.28-.92.411-1.906.214-2.842-.476-2.332-3.154-6.915-5.371-7.802a22.445 22.445 0 00-13.256-.986c.017.017-22.979 4.024-33.409 5.109z" fill="#F4B5AD"/><path d="M478.939 779.101c.78 0 1.412-4.288 1.412-9.576 0-5.289-.632-9.577-1.412-9.577-.781 0-1.413 4.288-1.413 9.577 0 5.288.632 9.576 1.413 9.576z" fill="#312871"/><path fill-rule="evenodd" clip-rule="evenodd" d="M598.435 730.76c-3.154 9.478-5.766 19.103-9.034 28.564-.066.197-.132.394-.296.509-.312.247-.772.082-1.117-.115-1.248-.673-2.973-2.184-2.973-2.184 1.725-9.051 3.778-18.036 5.815-27.02 1.034-4.55 2.102-9.117 3.022-13.683.755-3.696 1.511-7.506 3.876-10.561 2.464-3.187 8.131-5.076 11.679-3.171.328.51-1.84 4.435-2.07 4.977a2973.337 2973.337 0 00-4.369 10.447c-1.675 4.041-3.154 8.131-4.533 12.237z" fill="#F7B74F"/><path opacity=".5" fill-rule="evenodd" clip-rule="evenodd" d="M601.128 713.76s-12.089 8.114-1.987 20.482l1.987-20.482z" fill="#E7E7E8"/><path fill-rule="evenodd" clip-rule="evenodd" d="M622.268 753.887c-8.64.181-45.039-1.954-50.394-1.002-2.25.394-9.493 19.563-10.594 25.526-.624 3.367-.115 5.584 3.384 6.603 10.956 3.186 22.388 3.712 33.721 3.843 8.312.099 18.003-.722 22.98-8.41 4.5-6.948 4.435-16.524 1.839-24.145a21.547 21.547 0 00-.936-2.415z" fill="#564A9B"/><path fill-rule="evenodd" clip-rule="evenodd" d="M640.911 794.278l-.493-.378c-.46-11.974-.837-23.949-1.133-35.923l-.312-3.646c-.082-13.88-1.692-31.357-2.76-45.203 0-.345-.065-.69-.213-1.117-1.528-4.156-5.815-7.178-10.25-7.277a2.682 2.682 0 01-.427.115c-4.303.871-12.631 3.679-16.672 2.201-2.201 3.86-5.683 7.802-7.539 10.693-2.201 3.433 5.092 2.185 7.605 2.727 5.683 1.232 11.711.706 17.23-1.035 1.413 25.23 5.963 56.093 10.858 80.485 0 0 9.477 1.544 14.947.263a17.255 17.255 0 00-10.841-1.905z" fill="#F7B74F"/><path fill-rule="evenodd" clip-rule="evenodd" d="M627.229 731.746c-4.123 6.833-4.402 23.488-4.402 23.488-4.435 2.086-9.757 3.368-14.668 3.236-2.957-.082-5.864-1.741-8.476-3.104 0 0 .526-21.436-1.61-26.396-2.004-4.665-.279-11.35 3.039-15.194 0 0 16.245 4.353 26.839.214 0-.017 1.824 13.518-.722 17.756z" fill="#F7B74F"/><path opacity=".8" fill-rule="evenodd" clip-rule="evenodd" d="M627.951 713.973l-1.724-2.677.87 2.989.854-.312z" fill="#E7E7E8"/><path fill-rule="evenodd" clip-rule="evenodd" d="M623.368 701.309c-9.543-1.166-14.323-.115-14.306 1.675 1.79 9.215 6.422 9.494 14.306-1.675zM638.283 795.641h-.575c-.115.148-.197.23-.312.394 2.168.312 9.708 1.265 14.356.165a17.053 17.053 0 00-10.808-1.922 3.273 3.273 0 01-2.661 1.363zM419.199 705.481a4.722 4.722 0 005.65-3.564 4.723 4.723 0 00-3.564-5.651 4.748 4.748 0 00-5.667 3.565c-.559 2.546 1.035 5.075 3.581 5.65z" fill="#F4B5AD"/><path fill-rule="evenodd" clip-rule="evenodd" d="M287.121 969.079c0 1.872-28.515 3.384-63.682 3.384s-63.682-1.512-63.682-3.384c0-1.873 28.515-3.384 63.682-3.384s63.682 1.511 63.682 3.384z" fill="#73A36D"/><path fill-rule="evenodd" clip-rule="evenodd" d="M805.036 662.462s3.433 3.236 7.013 4.994c0-.017-.854-2.119-7.013-4.994zM804.296 657.173s6.883 6.472 14.044 9.987c0 0-1.725-4.205-14.044-9.987zM813.183 659.079s5.634 5.289 11.498 8.163c0 0-1.413-3.449-11.498-8.163zM840.17 657.978s-6.472 6.078-13.19 9.363c.017 0 1.626-3.942 13.19-9.363zM839.759 662.462s-3.449 3.236-7.014 4.994c0-.017.855-2.119 7.014-4.994zM844.983 662.462s-3.433 3.236-7.014 4.994c0-.017.854-2.119 7.014-4.994z" fill="#486640"/><path fill-rule="evenodd" clip-rule="evenodd" d="M848.169 483.407c-5.305-1.166-10.545 2.201-11.711 7.507 5.305 1.166 10.545-2.201 11.711-7.507zM834.815 491.127c-.64-5.387-5.552-9.247-10.939-8.59.657 5.387 5.552 9.231 10.939 8.59zM848.169 471.4c-5.305-1.166-10.545 2.201-11.711 7.523 5.305 1.15 10.545-2.217 11.711-7.523zM835.489 460.674c-3.844 3.844-3.86 10.069-.017 13.913 3.844-3.844 3.844-10.069.017-13.913zM834.815 479.104c-.64-5.388-5.552-9.248-10.939-8.591.657 5.404 5.552 9.248 10.939 8.591z" fill="#207F7C"/><path d="M835.653 468.444h-.361v34.707h.361v-34.707z" fill="#7DCBE4" stroke="#486640" stroke-width=".5" stroke-miterlimit="22.926"/><path fill-rule="evenodd" clip-rule="evenodd" d="M835.456 479.827l-6.111-5.125.23-.28 5.897 4.945 7.326-5.191.214.296-7.556 5.355zM835.456 492.064l-6.111-5.125.23-.279 5.897 4.944 7.326-5.191.214.296-7.556 5.355z" fill="#7DCBE4" stroke="#486640" stroke-width=".5" stroke-miterlimit="22.926"/><path fill-rule="evenodd" clip-rule="evenodd" d="M813.807 500.128s3.449 3.236 7.013 4.977c.017.017-.854-2.086-7.013-4.977zM813.068 494.839s6.882 6.472 14.044 9.987c0 0-1.725-4.205-14.044-9.987zM821.954 496.745s5.634 5.289 11.498 8.163c0 0-1.413-3.433-11.498-8.163zM848.941 495.644s-6.455 6.078-13.19 9.363c.017.016 1.626-3.942 13.19-9.363zM848.53 500.128s-3.449 3.236-7.013 4.977c0 .017.854-2.086 7.013-4.977zM853.754 500.128s-3.433 3.236-7.014 4.977c0 .017.871-2.086 7.014-4.977z" fill="#486640"/><path d="M243.85 793.549s6.636-2.524 10.398 2.492c3.762 5.016 5.945 60.486-2.556 64.101-8.51 3.608-11.702 0-11.702 0s-6.921-59.989 3.86-66.593z" fill="#382C4D"/><path d="M232.841 958.875s.944 1.206.097 2.842c0 0-5.985 2.036-17.075.342 0 0-.782-.822-.057-2.842-.009 0 6.115-5.936 17.035-.342z" fill="#857E95"/><path d="M229.29 941.873s.489 4.267.839 8.403c0 0-4.984-3.143-10.447.212l.586-8.436 9.022-.179z" fill="#E9B585"/><path d="M231.277 951.172s-.586-2.41-6.832-2.353c-6.245.057-8.297 2.98-8.721 6.4l.082 3.998s7.45-2.695 17.043-.342c-.008 0 .293-5.187-1.572-7.703z" fill="#382C4D"/><path d="M237.515 964.86s.944 1.206.097 2.842c0 0-5.985 2.036-17.075.342 0 0-.782-.822-.057-2.841-.009 0 6.115-5.945 17.035-.343z" fill="#857E95"/><path d="M234.787 946.498s.619 5.472 1.075 10.773c0 0-6.384-4.031-13.396.269l.75-10.814 11.571-.228z" fill="#E9B585"/><path d="M235.951 957.157s-.586-2.41-6.832-2.353c-6.245.057-8.297 2.98-8.721 6.4l.082 4.007s7.45-2.696 17.035-.342c0-.009.301-5.196-1.564-7.712z" fill="#382C4D"/><path d="M242.4 794.901h-39.656s-12.369 12.483-4.584 45.47c7.793 32.987 9.633 34.819 8.713 49.941-.92 15.121 12.442 56.015 12.442 56.015s.481.489 4.495-.171c.252-.041.041 4.348.309 4.365l.237.073a18.728 18.728 0 0011.188-.073c4.935-41.204 2.744-67.326 10.667-102.65 6.572-29.331-3.811-52.97-3.811-52.97z" fill="#663A43"/><path d="M225.561 673.775s-10.065-4.454-11.156 7.833c-1.091 12.288-2.215 27.996-12.467 36.538-17.206 14.339 21.31 5.692 21.31 5.692l9.014-35.577-6.701-14.486z" fill="#382C4D"/><path d="M237.914 724.237l-23.012-2.834s-9.918-4.251-20.521 7.736c-2.915 3.298-5.081 7.198-6.571 11.343l-3.078 8.582s2.272 2.362 12.337 5.912c0 0 5.545 22.125 1.408 37.58-.627 2.337.839 4.715 3.184 5.317 7.06 1.8 21.644 4.3 39.38.619a4.396 4.396 0 003.306-5.594c-2.191-7.207-5.489-15.879-.644-26.408 4.373-9.502 2.166-15.716 2.166-15.716 7.166 2.403 13.778-.496 13.778-.496v-9.764c-.407-16.994-21.733-16.277-21.733-16.277z" fill="#C8D4ED"/><path d="M237.889 724.171l-23.028-2.703s-1.327-.554-3.518-.684c-.228 3.835.505 13.786 13.827 15.317 13.729 1.58 16.172-8.314 16.611-11.734-2.312-.253-3.892-.196-3.892-.196z" fill="#E4E8EF"/><path d="M226.864 688.399s.293-3.477-2.899-1.262c-4.072 2.834-1.767 9.446.961 9.788 2.728.342 1.938-8.526 1.938-8.526z" fill="#E9B585"/><path d="M236.432 713.651c11.245.887 15.715-13.127 15.235-27.735-.195-5.928-2.834-9.625-5.895-11.913-5.008-3.754-17.011-3.176-18.843 4.894-1.564 6.905-2.468 12.662-2.647 17.377-1.254 18.704-9.38 25.129-9.38 25.129s-.815 12.279 11.53 12.735c10.513.391 11.449-7.06 11.49-9.283.016-.382-.008-.618-.008-.618-1.434-4.308-1.702-7.932-1.572-10.603.024.009.057.009.09.017z" fill="#E9B585"/><path d="M236.204 712.291c-9.609-2.109-9.87-13.957-9.87-13.957s-.92 9.609 5.871 14.185c1.352.912 2.451 2.182 2.924 3.746.439 1.473.822 3.607.847 6.652.032 4.389-5.057 12.133-19.934 4.674 1.335 3.127 4.218 6.319 10.398 6.547 9.413.351 11.148-5.586 11.441-8.428.065-.895.041-1.473.041-1.473-1.165-3.502-1.556-6.539-1.596-8.99a26.245 26.245 0 01.016-1.604c.033 0 .057.008.09.008h.016c.334.024.651.04.969.04.138 0 .269-.008.407-.016.179-.008.358-.008.537-.024.171-.017.342-.041.513-.057l.383-.049c.196-.033.391-.073.578-.114.09-.025.188-.041.277-.065.212-.057.424-.114.627-.179.065-.017.122-.041.187-.057.22-.074.44-.163.66-.253.041-.016.073-.032.114-.049.228-.097.456-.211.684-.325l.049-.025c.236-.13.472-.26.7-.407-.985.301-1.759 1.352-6.929.22z" fill="#C58C5D"/><path d="M190.904 743.999l33.256-5.944-.179-.993-33.533 5.993a2.575 2.575 0 00-2.084 2.988l8.485 47.506 36.073-6.441-8.184-45.812-33.255 5.944a1.637 1.637 0 01-1.906-1.327 1.654 1.654 0 011.327-1.914z" fill="#382C4D"/><path d="M190.904 743.999a1.643 1.643 0 00.579 3.233l31.692-5.659-.578-3.233-31.693 5.659z" fill="#EADED0"/><path d="M222.841 739.716l-31.839 5.692a.243.243 0 00-.195.285c.024.131.154.22.285.196l31.839-5.692-.09-.481z" fill="#C6B19D"/><path d="M245.666 685.59s-5.033 7.687-20.146 3.697c-2.174-.57-6.091-2.695-5.822-4.926.635-5.424 2.125-16.433 19.657-15.277 6.066.399 11.946 4.577 12.548 10.635.016.163.595 5.936-3.713 6.042-.497.016-1.93.016-2.524-.171z" fill="#382C4D"/><path d="M234.722 765.904c-.88-2.687-5.782-1.156-5.782-1.156 2.842-.986 4.161-4.626-.497-2.777-4.657 1.848-4.641 5.342-4.641 5.342-13.053 3.403-31.847-1.214-31.847-1.214l-3.029-16.969c-2.582-.057-4.047-.456-4.047-.456s-7.101 17.181-4.17 30.584c0 0 13.941 5.464 43.671-3.99l1.083-.073c12.801-2.256 10.138-6.604 9.259-9.291z" fill="#E9B585"/><path d="M191.955 766.091s-4.544.635-7.687 3.518c0 0 2.687-4.234 7.386-5.228l.301 1.71z" fill="#C58C5D"/><path d="M223.81 946.164l-1.857-113.643a18.152 18.152 0 014.08-11.791l8.534-10.48-9.079 9.129a18.18 18.18 0 00-5.277 13.427l3.599 113.358z" fill="#512B34"/><path d="M259.647 782.068V750.27s-6.009 2.622-12.776.789c-.652-.162-1.002-.293-1.002-.293s.92 2.63.375 7.068l1.205 22.556-6.229.587-19.47 1.84s-7.174-.635-11.376-.749c-4.202-.114-3.876 4.096-3.876 4.096s-.627 6.579 2.598 6.001c5.358-.961 11.449-2.044 11.449-2.044s12.002.399 21.79.521c4.324.057 8.208.049 10.439-.057 7.28-.366 6.873-8.517 6.873-8.517z" fill="#E9B585"/><path d="M247.457 780.382s4.927-1.058 8.534 0c0 0-4.234-2.223-8.591-1.026l.057 1.026z" fill="#C58C5D"/><path d="M246.146 790.675a195.488 195.488 0 01-.089 3.737s1.172 2.728 1.539-.032c.114-.896.228-2.166.333-3.705-.578.008-1.172.008-1.783 0zM246.399 750.929s.04-17.336-4.227-26.44c0 0-2.296-2.484-4.258-.261l3.607 13.298a93.59 93.59 0 013.151 19.787l1.181 23.216 1.596-.155-1.05-29.445zM228.37 688.171s-2.443 8.152-1.327 14.47c0 0-2.573-7.434-1.108-15.349l2.435.879zM760.061 466.309s-9.659 24.004 17.756 24.004c27.408 0 27.146-15.926 21.729-29.221-5.416-13.295-33.356-4.398-39.485 5.217z" fill="#382C4D"/><path d="M794.361 447.479s8.066-25.091-14.813-24.004c-22.848 1.081-22.654 15.919-18.137 29.221 4.517 13.295 27.833 4.398 32.95-5.217z" fill="#382C4D"/><path d="M798.94 618.465s1.75 1.274 1.244 3.024c-.506 1.755-14.539 4.773-20.58-2.793-6.042-7.56 1.324-4.467 1.324-4.467s13.52 6.26 18.012 4.236z" fill="#857E95"/><path d="M786.308 608.743s3.579 6.941 12.639 9.722c0 0-5.398 4.592-13.233 1.212-7.834-3.38-8.697-9.609-8.697-9.609l2.681-4.199 6.61 2.874z" fill="#382C4D"/><path d="M787.413 602.658s-1.03 2.081-1.112 6.085c0 0-4.654 1.618-6.641-1.618s.181-9.14.181-9.14l7.572 4.673z" fill="#E9B585"/><path d="M767.071 625.799s-.806 1.025-.081 2.425c0 0 5.11 1.736 14.569.293 0 0 .669-.706.05-2.424 0 0-5.223-5.067-14.538-.294z" fill="#857E95"/><path d="M768.658 610.137s.206 4.667-.187 9.196c0 0 5.448-3.436 11.433.231l-1.375-9.227-9.871-.2z" fill="#E9B585"/><path d="M763.241 501.109s-2.411 17.249.55 43.84c2.968 26.702 1.706 44.833 3.955 66.05l1.081-.188a28.16 28.16 0 0110.677.225l1.162.25s-1.849-34.749-.419-59.777c1.431-25.022 1.806-38.942 1.806-38.942l4.398 56.729c-3.511 18.868-10.677 27.677-10.677 27.677l13.108 6.404s14.275-22.923 13.501-40.398c-.737-16.681-1.237-42.453-4.88-62.539l-34.262.669z" fill="#3A4068"/><path d="M751.127 506.688s-2.736 10.902.319 14.582c1.612 1.943 4.311 3.642 5.491 4.267a1.213 1.213 0 001.375-1.974c-1.4-1.269-5.117-5.836-1.837-10.64 0 0 1.456 2.399 1.662 5.379.037.538.593.894 1.131.856a1.084 1.084 0 001.006-1.074c.006-2.175.481-7.41-1.156-11.153l-7.991-.243zM810.449 506.113s2.292 11.002-.9 14.557c-1.687 1.881-4.455 3.468-5.66 4.042a1.214 1.214 0 01-1.3-2.03c1.449-1.212 5.348-5.629 2.262-10.559 0 0-1.55 2.337-1.875 5.305-.056.537-.624.868-1.162.805a1.08 1.08 0 01-.962-1.112c.081-2.168-.181-7.422 1.606-11.095l7.991.087z" fill="#E9B585"/><path d="M766.909 506.4c-2.993-.874-4.368-3.798-4.542-6.916-.35-6.197-.163-13.201-.182-20.423-.025-10.634.169-20.593.169-20.593-2.761 15.676-2.98 48.763-2.98 48.763-3.586 1.787-8.534-.256-8.534-.256-.85-8.022-1.825-49.506 1.905-65.594 2.787-12.014 15.476-13.251 15.476-13.251l22.285 1.212s11.571-1.312 14.557 10.046c2.986 11.358 5.56 67.262 5.56 67.262s-5.154 2.337-8.515.275c0 0-2.412-33.518-5.892-48.213 0 0 .75 10.053 1.456 21.811.406 6.716.044 13.788.875 18.774.587 3.542-1.806 6.891-5.348 7.453-6.848 1.075-17.812 2.125-26.29-.35z" fill="#E73D56"/><path d="M788.813 429.242l-20.592-1.118s-.1.006-.263.012c-1.137 2.943-3.792 14.357 6.81 7.366 0 0 12.102 10.921 14.045-6.26z" fill="#6B1A2D"/><path d="M782.846 394.436c-.618-6.579-10.071-8.265-14.419-5.81-2.662 1.506-5.13 4.155-5.892 8.834-1.88 11.514.231 23.079 9.228 23.529 10.021.5 12.895-7.398 11.083-26.553z" fill="#E9B585"/><path d="M771.657 416.928s1.306 5.142-2.156 12.301c0 0-1.112 4.399 4.355 6.086 5.467 1.686 14.163-5.973 14.163-5.973s-5.779-5.917-4.854-20.867c0 0-8.216-.257-11.508 8.453z" fill="#E9B585"/><path d="M781.922 401.971s.125-2.787 2.424-.7c2.936 2.662.431 7.66-1.768 7.653-2.187-.006-.656-6.953-.656-6.953z" fill="#E9B585"/><path d="M760.598 394.786s.488-8.334 12.614-8.778c5.779-.212 9.759 3.836 10.284 5.96.044.169.088.319.15.431.1.188.125.9.556.856 2.774-.268 3.817 6.592.175 7.954l-.025.062s-2.88-2.187-2.493 2.218c.519 5.823-2.293 2.593-2.818-5.086-.006 0-18.461 3.499-18.443-3.617z" fill="#382C4D"/><path d="M771.601 426.643c.325-4.224 2.399-5.598 2.399-5.598 9.084-3.055 7.328-11.152 7.328-11.152s-.156 9.278-7.984 9.965c-4.205.368-5.979-.462-6.735-.812 1.374 1.143 3.08 1.843 5.148 1.949h.075c-.169 2.13-.756 4.967-2.331 8.234 0 0-1.112 4.399 4.355 6.086 3.074.949 7.172-1.063 10.171-2.999-7.403 2.774-12.726-1.8-12.426-5.673z" fill="#C58C5D"/><path d="M805.407 440.919c-13.214 1.755-44.021-.563-52.168-1.231-.181.537-.35 1.093-.488 1.681-.087.387-.175.799-.256 1.212 18.331 3.036 47.276 1.855 53.424 1.562a70.543 70.543 0 00-.512-3.224zM806.456 449.016c-13.901.606-46.532-1.412-54.679-1.937a103.579 103.579 0 00-.413 3.917c15.001 2.281 47.076 1.65 55.392 1.443-.1-1.193-.2-2.33-.3-3.423z" fill="#B62E48"/><path d="M762.392 458.531s-1.837-21.867.368-28.864c0 0-3.53-1.512-4.448 1.774 0 0-4.142 28.121 3.961 32.569l.106-1.537.013-3.942zM796.216 458.7s-.706-18.231-3.03-29.383c0 0 2.456-1.881 4.836.956 0 0 4.511 32.981-1.968 32.363l.162-3.936z" fill="#382C4D"/><path d="M791.306 448.522l-8.485-.169s-1.255 9.784 4.043 9.89c5.304.107 4.442-9.721 4.442-9.721z" fill="#F87D93"/><path d="M787.788 443.268l-.068 3.473s-.013.619.624.632l-.025 1.093.856.019.125-6.317-1.049-.019-.013.582c0-.013-.443.031-.45.537z" fill="#382C4D"/><path d="M788.251 442.143s.006-.699.549-.693c.544.012.506.712.506.712l-1.055-.019z" fill="#fff"/><path d="M768.402 619.233s.5-2.062 5.829-2.012c5.329.05 7.085 2.543 7.441 5.461l-.069 3.417s-6.36-2.299-14.538-.293c.006-.007-.256-4.424 1.337-6.573z" fill="#382C4D"/><path d="M779.904 589.988l.262 9.128 2.199 1.074c-1.312-5.473 2.462-23.678 2.462-23.678l-.013.037c-1.524 5.692-3.317 10.153-4.904 13.426l-.006.013z" fill="#262B47"/><defs><radialGradient id="paint0_radial" cx="0" cy="0" r="1" gradientUnits="userSpaceOnUse" gradientTransform="matrix(0 512 -451.5 0 451.5 512)"><stop stop-color="#2B90EE" stop-opacity=".63"/><stop offset="1" stop-color="#8EB8F7"/></radialGradient></defs></svg>