<svg width="120" height="109" viewBox="0 0 120 109" fill="none" xmlns="http://www.w3.org/2000/svg">
<path fill-rule="evenodd" clip-rule="evenodd" d="M64.6437 0H48.4828H32.3218H16.1609H0V16.1609V32.3218V48.4828V64.6437H16.1609V48.4828H32.3218V32.3218H48.4828V16.1609H64.6437V0Z" fill="url(#paint0_linear)"/>
<path d="M0 93.9901V85.0309C0 84.6964 0.194263 84.4097 0.582789 84.1708C0.971316 83.908 1.42055 83.7766 1.93049 83.7766C2.44043 83.7766 2.87752 83.908 3.24177 84.1708C3.63029 84.4097 3.82456 84.6964 3.82456 85.0309V93.9901C3.82456 94.9458 4.1888 95.8059 4.91729 96.5704C5.67006 97.3349 6.54424 97.7172 7.53984 97.7172C8.55972 97.7172 9.4339 97.3469 10.1624 96.6062C10.8909 95.8417 11.2551 94.9697 11.2551 93.9901V84.9951C11.2551 84.6606 11.4372 84.3739 11.8015 84.135C12.19 83.8961 12.6514 83.7766 13.1856 83.7766C13.7198 83.7766 14.1569 83.8961 14.4969 84.135C14.8611 84.3739 15.0433 84.6606 15.0433 84.9951V93.9901C15.0433 95.8776 14.3026 97.5261 12.8214 98.9356C11.3401 100.345 9.5796 101.05 7.53984 101.05C5.50008 101.05 3.72742 100.345 2.22188 98.9356C0.740628 97.5261 0 95.8776 0 93.9901Z" fill="white"/>
<path d="M18.2722 93.9185V90.6931C18.2722 88.5668 18.9036 86.8466 20.1663 85.5326C21.429 84.2186 23.3109 83.5616 25.8121 83.5616C27.3904 83.5616 28.7139 83.8363 29.7823 84.3858C30.8508 84.9115 31.385 85.5087 31.385 86.1777C31.385 86.5838 31.2271 86.99 30.9115 87.3961C30.6201 87.8023 30.268 88.0054 29.8552 88.0054C29.7337 88.0054 29.2966 87.8262 28.5439 87.4678C27.8154 87.0856 27.0019 86.8944 26.1034 86.8944C23.4323 86.8944 22.0968 88.1607 22.0968 90.6931V93.9185C22.0968 96.451 23.4445 97.7172 26.1399 97.7172C27.0626 97.7172 27.8882 97.5261 28.6167 97.1438C29.3695 96.7376 29.8187 96.5346 29.9644 96.5346C30.4501 96.5346 30.8386 96.7257 31.13 97.108C31.4457 97.4902 31.6035 97.8964 31.6035 98.3264C31.6035 98.9237 31.13 99.4971 30.183 100.047C29.2359 100.596 28.0582 100.919 26.6498 101.014L26.1763 102.734C27.3419 102.758 28.2161 103.021 28.7988 103.523C29.4059 104.048 29.7095 104.682 29.7095 105.422C29.7095 106.187 29.4059 106.88 28.7988 107.501C28.2161 108.122 27.3176 108.432 26.1034 108.432C25.4235 108.432 24.7557 108.337 24.1001 108.146C23.4445 107.979 23.1166 107.74 23.1166 107.429C23.1166 107.238 23.1774 106.999 23.2988 106.712C23.4445 106.426 23.6266 106.282 23.8451 106.282C23.8937 106.282 24.1365 106.366 24.5736 106.533C25.0107 106.7 25.4599 106.784 25.9213 106.784C27.1355 106.784 27.7425 106.354 27.7425 105.494C27.7425 104.705 27.0869 104.251 25.7756 104.132L24.0273 103.953L24.8286 101.014C22.6431 100.847 21.004 100.13 19.9113 98.864C18.8186 97.5738 18.2722 95.9253 18.2722 93.9185Z" fill="white"/>
<path d="M34.219 93.9901V85.0309C34.219 84.6964 34.4132 84.4097 34.8017 84.1708C35.1903 83.908 35.6395 83.7766 36.1494 83.7766C36.6594 83.7766 37.0965 83.908 37.4607 84.1708C37.8493 84.4097 38.0435 84.6964 38.0435 85.0309V93.9901C38.0435 94.9458 38.4078 95.8059 39.1362 96.5704C39.889 97.3349 40.7632 97.7172 41.7588 97.7172C42.7787 97.7172 43.6529 97.3469 44.3814 96.6062C45.1098 95.8417 45.4741 94.9697 45.4741 93.9901V84.9951C45.4741 84.6606 45.6562 84.3739 46.0204 84.135C46.409 83.8961 46.8703 83.7766 47.4046 83.7766C47.9388 83.7766 48.3759 83.8961 48.7159 84.135C49.0801 84.3739 49.2622 84.6606 49.2622 84.9951V93.9901C49.2622 95.8776 48.5216 97.5261 47.0403 98.9356C45.5591 100.345 43.7986 101.05 41.7588 101.05C39.719 101.05 37.9464 100.345 36.4408 98.9356C34.9596 97.5261 34.219 95.8776 34.219 93.9901Z" fill="white"/>
<path d="M53.1104 99.509V84.9951C53.1104 84.6367 53.2804 84.35 53.6203 84.135C53.9846 83.8961 54.4338 83.7766 54.968 83.7766C55.4537 83.7766 55.8665 83.8961 56.2065 84.135C56.5464 84.35 56.7164 84.6367 56.7164 84.9951V86.5719C57.1292 85.7357 57.7484 85.0309 58.574 84.4575C59.4239 83.8602 60.3467 83.5616 61.3423 83.5616H62.5079C62.8964 83.5616 63.2364 83.7288 63.5277 84.0633C63.8191 84.3739 63.9648 84.7562 63.9648 85.2101C63.9648 85.664 63.8191 86.0582 63.5277 86.3927C63.2364 86.7272 62.8964 86.8944 62.5079 86.8944H61.3423C60.1767 86.8944 59.1447 87.3842 58.2462 88.3637C57.372 89.3433 56.9349 90.6095 56.9349 92.1625V99.509C56.9349 99.8196 56.7407 100.106 56.3522 100.369C55.9636 100.632 55.5023 100.763 54.968 100.763C54.4338 100.763 53.9846 100.632 53.6203 100.369C53.2804 100.106 53.1104 99.8196 53.1104 99.509Z" fill="white"/>
<path d="M66.1995 95.1728V77.2185C66.1995 76.884 66.3938 76.5973 66.7823 76.3584C67.1709 76.1195 67.6079 76 68.0936 76C68.5793 76 69.0163 76.1195 69.4049 76.3584C69.8177 76.5973 70.0241 76.884 70.0241 77.2185V83.7766H74.4679C74.7835 83.7766 75.0385 83.92 75.2328 84.2067C75.427 84.4695 75.5242 84.792 75.5242 85.1743C75.5242 85.5565 75.427 85.891 75.2328 86.1777C75.0385 86.4405 74.7835 86.5719 74.4679 86.5719H70.0241V95.1728C70.0241 96.0329 70.2062 96.6421 70.5704 97.0005C70.959 97.3588 71.6268 97.538 72.5738 97.538H73.8486C74.3586 97.538 74.7593 97.6933 75.0506 98.0039C75.342 98.3145 75.4877 98.6967 75.4877 99.1507C75.4877 99.6046 75.342 99.9869 75.0506 100.297C74.7593 100.608 74.3586 100.763 73.8486 100.763H72.5738C68.3243 100.763 66.1995 98.8998 66.1995 95.1728Z" fill="white"/>
<path d="M78.2233 99.509V84.9951C78.2233 84.6367 78.3932 84.35 78.7332 84.135C79.0975 83.8961 79.5588 83.7766 80.1173 83.7766C80.5787 83.7766 80.9794 83.8961 81.3193 84.135C81.6593 84.35 81.8293 84.6367 81.8293 84.9951V86.2852C82.8734 84.4695 84.4883 83.5616 86.6737 83.5616C87.7422 83.5616 88.6892 83.8961 89.5148 84.565C90.3647 85.2101 91.0082 86.0702 91.4453 87.1453C92.0524 85.9746 92.8416 85.0906 93.8129 84.4934C94.8085 83.8722 95.8526 83.5616 96.9454 83.5616C98.6695 83.5616 100.151 84.2067 101.389 85.4968C102.652 86.763 103.283 88.4713 103.283 90.6215V99.509C103.283 99.8196 103.089 100.106 102.7 100.369C102.312 100.632 101.863 100.763 101.353 100.763C100.867 100.763 100.43 100.632 100.041 100.369C99.6529 100.106 99.4587 99.8196 99.4587 99.509V90.6215C99.4587 89.4508 99.1187 88.531 98.4388 87.862C97.7589 87.1931 96.9697 86.8586 96.0712 86.8586C95.1727 86.8586 94.3714 87.1931 93.6672 87.862C92.9873 88.531 92.6473 89.4269 92.6473 90.5498V99.5449C92.6473 99.951 92.453 100.262 92.0645 100.477C91.7003 100.668 91.251 100.763 90.7168 100.763C90.2312 100.763 89.7941 100.668 89.4055 100.477C89.017 100.262 88.8227 99.951 88.8227 99.5449V90.5856C88.8227 89.5105 88.4828 88.6265 87.8029 87.9337C87.1472 87.2409 86.358 86.8944 85.4353 86.8944C84.5125 86.8944 83.7112 87.2289 83.0313 87.8979C82.3756 88.5668 82.0478 89.4747 82.0478 90.6215V99.509C82.0478 99.8196 81.8536 100.106 81.465 100.369C81.0765 100.632 80.6273 100.763 80.1173 100.763C79.5831 100.763 79.1339 100.632 78.7696 100.369C78.4054 100.106 78.2233 99.8196 78.2233 99.509Z" fill="white"/>
<path d="M106.049 96.3195C106.049 94.4082 106.778 93.0823 108.235 92.3416C109.692 91.5771 111.805 91.1949 114.573 91.1949H116.175V90.5498C116.175 89.4986 115.872 88.5907 115.265 87.8262C114.682 87.0617 113.784 86.6794 112.569 86.6794C111.525 86.6794 110.603 86.8586 109.801 87.217C109.024 87.5753 108.599 87.7545 108.526 87.7545C108.114 87.7545 107.774 87.5634 107.506 87.1811C107.264 86.775 107.142 86.333 107.142 85.8552C107.142 85.234 107.725 84.6964 108.891 84.2425C110.08 83.7886 111.331 83.5616 112.642 83.5616C115.143 83.5616 116.989 84.2306 118.179 85.5685C119.393 86.8825 120 88.531 120 90.514V99.509C120 99.8435 119.818 100.142 119.454 100.405C119.114 100.644 118.677 100.763 118.142 100.763C117.657 100.763 117.244 100.644 116.904 100.405C116.564 100.142 116.394 99.8435 116.394 99.509V98.2547C114.767 100.118 112.934 101.05 110.894 101.05C109.485 101.05 108.32 100.644 107.397 99.8316C106.499 99.0193 106.049 97.8486 106.049 96.3195ZM109.91 95.8537C109.91 96.6182 110.129 97.2035 110.566 97.6097C111.003 97.9919 111.574 98.1831 112.278 98.1831C113.201 98.1831 114.075 97.8008 114.901 97.0363C115.75 96.2718 116.175 95.4595 116.175 94.5994V93.2734H115.265C114.172 93.2734 113.274 93.3212 112.569 93.4168C111.889 93.5123 111.27 93.7632 110.712 94.1693C110.178 94.5755 109.91 95.1369 109.91 95.8537Z" fill="white"/>
<defs>
<linearGradient id="paint0_linear" x1="0" y1="0" x2="43.5642" y2="47.0775" gradientUnits="userSpaceOnUse">
<stop stop-color="#BAEE2B"/>
<stop offset="0.479167" stop-color="#39BABA"/>
<stop offset="1" stop-color="#843472"/>
</linearGradient>
</defs>
</svg>
