<svg height="512" width="512" xmlns="http://www.w3.org/2000/svg"><linearGradient id="a" gradientTransform="rotate(-90 1320 -1872)" gradientUnits="userSpaceOnUse" x1="-665.025" x2="-1169.553" y1="-3019.721" y2="-2829.532"><stop offset=".002" stop-color="#e2ccff"/><stop offset=".262" stop-color="#e5d1ff" stop-opacity=".74"/><stop offset=".583" stop-color="#eee0ff" stop-opacity=".419"/><stop offset=".934" stop-color="#fcf9ff" stop-opacity=".066"/><stop offset="1" stop-color="#fff" stop-opacity="0"/></linearGradient><path d="M180.252.001C79.622.535 29.101 173.6 10.246 262.56c-18.855 88.961.847 271.458 147.096 247.249 23.64-3.913 29.158-4.715 48.645-14.497 34.685-17.411 75.734-29.661 112.83-33.359 15.211-1.516 34.445-6.538 44.624-8.368 81.626-14.679 164.928-93.76 139.709-176.622-18.939-62.228-74.428-87.278-129.998-83.834-30.518 1.891-62.997-16.011-69.51-35.788C282.428 92.924 258.03-.411 180.252.001z" fill="url(#a)"/><path d="M462.203 262.993c0-23.337-18.919-42.256-42.256-42.256-11.001 0-21.018 4.207-28.537 11.096-29.199-35.63-72.779-59.021-121.88-61.288l120.301-49.084c4.148-1.693 4.148-7.567 0-9.259L263.556 60.681a5 5 0 00-3.778 0l-126.275 51.521c-4.148 1.692-4.148 7.566 0 9.259l120.301 49.084c-61.664 2.847-114.623 39.006-141.317 90.891a42.406 42.406 0 00-8.006-.768c-23.338 0-42.256 18.919-42.256 42.256 0 19.76 13.564 36.348 31.889 40.97 3.096 89.879 76.92 161.794 167.553 161.794 41.16 0 78.848-14.84 108.027-39.45a42.168 42.168 0 0014.498 2.554c23.338 0 42.256-18.919 42.256-42.256 0-9.889-3.406-18.976-9.096-26.175 7.724-19.272 11.981-40.307 11.981-62.339a168.44 168.44 0 00-3.294-33.217c20.45-2.953 36.164-20.544 36.164-41.812z" fill="#590bb2" opacity=".1"/><path d="M138.392 140.696h-3v-3a5 5 0 00-10 0v3h-3a5 5 0 000 10h3v3a5 5 0 0010 0v-3h3a5 5 0 000-10z" fill="#c182f9"/><path d="M98.667 424.943h-3v-3a5 5 0 00-10 0v3h-3a5 5 0 000 10h3v3a5 5 0 0010 0v-3h3a5 5 0 000-10z" fill="#ffa052"/><path d="M368.667 28.311h-3v-3a5 5 0 00-10 0v3h-3a5 5 0 000 10h3v3a5 5 0 0010 0v-3h3a5 5 0 000-10z" fill="#c182f9"/><path d="M429.333 170.645a4.987 4.987 0 01-3.536-1.464l-4.464-4.464-4.464 4.464a5.001 5.001 0 01-7.071-7.071l8-8a5.001 5.001 0 017.071 0l8 8a5 5 0 01-3.536 8.535z" fill="#ffa052"/><path d="M98.667 187.785a4.987 4.987 0 01-3.536-1.464l-4.464-4.464-4.464 4.464a5.001 5.001 0 01-7.071-7.071l8-8a5.001 5.001 0 017.071 0l8 8a5 5 0 01-3.536 8.535z" fill="#fdd250"/><circle cx="261.667" cy="311.023" fill="#cca1ff" r="167.667"/><path d="M429.333 311.023c0 72.237-45.683 133.798-109.732 157.388l-9.842-13.117 10.395-8.321-4.157-8.836-51.47 8.836-35.358-7.798-20.276-29.112 8.321-34.313 20.798-15.597v-11.44l15.074-11.955 16.634-1.037 32.753-11.44 12.22-2.082v16.119l33.011 4.679.522-11.44h16.119l21.836-8.313v-24.44l-17.679 7.798-8.836-15.597-7.284 4.679 9.881 15.34-8.321 4.936-8.836-8.313-4.679-14.56-20.798-14.037-5.194 5.716 21.836 19.239-6.761 9.358-9.881-11.44-14.552-12.478-15.238 10.7-9.202 6.457-8.313 19.239-18.202 5.716-3.751-2.145-7.167-4.094 2.082-14.295-2.082-8.056 3.642-8.321 21.188 2.597v-13.905l-6.371-6.371v-11.783h13.608l17.843-17.851v-10.395l-16.977-16.977 8.079-8.079v-16.08l12.017-12.025h23.918l9.358 9.358V174.55l-10.395-12.478h-9.358l-20.019-16.377c79.236 13.359 139.596 82.298 139.596 165.328z" fill="#ffbe92"/><circle cx="273.72" cy="393.501" fill="#ffa052" r="42.256"/><path d="M146.74 295.76c0 23.34-18.92 42.26-42.26 42.26-2.89 0-5.72-.29-8.45-.85-1.34-8.52-2.03-17.25-2.03-26.15 0-20.2 3.57-39.57 10.13-57.51h.35c23.34 0 42.26 18.91 42.26 42.25zM350.997 169.115v27.47a5 5 0 01-3.12 4.63l-84.32 34.41c-1.21.49-2.57.49-3.78 0l-84.32-34.41a5 5 0 01-3.12-4.63v-27.47c25.86-16.32 56.49-25.76 89.33-25.76s63.47 9.44 89.33 25.76z" fill="#c182f9"/><g fill="#ffa052"><path d="M421.1 363.03c-8.95 27.47-24.8 51.81-45.5 70.99-10.35-7.7-17.05-20.02-17.05-33.91 0-23.34 18.92-42.26 42.26-42.26 7.36 0 14.27 1.88 20.29 5.18zM428.77 297.17c-2.85.6-5.8.92-8.82.92-23.34 0-42.26-18.92-42.26-42.26 0-16.59 9.56-30.95 23.47-37.86a166.712 166.712 0 0127.61 79.2zM350.997 169.115v27.47a5 5 0 01-3.12 4.63l-64.26 26.22-7.48-7.47 8.08-8.08v-16.08l12.02-12.03h23.92l9.36 9.36v-18.59l-10.4-12.47h-9.36l-20.02-16.38a166.363 166.363 0 0161.26 23.42z"/></g><path d="M256.73 164.669l-11.963 12.478-5.716 15.987h-22.358l-32.231 23.005-6.761-10.497 23.395-27.451-7.798-.522-10.208 9.226-15.784 6.239-9.358 12.509 5.716 10.497-17.671 34.836-10.403-9.881v-11.433l-23.91 21.313-7.198 1.567c18.989-51.025 62.122-90.306 115.503-103.961l2.948 3.611 26.515 4.164z" fill="#ffbe92"/><path d="M249.447 156.355l7.28 8.31-11.96 12.48-5.72 15.99h-22.35l-22.21 15.85-14.57-5.95 21.18-24.84-7.8-.53-10.21 9.23-10.75 4.25v-22.03a166.653 166.653 0 0147.65-20.53l2.95 3.61zM289.842 300.144l-9.202 6.457-8.313 19.239-18.201 5.716-3.751-2.145 4.663-22.358-11.83-4.086 3.642-8.321 21.188 2.597z" fill="#ffa052"/><g><path d="M350.997 99.296v77.29a5 5 0 01-3.12 4.63l-84.32 34.41c-1.21.49-2.57.49-3.78 0l-84.32-34.41a5 5 0 01-3.12-4.63v-77.29z" fill="#b557ff"/><path d="M350.997 99.296v27.21l-81.77 33.36c-2.41.99-4.96 1.49-7.56 1.49s-5.15-.5-7.56-1.49l-81.77-33.36v-27.21z" fill="#9526dd"/><path d="M259.778 33.681L133.503 85.202c-4.148 1.692-4.148 7.566 0 9.259l126.275 51.521a5 5 0 003.778 0l126.275-51.521c4.148-1.692 4.148-7.566 0-9.259L263.556 33.681a5 5 0 00-3.778 0z" fill="#c182f9"/><path d="M335.228 303.536h-25.123a5 5 0 01-5-5v-29.029c0-9.699 7.863-17.562 17.562-17.562 9.699 0 17.562 7.863 17.562 17.562v29.029a5 5 0 01-5.001 5z" fill="#ffc136"/><circle cx="322.667" cy="240.998" fill="#ffe783" r="19.269"/></g><g><circle cx="104.481" cy="275.925" fill="#ffa052" r="42.256"/><path d="M121.094 270.119c0-9.161-7.453-16.613-16.613-16.613s-16.613 7.453-16.613 16.613c0 4.518 1.818 8.615 4.755 11.613-2.936 2.998-4.755 7.095-4.755 11.613a5 5 0 1010 0c0-3.646 2.967-6.613 6.613-6.613s6.613 2.967 6.613 6.613a5 5 0 1010 0c0-4.518-1.818-8.615-4.755-11.613 2.937-2.998 4.755-7.095 4.755-11.613zm-16.613-6.614c3.646 0 6.613 2.967 6.613 6.613s-2.967 6.613-6.613 6.613-6.613-2.967-6.613-6.613 2.967-6.613 6.613-6.613z" fill="#fff"/></g><g><circle cx="400.805" cy="380.274" fill="#c182f9" r="42.256"/><path d="M417.418 374.468c0-9.161-7.453-16.613-16.613-16.613s-16.613 7.453-16.613 16.613c0 4.518 1.818 8.615 4.755 11.613-2.936 2.998-4.755 7.095-4.755 11.613a5 5 0 1010 0c0-3.646 2.967-6.613 6.613-6.613s6.613 2.967 6.613 6.613a5 5 0 1010 0c0-4.518-1.818-8.615-4.755-11.613 2.937-2.998 4.755-7.095 4.755-11.613zm-16.613-6.614c3.646 0 6.613 2.967 6.613 6.613s-2.967 6.613-6.613 6.613-6.613-2.967-6.613-6.613 2.967-6.613 6.613-6.613z" fill="#fff"/></g><g><circle cx="273.72" cy="373.664" fill="#fdd250" r="42.256"/><path d="M290.334 367.858c0-9.161-7.453-16.613-16.613-16.613s-16.613 7.453-16.613 16.613c0 4.518 1.818 8.615 4.755 11.613-2.936 2.998-4.755 7.095-4.755 11.613a5 5 0 1010 0c0-3.646 2.967-6.613 6.613-6.613s6.613 2.967 6.613 6.613a5 5 0 1010 0c0-4.518-1.818-8.615-4.755-11.613 2.936-2.998 4.755-7.095 4.755-11.613zm-16.614-6.614c3.646 0 6.613 2.967 6.613 6.613s-2.967 6.613-6.613 6.613-6.613-2.967-6.613-6.613 2.967-6.613 6.613-6.613z" fill="#fff"/></g><g><circle cx="419.947" cy="235.993" fill="#ffa052" r="42.256"/><g fill="#590bb2"><path d="M273.72 326.408c-26.057 0-47.256 21.199-47.256 47.256s21.199 47.256 47.256 47.256 47.256-21.199 47.256-47.256-21.199-47.256-47.256-47.256zm0 84.513c-20.543 0-37.256-16.713-37.256-37.256s16.713-37.256 37.256-37.256 37.256 16.713 37.256 37.256-16.712 37.256-37.256 37.256z"/><path d="M467.203 235.993c0-26.057-21.199-47.256-47.256-47.256-10.419 0-20.057 3.397-27.878 9.131-3.94-4.536-8.124-8.9-12.502-12.993a5 5 0 00-7.067.238 5 5 0 00.238 7.067 164.608 164.608 0 0111.93 12.418c-7.443 8.354-11.977 19.353-11.977 31.395 0 26.057 21.199 47.256 47.256 47.256.673 0 1.34-.023 2.006-.051a164.253 164.253 0 012.38 27.825c0 9.089-.766 18.169-2.256 27.074a46.944 46.944 0 00-21.272-5.079c-26.057 0-47.256 21.199-47.256 47.256 0 18.575 10.777 34.674 26.403 42.392-30.694 32.505-73.406 51.023-118.286 51.023-42.24 0-82.269-16.116-112.712-45.379-29.162-28.032-46.625-65.3-49.518-105.401 1.658.177 3.34.272 5.045.272 26.057 0 47.256-21.199 47.256-47.256 0-20.67-13.346-38.271-31.869-44.67 11.772-20.878 28.09-38.963 47.64-52.868a9.95 9.95 0 006.054 7.458l84.326 34.406c1.218.497 2.498.746 3.778.746s2.56-.249 3.777-.746l52.222-21.307v18.306c-10.991 2.311-19.269 12.08-19.269 23.748a24.16 24.16 0 005.749 15.66 22.427 22.427 0 00-4.042 12.85v29.029c0 5.514 4.486 10 10 10h25.124c5.514 0 10-4.486 10-10v-29.029a22.38 22.38 0 00-4.036-12.857 24.153 24.153 0 005.743-15.652c0-11.668-8.278-21.437-19.269-23.748v-22.386l22.104-9.019a9.961 9.961 0 006.222-9.259v-62.919l35.727-14.577a9.963 9.963 0 006.222-9.26 9.962 9.962 0 00-6.223-9.258L265.445 29.052a9.946 9.946 0 00-7.556 0L131.614 80.573a9.961 9.961 0 00-6.222 9.258 9.964 9.964 0 006.222 9.26l126.275 51.521c1.218.497 2.498.746 3.778.746s2.56-.249 3.777-.746l52.222-21.307v58.839l-56 22.848-84.326-34.406v-36.319a5 5 0 00-10 0v26.124a173.557 173.557 0 00-57.608 62.577 47.44 47.44 0 00-5.252-.299c-26.057 0-47.256 21.199-47.256 47.256 0 20.738 13.434 38.386 32.052 44.732 2.404 43.7 21.073 84.415 52.748 114.862 32.315 31.063 74.805 48.169 119.642 48.169 49.102 0 95.76-20.88 128.521-57.377a47.167 47.167 0 0010.618 1.218c26.057 0 47.256-21.199 47.256-47.256 0-14.511-6.58-27.509-16.906-36.185a173.972 173.972 0 003.178-33.067c0-9.83-.842-19.669-2.486-29.294 20.315-5.288 35.356-23.787 35.356-45.734zm-131.974 62.543h-5.895v-15a5 5 0 00-10 0v15h-9.229v-29.029c0-2.4.679-4.707 1.935-6.695a24.114 24.114 0 0010.626 2.455c3.807 0 7.412-.884 10.622-2.453a12.466 12.466 0 011.94 6.693v29.029zm1.707-57.538c0 7.868-6.401 14.269-14.269 14.269s-14.269-6.401-14.269-14.269 6.401-14.269 14.269-14.269 14.269 6.401 14.269 14.269zm-75.269-99.645L135.391 89.832l126.275-51.521 126.275 51.521-67.327 27.47-70.443-31.025a4.998 4.998 0 00-6.591 2.561 5 5 0 002.561 6.591l61.594 27.128zm66-16.128l18.326-7.477v58.839l-18.327 7.477v-58.839zm-260.442 150.7c0-20.543 16.713-37.256 37.256-37.256s37.256 16.713 37.256 37.256-16.713 37.256-37.256 37.256-37.256-16.712-37.256-37.256zm370.837 104.349c0 20.543-16.713 37.256-37.256 37.256s-37.256-16.713-37.256-37.256 16.713-37.256 37.256-37.256 37.256 16.713 37.256 37.256zm-18.115-107.025c-20.543 0-37.256-16.713-37.256-37.256s16.713-37.256 37.256-37.256 37.256 16.713 37.256 37.256-16.713 37.256-37.256 37.256z"/></g><path d="M436.56 230.186c0-9.161-7.453-16.613-16.613-16.613s-16.613 7.453-16.613 16.613c0 4.518 1.818 8.615 4.755 11.613-2.936 2.998-4.755 7.095-4.755 11.613a5 5 0 1010 0c0-3.646 2.967-6.613 6.613-6.613s6.613 2.967 6.613 6.613a5 5 0 1010 0c0-4.518-1.818-8.615-4.755-11.613 2.937-2.998 4.755-7.095 4.755-11.613zm-16.613-6.613c3.646 0 6.613 2.967 6.613 6.613s-2.967 6.613-6.613 6.613-6.613-2.967-6.613-6.613 2.966-6.613 6.613-6.613z" fill="#fff"/></g></svg>