<svg height="512" width="512" xmlns="http://www.w3.org/2000/svg"><linearGradient id="a" gradientUnits="userSpaceOnUse" x1="506.489" x2="-33.565" y1="111.273" y2="423.304"><stop offset=".001" stop-color="#ffe783"/><stop offset="1" stop-color="#fff" stop-opacity="0"/></linearGradient><path d="M361.231 275.692c-56.758 0-102.769-46.011-102.769-102.769v-65.231C258.462 48.215 210.246 0 150.769 0S43.077 48.215 43.077 107.692v86.154C43.077 369.558 185.519 512 361.23 512c59.477 0 107.692-48.215 107.692-107.692v-20.923c.001-59.477-48.214-107.693-107.691-107.693z" fill="url(#a)"/><path d="M432.36 127.77h-63.056V93.623c0-5.52-4.48-10-10-10h-290c-5.52 0-10 4.48-10 10v120c0 5.52 4.48 10 10 10H273.68v67.504H117.201a4.057 4.057 0 00-4.057 4.057v70.552a4.057 4.057 0 004.057 4.057h.289c-13.328.035-25.398 5.455-34.15 14.197-8.77 8.77-14.2 20.89-14.2 34.28 0 26.77 21.71 48.47 48.48 48.47h228.19c2.76 0 5-2.24 5-5v-25.67h81.55c9.11 0 16.5-7.39 16.5-16.49V144.26c0-9.1-7.39-16.49-16.5-16.49z" fill="#590bb2" opacity=".1"/><path d="M409.854 39.952h-3v-3c0-2.762-2.238-5-5-5s-5 2.238-5 5v3h-3c-2.762 0-5 2.238-5 5s2.238 5 5 5h3v3c0 2.762 2.238 5 5 5s5-2.238 5-5v-3h3c2.762 0 5-2.238 5-5s-2.238-5-5-5zM381.667 459.198h-3v-3c0-2.762-2.238-5-5-5s-5 2.238-5 5v3h-3c-2.762 0-5 2.238-5 5s2.238 5 5 5h3v3c0 2.762 2.238 5 5 5s5-2.238 5-5v-3h3c2.762 0 5-2.238 5-5s-2.238-5-5-5z" fill="#fdd250"/><path d="M72.304 261.738a4.98 4.98 0 01-3.535-1.465l-4.465-4.464-4.465 4.464a4.998 4.998 0 01-7.07 0 4.998 4.998 0 010-7.07l8-8a4.998 4.998 0 017.07 0l8 8a4.998 4.998 0 01-3.535 8.535z" fill="#ffa052"/><path d="M88.304 297.917a4.98 4.98 0 01-3.535-1.465l-4.465-4.464-4.465 4.464a4.998 4.998 0 01-7.07 0 4.998 4.998 0 010-7.07l8-8a4.998 4.998 0 017.07 0l8 8a4.998 4.998 0 01-3.535 8.535zM436.333 77.344a4.98 4.98 0 01-3.535-1.465l-4.465-4.464-4.465 4.464a4.998 4.998 0 01-7.07 0 4.998 4.998 0 010-7.07l8-8a4.998 4.998 0 017.07 0l8 8a4.998 4.998 0 01-3.535 8.535zM448.86 117.26v275.32c0 9.1-7.39 16.49-16.5 16.49H290.18c-9.11 0-16.5-7.39-16.5-16.49V117.26c0-9.1 7.39-16.49 16.5-16.49h142.18c9.11 0 16.5 7.39 16.5 16.49z" fill="#c182f9"/><path d="M390.43 397.62l-11.45 11.45h-9.59l-30.32-30.32-14.04 14.04c-2.68 2.68-7.25 1.53-8.33-2.1l-20.34-68.21c-1.14-3.81 2.41-7.36 6.22-6.22l68.21 20.34c3.63 1.08 4.78 5.65 2.1 8.33l-14.04 14.04 31.58 31.58a5.003 5.003 0 010 7.07z" fill="#b557ff"/><path d="M273.68 133.76h175.18v242.32H273.68z" fill="#efebff"/><path d="M273.68 133.76h175.18V251H273.68z" fill="#fff"/><path d="M369.3 133.76v73.99c0 5.52-4.48 10-10 10h-38.29l-8.42 24.74c-2.66 7.82-13.72 7.82-16.38 0l-8.41-24.74h-14.12v-83.99z" fill="#efebff"/><g fill="#9526dd"><circle cx="385.539" cy="119.478" r="4.815"/><circle cx="401.855" cy="119.478" r="4.815"/></g><g><path d="M350.81 347.79v86.95c0 2.76-2.24 5-5 5H117.62c-26.77 0-48.48-21.7-48.48-48.47 0-13.39 5.43-25.51 14.2-34.28 8.78-8.77 20.9-14.2 34.28-14.2h228.19c2.76 0 5 2.24 5 5z" fill="#ffa052"/><path d="M350.81 347.79v42.7l-11.74-11.74-14.04 14.04c-2.68 2.68-7.25 1.53-8.33-2.1l-14.28-47.9h43.39c2.76 0 5 2.24 5 5z" fill="#ff8736"/><path d="M350.81 365.87v50.79H119.48c-14.03 0-25.4-11.37-25.4-25.39a25.3 25.3 0 017.44-17.96c4.6-4.6 10.94-7.44 17.96-7.44z" fill="#fff"/><path d="M350.81 365.87v24.62l-11.74-11.74-14.04 14.04c-2.68 2.68-7.25 1.53-8.33-2.1l-7.4-24.82z" fill="#ffeadc"/></g><g><path d="M117.201 342.793h185.168c21.723 0 39.333-17.61 39.333-39.333s-17.61-39.333-39.333-39.333H117.201a4.057 4.057 0 00-4.057 4.057v70.552a4.056 4.056 0 004.057 4.057z" fill="#fdd250"/><path d="M113.143 324.067h187.714c11.381 0 20.607-9.226 20.607-20.607 0-11.381-9.226-20.607-20.607-20.607H113.143z" fill="#fff"/></g><g><path d="M370.787 315.473l-68.208-20.341c-3.809-1.136-7.356 2.412-6.22 6.22L316.7 369.56c1.082 3.629 5.649 4.784 8.327 2.107l14.043-14.043 31.581 31.581a5 5 0 007.071 0l12.711-12.711a5 5 0 000-7.071l-31.581-31.581 14.043-14.043c2.677-2.677 1.521-7.244-2.108-8.326z" fill="#c182f9"/></g><g><path d="M369.304 66.623v120c0 5.52-4.48 10-10 10h-38.29l-8.42 24.74c-2.66 7.82-13.72 7.82-16.38 0l-8.41-24.74h-218.5c-5.52 0-10-4.48-10-10v-120c0-5.52 4.48-10 10-10h290c5.52 0 10 4.48 10 10z" fill="#ffe783"/><path d="M174.554 81.143c0 23.34-18.92 42.26-42.25 42.26-23.34 0-42.26-18.92-42.26-42.26 0-9.14 2.91-17.61 7.85-24.52h68.81a42.03 42.03 0 017.85 24.52z" fill="#fdd250"/><g fill="#ffc136"><path d="M185.304 162.408H95.259c-2.611 0-4.943 1.909-5.191 4.508a5.001 5.001 0 004.976 5.492h90.26a5 5 0 000-10zM333.349 162.408H210.804a5 5 0 000 10h122.76a5 5 0 004.976-5.492c-.248-2.599-2.58-4.508-5.191-4.508z"/></g><path d="M95.044 142.905h238.52a5 5 0 110 10H95.044a5 5 0 110-10zM282.127 123.403h51.436a5 5 0 110 10h-51.436a5 5 0 110-10zM95.044 123.403h163.26a5 5 0 110 10H95.044a5 5 0 110-10z" fill="#ff8736"/><g fill="#c182f9"><circle cx="315.575" cy="100.871" r="5"/><circle cx="331.825" cy="100.871" r="5"/></g><g><circle cx="132.3" cy="63.615" fill="#ffa052" r="42.256"/><path d="M448.856 301.366a5 5 0 005-5V117.264c0-11.851-9.641-21.491-21.491-21.491h-58.062V66.621c0-8.271-6.729-15-15-15H178.01c-5.322-20.267-23.796-35.262-45.71-35.262-21.913 0-40.387 14.995-45.709 35.262H69.304c-8.271 0-15 6.729-15 15v120c0 8.271 6.729 15 15 15h123.729c2.762 0 5-2.238 5-5s-2.238-5-5-5H69.304c-2.757 0-5-2.243-5-5v-120c0-2.757 2.243-5 5-5h15.791a47.084 47.084 0 00-.051 1.994c0 26.057 21.199 47.256 47.256 47.256 26.058 0 47.257-21.199 47.257-47.256 0-.669-.023-1.332-.051-1.994h179.798c2.757 0 5 2.243 5 5v120c0 2.757-2.243 5-5 5h-38.292a4.997 4.997 0 00-4.733 3.391l-8.413 24.741c-.782 2.297-2.845 2.476-3.458 2.476h-.001c-.613 0-2.676-.178-3.457-2.476l-8.413-24.741a5 5 0 00-4.733-3.391h-64.169c-2.762 0-5 2.238-5 5s2.238 5 5 5h45.05v57.506H117.2c-4.994 0-9.057 4.063-9.057 9.057v70.467c-24.98 4.487-44 26.365-44 52.616 0 29.485 23.987 53.473 53.473 53.473H345.81c5.514 0 10-4.486 10-10v-20.671h76.556c11.851 0 21.491-9.642 21.491-21.492v-65.609c0-2.762-2.238-5-5-5s-5 2.238-5 5v65.609c0 6.337-5.155 11.492-11.491 11.492H355.81v-22.633l11.305 11.304a9.93 9.93 0 007.071 2.931 9.932 9.932 0 007.071-2.929l12.712-12.712c3.897-3.899 3.897-10.243-.001-14.141l-28.046-28.046 10.507-10.508a9.914 9.914 0 002.624-9.523 9.918 9.918 0 00-6.837-7.13l-25.524-7.612c-.211-24.266-20.009-43.943-44.324-43.943h-23.685v-57.506h5.538l7.26 21.351c1.912 5.623 6.985 9.257 12.925 9.257h.001c5.939 0 11.013-3.633 12.925-9.257l7.261-21.351h34.711c8.271 0 15-6.729 15-15v-80.849h58.062c6.336 0 11.491 5.155 11.491 11.491v179.103a4.998 4.998 0 004.999 5zM132.3 100.871c-20.543 0-37.256-16.713-37.256-37.256s16.713-37.256 37.256-37.256c20.544 0 37.257 16.713 37.257 37.256s-16.713 37.256-37.257 37.256zm213.516 333.868h-228.2c-23.971 0-43.473-19.502-43.473-43.473 0-23.972 19.502-43.474 43.473-43.474H304.99l6.917 23.196a9.92 9.92 0 007.131 6.837 9.903 9.903 0 009.523-2.624l10.508-10.507 6.742 6.742zm23.542-114.474l-14.043 14.043a4.999 4.999 0 000 7.07l31.582 31.581-12.712 12.711-31.581-31.581c-.976-.977-2.256-1.465-3.535-1.465s-2.56.488-3.535 1.465l-14.044 14.043-20.34-68.209zm-32.841-20.229l-32.509-9.695a9.996 9.996 0 00-9.929 2.512 9.989 9.989 0 00-2.512 9.929l10.441 35.012H118.144v-68.666h184.225c17.774-.001 32.422 13.58 34.148 30.908z" fill="#590bb2"/><path d="M148.914 57.809c0-9.161-7.453-16.613-16.613-16.613s-16.613 7.453-16.613 16.613c0 4.518 1.818 8.615 4.755 11.613-2.936 2.998-4.755 7.095-4.755 11.613a5 5 0 1010 0c0-3.646 2.967-6.613 6.613-6.613s6.613 2.967 6.613 6.613a5 5 0 1010 0c0-4.518-1.818-8.615-4.755-11.613 2.936-2.998 4.755-7.096 4.755-11.613zM132.3 51.195c3.646 0 6.613 2.967 6.613 6.613s-2.967 6.613-6.613 6.613-6.613-2.967-6.613-6.613 2.967-6.613 6.613-6.613z" fill="#fff"/></g></g><circle cx="401.855" cy="252.738" fill="#ffa052" r="21.389"/></svg>