<svg height="512" width="512" xmlns="http://www.w3.org/2000/svg"><linearGradient id="a" gradientUnits="userSpaceOnUse" x1="437.085" x2="-4" y1="74.915" y2="516"><stop offset="0" stop-color="#ffd5b8"/><stop offset="1" stop-color="#fff" stop-opacity="0"/></linearGradient><path d="M411.152 155.152c-29.991 0-54.303-24.312-54.303-54.303C356.849 45.151 311.697 0 256 0S155.152 45.151 155.152 100.848c0 29.991-24.312 54.303-54.303 54.303C45.151 155.152 0 200.303 0 256s45.151 100.848 100.848 100.848c29.991 0 54.303 24.312 54.303 54.303C155.152 466.849 200.303 512 256 512s100.848-45.151 100.848-100.848c0-29.991 24.312-54.303 54.303-54.303C466.849 356.848 512 311.697 512 256s-45.151-100.848-100.848-100.848z" fill="url(#a)"/><path d="M454.062 430.452l-81.755-81.755V72.605c0-5.19-4.21-9.4-9.4-9.4h-255.9c-5.19 0-9.4 4.21-9.4 9.4v273.556h-.001c-23.338 0-42.256 18.919-42.256 42.256s18.919 42.256 42.256 42.256h.001v47.732c0 5.19 4.21 9.4 9.4 9.4h255.9c5.19 0 9.4-4.21 9.4-9.4v-69.712l51.757 51.757a8.837 8.837 0 0012.499 0l17.499-17.499a8.839 8.839 0 000-12.499z" fill="#590bb2" opacity=".1"/><path d="M372.307 45.605v405.8c0 5.19-4.21 9.4-9.4 9.4h-255.9c-5.19 0-9.4-4.21-9.4-9.4v-405.8c0-5.19 4.21-9.4 9.4-9.4h255.9c5.19 0 9.4 4.21 9.4 9.4z" fill="#fff"/><g fill="#efebff"><path d="M372.307 346.625v59.99l-31.15-31.15c-3.32-3.31-3.44-8.59-.4-12.06l-40.16-40.16c-41.95 32.87-102.98 30.01-141.6-8.61-41.72-41.72-41.72-109.6 0-151.32s109.6-41.72 151.32 0c38.62 38.62 41.49 99.65 8.61 141.6l40.16 40.16c3.47-3.04 8.75-2.92 12.06.39zM139.866 380.345c0 23.34-18.92 42.26-42.26 42.26v-84.52c23.341 0 42.26 18.92 42.26 42.26z"/></g><path d="M372.307 45.605v303.9h-274.7v-303.9c0-5.19 4.21-9.4 9.4-9.4h255.9c5.19 0 9.4 4.21 9.4 9.4z" fill="#ffd5b8"/><path d="M372.307 346.625v2.88h-45.45l-26.26-26.26c-41.95 32.87-102.98 30.01-141.6-8.61-41.72-41.72-41.72-109.6 0-151.32s109.6-41.72 151.32 0c38.62 38.62 41.49 99.65 8.61 141.6l40.16 40.16c3.47-3.04 8.75-2.92 12.06.39z" fill="#ffbe92"/><path d="M372.307 85.037V45.614a9.41 9.41 0 00-9.41-9.41H107.016a9.41 9.41 0 00-9.41 9.41v39.423z" fill="#ffa052"/><path d="M179.475 85.037l36.833-48.833H107.011a9.405 9.405 0 00-9.405 9.405v39.427h81.869z" fill="#c182f9"/><path d="M341.612 67.069H228.357a4.704 4.704 0 010-9.406h113.255a4.704 4.704 0 010 9.406z" fill="#ffd5b8"/><path d="M292.551 290.335l18.326-18.325 55.612 55.613-18.325 18.325z" fill="#cca1ff"/><path d="M292.613 290.33l18.661 18.661c3.338-2.687 6.555-5.579 9.652-8.676s5.989-6.314 8.676-9.652l-18.661-18.661z" fill="#c182f9"/><path d="M310.321 289.71c-41.719 41.719-109.601 41.719-151.321 0s-41.719-109.602 0-151.321 109.602-41.719 151.321 0 41.719 109.601 0 151.321z" fill="#cca1ff"/><circle cx="234.66" cy="214.049" fill="#ffd5b8" transform="rotate(-45 234.639 214.108)" r="80.485"/><path d="M284.457 150.815l-113.03 113.03a79.35 79.35 0 01-10.78-18.2l105.61-105.61a79.35 79.35 0 0118.2 10.78zM314.406 203.375l-90.42 90.42c-16.25-2.15-31.97-9.26-44.68-21.32l113.78-113.78c12.06 12.71 19.171 28.43 21.32 44.68z" fill="#ffeadc"/><path d="M454.062 415.951l-17.499 17.499a8.837 8.837 0 01-12.499 0l-82.911-82.911a8.837 8.837 0 010-12.499l17.499-17.499a8.837 8.837 0 0112.499 0l82.911 82.911a8.839 8.839 0 010 12.499z" fill="#ffbe92"/><path d="M410.239 419.626l13.824 13.824a8.837 8.837 0 0012.499 0l17.499-17.499a8.837 8.837 0 000-12.499l-13.824-13.824z" fill="#c182f9"/><path d="M353.242 362.705l29.994-29.994 19.796 19.796-29.994 29.994z" fill="#ffa052"/><g fill="#ff8736"><path d="M228.491 243.315a5 5 0 01-5-5v-6.016c0-3.881 1.018-7.713 2.943-11.084 2.948-5.159 7.917-8.984 13.633-10.496 8.729-2.307 14.826-10.234 14.826-19.277 0-5.43-2.145-10.506-6.037-14.293-3.891-3.785-9.026-5.783-14.468-5.636-10.445.289-19.132 9.024-19.364 19.473-.049 2.182.251 4.33.89 6.385a5 5 0 11-9.549 2.969 29.95 29.95 0 01-1.339-9.576c.355-15.959 13.131-28.806 29.085-29.248 8.175-.22 15.874 2.78 21.718 8.464 5.845 5.686 9.064 13.308 9.064 21.461 0 13.577-9.158 25.48-22.271 28.945-3.143.831-5.878 2.941-7.505 5.789a12.361 12.361 0 00-1.627 6.123v6.016a4.999 4.999 0 01-4.999 5.001zM228.491 262.509a5 5 0 01-5-5v-.106a5 5 0 1110 0v.106a5 5 0 01-5 5z"/></g><g><path d="M312.216 417.54h-154.52a5 5 0 100 10h154.52a5 5 0 100-10zM194.133 398.037h-36.436a5 5 0 100 10h36.436a5 5 0 100-10zM218.171 398.037h75.668a5 5 0 010 10h-75.883a5 5 0 01-4.976-5.492c.248-2.599 2.58-4.508 5.191-4.508z" fill="#cca1ff"/><g fill="#cca1ff"><circle cx="175.685" cy="378.506" r="5"/><circle cx="159.435" cy="378.506" r="5"/></g></g><g><circle cx="97.606" cy="361.417" fill="#ffa052" r="42.256"/><g fill="#590bb2"><path d="M97.605 276.7a5 5 0 005-5V45.609a4.41 4.41 0 014.406-4.405h186.688a5 5 0 100-10H107.012c-7.943 0-14.406 6.462-14.406 14.405V271.7a4.999 4.999 0 004.999 5z"/><path d="M457.597 399.917l-80.29-80.29V45.609c0-7.943-6.462-14.405-14.404-14.405h-38.602a5 5 0 100 10h38.602a4.409 4.409 0 014.404 4.405v267.562a13.926 13.926 0 00-2.406-.219c-1.738 0-3.422.329-4.995.938l-34.37-34.37c31.556-43.748 27.667-105.321-11.678-144.667-43.67-43.669-114.726-43.669-158.392 0-21.122 21.122-32.755 49.248-32.755 79.196s11.633 58.075 32.755 79.196c21.834 21.834 50.515 32.751 79.196 32.751 23.002 0 46-7.029 65.47-21.073l34.37 34.37a13.811 13.811 0 00-.938 4.996c0 3.697 1.439 7.172 4.054 9.786l29.689 29.69V451.4a4.41 4.41 0 01-4.404 4.405H107.012a4.41 4.41 0 01-4.406-4.405v-42.994c23.715-2.505 42.257-22.621 42.257-46.99s-18.542-44.484-42.257-46.99V302.3a5 5 0 10-10 0v12.127c-23.715 2.506-42.256 22.622-42.256 46.989s18.541 44.483 42.256 46.989V451.4c0 7.943 6.463 14.405 14.406 14.405h255.891c7.942 0 14.404-6.462 14.404-14.405v-57.636l43.221 43.221a13.749 13.749 0 009.786 4.054c3.696 0 7.171-1.439 9.784-4.053l17.499-17.499c5.395-5.395 5.395-14.174 0-19.57zm-397.247-38.5c0-20.543 16.713-37.256 37.257-37.256 20.543 0 37.256 16.713 37.256 37.256s-16.713 37.256-37.256 37.256c-20.544 0-37.257-16.713-37.257-37.256zm102.185-75.243c-19.232-19.233-29.825-44.847-29.825-72.125s10.593-52.892 29.825-72.125c19.885-19.885 46.005-29.827 72.125-29.827s52.24 9.943 72.126 29.828c39.769 39.77 39.769 104.48 0 144.25-39.77 39.767-104.478 39.768-144.251-.001zm151.321 7.071a112.899 112.899 0 005.428-5.833l32.712 32.713-11.261 11.261-32.712-32.712c1.992-1.73 3.94-3.536 5.833-5.429zm136.67 119.171l-17.5 17.5c-1.45 1.45-3.979 1.448-5.428 0l-82.911-82.911c-.725-.725-1.124-1.689-1.124-2.714s.399-1.989 1.124-2.714l17.5-17.499c.725-.725 1.688-1.124 2.713-1.124s1.989.399 2.715 1.125l82.91 82.911a3.84 3.84 0 01.001 5.426z"/></g><path d="M114.219 355.61c0-9.161-7.453-16.613-16.613-16.613s-16.613 7.453-16.613 16.613c0 4.518 1.818 8.615 4.755 11.613-2.936 2.998-4.755 7.095-4.755 11.613a5 5 0 1010 0c0-3.646 2.967-6.613 6.613-6.613s6.613 2.967 6.613 6.613a5 5 0 1010 0c0-4.518-1.818-8.615-4.755-11.613 2.937-2.997 4.755-7.095 4.755-11.613zm-16.613-6.613c3.646 0 6.613 2.967 6.613 6.613s-2.967 6.613-6.613 6.613-6.613-2.967-6.613-6.613 2.966-6.613 6.613-6.613z" fill="#fff"/></g><path d="M438.333 154.913h-3v-3a5 5 0 10-10 0v3h-3a5 5 0 100 10h3v3a5 5 0 1010 0v-3h3a5 5 0 100-10z" fill="#c182f9"/><path d="M68.333 251.505h-3v-3a5 5 0 10-10 0v3h-3a5 5 0 100 10h3v3a5 5 0 1010 0v-3h3a5 5 0 100-10z" fill="#fdd250"/><path d="M419.114 210.855a4.983 4.983 0 01-3.535-1.464l-4.465-4.464-4.465 4.464a5 5 0 01-7.07-7.071l8-8a5 5 0 017.07 0l8 8a5 5 0 01-3.535 8.535z" fill="#ffa052"/><path d="M60.333 303.497a4.983 4.983 0 01-3.535-1.464l-4.465-4.464-4.465 4.464a5 5 0 01-7.07-7.071l8-8a5 5 0 017.07 0l8 8a5 5 0 01-3.535 8.535z" fill="#c182f9"/><path d="M460.333 370.417a4.983 4.983 0 01-3.535-1.464l-4.465-4.464-4.465 4.464a5 5 0 01-7.07-7.071l8-8a5 5 0 017.07 0l8 8a5 5 0 01-3.535 8.535z" fill="#fdd250"/></svg>