<svg width="569" height="367" fill="none" xmlns="http://www.w3.org/2000/svg"><g filter="url(#filter0_d)"><path fill="#fff" d="M129.188 33h272.625v119.216H129.188z"/><rect x="138.429" y="114.325" width="255.066" height="30.497" rx="5" fill="url(#paint0_linear)" fill-opacity=".5"/><path fill="#F7FAFC" d="M138.429 40.393h255.066v68.387H138.429z"/><rect x="180.94" y="48.711" width="203.313" height="13.862" rx="6.931" fill="url(#paint1_linear)"/><rect x="180.94" y="71.814" width="203.313" height="9.242" rx="4.621" fill="url(#paint2_linear)"/><rect x="180.94" y="86.601" width="156.182" height="9.242" rx="4.621" fill="url(#paint3_linear)"/><rect x="233.617" y="121.719" width="63.767" height="16.635" rx="8.317" fill="url(#paint4_linear)"/><rect x="147.671" y="69.042" width="22.18" height="22.18" rx="11.09" fill="url(#paint5_linear)"/></g><g filter="url(#filter1_d)"><path fill="#fff" d="M34 108.78h463v184.83H34z"/><rect x="46.014" y="124.491" width="183.906" height="13.862" rx="6.931" fill="url(#paint6_linear)"/><rect x="46.014" y="226.148" width="439.896" height="16.635" rx="8.317" fill="url(#paint7_linear)"/><rect x="46.014" y="147.595" width="439.896" height="9.242" rx="4.621" fill="url(#paint8_linear)"/><rect x="46.014" y="162.381" width="269.357" height="9.242" rx="4.621" fill="url(#paint9_linear)"/><rect x="46.014" y="214.134" width="59.146" height="6.469" rx="3.235" fill="url(#paint10_linear)"/><rect x="46.014" y="262.19" width="439.896" height="16.635" rx="8.317" fill="url(#paint11_linear)"/><rect x="46.014" y="250.176" width="59.146" height="6.469" rx="3.235" fill="url(#paint12_linear)"/><rect x="62.649" y="190.106" width="36.966" height="4.621" rx="2.31" fill="url(#paint13_linear)"/><rect x="46.514" y="182.288" width="68.311" height="19.331" rx="4.5" stroke="#CAD2DE"/><rect x="143.05" y="189.182" width="36.966" height="5.545" rx="2.772" fill="url(#paint14_linear)"/><rect x="126.915" y="182.288" width="68.311" height="19.331" rx="4.5" stroke="#CAD2DE"/><rect x="223.451" y="189.182" width="36.966" height="5.545" rx="2.772" fill="url(#paint15_linear)"/><rect x="207.316" y="182.288" width="68.311" height="19.331" rx="4.5" stroke="#CAD2DE"/><rect x="303.853" y="189.182" width="36.966" height="5.545" rx="2.772" fill="url(#paint16_linear)"/><rect x="287.718" y="182.288" width="68.311" height="19.331" rx="4.5" stroke="#CAD2DE"/></g><defs><filter id="filter0_d" x="95.188" y="0" width="378.625" height="225.216" filterUnits="userSpaceOnUse" color-interpolation-filters="sRGB"><feFlood flood-opacity="0" result="BackgroundImageFix"/><feColorMatrix in="SourceAlpha" values="0 0 0 0 0 0 0 0 0 0 0 0 0 0 0 0 0 0 127 0"/><feOffset dx="19" dy="20"/><feGaussianBlur stdDeviation="26.5"/><feColorMatrix values="0 0 0 0 0 0 0 0 0 0 0 0 0 0 0 0 0 0 0.25 0"/><feBlend in2="BackgroundImageFix" result="effect1_dropShadow"/><feBlend in="SourceGraphic" in2="effect1_dropShadow" result="shape"/></filter><filter id="filter1_d" x="0" y="75.78" width="569" height="290.83" filterUnits="userSpaceOnUse" color-interpolation-filters="sRGB"><feFlood flood-opacity="0" result="BackgroundImageFix"/><feColorMatrix in="SourceAlpha" values="0 0 0 0 0 0 0 0 0 0 0 0 0 0 0 0 0 0 127 0"/><feOffset dx="19" dy="20"/><feGaussianBlur stdDeviation="26.5"/><feColorMatrix values="0 0 0 0 0 0 0 0 0 0 0 0 0 0 0 0 0 0 0.25 0"/><feBlend in2="BackgroundImageFix" result="effect1_dropShadow"/><feBlend in="SourceGraphic" in2="effect1_dropShadow" result="shape"/></filter><linearGradient id="paint0_linear" x1="134.603" y1="132.265" x2="393.437" y2="126.826" gradientUnits="userSpaceOnUse"><stop stop-color="#04144C"/><stop offset=".536" stop-color="#253672"/><stop offset="1" stop-color="#04144C"/></linearGradient><linearGradient id="paint1_linear" x1="177.89" y1="56.865" x2="384.019" y2="49.27" gradientUnits="userSpaceOnUse"><stop stop-color="#E2E8F0"/><stop offset=".536" stop-color="#CBD5E0"/><stop offset="1" stop-color="#E2E8F0"/></linearGradient><linearGradient id="paint2_linear" x1="177.89" y1="77.251" x2="383.67" y2="65.877" gradientUnits="userSpaceOnUse"><stop stop-color="#E2E8F0"/><stop offset=".536" stop-color="#CBD5E0"/><stop offset="1" stop-color="#E2E8F0"/></linearGradient><linearGradient id="paint3_linear" x1="178.597" y1="92.037" x2="336.871" y2="85.317" gradientUnits="userSpaceOnUse"><stop stop-color="#E2E8F0"/><stop offset=".536" stop-color="#CBD5E0"/><stop offset="1" stop-color="#E2E8F0"/></linearGradient><linearGradient id="paint4_linear" x1="232.66" y1="131.504" x2="297.391" y2="130.88" gradientUnits="userSpaceOnUse"><stop stop-color="#E2E8F0"/><stop offset=".536" stop-color="#CBD5E0"/><stop offset="1" stop-color="#E2E8F0"/></linearGradient><linearGradient id="paint5_linear" x1="147.338" y1="82.089" x2="169.855" y2="82.032" gradientUnits="userSpaceOnUse"><stop stop-color="#E2E8F0"/><stop offset=".536" stop-color="#CBD5E0"/><stop offset="1" stop-color="#E2E8F0"/></linearGradient><linearGradient id="paint6_linear" x1="43.256" y1="132.645" x2="229.754" y2="126.429" gradientUnits="userSpaceOnUse"><stop stop-color="#E2E8F0"/><stop offset=".536" stop-color="#CBD5E0"/><stop offset="1" stop-color="#E2E8F0"/></linearGradient><linearGradient id="paint7_linear" x1="39.416" y1="235.933" x2="484.045" y2="206.393" gradientUnits="userSpaceOnUse"><stop stop-color="#E2E8F0"/><stop offset=".536" stop-color="#CBD5E0"/><stop offset="1" stop-color="#E2E8F0"/></linearGradient><linearGradient id="paint8_linear" x1="39.416" y1="153.031" x2="479.711" y2="100.378" gradientUnits="userSpaceOnUse"><stop stop-color="#E2E8F0"/><stop offset=".536" stop-color="#CBD5E0"/><stop offset="1" stop-color="#E2E8F0"/></linearGradient><linearGradient id="paint9_linear" x1="41.974" y1="167.817" x2="313.972" y2="147.9" gradientUnits="userSpaceOnUse"><stop stop-color="#E2E8F0"/><stop offset=".536" stop-color="#CBD5E0"/><stop offset="1" stop-color="#E2E8F0"/></linearGradient><linearGradient id="paint10_linear" x1="45.127" y1="217.939" x2="105.141" y2="216.561" gradientUnits="userSpaceOnUse"><stop stop-color="#E2E8F0"/><stop offset=".536" stop-color="#CBD5E0"/><stop offset="1" stop-color="#E2E8F0"/></linearGradient><linearGradient id="paint11_linear" x1="39.416" y1="271.975" x2="484.045" y2="242.435" gradientUnits="userSpaceOnUse"><stop stop-color="#E2E8F0"/><stop offset=".536" stop-color="#CBD5E0"/><stop offset="1" stop-color="#E2E8F0"/></linearGradient><linearGradient id="paint12_linear" x1="45.127" y1="253.981" x2="105.141" y2="252.602" gradientUnits="userSpaceOnUse"><stop stop-color="#E2E8F0"/><stop offset=".536" stop-color="#CBD5E0"/><stop offset="1" stop-color="#E2E8F0"/></linearGradient><linearGradient id="paint13_linear" x1="62.094" y1="192.824" x2="99.608" y2="192.07" gradientUnits="userSpaceOnUse"><stop stop-color="#E2E8F0"/><stop offset=".536" stop-color="#CBD5E0"/><stop offset="1" stop-color="#E2E8F0"/></linearGradient><linearGradient id="paint14_linear" x1="142.495" y1="192.443" x2="180.014" y2="191.815" gradientUnits="userSpaceOnUse"><stop stop-color="#E2E8F0"/><stop offset=".536" stop-color="#CBD5E0"/><stop offset="1" stop-color="#E2E8F0"/></linearGradient><linearGradient id="paint15_linear" x1="222.897" y1="192.443" x2="260.415" y2="191.815" gradientUnits="userSpaceOnUse"><stop stop-color="#E2E8F0"/><stop offset=".536" stop-color="#CBD5E0"/><stop offset="1" stop-color="#E2E8F0"/></linearGradient><linearGradient id="paint16_linear" x1="303.298" y1="192.443" x2="340.816" y2="191.815" gradientUnits="userSpaceOnUse"><stop stop-color="#E2E8F0"/><stop offset=".536" stop-color="#CBD5E0"/><stop offset="1" stop-color="#E2E8F0"/></linearGradient></defs></svg>