<svg width="383" height="395" fill="none" xmlns="http://www.w3.org/2000/svg"><g clip-path="url(#clip0)"><path opacity=".1" d="M365.337 343.44c-3.586 1.845-7.345 3.439-11.053 5.027-13.697 5.772-27.602 11.593-42.317 13.574-27.618 3.715-56.142-6.345-83.29-.086-22.746 5.239-41.557 21.291-63.779 28.44-10.333 3.323-21.083 4.625-31.93 4.625h-1.421c-1.343-.017-2.676-.05-4-.1-10.997-.413-22.04-2.037-32.82-4.113-34.041-6.535-68.686-18.515-94.712-40.57 75.779-13.835 231.876-35.045 365.322-6.797z" fill="#252223"/><path d="M264.661 344.988s-12.428-42.108 2.333-73.086c6.196-13.006 8.252-27.61 5.39-41.727a111.67 111.67 0 0 0-5.919-19.607" stroke="#535461" stroke-width="2" stroke-miterlimit="10"/><path d="M275.629 190.992c0 5.163-9.365 20.109-9.365 20.109s-9.365-14.966-9.365-20.109a9.326 9.326 0 0 1 2.664-6.748 9.358 9.358 0 0 1 6.698-2.814 9.387 9.387 0 0 1 6.699 2.814 9.335 9.335 0 0 1 2.664 6.748h.005zM291.126 219.577c-2.812 4.334-18.822 11.815-18.822 11.815s.292-17.641 3.103-21.975a9.38 9.38 0 0 1 12.821-2.57 9.333 9.333 0 0 1 2.898 12.725v.005zM290.445 268.428c-4.619 2.322-22.221.719-22.221.719s9.173-15.082 13.793-17.405a9.379 9.379 0 0 1 12.745 4.05 9.322 9.322 0 0 1 .504 7.222 9.355 9.355 0 0 1-4.816 5.414h-.005zM281.594 305.273c-4.156 3.066-21.783 4.454-21.783 4.454s6.488-16.409 10.644-19.481a9.388 9.388 0 0 1 10.439-.551 9.35 9.35 0 0 1 4.283 5.779 9.35 9.35 0 0 1 .165 3.661 9.347 9.347 0 0 1-3.748 6.138zM252.641 232.392c3.708 3.594 20.973 7.335 20.973 7.335s-4.232-17.128-7.94-20.728a9.372 9.372 0 0 0-6.61-2.485 9.374 9.374 0 0 0-6.471 2.83 9.336 9.336 0 0 0 .033 13.058l.015-.01zM242.838 275.612c4.62 2.322 22.222.719 22.222.719s-9.174-15.082-13.794-17.405a9.386 9.386 0 0 0-10.459 1.147 9.352 9.352 0 0 0-3.267 6.463 9.332 9.332 0 0 0 2.339 6.853 9.37 9.37 0 0 0 2.954 2.223h.005zM239.085 318.927c4.156 3.067 21.783 4.454 21.783 4.454s-6.489-16.409-10.645-19.481a9.392 9.392 0 0 0-6.978-1.779 9.371 9.371 0 0 0-6.18 3.69 9.316 9.316 0 0 0-1.563 3.317 9.312 9.312 0 0 0 1.094 7.104 9.357 9.357 0 0 0 2.489 2.695z" fill="#CBD5E0"/><path opacity=".25" d="M275.629 190.992c0 5.163-9.365 20.109-9.365 20.109s-9.365-14.966-9.365-20.109a9.326 9.326 0 0 1 2.664-6.748 9.358 9.358 0 0 1 6.698-2.814 9.387 9.387 0 0 1 6.699 2.814 9.335 9.335 0 0 1 2.664 6.748h.005zM291.126 219.577c-2.812 4.334-18.822 11.815-18.822 11.815s.292-17.641 3.103-21.975a9.38 9.38 0 0 1 12.821-2.57 9.333 9.333 0 0 1 2.898 12.725v.005zM290.445 268.428c-4.619 2.322-22.221.719-22.221.719s9.173-15.082 13.793-17.405a9.379 9.379 0 0 1 12.745 4.05 9.322 9.322 0 0 1 .504 7.222 9.355 9.355 0 0 1-4.816 5.414h-.005zM281.594 305.273c-4.156 3.066-21.783 4.454-21.783 4.454s6.488-16.409 10.644-19.481a9.388 9.388 0 0 1 10.439-.551 9.35 9.35 0 0 1 4.283 5.779 9.35 9.35 0 0 1 .165 3.661 9.347 9.347 0 0 1-3.748 6.138zM252.641 232.392c3.708 3.594 20.973 7.335 20.973 7.335s-4.232-17.128-7.94-20.728a9.372 9.372 0 0 0-6.61-2.485 9.374 9.374 0 0 0-6.471 2.83 9.336 9.336 0 0 0 .033 13.058l.015-.01zM242.838 275.612c4.62 2.322 22.222.719 22.222.719s-9.174-15.082-13.794-17.405a9.386 9.386 0 0 0-10.459 1.147 9.352 9.352 0 0 0-3.267 6.463 9.332 9.332 0 0 0 2.339 6.853 9.37 9.37 0 0 0 2.954 2.223h.005zM239.085 318.927c4.156 3.067 21.783 4.454 21.783 4.454s-6.489-16.409-10.645-19.481a9.392 9.392 0 0 0-6.978-1.779 9.371 9.371 0 0 0-6.18 3.69 9.316 9.316 0 0 0-1.563 3.317 9.312 9.312 0 0 0 1.094 7.104 9.357 9.357 0 0 0 2.489 2.695z" fill="#000"/><path d="M48.565 359.754s-12.428-42.104 2.332-73.102c6.197-13.006 8.252-27.61 5.39-41.727a111.678 111.678 0 0 0-5.919-19.606" stroke="#535461" stroke-width="2" stroke-miterlimit="10"/><path d="M59.552 205.757c0 5.163-9.365 20.11-9.365 20.11s-9.366-14.967-9.366-20.11a9.326 9.326 0 0 1 2.665-6.748 9.36 9.36 0 0 1 6.698-2.814 9.388 9.388 0 0 1 6.699 2.814 9.346 9.346 0 0 1 2.664 6.748h.005zM75.028 234.343c-2.81 4.333-18.821 11.814-18.821 11.814s.292-17.641 3.103-21.975a9.388 9.388 0 0 1 9.623-4.321 9.375 9.375 0 0 1 6.108 3.946 9.33 9.33 0 0 1-.013 10.531v.005zM74.353 283.193c-4.62 2.322-22.222.719-22.222.719s9.174-15.082 13.794-17.405a9.381 9.381 0 0 1 7.069-.42 9.362 9.362 0 0 1 5.343 4.638 9.33 9.33 0 0 1 .562 7.045 9.35 9.35 0 0 1-4.54 5.423h-.006zM65.502 320.038c-4.156 3.067-21.784 4.454-21.784 4.454s6.489-16.409 10.645-19.481a9.38 9.38 0 0 1 13.039 2 9.331 9.331 0 0 1-1.9 13.027zM36.544 247.157c3.708 3.595 20.993 7.32 20.993 7.32s-4.232-17.128-7.94-20.728a9.373 9.373 0 0 0-6.61-2.485 9.373 9.373 0 0 0-6.47 2.83 9.336 9.336 0 0 0 .032 13.058l-.005.005zM26.761 290.377c4.62 2.322 22.222.719 22.222.719s-9.174-15.082-13.794-17.405a9.385 9.385 0 0 0-7.047-.389 9.361 9.361 0 0 0-5.318 4.632 9.328 9.328 0 0 0-.568 7.021 9.351 9.351 0 0 0 4.505 5.422zM22.987 333.692c4.157 3.067 21.784 4.454 21.784 4.454s-6.489-16.409-10.645-19.491a9.38 9.38 0 0 0-13.038 2 9.333 9.333 0 0 0 1.9 13.027v.01z" fill="#CBD5E0"/><path opacity=".25" d="M59.552 205.757c0 5.163-9.365 20.11-9.365 20.11s-9.366-14.967-9.366-20.11a9.326 9.326 0 0 1 2.665-6.748 9.36 9.36 0 0 1 6.698-2.814 9.388 9.388 0 0 1 6.699 2.814 9.346 9.346 0 0 1 2.664 6.748h.005zM75.028 234.343c-2.81 4.333-18.821 11.814-18.821 11.814s.292-17.641 3.103-21.975a9.388 9.388 0 0 1 9.623-4.321 9.375 9.375 0 0 1 6.108 3.946 9.33 9.33 0 0 1-.013 10.531v.005zM74.353 283.193c-4.62 2.322-22.222.719-22.222.719s9.174-15.082 13.794-17.405a9.381 9.381 0 0 1 7.069-.42 9.362 9.362 0 0 1 5.343 4.638 9.33 9.33 0 0 1 .562 7.045 9.35 9.35 0 0 1-4.54 5.423h-.006zM65.502 320.038c-4.156 3.067-21.784 4.454-21.784 4.454s6.489-16.409 10.645-19.481a9.38 9.38 0 0 1 13.039 2 9.331 9.331 0 0 1-1.9 13.027zM36.544 247.157c3.708 3.595 20.993 7.32 20.993 7.32s-4.232-17.128-7.94-20.728a9.373 9.373 0 0 0-6.61-2.485 9.373 9.373 0 0 0-6.47 2.83 9.336 9.336 0 0 0 .032 13.058l-.005.005zM26.761 290.377c4.62 2.322 22.222.719 22.222.719s-9.174-15.082-13.794-17.405a9.385 9.385 0 0 0-7.047-.389 9.361 9.361 0 0 0-5.318 4.632 9.328 9.328 0 0 0-.568 7.021 9.351 9.351 0 0 0 4.505 5.422zM22.987 333.692c4.157 3.067 21.784 4.454 21.784 4.454s-6.489-16.409-10.645-19.491a9.38 9.38 0 0 0-13.038 2 9.333 9.333 0 0 0 1.9 13.027v.01z" fill="#000"/><path d="M200.536 332.159s-6.731-22.799 1.259-39.575a35.94 35.94 0 0 0 2.917-22.588 60.466 60.466 0 0 0-3.204-10.602" stroke="#535461" stroke-width="2" stroke-miterlimit="10"/><path d="M206.48 248.776c0 2.795-5.068 10.894-5.068 10.894s-5.068-8.089-5.068-10.894a5.061 5.061 0 0 1 3.13-4.675 5.082 5.082 0 0 1 5.526 1.097 5.061 5.061 0 0 1 1.485 3.578h-.005zM214.863 264.265c-1.511 2.343-10.192 6.395-10.192 6.395s.157-9.552 1.678-11.895a5.066 5.066 0 0 1 3.195-2.196 5.072 5.072 0 0 1 6.016 3.889 5.049 5.049 0 0 1-.702 3.807h.005zM214.495 290.709c-2.519 1.256-12.03.387-12.03.387s4.967-8.165 7.466-9.421a5.086 5.086 0 0 1 3.874-.286 5.074 5.074 0 0 1 2.942 2.533 5.058 5.058 0 0 1-2.252 6.802v-.015zM209.704 310.657c-2.252 1.659-11.793 2.413-11.793 2.413s3.526-8.883 5.763-10.557a5.082 5.082 0 0 1 7.098 1.05 5.058 5.058 0 0 1-1.053 7.084l-.015.01zM194.017 271.203c2.015 1.945 11.365 3.961 11.365 3.961s-2.297-9.295-4.312-11.221a5.073 5.073 0 0 0-8.496 3.735 5.054 5.054 0 0 0 1.443 3.525zM188.722 294.6c2.519 1.257 12.03.387 12.03.387s-4.967-8.164-7.466-9.421a5.084 5.084 0 0 0-6.816 2.247 5.053 5.053 0 0 0-.286 3.866 5.066 5.066 0 0 0 2.538 2.936v-.015zM186.686 318.052c2.252 1.659 11.794 2.413 11.794 2.413s-3.527-8.883-5.764-10.557a5.087 5.087 0 0 0-3.767-.942 5.076 5.076 0 0 0-3.331 1.993 5.055 5.055 0 0 0 1.053 7.083l.015.01z" fill="#CBD5E0"/><path opacity=".5" d="M206.48 248.776c0 2.795-5.068 10.894-5.068 10.894s-5.068-8.089-5.068-10.894a5.061 5.061 0 0 1 3.13-4.675 5.082 5.082 0 0 1 5.526 1.097 5.061 5.061 0 0 1 1.485 3.578h-.005zM214.863 264.265c-1.511 2.343-10.192 6.395-10.192 6.395s.157-9.552 1.678-11.895a5.066 5.066 0 0 1 3.195-2.196 5.072 5.072 0 0 1 6.016 3.889 5.049 5.049 0 0 1-.702 3.807h.005zM214.495 290.709c-2.519 1.256-12.03.387-12.03.387s4.967-8.165 7.466-9.421a5.086 5.086 0 0 1 3.874-.286 5.074 5.074 0 0 1 2.942 2.533 5.058 5.058 0 0 1-2.252 6.802v-.015zM209.704 310.657c-2.252 1.659-11.793 2.413-11.793 2.413s3.526-8.883 5.763-10.557a5.082 5.082 0 0 1 7.098 1.05 5.058 5.058 0 0 1-1.053 7.084l-.015.01zM194.017 271.203c2.015 1.945 11.365 3.961 11.365 3.961s-2.297-9.295-4.312-11.221a5.073 5.073 0 0 0-8.496 3.735 5.054 5.054 0 0 0 1.443 3.525zM188.722 294.6c2.519 1.257 12.03.387 12.03.387s-4.967-8.164-7.466-9.421a5.084 5.084 0 0 0-6.816 2.247 5.053 5.053 0 0 0-.286 3.866 5.066 5.066 0 0 0 2.538 2.936v-.015zM186.686 318.052c2.252 1.659 11.794 2.413 11.794 2.413s-3.527-8.883-5.764-10.557a5.087 5.087 0 0 0-3.767-.942 5.076 5.076 0 0 0-3.331 1.993 5.055 5.055 0 0 0 1.053 7.083l.015.01z" fill="#fff"/><path d="M154.162 51.153v56.401l26.156-33.562M127.537 68.864l26.625 38.69" stroke="#535461" stroke-width="2" stroke-miterlimit="10"/><path opacity=".7" d="M202.273 44.522a20.971 20.971 0 0 0-2.298-9.53 21.014 21.014 0 0 0-6.382-7.451 21.094 21.094 0 0 0-18.867-2.983c.174-1.18.263-2.371.267-3.564a20.969 20.969 0 0 0-5.901-14.566 21.06 21.06 0 0 0-14.38-6.4 21.066 21.066 0 0 0-14.804 5.352 20.978 20.978 0 0 0-6.935 14.106 21.092 21.092 0 0 0-18.878 2.974 21.012 21.012 0 0 0-6.385 7.454 20.967 20.967 0 0 0-2.299 9.535c0 10.558 7.773 25.514 17.91 28.153l1.576.9-.856 2.926h5.068l-1.088-2.921 1.567-.895c7.828-2.051 14.252-11.462 16.765-20.491a15.394 15.394 0 0 0 4.489 2.036l1.577.9-.856 2.926h5.068l-1.104-2.931 1.567-.895a14.683 14.683 0 0 0 3.345-1.352c1.355 10.13 8.564 22.492 17.678 24.88l1.577.9-.857 2.925h5.068l-1.103-2.93 1.567-.895c10.151-2.65 17.904-17.631 17.904-28.163z" fill="url(#paint0_linear)"/><path d="M129.91 70.367h-4.902l.857-2.936h2.942l1.103 2.936zM147.669 39.409c0 11.22-9.114 27.65-20.358 27.65s-20.358-16.44-20.358-27.65a20.296 20.296 0 0 1 6.074-14.158 20.38 20.38 0 0 1 14.281-5.838 20.38 20.38 0 0 1 14.282 5.838 20.296 20.296 0 0 1 6.074 14.158h.005z" fill="#CBD5E0"/><path opacity=".2" d="M147.669 39.409c0 11.22-9.114 27.65-20.358 27.65s-20.358-16.44-20.358-27.65a20.296 20.296 0 0 1 6.074-14.158 20.38 20.38 0 0 1 14.281-5.838 20.38 20.38 0 0 1 14.282 5.838 20.296 20.296 0 0 1 6.074 14.158h.005z" fill="#fff"/><path d="M128.807 67.557h-2.942l-1.718-.98h6.378l-1.718.98z" fill="#535461"/><path opacity=".1" d="M119.96 23.618s-8.564 4.65-9.808 13.951l9.808-13.95z" fill="#fff"/><path d="M156.53 52.51h-4.902l.857-2.936h2.942l1.103 2.936z" fill="#CBD5E0"/><path opacity=".07" d="M156.53 52.51h-4.902l.857-2.936h2.942l1.103 2.936z" fill="#000"/><path d="M174.313 21.542c0 11.22-9.113 27.65-20.358 27.65-11.244 0-20.357-16.44-20.357-27.65a20.295 20.295 0 0 1 6.073-14.158 20.382 20.382 0 0 1 14.282-5.838 20.378 20.378 0 0 1 14.281 5.838 20.291 20.291 0 0 1 6.074 14.158h.005z" fill="#CBD5E0"/><path d="M155.427 49.695h-2.942l-1.718-.975h6.377l-1.717.975z" fill="#535461"/><path opacity=".1" d="M146.595 5.761s-8.564 4.65-9.808 13.951l9.808-13.95z" fill="#fff"/><path d="M182.928 75.279h-4.907l.862-2.936h2.942l1.103 2.936zM200.707 44.316c0 11.22-9.114 27.65-20.358 27.65s-20.358-16.44-20.358-27.65a20.296 20.296 0 0 1 6.074-14.158 20.38 20.38 0 0 1 14.281-5.838 20.38 20.38 0 0 1 14.282 5.838 20.296 20.296 0 0 1 6.074 14.158h.005z" fill="#CBD5E0"/><path opacity=".2" d="M200.707 44.316c0 11.22-9.114 27.65-20.358 27.65s-20.358-16.44-20.358-27.65a20.296 20.296 0 0 1 6.074-14.158 20.38 20.38 0 0 1 14.281-5.838 20.38 20.38 0 0 1 14.282 5.838 20.296 20.296 0 0 1 6.074 14.158h.005z" fill="#fff"/><path d="M181.825 72.469h-2.942l-1.718-.98h6.378l-1.718.98z" fill="#535461"/><path opacity=".1" d="M172.994 28.53s-8.565 4.65-9.809 13.95l9.809-13.95z" fill="#fff"/><path d="M179.361 371.995c-3.526-.804-6.423-5.027-6.423-5.027l-.287.045 3.476-46.055s3.688-6.691 0-16.399a120.137 120.137 0 0 1-2.07-5.963l.559-.231-.111-.623.111-.045s-10.726-58.659-10.826-77.753c0-2.307.206-3.956.619-4.745 1.693-3.223 4.726-7.858 4.6-13.644.111-5.651-2.726-12.443-12.897-20.11.811-6.435 2.811-19.983 6.287-29.158 0 0 1.34-6.033 0-15.082l-2.015-25.433s.337-11.714-7.053-11.714.338 13.071.338 13.071l-.67 33.13s-.222 1.715-.6 4.409a13.07 13.07 0 0 0-6.746-4.047 8.035 8.035 0 0 0-.503-3.564 8.943 8.943 0 0 1-.464.266 8.437 8.437 0 0 0-.206-.598 10.086 10.086 0 0 1-5.235 1.508c-1.692 0-3.355-.407-5.038-.533-2.855-.2-5.706.434-8.206 1.825-.348-.035-.7-.08-1.053-.13-6.6-1.006-11.189 7.39-17.799 10.823-4.634 2.408-6.509 8.044-7.234 13.202-.725 5.158-.811 10.653-3.526 15.127-1.844 3.057-5.97 4.821-6.746 8.3-1.511 6.787.166 5.113 1.844 14.147.554 2.986 1.274 4.178 1.98 7.134.765 3.187-.081 6.535-.197 9.793-.292 8.582 5.24 16.867 12.922 20.557a20.453 20.453 0 0 0 6.182 2.086 17.53 17.53 0 0 1-4.56 10.291 7.7 7.7 0 0 0 .776.216l-.106.116c4.434 1.447 9.33-.227 13.24-2.77a30.752 30.752 0 0 0 3.259-2.454 29.318 29.318 0 0 0-1.471 4.384l-.03.03-.806-.196s.232.131.65.342c-2.227 2.061-24.076 22.185-32.474 26.031-1.849.041-7.894 10.804 7.844 14.625 12.408 3.016 15.113-1.337 21.461 6.359a15.449 15.449 0 0 0 6.66 4.5c-1.814 5.771-4.68 13.015-8.005 14.579-5.703 2.679-15.114 16.731-16.121 21.753l-8.423 17.912h-.156l-1.708 1.825a3.061 3.061 0 0 0-.752 2.756 3.058 3.058 0 0 0 1.855 2.176c4.867 1.935 12.786 4.62 16.368 3.283 5.365-2.011-3.023-4.022-3.023-4.022-3.355-1.337-5.038-5.691-5.038-5.691l26.993-30.621s10.579-4.092 12.741-12.714c.136-.548 1.728-4.776 3.561-9.587 1.713-.126 3.34-.292 4.821-.453 2.398-.266 5.24-1.211 8.121-2.458 1.749 5.897 3.25 12.292 2.61 15.172-1.34 6.033-3.023 13.72 0 23.759l5.199 22.256h.474l-.534.081-1.386 2.046a3.084 3.084 0 0 0-.313 2.865 3.082 3.082 0 0 0 2.197 1.87c5.114 1.157 13.315 2.569 16.625.694 5.048-2.84-3.562-3.524-3.562-3.524zm-44.206-164.242a60.134 60.134 0 0 1 .105-7.279 88.301 88.301 0 0 0 2.298 13.071 24.012 24.012 0 0 1 2.317 9.848 19.583 19.583 0 0 1-4.998 12.905l-.03.03c2.489-9.24.731-19.018.308-28.58v.005z" fill="url(#paint1_linear)"/><path d="M137.855 187.232c-2.892 4.881-2.368 13.805 1.647 30.123 0 0 4.59 12.433-4.589 22.9-9.179 10.466-11.144 19.606-11.144 19.606s-28.816 17.817-32.453 25.84c5.41-11.939-12.353 5.153 8.196 10.14 12.126 2.946 14.751-1.307 20.978 6.214 6.226 7.521 20.322 6.536 29.174 5.56 8.851-.975 23.929-11.447 23.929-11.447s-16.715-70.327-13.098-77.199c3.41-6.5 15.678-18.852-8.353-34.849-4.801-3.167-11.36-1.83-14.287 3.112z" fill="#F0898B"/><path opacity=".1" d="M137.855 187.232c-2.892 4.881-2.368 13.805 1.647 30.123 0 0 4.589 12.433-4.589 22.9-9.179 10.466-11.144 19.606-11.144 19.606s-29.003 17.736-32.454 25.84c5.083-11.939-12.352 5.153 8.197 10.14 12.126 2.946 14.75-1.307 20.977 6.214 6.227 7.521 20.323 6.536 29.174 5.56 8.852-.975 23.93-11.447 23.93-11.447s-16.716-70.327-13.098-77.199c3.41-6.5 15.677-18.852-8.353-34.849-4.801-3.167-11.36-1.83-14.287 3.112z" fill="#000"/><path d="M129.029 299.129s-4.262 18.973-9.834 21.588c-5.572 2.614-14.751 16.353-15.733 21.26l-8.358 17.827h7.557l26.368-29.923s10.342-4.021 12.458-12.432c.328-1.307 9.179-24.207 9.179-24.207l-21.637 5.887zM153.593 293.242s7.869 20.934 6.549 26.826c-1.32 5.892-2.952 13.413 0 23.226l5.083 21.753 6.549-.326 3.441-45.633s3.607-6.536 0-16.027c-3.607-9.492-6.227-21.261-6.227-21.261l-15.395 11.442zM155.225 186.277s1.965-19.954 6.549-32.059c0 0 1.31-5.887 0-14.72l-1.965-24.86s.328-11.448-6.881-11.448c-7.209 0 .327 12.76.327 12.76l-.655 32.386s-4.262 33.039-7.209 36.639l9.834 1.302z" fill="#FDB797"/><path opacity=".05" d="M155.225 186.277s1.965-19.954 6.549-32.059c0 0 1.31-5.887 0-14.72l-1.965-24.86s.328-11.448-6.881-11.448c-7.209 0 .327 12.76.327 12.76l-.655 32.386s-4.262 33.039-7.209 36.639l9.834 1.302z" fill="#000"/><path d="M153.593 162.724s-1.31 15.7 2.625 20.933c0 0-9.179-4.906-17.043-.653 0 0 4.917-13.413 3.279-19.3l11.139-.98z" fill="#FDB797"/><path opacity=".1" d="M137.855 183.959c-2.892 4.881-4.338 13.805-.323 30.124 0 0 6.549 12.432-2.624 22.899-9.174 10.467-11.144 19.606-11.144 19.606s-24.257 22.573-32.454 25.841c0 0-3.934 7.194 8.197 10.14 12.131 2.946 14.751-1.307 20.977 6.214 6.227 7.52 20.323 6.535 29.174 5.56 8.852-.976 24.091-7.36 24.091-7.36s-13.602-74.404-10-81.287c3.411-6.5 12.398-18.852-11.627-34.849-4.781-3.167-11.34-1.825-14.267 3.112z" fill="#000"/><path d="M137.855 183.305c-2.892 4.882-4.338 13.805-.323 30.124 0 0 6.549 12.432-2.624 22.899-9.174 10.467-11.144 19.607-11.144 19.607s-24.257 22.572-32.454 25.84c0 0-3.934 7.194 8.197 10.14 12.131 2.946 14.751-1.307 20.977 6.214 6.227 7.521 20.323 6.535 29.174 5.56 8.852-.975 24.091-7.36 24.091-7.36s-13.602-74.404-10-81.286c3.411-6.501 12.398-18.853-11.627-34.85-4.781-3.167-11.34-1.829-14.267 3.112z" fill="#F0898B"/><path d="M147.694 202.309c6.154 0 11.144-4.979 11.144-11.121 0-6.141-4.99-11.12-11.144-11.12-6.155 0-11.144 4.979-11.144 11.12 0 6.142 4.989 11.121 11.144 11.121z" fill="#FDB797"/><path opacity=".1" d="M143.759 195.763l-2.292 34.346 7.557 36.639s-6.882 24.207 0 21.914c6.881-2.292 7.209-22.24 7.209-22.24l-4.605-38.258s5.572-28.786 4.59-34.688c-.983-5.902-12.459 2.287-12.459 2.287z" fill="#000"/><path d="M143.759 195.11l-2.292 34.346 7.557 36.639s-6.897 24.206-.021 21.894c6.877-2.313 7.23-22.221 7.23-22.221l-4.59-38.273s5.572-28.786 4.59-34.688c-.983-5.902-12.474 2.303-12.474 2.303z" fill="#FDB797"/><path opacity=".03" d="M142.283 173.366c4.64 0 8.861-1.322 11.083-5.027.03-2.891.207-4.967.207-4.967l-11.144 1.006c.705 2.513.317 4.685-.504 8.34.237-.005.151.648.358.648z" fill="#000"/><path d="M142.45 173.854c7.061 0 12.786-5.713 12.786-12.759 0-7.047-5.725-12.76-12.786-12.76-7.062 0-12.786 5.713-12.786 12.76 0 7.046 5.724 12.759 12.786 12.759z" fill="#FDB797"/><path opacity=".03" d="M156.379 210.322s1.007 4.907 7.375 5.4l-7.375-5.4zM122.454 298.149c-6.227-7.541-8.851-3.273-20.977-6.214-12.127-2.941-8.217-10.14-8.217-10.14 8.196-3.273 32.453-25.84 32.453-25.84s1.965-9.16 11.144-19.607c9.179-10.446 2.625-22.899 2.625-22.899-4.03-16.314-2.574-25.242.322-30.124a9.84 9.84 0 0 1 3.221-3.297 9.845 9.845 0 0 1 4.371-1.473 9.946 9.946 0 0 0-9.572 4.77c-2.891 4.882-4.337 13.805-.322 30.124 0 0 6.549 12.433-2.625 22.899-9.174 10.467-11.143 19.607-11.143 19.607s-24.257 22.572-32.454 25.84c0 0-3.935 7.194 8.197 10.14 12.131 2.946 14.75-1.307 20.977 6.214 4.307 5.203 12.373 6.339 19.869 6.219-6.871-.111-13.94-1.468-17.869-6.219z" fill="#000"/><path opacity=".1" d="M147.089 175.88c-.413-.915-1.295-1.508-1.96-2.267-2.161-2.448-1.788-6.118-1.914-9.381a25.522 25.522 0 0 0-2.06-9.049 7.72 7.72 0 0 0 2.08-1.508 8.133 8.133 0 0 0 1.678-8.461 9.872 9.872 0 0 1-5.119 1.478c-1.652 0-3.279-.398-4.932-.503a14.422 14.422 0 0 0-8.025 1.785 16.048 16.048 0 0 1-1.007-.131c-6.454-.975-10.938 7.224-17.396 10.582-4.534 2.358-6.363 7.858-7.053 12.905-.69 5.048-.796 10.417-3.426 14.786-1.803 2.986-5.838 4.71-6.594 8.114-1.476 6.636.161 4.997 1.798 13.83.544 2.921 1.245 4.087 1.935 6.973.746 3.117-.08 6.369-.192 9.552-.357 10.517 8.232 20.586 18.696 21.909a17.131 17.131 0 0 1-4.479 10.285c4.333 1.418 9.124-.221 12.942-2.709a30.946 30.946 0 0 0 12.726-17.36c2.574-9.119.801-18.812.393-28.278-.408-9.466 1.088-19.994 8.302-26.142 2.01-1.729 4.69-3.992 3.607-6.41z" fill="#000"/><path d="M146.434 175.563c-.413-.915-1.294-1.508-1.959-2.267-2.162-2.448-1.789-6.118-1.915-9.381a25.51 25.51 0 0 0-2.06-9.049 7.704 7.704 0 0 0 2.08-1.508 8.136 8.136 0 0 0 1.678-8.471 9.872 9.872 0 0 1-5.118 1.478c-1.653 0-3.28-.397-4.932-.503a14.425 14.425 0 0 0-8.026 1.785 15.338 15.338 0 0 1-1.007-.131c-6.454-.975-10.937 7.224-17.396 10.583-4.534 2.357-6.363 7.857-7.053 12.905-.69 5.047-.796 10.416-3.425 14.785-1.804 2.986-5.84 4.711-6.595 8.114-1.476 6.636.161 4.997 1.799 13.83.544 2.921 1.244 4.087 1.934 6.973.746 3.117-.08 6.37-.191 9.552-.358 10.517 8.231 20.587 18.695 21.909a17.13 17.13 0 0 1-4.479 10.286c4.333 1.417 9.124-.221 12.943-2.71a30.947 30.947 0 0 0 12.77-17.349c2.575-9.12.801-18.812.393-28.279-.408-9.466 1.089-19.993 8.303-26.142 1.964-1.739 4.645-4.001 3.561-6.41z" fill="#252223"/><path d="M102.62 359.809s1.638 4.253 4.917 5.56c0 0 8.197 1.961 2.952 3.926-3.526 1.312-11.239-1.317-16-3.207a3.02 3.02 0 0 1-1.795-2.131 3.011 3.011 0 0 1 .717-2.69l1.668-1.785 7.541.327zM172.112 364.062s2.836 4.137 6.277 4.922c0 0 8.403.668 3.526 3.418-3.244 1.83-11.264.453-16.262-.678a3.031 3.031 0 0 1-2.144-1.831 3.016 3.016 0 0 1 .305-2.8l1.356-2.01 6.942-1.021z" fill="#333"/><path opacity=".03" d="M122.943 255.814s7.557 4.253 16.06 3.927l-16.06-3.927z" fill="#000"/><path opacity=".3" d="M107.839 132.54h-2.09l.362-1.257h1.26l.468 1.257zM115.427 119.323c0 4.776-3.89 11.814-8.686 11.814-4.796 0-8.685-7.038-8.685-11.799 0-2.299.915-4.503 2.544-6.128a8.693 8.693 0 0 1 12.283 0 8.655 8.655 0 0 1 2.544 6.128v-.015z" fill="#CBD5E0"/><path d="M107.371 131.338h-1.26l-.73-.417h2.72l-.73.417z" fill="#535461"/><path opacity=".1" d="M103.598 112.591s-3.663 1.986-4.187 5.953l4.187-5.953z" fill="#fff"/><path d="M106.958 131.102a5.523 5.523 0 0 0-1.37 4.555c.458 2.735 2.74 5.469 2.282 8.657-.459 3.187-1.829 5.027-1.829 6.379" stroke="#535461" stroke-width=".75" stroke-miterlimit="10"/><path opacity=".3" d="M333.614 159.984h-2.095l.367-1.257h1.255l.473 1.257zM341.196 146.767c0 4.786-3.889 11.799-8.685 11.799-4.796 0-8.685-7.038-8.685-11.799 0-2.299.915-4.503 2.544-6.129a8.696 8.696 0 0 1 12.282 0 8.659 8.659 0 0 1 2.544 6.129z" fill="#CBD5E0"/><path d="M333.141 158.782h-1.255l-.73-.417h2.72l-.735.417z" fill="#535461"/><path opacity=".1" d="M329.372 140.035s-3.662 1.986-4.186 5.953l4.186-5.953z" fill="#fff"/><path d="M332.733 158.546a5.523 5.523 0 0 0-1.371 4.555c.459 2.734 2.741 5.469 2.283 8.657-.459 3.187-1.829 5.027-1.829 6.379" stroke="#535461" stroke-width=".75" stroke-miterlimit="10"/><path opacity=".3" d="M372.648 145.028l-2.051-.433.62-1.151 1.229.261.202 1.323zM382.809 133.651c-1.008 4.685-6.252 10.743-10.947 9.753-4.696-.991-7.053-8.657-6.046-13.338a8.67 8.67 0 0 1 3.788-5.37 8.703 8.703 0 0 1 6.475-1.178 8.683 8.683 0 0 1 5.444 3.692 8.659 8.659 0 0 1 1.286 6.441z" fill="#CBD5E0"/><path d="M372.436 143.756l-1.23-.257-.629-.563 2.66.563-.801.257z" fill="#535461"/><path opacity=".1" d="M372.637 124.637s-3.995 1.186-5.33 4.957l5.33-4.957z" fill="#fff"/><path d="M372.083 143.439a5.516 5.516 0 0 0-2.287 4.173c-.121 2.77 1.547 5.917.438 8.943-1.108 3.027-2.826 4.525-3.108 5.862" stroke="#535461" stroke-width=".75" stroke-miterlimit="10"/><g clip-path="url(#clip1)"><path d="M375.405 130.989l-.208.766-1.653-.467v-.825l1.861.526zm.594 1.588s.002.313 0 .417c-.004.137-.017.27-.03.398-.292 2.802-2.058 3.51-3.562 3.587L372 137v-7l.775.22v5.928c1.509-.212 2.293-1.172 2.435-2.971l-1.67-.472v-.824l2.37.671.089.025z" fill="#AAB1B8"/></g></g><g clip-path="url(#clip2)"><path d="M188.214 39.966l-.622 2.298-4.959-1.4v-2.476l5.581 1.578zm1.782 4.764a63 63 0 0 0 0 1.252c-.01.411-.05.81-.09 1.194-.874 8.405-6.174 10.529-10.685 10.761L178 58V37l2.326.658v17.785c4.527-.636 6.879-3.514 7.304-8.911l-5.009-1.418v-2.472l7.109 2.013.266.075z" fill="#AAB1B8"/></g><g clip-path="url(#clip3)"><path d="M159.214 15.966l-.622 2.299-4.959-1.401v-2.476l5.581 1.578zm1.782 4.764a63 63 0 0 0 0 1.252c-.01.411-.05.81-.09 1.194-.874 8.405-6.174 10.529-10.685 10.761L149 34V13l2.326.659v17.784c4.527-.636 6.879-3.514 7.304-8.911l-5.009-1.418v-2.472l7.109 2.013.266.075z" fill="#AAB1B8"/></g><g clip-path="url(#clip4)"><path d="M132.214 37.966l-.622 2.298-4.959-1.4v-2.476l5.581 1.578zm1.782 4.764a63 63 0 0 0 0 1.252c-.01.411-.05.81-.09 1.194-.874 8.405-6.174 10.529-10.685 10.761L122 56V35l2.326.658v17.785c4.527-.636 6.879-3.514 7.304-8.911l-5.009-1.418v-2.472l7.109 2.013.266.075z" fill="#AAB1B8"/></g><g clip-path="url(#clip5)"><path d="M108.405 117.989l-.208.766-1.653-.467v-.825l1.861.526zm.594 1.588s.002.313 0 .417c-.004.137-.017.27-.03.398-.292 2.802-2.058 3.51-3.562 3.587L105 124v-7l.775.22v5.928c1.509-.212 2.293-1.172 2.435-2.971l-1.67-.472v-.824l2.37.671.089.025z" fill="#AAB1B8"/></g><g clip-path="url(#clip6)"><path d="M334.405 144.989l-.208.766-1.653-.467v-.825l1.861.526zm.594 1.588s.002.313 0 .417c-.004.137-.017.27-.03.398-.292 2.802-2.058 3.51-3.562 3.587L331 151v-7l.775.22v5.928c1.509-.212 2.293-1.172 2.435-2.971l-1.67-.472v-.824l2.37.671.089.025z" fill="#AAB1B8"/></g><defs><linearGradient id="paint0_linear" x1="153.845" y1="76.516" x2="153.845" gradientUnits="userSpaceOnUse"><stop stop-color="gray" stop-opacity=".25"/><stop offset=".54" stop-color="gray" stop-opacity=".12"/><stop offset="1" stop-color="gray" stop-opacity=".1"/></linearGradient><linearGradient id="paint1_linear" x1="47345.3" y1="222821" x2="47345.3" y2="70915.2" gradientUnits="userSpaceOnUse"><stop stop-color="gray" stop-opacity=".25"/><stop offset=".54" stop-color="gray" stop-opacity=".12"/><stop offset="1" stop-color="gray" stop-opacity=".1"/></linearGradient><clipPath id="clip0"><path fill="#fff" d="M0 0h383v395H0z"/></clipPath><clipPath id="clip1"><path fill="#fff" transform="translate(372 130)" d="M0 0h4v7H0z"/></clipPath><clipPath id="clip2"><path fill="#fff" transform="translate(178 37)" d="M0 0h12v21H0z"/></clipPath><clipPath id="clip3"><path fill="#fff" transform="translate(149 13)" d="M0 0h12v21H0z"/></clipPath><clipPath id="clip4"><path fill="#fff" transform="translate(122 35)" d="M0 0h12v21H0z"/></clipPath><clipPath id="clip5"><path fill="#fff" transform="translate(105 117)" d="M0 0h4v7H0z"/></clipPath><clipPath id="clip6"><path fill="#fff" transform="translate(331 144)" d="M0 0h4v7H0z"/></clipPath></defs></svg>