<svg width="569" height="511" fill="none" xmlns="http://www.w3.org/2000/svg"><g filter="url(#filter0_d)"><path fill="#fff" d="M350.91 155.352H497v199.573H350.91z"/><mask id="a" maskUnits="userSpaceOnUse" x="405" y="163" width="39" height="39"><circle cx="424.203" cy="182.588" r="18.818" fill="#C4C4C4"/></mask><g mask="url(#a)"><path fill="#fff" d="M401.918 160.303h44.075v44.075h-44.075z"/><path fill="#F5F5F8" d="M404.122 162.507h39.667v39.667h-39.667z"/><mask id="b" maskUnits="userSpaceOnUse" x="404" y="162" width="40" height="41"><path fill="#fff" d="M404.122 162.507h39.667v39.667h-39.667z"/></mask><g mask="url(#b)"><path fill-rule="evenodd" clip-rule="evenodd" d="M437.984 194.878a8.466 8.466 0 0 0-4.682-3.339l-4.418-1.238v-3.175a7.925 7.925 0 0 0 3.17-6.109 2.117 2.117 0 1 0 .006-3.877v-.6a7.94 7.94 0 0 0-15.879 0v.6a2.117 2.117 0 1 0 .006 3.877 7.928 7.928 0 0 0 3.17 6.109v3.175l-4.418 1.238a8.466 8.466 0 0 0-4.682 3.339l-3.074 4.447v3.15h33.875v-3.15l-3.074-4.447z" fill="#B5683C"/><path fill-rule="evenodd" clip-rule="evenodd" d="M424.121 188.714a7.922 7.922 0 0 1-2.782-.503 7.89 7.89 0 0 0 4.264 1.244 7.909 7.909 0 0 0 3.282-.711v-1.618a7.905 7.905 0 0 1-4.764 1.588z" fill="#A3420B"/><path d="M416.457 179.389a1.164 1.164 0 0 0-1.576-1.382M431.784 179.389a1.164 1.164 0 0 1 1.576-1.382" stroke="#00004D" stroke-width="2" stroke-linecap="round" stroke-linejoin="round"/><path fill-rule="evenodd" clip-rule="evenodd" d="M426.767 183.845a2.646 2.646 0 0 1-5.293 0h5.293z" fill="#AE1328"/><path fill-rule="evenodd" clip-rule="evenodd" d="M425.602 186.038a2.11 2.11 0 0 0-1.481-.605c-.577 0-1.1.231-1.481.605.422.286.932.453 1.481.453.548 0 1.058-.167 1.481-.453z" fill="#FB344F"/><path fill-rule="evenodd" clip-rule="evenodd" d="M425.709 184.692h-3.176a.53.53 0 0 1-.53-.53v-.317h4.235v.317a.53.53 0 0 1-.529.53z" fill="#fff"/><path d="M428.549 179.08a1.058 1.058 0 0 1-1.941 0M421.563 179.08a1.06 1.06 0 0 1-1.941 0M424.104 178.551l1.033 2.657a.847.847 0 0 1-.789 1.154h-.667" stroke="#00004D" stroke-linecap="round" stroke-linejoin="round"/><path fill-rule="evenodd" clip-rule="evenodd" d="M441.058 199.325l-3.074-4.447a8.466 8.466 0 0 0-4.682-3.339l-4.418-1.238a4.763 4.763 0 1 1-9.527 0l-4.418 1.238a8.466 8.466 0 0 0-4.682 3.339l-3.074 4.447v3.15h33.875v-3.15z" fill="#2384F5"/><path fill-rule="evenodd" clip-rule="evenodd" d="M432.552 175.459H415.69l2.118-4.954h12.627l2.117 4.954z" fill="#006"/><path fill-rule="evenodd" clip-rule="evenodd" d="M431.531 181.303a7.41 7.41 0 1 1-14.82 0v-3.176a7.41 7.41 0 1 1 14.82 0v3.176zm3.493-2.223c0-4.798-3.817-10.903-10.903-10.903s-10.904 6.105-10.904 10.903c0 11.033-1.543 14.217-1.543 14.217l2.231 1.484a10.857 10.857 0 0 0 11.467.351l2.728 3.799 8.483-5.621s-1.559-2.22-1.559-14.23z" fill="#FFCA00"/><path d="M430.109 189.338a8.47 8.47 0 0 1-14.457-5.988v-3.988a8.469 8.469 0 0 1 8.469-8.468M425.372 195.132a10.819 10.819 0 0 0 3.108-2.715" stroke="#00004D" stroke-linecap="round" stroke-linejoin="round"/></g></g><rect x="405.385" y="207.349" width="37.637" height="5.943" rx="2.971" fill="url(#paint0_linear)"/><rect x="392.509" y="215.768" width="63.388" height="5.943" rx="2.971" fill="url(#paint1_linear)"/><rect x="368.244" y="236.072" width="111.92" height="5.943" rx="2.971" fill="url(#paint2_linear)"/><rect x="368.244" y="244.491" width="111.92" height="5.943" rx="2.971" fill="url(#paint3_linear)"/><rect x="368.244" y="301.936" width="111.92" height="5.943" rx="2.971" fill="url(#paint4_linear)"/><rect x="368.244" y="310.355" width="111.92" height="5.943" rx="2.971" fill="url(#paint5_linear)"/><rect x="368.244" y="318.774" width="111.92" height="5.943" rx="2.971" fill="url(#paint6_linear)"/><rect x="392.509" y="330.659" width="63.388" height="16.342" rx="8.171" fill="url(#paint7_linear)"/><rect x="368.244" y="281.632" width="111.92" height="5.943" rx="2.971" fill="url(#paint8_linear)"/><rect x="368.244" y="273.214" width="37.141" height="5.943" rx="2.971" fill="url(#paint9_linear)"/><rect x="441.536" y="273.214" width="37.141" height="5.943" rx="2.971" fill="url(#paint10_linear)"/></g><g filter="url(#filter1_d)"><path fill="#fff" d="M215.521 99.19h208.49v284.818h-208.49z"/><mask id="c" maskUnits="userSpaceOnUse" x="293" y="111" width="54" height="54"><circle cx="320.12" cy="138.061" r="26.856" fill="#C4C4C4"/></mask><g mask="url(#c)"><path fill="#fff" d="M288.316 106.258h62.9v62.9h-62.9z"/><path fill="#F5F5F8" d="M291.462 109.403h56.61v56.61h-56.61z"/><mask id="d" maskUnits="userSpaceOnUse" x="291" y="109" width="58" height="58"><path fill="#fff" d="M291.462 109.403h56.61v56.61h-56.61z"/></mask><g mask="url(#d)"><path fill-rule="evenodd" clip-rule="evenodd" d="M341.801 157.265a11.28 11.28 0 0 0-6.237-4.448l-5.886-1.649v-4.231a10.563 10.563 0 0 0 4.223-8.138 2.82 2.82 0 1 0 .008-5.165v-.8c0-5.842-4.736-10.577-10.578-10.577-5.841 0-10.577 4.735-10.577 10.577v.8a2.821 2.821 0 1 0 .008 5.165 10.563 10.563 0 0 0 4.223 8.138v4.231l-5.886 1.649a11.28 11.28 0 0 0-6.237 4.448l-4.095 5.924v4.197h45.129v-4.197l-4.095-5.924z" fill="#844123"/><path fill-rule="evenodd" clip-rule="evenodd" d="M323.331 149.052c-1.304 0-2.552-.237-3.706-.669a10.518 10.518 0 0 0 5.681 1.657c1.559 0 3.039-.341 4.372-.947v-2.156a10.53 10.53 0 0 1-6.347 2.115z" fill="#702A0F"/><path d="M313.122 136.63a1.551 1.551 0 0 0-2.1-1.841M333.541 136.63a1.551 1.551 0 0 1 2.1-1.841" stroke="#00004D" stroke-linecap="round" stroke-linejoin="round"/><path fill-rule="evenodd" clip-rule="evenodd" d="M324.711 144.545c0 .997-.618 1.806-1.379 1.806-.762 0-1.379-.809-1.379-1.806 0-.996.617-1.805 1.379-1.805.761 0 1.379.809 1.379 1.805zM329.499 136.799c0 .553-.539 1.002-1.203 1.002-.665 0-1.204-.449-1.204-1.002 0-.554.539-1.003 1.204-1.003.664 0 1.203.449 1.203 1.003zM319.571 136.799c0 .553-.539 1.002-1.203 1.002-.665 0-1.204-.449-1.204-1.002 0-.554.539-1.003 1.204-1.003.664 0 1.203.449 1.203 1.003z" fill="#00004D"/><path d="M323.382 135.896l1.504 4.546-2.106.268" stroke="#00004D" stroke-linecap="round" stroke-linejoin="round"/><path fill-rule="evenodd" clip-rule="evenodd" d="M323.332 116.329c-9.416 0-17.049 7.599-17.049 16.972 0 7.123 4.407 13.219 10.655 15.737v-2.159a10.577 10.577 0 0 1-4.254-8.161c-.35.153-.737.24-1.145.24a2.834 2.834 0 0 1-2.841-2.828 2.835 2.835 0 0 1 2.841-2.829c.152 0 .3.016.445.039.194.03.381.081.559.148l.078.029c.33.136.629.33.883.572a14.156 14.156 0 0 0 3.081-4.603 14.197 14.197 0 0 0 6.747 1.694c2.442 0 4.74-.614 6.747-1.694a14.153 14.153 0 0 0 3.08 4.603c.254-.242.553-.437.883-.572l.078-.029c.179-.067.365-.118.559-.148.146-.023.293-.039.445-.039a2.835 2.835 0 0 1 2.841 2.829 2.834 2.834 0 0 1-2.841 2.828c-.408 0-.795-.087-1.145-.24a10.574 10.574 0 0 1-4.254 8.161v2.159c6.248-2.518 10.656-8.614 10.656-15.737 0-9.373-7.634-16.972-17.049-16.972z" fill="#00004D"/><path fill-rule="evenodd" clip-rule="evenodd" d="M345.896 163.123l-4.095-6.018a11.29 11.29 0 0 0-6.237-4.52l-5.886-1.675c0 3.561-2.842 6.447-6.347 6.447-3.505 0-6.346-2.886-6.346-6.447l-5.886 1.675a11.29 11.29 0 0 0-6.237 4.52l-4.095 6.018v4.263h45.129v-4.263z" fill="#FB344F"/><path d="M330.915 154.584c-1.384 2.833-4.26 4.779-7.584 4.779-4.429 0-8.063-3.457-8.431-7.859" stroke="#00004D" stroke-linecap="round" stroke-linejoin="round"/></g></g><rect x="293.264" y="173.399" width="53.713" height="8.481" rx="4.24" fill="url(#paint11_linear)"/><rect x="274.889" y="185.413" width="90.463" height="8.481" rx="4.24" fill="url(#paint12_linear)"/><rect x="240.258" y="214.39" width="159.724" height="8.481" rx="4.24" fill="url(#paint13_linear)"/><rect x="240.258" y="226.404" width="159.724" height="8.481" rx="4.24" fill="url(#paint14_linear)"/><rect x="240.258" y="308.387" width="159.724" height="8.481" rx="4.24" fill="url(#paint15_linear)"/><rect x="240.258" y="320.401" width="159.724" height="8.481" rx="4.24" fill="url(#paint16_linear)"/><rect x="240.258" y="332.416" width="159.724" height="8.481" rx="4.24" fill="url(#paint17_linear)"/><rect x="274.889" y="349.378" width="90.463" height="23.323" rx="11" fill="url(#paint18_linear)"/><rect x="240.258" y="279.41" width="159.724" height="8.481" rx="4.24" fill="url(#paint19_linear)"/><rect x="240.258" y="267.396" width="53.006" height="8.481" rx="4.24" fill="url(#paint20_linear)"/><rect x="344.856" y="267.396" width="53.006" height="8.481" rx="4.24" fill="url(#paint21_linear)"/></g><g filter="url(#filter2_d)"><path fill="#fff" d="M34 33h295.85v404.161H34z"/><mask id="e" maskUnits="userSpaceOnUse" x="144" y="50" width="77" height="77"><circle cx="182.427" cy="88.158" r="38.109" fill="#C4C4C4"/></mask><g mask="url(#e)"><path fill="#fff" d="M137.297 43.029h89.256v89.256h-89.256z"/><path fill="#F5F5F8" d="M141.76 47.492h80.331v80.331H141.76z"/><mask id="f" maskUnits="userSpaceOnUse" x="141" y="47" width="82" height="81"><path fill="#fff" d="M141.76 47.492h80.331v80.331H141.76z"/></mask><g mask="url(#f)"><path fill-rule="evenodd" clip-rule="evenodd" d="M211.148 118.503a17.85 17.85 0 0 0-9.868-7.039l-9.314-2.609v-6.694a16.708 16.708 0 0 0 6.682-12.876 4.463 4.463 0 1 0 .013-8.172v-1.266c0-9.243-7.493-16.736-16.736-16.736s-16.735 7.493-16.735 16.736v1.266a4.463 4.463 0 1 0 .013 8.172 16.704 16.704 0 0 0 6.681 12.876v6.694l-9.313 2.609a17.848 17.848 0 0 0-9.869 7.039l-6.479 9.373v6.64h71.405v-6.64l-6.48-9.373z" fill="#FFCF83"/><path fill-rule="evenodd" clip-rule="evenodd" d="M181.925 105.508c-2.063 0-4.039-.376-5.864-1.059a16.633 16.633 0 0 0 8.988 2.621c2.468 0 4.809-.538 6.918-1.497v-3.412a16.665 16.665 0 0 1-10.042 3.347z" fill="#F7A74F"/><path d="M165.772 85.853a2.455 2.455 0 0 0-3.323-2.913M198.079 85.853a2.455 2.455 0 0 1 3.323-2.913M184.728 96.138a3.344 3.344 0 0 1-2.831 1.56 3.345 3.345 0 0 1-2.774-1.473" stroke="#00004D" stroke-linecap="round" stroke-linejoin="round"/><path fill-rule="evenodd" clip-rule="evenodd" d="M175.191 87.393a2.232 2.232 0 0 0 1.333-2.86l-4.193 1.526a2.231 2.231 0 0 0 2.86 1.334zM188.526 87.393a2.232 2.232 0 0 1-1.333-2.86l4.193 1.526a2.231 2.231 0 0 1-2.86 1.334z" fill="#00004D"/><path d="M181.89 84.087l2.178 5.6a1.785 1.785 0 0 1-1.664 2.433h-1.406" stroke="#00004D" stroke-linecap="round" stroke-linejoin="round"/><path fill-rule="evenodd" clip-rule="evenodd" d="M189.942 62.627l-4.904-1.824a8.92 8.92 0 0 0-1.327-.378v-.044c0-.57-.462-1.031-1.031-1.031h-1.509c-.569 0-1.031.462-1.031 1.03v.045a8.92 8.92 0 0 0-1.327.378l-4.904 1.824a13.389 13.389 0 0 0-8.719 12.548v3.78l16.736-2.232 16.735 2.231v-3.779a13.389 13.389 0 0 0-8.719-12.548z" fill="#2384F5"/><path d="M181.936 60.689s-10.082 2.469-10.082 16.026M181.937 60.689s4.533 1.11 7.52 5.93" stroke="#00004D" stroke-linecap="round" stroke-linejoin="round"/><path fill-rule="evenodd" clip-rule="evenodd" d="M165.199 78.949c2.466-1.523 5.159-2.653 8.002-3.418 2.842-.76 5.808-1.098 8.725-1.097 2.916 0 5.882.338 8.725 1.097 2.842.765 5.535 1.895 8.001 3.418a.688.688 0 0 1-.419 1.269h-.009c-1.43-.125-2.818-.324-4.191-.493-1.372-.176-2.723-.34-4.067-.465-2.683-.262-5.34-.363-8.04-.363-2.701 0-5.358.101-8.041.363-1.344.124-2.695.29-4.067.465-1.373.17-2.76.368-4.191.492h-.008a.686.686 0 0 1-.42-1.268z" fill="#006"/><path fill-rule="evenodd" clip-rule="evenodd" d="M217.628 127.875l-6.48-9.373a17.852 17.852 0 0 0-9.868-7.039l-.494-.138-1.996-3.874a4.46 4.46 0 0 0-2.305-2.098l-4.518-1.812v5.367l-.002.004-9.983 9.983-.057.001-10.041-10.041v-5.37l-4.518 1.813a4.458 4.458 0 0 0-2.306 2.098l-2.029 3.939-.46.128a17.858 17.858 0 0 0-9.869 7.039l-6.479 9.373v6.641h71.405v-6.641z" fill="#FB344F"/><path d="M163.031 111.335l18.894 10.936 13.677-7.875" stroke="#00004D" stroke-linecap="round" stroke-linejoin="round"/><path fill-rule="evenodd" clip-rule="evenodd" d="M176.793 131.197a.67.67 0 0 1-.669-.67V118.93l1.338.758v10.839a.67.67 0 0 1-.669.67zM187.058 126.511a.67.67 0 0 1-.67-.67v-6.14l1.339-.771v6.911c0 .37-.3.67-.669.67z" fill="#00004D"/><path d="M170.099 107.07l1.785 1.785" stroke="#00004D" stroke-linecap="round" stroke-linejoin="round"/></g></g><rect x="144.317" y="138.302" width="76.219" height="12.035" rx="6.017" fill="url(#paint22_linear)"/><rect x="118.242" y="155.351" width="128.369" height="12.035" rx="6.017" fill="url(#paint23_linear)"/><rect x="69.101" y="196.469" width="226.651" height="12.035" rx="6.017" fill="url(#paint24_linear)"/><rect x="69.101" y="213.518" width="226.651" height="12.035" rx="6.017" fill="url(#paint25_linear)"/><rect x="69.101" y="329.853" width="226.651" height="12.035" rx="6.017" fill="url(#paint26_linear)"/><rect x="69.101" y="346.902" width="226.651" height="12.035" rx="6.017" fill="url(#paint27_linear)"/><rect x="69.101" y="363.95" width="226.651" height="12.035" rx="6.017" fill="url(#paint28_linear)"/><rect x="118.242" y="388.02" width="128.369" height="33.095" rx="11" fill="url(#paint29_linear)"/><rect x="69.101" y="288.734" width="226.651" height="12.035" rx="6.017" fill="url(#paint30_linear)"/><rect x="69.101" y="271.686" width="75.216" height="12.035" rx="6.017" fill="url(#paint31_linear)"/><rect x="217.527" y="271.686" width="75.216" height="12.035" rx="6.017" fill="url(#paint32_linear)"/></g><defs><filter id="filter0_d" x="316.91" y="122.352" width="252.09" height="305.573" filterUnits="userSpaceOnUse" color-interpolation-filters="sRGB"><feFlood flood-opacity="0" result="BackgroundImageFix"/><feColorMatrix in="SourceAlpha" values="0 0 0 0 0 0 0 0 0 0 0 0 0 0 0 0 0 0 127 0"/><feOffset dx="19" dy="20"/><feGaussianBlur stdDeviation="26.5"/><feColorMatrix values="0 0 0 0 0 0 0 0 0 0 0 0 0 0 0 0 0 0 0.25 0"/><feBlend in2="BackgroundImageFix" result="effect1_dropShadow"/><feBlend in="SourceGraphic" in2="effect1_dropShadow" result="shape"/></filter><filter id="filter1_d" x="181.521" y="66.19" width="314.49" height="390.818" filterUnits="userSpaceOnUse" color-interpolation-filters="sRGB"><feFlood flood-opacity="0" result="BackgroundImageFix"/><feColorMatrix in="SourceAlpha" values="0 0 0 0 0 0 0 0 0 0 0 0 0 0 0 0 0 0 127 0"/><feOffset dx="19" dy="20"/><feGaussianBlur stdDeviation="26.5"/><feColorMatrix values="0 0 0 0 0 0 0 0 0 0 0 0 0 0 0 0 0 0 0.25 0"/><feBlend in2="BackgroundImageFix" result="effect1_dropShadow"/><feBlend in="SourceGraphic" in2="effect1_dropShadow" result="shape"/></filter><filter id="filter2_d" x="0" y="0" width="401.85" height="510.161" filterUnits="userSpaceOnUse" color-interpolation-filters="sRGB"><feFlood flood-opacity="0" result="BackgroundImageFix"/><feColorMatrix in="SourceAlpha" values="0 0 0 0 0 0 0 0 0 0 0 0 0 0 0 0 0 0 127 0"/><feOffset dx="19" dy="20"/><feGaussianBlur stdDeviation="26.5"/><feColorMatrix values="0 0 0 0 0 0 0 0 0 0 0 0 0 0 0 0 0 0 0.25 0"/><feBlend in2="BackgroundImageFix" result="effect1_dropShadow"/><feBlend in="SourceGraphic" in2="effect1_dropShadow" result="shape"/></filter><linearGradient id="paint0_linear" x1="404.82" y1="210.845" x2="443.02" y2="210.237" gradientUnits="userSpaceOnUse"><stop stop-color="#E2E8F0"/><stop offset=".536" stop-color="#CBD5E0"/><stop offset="1" stop-color="#E2E8F0"/></linearGradient><linearGradient id="paint1_linear" x1="391.558" y1="219.264" x2="455.865" y2="217.54" gradientUnits="userSpaceOnUse"><stop stop-color="#E2E8F0"/><stop offset=".536" stop-color="#CBD5E0"/><stop offset="1" stop-color="#E2E8F0"/></linearGradient><linearGradient id="paint2_linear" x1="366.565" y1="239.568" x2="479.934" y2="234.204" gradientUnits="userSpaceOnUse"><stop stop-color="#E2E8F0"/><stop offset=".536" stop-color="#CBD5E0"/><stop offset="1" stop-color="#E2E8F0"/></linearGradient><linearGradient id="paint3_linear" x1="366.565" y1="247.986" x2="479.934" y2="242.622" gradientUnits="userSpaceOnUse"><stop stop-color="#E2E8F0"/><stop offset=".536" stop-color="#CBD5E0"/><stop offset="1" stop-color="#E2E8F0"/></linearGradient><linearGradient id="paint4_linear" x1="366.565" y1="305.432" x2="479.934" y2="300.068" gradientUnits="userSpaceOnUse"><stop stop-color="#E2E8F0"/><stop offset=".536" stop-color="#CBD5E0"/><stop offset="1" stop-color="#E2E8F0"/></linearGradient><linearGradient id="paint5_linear" x1="366.565" y1="313.851" x2="479.934" y2="308.487" gradientUnits="userSpaceOnUse"><stop stop-color="#E2E8F0"/><stop offset=".536" stop-color="#CBD5E0"/><stop offset="1" stop-color="#E2E8F0"/></linearGradient><linearGradient id="paint6_linear" x1="366.565" y1="322.269" x2="479.934" y2="316.905" gradientUnits="userSpaceOnUse"><stop stop-color="#E2E8F0"/><stop offset=".536" stop-color="#CBD5E0"/><stop offset="1" stop-color="#E2E8F0"/></linearGradient><linearGradient id="paint7_linear" x1="391.558" y1="340.272" x2="455.905" y2="339.645" gradientUnits="userSpaceOnUse"><stop stop-color="#E2E8F0"/><stop offset=".536" stop-color="#CBD5E0"/><stop offset="1" stop-color="#E2E8F0"/></linearGradient><linearGradient id="paint8_linear" x1="366.565" y1="285.128" x2="479.934" y2="279.764" gradientUnits="userSpaceOnUse"><stop stop-color="#E2E8F0"/><stop offset=".536" stop-color="#CBD5E0"/><stop offset="1" stop-color="#E2E8F0"/></linearGradient><linearGradient id="paint9_linear" x1="367.687" y1="276.709" x2="405.384" y2="276.117" gradientUnits="userSpaceOnUse"><stop stop-color="#E2E8F0"/><stop offset=".536" stop-color="#CBD5E0"/><stop offset="1" stop-color="#E2E8F0"/></linearGradient><linearGradient id="paint10_linear" x1="440.979" y1="276.709" x2="478.677" y2="276.117" gradientUnits="userSpaceOnUse"><stop stop-color="#E2E8F0"/><stop offset=".536" stop-color="#CBD5E0"/><stop offset="1" stop-color="#E2E8F0"/></linearGradient><linearGradient id="paint11_linear" x1="292.458" y1="178.387" x2="346.974" y2="177.52" gradientUnits="userSpaceOnUse"><stop stop-color="#E2E8F0"/><stop offset=".536" stop-color="#CBD5E0"/><stop offset="1" stop-color="#E2E8F0"/></linearGradient><linearGradient id="paint12_linear" x1="273.532" y1="190.402" x2="365.306" y2="187.943" gradientUnits="userSpaceOnUse"><stop stop-color="#E2E8F0"/><stop offset=".536" stop-color="#CBD5E0"/><stop offset="1" stop-color="#E2E8F0"/></linearGradient><linearGradient id="paint13_linear" x1="237.862" y1="219.379" x2="399.655" y2="211.723" gradientUnits="userSpaceOnUse"><stop stop-color="#E2E8F0"/><stop offset=".536" stop-color="#CBD5E0"/><stop offset="1" stop-color="#E2E8F0"/></linearGradient><linearGradient id="paint14_linear" x1="237.862" y1="231.393" x2="399.655" y2="223.738" gradientUnits="userSpaceOnUse"><stop stop-color="#E2E8F0"/><stop offset=".536" stop-color="#CBD5E0"/><stop offset="1" stop-color="#E2E8F0"/></linearGradient><linearGradient id="paint15_linear" x1="237.862" y1="313.376" x2="399.655" y2="305.72" gradientUnits="userSpaceOnUse"><stop stop-color="#E2E8F0"/><stop offset=".536" stop-color="#CBD5E0"/><stop offset="1" stop-color="#E2E8F0"/></linearGradient><linearGradient id="paint16_linear" x1="237.862" y1="325.39" x2="399.655" y2="317.735" gradientUnits="userSpaceOnUse"><stop stop-color="#E2E8F0"/><stop offset=".536" stop-color="#CBD5E0"/><stop offset="1" stop-color="#E2E8F0"/></linearGradient><linearGradient id="paint17_linear" x1="237.862" y1="337.405" x2="399.655" y2="329.75" gradientUnits="userSpaceOnUse"><stop stop-color="#E2E8F0"/><stop offset=".536" stop-color="#CBD5E0"/><stop offset="1" stop-color="#E2E8F0"/></linearGradient><linearGradient id="paint18_linear" x1="273.532" y1="363.097" x2="365.363" y2="362.202" gradientUnits="userSpaceOnUse"><stop stop-color="#E2E8F0"/><stop offset=".536" stop-color="#CBD5E0"/><stop offset="1" stop-color="#E2E8F0"/></linearGradient><linearGradient id="paint19_linear" x1="237.862" y1="284.399" x2="399.655" y2="276.744" gradientUnits="userSpaceOnUse"><stop stop-color="#E2E8F0"/><stop offset=".536" stop-color="#CBD5E0"/><stop offset="1" stop-color="#E2E8F0"/></linearGradient><linearGradient id="paint20_linear" x1="239.463" y1="272.385" x2="293.262" y2="271.54" gradientUnits="userSpaceOnUse"><stop stop-color="#E2E8F0"/><stop offset=".536" stop-color="#CBD5E0"/><stop offset="1" stop-color="#E2E8F0"/></linearGradient><linearGradient id="paint21_linear" x1="344.061" y1="272.385" x2="397.86" y2="271.54" gradientUnits="userSpaceOnUse"><stop stop-color="#E2E8F0"/><stop offset=".536" stop-color="#CBD5E0"/><stop offset="1" stop-color="#E2E8F0"/></linearGradient><linearGradient id="paint22_linear" x1="143.174" y1="145.381" x2="220.534" y2="144.151" gradientUnits="userSpaceOnUse"><stop stop-color="#E2E8F0"/><stop offset=".536" stop-color="#CBD5E0"/><stop offset="1" stop-color="#E2E8F0"/></linearGradient><linearGradient id="paint23_linear" x1="116.317" y1="162.43" x2="246.546" y2="158.941" gradientUnits="userSpaceOnUse"><stop stop-color="#E2E8F0"/><stop offset=".536" stop-color="#CBD5E0"/><stop offset="1" stop-color="#E2E8F0"/></linearGradient><linearGradient id="paint24_linear" x1="65.701" y1="203.549" x2="295.288" y2="192.686" gradientUnits="userSpaceOnUse"><stop stop-color="#E2E8F0"/><stop offset=".536" stop-color="#CBD5E0"/><stop offset="1" stop-color="#E2E8F0"/></linearGradient><linearGradient id="paint25_linear" x1="65.701" y1="220.597" x2="295.288" y2="209.734" gradientUnits="userSpaceOnUse"><stop stop-color="#E2E8F0"/><stop offset=".536" stop-color="#CBD5E0"/><stop offset="1" stop-color="#E2E8F0"/></linearGradient><linearGradient id="paint26_linear" x1="65.701" y1="336.932" x2="295.288" y2="326.069" gradientUnits="userSpaceOnUse"><stop stop-color="#E2E8F0"/><stop offset=".536" stop-color="#CBD5E0"/><stop offset="1" stop-color="#E2E8F0"/></linearGradient><linearGradient id="paint27_linear" x1="65.701" y1="353.981" x2="295.288" y2="343.118" gradientUnits="userSpaceOnUse"><stop stop-color="#E2E8F0"/><stop offset=".536" stop-color="#CBD5E0"/><stop offset="1" stop-color="#E2E8F0"/></linearGradient><linearGradient id="paint28_linear" x1="65.701" y1="371.03" x2="295.288" y2="360.167" gradientUnits="userSpaceOnUse"><stop stop-color="#E2E8F0"/><stop offset=".536" stop-color="#CBD5E0"/><stop offset="1" stop-color="#E2E8F0"/></linearGradient><linearGradient id="paint29_linear" x1="116.317" y1="407.487" x2="246.627" y2="406.218" gradientUnits="userSpaceOnUse"><stop stop-color="#E2E8F0"/><stop offset=".536" stop-color="#CBD5E0"/><stop offset="1" stop-color="#E2E8F0"/></linearGradient><linearGradient id="paint30_linear" x1="65.701" y1="295.814" x2="295.288" y2="284.951" gradientUnits="userSpaceOnUse"><stop stop-color="#E2E8F0"/><stop offset=".536" stop-color="#CBD5E0"/><stop offset="1" stop-color="#E2E8F0"/></linearGradient><linearGradient id="paint31_linear" x1="67.973" y1="278.765" x2="144.315" y2="277.566" gradientUnits="userSpaceOnUse"><stop stop-color="#E2E8F0"/><stop offset=".536" stop-color="#CBD5E0"/><stop offset="1" stop-color="#E2E8F0"/></linearGradient><linearGradient id="paint32_linear" x1="216.399" y1="278.765" x2="292.741" y2="277.566" gradientUnits="userSpaceOnUse"><stop stop-color="#E2E8F0"/><stop offset=".536" stop-color="#CBD5E0"/><stop offset="1" stop-color="#E2E8F0"/></linearGradient></defs></svg>