<svg viewBox="0 0 691 229" fill="none" xmlns="http://www.w3.org/2000/svg"><rect width="691" height="101" rx="50.5" fill="#4299E1"/><path fill-rule="evenodd" clip-rule="evenodd" d="M361.656 27.4314c11.263 0 20.859 5.2369 24.501 12.5696 2.825-.7995 5.894-1.2415 9.105-1.2415 5.135 0 9.911 1.1248 13.905 3.0492 2.568-4.7427 8.882-8.0975 16.266-8.0975 6.301 0 11.822 2.441 14.901 6.1036 6.379-3.4714 14.275-5.525 22.828-5.525 16.473 0 30.52 7.6183 35.94 18.3107 3.997-2.1057 8.895-3.3498 14.193-3.3498 2.927.0025 5.735.3824 8.336 1.0752V101H352.263V28.7077c2.913-.8244 6.08-1.2763 9.393-1.2763zM531.025 49.4662c11.263 0 20.859 5.2369 24.5 12.5696 2.825-.7996 5.894-1.2416 9.106-1.2416 5.135 0 9.911 1.1249 13.905 3.0493 2.567-4.7428 8.882-8.0975 16.266-8.0975 6.301 0 11.822 2.441 14.901 6.1036 6.378-3.4714 14.274-5.525 22.828-5.525 16.472 0 30.52 7.6183 35.94 18.3107 3.997-2.1057 8.895-3.3498 14.193-3.3498 2.926.0025 5.734.3824 8.336 1.0752V101.5H521.631V50.7425c2.914-.8244 6.081-1.2763 9.394-1.2763z" fill="#fff"/><path fill-rule="evenodd" clip-rule="evenodd" d="M342.793 27c-11.722 0-21.711 5.2369-25.501 12.5697-2.94-.7996-6.135-1.2416-9.477-1.2416-5.345 0-10.316 1.1248-14.473 3.0493-2.672-4.7428-9.244-8.0975-16.93-8.0975-6.558 0-12.305 2.4409-15.51 6.1035-6.639-3.4714-14.857-5.525-23.76-5.525-17.145 0-31.766 7.6183-37.407 18.3107-4.161-2.1057-9.259-3.3498-14.773-3.3498-3.046.0025-5.969.3824-8.677 1.0752V101.5H352.57V28.2763C349.538 27.4519 346.242 27 342.793 27zM166.508 49.0348c-11.723 0-21.711 5.2369-25.501 12.5696-2.941-.7995-6.135-1.2415-9.477-1.2415-5.345 0-10.316 1.1248-14.473 3.0493-2.673-4.7428-9.245-8.0975-16.931-8.0975-6.5573 0-12.3042 2.4409-15.5091 6.1035-6.6389-3.4714-14.8574-5.525-23.7598-5.525-17.1455 0-31.7665 7.6183-37.4077 18.3107-4.1603-2.1057-9.2585-3.3498-14.77265-3.3498-3.04621.0025-5.96901.3824-8.676752 1.0752L-.0000077 102H176.285V50.3111c-3.032-.8244-6.329-1.2763-9.777-1.2763z" fill="#fff"/><path d="M633.021 125.242c-3.305-2.246-6.658-2.636-6.799-2.651h-.015c-2.788-1.832-5.522-2.071-6.273-2.101l-.048-.004h-.132l-.049.004c-.746.03-3.485.269-6.272 2.101h-.015c-.141.015-3.49.405-6.799 2.651-3.08 2.096-6.701 6.234-6.472 14.061.185 6.297 4.464 12.443 12.364 17.775.225.151.488.229.756.229.146 0 .292-.019.434-.073 2.052-.702 4.181-1.048 6.35-1.018 2.003.024 3.987.365 5.888 1.018.36.127.755.093 1.092-.092 1.325-.741 4.791-2.944 8.334-7.433 2.632-3.339 4.021-6.838 4.128-10.406.229-7.827-3.392-11.965-6.472-14.061" fill="#F79545"/><path d="M326.478 108.628l-4.571 6.686h73.497l-3.588-6.686h-65.338" fill="#A97044"/><path d="M324.515 113.94h68.589l-2.111-3.938h-63.788l-2.69 3.938zm70.889 2.749h-73.497c-.511 0-.979-.278-1.218-.731-.238-.453-.207-.999.081-1.418l4.572-6.687c.257-.376.682-.6 1.137-.6h65.338c.506 0 .973.278 1.212.722l3.588 6.691c.229.424.217.941-.031 1.355-.249.414-.697.668-1.182.668z" fill="#171717"/><path d="M294.69 225.434h127.014V125.052c-9.056-3.085-31.115-9.684-61.791-9.923-32.692-.253-56.236 6.863-65.223 9.923v100.382" fill="#DEE3E1"/><path d="M296.008 224.576h124.379v-98.515c-8.427-2.539-26.579-3.743-60.074-4.006-31.649-.249-54.929 1.209-64.305 4.006v98.515zm125.696 2.632H294.69c-.727 0-1.317-.59-1.317-1.316V125.101c0-.565.358-1.067.891-1.248 9.126-3.119 32.585-4.698 66.069-4.435 35.03.273 53.511 1.599 61.798 4.435.533.181.891.683.891 1.248v100.791c0 .726-.59 1.316-1.318 1.316zm200.238-63.233c0 .755-.614 1.369-1.364 1.369h-1.487c-.75 0-1.365-.614-1.365-1.369v-3.202c.727-.181 1.463-.273 2.218-.259.677.005 1.345.093 1.998.259v3.202zm1.808-5.454c-1.208-.448-2.48-.682-3.772-.697-1.384-.02-2.754.214-4.06.692-.531.195-.882.702-.882 1.267v4.192c0 2.237 1.818 4.06 4.055 4.06h1.487c2.237 0 4.055-1.823 4.055-4.06v-4.192c0-.565-.351-1.072-.883-1.262zM493.839 90.8187c.287 0 .575.0926.814.2778.38.2875.828.4435 1.306.4435 1.184 0 2.144-.965 2.144-2.1493 0-1.1844-.96-2.1494-2.144-2.1494-.078 0-.151.0048-.224.0097-.551.0585-1.082-.2339-1.336-.7311-.594-1.1697-1.774-1.9007-3.085-1.9007-1.043 0-2.018.463-2.676 1.2672-.341.4142-.892.5848-1.408.4435-.234-.0683-.478-.1024-.721-.1024-1.468 0-2.657 1.1892-2.657 2.6563 0 1.4621 1.189 2.6562 2.657 2.6562.545 0 1.067-.1657 1.51-.4777.444-.307 1.024-.3216 1.477-.0389.546.3363 1.175.5166 1.818.5166s1.272-.1803 1.813-.5166c.219-.1365.463-.2047.712-.2047zm2.12 3.4117c-.77 0-1.511-.1804-2.179-.5167-1.555.6824-3.407.6775-4.956-.0097-.722.346-1.506.5264-2.315.5264-2.949 0-5.347-2.398-5.347-5.3466 0-2.9487 2.398-5.3466 5.347-5.3466.204 0 .414.0097.618.0341 1.131-1.0528 2.618-1.6425 4.187-1.6425 2.037 0 3.904.9943 5.044 2.6367 2.481.2047 4.441 2.2908 4.441 4.8252 0 2.6659-2.174 4.8397-4.84 4.8397zm-106.252 3.4165c.27 0 .538.0828.769.2437.446.307.969.4727 1.513.4727 1.465 0 2.655-1.1941 2.655-2.6562 0-1.4622-1.19-2.6562-2.655-2.6562-.244 0-.487.0341-.723.1023-.515.1463-1.067-.0292-1.406-.4435-.66-.8042-1.636-1.2623-2.675-1.2623-1.311 0-2.494.7262-3.087 1.9008-.252.4922-.782.7847-1.337.7311-.073-.0098-.147-.0147-.221-.0147-1.185 0-2.149.965-2.149 2.1494 0 1.1843.964 2.1493 2.149 2.1493.475 0 .926-.1511 1.302-.4435.444-.3363 1.051-.3655 1.526-.0731.545.3363 1.174.5166 1.817.5166s1.27-.1803 1.815-.5166c.217-.1316.462-.1998.707-.1998zm2.282 3.4071c-.809 0-1.596-.181-2.314-.527-1.553.688-3.401.692-4.957.01-.67.341-1.41.517-2.178.517-2.668 0-4.839-2.1692-4.839-4.84 0-2.5344 1.955-4.6155 4.436-4.8202 1.14-1.6474 3.007-2.6368 5.048-2.6368 1.568 0 3.054.5898 4.185 1.6425.205-.0243.412-.039.619-.039 2.948 0 5.346 2.3979 5.346 5.3466 0 2.9487-2.398 5.3469-5.346 5.3469" fill="#171717"/><path d="M415.54 144.401H299.9c-.543 0-.983-.443-.983-.984 0-.546.44-.985.983-.985h115.64c.543 0 .983.439.983.985 0 .541-.44.984-.983.984zM415.54 159.51H299.9c-.543 0-.983-.438-.983-.984 0-.541.44-.985.983-.985h115.64c.543 0 .983.444.983.985 0 .546-.44.984-.983.984zM415.54 172.962H299.9c-.543 0-.983-.439-.983-.985 0-.541.44-.979.983-.979h115.64c.543 0 .983.438.983.979 0 .546-.44.985-.983.985M415.54 187.505H299.9c-.543 0-.983-.443-.983-.984 0-.546.44-.985.983-.985h115.64c.543 0 .983.439.983.985 0 .541-.44.984-.983.984zm202.05 39.454c-.746 0-1.345-.604-1.345-1.345v-26.158c0-4.596 1.788-8.914 5.039-12.165 3.246-3.251 7.569-5.04 12.165-5.04.741 0 1.345.6 1.345 1.346 0 .74-.604 1.345-1.345 1.345-3.879 0-7.525 1.511-10.264 4.25-2.744 2.744-4.25 6.389-4.25 10.264v26.158c0 .741-.604 1.345-1.345 1.345zm-3.802 0c-.745 0-1.35-.604-1.35-1.345v-26.158c0-3.875-1.506-7.52-4.25-10.264-2.739-2.739-6.384-4.25-10.264-4.25-.741 0-1.345-.605-1.345-1.345 0-.746.604-1.346 1.345-1.346 4.596 0 8.919 1.789 12.17 5.04 3.246 3.251 5.039 7.569 5.039 12.165v26.158c0 .741-.604 1.345-1.345 1.345" fill="#171717"/><path d="M626.446 192.272c0 .809-.658 1.467-1.467 1.467-.814 0-1.472-.658-1.472-1.467 0-.814.658-1.472 1.472-1.472.809 0 1.467.658 1.467 1.472z" fill="#171717"/><path d="M593.494 182.13c-.809 0-1.467.653-1.467 1.467 0 .809.658 1.467 1.467 1.467s1.467-.658 1.467-1.467c0-.814-.658-1.467-1.467-1.467zm35.423 8.616c2.685-1.086 5.307-1.501 7.793-1.223.741.083 1.404-.448 1.487-1.189.082-.736-.449-1.404-1.19-1.487-2.934-.326-5.994.147-9.104 1.409-.687.278-1.019 1.062-.741 1.75.215.526.717.843 1.248.843.171 0 .341-.034.507-.103zm-25.51.103c-.165 0-.336-.034-.502-.103-2.69-1.086-5.312-1.501-7.798-1.223-.731.083-1.404-.448-1.486-1.189-.078-.736.453-1.404 1.189-1.487 2.934-.326 5.999.147 9.104 1.409.687.278 1.019 1.062.741 1.75-.21.526-.717.843-1.248.843" fill="#F79446"/><path d="M359.467 201.917h11.182v-5.965h-11.182v5.965z" fill="#63CBD1"/><path d="M360.784 200.601h8.547v-3.333h-8.547v3.333zm9.832 2.632H359.5c-.746 0-1.351-.604-1.351-1.35v-5.897c0-.746.605-1.35 1.351-1.35h11.116c.746 0 1.351.604 1.351 1.35v5.897c0 .746-.605 1.35-1.351 1.35" fill="#171717"/><path d="M347.921 195.952v5.965h11.182v-5.965h-11.182z" fill="#63CBD1"/><path d="M349.239 200.601h8.547v-3.333h-8.547v3.333zm9.831 2.632h-11.115c-.746 0-1.351-.604-1.351-1.35v-5.897c0-.746.605-1.35 1.351-1.35h11.115c.746 0 1.351.604 1.351 1.35v5.897c0 .746-.605 1.35-1.351 1.35z" fill="#171717"/><path d="M336.375 195.952v5.965h11.182v-5.965h-11.182z" fill="#63CBD1"/><path d="M337.693 200.601h8.547v-3.333h-8.547v3.333zm9.831 2.632h-11.115c-.747 0-1.351-.604-1.351-1.35v-5.897c0-.746.604-1.35 1.351-1.35h11.115c.746 0 1.351.604 1.351 1.35v5.897c0 .746-.605 1.35-1.351 1.35z" fill="#171717"/><path d="M324.83 195.952v5.965h11.182v-5.965H324.83z" fill="#63CBD1"/><path d="M326.147 200.601h8.547v-3.333h-8.547v3.333zm9.831 2.632h-11.115c-.746 0-1.351-.604-1.351-1.35v-5.897c0-.746.605-1.35 1.351-1.35h11.115c.746 0 1.351.604 1.351 1.35v5.897c0 .746-.605 1.35-1.351 1.35z" fill="#171717"/><path d="M313.833 195.952v5.965h11.182v-5.965h-11.182z" fill="#63CBD1"/><path d="M315.151 200.601h8.547v-3.333h-8.547v3.333zm9.831 2.632h-11.115c-.747 0-1.351-.604-1.351-1.35v-5.897c0-.746.604-1.35 1.351-1.35h11.115c.746 0 1.351.604 1.351 1.35v5.897c0 .746-.605 1.35-1.351 1.35zm325.984 10.552h-10.308c-.741 0-1.345-.604-1.345-1.345 0-.746.604-1.345 1.345-1.345h10.308c.741 0 1.345.599 1.345 1.345 0 .741-.604 1.345-1.345 1.345zm-90.843 5.439h-6.18c-.746 0-1.345-.604-1.345-1.345 0-.746.599-1.345 1.345-1.345h6.18c.741 0 1.345.599 1.345 1.345 0 .741-.604 1.345-1.345 1.345z" fill="#171717"/><path d="M178.432 225.818h115.584V72.6683c-8.241-4.7081-28.315-14.7725-56.23-15.1381-29.751-.385-51.176 10.469-59.354 15.1381V225.818z" fill="#83D5CA"/><path d="M179.75 224.503h112.948V73.4336c-11.692-6.565-30.532-14.2657-54.93-14.5825-27.034-.3558-47.718 8.8119-58.018 14.5825V224.503zm114.266 2.632H178.432c-.728 0-1.317-.59-1.317-1.317V72.6684c0-.4727.253-.9114.664-1.1453 10.291-5.8778 31.776-15.6791 60.024-15.3087 25.428.3314 44.96 8.5097 56.866 15.3087.411.2339.665.6726.665 1.1453V225.818c0 .727-.591 1.317-1.318 1.317z" fill="#171717"/><path d="M294.016 73.3802H178.433l6.688-4.2305 24.378-8.8704 22.813-2.9633 18.486.7993 19.88 4.5278 17.75 7.0427 5.588 3.6944" fill="#B1E4DC"/><path d="M182.983 72.0592h106.648l-1.815-1.1989-17.53-6.955-19.664-4.479-18.253-.7896-22.556 2.9341-24.108 8.768-2.722 1.7204zm111.033 2.6368H178.432c-.586 0-1.102-.3899-1.265-.9504-.163-.5654.066-1.1697.561-1.4817l6.689-4.2256c.08-.0536.165-.0926.254-.1267l24.378-8.8704c.091-.0292.185-.0536.28-.0682l22.814-2.9633c.075-.0097.152-.0097.226-.0097l18.486.7993c.08.0049.158.0146.236.0341l19.879 4.5278c.066.0146.131.0341.193.0585l17.751 7.0426c.084.0342.165.0731.24.1268l5.588 3.6895c.485.3216.703.9211.536 1.4767-.168.5605-.68.9407-1.262.9407" fill="#171717"/><path d="M179.75 224.503h112.948V73.4336c-11.692-6.565-30.532-14.2657-54.93-14.5825-27.034-.3558-47.718 8.8119-58.018 14.5825V224.503zm114.266 2.632H178.432c-.728 0-1.317-.59-1.317-1.317V72.6684c0-.4727.253-.9114.664-1.1453 10.291-5.8778 31.776-15.6791 60.024-15.3087 25.428.3314 44.96 8.5097 56.866 15.3087.411.2339.665.6726.665 1.1453V225.818c0 .727-.591 1.317-1.318 1.317z" fill="#171717"/><path d="M86.4647 222.305h.5741s2.4852.277 5.505-1.404c3.0198-1.677 5.3071-9.085 5.3071-9.085l-.1491-8.895-9.4411-6.618-11.5412 2.831-.2325 2.72v8.666s-.3027 1.735-.966 3.309l1.5465 3.655 5.022 2.891 4.3752 1.93" fill="#48A86D"/><path d="M68.5155 218.922l3.1324-3.923 1.7404-20.47-.1988-16.922-5.6186-8.452-8.4029-1.691-7.9059 3.626-2.8341 6.317-1.4417 18.247.696 17.454 5.1209 6.862 8.751 2.685s3.67-.433 6.3598-2.281l-.5419-1.203 1.1434-.249" fill="#80CB9A"/><path d="M44.4974 212.82s-.8324-3.29-.8324-6.126c0-2.837.2037-15.845.2037-15.845l-3.3956-4.494s-7.2099-1.14-7.4585-1.14c-.2485 0-7.0106 2.383-7.0106 2.383l-4.1271 5.868-1.2495 14.87 3.4873 8.89 11.0946 5.429s3.9939-.487 6.201-2.183c2.2069-1.691 2.4584-4.299 2.4584-4.299l.6287-3.353zm488.3616-7.384l4.011-2.018v-3.991l-7.876-7.184 3.938-1.136.989-2.193-9.533-9.236-9.231 9.007.536 2.875 3.402.381-4.128 6.428-.083 6.424v5.113s-.088 4.849-2.364 6.979c-2.271 2.13 5.863 1.901 5.863 1.901l4.509-1.653h16.093l.57-2.753-6.696-8.944" fill="#48A86D"/><path d="M512.121 191.034l-1.326 21.06-6.565 9.421s-3.285 1.311-6.95 1.067c-3.67-.243-6.77-4.328-6.77-4.328l-1.438-2.407s-2.856-6.288-3.056-8.632c-.195-2.344 0-10.815 0-10.815v-21.04l8.958-7.866 9.149 1.637 6.672 4.854 1.326 17.049" fill="#80CB9A"/><path d="M469.495 179.678l10.2 9.548-1.287 1.881-3.812.683 7.745 10.054-.677 2.252-4.993.775 7.035 8.09v3.329l-4.084 3.392h-18.53l-4.613-.891-2.798-4.021 8.092-9.256-4.764-1.418-.757-2.929 8.47-9.075-4.31-.907-.605-3.256 9.688-8.251" fill="#48A86D"/><path d="M108.814 226.306h37.48v-70.919h-37.48v70.919z" fill="#F6832F"/><path d="M110.191 224.931h34.726v-68.17h-34.726v68.17zm36.067 2.754h-37.409c-.779 0-1.411-.633-1.411-1.413v-70.851c0-.78.632-1.413 1.411-1.413h37.409c.78 0 1.412.633 1.412 1.413v70.851c0 .78-.632 1.413-1.412 1.413" fill="#171717"/><path d="M277.211 92.0322h5.607v-11.473h-5.607v11.473zm-14.26 0h5.607v-11.473h-5.607v11.473zm-14.259 0h5.607v-11.473h-5.607v11.473zm-14.26 0h5.608v-11.473h-5.608v11.473zm-14.26 0h5.608v-11.473h-5.608v11.473zm-14.259 0h5.607v-11.473h-5.607v11.473zm-14.26 0h5.608v-11.473h-5.608v11.473zm85.558 23.3458h5.607v-11.473h-5.607v11.473zm-14.26 0h5.607v-11.473h-5.607v11.473zm-14.259 0h5.607v-11.473h-5.607v11.473zm-14.26 0h5.608v-11.473h-5.608v11.473zm-14.26 0h5.608v-11.473h-5.608v11.473zm-14.259 0h5.608v-11.473h-5.608v11.473zm-14.26 0h5.608v-11.473h-5.608v11.473zm85.558 23.345h5.607V127.25h-5.607v11.473zm-14.26 0h5.607V127.25h-5.607v11.473zm-14.259 0h5.607V127.25h-5.607v11.473zm-14.26 0h5.608V127.25h-5.608v11.473zm-14.26 0h5.608V127.25h-5.608v11.473zm-14.259 0h5.608v-11.472h-5.608v11.472zm-14.26 0h5.608V127.25h-5.608v11.473zm85.558 23.351h5.607v-11.478h-5.607v11.478zm-14.26 0h5.607v-11.478h-5.607v11.478zm-14.259 0h5.607v-11.478h-5.607v11.478zm-14.26 0h5.608v-11.478h-5.608v11.478zm-14.26 0h5.608v-11.478h-5.608v11.478zm-14.259 0h5.608v-11.478h-5.608v11.478zm-14.26 0h5.608v-11.478h-5.608v11.478zm85.558 23.302h5.607v-11.478h-5.607v11.478zm-14.26 0h5.607v-11.478h-5.607v11.478zm-14.259 0h5.607v-11.478h-5.607v11.478zm-14.26 0h5.608v-11.478h-5.608v11.478zm-14.26 0h5.608v-11.478h-5.608v11.478zm-14.259 0h5.608v-11.478h-5.608v11.478zm-14.26 0h5.608v-11.478h-5.608v11.478zm207.736-8.296v5.61h11.475v-5.61h-11.475" fill="#7ED4DA"/><path d="M400.372 181.706h9.509v-3.641h-9.509v3.641zm10.492 1.964h-11.475c-.543 0-.983-.439-.983-.98v-5.61c0-.541.44-.984.983-.984h11.475c.543 0 .983.443.983.984v5.61c0 .541-.44.98-.983.98z" fill="#171717"/><path d="M399.389 162.82v5.609h11.475v-5.609h-11.475" fill="#7ED4DA"/><path d="M400.372 167.445h9.509v-3.641h-9.509v3.641zm10.492 1.969h-11.475c-.543 0-.983-.444-.983-.985v-5.609c0-.541.44-.98.983-.98h11.475c.543 0 .983.439.983.98v5.609c0 .541-.44.985-.983.985z" fill="#171717"/><path d="M399.389 148.563v5.605h11.475v-5.605h-11.475z" fill="#7ED4DA"/><path d="M400.372 153.184h9.509v-3.641h-9.509v3.641zm10.492 1.969h-11.475c-.543 0-.983-.444-.983-.985v-5.604c0-.546.44-.985.983-.985h11.475c.543 0 .983.439.983.985v5.604c0 .541-.44.985-.983.985z" fill="#171717"/><path d="M399.389 134.303v5.605h11.475v-5.605h-11.475z" fill="#7ED4DA"/><path d="M400.372 138.928h9.509v-3.641h-9.509v3.641zm10.492 1.964h-11.475c-.543 0-.983-.438-.983-.984v-5.605c0-.546.44-.985.983-.985h11.475c.543 0 .983.439.983.985v5.605c0 .546-.44.984-.983.984z" fill="#171717"/><path d="M376.043 177.08v5.61h11.475v-5.61h-11.475" fill="#7ED4DA"/><path d="M377.026 181.706h9.508v-3.641h-9.508v3.641zm10.492 1.964h-11.475c-.543 0-.983-.439-.983-.98v-5.61c0-.541.44-.984.983-.984h11.475c.543 0 .983.443.983.984v5.61c0 .541-.44.98-.983.98z" fill="#171717"/><path d="M376.043 162.82v5.609h11.475v-5.609h-11.475" fill="#7ED4DA"/><path d="M377.026 167.445h9.508v-3.641h-9.508v3.641zm10.492 1.969h-11.475c-.543 0-.983-.444-.983-.985v-5.609c0-.541.44-.98.983-.98h11.475c.543 0 .983.439.983.98v5.609c0 .541-.44.985-.983.985z" fill="#171717"/><path d="M376.043 148.563v5.605h11.475v-5.605h-11.475z" fill="#7ED4DA"/><path d="M377.026 153.184h9.508v-3.641h-9.508v3.641zm10.492 1.969h-11.475c-.543 0-.983-.444-.983-.985v-5.604c0-.546.44-.985.983-.985h11.475c.543 0 .983.439.983.985v5.604c0 .541-.44.985-.983.985z" fill="#171717"/><path d="M376.043 134.303v5.605h11.475v-5.605h-11.475z" fill="#7ED4DA"/><path d="M377.026 138.928h9.508v-3.641h-9.508v3.641zm10.492 1.964h-11.475c-.543 0-.983-.438-.983-.984v-5.605c0-.546.44-.985.983-.985h11.475c.543 0 .983.439.983.985v5.605c0 .546-.44.984-.983.984z" fill="#171717"/><path d="M352.697 177.08v5.61h11.475v-5.61h-11.475" fill="#7ED4DA"/><path d="M353.68 181.706h9.509v-3.641h-9.509v3.641zm10.492 1.964h-11.475c-.543 0-.983-.439-.983-.98v-5.61c0-.541.44-.984.983-.984h11.475c.543 0 .983.443.983.984v5.61c0 .541-.44.98-.983.98z" fill="#171717"/><path d="M352.697 162.82v5.609h11.475v-5.609h-11.475" fill="#7ED4DA"/><path d="M353.68 167.445h9.509v-3.641h-9.509v3.641zm10.492 1.969h-11.475c-.543 0-.983-.444-.983-.985v-5.609c0-.541.44-.98.983-.98h11.475c.543 0 .983.439.983.98v5.609c0 .541-.44.985-.983.985z" fill="#171717"/><path d="M352.697 148.563v5.605h11.475v-5.605h-11.475z" fill="#7ED4DA"/><path d="M353.68 153.184h9.509v-3.641h-9.509v3.641zm10.492 1.969h-11.475c-.543 0-.983-.444-.983-.985v-5.604c0-.546.44-.985.983-.985h11.475c.543 0 .983.439.983.985v5.604c0 .541-.44.985-.983.985z" fill="#171717"/><path d="M352.697 134.303v5.605h11.475v-5.605h-11.475z" fill="#7ED4DA"/><path d="M353.68 138.928h9.509v-3.641h-9.509v3.641zm10.492 1.964h-11.475c-.543 0-.983-.438-.983-.984v-5.605c0-.546.44-.985.983-.985h11.475c.543 0 .983.439.983.985v5.605c0 .546-.44.984-.983.984z" fill="#171717"/><path d="M329.351 177.08v5.61h11.475v-5.61h-11.475" fill="#7ED4DA"/><path d="M330.334 181.706h9.509v-3.641h-9.509v3.641zm10.492 1.964h-11.475c-.543 0-.983-.439-.983-.98v-5.61c0-.541.44-.984.983-.984h11.475c.543 0 .983.443.983.984v5.61c0 .541-.44.98-.983.98z" fill="#171717"/><path d="M329.351 162.82v5.609h11.475v-5.609h-11.475" fill="#7ED4DA"/><path d="M330.334 167.445h9.509v-3.641h-9.509v3.641zm10.492 1.969h-11.475c-.543 0-.983-.444-.983-.985v-5.609c0-.541.44-.98.983-.98h11.475c.543 0 .983.439.983.98v5.609c0 .541-.44.985-.983.985z" fill="#171717"/><path d="M329.351 148.563v5.605h11.475v-5.605h-11.475z" fill="#7ED4DA"/><path d="M330.334 153.184h9.509v-3.641h-9.509v3.641zm10.492 1.969h-11.475c-.543 0-.983-.444-.983-.985v-5.604c0-.546.44-.985.983-.985h11.475c.543 0 .983.439.983.985v5.604c0 .541-.44.985-.983.985z" fill="#171717"/><path d="M329.351 134.303v5.605h11.475v-5.605h-11.475z" fill="#7ED4DA"/><path d="M330.334 138.928h9.509v-3.641h-9.509v3.641zm10.492 1.964h-11.475c-.543 0-.983-.438-.983-.984v-5.605c0-.546.44-.985.983-.985h11.475c.543 0 .983.439.983.985v5.605c0 .546-.44.984-.983.984z" fill="#171717"/><path d="M306.049 177.08v5.61h11.475v-5.61h-11.475" fill="#7ED4DA"/><path d="M307.032 181.706h9.508v-3.641h-9.508v3.641zm10.492 1.964h-11.475c-.543 0-.984-.439-.984-.98v-5.61c0-.541.441-.984.984-.984h11.475c.543 0 .983.443.983.984v5.61c0 .541-.44.98-.983.98z" fill="#171717"/><path d="M306.049 162.82v5.609h11.475v-5.609h-11.475" fill="#7ED4DA"/><path d="M307.032 167.445h9.508v-3.641h-9.508v3.641zm10.492 1.969h-11.475c-.543 0-.984-.444-.984-.985v-5.609c0-.541.441-.98.984-.98h11.475c.543 0 .983.439.983.98v5.609c0 .541-.44.985-.983.985z" fill="#171717"/><path d="M306.049 148.563v5.605h11.475v-5.605h-11.475z" fill="#7ED4DA"/><path d="M307.032 153.184h9.508v-3.641h-9.508v3.641zm10.492 1.969h-11.475c-.543 0-.984-.444-.984-.985v-5.604c0-.546.441-.985.984-.985h11.475c.543 0 .983.439.983.985v5.604c0 .541-.44.985-.983.985z" fill="#171717"/><path d="M306.049 134.303v5.605h11.475v-5.605h-11.475z" fill="#7ED4DA"/><path d="M307.032 138.928h9.508v-3.641h-9.508v3.641zm10.492 1.964h-11.475c-.544 0-.984-.438-.984-.984v-5.605c0-.546.44-.985.984-.985h11.475c.543 0 .983.439.983.985v5.605c0 .546-.44.984-.983.984zm-42.12 50.488h9.221c.728 0 1.318-.589 1.318-1.316 0-.726-.59-1.316-1.318-1.316h-9.221c-.728 0-1.318.59-1.318 1.316 0 .727.59 1.316 1.318 1.316zm3.124-7.325h2.972v-8.841h-2.972v8.841zm4.29 2.637h-5.607c-.728 0-1.318-.59-1.318-1.316v-11.478c0-.726.59-1.316 1.318-1.316h5.607c.728 0 1.318.59 1.318 1.316v11.478c0 .726-.59 1.316-1.318 1.316zm-21.674 4.688h9.222c.727 0 1.317-.589 1.317-1.316 0-.726-.59-1.316-1.317-1.316h-9.222c-.727 0-1.317.59-1.317 1.316 0 .727.59 1.316 1.317 1.316zm3.125-7.325h2.972v-8.841h-2.972v8.841zm4.289 2.637h-5.607c-.728 0-1.317-.59-1.317-1.316v-11.478c0-.726.589-1.316 1.317-1.316h5.607c.728 0 1.318.59 1.318 1.316v11.478c0 .726-.59 1.316-1.318 1.316zm-21.673 4.688h9.221c.727 0 1.318-.589 1.318-1.316 0-.726-.591-1.316-1.318-1.316h-9.221c-.728 0-1.318.59-1.318 1.316 0 .727.59 1.316 1.318 1.316zm3.125-7.325h2.971v-8.841h-2.971v8.841zm4.289 2.637h-5.607c-.728 0-1.318-.59-1.318-1.316v-11.478c0-.726.59-1.316 1.318-1.316h5.607c.728 0 1.317.59 1.317 1.316v11.478c0 .726-.589 1.316-1.317 1.316zm-21.674 4.688h9.221c.728 0 1.318-.589 1.318-1.316 0-.726-.59-1.316-1.318-1.316h-9.221c-.728 0-1.318.59-1.318 1.316 0 .727.59 1.316 1.318 1.316zm3.125-7.325h2.972v-8.841h-2.972v8.841zm4.29 2.637h-5.608c-.727 0-1.318-.59-1.318-1.316v-11.478c0-.726.591-1.316 1.318-1.316h5.608c.727 0 1.317.59 1.317 1.316v11.478c0 .726-.59 1.316-1.317 1.316zm-21.674 4.688h9.221c.728 0 1.317-.589 1.317-1.316 0-.726-.589-1.316-1.317-1.316h-9.221c-.728 0-1.318.59-1.318 1.316 0 .727.59 1.316 1.318 1.316zm3.124-7.325h2.972v-8.841h-2.972v8.841zm4.29 2.637h-5.607c-.728 0-1.318-.59-1.318-1.316v-11.478c0-.726.59-1.316 1.318-1.316h5.607c.728 0 1.318.59 1.318 1.316v11.478c0 .726-.59 1.316-1.318 1.316zm-21.674 4.688h9.221c.728 0 1.318-.589 1.318-1.316 0-.726-.59-1.316-1.318-1.316h-9.221c-.728 0-1.317.59-1.317 1.316 0 .727.589 1.316 1.317 1.316zm3.125-7.325h2.972v-8.841h-2.972v8.841zm4.29 2.637h-5.608c-.728 0-1.318-.59-1.318-1.316v-11.478c0-.726.59-1.316 1.318-1.316h5.608c.727 0 1.317.59 1.317 1.316v11.478c0 .726-.59 1.316-1.317 1.316zm-21.674 4.688h9.221c.728 0 1.317-.589 1.317-1.316 0-.726-.589-1.316-1.317-1.316h-9.221c-.728 0-1.318.59-1.318 1.316 0 .727.59 1.316 1.318 1.316zm3.124-7.325h2.972v-8.841h-2.972v8.841zm4.29 2.637h-5.608c-.727 0-1.317-.59-1.317-1.316v-11.478c0-.726.59-1.316 1.317-1.316h5.608c.727 0 1.318.59 1.318 1.316v11.478c0 .726-.591 1.316-1.318 1.316zm78.143-88.6503h9.221c.728 0 1.318-.5898 1.318-1.316 0-.731-.59-1.3208-1.318-1.3208h-9.221c-.728 0-1.318.5898-1.318 1.3208 0 .7262.59 1.316 1.318 1.316zm3.124-7.3254h2.972v-8.8411h-2.972v8.8411zm4.29 2.6367h-5.607c-.728 0-1.318-.5897-1.318-1.3207v-11.473c0-.7262.59-1.3208 1.318-1.3208h5.607c.728 0 1.318.5946 1.318 1.3208v11.473c0 .731-.59 1.3207-1.318 1.3207zm-21.674 4.6887h9.222c.727 0 1.317-.5898 1.317-1.316 0-.731-.59-1.3208-1.317-1.3208h-9.222c-.727 0-1.317.5898-1.317 1.3208 0 .7262.59 1.316 1.317 1.316zm3.125-7.3254h2.972v-8.8411h-2.972v8.8411zm4.289 2.6367h-5.607c-.728 0-1.317-.5897-1.317-1.3207v-11.473c0-.7262.589-1.3208 1.317-1.3208h5.607c.728 0 1.318.5946 1.318 1.3208v11.473c0 .731-.59 1.3207-1.318 1.3207zm-21.673 4.6887h9.221c.727 0 1.318-.5898 1.318-1.316 0-.731-.591-1.3208-1.318-1.3208h-9.221c-.728 0-1.318.5898-1.318 1.3208 0 .7262.59 1.316 1.318 1.316zm3.125-7.3254h2.971v-8.8411h-2.971v8.8411zm4.289 2.6367h-5.607c-.728 0-1.318-.5897-1.318-1.3207v-11.473c0-.7262.59-1.3208 1.318-1.3208h5.607c.728 0 1.317.5946 1.317 1.3208v11.473c0 .731-.589 1.3207-1.317 1.3207zm-21.674 4.6887h9.221c.728 0 1.318-.5898 1.318-1.316 0-.731-.59-1.3208-1.318-1.3208h-9.221c-.728 0-1.317.5898-1.317 1.3208 0 .7262.589 1.316 1.317 1.316zm3.125-7.3254h2.972v-8.8411h-2.972v8.8411zm4.29 2.6367h-5.608c-.728 0-1.318-.5897-1.318-1.3207v-11.473c0-.7262.59-1.3208 1.318-1.3208h5.608c.727 0 1.317.5946 1.317 1.3208v11.473c0 .731-.59 1.3207-1.317 1.3207zm-21.674 4.6887h9.221c.728 0 1.317-.5898 1.317-1.316 0-.731-.589-1.3208-1.317-1.3208h-9.221c-.728 0-1.318.5898-1.318 1.3208 0 .7262.59 1.316 1.318 1.316zm3.124-7.3254h2.972v-8.8411h-2.972v8.8411zm4.29 2.6367h-5.607c-.728 0-1.318-.5897-1.318-1.3207v-11.473c0-.7262.59-1.3208 1.318-1.3208h5.607c.728 0 1.318.5946 1.318 1.3208v11.473c0 .731-.59 1.3207-1.318 1.3207zm-21.674 4.6887h9.221c.728 0 1.318-.5898 1.318-1.316 0-.731-.59-1.3208-1.318-1.3208h-9.221c-.728 0-1.317.5898-1.317 1.3208 0 .7262.589 1.316 1.317 1.316zm3.125-7.3254h2.972v-8.8411h-2.972v8.8411zm4.29 2.6367h-5.608c-.728 0-1.318-.5897-1.318-1.3207v-11.473c0-.7262.59-1.3208 1.318-1.3208h5.608c.727 0 1.317.5946 1.317 1.3208v11.473c0 .731-.59 1.3207-1.317 1.3207zm-21.674 4.6887h9.221c.728 0 1.317-.5898 1.317-1.316 0-.731-.589-1.3208-1.317-1.3208h-9.221c-.728 0-1.318.5898-1.318 1.3208 0 .7262.59 1.316 1.318 1.316zm3.124-7.3254h2.972v-8.8411h-2.972v8.8411zm4.29 2.6367h-5.608c-.727 0-1.317-.5897-1.317-1.3207v-11.473c0-.7262.59-1.3208 1.317-1.3208h5.608c.727 0 1.318.5946 1.318 1.3208v11.473c0 .731-.591 1.3207-1.318 1.3207zm78.143 28.034h9.221c.728 0 1.318-.589 1.318-1.316 0-.731-.59-1.316-1.318-1.316h-9.221c-.728 0-1.318.585-1.318 1.316 0 .727.59 1.316 1.318 1.316zm3.124-7.325h2.972v-8.841h-2.972v8.841zm4.29 2.637h-5.607c-.728 0-1.318-.59-1.318-1.321v-11.473c0-.726.59-1.316 1.318-1.316h5.607c.728 0 1.318.59 1.318 1.316v11.473c0 .731-.59 1.321-1.318 1.321zm-21.674 4.688h9.222c.727 0 1.317-.589 1.317-1.316 0-.731-.59-1.316-1.317-1.316h-9.222c-.727 0-1.317.585-1.317 1.316 0 .727.59 1.316 1.317 1.316zm3.125-7.325h2.972v-8.841h-2.972v8.841zm4.289 2.637h-5.607c-.728 0-1.317-.59-1.317-1.321v-11.473c0-.726.589-1.316 1.317-1.316h5.607c.728 0 1.318.59 1.318 1.316v11.473c0 .731-.59 1.321-1.318 1.321zm-21.673 4.688h9.221c.727 0 1.318-.589 1.318-1.316 0-.731-.591-1.316-1.318-1.316h-9.221c-.728 0-1.318.585-1.318 1.316 0 .727.59 1.316 1.318 1.316zm3.125-7.325h2.971v-8.841h-2.971v8.841zm4.289 2.637h-5.607c-.728 0-1.318-.59-1.318-1.321v-11.473c0-.726.59-1.316 1.318-1.316h5.607c.728 0 1.317.59 1.317 1.316v11.473c0 .731-.589 1.321-1.317 1.321zm-21.674 4.688h9.221c.728 0 1.318-.589 1.318-1.316 0-.731-.59-1.316-1.318-1.316h-9.221c-.728 0-1.317.585-1.317 1.316 0 .727.589 1.316 1.317 1.316zm3.125-7.325h2.972v-8.841h-2.972v8.841zm4.29 2.637h-5.608c-.728 0-1.318-.59-1.318-1.321v-11.473c0-.726.59-1.316 1.318-1.316h5.608c.727 0 1.317.59 1.317 1.316v11.473c0 .731-.59 1.321-1.317 1.321zm-21.674 4.688h9.221c.728 0 1.317-.589 1.317-1.316 0-.731-.589-1.316-1.317-1.316h-9.221c-.728 0-1.318.585-1.318 1.316 0 .727.59 1.316 1.318 1.316zm3.124-7.325h2.972v-8.841h-2.972v8.841zm4.29 2.637h-5.607c-.728 0-1.318-.59-1.318-1.321v-11.473c0-.726.59-1.316 1.318-1.316h5.607c.728 0 1.318.59 1.318 1.316v11.473c0 .731-.59 1.321-1.318 1.321zm-21.674 4.688h9.221c.728 0 1.318-.589 1.318-1.316 0-.731-.59-1.32-1.318-1.32h-9.221c-.728 0-1.317.589-1.317 1.32 0 .727.589 1.316 1.317 1.316zm3.125-7.325h2.972v-8.841h-2.972v8.841zm4.29 2.637h-5.608c-.728 0-1.318-.59-1.318-1.321v-11.473c0-.726.59-1.316 1.318-1.316h5.608c.727 0 1.317.59 1.317 1.316v11.473c0 .731-.59 1.321-1.317 1.321zm-21.674 4.688h9.221c.728 0 1.317-.589 1.317-1.316 0-.731-.589-1.316-1.317-1.316h-9.221c-.728 0-1.318.585-1.318 1.316 0 .727.59 1.316 1.318 1.316zm3.124-7.325h2.972v-8.841h-2.972v8.841zm4.29 2.637h-5.608c-.727 0-1.317-.59-1.317-1.321v-11.473c0-.726.59-1.316 1.317-1.316h5.608c.727 0 1.318.59 1.318 1.316v11.473c0 .731-.591 1.321-1.318 1.321zm78.143 28.034h9.221c.728 0 1.318-.59 1.318-1.316 0-.726-.59-1.316-1.318-1.316h-9.221c-.728 0-1.318.59-1.318 1.316 0 .726.59 1.316 1.318 1.316zm3.124-7.325h2.972v-8.842h-2.972v8.842zm4.29 2.636h-5.607c-.728 0-1.318-.589-1.318-1.321V127.25c0-.726.59-1.315 1.318-1.315h5.607c.728 0 1.318.589 1.318 1.315v11.473c0 .732-.59 1.321-1.318 1.321zm-21.674 4.689h9.222c.727 0 1.317-.59 1.317-1.316 0-.726-.59-1.316-1.317-1.316h-9.222c-.727 0-1.317.59-1.317 1.316 0 .726.59 1.316 1.317 1.316zm3.125-7.325h2.972v-8.842h-2.972v8.842zm4.289 2.636h-5.607c-.728 0-1.317-.589-1.317-1.321V127.25c0-.726.589-1.315 1.317-1.315h5.607c.728 0 1.318.589 1.318 1.315v11.473c0 .732-.59 1.321-1.318 1.321zm-21.673 4.689h9.221c.727 0 1.318-.59 1.318-1.316 0-.726-.591-1.316-1.318-1.316h-9.221c-.728 0-1.318.59-1.318 1.316 0 .726.59 1.316 1.318 1.316zm3.125-7.325h2.971v-8.842h-2.971v8.842zm4.289 2.636h-5.607c-.728 0-1.318-.589-1.318-1.321V127.25c0-.726.59-1.315 1.318-1.315h5.607c.728 0 1.317.589 1.317 1.315v11.473c0 .732-.589 1.321-1.317 1.321zm-21.674 4.689h9.221c.728 0 1.318-.59 1.318-1.316 0-.726-.59-1.316-1.318-1.316h-9.221c-.728 0-1.317.59-1.317 1.316 0 .726.589 1.316 1.317 1.316zm3.125-7.325h2.972v-8.842h-2.972v8.842zm4.29 2.636h-5.608c-.728 0-1.318-.589-1.318-1.321V127.25c0-.726.59-1.315 1.318-1.315h5.608c.727 0 1.317.589 1.317 1.315v11.473c0 .732-.59 1.321-1.317 1.321zm-21.674 4.689h9.221c.728 0 1.317-.59 1.317-1.316 0-.726-.589-1.316-1.317-1.316h-9.221c-.728 0-1.318.59-1.318 1.316 0 .726.59 1.316 1.318 1.316zm3.124-7.325h2.972v-8.842h-2.972v8.842zm4.29 2.636h-5.607c-.728 0-1.318-.589-1.318-1.321V127.25c0-.726.59-1.315 1.318-1.315h5.607c.728 0 1.318.589 1.318 1.315v11.473c0 .732-.59 1.321-1.318 1.321zm-21.674 4.689h9.221c.728 0 1.318-.59 1.318-1.316 0-.726-.59-1.316-1.318-1.316h-9.221c-.728 0-1.317.59-1.317 1.316 0 .726.589 1.316 1.317 1.316zm3.125-7.325h2.972v-8.842h-2.972v8.842zm4.29 2.636h-5.608c-.728 0-1.318-.589-1.318-1.321V127.25c0-.726.59-1.315 1.318-1.315h5.608c.727 0 1.317.589 1.317 1.315v11.473c0 .732-.59 1.321-1.317 1.321zm-21.674 4.689h9.221c.728 0 1.317-.59 1.317-1.316 0-.726-.589-1.316-1.317-1.316h-9.221c-.728 0-1.318.59-1.318 1.316 0 .726.59 1.316 1.318 1.316zm3.124-7.325h2.972v-8.842h-2.972v8.842zm4.29 2.636h-5.608c-.727 0-1.317-.589-1.317-1.321V127.25c0-.726.59-1.315 1.317-1.315h5.608c.727 0 1.318.589 1.318 1.315v11.473c0 .732-.591 1.321-1.318 1.321zm78.143 28.034h9.221c.728 0 1.318-.589 1.318-1.315 0-.727-.59-1.316-1.318-1.316h-9.221c-.728 0-1.318.589-1.318 1.316 0 .726.59 1.315 1.318 1.315zm3.124-7.325h2.972v-8.836h-2.972v8.836zm4.29 2.637h-5.607c-.728 0-1.318-.59-1.318-1.316v-11.478c0-.726.59-1.316 1.318-1.316h5.607c.728 0 1.318.59 1.318 1.316v11.478c0 .726-.59 1.316-1.318 1.316zm-21.674 4.688h9.222c.727 0 1.317-.589 1.317-1.315 0-.727-.59-1.316-1.317-1.316h-9.222c-.727 0-1.317.589-1.317 1.316 0 .726.59 1.315 1.317 1.315zm3.125-7.325h2.972v-8.836h-2.972v8.836zm4.289 2.637h-5.607c-.728 0-1.317-.59-1.317-1.316v-11.478c0-.726.589-1.316 1.317-1.316h5.607c.728 0 1.318.59 1.318 1.316v11.478c0 .726-.59 1.316-1.318 1.316zm-21.673 4.688h9.221c.727 0 1.318-.589 1.318-1.315 0-.727-.591-1.316-1.318-1.316h-9.221c-.728 0-1.318.589-1.318 1.316 0 .726.59 1.315 1.318 1.315zm3.125-7.325h2.971v-8.836h-2.971v8.836zm4.289 2.637h-5.607c-.728 0-1.318-.59-1.318-1.316v-11.478c0-.726.59-1.316 1.318-1.316h5.607c.728 0 1.317.59 1.317 1.316v11.478c0 .726-.589 1.316-1.317 1.316zm-21.674 4.688h9.221c.728 0 1.318-.589 1.318-1.315 0-.727-.59-1.316-1.318-1.316h-9.221c-.728 0-1.317.589-1.317 1.316 0 .726.589 1.315 1.317 1.315zm3.125-7.325h2.972v-8.836h-2.972v8.836zm4.29 2.637h-5.608c-.728 0-1.318-.59-1.318-1.316v-11.478c0-.726.59-1.316 1.318-1.316h5.608c.727 0 1.317.59 1.317 1.316v11.478c0 .726-.59 1.316-1.317 1.316zm-21.674 4.688h9.221c.728 0 1.317-.589 1.317-1.315 0-.727-.589-1.316-1.317-1.316h-9.221c-.728 0-1.318.589-1.318 1.316 0 .726.59 1.315 1.318 1.315zm3.124-7.325h2.972v-8.836h-2.972v8.836zm4.29 2.637h-5.607c-.728 0-1.318-.59-1.318-1.316v-11.478c0-.726.59-1.316 1.318-1.316h5.607c.728 0 1.318.59 1.318 1.316v11.478c0 .726-.59 1.316-1.318 1.316zm-21.674 4.688h9.221c.728 0 1.318-.589 1.318-1.315 0-.727-.59-1.316-1.318-1.316h-9.221c-.728 0-1.317.589-1.317 1.316 0 .726.589 1.315 1.317 1.315zm3.125-7.325h2.972v-8.841h-2.972v8.841zm4.29 2.637h-5.608c-.728 0-1.318-.59-1.318-1.316v-11.478c0-.726.59-1.316 1.318-1.316h5.608c.727 0 1.317.59 1.317 1.316v11.478c0 .726-.59 1.316-1.317 1.316zm-21.674 4.688h9.221c.728 0 1.317-.589 1.317-1.315 0-.727-.589-1.316-1.317-1.316h-9.221c-.728 0-1.318.589-1.318 1.316 0 .726.59 1.315 1.318 1.315zm3.124-7.325h2.972v-8.836h-2.972v8.836zm4.29 2.637h-5.608c-.727 0-1.317-.59-1.317-1.316v-11.478c0-.726.59-1.316 1.317-1.316h5.608c.727 0 1.318.59 1.318 1.316v11.478c0 .726-.591 1.316-1.318 1.316zm-9.03-88.694h97.235c.728 0 1.318-.5897 1.318-1.3159 0-.7311-.59-1.3208-1.318-1.3208h-97.235c-.728 0-1.318.5897-1.318 1.3208 0 .7262.59 1.3159 1.318 1.3159" fill="#171717"/><path d="M226.481 67.6339h22.758v-4.9908h-22.758v4.9908z" fill="#77CF9F"/><path d="M227.798 66.3178h20.123v-2.3541h-20.123v2.3541zm21.408 2.6319h-22.692c-.746 0-1.351-.6044-1.351-1.3501V62.677c0-.7457.605-1.35 1.351-1.35h22.692c.746 0 1.351.6043 1.351 1.35v4.9226c0 .7457-.605 1.3501-1.351 1.3501z" fill="#171717"/><path fill-rule="evenodd" clip-rule="evenodd" d="M212.631 225.833h52.799V97.5005h-52.799V225.833z" fill="#DEE3E1"/><path d="M202.314 178.547h10.221v-10.22h-10.221v10.22z" fill="#63CBD1"/><path d="M203.631 177.231h7.586v-7.588h-7.586v7.588zm8.871 2.637h-10.155c-.746 0-1.351-.604-1.351-1.355v-10.152c0-.746.605-1.35 1.351-1.35h10.155c.746 0 1.351.604 1.351 1.35v10.152c0 .751-.605 1.355-1.351 1.355" fill="#171717"/><path d="M192.041 178.547h10.221v-10.22h-10.221v10.22z" fill="#63CBD1"/><path d="M193.358 177.231h7.587v-7.588h-7.587v7.588zm8.871 2.637h-10.155c-.746 0-1.351-.604-1.351-1.355v-10.152c0-.746.605-1.35 1.351-1.35h10.155c.746 0 1.351.604 1.351 1.35v10.152c0 .751-.605 1.355-1.351 1.355z" fill="#171717"/><path d="M202.314 189.104h10.221v-10.22h-10.221v10.22z" fill="#63CBD1"/><path d="M203.631 187.783h7.586V180.2h-7.586v7.583zm8.871 2.637h-10.155c-.746 0-1.351-.604-1.351-1.35v-10.157c0-.746.605-1.35 1.351-1.35h10.155c.746 0 1.351.604 1.351 1.35v10.157c0 .746-.605 1.35-1.351 1.35" fill="#171717"/><path d="M146.791 225.833h44.314V118.127h-44.314v107.706z" fill="#83D5CA"/><path d="M148.109 224.517h41.678V119.442h-41.678v105.075zm42.962 2.637h-44.247c-.746 0-1.35-.609-1.35-1.355V118.161c0-.746.604-1.355 1.35-1.355h44.247c.746 0 1.351.609 1.351 1.355v107.638c0 .746-.605 1.355-1.351 1.355" fill="#171717"/><path d="M192.041 189.104h10.221v-10.22h-10.221v10.22z" fill="#63CBD1"/><path d="M193.358 187.783h7.587V180.2h-7.587v7.583zm8.871 2.637h-10.155c-.746 0-1.351-.604-1.351-1.35v-10.157c0-.746.605-1.35 1.351-1.35h10.155c.746 0 1.351.604 1.351 1.35v10.157c0 .746-.605 1.35-1.351 1.35z" fill="#171717"/><path d="M202.314 199.656h10.221v-10.22h-10.221v10.22z" fill="#63CBD1"/><path d="M203.631 198.34h7.586v-7.589h-7.586v7.589zm8.871 2.637h-10.155c-.746 0-1.351-.61-1.351-1.355V189.47c0-.746.605-1.35 1.351-1.35h10.155c.746 0 1.351.604 1.351 1.35v10.152c0 .745-.605 1.355-1.351 1.355" fill="#171717"/><path d="M192.041 199.656h10.221v-10.22h-10.221v10.22z" fill="#63CBD1"/><path d="M193.358 198.34h7.587v-7.589h-7.587v7.589zm8.871 2.637h-10.155c-.746 0-1.351-.61-1.351-1.355V189.47c0-.746.605-1.35 1.351-1.35h10.155c.746 0 1.351.604 1.351 1.35v10.152c0 .745-.605 1.355-1.351 1.355z" fill="#171717"/><path d="M202.314 210.213h10.221v-10.226h-10.221v10.226z" fill="#63CBD1"/><path d="M203.631 208.892h7.586v-7.584h-7.586v7.584zm8.871 2.637h-10.155c-.746 0-1.351-.605-1.351-1.351v-10.157c0-.745.605-1.35 1.351-1.35h10.155c.746 0 1.351.605 1.351 1.35v10.157c0 .746-.605 1.351-1.351 1.351" fill="#171717"/><path d="M192.041 210.213h10.221v-10.226h-10.221v10.226z" fill="#63CBD1"/><path d="M193.358 208.892h7.587v-7.584h-7.587v7.584zm8.871 2.637h-10.155c-.746 0-1.351-.605-1.351-1.351v-10.157c0-.745.605-1.35 1.351-1.35h10.155c.746 0 1.351.605 1.351 1.35v10.157c0 .746-.605 1.351-1.351 1.351z" fill="#171717"/><path d="M242.984 224.517h-7.655v-24.925l4.184-14.762h3.471v39.687" fill="#A0A6A5"/><path d="M202.314 220.262h10.221v-10.22h-10.221v10.22z" fill="#63CBD1"/><path d="M203.631 218.947h7.586v-7.589h-7.586v7.589zm8.871 2.636h-10.155c-.746 0-1.351-.609-1.351-1.355v-10.152c0-.745.605-1.35 1.351-1.35h10.155c.746 0 1.351.605 1.351 1.35v10.152c0 .746-.605 1.355-1.351 1.355" fill="#171717"/><path d="M192.041 220.262h10.221v-10.22h-10.221v10.22z" fill="#63CBD1"/><path d="M193.358 218.946h7.587v-7.588h-7.587v7.588zm8.871 2.637h-10.155c-.746 0-1.351-.609-1.351-1.355v-10.152c0-.746.605-1.35 1.351-1.35h10.155c.746 0 1.351.604 1.351 1.35v10.152c0 .746-.605 1.355-1.351 1.355zm11.72 2.934h50.164V97.4469h-50.164V224.517zm51.482 2.637h-52.8c-.727 0-1.317-.59-1.317-1.321V96.131c0-.7262.59-1.3159 1.317-1.3159h52.8c.727 0 1.317.5897 1.317 1.3159v129.702c0 .731-.59 1.321-1.317 1.321" fill="#171717"/><path d="M663.482 220.808c0 2.954-2.393 5.342-5.342 5.342-2.954 0-5.342-2.388-5.342-5.342 0-2.948 2.388-5.337 5.342-5.337 2.949 0 5.342 2.389 5.342 5.337zm16.805 1.16c0 2.666-2.164 4.83-4.835 4.83s-4.835-2.164-4.835-4.83c0-2.671 2.164-4.835 4.835-4.835s4.835 2.164 4.835 4.835z" fill="#80CB9A"/><path d="M219.049 123.585h39.157c.728 0 1.318-.589 1.318-1.321 0-.726-.59-1.316-1.318-1.316h-39.157c-.728 0-1.318.59-1.318 1.316 0 .732.59 1.321 1.318 1.321M219.049 117.483h39.157c.728 0 1.318-.589 1.318-1.316 0-.731-.59-1.32-1.318-1.32h-39.157c-.728 0-1.318.589-1.318 1.32 0 .727.59 1.316 1.318 1.316M221.118 226.16c.727 0 1.317-.59 1.317-1.316v-95.849c0-.731-.59-1.321-1.317-1.321-.728 0-1.318.59-1.318 1.321v95.849c0 .726.59 1.316 1.318 1.316M230.088 226.16c.729 0 1.318-.59 1.318-1.316v-95.849c0-.731-.589-1.321-1.318-1.321-.727 0-1.317.59-1.317 1.321v95.849c0 .726.59 1.316 1.317 1.316M239.06 226.16c.727 0 1.317-.59 1.317-1.316v-95.849c0-.731-.59-1.321-1.317-1.321-.729 0-1.318.59-1.318 1.321v95.849c0 .726.589 1.316 1.318 1.316M248.031 226.16c.727 0 1.317-.59 1.317-1.316v-95.849c0-.731-.59-1.321-1.317-1.321-.728 0-1.318.59-1.318 1.321v95.849c0 .726.59 1.316 1.318 1.316M257.002 226.16c.728 0 1.317-.59 1.317-1.316v-95.849c0-.731-.589-1.321-1.317-1.321s-1.318.59-1.318 1.321v95.849c0 .726.59 1.316 1.318 1.316" fill="#171717"/><path d="M242.984 225.984h70.725v-28.877h-70.725v28.877" fill="#F79545"/><path d="M244.302 224.663h68.09v-26.24h-68.09v26.24zm69.374 2.637h-70.658c-.747 0-1.351-.604-1.351-1.35v-28.809c0-.746.604-1.35 1.351-1.35h70.658c.746 0 1.351.604 1.351 1.35v28.809c0 .746-.605 1.35-1.351 1.35" fill="#171717"/><path d="M239.75 196.814h76.181l-2.222-12.823h-71.737l-2.222 12.823" fill="#A97044"/><path d="M241.316 195.494h73.049l-1.765-10.187h-69.52l-1.764 10.187zm74.615 2.636H239.75c-.389 0-.758-.17-1.008-.467-.251-.298-.357-.693-.29-1.073l2.221-12.823c.11-.633.658-1.091 1.299-1.091h71.737c.641 0 1.189.458 1.298 1.091l2.222 12.823c.066.38-.04.775-.29 1.073-.25.297-.62.467-1.008.467" fill="#171717"/><path d="M265.578 215.549h9.105v-10.976h-9.105v10.976zm-15.885 0h9.106v-10.327h-9.106v10.327z" fill="#F79446"/><path d="M265.578 215.549h9.105v-10.327h-9.105v10.327z" fill="#63CBD1"/><path d="M266.896 214.234h6.47v-7.696h-6.47v7.696zm7.754 2.636h-9.039c-.746 0-1.351-.604-1.351-1.35v-10.264c0-.746.605-1.355 1.351-1.355h9.039c.746 0 1.351.609 1.351 1.355v10.264c0 .746-.605 1.35-1.351 1.35z" fill="#171717"/><path d="M281.39 215.549h9.105v-10.327h-9.105v10.327z" fill="#63CBD1"/><path d="M282.708 214.234h6.47v-7.696h-6.47v7.696zm7.754 2.636h-9.039c-.746 0-1.351-.604-1.351-1.35v-10.264c0-.746.605-1.355 1.351-1.355h9.039c.746 0 1.351.609 1.351 1.355v10.264c0 .746-.605 1.35-1.351 1.35z" fill="#171717"/><path d="M297.316 215.549h9.106v-10.327h-9.106v10.327z" fill="#63CBD1"/><path d="M298.633 214.234h6.471v-7.696h-6.471v7.696zm7.755 2.636h-9.039c-.746 0-1.351-.604-1.351-1.35v-10.264c0-.746.605-1.355 1.351-1.355h9.039c.746 0 1.351.609 1.351 1.355v10.264c0 .746-.605 1.35-1.351 1.35z" fill="#171717"/><path d="M249.693 215.549h9.106v-10.327h-9.106v10.327z" fill="#63CBD1"/><path d="M251.011 214.233h6.47v-7.695h-6.47v7.695zm7.755 2.637h-9.04c-.746 0-1.351-.604-1.351-1.35v-10.264c0-.746.605-1.355 1.351-1.355h9.04c.746 0 1.35.609 1.35 1.355v10.264c0 .746-.604 1.35-1.35 1.35zM60.1777 204.574c-.7389 0-1.3379-.6-1.3379-1.341s.599-1.34 1.3379-1.34c.7394 0 1.3383.599 1.3383 1.34 0 .741-.5989 1.341-1.3383 1.341zm-26.3454 1.335c-.7388 0-1.3382-.6-1.3382-1.335 0-.741.5994-1.341 1.3382-1.341.7391 0 1.3379.6 1.3379 1.341 0 .735-.5988 1.335-1.3379 1.335zm56.3642 13.076c4.2378-1.803 6.9945-5.887 7.0851-10.449-.1798-6.234-5.3037-11.254-11.5812-11.254-3.7543 0-7.0948 1.799-9.2134 4.572v-3.958c2.4939-2.095 5.7067-3.367 9.2134-3.367 7.7957 0 14.1541 6.253 14.3336 14.007-.0903 5.668-3.5049 10.747-8.7608 12.979-.6994.297-1.508-.024-1.8053-.726-.2973-.702.0288-1.511.7286-1.804" fill="#171717"/><path d="M87.0388 208.034c0 .741-.5995 1.34-1.3384 1.34-.7388 0-1.3383-.599-1.3383-1.34 0-.741.5995-1.34 1.3383-1.34.7389 0 1.3384.599 1.3384 1.34zm-53.2064-24.462c3.904 0 7.4476 1.575 10.036 4.114v4.445c-2.0055-3.466-5.7518-5.805-10.036-5.805-6.3906 0-11.5896 5.2-11.5896 11.59v10.391c0 5.926 4.4692 10.82 10.2131 11.507v-10.191c0-.76.6161-1.375 1.3765-1.375.7602 0 1.3766.615 1.3766 1.375v17.565c0 .76-.6164 1.374-1.3766 1.374-.7604 0-1.3765-.614-1.3765-1.374v-4.606c-7.2652-.697-12.9665-6.833-12.9665-14.275v-10.391c0-7.905 6.4345-14.344 14.343-14.344zm4.4963 35.413c2.8421-1.208 5.0148-3.445 6.1685-6.165.3299 1.16.7846 2.271 1.3495 3.309-1.5289 2.34-3.7416 4.241-6.4418 5.386-.6991.297-1.5076-.024-1.8048-.726-.2974-.702.0287-1.511.7286-1.804zm45.9954.829v-6.253c0-.76.616-1.375 1.3763-1.375.7604 0 1.3769.615 1.3769 1.375v13.627c0 .76-.6165 1.374-1.3769 1.374-.7603 0-1.3763-.614-1.3763-1.374v-4.606c-4.1837-.399-7.8444-2.607-10.1995-5.824.5605-.926 1.0279-1.906 1.3964-2.929 1.7565 3.226 4.9981 5.532 8.8031 5.985zM45.835 180.755c0-7.91 6.434-14.343 14.3427-14.343 7.9083 0 14.3427 6.433 14.3427 14.343v27.552c0 5.761-3.4424 10.946-8.77 13.208-.6994.297-1.5079-.024-1.8052-.726-.2973-.702.0292-1.511.7291-1.804 4.3089-1.832 7.0929-6.024 7.0929-10.678v-27.552c0-6.389-5.1989-11.59-11.5895-11.59-6.3901 0-11.5895 5.201-11.5895 11.59v27.552c0 5.926 4.4693 10.82 10.2126 11.507v-10.191c0-.76.6166-1.375 1.3769-1.375s1.3764.615 1.3764 1.375v17.565c0 .76-.6161 1.374-1.3764 1.374-.7603 0-1.3769-.614-1.3769-1.374v-4.606c-7.2644-.697-12.9658-6.833-12.9658-14.275v-27.552zm-22.8682-3.748h.1982c.3651 0 .7158-.146.974-.404.2581-.259.4028-.61.4024-.975-.0011-.926.3654-1.794 1.0323-2.447.6456-.633 1.4962-.97 2.3387-.955.7652.019 1.39-.585 1.4062-1.345.0165-.761-.5862-1.389-1.3462-1.404-1.5817-.029-3.1634.595-4.3254 1.735-.2106.205-.4045.424-.5812.653-.1767-.229-.3707-.448-.5811-.653-1.1623-1.14-2.736-1.764-4.3253-1.735-.7602.015-1.3628.643-1.3462 1.404.016.75.629 1.345 1.3754 1.345h.0991c.8381 0 1.6419.336 2.2704.955.6667.653 1.0332 1.521 1.032 2.447-.0003.365.1445.716.4025.975.2581.258.6089.404.9742.404zm-13.13075-8.324h.19815c.3652 0 .7159-.142.974-.405.2582-.253.4031-.609.4027-.975-.0011-.921.3651-1.793 1.0321-2.446.6452-.629 1.4733-.965 2.339-.951.7701.035 1.3892-.584 1.4058-1.345.0166-.76-.5866-1.389-1.3466-1.408-1.584-.034-3.1638.599-4.3253 1.74-.2105.204-.404.424-.58067.653-.17648-.229-.3705-.449-.58086-.653-1.16231-1.141-2.75429-1.774-4.32532-1.74-.76002.019-1.36316.648-1.34659 1.408.01618.751.62921 1.345 1.37535 1.345h.0984c.83883 0 1.64321.337 2.27149.951.6665.653 1.03281 1.525 1.03169 2.446-.00039.366.14446.722.40243.975.25817.263.60889.405.97423.405zm-.27186 14.124h.12428c.36533 0 .71563-.146.97423-.404.258-.259.4028-.61.4024-.975-.0003-.444.1756-.858.4951-1.17.3069-.302.7145-.453 1.1004-.453h.0308c.7463 0 1.3593-.595 1.3753-1.345.0166-.761-.586-1.389-1.3462-1.409-1.1468-.029-2.2592.429-3.08686 1.238l-.00741.01-.00687-.01c-.82777-.809-1.94743-1.272-3.08742-1.238-.76002.02-1.36257.648-1.3462 1.409.01619.76.65032 1.374 1.40615 1.345.38571 0 .7939.151 1.101.453.31948.312.49537.726.49459 1.17-.00034.365.14432.716.40248.975.25817.258.60884.404.97423.404" fill="#171717"/><path d="M586.524 111.786l2.115-5.22s-.175-3.768-.565-3.719c-.39.054-3.339-2.066-3.339-2.066l-4.235-2.1644-2.832-2.4954-3.948-.6287-3.986-1.6278-7.998-1.8326-6.161 3.4799-11.965 6.853-.19 7.276 2.51 2.403 7.164-.721 6.853.721 11.761-.4 8.373.4 6.443-.258" fill="#63CBD1"/><path d="M569.69 123.975c.38 0 .751-.156 1.024-.453l5.034-5.585c.507-.566.463-1.438-.102-1.945-.566-.507-1.433-.463-1.945.102l-5.03 5.581c-.511.565-.467 1.438.098 1.945.263.238.594.355.921.355zm-6.37 0c.375 0 .751-.156 1.023-.453l5.035-5.585c.507-.566.463-1.438-.102-1.945-.566-.507-1.433-.463-1.945.102l-5.035 5.581c-.506.565-.463 1.438.103 1.945.263.238.594.355.921.355zm-6.37 0c.375 0 .75-.156 1.023-.453l5.035-5.585c.507-.566.463-1.438-.102-1.945-.566-.507-1.433-.463-1.945.102l-5.035 5.581c-.507.565-.463 1.438.103 1.945.263.238.594.355.921.355zm-6.37 0c.375 0 .75-.156 1.023-.453l5.035-5.585c.507-.566.463-1.438-.102-1.945-.566-.507-1.438-.463-1.945.102l-5.035 5.581c-.507.565-.463 1.438.103 1.945.263.238.589.355.921.355zm28.38-14.655c.312 0 .624.102.877.312.809.667 1.833 1.033 2.886 1.033 2.505 0 4.542-2.037 4.542-4.538 0-2.505-2.037-4.542-4.542-4.542-.19 0-.39.015-.595.039-.599.073-1.175-.239-1.428-.785-1.131-2.4318-3.592-4.0012-6.268-4.0012-.614 0-1.228.0829-1.827.2486-.532.1414-1.097-.0438-1.438-.4727-1.657-2.0714-4.123-3.2655-6.77-3.2655-2.525 0-4.918 1.1014-6.565 3.0217-.273.3168-.682.4923-1.101.4777-.088-.0049-.171-.0098-.259-.0098-2.68 0-5.142 1.5694-6.272 4.0012-.254.546-.829.858-1.428.785-.2-.024-.4-.039-.595-.039-2.5 0-4.538 2.037-4.538 4.542 0 2.501 2.038 4.538 4.538 4.538 1.053 0 2.076-.366 2.885-1.033.468-.381 1.126-.42 1.633-.088 1.121.736 2.427 1.121 3.777 1.121 1.102 0 2.154-.254 3.134-.751.375-.195.819-.204 1.199-.029 1.136.517 2.344.78 3.592.78 1.613 0 3.188-.444 4.552-1.292.468-.292 1.068-.273 1.516.044 1.17.819 2.539 1.248 3.967 1.248 1.345 0 2.652-.385 3.777-1.121.23-.151.493-.224.751-.224zm3.763 4.099c-1.36 0-2.691-.381-3.836-1.087-1.37.711-2.895 1.087-4.455 1.087-1.696 0-3.338-.439-4.796-1.272-1.613.833-3.406 1.272-5.239 1.272-1.428 0-2.817-.259-4.133-.775-1.199.516-2.476.775-3.792.775-1.564 0-3.085-.376-4.459-1.087-1.146.706-2.476 1.087-3.836 1.087-4.021 0-7.291-3.271-7.291-7.292 0-4.016 3.255-7.2811 7.267-7.2958 1.676-2.8317 4.717-4.6399 8.032-4.7422 2.144-2.2273 5.103-3.4945 8.212-3.4945 3.197 0 6.195 1.3159 8.349 3.6407.556-.1023 1.121-.1511 1.686-.1511 3.422 0 6.59 1.8375 8.32 4.7471 4.006.0147 7.267 3.2798 7.267 7.2958 0 4.021-3.275 7.292-7.296 7.292zM454.359 211.441l5.272-5.274h-.087c-1.793 0-3.338-1.028-4.033-2.685-.687-1.643-.343-3.446.893-4.699l5.62-5.624h-.034c-1.468 0-2.784-.877-3.353-2.232-.572-1.365-.285-2.866.739-3.909l7.413-7.413c1.492-1.491 3.92-1.491 5.413 0l7.376 7.374.029.029c1.033 1.053 1.321 2.554.746 3.919-.566 1.355-1.886 2.232-3.353 2.232h-.034l5.585 5.585.029.035c1.243 1.257 1.589 3.06.902 4.703-.697 1.657-2.242 2.685-4.036 2.685h-.088l5.235 5.235.034.034c1.384 1.408 1.769 3.416 1.004 5.249-.775 1.852-2.5 2.997-4.503 2.997h-6.625c-.76 0-1.376-.614-1.376-1.374 0-.76.616-1.379 1.376-1.379h6.625c1.043 0 1.696-.678 1.964-1.311.331-.795.175-1.638-.424-2.252l-.044-.039-7.561-7.559c-.393-.395-.511-.99-.298-1.501.213-.517.715-.848 1.272-.848h3.409c.999 0 1.394-.766 1.496-1.005.093-.224.351-1.018-.321-1.705l.979-.965-1.013.931-7.917-7.916c-.394-.394-.512-.989-.299-1.501.213-.516.715-.853 1.272-.853H477c.543 0 .761-.414.815-.545.066-.156.181-.561-.196-.941l-7.364-7.364c-.419-.42-1.1-.42-1.519 0l-7.388 7.388c-.353.356-.237.761-.172.917.054.131.272.545.814.545h3.358c.557 0 1.059.337 1.272.853.213.512.095 1.107-.299 1.501l-7.915 7.916-.034.034c-.675.687-.417 1.481-.321 1.705.098.239.496 1.005 1.493 1.005h3.41c.557 0 1.059.331 1.272.848.213.511.095 1.106-.299 1.501l-7.561 7.559-.04.044c-.601.609-.76 1.452-.425 2.247.265.633.92 1.311 1.96 1.311h11.124c.177 0 .345.039.501.097h.009c.761 0 1.377.619 1.377 1.38v8.782c0 .76-.616 1.374-1.377 1.374-.76 0-1.376-.614-1.376-1.374v-7.506h-10.258c-2 0-3.724-1.15-4.5-2.997-.766-1.833-.382-3.841.998-5.244z" fill="#171717"/><path d="M469.496 214.77c-.739 0-1.338-.6-1.338-1.336 0-.741.599-1.34 1.338-1.34.739 0 1.338.599 1.338 1.34 0 .736-.599 1.336-1.338 1.336zm29.158-9.334c-.736 0-1.335-.599-1.335-1.34 0-.741.599-1.34 1.335-1.34.741 0 1.34.599 1.34 1.34 0 .741-.599 1.34-1.34 1.34zm19.398-2.017c.556 0 1.058.331 1.272.848.21.511.093 1.106-.302 1.501l-4.138 4.138c.054-.527.083-1.063.083-1.599v-4.888h3.085" fill="#171717"/><path d="M528.74 190.405h3.358c.541 0 .76-.414.814-.545.063-.156.18-.561-.195-.941l-7.364-7.364c-.419-.42-1.102-.42-1.521 0l-7.389 7.388c-.35.356-.238.761-.17.917.053.131.268.545.814.545h3.358c.555 0 1.057.337 1.272.853.209.512.092 1.107-.302 1.501l-6.448 6.453v-3.894l2.154-2.159h-.034c-.785 0-1.516-.253-2.12-.692v-5.941l6.92-6.921c1.492-1.491 3.919-1.491 5.41 0l7.375 7.374.029.029c1.033 1.053 1.321 2.554.75 3.919-.57 1.355-1.886 2.232-3.353 2.232h-.034l5.581 5.586.034.034c1.238 1.257 1.584 3.06.896 4.703-.697 1.657-2.242 2.685-4.03 2.685h-.088l5.23 5.235.039.034c1.384 1.409 1.764 3.417.999 5.249-.775 1.852-2.5 2.997-4.499 2.997h-6.628c-.76 0-1.375-.614-1.375-1.374 0-.76.615-1.379 1.375-1.379h6.628c1.038 0 1.696-.678 1.96-1.311.336-.795.175-1.638-.424-2.252l-.039-.039-7.565-7.559c-.394-.395-.511-.99-.297-1.501.215-.517.717-.848 1.272-.848h3.412c.994 0 1.394-.766 1.491-1.004.098-.225.356-1.019-.321-1.706l.979-.965-1.014.931-7.915-7.916c-.394-.394-.511-.989-.297-1.501.21-.516.716-.853 1.272-.853zm-15.781 26.524h11.122c.175 0 .346.039.502.097h.009c.761 0 1.375.619 1.375 1.38v8.782c0 .761-.614 1.374-1.375 1.374-.76 0-1.379-.613-1.379-1.374v-7.506h-10.254c-.775 0-1.511-.17-2.164-.492.643-.716 1.223-1.491 1.725-2.305.141.029.283.044.439.044zm-28.644-8.588l-.005-.034v-2.437c.4-.478.731-1.023.985-1.628.936-2.232.555-4.674-.985-6.482v-17.005c0-7.91 6.439-14.343 14.344-14.343 7.91 0 14.344 6.433 14.344 14.343v27.552c0 5.761-3.441 10.947-8.768 13.208-.702.297-1.511-.024-1.809-.726-.297-.702.03-1.511.732-1.803 4.308-1.833 7.091-6.025 7.091-10.679v-27.552c0-6.389-5.2-11.59-11.59-11.59s-11.59 5.201-11.59 11.59v27.552c0 5.927 4.469 10.82 10.216 11.507v-10.191c0-.76.614-1.375 1.374-1.375.76 0 1.379.615 1.379 1.375v17.565c0 .761-.619 1.374-1.379 1.374s-1.374-.613-1.374-1.374v-4.606c-3.943-.375-7.423-2.359-9.782-5.278.999-2.534.448-5.298-1.467-7.247l-1.716-1.716zm-346.153-41.603c1.337 0 2.421 1.082 2.421 2.418 0 1.34-1.084 2.422-2.421 2.422-1.337 0-2.422-1.082-2.422-2.422 0-1.336 1.085-2.418 2.422-2.418zm-7.02 0c1.338 0 2.422 1.082 2.422 2.418 0 1.34-1.084 2.422-2.422 2.422-1.336 0-2.421-1.082-2.421-2.422 0-1.336 1.085-2.418 2.421-2.418zm-7.019 0c1.338 0 2.422 1.082 2.422 2.418 0 1.34-1.084 2.422-2.422 2.422-1.337 0-2.421-1.082-2.421-2.422 0-1.336 1.084-2.418 2.421-2.418zm-7.019 4.84c-1.337 0-2.421-1.082-2.421-2.422 0-1.336 1.084-2.418 2.421-2.418 1.337 0 2.422 1.082 2.422 2.418 0 1.34-1.085 2.422-2.422 2.422zm21.058 2.992c1.337 0 2.421 1.087 2.421 2.423 0 1.34-1.084 2.422-2.421 2.422-1.337 0-2.422-1.082-2.422-2.422 0-1.336 1.085-2.423 2.422-2.423zm-7.02 0c1.338 0 2.422 1.087 2.422 2.423 0 1.34-1.084 2.422-2.422 2.422-1.336 0-2.421-1.082-2.421-2.422 0-1.336 1.085-2.423 2.421-2.423zm-7.019 0c1.338 0 2.422 1.087 2.422 2.423 0 1.34-1.084 2.422-2.422 2.422-1.337 0-2.421-1.082-2.421-2.422 0-1.336 1.084-2.423 2.421-2.423zm-7.019 0c1.337 0 2.422 1.087 2.422 2.423 0 1.34-1.085 2.422-2.422 2.422-1.337 0-2.421-1.082-2.421-2.422 0-1.336 1.084-2.423 2.421-2.423zm21.058 7.838c1.337 0 2.421 1.086 2.421 2.422 0 1.335-1.084 2.422-2.421 2.422-1.337 0-2.422-1.087-2.422-2.422 0-1.336 1.085-2.422 2.422-2.422zm-7.02 0c1.338 0 2.422 1.086 2.422 2.422 0 1.335-1.084 2.422-2.422 2.422-1.336 0-2.421-1.087-2.421-2.422 0-1.336 1.085-2.422 2.421-2.422zm-7.019 0c1.338 0 2.422 1.086 2.422 2.422 0 1.335-1.084 2.422-2.422 2.422-1.337 0-2.421-1.087-2.421-2.422 0-1.336 1.084-2.422 2.421-2.422zm-7.019 0c1.337 0 2.422 1.086 2.422 2.422 0 1.335-1.085 2.422-2.422 2.422-1.337 0-2.421-1.087-2.421-2.422 0-1.336 1.084-2.422 2.421-2.422zm21.058 7.837c1.337 0 2.421 1.082 2.421 2.422 0 1.335-1.084 2.417-2.421 2.417-1.337 0-2.422-1.082-2.422-2.417 0-1.34 1.085-2.422 2.422-2.422zm-7.02 0c1.338 0 2.422 1.082 2.422 2.422 0 1.335-1.084 2.417-2.422 2.417-1.336 0-2.421-1.082-2.421-2.417 0-1.34 1.085-2.422 2.421-2.422zm-7.019 0c1.338 0 2.422 1.082 2.422 2.422 0 1.335-1.084 2.417-2.422 2.417-1.337 0-2.421-1.082-2.421-2.417 0-1.34 1.084-2.422 2.421-2.422zm-7.019 0c1.337 0 2.422 1.082 2.422 2.422 0 1.335-1.085 2.417-2.422 2.417-1.337 0-2.421-1.082-2.421-2.417 0-1.34 1.084-2.422 2.421-2.422zm21.058 7.837c1.337 0 2.421 1.082 2.421 2.417 0 1.34-1.084 2.422-2.421 2.422-1.337 0-2.422-1.082-2.422-2.422 0-1.335 1.085-2.417 2.422-2.417zm-7.02 0c1.338 0 2.422 1.082 2.422 2.417 0 1.34-1.084 2.422-2.422 2.422-1.336 0-2.421-1.082-2.421-2.422 0-1.335 1.085-2.417 2.421-2.417zm-7.019 0c1.338 0 2.422 1.082 2.422 2.417 0 1.34-1.084 2.422-2.422 2.422-1.337 0-2.421-1.082-2.421-2.422 0-1.335 1.084-2.417 2.421-2.417zm-7.019 0c1.337 0 2.422 1.082 2.422 2.417 0 1.34-1.085 2.422-2.422 2.422-1.337 0-2.421-1.082-2.421-2.422 0-1.335 1.084-2.417 2.421-2.417zm21.058 7.832c1.337 0 2.421 1.087 2.421 2.422 0 1.336-1.084 2.423-2.421 2.423-1.337 0-2.422-1.087-2.422-2.423 0-1.335 1.085-2.422 2.422-2.422zm-7.02 0c1.338 0 2.422 1.087 2.422 2.422 0 1.336-1.084 2.423-2.422 2.423-1.336 0-2.421-1.087-2.421-2.423 0-1.335 1.085-2.422 2.421-2.422zm-7.019 0c1.338 0 2.422 1.087 2.422 2.422 0 1.336-1.084 2.423-2.422 2.423-1.337 0-2.421-1.087-2.421-2.423 0-1.335 1.084-2.422 2.421-2.422zm-7.019 0c1.337 0 2.422 1.087 2.422 2.422 0 1.336-1.085 2.423-2.422 2.423-1.337 0-2.421-1.087-2.421-2.423 0-1.335 1.084-2.422 2.421-2.422zm21.058 7.837c1.337 0 2.421 1.082 2.421 2.422 0 1.336-1.084 2.423-2.421 2.423-1.337 0-2.422-1.087-2.422-2.423 0-1.34 1.085-2.422 2.422-2.422zm-7.02 0c1.338 0 2.422 1.082 2.422 2.422 0 1.336-1.084 2.423-2.422 2.423-1.336 0-2.421-1.087-2.421-2.423 0-1.34 1.085-2.422 2.421-2.422zm-7.019 0c1.338 0 2.422 1.082 2.422 2.422 0 1.336-1.084 2.423-2.422 2.423-1.337 0-2.421-1.087-2.421-2.423 0-1.34 1.084-2.422 2.421-2.422zm-7.019 0c1.337 0 2.422 1.082 2.422 2.422 0 1.336-1.085 2.423-2.422 2.423-1.337 0-2.421-1.087-2.421-2.423 0-1.34 1.084-2.422 2.421-2.422z" fill="#171717"/><path d="M153.368 185.878h5.689v-24.433h-5.689v24.433zm25.56 0h5.689v-24.433h-5.689v24.433zm0 18.696h5.689v-11.278h-5.689v11.278zm0-50.401h5.689v-24.432h-5.689v24.432zm-25.592 0h5.69v-24.432h-5.69v24.432zm.032 50.401h5.689v-11.278h-5.689v11.278zm12.78-61.825h5.689v-24.432h-5.689v24.432zm0 32.323h5.689V150.64h-5.689v24.432zm0 30.364h5.689v-22.473h-5.689v22.473z" fill="#6CCED8"/><path d="M153.336 219.985c.728 0 1.318-.59 1.318-1.321v-23.823h3.054v23.823c0 .731.59 1.321 1.318 1.321.728 0 1.317-.59 1.317-1.321V193.52c0-.726-.589-1.316-1.317-1.316h-5.69c-.727 0-1.317.59-1.317 1.316v25.144c0 .731.59 1.321 1.317 1.321zm12.796-11.576c.728 0 1.318-.589 1.318-1.316v-23.828h3.054v23.828c0 .727.59 1.316 1.317 1.316.729 0 1.318-.589 1.318-1.316v-25.144c0-.731-.589-1.321-1.318-1.321h-5.689c-.727 0-1.317.59-1.317 1.321v25.144c0 .727.59 1.316 1.317 1.316zm12.796 11.576c.728 0 1.317-.59 1.317-1.321v-23.823h3.055v23.823c0 .731.589 1.321 1.317 1.321s1.318-.59 1.318-1.321V193.52c0-.726-.59-1.316-1.318-1.316h-5.689c-.728 0-1.317.59-1.317 1.316v25.144c0 .731.589 1.321 1.317 1.321zm-25.592-32.08c.728 0 1.318-.59 1.318-1.316v-23.828h3.054v23.828c0 .726.59 1.316 1.318 1.316.728 0 1.317-.59 1.317-1.316v-25.144c0-.726-.589-1.316-1.317-1.316h-5.69c-.727 0-1.317.59-1.317 1.316v25.144c0 .726.59 1.316 1.317 1.316zm12.796-11.57c.728 0 1.318-.59 1.318-1.316v-23.828h3.054v23.828c0 .726.59 1.316 1.317 1.316.729 0 1.318-.59 1.318-1.316v-25.144c0-.731-.589-1.321-1.318-1.321h-5.689c-.727 0-1.317.59-1.317 1.321v25.144c0 .726.59 1.316 1.317 1.316zm12.796 11.57c.728 0 1.317-.59 1.317-1.316v-23.828h3.055v23.828c0 .726.589 1.316 1.317 1.316s1.318-.59 1.318-1.316v-25.144c0-.726-.59-1.316-1.318-1.316h-5.689c-.728 0-1.317.59-1.317 1.316v25.144c0 .726.589 1.316 1.317 1.316zm-25.592-32.075c.728 0 1.318-.589 1.318-1.315v-23.829h3.054v23.829c0 .726.59 1.315 1.318 1.315.728 0 1.317-.589 1.317-1.315V129.37c0-.726-.589-1.315-1.317-1.315h-5.69c-.727 0-1.317.589-1.317 1.315v25.145c0 .726.59 1.315 1.317 1.315zm12.796-11.57c.728 0 1.318-.59 1.318-1.321v-23.497h3.054v23.497c0 .731.59 1.321 1.317 1.321.729 0 1.318-.59 1.318-1.321v-24.812c0-.732-.589-1.321-1.318-1.321h-5.689c-.727 0-1.317.589-1.317 1.321v24.812c0 .731.59 1.321 1.317 1.321zm12.796 11.57c.728 0 1.317-.589 1.317-1.315v-23.829h3.055v23.829c0 .726.589 1.315 1.317 1.315s1.318-.589 1.318-1.315V129.37c0-.726-.59-1.315-1.318-1.315h-5.689c-.728 0-1.317.589-1.317 1.315v25.145c0 .726.589 1.315 1.317 1.315" fill="#171717"/><path d="M116.078 155.411h24.505v-6.579h-24.505v6.579" fill="#A97044"/><path d="M117.395 154.091h21.871v-3.939h-21.871v3.939zm23.155 2.636h-24.439c-.746 0-1.351-.604-1.351-1.35v-6.511c0-.746.605-1.35 1.351-1.35h24.439c.746 0 1.351.604 1.351 1.35v6.511c0 .746-.605 1.35-1.351 1.35" fill="#171717"/><path d="M144.569 118.706h48.757l-2.221-9.83h-44.314l-2.222 9.83z" fill="#B1E4DC"/><path d="M146.218 117.386h45.459l-1.626-7.189h-42.207l-1.626 7.189zm47.108 2.636h-48.757c-.4 0-.779-.18-1.029-.492-.25-.317-.344-.726-.256-1.116l2.222-9.825c.136-.605.669-1.029 1.285-1.029h44.314c.615 0 1.149.424 1.285 1.029l2.221 9.825c.089.39-.005.799-.255 1.116-.25.312-.629.492-1.03.492zm362.893 27.484c0 .906.731 1.638 1.637 1.638.902 0 1.638-.732 1.638-1.638 0-.902-.736-1.638-1.638-1.638-.906 0-1.637.736-1.637 1.638zm-6.102 0c0 .906.736 1.638 1.637 1.638.907 0 1.638-.732 1.638-1.638 0-.902-.731-1.638-1.638-1.638-.901 0-1.637.736-1.637 1.638zm-6.097 0c0 .906.731 1.638 1.637 1.638.902 0 1.638-.732 1.638-1.638 0-.902-.736-1.638-1.638-1.638-.906 0-1.637.736-1.637 1.638zm-6.102 0c0 .906.731 1.638 1.637 1.638.907 0 1.638-.732 1.638-1.638 0-.902-.731-1.638-1.638-1.638-.906 0-1.637.736-1.637 1.638zm-6.102 0c0 .906.735 1.638 1.637 1.638.907 0 1.643-.732 1.643-1.638 0-.902-.736-1.638-1.643-1.638-.902 0-1.637.736-1.637 1.638zm-6.098 0c0 .906.731 1.638 1.638 1.638.907 0 1.638-.732 1.638-1.638 0-.902-.731-1.638-1.638-1.638-.907 0-1.638.736-1.638 1.638zm-6.102 0c0 .906.736 1.638 1.638 1.638.907 0 1.638-.732 1.638-1.638 0-.902-.731-1.638-1.638-1.638-.902 0-1.638.736-1.638 1.638zm-6.097 0c0 .906.731 1.638 1.638 1.638.901 0 1.637-.732 1.637-1.638 0-.902-.736-1.638-1.637-1.638-.907 0-1.638.736-1.638 1.638zm-6.102 0c0 .906.736 1.638 1.638 1.638.906 0 1.637-.732 1.637-1.638 0-.902-.731-1.638-1.637-1.638-.902 0-1.638.736-1.638 1.638zm-41.059-33.712c0 .901.734 1.637 1.638 1.637.905 0 1.638-.736 1.638-1.637 0-.907-.733-1.643-1.638-1.643-.904 0-1.638.736-1.638 1.643zm-6.099 0c0 .901.733 1.637 1.638 1.637.904 0 1.637-.736 1.637-1.637 0-.907-.733-1.643-1.637-1.643-.905 0-1.638.736-1.638 1.643zm-6.1 0c0 .901.733 1.637 1.638 1.637.904 0 1.638-.736 1.638-1.637 0-.907-.734-1.643-1.638-1.643-.905 0-1.638.736-1.638 1.643zm-6.1 0c0 .901.733 1.637 1.638 1.637.905 0 1.638-.736 1.638-1.637 0-.907-.733-1.643-1.638-1.643-.905 0-1.638.736-1.638 1.643zm-6.1 0c0 .901.733 1.637 1.638 1.637.905 0 1.638-.736 1.638-1.637 0-.907-.733-1.643-1.638-1.643-.905 0-1.638.736-1.638 1.643zm-6.1 0c0 .901.734 1.637 1.638 1.637.905 0 1.638-.736 1.638-1.637 0-.907-.733-1.643-1.638-1.643-.904 0-1.638.736-1.638 1.643zm-6.099 0c0 .901.733 1.637 1.637 1.637.905 0 1.638-.736 1.638-1.637 0-.907-.733-1.643-1.638-1.643-.904 0-1.637.736-1.637 1.643zm-6.1 0c0 .901.733 1.637 1.638 1.637.904 0 1.638-.736 1.638-1.637 0-.907-.734-1.643-1.638-1.643-.905 0-1.638.736-1.638 1.643zm-6.1 0c0 .901.733 1.637 1.638 1.637.905 0 1.638-.736 1.638-1.637 0-.907-.733-1.643-1.638-1.643-.905 0-1.638.736-1.638 1.643zm-310.213 22.283h23.796c.728 0 1.317-.59 1.317-1.316 0-.731-.589-1.321-1.317-1.321h-23.796c-.728 0-1.317.59-1.317 1.321 0 .726.589 1.316 1.317 1.316zm309.667-42.7241h23.796c.727 0 1.317-.5897 1.317-1.3208 0-.7262-.59-1.3159-1.317-1.3159h-23.796c-.728 0-1.317.5897-1.317 1.3159 0 .7311.589 1.3208 1.317 1.3208zM28.4897 155.83h30.3502c.7277 0 1.3174-.589 1.3174-1.316 0-.726-.5897-1.315-1.3174-1.315H28.4897c-.7278 0-1.3175.589-1.3175 1.315 0 .727.5897 1.316 1.3175 1.316zm470.3443-39.131h30.35c.731 0 1.321-.59 1.321-1.321 0-.726-.59-1.316-1.321-1.316h-30.35c-.726 0-1.316.59-1.316 1.316 0 .731.59 1.321 1.316 1.321zM101.457 93.2896h31.513c.727 0 1.317-.5898 1.317-1.316 0-.7262-.59-1.3159-1.317-1.3159h-31.513c-.728 0-1.318.5897-1.318 1.3159 0 .7262.59 1.316 1.318 1.316zm221.347 2.934h31.513c.728 0 1.318-.5897 1.318-1.3208 0-.7262-.59-1.3159-1.318-1.3159h-31.513c-.728 0-1.317.5897-1.317 1.3159 0 .7311.589 1.3208 1.317 1.3208zM15.9874 99.6938h20.0023c.7278 0 1.3174-.5898 1.3174-1.3209 0-.7262-.5896-1.3159-1.3174-1.3159H15.9874c-.7278 0-1.3175.5897-1.3175 1.3159 0 .7311.5897 1.3209 1.3175 1.3209z" fill="#171717"/><path d="M146.791 123.844h44.314v-4.733h-44.314v4.733z" fill="#A97044"/><path d="M148.109 122.528h41.678v-2.101h-41.678v2.101zm42.962 2.636h-44.246c-.747 0-1.351-.604-1.351-1.355v-4.664c0-.746.604-1.35 1.351-1.35h44.246c.746 0 1.351.604 1.351 1.35v4.664c0 .751-.605 1.355-1.351 1.355z" fill="#171717"/><path d="M106.651 161.669h39.642v-6.282h-39.642v6.282z" fill="#737779"/><path d="M107.969 160.349h37.007v-3.646h-37.007v3.646zm38.291 2.636h-39.575c-.747 0-1.352-.604-1.352-1.35v-6.214c0-.745.605-1.355 1.352-1.355h39.575c.746 0 1.351.61 1.351 1.355v6.214c0 .746-.605 1.35-1.351 1.35" fill="#171717"/><path d="M533.244 220.75h26.718v-10.562h-26.718v10.562zm39.039 6.004h4.845v-6.004h-4.845v6.004" fill="#367968"/><path d="M530.719 222.402h32.055c.761 0 1.375-.619 1.375-1.379 0-.761-.614-1.375-1.375-1.375h-32.055c-.76 0-1.379.614-1.379 1.375 0 .76.619 1.379 1.379 1.379zm2.895-5.269h26.265c.761 0 1.375-.619 1.375-1.379s-.614-1.374-1.375-1.374h-26.265c-.76 0-1.374.614-1.374 1.374 0 .76.614 1.379 1.374 1.379zm0-5.049h26.265c.761 0 1.375-.614 1.375-1.374 0-.761-.614-1.38-1.375-1.38h-26.265c-.76 0-1.374.619-1.374 1.38 0 .76.614 1.374 1.374 1.374" fill="#171717"/><path d="M556.443 228.621h2.866c.76 0 1.374-.614 1.374-1.374 0-.761-.614-1.38-1.374-1.38h-1.487v-3.987c0-.76-.619-1.379-1.379-1.379s-1.374.619-1.374 1.379v5.367c0 .76.614 1.374 1.374 1.374zm-23.063 0h2.364c.76 0 1.379-.614 1.379-1.374v-5.367c0-.76-.619-1.379-1.379-1.379s-1.374.619-1.374 1.379v3.987h-.99c-.76 0-1.374.619-1.374 1.38 0 .76.614 1.374 1.374 1.374zm40.078-2.978h1.847l.648-3.514h-3.212l.717 3.514zm2.992 2.754h-4.113c-.654 0-1.219-.458-1.35-1.102l-1.277-6.267c-.083-.41.019-.829.282-1.151.259-.316.653-.502 1.063-.502h6.55c.41 0 .795.181 1.058.493.263.316.37.731.297 1.13l-1.155 6.273c-.122.653-.692 1.126-1.355 1.126zm-13.676-17.687c0 .736.6 1.335 1.34 1.335.736 0 1.336-.599 1.336-1.335 0-.741-.6-1.341-1.336-1.341-.74 0-1.34.6-1.34 1.341zm-34.818 4.878c0 .741.599 1.336 1.34 1.336.736 0 1.335-.595 1.335-1.336 0-.74-.599-1.34-1.335-1.34-.741 0-1.34.6-1.34 1.34z" fill="#171717"/><path d="M371.497 225.984h71.737v-28.877h-71.737v28.877z" fill="#F79545"/><path d="M372.814 224.663h69.103v-26.24h-69.103v26.24zm70.387 2.637H371.53c-.746 0-1.35-.604-1.35-1.35v-28.809c0-.746.604-1.35 1.35-1.35h71.671c.746 0 1.351.604 1.351 1.35v28.809c0 .746-.605 1.35-1.351 1.35" fill="#171717"/><path d="M378.245 215.623h10.109v-10.109h-10.109v10.109zm16.858.224h8.368v-10.411h-8.368v10.411" fill="#63CBD1"/><path d="M411.702 214.77h8.391v-9.256h-8.391v9.256zm15.018 0h9.257v-9.256h-9.257v9.256z" fill="#F79446"/><path d="M426.872 215.847h9.105v-10.333h-9.105v10.333z" fill="#63CBD1"/><path d="M428.189 214.526h6.471v-7.696h-6.471v7.696zm7.755 2.637h-9.039c-.746 0-1.351-.605-1.351-1.35v-10.265c0-.745.605-1.35 1.351-1.35h9.039c.746 0 1.351.605 1.351 1.35v10.265c0 .745-.605 1.35-1.351 1.35" fill="#171717"/><path d="M410.987 215.847h9.106v-10.333h-9.106v10.333z" fill="#63CBD1"/><path d="M412.305 214.526h6.471v-7.696h-6.471v7.696zm7.755 2.637h-9.039c-.746 0-1.351-.605-1.351-1.35v-10.265c0-.745.605-1.35 1.351-1.35h9.039c.746 0 1.351.605 1.351 1.35v10.265c0 .745-.605 1.35-1.351 1.35zm-23.64-2.637h6.471v-7.696h-6.471v7.696zm7.789 2.637h-9.106c-.728 0-1.318-.59-1.318-1.316v-10.333c0-.726.59-1.316 1.318-1.316h9.106c.727 0 1.317.59 1.317 1.316v10.333c0 .726-.59 1.316-1.317 1.316zm-23.673-2.637h6.471v-7.696h-6.471v7.696zm7.788 2.637h-9.106c-.727 0-1.317-.59-1.317-1.316v-10.333c0-.726.59-1.316 1.317-1.316h9.106c.728 0 1.318.59 1.318 1.316v10.333c0 .726-.59 1.316-1.318 1.316" fill="#171717"/><path d="M371.497 197.107h71.737v-28.878h-71.737v28.878z" fill="#F79545"/><path d="M372.814 195.791h69.103V169.55h-69.103v26.241zm70.387 2.632H371.53c-.746 0-1.35-.605-1.35-1.35v-28.809c0-.746.604-1.35 1.35-1.35h71.671c.746 0 1.351.604 1.351 1.35v28.809c0 .745-.605 1.35-1.351 1.35z" fill="#171717"/><path d="M371.497 197.107h71.737v-3.811h-71.737v3.811z" fill="#A97044"/><path d="M372.814 195.791h69.103v-1.175h-69.103v1.175zm70.387 2.632H371.53c-.746 0-1.35-.605-1.35-1.35v-3.743c0-.746.604-1.35 1.35-1.35h71.671c.746 0 1.351.604 1.351 1.35v3.743c0 .745-.605 1.35-1.351 1.35" fill="#171717"/><path d="M393.1 154.544h28.291v-5.712H393.1v5.712z" fill="#F79545"/><path d="M394.214 154.091h26.303v-3.939h-26.303v3.939zm27.621 2.636h-28.938c-.728 0-1.318-.589-1.318-1.316v-6.579c0-.727.59-1.316 1.318-1.316h28.938c.727 0 1.317.589 1.317 1.316v6.579c0 .727-.59 1.316-1.317 1.316z" fill="#171717"/><path d="M426.872 186.969h9.105v-10.332h-9.105v10.332zm-15.17-.448h8.391v-9.09h-8.391v9.09zm-16.599.448h8.368v-9.976h-8.368v9.976" fill="#63CBD1"/><path d="M379.249 186.521h8.313v-9.884h-8.313v9.884z" fill="#F79446"/><path d="M369.275 168.23h76.181l-2.222-12.819h-71.738l-2.221 12.819" fill="#A97044"/><path d="M370.841 166.913h73.049l-1.764-10.186h-69.52l-1.765 10.186zm74.615 2.637h-76.181c-.388 0-.758-.175-1.008-.473-.25-.297-.357-.687-.29-1.072l2.222-12.818c.109-.634.657-1.097 1.298-1.097h71.737c.641 0 1.189.463 1.298 1.097l2.222 12.818c.067.385-.04.775-.289 1.072-.251.298-.62.473-1.009.473zm-17.267 16.103h6.471v-7.695h-6.471v7.695zm7.788 2.632h-9.105c-.728 0-1.318-.59-1.318-1.316v-10.332c0-.726.59-1.316 1.318-1.316h9.105c.728 0 1.318.59 1.318 1.316v10.332c0 .726-.59 1.316-1.318 1.316zm-23.672-2.632h6.471v-7.695h-6.471v7.695zm7.789 2.632h-9.107c-.727 0-1.317-.59-1.317-1.316v-10.332c0-.726.59-1.316 1.317-1.316h9.107c.727 0 1.317.59 1.317 1.316v10.332c0 .726-.59 1.316-1.317 1.316zm-23.674-2.632h6.471v-7.695h-6.471v7.695zm7.789 2.632h-9.106c-.728 0-1.318-.59-1.318-1.316v-10.332c0-.726.59-1.316 1.318-1.316h9.106c.727 0 1.317.59 1.317 1.316v10.332c0 .726-.59 1.316-1.317 1.316z" fill="#171717"/><path d="M379.218 186.969h9.106v-10.332h-9.106v10.332z" fill="#63CBD1"/><path d="M380.536 185.653h6.471v-7.695h-6.471v7.695zm7.755 2.632h-9.039c-.746 0-1.351-.604-1.351-1.35v-10.264c0-.746.605-1.35 1.351-1.35h9.039c.746 0 1.351.604 1.351 1.35v10.264c0 .746-.605 1.35-1.351 1.35z" fill="#171717"/><path d="M366.171 224.577h3.999v-55.818h-3.999v55.818z" fill="#A0A6A5"/><path d="M370.228 226.306h-4.048v-1.73h4v1.374c0 .122.016.244.048.356zm-4.048-53.344h4v-1.964h-4v1.964zm0 14.543h4v-1.969h-4v1.969z" fill="#121212"/><path d="M366.18 200.601h3.152v-3.333h-3.152v3.333z" fill="#45B0AE"/><path d="M370.18 203.233h-4v-2.632h3.152v-3.333h-3.152v-2.632h4v8.597zM371.497 226.306h-1.269c-.032-.112-.048-.234-.048-.356v-28.809-.034c.017.721.597 1.301 1.317 1.316v27.883zm-1.317-29.233V169.55h1.317v22.43c-.731.019-1.317.614-1.317 1.35v3.743" fill="#121212"/><path d="M371.497 198.423c-.72-.015-1.3-.595-1.317-1.316V193.33c0-.736.586-1.331 1.317-1.35v6.443zm0-28.873h-2.222c-.388 0-.758-.175-1.008-.472-.082-.098-.149-.205-.2-.322h3.43v.794" fill="#121212"/><path d="M205.913 177.231h5.304v-7.588h-5.304v7.588z" fill="#45B0AE"/><path d="M211.313 177.563h-5.4v-.332h5.304v-7.588h-5.304v-1.316h5.4v9.236z" fill="#121212"/><path d="M205.913 187.783h5.304V180.2h-5.304v7.583z" fill="#45B0AE"/><path d="M211.313 188.12h-5.4v-.337h5.304V180.2h-5.304v-2.637h5.4v10.557z" fill="#121212"/><path d="M205.913 198.34h5.304v-7.589h-5.304v7.589z" fill="#45B0AE"/><path d="M211.313 198.671h-5.4v-.331h5.304v-7.589h-5.304v-2.631h5.4v10.551" fill="#121212"/><path d="M205.913 208.726h5.304v-7.418h-5.304v7.418z" fill="#45B0AE"/><path d="M211.313 208.726h-.096v-7.418h-5.304v-2.637h5.4v10.055" fill="#121212"/><path d="M205.913 218.947h5.304v-7.589h-5.304v7.589z" fill="#45B0AE"/><path d="M211.313 219.682h-5.4v-.735h5.304v-7.589h-5.304v-2.632h5.4v10.956zm1.222 0h-1.222v-51.355h1.222v51.355z" fill="#121212"/><path d="M140.583 224.932h4.334v-61.947h-4.334v61.947z" fill="#BB6523"/><path d="M145.572 226.306h-4.989v-1.375h4.334v-61.946h.556v62.814c0 .18.035.351.099.507" fill="#121212"/><path d="M146.294 226.306h-.722c-.064-.156-.098-.327-.098-.507v-62.814h.82v63.321" fill="#121212"/><path d="M140.583 160.348h4.393v-3.645h-4.393v3.645z" fill="#545859"/><path d="M146.26 162.985h-5.677v-2.637h4.393v-3.645h-4.393v-2.159h5.711v8.441h-.034z" fill="#121212"/><path d="M202.789 166.762h-.475V94.9028h9.761v.0342c-.222.1023-.411.268-.545.4678h-7.423c-.729 0-1.318.5898-1.318 1.3209 0 .7262.589 1.3159 1.318 1.3159h7.206v4.5474h-5.4c-.728 0-1.318.59-1.318 1.316v11.473c0 .731.59 1.321 1.318 1.321h5.4v2.051h-7.206c-.729 0-1.318.59-1.318 1.321 0 .726.589 1.316 1.318 1.316h7.206v4.547h-5.4c-.728 0-1.318.59-1.318 1.316v11.473c0 .731.59 1.321 1.318 1.321h5.4v2.057h-7.206c-.729 0-1.318.59-1.318 1.316 0 .726.589 1.316 1.318 1.316h7.206v4.547h-5.4c-.728 0-1.318.59-1.318 1.316v11.478c0 .726.59 1.316 1.318 1.316h5.4v2.057h-7.206c-.729 0-1.318.589-1.318 1.315" fill="#639D98"/><path d="M207.231 114.062h2.972v-8.841h-2.972v8.841zm0 23.345h2.972v-8.841h-2.972v8.841zm0 23.346h2.972v-8.841h-2.972v8.841z" fill="#58C7BA"/><path d="M211.313 98.0414h-7.207c-.728 0-1.317-.5897-1.317-1.3159 0-.7311.589-1.3208 1.317-1.3208h7.424c-.137.2095-.217.4581-.217.7262v1.9105zm0 23.3456h-7.207c-.728 0-1.317-.59-1.317-1.316 0-.731.589-1.321 1.317-1.321h7.207v2.637zm0-4.689h-5.4c-.728 0-1.318-.589-1.318-1.32v-11.473c0-.727.59-1.316 1.318-1.316h5.4v14.109zm-4.082-11.477v8.841h2.972v-8.841h-2.972zm4.082 39.512h-7.207c-.728 0-1.317-.59-1.317-1.316 0-.727.589-1.316 1.317-1.316h7.207v2.632zm0-4.689h-5.4c-.728 0-1.318-.59-1.318-1.321V127.25c0-.726.59-1.316 1.318-1.316h5.4v14.11zm-4.082-11.478v8.841h2.972v-8.841h-2.972zm4.082 38.196h-8.524c0-.726.589-1.316 1.317-1.316h7.207v1.316zm0-3.372h-5.4c-.728 0-1.318-.59-1.318-1.316v-11.478c0-.726.59-1.316 1.318-1.316h5.4v14.11zm-4.082-11.478v8.841h2.972v-8.841h-2.972z" fill="#121212"/><path d="M212.075 166.762h-.762V96.131c0-.2681.08-.5167.217-.7263.134-.1998.323-.3655.545-.4678v71.8251" fill="#121212"/><path d="M206.725 109.154h64.611v-7.116h-64.611v7.116z" fill="#F79545"/><path d="M208.043 109.1h61.975v-5.746h-61.975v5.746zm63.293 2.637h-64.611c-.728 0-1.317-.59-1.317-1.316v-8.383c0-.726.589-1.316 1.317-1.316h64.611c.728 0 1.317.59 1.317 1.316v8.383c0 .726-.589 1.316-1.317 1.316" fill="#171717"/><path d="M141.982 225.833h53.932v-20.611h-53.932v20.611z" fill="#F79446"/><path d="M143.299 224.517h51.297v-17.979h-51.297v17.979zm52.581 2.637h-53.865c-.746 0-1.351-.609-1.351-1.355v-20.543c0-.746.605-1.355 1.351-1.355h53.865c.746 0 1.351.609 1.351 1.355v20.543c0 .746-.605 1.355-1.351 1.355" fill="#171717"/><path d="M168.948 225.892h15.611v-10.269h-15.611v10.269" fill="#737779"/><path d="M170.265 224.571h12.977v-7.633h-12.977v7.633zm14.261 2.637h-15.545c-.746 0-1.351-.605-1.351-1.351v-10.2c0-.746.605-1.35 1.351-1.35h15.545c.746 0 1.351.604 1.351 1.35v10.2c0 .746-.605 1.351-1.351 1.351" fill="#171717"/><path d="M153.365 225.892h15.612v-10.269h-15.612v10.269z" fill="#737779"/><path d="M154.683 224.571h12.976v-7.633h-12.976v7.633zm14.26 2.637h-15.545c-.746 0-1.351-.605-1.351-1.351v-10.2c0-.746.605-1.35 1.351-1.35h15.545c.747 0 1.351.604 1.351 1.35v10.2c0 .746-.604 1.351-1.351 1.351z" fill="#171717"/><path d="M314.406 225.833h56.05v-20.611h-56.05v20.611" fill="#F79446"/><path d="M315.724 224.517h53.414v-17.979h-53.414v17.979zm54.698 2.637h-55.983c-.746 0-1.351-.609-1.351-1.355v-20.543c0-.746.605-1.355 1.351-1.355h55.984c.746 0 1.35.609 1.35 1.355v20.543c0 .746-.605 1.355-1.351 1.355" fill="#171717"/><path d="M342.431 225.892h16.225v-10.269h-16.225v10.269z" fill="#737779"/><path d="M343.749 224.571h13.589v-7.633h-13.589v7.633zm14.873 2.637h-16.158c-.746 0-1.351-.605-1.351-1.351v-10.2c0-.746.605-1.35 1.351-1.35h16.158c.746 0 1.351.604 1.351 1.35v10.2c0 .746-.605 1.351-1.351 1.351" fill="#171717"/><path d="M326.236 225.892h16.225v-10.269h-16.225v10.269z" fill="#737779"/><path d="M327.554 224.571h13.589v-7.633h-13.589v7.633zm14.874 2.637h-16.159c-.746 0-1.351-.605-1.351-1.351v-10.2c0-.746.605-1.35 1.351-1.35h16.159c.746 0 1.351.604 1.351 1.35v10.2c0 .746-.605 1.351-1.351 1.351zm334.291-6.015c0 .814-.658 1.472-1.467 1.472-.814 0-1.472-.658-1.472-1.472 0-.809.658-1.467 1.472-1.467.809 0 1.467.658 1.467 1.467zm-10.064 3.924c-.741 0-1.345-.605-1.345-1.346v-4.917c0-1.043-.405-2.028-1.146-2.768l-1.087-1.087c-1.306-1.302-1.306-3.427 0-4.728l1.048-1.048c1.302-1.306 3.427-1.306 4.728 0l1.009 1.009c.741.741 1.725 1.15 2.768 1.15h1.15c.746 0 1.345.6 1.345 1.346 0 .74-.599 1.345-1.345 1.345h-1.15c-1.764 0-3.421-.688-4.669-1.935l-1.009-1.014c-.166-.166-.361-.19-.463-.19-.102 0-.297.024-.463.19l-1.048 1.048c-.253.253-.253.668 0 .926l1.087 1.087c1.248 1.247 1.935 2.905 1.935 4.669v4.917c0 .741-.6 1.346-1.345 1.346zm7.013-19.232c0 1.423-1.155 2.578-2.578 2.578-1.428 0-2.583-1.155-2.583-2.578 0-1.424 1.155-2.579 2.583-2.579 1.423 0 2.578 1.155 2.578 2.579" fill="#171717"/><path d="M657.657 217.611c-1.974 0-3.582 1.608-3.582 3.582 0 1.979 1.608 3.588 3.582 3.588 1.974 0 3.583-1.609 3.583-3.588 0-1.974-1.609-3.582-3.583-3.582zm0 9.86c-3.46 0-6.272-2.817-6.272-6.278 0-3.455 2.812-6.272 6.272-6.272 3.461 0 6.273 2.817 6.273 6.272 0 3.461-2.812 6.278-6.273 6.278zm17.736-9.86c-1.974 0-3.582 1.608-3.582 3.582 0 1.979 1.608 3.588 3.582 3.588 1.974 0 3.582-1.609 3.582-3.588 0-1.974-1.608-3.582-3.582-3.582zm0 9.86c-3.46 0-6.272-2.817-6.272-6.278 0-3.455 2.812-6.272 6.272-6.272 3.461 0 6.273 2.817 6.273 6.272 0 3.461-2.812 6.278-6.273 6.278z" fill="#171717"/><path d="M302.591 114.847l-7.901 10.254h127.014l-6.2-10.254H302.591z" fill="#F79545"/><path d="M297.889 123.527h121.026l-4.298-7.106H303.365l-5.476 7.106zm123.815 3.148H294.691c-.6 0-1.148-.341-1.412-.882-.265-.536-.201-1.179.165-1.652l7.901-10.255c.298-.385.758-.609 1.246-.609h112.913c.551 0 1.061.288 1.347.756l6.2 10.254c.294.483.303 1.092.024 1.584-.279.497-.803.804-1.371.804zm215.099 12.55c-.088 2.973-1.282 5.941-3.553 8.817-2.856 3.621-5.605 5.59-7.028 6.458-.439-.141-.882-.258-1.326-.366 3.046-3.826 7.954-11.395 7.379-19.87-.224-3.3-1.097-5.785-2.218-7.652.473.244.96.526 1.453.858 3.665 2.495 5.449 6.448 5.293 11.755zm-23.326 15.255c-4.869-3.387-10.445-8.685-10.64-15.255-.219-7.53 3.592-11.029 6.765-12.637-1.131 1.871-2.013 4.362-2.237 7.676-.57 8.48 4.342 16.054 7.379 19.87-.424.103-.848.215-1.267.346zm4.337-.862c-2.544-2.934-8.339-10.635-7.764-19.174.571-8.446 5.927-10.561 8.491-11.093v30.213c-.244.015-.483.034-.727.054zm3.417-.044V123.38c2.612.576 7.798 2.764 8.358 11.064.58 8.534-5.205 16.225-7.764 19.174-.194-.02-.394-.034-.594-.044zm11.79-28.332c-3.305-2.247-6.658-2.636-6.799-2.651h-.015c-2.788-1.833-5.522-2.071-6.273-2.101l-.048-.005h-.132l-.049.005c-.745.03-3.484.268-6.272 2.101h-.015c-.141.015-3.49.404-6.799 2.651-3.08 2.096-6.701 6.234-6.472 14.061.185 6.297 4.464 12.443 12.365 17.775.224.151.487.229.755.229.146 0 .292-.019.434-.073 2.052-.702 4.182-1.048 6.35-1.019 2.004.025 3.987.366 5.888 1.019.361.127.755.093 1.092-.093 1.325-.74 4.791-2.943 8.334-7.432 2.632-3.339 4.021-6.838 4.128-10.406.229-7.827-3.392-11.965-6.472-14.061zm-11.079 38.733c0 .755-.614 1.369-1.364 1.369h-1.487c-.75 0-1.364-.614-1.364-1.369v-3.203c.726-.18 1.462-.272 2.217-.258.678.005 1.345.093 1.998.258v3.203zm1.809-5.454c-1.209-.449-2.481-.683-3.773-.697-1.384-.02-2.753.214-4.06.692-.531.195-.882.702-.882 1.267v4.192c0 2.237 1.818 4.059 4.055 4.059h1.487c2.237 0 4.055-1.822 4.055-4.059v-4.192c0-.565-.351-1.072-.882-1.262z" fill="#171717"/></svg>
