<svg viewBox="0 0 691 229" fill="none" xmlns="http://www.w3.org/2000/svg"><rect width="691" height="101" rx="50.5" fill="#4299E1"/><path fill-rule="evenodd" clip-rule="evenodd" d="M361.656 27.431c11.263 0 20.859 5.237 24.501 12.57a33.48 33.48 0 019.105-1.242c5.135 0 9.911 1.125 13.905 3.05 2.568-4.743 8.882-8.098 16.266-8.098 6.301 0 11.822 2.441 14.901 6.104 6.379-3.472 14.275-5.525 22.828-5.525 16.473 0 30.52 7.618 35.94 18.31 3.997-2.105 8.895-3.35 14.193-3.35 2.927.003 5.735.383 8.336 1.076V101H352.263V28.708c2.913-.825 6.08-1.277 9.393-1.277zm169.369 22.035c11.263 0 20.859 5.237 24.5 12.57a33.477 33.477 0 019.106-1.242c5.135 0 9.911 1.125 13.905 3.05 2.567-4.743 8.882-8.098 16.266-8.098 6.301 0 11.822 2.441 14.901 6.104 6.378-3.472 14.274-5.525 22.828-5.525 16.472 0 30.52 7.618 35.94 18.31 3.997-2.105 8.895-3.35 14.193-3.35 2.926.003 5.734.383 8.336 1.076V101.5H521.631V50.742c2.914-.824 6.081-1.276 9.394-1.276z" fill="#fff"/><path fill-rule="evenodd" clip-rule="evenodd" d="M342.793 27c-11.722 0-21.711 5.237-25.501 12.57a36.175 36.175 0 00-9.477-1.242c-5.345 0-10.316 1.125-14.473 3.05-2.672-4.743-9.244-8.098-16.93-8.098-6.558 0-12.305 2.44-15.51 6.103-6.639-3.471-14.857-5.525-23.76-5.525-17.145 0-31.766 7.619-37.407 18.311-4.161-2.106-9.259-3.35-14.773-3.35a35.19 35.19 0 00-8.677 1.075V101.5H352.57V28.276c-3.032-.824-6.328-1.276-9.777-1.276zM166.508 49.035c-11.723 0-21.711 5.237-25.501 12.57a36.185 36.185 0 00-9.477-1.242c-5.345 0-10.316 1.125-14.473 3.05-2.673-4.744-9.245-8.098-16.931-8.098-6.557 0-12.304 2.44-15.51 6.103-6.638-3.471-14.856-5.525-23.759-5.525-17.145 0-31.766 7.618-37.408 18.31-4.16-2.105-9.258-3.349-14.772-3.349A35.184 35.184 0 000 71.93V102h176.285V50.311c-3.032-.824-6.329-1.276-9.777-1.276z" fill="#fff"/><path d="M632.75 125.189c-3.302-2.245-6.652-2.634-6.794-2.649h-.014c-2.786-1.831-5.518-2.07-6.268-2.099l-.049-.005h-.131l-.049.005c-.745.029-3.482.268-6.268 2.099h-.014c-.142.015-3.487.404-6.794 2.649-3.078 2.095-6.697 6.229-6.468 14.051.185 6.292 4.461 12.433 12.356 17.761a1.349 1.349 0 001.188.156 18.763 18.763 0 016.346-1.018c2.001.024 3.984.365 5.883 1.018.36.126.755.092 1.091-.093 1.324-.74 4.787-2.941 8.328-7.427 2.63-3.336 4.018-6.832 4.125-10.397.229-7.822-3.39-11.956-6.468-14.051zm-306.308-16.602l-4.568 6.682h73.441l-3.585-6.682h-65.288z" fill="#fff"/><path d="M324.481 113.896h68.536l-2.11-3.935h-63.739l-2.687 3.935zm70.834 2.751h-73.441c-.51 0-.978-.287-1.216-.735a1.373 1.373 0 01.08-1.417l4.569-6.682a1.379 1.379 0 011.135-.604h65.288c.507 0 .973.283 1.212.726l3.585 6.682a1.378 1.378 0 01-1.212 2.03" fill="#171717"/><path d="M294.678 225.304h126.917V125c-9.05-3.083-31.092-9.677-61.744-9.916-32.667-.253-56.193 6.857-65.173 9.916v100.304" fill="#fff"/><path d="M295.995 224.447h124.284v-98.439c-8.421-2.542-26.559-3.745-60.029-4.003-31.624-.249-54.886 1.207-64.255 4.003v98.439zm125.6 2.63H294.678a1.316 1.316 0 01-1.317-1.315V125.048c0-.565.358-1.066.891-1.246 9.119-3.117 32.56-4.695 66.019-4.432 35.003.273 53.47 1.597 61.75 4.432.533.18.891.681.891 1.246v100.714c0 .726-.589 1.315-1.317 1.315zm200.085-63.185c0 .755-.613 1.369-1.363 1.369h-1.486c-.75 0-1.363-.614-1.363-1.369v-3.199a8.246 8.246 0 012.216-.258 8.277 8.277 0 011.996.258v3.199zm1.807-5.454a11.314 11.314 0 00-3.769-.692 11.336 11.336 0 00-4.057.692 1.348 1.348 0 00-.882 1.266v4.188a4.06 4.06 0 004.052 4.057h1.486a4.06 4.06 0 004.052-4.057v-4.188c0-.565-.351-1.071-.882-1.266zM493.674 90.792c.288 0 .575.093.814.278.38.287.828.443 1.305.443a2.147 2.147 0 10-.224-4.286 1.343 1.343 0 01-1.334-.73 3.447 3.447 0 00-3.083-1.9 3.443 3.443 0 00-2.674 1.267c-.341.414-.891.589-1.407.443a2.654 2.654 0 10-.721 5.206c.545 0 1.066-.166 1.51-.477a1.342 1.342 0 011.475-.04c.546.337 1.174.517 1.817.517s1.271-.18 1.811-.516a1.34 1.34 0 01.711-.205zm2.119 3.41c-.77 0-1.51-.181-2.177-.517a6.232 6.232 0 01-4.953-.01 5.348 5.348 0 01-7.656-4.817 5.348 5.348 0 015.961-5.308 6.123 6.123 0 014.184-1.64c2.035 0 3.901.993 5.04 2.634a4.846 4.846 0 014.437 4.821 4.845 4.845 0 01-4.836 4.836zm-106.171 3.413c.27 0 .538.083.768.239.446.311.969.477 1.513.477a2.655 2.655 0 000-5.308c-.244 0-.487.034-.723.102a1.342 1.342 0 01-1.405-.443 3.444 3.444 0 00-2.672-1.262 3.44 3.44 0 00-3.086 1.9 1.354 1.354 0 01-1.335.73 1.68 1.68 0 00-.221-.014 2.15 2.15 0 00-2.147 2.147 2.15 2.15 0 002.147 2.148c.475 0 .925-.15 1.301-.443a1.353 1.353 0 011.525-.073 3.455 3.455 0 003.629 0c.217-.132.462-.2.706-.2zm2.281 3.404c-.809 0-1.595-.18-2.313-.526a6.23 6.23 0 01-4.953.01 4.773 4.773 0 01-2.176.516 4.843 4.843 0 01-4.836-4.836 4.846 4.846 0 014.433-4.821 6.118 6.118 0 015.045-2.635c1.566 0 3.051.594 4.181 1.646.205-.024.412-.039.619-.039 2.945 0 5.342 2.396 5.342 5.343s-2.397 5.342-5.342 5.342" fill="#171717"/><path d="M415.436 144.334H299.884a.985.985 0 010-1.968h115.552a.984.984 0 010 1.968zm0 15.097H299.884a.981.981 0 01-.982-.983c0-.541.44-.984.982-.984h115.552a.984.984 0 010 1.967zm0 13.442H299.884a.982.982 0 010-1.963h115.552a.982.982 0 110 1.963zm0 14.532H299.884a.985.985 0 01-.982-.984c0-.545.44-.983.982-.983h115.552a.984.984 0 010 1.967zm201.896 39.424a1.344 1.344 0 01-1.345-1.345v-26.137c0-4.593 1.788-8.908 5.036-12.156a17.064 17.064 0 0112.156-5.036 1.344 1.344 0 110 2.688c-3.877 0-7.52 1.51-10.257 4.247a14.411 14.411 0 00-4.246 10.257v26.137c0 .741-.604 1.345-1.344 1.345zm-3.799 0a1.348 1.348 0 01-1.349-1.345v-26.137c0-3.872-1.505-7.515-4.247-10.257a14.411 14.411 0 00-10.256-4.247 1.343 1.343 0 110-2.688c4.592 0 8.912 1.787 12.16 5.036a17.092 17.092 0 015.036 12.156v26.137c0 .741-.604 1.345-1.344 1.345" fill="#171717"/><path d="M626.18 192.168a1.467 1.467 0 11-2.935-.003 1.467 1.467 0 012.935.003z" fill="#171717"/><path d="M593.253 182.029a1.467 1.467 0 000 2.936 1.468 1.468 0 000-2.936zm35.396 8.615c2.684-1.086 5.304-1.5 7.788-1.223a1.346 1.346 0 00.297-2.673c-2.932-.327-5.991.146-9.098 1.407a1.344 1.344 0 101.013 2.489zm-25.49.102a1.32 1.32 0 01-.501-.102c-2.689-1.086-5.309-1.5-7.793-1.223a1.351 1.351 0 01-1.485-1.188 1.349 1.349 0 011.188-1.485c2.932-.327 5.995.146 9.098 1.407a1.344 1.344 0 01-.507 2.591zm-243.754 11.06h11.174v-5.962h-11.174v5.962z" fill="#fff"/><path d="M360.722 200.491h8.54v-3.331h-8.54v3.331zm9.824 2.63h-11.108a1.349 1.349 0 01-1.349-1.349v-5.893a1.35 1.35 0 011.35-1.349h11.107c.745 0 1.35.604 1.35 1.349v5.893a1.35 1.35 0 01-1.35 1.349" fill="#171717"/><path d="M347.869 195.845v5.961h11.173v-5.961h-11.173z" fill="#fff"/><path d="M349.185 200.491h8.541v-3.331h-8.541v3.331zm9.824 2.63h-11.107a1.35 1.35 0 01-1.35-1.349v-5.893a1.35 1.35 0 011.35-1.349h11.107c.745 0 1.349.604 1.349 1.349v5.893c0 .745-.604 1.349-1.349 1.349z" fill="#171717"/><path d="M336.332 195.845v5.961h11.173v-5.961h-11.173z" fill="#fff"/><path d="M337.648 200.491h8.541v-3.331h-8.541v3.331zm9.824 2.63h-11.107a1.35 1.35 0 01-1.35-1.349v-5.893a1.35 1.35 0 011.35-1.349h11.107c.745 0 1.35.604 1.35 1.349v5.893a1.35 1.35 0 01-1.35 1.349z" fill="#171717"/><path d="M324.794 195.845v5.961h11.174v-5.961h-11.174z" fill="#fff"/><path d="M326.111 200.491h8.54v-3.331h-8.54v3.331zm9.824 2.63h-11.107a1.35 1.35 0 01-1.35-1.349v-5.893a1.35 1.35 0 011.35-1.349h11.107c.745 0 1.35.604 1.35 1.349v5.893a1.35 1.35 0 01-1.35 1.349z" fill="#171717"/><path d="M313.807 195.845v5.961h11.173v-5.961h-11.173z" fill="#fff"/><path d="M315.123 200.491h8.54v-3.331h-8.54v3.331zm9.823 2.63H313.84a1.35 1.35 0 01-1.35-1.349v-5.893a1.35 1.35 0 011.35-1.349h11.106a1.35 1.35 0 011.351 1.349v5.893a1.35 1.35 0 01-1.351 1.349zm325.736 10.544h-10.3a1.344 1.344 0 110-2.689h10.3a1.344 1.344 0 110 2.689zm-90.774 5.435h-6.175a1.344 1.344 0 01-1.344-1.344 1.34 1.34 0 011.344-1.345h6.175a1.344 1.344 0 110 2.689" fill="#171717"/><path d="M178.509 225.689h115.496V72.656c-8.236-4.705-28.294-14.762-56.188-15.127-29.728-.385-51.136 10.461-59.308 15.127v153.033z" fill="#fff"/><path d="M179.826 224.374h112.862V73.42c-11.684-6.56-30.509-14.255-54.889-14.571-27.013-.356-47.681 8.805-57.973 14.571v150.954zm114.179 2.63H178.509a1.316 1.316 0 01-1.317-1.315V72.656c0-.473.254-.911.664-1.145 10.283-5.873 31.752-15.667 59.978-15.297 25.409.331 44.926 8.503 56.823 15.297.411.234.664.672.664 1.145v153.033c0 .726-.59 1.315-1.316 1.315" fill="#171717"/><path d="M294.005 73.367H178.509l6.684-4.228 24.359-8.863 22.796-2.961 18.472.799 19.864 4.524 17.737 7.037 5.584 3.692" fill="#fff"/><path d="M183.056 72.047h106.567l-1.814-1.198-17.516-6.95-19.65-4.475-18.238-.79-22.539 2.932-24.09 8.762-2.72 1.719zm110.949 2.635H178.509a1.316 1.316 0 01-.703-2.43l6.683-4.223c.08-.053.165-.092.254-.127l24.359-8.863c.091-.03.185-.054.28-.068l22.796-2.961c.075-.01.152-.01.227-.01l18.471.799c.08.005.158.014.236.034l19.864 4.524c.066.015.131.034.193.059l17.737 7.037c.084.034.165.073.24.126l5.584 3.687a1.316 1.316 0 01-.725 2.416" fill="#171717"/><path d="M179.826 224.374h112.862V73.42c-11.684-6.56-30.509-14.255-54.889-14.571-27.013-.356-47.681 8.805-57.973 14.571v150.954zm114.179 2.63H178.509a1.316 1.316 0 01-1.317-1.315V72.656c0-.473.254-.911.664-1.145 10.283-5.873 31.752-15.667 59.978-15.297 25.409.331 44.926 8.503 56.823 15.297.411.234.664.672.664 1.145v153.033c0 .726-.59 1.315-1.316 1.315" fill="#171717"/><path d="M86.612 222.178h.573s2.483.277 5.5-1.403c3.019-1.675 5.304-9.078 5.304-9.078l-.149-8.888-9.434-6.613-11.532 2.829-.233 2.718v8.659s-.302 1.734-.965 3.307l1.545 3.652 5.019 2.888 4.372 1.929zm-17.936-3.38l3.13-3.921 1.739-20.454-.199-16.909-5.614-8.445-8.396-1.69-7.9 3.624-2.832 6.311-1.44 18.234.695 17.44 5.117 6.857 8.744 2.678s3.667-.428 6.355-2.274l-.542-1.203 1.143-.248zm-24-6.098s-.832-3.287-.832-6.121c0-2.835.204-15.833.204-15.833l-3.393-4.49s-7.205-1.14-7.453-1.14c-.248 0-7.005 2.382-7.005 2.382l-4.124 5.863-1.249 14.859 3.485 8.878 11.086 5.425s3.99-.482 6.196-2.177c2.205-1.689 2.457-4.295 2.457-4.295l.628-3.351zm487.989-7.383l4.008-2.016v-3.984l-7.87-7.178 3.935-1.135.988-2.191-9.526-9.229-9.224 9 .536 2.873 3.399.38-4.125 6.424-.082 6.418v5.109s-.088 4.846-2.362 6.974c-2.27 2.128 5.858 1.899 5.858 1.899l4.505-1.651h16.081l.57-2.751-6.691-8.942zm-20.723-14.391l-1.324 21.049-6.56 9.414s-3.283 1.31-6.945 1.066c-3.667-.243-6.765-4.324-6.765-4.324l-1.436-2.406s-2.854-6.283-3.054-8.625c-.195-2.343 0-10.807 0-10.807v-21.024l8.951-7.861 9.141 1.637 6.668 4.85 1.324 17.031zm-42.592-11.342l10.192 9.54-1.286 1.88-3.81.682 7.74 10.047-.677 2.25-4.989.774 7.03 8.085v3.326l-4.081 3.39h-18.516l-4.609-.892-2.796-4.018 8.085-9.248-4.76-1.417-.756-2.927 8.464-9.068-4.308-.911-.604-3.248 9.681-8.245zm-360.406 46.592h37.451v-70.868h-37.451v70.868z" fill="#fff"/><path d="M110.32 224.803h34.699v-68.119H110.32v68.119zm36.04 2.751h-37.381a1.412 1.412 0 01-1.411-1.412v-70.797c0-.779.632-1.412 1.411-1.412h37.381c.779 0 1.41.633 1.41 1.412v70.797c0 .779-.631 1.412-1.41 1.412" fill="#171717"/><path d="M277.212 92.005h5.603V80.54h-5.603v11.465zm-14.248 0h5.603V80.54h-5.603v11.465zm-14.249 0h5.603V80.54h-5.603v11.465zm-14.248 0h5.603V80.54h-5.603v11.465zm-14.249 0h5.603V80.54h-5.603v11.465zm-14.249 0h5.603V80.54h-5.603v11.465zm-14.249 0h5.603V80.54h-5.603v11.465zm85.492 23.327h5.603v-11.464h-5.603v11.464zm-14.248 0h5.603v-11.464h-5.603v11.464zm-14.249 0h5.603v-11.464h-5.603v11.464zm-14.248 0h5.603v-11.464h-5.603v11.464zm-14.249 0h5.603v-11.464h-5.603v11.464zm-14.249 0h5.603v-11.466h-5.603v11.466zm-14.249 0h5.603v-11.464h-5.603v11.464zm85.492 23.328h5.603v-11.464h-5.603v11.464zm-14.248 0h5.603v-11.464h-5.603v11.464zm-14.249 0h5.603v-11.464h-5.603v11.464zm-14.248 0h5.603v-11.464h-5.603v11.464zm-14.249 0h5.603v-11.464h-5.603v11.464zm-14.249 0h5.603v-11.466h-5.603v11.466zm-14.249 0h5.603v-11.464h-5.603v11.464zm85.492 23.328h5.603v-11.464h-5.603v11.464zm-14.248 0h5.603v-11.464h-5.603v11.464zm-14.249 0h5.603v-11.464h-5.603v11.464zm-14.248 0h5.603v-11.464h-5.603v11.464zm-14.249 0h5.603v-11.464h-5.603v11.464zm-14.249 0h5.603v-11.466h-5.603v11.466zm-14.249 0h5.603v-11.464h-5.603v11.464zm85.492 23.289h5.603v-11.469h-5.603v11.469zm-14.248 0h5.603v-11.469h-5.603v11.469zm-14.249 0h5.603v-11.469h-5.603v11.469zm-14.248 0h5.603v-11.466h-5.603v11.466zm-14.249 0h5.603v-11.469h-5.603v11.469zm-14.249 0h5.603v-11.466h-5.603v11.466zm-14.249 0h5.603v-11.469h-5.603v11.469zm207.578-8.289v5.601h11.465v-5.601h-11.465z" fill="#fff"/><path d="M400.28 181.61h9.501v-3.638h-9.501v3.638zm10.483 1.962h-11.466a.982.982 0 01-.983-.983v-5.601c0-.541.44-.984.983-.984h11.466c.543 0 .983.443.983.984v5.601c0 .545-.44.983-.983.983z" fill="#171717"/><path d="M399.297 162.738v5.606h11.466v-5.606h-11.466z" fill="#fff"/><path d="M400.28 167.36h9.501v-3.638h-9.501v3.638zm10.483 1.962h-11.466a.98.98 0 01-.983-.978v-5.606c0-.541.44-.984.983-.984h11.466c.543 0 .983.443.983.984v5.606a.98.98 0 01-.983.978z" fill="#171717"/><path d="M399.297 148.488v5.606h11.466v-5.606h-11.466z" fill="#fff"/><path d="M400.28 153.11h9.501v-3.638h-9.501v3.638zm10.483 1.967h-11.466a.985.985 0 01-.983-.983v-5.606a.98.98 0 01.983-.979h11.466a.98.98 0 01.983.979v5.606c0 .54-.44.983-.983.983z" fill="#171717"/><path d="M399.297 134.243v5.601h11.466v-5.601h-11.466z" fill="#fff"/><path d="M400.28 138.865h9.501v-3.638h-9.501v3.638zm10.483 1.962h-11.466a.982.982 0 01-.983-.983v-5.601c0-.545.44-.984.983-.984h11.466c.543 0 .983.439.983.984v5.601c0 .545-.44.983-.983.983z" fill="#171717"/><path d="M375.969 176.988v5.601h11.466v-5.601h-11.466z" fill="#fff"/><path d="M376.951 181.61h9.501v-3.638h-9.501v3.638zm10.484 1.962h-11.466a.982.982 0 01-.983-.983v-5.601c0-.541.44-.984.983-.984h11.466c.543 0 .983.443.983.984v5.601c0 .545-.44.983-.983.983z" fill="#171717"/><path d="M375.969 162.738v5.606h11.466v-5.606h-11.466z" fill="#fff"/><path d="M376.951 167.36h9.501v-3.638h-9.501v3.638zm10.484 1.962h-11.466a.98.98 0 01-.983-.978v-5.606c0-.541.44-.984.983-.984h11.466c.543 0 .983.443.983.984v5.606a.98.98 0 01-.983.978z" fill="#171717"/><path d="M375.969 148.488v5.606h11.466v-5.606h-11.466z" fill="#fff"/><path d="M376.951 153.11h9.501v-3.638h-9.501v3.638zm10.484 1.967h-11.466a.985.985 0 01-.983-.983v-5.606a.98.98 0 01.983-.979h11.466a.98.98 0 01.983.979v5.606c0 .54-.44.983-.983.983z" fill="#171717"/><path d="M375.969 134.243v5.601h11.466v-5.601h-11.466z" fill="#fff"/><path d="M376.951 138.865h9.501v-3.638h-9.501v3.638zm10.484 1.962h-11.466a.982.982 0 01-.983-.983v-5.601c0-.545.44-.984.983-.984h11.466c.543 0 .983.439.983.984v5.601c0 .545-.44.983-.983.983z" fill="#171717"/><path d="M352.64 176.988v5.601h11.466v-5.601H352.64z" fill="#fff"/><path d="M353.623 181.61h9.501v-3.638h-9.501v3.638zm10.484 1.962h-11.466a.982.982 0 01-.983-.983v-5.601c0-.541.44-.984.983-.984h11.466c.542 0 .982.443.982.984v5.601c0 .545-.44.983-.982.983z" fill="#171717"/><path d="M352.64 162.738v5.606h11.466v-5.606H352.64z" fill="#fff"/><path d="M353.623 167.36h9.501v-3.638h-9.501v3.638zm10.484 1.962h-11.466a.98.98 0 01-.983-.978v-5.606c0-.541.44-.984.983-.984h11.466c.542 0 .982.443.982.984v5.606a.98.98 0 01-.982.978z" fill="#171717"/><path d="M352.64 148.488v5.606h11.466v-5.606H352.64z" fill="#fff"/><path d="M353.623 153.11h9.501v-3.638h-9.501v3.638zm10.484 1.967h-11.466a.985.985 0 01-.983-.983v-5.606a.98.98 0 01.983-.979h11.466a.98.98 0 01.982.979v5.606c0 .54-.44.983-.982.983z" fill="#171717"/><path d="M352.64 134.243v5.601h11.466v-5.601H352.64z" fill="#fff"/><path d="M353.623 138.865h9.501v-3.638h-9.501v3.638zm10.484 1.962h-11.466a.982.982 0 01-.983-.983v-5.601c0-.545.44-.984.983-.984h11.466c.542 0 .982.439.982.984v5.601c0 .545-.44.983-.982.983z" fill="#171717"/><path d="M329.312 176.988v5.601h11.466v-5.601h-11.466z" fill="#fff"/><path d="M330.295 181.61h9.501v-3.638h-9.501v3.638zm10.483 1.962h-11.466a.98.98 0 01-.982-.983v-5.601c0-.541.439-.984.982-.984h11.466c.543 0 .983.443.983.984v5.601c0 .545-.44.983-.983.983z" fill="#171717"/><path d="M329.312 162.738v5.606h11.466v-5.606h-11.466z" fill="#fff"/><path d="M330.295 167.36h9.501v-3.638h-9.501v3.638zm10.483 1.962h-11.466a.98.98 0 01-.982-.978v-5.606c0-.541.439-.984.982-.984h11.466c.543 0 .983.443.983.984v5.606a.98.98 0 01-.983.978z" fill="#171717"/><path d="M329.312 148.488v5.606h11.466v-5.606h-11.466z" fill="#fff"/><path d="M330.295 153.11h9.501v-3.638h-9.501v3.638zm10.483 1.967h-11.466a.984.984 0 01-.982-.983v-5.606a.98.98 0 01.982-.979h11.466a.98.98 0 01.983.979v5.606c0 .54-.44.983-.983.983z" fill="#171717"/><path d="M329.312 134.243v5.601h11.466v-5.601h-11.466z" fill="#fff"/><path d="M330.295 138.865h9.501v-3.638h-9.501v3.638zm10.483 1.962h-11.466a.98.98 0 01-.982-.983v-5.601c0-.545.439-.984.982-.984h11.466c.543 0 .983.439.983.984v5.601c0 .545-.44.983-.983.983z" fill="#171717"/><path d="M306.028 176.988v5.601h11.466v-5.601h-11.466z" fill="#fff"/><path d="M307.01 181.61h9.502v-3.638h-9.502v3.638zm10.484 1.962h-11.466a.982.982 0 01-.983-.983v-5.601c0-.541.44-.984.983-.984h11.466c.543 0 .983.443.983.984v5.601c0 .545-.44.983-.983.983z" fill="#171717"/><path d="M306.028 162.738v5.606h11.466v-5.606h-11.466z" fill="#fff"/><path d="M307.01 167.36h9.502v-3.638h-9.502v3.638zm10.484 1.962h-11.466a.98.98 0 01-.983-.978v-5.606c0-.541.44-.984.983-.984h11.466c.543 0 .983.443.983.984v5.606a.98.98 0 01-.983.978z" fill="#171717"/><path d="M306.028 148.488v5.606h11.466v-5.606h-11.466z" fill="#fff"/><path d="M307.01 153.11h9.502v-3.638h-9.502v3.638zm10.484 1.967h-11.466a.985.985 0 01-.983-.983v-5.606a.98.98 0 01.983-.979h11.466a.98.98 0 01.983.979v5.606c0 .54-.44.983-.983.983z" fill="#171717"/><path d="M306.028 134.243v5.601h11.466v-5.601h-11.466z" fill="#fff"/><path d="M307.01 138.865h9.502v-3.638h-9.502v3.638zm10.484 1.962h-11.466a.982.982 0 01-.983-.983v-5.601c0-.545.44-.984.983-.984h11.466c.543 0 .983.439.983.984v5.601c0 .545-.44.983-.983.983zm-42.087 50.45h9.214c.727 0 1.317-.589 1.317-1.315s-.59-1.315-1.317-1.315h-9.214c-.727 0-1.317.589-1.317 1.315s.59 1.315 1.317 1.315zm3.122-7.32h2.969v-8.834h-2.969v8.834zm4.286 2.635h-5.603a1.317 1.317 0 01-1.317-1.32v-11.464c0-.726.59-1.315 1.317-1.315h5.603c.727 0 1.317.589 1.317 1.315v11.464c0 .731-.59 1.32-1.317 1.32zm-21.657 4.685h9.214c.727 0 1.317-.589 1.317-1.315s-.59-1.315-1.317-1.315h-9.214a1.316 1.316 0 100 2.63zm3.122-7.32h2.97v-8.834h-2.97v8.834zm4.286 2.635h-5.603a1.317 1.317 0 01-1.316-1.32v-11.464c0-.726.589-1.315 1.316-1.315h5.603c.727 0 1.317.589 1.317 1.315v11.464c0 .731-.59 1.32-1.317 1.32zm-21.656 4.685h9.213c.727 0 1.317-.589 1.317-1.315s-.59-1.315-1.317-1.315h-9.213a1.316 1.316 0 100 2.63zm3.122-7.32h2.969v-8.834h-2.969v8.834zm4.286 2.635h-5.603a1.317 1.317 0 01-1.317-1.32v-11.464c0-.726.59-1.315 1.317-1.315h5.603c.727 0 1.316.589 1.316 1.315v11.464c0 .731-.589 1.32-1.316 1.32zm-21.657 4.685h9.214a1.316 1.316 0 100-2.63h-9.214a1.316 1.316 0 100 2.63zm3.122-7.32h2.97v-8.834h-2.97v8.834zm4.286 2.635h-5.603a1.317 1.317 0 01-1.316-1.32v-11.464c0-.726.589-1.315 1.316-1.315h5.603c.728 0 1.317.589 1.317 1.315v11.464c0 .731-.589 1.32-1.317 1.32zm-21.657 4.685h9.214c.727 0 1.317-.589 1.317-1.315s-.59-1.315-1.317-1.315h-9.214a1.316 1.316 0 100 2.63zm3.122-7.32h2.97v-8.834h-2.97v8.834zm4.287 2.635h-5.604a1.317 1.317 0 01-1.316-1.32v-11.464c0-.726.589-1.315 1.316-1.315h5.604c.727 0 1.316.589 1.316 1.315v11.464c0 .731-.589 1.32-1.316 1.32zm-21.657 4.685h9.213a1.316 1.316 0 100-2.63h-9.213a1.316 1.316 0 100 2.63zm3.121-7.32h2.97v-8.834h-2.97v8.834zm4.287 2.635h-5.603a1.317 1.317 0 01-1.317-1.32v-11.464c0-.726.589-1.315 1.317-1.315h5.603c.727 0 1.316.589 1.316 1.315v11.464c0 .731-.589 1.32-1.316 1.32zm-21.657 4.685h9.214a1.315 1.315 0 100-2.63h-9.214c-.727 0-1.317.589-1.317 1.315s.59 1.315 1.317 1.315zm3.122-7.32h2.97v-8.834h-2.97v8.834zm4.286 2.635h-5.603a1.317 1.317 0 01-1.316-1.32v-11.464c0-.726.589-1.315 1.316-1.315h5.603c.727 0 1.317.589 1.317 1.315v11.464c0 .731-.59 1.32-1.317 1.32zm78.084-88.583h9.214a1.317 1.317 0 100-2.634h-9.214a1.318 1.318 0 000 2.634zm3.122-7.32h2.969v-8.834h-2.969v8.835zm4.286 2.635h-5.603c-.727 0-1.317-.589-1.317-1.32V80.54c0-.73.59-1.32 1.317-1.32h5.603c.727 0 1.317.59 1.317 1.32v11.465c0 .73-.59 1.32-1.317 1.32zm-21.657 4.685h9.214a1.317 1.317 0 100-2.634h-9.214a1.317 1.317 0 000 2.634zm3.122-7.32h2.97v-8.834h-2.97v8.835zm4.286 2.635h-5.603c-.727 0-1.316-.589-1.316-1.32V80.54c0-.73.589-1.32 1.316-1.32h5.603c.727 0 1.317.59 1.317 1.32v11.465c0 .73-.59 1.32-1.317 1.32zM246.91 98.01h9.213a1.317 1.317 0 100-2.634h-9.213a1.317 1.317 0 100 2.634zm3.122-7.32h2.969v-8.834h-2.969v8.835zm4.286 2.635h-5.603c-.727 0-1.317-.589-1.317-1.32V80.54c0-.73.59-1.32 1.317-1.32h5.603c.727 0 1.316.59 1.316 1.32v11.465c0 .73-.589 1.32-1.316 1.32zm-21.657 4.685h9.214a1.317 1.317 0 000-2.635h-9.214a1.317 1.317 0 100 2.635zm3.122-7.32h2.97v-8.834h-2.97v8.835zm4.286 2.635h-5.603c-.727 0-1.316-.589-1.316-1.32V80.54c0-.73.589-1.32 1.316-1.32h5.603c.728 0 1.317.59 1.317 1.32v11.465c0 .73-.589 1.32-1.317 1.32zm-21.657 4.685h9.214a1.317 1.317 0 100-2.634h-9.214a1.317 1.317 0 000 2.634zm3.122-7.32h2.97v-8.834h-2.97v8.835zm4.287 2.635h-5.604c-.727 0-1.316-.589-1.316-1.32V80.54c0-.73.589-1.32 1.316-1.32h5.604c.727 0 1.316.59 1.316 1.32v11.465c0 .73-.589 1.32-1.316 1.32zm-21.657 4.685h9.213a1.317 1.317 0 100-2.635h-9.213a1.317 1.317 0 100 2.635zm3.121-7.32h2.97v-8.834h-2.97v8.835zm4.287 2.635h-5.603c-.728 0-1.317-.589-1.317-1.32V80.54c0-.73.589-1.32 1.317-1.32h5.603c.727 0 1.316.59 1.316 1.32v11.465c0 .73-.589 1.32-1.316 1.32zm-21.657 4.685h9.214a1.316 1.316 0 000-2.635h-9.214a1.318 1.318 0 000 2.635zm3.122-7.32h2.97v-8.834h-2.97v8.835zm4.286 2.635h-5.603c-.727 0-1.316-.589-1.316-1.32V80.54c0-.73.589-1.32 1.316-1.32h5.603c.727 0 1.317.59 1.317 1.32v11.465c0 .73-.59 1.32-1.317 1.32zm78.084 28.013h9.214a1.316 1.316 0 100-2.634h-9.214a1.317 1.317 0 000 2.634zm3.122-7.319h2.969v-8.835h-2.969v8.835zm4.286 2.634h-5.603a1.317 1.317 0 01-1.317-1.32v-11.464c0-.725.59-1.315 1.317-1.315h5.603c.727 0 1.317.59 1.317 1.315v11.464c0 .731-.59 1.32-1.317 1.32zm-21.657 4.685h9.214a1.316 1.316 0 100-2.634h-9.214a1.316 1.316 0 000 2.634zm3.122-7.319h2.97v-8.835h-2.97v8.835zm4.286 2.634h-5.603a1.317 1.317 0 01-1.316-1.32v-11.464c0-.725.589-1.315 1.316-1.315h5.603c.727 0 1.317.59 1.317 1.315v11.464c0 .731-.59 1.32-1.317 1.32zm-21.656 4.685h9.213a1.316 1.316 0 100-2.634h-9.213a1.317 1.317 0 100 2.634zm3.122-7.319h2.969v-8.835h-2.969v8.835zm4.286 2.634h-5.603a1.317 1.317 0 01-1.317-1.32v-11.464c0-.725.59-1.315 1.317-1.315h5.603c.727 0 1.316.59 1.316 1.315v11.464c0 .731-.589 1.32-1.316 1.32zm-21.657 4.685h9.214a1.316 1.316 0 000-2.634h-9.214a1.317 1.317 0 100 2.634zm3.122-7.319h2.97v-8.835h-2.97v8.835zm4.286 2.634h-5.603a1.317 1.317 0 01-1.316-1.32v-11.464c0-.725.589-1.315 1.316-1.315h5.603c.728 0 1.317.59 1.317 1.315v11.464c0 .731-.589 1.32-1.317 1.32zm-21.657 4.685h9.214a1.316 1.316 0 100-2.634h-9.214a1.316 1.316 0 000 2.634zm3.122-7.319h2.97v-8.835h-2.97v8.835zm4.287 2.634h-5.604a1.317 1.317 0 01-1.316-1.32v-11.464c0-.725.589-1.315 1.316-1.315h5.604c.727 0 1.316.59 1.316 1.315v11.464c0 .731-.589 1.32-1.316 1.32zm-21.657 4.685h9.213a1.316 1.316 0 100-2.634h-9.213a1.317 1.317 0 100 2.634zm3.121-7.319h2.97v-8.835h-2.97v8.835zm4.287 2.634h-5.603a1.317 1.317 0 01-1.317-1.32v-11.464c0-.725.589-1.315 1.317-1.315h5.603c.727 0 1.316.59 1.316 1.315v11.464c0 .731-.589 1.32-1.316 1.32zm-21.657 4.685h9.214c.728 0 1.316-.589 1.316-1.315 0-.73-.588-1.319-1.316-1.319h-9.214a1.317 1.317 0 000 2.634zm3.122-7.319h2.97v-8.835h-2.97v8.835zm4.286 2.634h-5.603a1.317 1.317 0 01-1.316-1.32v-11.464c0-.725.589-1.315 1.316-1.315h5.603c.727 0 1.317.59 1.317 1.315v11.464c0 .731-.59 1.32-1.317 1.32zm78.084 28.013h9.214c.727 0 1.317-.589 1.317-1.315 0-.725-.59-1.315-1.317-1.315h-9.214c-.727 0-1.317.59-1.317 1.315 0 .726.59 1.315 1.317 1.315zm3.122-7.32h2.969v-8.834h-2.969v8.834zm4.286 2.635h-5.603a1.317 1.317 0 01-1.317-1.32v-11.464c0-.726.59-1.315 1.317-1.315h5.603c.727 0 1.317.589 1.317 1.315v11.464c0 .731-.59 1.32-1.317 1.32zm-21.657 4.685h9.214c.727 0 1.317-.589 1.317-1.315 0-.725-.59-1.315-1.317-1.315h-9.214a1.316 1.316 0 000 2.63zm3.122-7.32h2.97v-8.834h-2.97v8.834zm4.286 2.635h-5.603a1.317 1.317 0 01-1.316-1.32v-11.464c0-.726.589-1.315 1.316-1.315h5.603c.727 0 1.317.589 1.317 1.315v11.464c0 .731-.59 1.32-1.317 1.32zm-21.656 4.685h9.213c.727 0 1.317-.589 1.317-1.315 0-.725-.59-1.315-1.317-1.315h-9.213a1.316 1.316 0 100 2.63zm3.122-7.32h2.969v-8.834h-2.969v8.834zm4.286 2.635h-5.603a1.317 1.317 0 01-1.317-1.32v-11.464c0-.726.59-1.315 1.317-1.315h5.603c.727 0 1.316.589 1.316 1.315v11.464c0 .731-.589 1.32-1.316 1.32zm-21.657 4.685h9.214a1.316 1.316 0 100-2.63h-9.214a1.316 1.316 0 100 2.63zm3.122-7.32h2.97v-8.834h-2.97v8.834zm4.286 2.635h-5.603a1.317 1.317 0 01-1.316-1.32v-11.464c0-.726.589-1.315 1.316-1.315h5.603c.728 0 1.317.589 1.317 1.315v11.464c0 .731-.589 1.32-1.317 1.32zm-21.657 4.685h9.214c.727 0 1.317-.589 1.317-1.315 0-.725-.59-1.315-1.317-1.315h-9.214a1.316 1.316 0 000 2.63zm3.122-7.32h2.97v-8.834h-2.97v8.834zm4.287 2.635h-5.604a1.317 1.317 0 01-1.316-1.32v-11.464c0-.726.589-1.315 1.316-1.315h5.604c.727 0 1.316.589 1.316 1.315v11.464c0 .731-.589 1.32-1.316 1.32zm-21.657 4.685h9.213a1.316 1.316 0 100-2.63h-9.213a1.316 1.316 0 100 2.63zm3.121-7.32h2.97v-8.834h-2.97v8.834zm4.287 2.635h-5.603a1.317 1.317 0 01-1.317-1.32v-11.464c0-.726.589-1.315 1.317-1.315h5.603c.727 0 1.316.589 1.316 1.315v11.464c0 .731-.589 1.32-1.316 1.32zm-21.657 4.685h9.214a1.315 1.315 0 100-2.63h-9.214c-.727 0-1.317.59-1.317 1.315 0 .726.59 1.315 1.317 1.315zm3.122-7.32h2.97v-8.834h-2.97v8.834zm4.286 2.635h-5.603a1.317 1.317 0 01-1.316-1.32v-11.464c0-.726.589-1.315 1.316-1.315h5.603c.727 0 1.317.589 1.317 1.315v11.464c0 .731-.59 1.32-1.317 1.32zm78.084 28.013h9.214c.727 0 1.317-.589 1.317-1.315s-.59-1.315-1.317-1.315h-9.214c-.727 0-1.317.589-1.317 1.315s.59 1.315 1.317 1.315zm3.122-7.32h2.969v-8.834h-2.969v8.834zm4.286 2.635h-5.603a1.317 1.317 0 01-1.317-1.32v-11.464c0-.726.59-1.315 1.317-1.315h5.603c.727 0 1.317.589 1.317 1.315v11.464c0 .731-.59 1.32-1.317 1.32zm-21.657 4.685h9.214c.727 0 1.317-.589 1.317-1.315s-.59-1.315-1.317-1.315h-9.214a1.316 1.316 0 100 2.63zm3.122-7.32h2.97v-8.834h-2.97v8.834zm4.286 2.635h-5.603a1.317 1.317 0 01-1.316-1.32v-11.464c0-.726.589-1.315 1.316-1.315h5.603c.727 0 1.317.589 1.317 1.315v11.464c0 .731-.59 1.32-1.317 1.32zm-21.656 4.685h9.213c.727 0 1.317-.589 1.317-1.315s-.59-1.315-1.317-1.315h-9.213a1.316 1.316 0 100 2.63zm3.122-7.32h2.969v-8.834h-2.969v8.834zm4.286 2.635h-5.603a1.317 1.317 0 01-1.317-1.32v-11.464c0-.726.59-1.315 1.317-1.315h5.603c.727 0 1.316.589 1.316 1.315v11.464c0 .731-.589 1.32-1.316 1.32zm-21.657 4.685h9.214a1.316 1.316 0 100-2.63h-9.214a1.316 1.316 0 100 2.63zm3.122-7.32h2.97v-8.834h-2.97v8.834zm4.286 2.635h-5.603a1.317 1.317 0 01-1.316-1.32v-11.464c0-.726.589-1.315 1.316-1.315h5.603c.728 0 1.317.589 1.317 1.315v11.464c0 .731-.589 1.32-1.317 1.32zm-21.657 4.685h9.214c.727 0 1.317-.589 1.317-1.315s-.59-1.315-1.317-1.315h-9.214a1.316 1.316 0 100 2.63zm3.122-7.32h2.97v-8.834h-2.97v8.834zm4.287 2.635h-5.604a1.317 1.317 0 01-1.316-1.32v-11.464c0-.726.589-1.315 1.316-1.315h5.604c.727 0 1.316.589 1.316 1.315v11.464c0 .731-.589 1.32-1.316 1.32zm-21.657 4.685h9.213a1.316 1.316 0 100-2.63h-9.213a1.316 1.316 0 100 2.63zm3.121-7.32h2.97v-8.834h-2.97v8.834zm4.287 2.635h-5.603a1.317 1.317 0 01-1.317-1.32v-11.464c0-.726.589-1.315 1.317-1.315h5.603c.727 0 1.316.589 1.316 1.315v11.464c0 .731-.589 1.32-1.316 1.32zm-21.657 4.685h9.214a1.315 1.315 0 100-2.63h-9.214c-.727 0-1.317.589-1.317 1.315s.59 1.315 1.317 1.315zm3.122-7.32h2.97v-8.834h-2.97v8.834zm4.286 2.635h-5.603a1.317 1.317 0 01-1.316-1.32v-11.464c0-.726.589-1.315 1.316-1.315h5.603c.727 0 1.317.589 1.317 1.315v11.464c0 .731-.59 1.32-1.317 1.32zM188.3 74.682h97.161a1.317 1.317 0 100-2.635H188.3a1.318 1.318 0 000 2.635z" fill="#171717"/><path d="M226.521 67.625h22.74v-4.987h-22.74v4.987z" fill="#fff"/><path d="M227.837 66.31h20.108v-2.352h-20.108v2.352zm21.391 2.63h-22.674a1.35 1.35 0 01-1.35-1.35v-4.918a1.35 1.35 0 011.35-1.349h22.674c.745 0 1.35.604 1.35 1.349v4.919a1.35 1.35 0 01-1.35 1.349z" fill="#171717"/><path fill-rule="evenodd" clip-rule="evenodd" d="M212.682 225.704h52.758V97.468h-52.758v128.236z" fill="#fff"/><path d="M202.373 178.454h10.213V168.24h-10.213v10.214z" fill="#fff"/><path d="M203.689 177.139h7.58v-7.583h-7.58v7.583zm8.864 2.635h-10.147c-.746 0-1.35-.609-1.35-1.354v-10.145a1.35 1.35 0 011.35-1.349h10.147c.745 0 1.35.604 1.35 1.349v10.145c0 .745-.605 1.354-1.35 1.354" fill="#171717"/><path d="M192.107 178.454h10.214v-10.213h-10.214v10.213z" fill="#fff"/><path d="M193.423 177.139h7.581v-7.583h-7.581v7.583zm8.864 2.635H192.14c-.746 0-1.35-.609-1.35-1.354v-10.145a1.35 1.35 0 011.35-1.349h10.147c.746 0 1.35.604 1.35 1.349v10.145c0 .745-.604 1.354-1.35 1.354" fill="#171717"/><path d="M202.373 189.002h10.213v-10.213h-10.213v10.213z" fill="#fff"/><path d="M203.689 187.683h7.58v-7.578h-7.58v7.578zm8.864 2.634h-10.147c-.746 0-1.35-.603-1.35-1.349v-10.149a1.35 1.35 0 011.35-1.349h10.147c.745 0 1.35.604 1.35 1.349v10.149a1.35 1.35 0 01-1.35 1.349" fill="#171717"/><path d="M146.892 225.704h44.28V118.079h-44.28v107.625z" fill="#fff"/><path d="M148.208 224.389h41.647V119.394h-41.647v104.995zm42.93 2.634h-44.213c-.745 0-1.35-.604-1.35-1.354V118.113c0-.75.605-1.354 1.35-1.354h44.213c.746 0 1.35.604 1.35 1.354v107.556a1.35 1.35 0 01-1.35 1.354" fill="#171717"/><path d="M192.107 189.003h10.214V178.79h-10.214v10.213z" fill="#fff"/><path d="M193.423 187.683h7.581v-7.578h-7.581v7.578zm8.864 2.634H192.14c-.746 0-1.35-.603-1.35-1.349v-10.149a1.35 1.35 0 011.35-1.349h10.147c.746 0 1.35.604 1.35 1.349v10.149c0 .746-.604 1.349-1.35 1.349z" fill="#171717"/><path d="M202.373 199.546h10.213v-10.213h-10.213v10.213z" fill="#fff"/><path d="M203.689 198.231h7.58v-7.582h-7.58v7.582zm8.864 2.635h-10.147c-.746 0-1.35-.609-1.35-1.354v-10.144a1.35 1.35 0 011.35-1.349h10.147c.745 0 1.35.604 1.35 1.349v10.144c0 .745-.605 1.354-1.35 1.354" fill="#171717"/><path d="M192.107 199.546h10.214v-10.212h-10.214v10.212z" fill="#fff"/><path d="M193.423 198.231h7.581v-7.582h-7.581v7.582zm8.864 2.635H192.14c-.746 0-1.35-.609-1.35-1.354v-10.144a1.35 1.35 0 011.35-1.349h10.147c.746 0 1.35.604 1.35 1.349v10.144c0 .745-.604 1.354-1.35 1.354z" fill="#171717"/><path d="M202.373 210.095h10.213v-10.214h-10.213v10.214z" fill="#fff"/><path d="M203.689 208.775h7.58v-7.578h-7.58v7.578zm8.864 2.635h-10.147a1.35 1.35 0 01-1.35-1.349v-10.149c0-.746.604-1.35 1.35-1.35h10.147c.745 0 1.35.604 1.35 1.35v10.149a1.35 1.35 0 01-1.35 1.349" fill="#171717"/><path d="M192.107 210.095h10.214v-10.218h-10.214v10.218z" fill="#fff"/><path d="M193.423 208.775h7.581v-7.578h-7.581v7.578zm8.864 2.635H192.14a1.35 1.35 0 01-1.35-1.349v-10.149c0-.746.604-1.35 1.35-1.35h10.147c.746 0 1.35.604 1.35 1.35v10.149a1.35 1.35 0 01-1.35 1.349z" fill="#171717"/><path d="M202.373 220.137h10.213v-10.214h-10.213v10.214z" fill="#fff"/><path d="M203.689 218.822h7.58v-7.583h-7.58v7.583zm8.864 2.635h-10.147c-.746 0-1.35-.609-1.35-1.354v-10.144a1.35 1.35 0 011.35-1.349h10.147c.745 0 1.35.604 1.35 1.349v10.144c0 .745-.605 1.354-1.35 1.354" fill="#171717"/><path d="M192.107 220.137h10.214v-10.213h-10.214v10.213z" fill="#fff"/><path d="M193.423 218.822h7.581v-7.583h-7.581v7.583zm8.864 2.63H192.14a1.35 1.35 0 01-1.35-1.349v-10.144c0-.746.604-1.349 1.35-1.349h10.147c.746 0 1.35.603 1.35 1.349v10.144a1.35 1.35 0 01-1.35 1.349zm11.711 2.937h50.126V97.415h-50.126V224.39zm51.442 2.634h-52.758a1.32 1.32 0 01-1.317-1.319V96.101c0-.726.59-1.315 1.317-1.315h52.758c.728 0 1.317.589 1.317 1.315v129.603a1.32 1.32 0 01-1.317 1.319" fill="#171717"/><path d="M663.188 220.683a5.336 5.336 0 01-5.338 5.337 5.333 5.333 0 01-5.337-5.337 5.336 5.336 0 015.337-5.338 5.34 5.34 0 015.338 5.338zm16.792 1.159a4.829 4.829 0 01-4.831 4.826 4.829 4.829 0 110-9.657 4.83 4.83 0 014.831 4.831zm-421.758-99.628h-39.128 39.128" fill="#fff"/><path d="M219.094 123.534h39.128a1.317 1.317 0 000-2.635h-39.128a1.317 1.317 0 000 2.635zm0-6.098h39.128a1.316 1.316 0 000-2.634h-39.128a1.316 1.316 0 000 2.634m2.068 108.594c.727 0 1.316-.589 1.316-1.315V128.94a1.317 1.317 0 10-2.633 0v95.775c0 .726.589 1.315 1.317 1.315m8.963 0c.728 0 1.317-.589 1.317-1.315V128.94a1.317 1.317 0 10-2.633 0v95.775c0 .726.589 1.315 1.316 1.315m8.965 0c.727 0 1.316-.589 1.316-1.315V128.94a1.317 1.317 0 10-2.633 0v95.775c0 .726.589 1.315 1.317 1.315m8.964 0c.727 0 1.317-.589 1.317-1.315V128.94a1.317 1.317 0 10-2.634 0v95.775c0 .726.59 1.315 1.317 1.315m8.965 0c.727 0 1.316-.589 1.316-1.315V128.94a1.317 1.317 0 10-2.633 0v95.775c0 .726.59 1.315 1.317 1.315" fill="#171717"/><path d="M243.011 225.85h70.671v-28.854h-70.671v28.854z" fill="#fff"/><path d="M244.328 224.535h68.038v-26.221h-68.038v26.221zm69.321 2.634h-70.605a1.348 1.348 0 01-1.349-1.349v-28.787c0-.745.604-1.354 1.349-1.354h70.605c.745 0 1.35.609 1.35 1.354v28.787a1.35 1.35 0 01-1.35 1.349z" fill="#171717"/><path d="M239.78 196.707h76.123l-2.22-12.813H242l-2.22 12.813" fill="#fff"/><path d="M241.344 195.387h72.994l-1.764-10.178h-69.466l-1.764 10.178zm74.559 2.635H239.78a1.313 1.313 0 01-1.297-1.539l2.22-12.813a1.313 1.313 0 011.297-1.091h71.682c.641 0 1.188.458 1.298 1.091l2.22 12.813a1.317 1.317 0 01-1.297 1.539" fill="#171717"/><path d="M265.588 215.428h9.099V204.46h-9.099v10.968zm-15.872 0h9.099v-10.32h-9.099v10.32z" fill="#fff"/><path d="M265.588 215.428h9.099v-10.32h-9.099v10.32z" fill="#fff"/><path d="M266.905 214.113h6.465v-7.69h-6.465v7.69zm7.749 2.635h-9.033a1.35 1.35 0 01-1.35-1.349v-10.257c0-.745.605-1.354 1.35-1.354h9.033c.745 0 1.349.609 1.349 1.354v10.257c0 .745-.604 1.349-1.349 1.349z" fill="#171717"/><path d="M281.388 215.428h9.098v-10.32h-9.098v10.32z" fill="#fff"/><path d="M282.705 214.113h6.465v-7.69h-6.465v7.69zm7.748 2.635h-9.032a1.35 1.35 0 01-1.35-1.349v-10.257c0-.745.605-1.354 1.35-1.354h9.032c.746 0 1.35.609 1.35 1.354v10.257a1.35 1.35 0 01-1.35 1.349z" fill="#171717"/><path d="M297.302 215.428h9.099v-10.32h-9.099v10.32z" fill="#fff"/><path d="M298.618 214.113h6.466v-7.69h-6.466v7.69zm7.749 2.635h-9.032a1.35 1.35 0 01-1.35-1.349v-10.257c0-.745.604-1.354 1.35-1.354h9.032c.746 0 1.35.609 1.35 1.354v10.257a1.35 1.35 0 01-1.35 1.349z" fill="#171717"/><path d="M249.716 215.428h9.099v-10.32h-9.099v10.32z" fill="#fff"/><path d="M251.032 214.113h6.465v-7.69h-6.465v7.69zm7.749 2.634h-9.032c-.746 0-1.35-.603-1.35-1.349v-10.256c0-.745.604-1.354 1.35-1.354h9.032c.745 0 1.35.609 1.35 1.354v10.256a1.35 1.35 0 01-1.35 1.349zM60.345 204.46c-.739 0-1.337-.599-1.337-1.339a1.338 1.338 0 112.674 0c0 .74-.599 1.339-1.337 1.339zm-26.326 1.335a1.337 1.337 0 110-2.674 1.337 1.337 0 010 2.674zm56.322 13.061a11.58 11.58 0 007.08-10.436c-.18-6.229-5.3-11.246-11.573-11.246-3.752 0-7.09 1.798-9.207 4.569v-3.955a14.242 14.242 0 019.207-3.365c7.79 0 14.143 6.248 14.323 13.997a14.33 14.33 0 01-8.755 12.969 1.373 1.373 0 01-1.804-.726 1.378 1.378 0 01.729-1.807" fill="#171717"/><path d="M87.185 207.918c0 .74-.599 1.334-1.337 1.334s-1.337-.594-1.337-1.334a1.338 1.338 0 112.674 0zM34.02 183.475c3.901 0 7.442 1.573 10.029 4.11v4.442c-2.004-3.463-5.748-5.801-10.029-5.801-6.385 0-11.58 5.197-11.58 11.582v10.383c0 5.922 4.465 10.811 10.205 11.498v-10.183c0-.76.616-1.374 1.375-1.374.76 0 1.376.614 1.376 1.374v17.551c0 .755-.616 1.374-1.376 1.374-.76 0-1.375-.619-1.375-1.374v-4.602c-7.26-.696-12.957-6.828-12.957-14.264v-10.383c0-7.9 6.43-14.333 14.332-14.333zm4.493 35.381a11.596 11.596 0 006.164-6.156c.33 1.159.784 2.265 1.349 3.307a14.396 14.396 0 01-6.437 5.382 1.373 1.373 0 01-1.804-.726 1.378 1.378 0 01.728-1.807zm45.96.833v-6.248c0-.76.616-1.374 1.376-1.374.76 0 1.376.614 1.376 1.374v13.616c0 .755-.617 1.374-1.376 1.374-.76 0-1.376-.619-1.376-1.374v-4.602c-4.18-.399-7.838-2.605-10.191-5.825.56-.92 1.027-1.899 1.395-2.922 1.755 3.224 4.994 5.528 8.797 5.981zm-38.46-39.029c0-7.904 6.43-14.333 14.333-14.333 7.902 0 14.331 6.429 14.331 14.333v27.531c0 5.756-3.44 10.938-8.763 13.198a1.373 1.373 0 01-1.804-.726c-.297-.701.03-1.51.729-1.807a11.58 11.58 0 007.087-10.665V180.66c0-6.385-5.195-11.581-11.58-11.581-6.386 0-11.581 5.196-11.581 11.581v27.531c0 5.922 4.466 10.811 10.205 11.498v-10.183c0-.76.616-1.374 1.376-1.374.76 0 1.375.614 1.375 1.374v17.551c0 .755-.616 1.374-1.375 1.374-.76 0-1.376-.619-1.376-1.374v-4.602c-7.26-.696-12.956-6.828-12.956-14.264V180.66zm-22.85-3.745h.198a1.378 1.378 0 001.375-1.378 3.388 3.388 0 011.032-2.445 3.28 3.28 0 012.337-.955 1.369 1.369 0 001.405-1.344 1.372 1.372 0 00-1.345-1.403 6.06 6.06 0 00-4.322 1.734c-.21.205-.404.424-.581.653a6.207 6.207 0 00-.58-.653 6.049 6.049 0 00-4.323-1.734 1.377 1.377 0 00.03 2.752l.099-.005c.837 0 1.64.336 2.268.955a3.389 3.389 0 011.031 2.445 1.379 1.379 0 001.376 1.378zm-13.12-8.318h.197a1.374 1.374 0 001.376-1.374 3.4 3.4 0 011.031-2.449c.645-.629 1.472-.965 2.337-.95.77.034 1.389-.584 1.405-1.344a1.38 1.38 0 00-1.345-1.408c-1.583-.034-3.162.599-4.322 1.739-.21.205-.404.424-.58.653a6.173 6.173 0 00-.581-.653c-1.161-1.14-2.752-1.773-4.322-1.739a1.38 1.38 0 00-1.346 1.408c.017.75.63 1.344 1.375 1.344h.098c.838 0 1.642.336 2.27.95a3.4 3.4 0 011.03 2.449 1.374 1.374 0 001.376 1.374zM9.77 182.71h.124a1.378 1.378 0 001.376-1.378 1.62 1.62 0 011.594-1.622h.03c.746 0 1.359-.594 1.375-1.344a1.378 1.378 0 00-1.345-1.407c-1.146-.03-2.258.428-3.085 1.237l-.007.009-.007-.009c-.827-.809-1.946-1.271-3.085-1.237a1.378 1.378 0 00-1.345 1.407c.016.76.65 1.373 1.405 1.344a1.618 1.618 0 011.594 1.622 1.376 1.376 0 001.376 1.378" fill="#171717"/><path d="M586.289 111.743l2.114-5.216s-.175-3.764-.565-3.716c-.39.054-3.336-2.065-3.336-2.065l-4.232-2.162-2.83-2.493-3.944-.629-3.984-1.626-7.992-1.831-6.156 3.477-11.956 6.847-.19 7.271 2.508 2.401 7.159-.72 6.848.72 11.751-.399 8.367.399 6.438-.258" fill="#fff"/><path d="M569.468 123.923c.38 0 .75-.156 1.023-.458l5.03-5.576a1.377 1.377 0 00-2.045-1.841l-5.026 5.577a1.373 1.373 0 001.018 2.298zm-6.365 0c.375 0 .75-.156 1.022-.458l5.031-5.576a1.377 1.377 0 00-2.045-1.841l-5.031 5.577a1.377 1.377 0 001.023 2.298zm-6.366 0c.375 0 .75-.156 1.023-.458l5.031-5.576a1.378 1.378 0 00-.102-1.943 1.375 1.375 0 00-1.944.102l-5.03 5.577a1.377 1.377 0 001.022 2.298zm-6.365 0c.375 0 .75-.156 1.023-.458l5.031-5.576a1.378 1.378 0 00-.103-1.943 1.373 1.373 0 00-1.943.102l-5.031 5.577a1.378 1.378 0 001.023 2.298zm28.359-14.644c.311 0 .623.102.876.311a4.534 4.534 0 002.884 1.033 4.543 4.543 0 004.538-4.539 4.542 4.542 0 00-5.133-4.495 1.381 1.381 0 01-1.427-.784 6.93 6.93 0 00-6.263-3.999 7.05 7.05 0 00-1.826.244 1.371 1.371 0 01-1.437-.468 8.626 8.626 0 00-6.764-3.263 8.635 8.635 0 00-6.56 3.02 1.394 1.394 0 01-1.101.477c-.087-.005-.17-.01-.258-.01a6.935 6.935 0 00-6.268 3.999 1.38 1.38 0 01-1.427.784 4.542 4.542 0 00-5.128 4.495 4.543 4.543 0 004.534 4.539 4.53 4.53 0 002.883-1.033 1.378 1.378 0 011.632-.087 6.855 6.855 0 003.774 1.12 6.852 6.852 0 003.132-.75 1.36 1.36 0 011.198-.029 8.533 8.533 0 003.589.779 8.647 8.647 0 004.549-1.291 1.38 1.38 0 011.514.039 6.843 6.843 0 003.964 1.252 6.88 6.88 0 003.775-1.12c.229-.151.492-.224.75-.224zm3.76 4.096a7.308 7.308 0 01-3.833-1.086 9.652 9.652 0 01-4.452 1.086 9.622 9.622 0 01-4.792-1.272 11.396 11.396 0 01-5.235 1.272 11.25 11.25 0 01-4.13-.775 9.524 9.524 0 01-3.789.775 9.668 9.668 0 01-4.456-1.086 7.31 7.31 0 01-3.833 1.086c-4.018 0-7.285-3.268-7.285-7.291 0-4.008 3.253-7.271 7.261-7.286a9.69 9.69 0 018.026-4.738 11.385 11.385 0 018.206-3.492 11.32 11.32 0 018.342 3.638 9.326 9.326 0 011.685-.151c3.419 0 6.585 1.836 8.314 4.743 4.003.015 7.261 3.278 7.261 7.286 0 4.023-3.273 7.291-7.29 7.291z" fill="#171717"/><path d="M56.44 90.704a8.165 8.165 0 1016.33-.005 8.165 8.165 0 00-16.33.005" fill="#fff"/><path d="M454.225 211.322l5.268-5.269h-.087c-1.791 0-3.335-1.028-4.029-2.684-.687-1.641-.343-3.443.891-4.695l5.616-5.62h-.034a3.626 3.626 0 01-3.35-2.23c-.572-1.364-.285-2.864.738-3.906l7.408-7.407a3.828 3.828 0 015.408 0l7.371 7.368.029.029a3.543 3.543 0 01.745 3.916 3.625 3.625 0 01-3.35 2.23h-.034l5.58 5.582.03.034c1.241 1.256 1.587 3.058.901 4.699-.697 1.656-2.241 2.684-4.033 2.684h-.088l5.231 5.23.034.034c1.383 1.408 1.768 3.414 1.003 5.245-.774 1.846-2.498 2.995-4.5 2.995h-6.619c-.76 0-1.375-.613-1.375-1.373s.615-1.378 1.375-1.378h6.619c1.043 0 1.695-.677 1.963-1.31.331-.799.175-1.637-.424-2.25l-.044-.039-7.555-7.554a1.38 1.38 0 01.973-2.352h3.407c.999 0 1.393-.765 1.495-.998.093-.224.351-1.023-.321-1.705l.979-.964-1.013.93-7.911-7.909a1.377 1.377 0 01-.298-1.5 1.37 1.37 0 011.27-.847h3.355c.543 0 .76-.419.814-.551a.828.828 0 00-.195-.94l-7.359-7.358a1.074 1.074 0 00-1.518 0l-7.382 7.383c-.353.355-.237.759-.172.915.054.132.271.551.813.551h3.356c.556 0 1.058.331 1.27.847a1.379 1.379 0 01-.298 1.5l-7.909 7.909-.034.034c-.675.682-.417 1.481-.321 1.705.098.233.496.998 1.492.998h3.408a1.377 1.377 0 01.972 2.352l-7.555 7.554-.041.044c-.6.608-.758 1.446-.424 2.245.265.633.919 1.31 1.958 1.31h11.116c.177 0 .345.039.5.097h.01c.76 0 1.376.619 1.376 1.378v8.776c0 .76-.616 1.374-1.376 1.374a1.374 1.374 0 01-1.375-1.374v-7.5h-10.251c-1.998 0-3.721-1.149-4.496-2.995-.765-1.831-.382-3.837.997-5.24z" fill="#171717"/><path d="M469.35 214.648a1.337 1.337 0 110-2.674 1.337 1.337 0 010 2.674zm29.136-9.331a1.337 1.337 0 11.007-2.671 1.337 1.337 0 01-.007 2.671zm19.383-2.016a1.377 1.377 0 01.97 2.352l-4.135 4.135c.053-.526.083-1.062.083-1.597v-4.89h3.082" fill="#171717"/><path d="M528.55 190.308h3.355c.541 0 .76-.419.813-.551a.832.832 0 00-.194-.94l-7.359-7.358a1.076 1.076 0 00-1.52 0l-7.383 7.383a.81.81 0 00-.17.915.862.862 0 00.813.551h3.356c.555 0 1.057.331 1.271.847a1.386 1.386 0 01-.302 1.5l-6.443 6.448v-3.891l2.152-2.158h-.034a3.592 3.592 0 01-2.118-.691v-5.937l6.915-6.915a3.826 3.826 0 015.406 0l7.369 7.368.029.029a3.553 3.553 0 01.75 3.916 3.63 3.63 0 01-3.351 2.23h-.034l5.576 5.582.034.034c1.237 1.256 1.583 3.058.896 4.699-.696 1.656-2.24 2.684-4.027 2.684h-.088l5.226 5.23.039.034c1.383 1.408 1.763 3.414.998 5.245-.774 1.846-2.498 2.995-4.495 2.995h-6.623a1.376 1.376 0 010-2.751h6.623c1.037 0 1.695-.677 1.958-1.31.336-.799.175-1.637-.424-2.25l-.039-.039-7.558-7.554a1.378 1.378 0 01.974-2.352h3.409c.993 0 1.393-.765 1.49-.998.098-.224.356-1.023-.321-1.705l.979-.964-1.013.93-7.909-7.909a1.371 1.371 0 01-.297-1.5 1.367 1.367 0 011.271-.847zm-15.77 26.498h11.114c.175 0 .346.039.501.097h.01c.76 0 1.374.619 1.374 1.379v8.775a1.376 1.376 0 01-2.752 0v-7.5H512.78a4.95 4.95 0 01-2.162-.491 16.173 16.173 0 001.724-2.304c.141.029.282.044.438.044zm-28.621-8.581l-.005-.034v-2.435c.399-.478.73-1.023.984-1.627.935-2.23.555-4.67-.984-6.482V180.66c0-7.904 6.433-14.333 14.332-14.333 7.905 0 14.333 6.429 14.333 14.333v27.531c0 5.756-3.438 10.938-8.761 13.198a1.376 1.376 0 11-1.076-2.533 11.58 11.58 0 007.086-10.665V180.66c0-6.385-5.197-11.581-11.582-11.581-6.384 0-11.581 5.196-11.581 11.581v27.531c0 5.922 4.466 10.811 10.208 11.498v-10.183a1.377 1.377 0 012.752 0v17.551a1.376 1.376 0 01-2.752 0v-4.602c-3.94-.375-7.417-2.357-9.774-5.274.998-2.537.448-5.294-1.466-7.242l-1.714-1.714zm-345.89-41.571a2.417 2.417 0 110 4.836 2.419 2.419 0 110-4.836zm-7.014 0a2.417 2.417 0 110 4.836 2.417 2.417 0 110-4.836zm-7.013 0a2.417 2.417 0 110 4.836 2.418 2.418 0 110-4.836zm-7.014 4.836a2.418 2.418 0 110-4.836 2.418 2.418 0 110 4.836zm21.041 2.99a2.421 2.421 0 010 4.841 2.421 2.421 0 010-4.841zm-7.014 0a2.421 2.421 0 010 4.841 2.422 2.422 0 010-4.841zm-7.013 0a2.421 2.421 0 010 4.841 2.422 2.422 0 01-2.42-2.421 2.422 2.422 0 012.42-2.42zm-7.014 0a2.422 2.422 0 012.42 2.42 2.42 2.42 0 11-2.42-2.42zm21.041 7.831a2.422 2.422 0 010 4.841 2.421 2.421 0 010-4.841zm-7.014 0a2.422 2.422 0 010 4.841 2.422 2.422 0 01-2.419-2.421 2.419 2.419 0 012.419-2.42zm-7.013 0a2.421 2.421 0 010 4.841 2.422 2.422 0 01-2.42-2.421 2.419 2.419 0 012.42-2.42zm-7.014 0a2.419 2.419 0 012.42 2.42 2.42 2.42 0 11-2.42-2.42zm21.041 7.831a2.418 2.418 0 110 4.836 2.417 2.417 0 110-4.836zm-7.014 0a2.418 2.418 0 110 4.836 2.417 2.417 0 110-4.836zm-7.013 0a2.418 2.418 0 110 4.836 2.418 2.418 0 110-4.836zm-7.014 0a2.419 2.419 0 11.002 4.838 2.419 2.419 0 01-.002-4.838zm21.041 7.831a2.417 2.417 0 110 4.836 2.418 2.418 0 110-4.836zm-7.014 0a2.417 2.417 0 110 4.836 2.419 2.419 0 110-4.836zm-7.013 0a2.417 2.417 0 110 4.836 2.419 2.419 0 110-4.836zm-7.014 0a2.418 2.418 0 110 4.836 2.417 2.417 0 110-4.836zm21.041 7.826a2.422 2.422 0 010 4.841 2.421 2.421 0 010-4.841zm-7.014 0a2.422 2.422 0 010 4.841 2.422 2.422 0 010-4.841zm-7.013 0a2.421 2.421 0 010 4.841 2.422 2.422 0 01-2.42-2.42 2.422 2.422 0 012.42-2.421zm-7.014 0a2.422 2.422 0 012.42 2.421 2.42 2.42 0 11-2.42-2.421zm21.041 7.832a2.418 2.418 0 012.42 2.42 2.421 2.421 0 01-2.42 2.42 2.421 2.421 0 010-4.84zm-7.014 0a2.418 2.418 0 012.42 2.42 2.421 2.421 0 01-2.42 2.42 2.422 2.422 0 01-2.419-2.42 2.419 2.419 0 012.419-2.42zm-7.013 0a2.421 2.421 0 010 4.84 2.419 2.419 0 110-4.84zm-7.014 0a2.419 2.419 0 110 4.84 2.42 2.42 0 010-4.84z" fill="#171717"/><path d="M153.464 185.778h5.685v-24.413h-5.685v24.413zm25.54 0h5.685v-24.413h-5.685v24.413zm0 18.682h5.685v-11.269h-5.685v11.269zm0-50.362h5.685v-24.413h-5.685v24.413zm-25.572 0h5.685v-24.413h-5.685v24.413zm.032 50.362h5.685v-11.269h-5.685v11.269zm12.77-61.777h5.685v-24.414h-5.685v24.414zm0 32.298h5.685v-24.413h-5.685v24.413zm0 30.336h5.685v-22.451h-5.685v22.451z" fill="#fff"/><path d="M153.432 219.855c.727 0 1.317-.59 1.317-1.315v-23.805h3.052v23.805a1.316 1.316 0 002.632 0v-25.125c0-.726-.588-1.315-1.316-1.315h-5.685c-.727 0-1.316.589-1.316 1.315v25.125c0 .725.589 1.315 1.316 1.315zm12.786-11.562c.728 0 1.316-.589 1.316-1.315v-23.81h3.053v23.81a1.316 1.316 0 002.632 0v-25.125c0-.73-.588-1.32-1.316-1.32h-5.685c-.727 0-1.316.59-1.316 1.32v25.125c0 .726.589 1.315 1.316 1.315zm12.786 11.562c.728 0 1.316-.59 1.316-1.315v-23.805h3.053v23.805a1.316 1.316 0 002.632 0v-25.125c0-.726-.588-1.315-1.316-1.315h-5.685c-.727 0-1.316.589-1.316 1.315v25.125c0 .725.589 1.315 1.316 1.315zm-25.572-32.051c.727 0 1.317-.589 1.317-1.314v-23.81h3.052v23.81a1.315 1.315 0 002.632 0v-25.125c0-.726-.588-1.315-1.316-1.315h-5.685c-.727 0-1.316.589-1.316 1.315v25.125c0 .725.589 1.314 1.316 1.314zm12.786-11.561c.728 0 1.316-.589 1.316-1.32v-23.805h3.053v23.805a1.317 1.317 0 102.632 0v-25.12c0-.73-.588-1.32-1.316-1.32h-5.685c-.727 0-1.316.59-1.316 1.32v25.12c0 .731.589 1.32 1.316 1.32zm12.786 11.561c.728 0 1.316-.589 1.316-1.314v-23.81h3.053v23.81a1.315 1.315 0 002.632 0v-25.125c0-.726-.588-1.315-1.316-1.315h-5.685c-.727 0-1.316.589-1.316 1.315v25.125c0 .725.589 1.314 1.316 1.314zm-25.572-32.05c.727 0 1.317-.589 1.317-1.315v-23.81h3.052v23.81a1.316 1.316 0 002.632 0v-25.124c0-.726-.588-1.315-1.316-1.315h-5.685c-.727 0-1.316.589-1.316 1.315v25.124c0 .726.589 1.315 1.316 1.315zm12.786-11.561c.728 0 1.316-.59 1.316-1.32v-23.479h3.053v23.479a1.317 1.317 0 102.632 0v-24.794a1.32 1.32 0 00-1.316-1.32h-5.685a1.32 1.32 0 00-1.316 1.32v24.794c0 .73.589 1.32 1.316 1.32zm12.786 11.561c.728 0 1.316-.589 1.316-1.315v-23.81h3.053v23.81a1.316 1.316 0 002.632 0v-25.124c0-.726-.588-1.315-1.316-1.315h-5.685c-.727 0-1.316.589-1.316 1.315v25.124c0 .726.589 1.315 1.316 1.315" fill="#171717"/><path d="M116.202 155.335h24.487v-6.574h-24.487v6.574" fill="#fff"/><path d="M117.518 154.016h21.854v-3.935h-21.854v3.935zm23.137 2.634h-24.42c-.746 0-1.35-.603-1.35-1.349v-6.506a1.35 1.35 0 011.35-1.349h24.42c.746 0 1.35.604 1.35 1.349v6.506c0 .746-.604 1.349-1.35 1.349" fill="#171717"/><path d="M144.671 118.659h48.72l-2.219-9.823h-44.28l-2.221 9.823z" fill="#fff"/><path d="M146.319 117.339h45.425l-1.625-7.188h-42.175l-1.625 7.188zm47.073 2.635h-48.721a1.32 1.32 0 01-1.028-.492 1.329 1.329 0 01-.256-1.116l2.221-9.818a1.313 1.313 0 011.284-1.027h44.28c.615 0 1.148.423 1.284 1.027l2.22 9.818c.088.39-.006.799-.256 1.116-.25.311-.628.492-1.028.492zm362.615 27.462a1.637 1.637 0 003.273 0 1.637 1.637 0 00-3.273 0zm-6.097 0a1.636 1.636 0 103.272 0 1.636 1.636 0 00-3.272 0zm-6.093 0a1.636 1.636 0 103.274 0 1.636 1.636 0 00-3.274 0zm-6.097 0c0 .906.73 1.636 1.636 1.636a1.637 1.637 0 10-1.636-1.636zm-6.097 0c0 .906.735 1.636 1.636 1.636.906 0 1.641-.73 1.641-1.636a1.64 1.64 0 00-3.277 0zm-6.093 0c0 .906.731 1.636 1.636 1.636a1.637 1.637 0 10-1.636-1.636zm-6.097 0a1.636 1.636 0 103.272 0 1.636 1.636 0 00-3.272 0zm-6.093 0a1.636 1.636 0 103.274 0 1.636 1.636 0 00-3.274 0zm-6.097 0a1.636 1.636 0 103.272 0 1.636 1.636 0 00-3.272 0zm-41.028-33.686a1.638 1.638 0 103.276-.004 1.638 1.638 0 00-3.276.004zm-6.095 0a1.637 1.637 0 003.273 0 1.64 1.64 0 00-1.636-1.642 1.64 1.64 0 00-1.637 1.642zm-6.095 0a1.637 1.637 0 003.273 0 1.64 1.64 0 00-1.636-1.642 1.64 1.64 0 00-1.637 1.642zm-6.095 0a1.637 1.637 0 003.273 0 1.64 1.64 0 00-1.636-1.642 1.64 1.64 0 00-1.637 1.642zm-6.095 0a1.637 1.637 0 003.273 0c0-.906-.733-1.642-1.637-1.642s-1.636.736-1.636 1.642zm-6.095 0a1.637 1.637 0 003.273 0c0-.906-.733-1.642-1.637-1.642s-1.636.736-1.636 1.642zm-6.095 0a1.637 1.637 0 003.273 0c0-.906-.733-1.642-1.637-1.642s-1.636.736-1.636 1.642zm-6.096 0a1.638 1.638 0 103.276-.004 1.638 1.638 0 00-3.276.004zm-6.095 0a1.637 1.637 0 003.273 0 1.64 1.64 0 00-1.636-1.642 1.64 1.64 0 00-1.637 1.642zm-309.976 22.266h23.777a1.317 1.317 0 000-2.635h-23.777a1.317 1.317 0 000 2.635zm309.431-42.697h23.777c.727 0 1.316-.584 1.316-1.314 0-.726-.589-1.315-1.316-1.315h-23.777a1.316 1.316 0 100 2.63zM28.681 155.755h30.327a1.316 1.316 0 100-2.63H28.68a1.316 1.316 0 100 2.63zm469.986-39.102h30.326a1.317 1.317 0 100-2.635h-30.326c-.726 0-1.315.59-1.315 1.315 0 .731.589 1.32 1.315 1.32zm-397.075-23.39h31.489a1.317 1.317 0 100-2.63h-31.489a1.316 1.316 0 100 2.63zm221.179 2.93h31.489a1.317 1.317 0 000-2.634h-31.489a1.317 1.317 0 100 2.635zM16.188 99.66h19.987a1.317 1.317 0 000-2.634H16.188a1.317 1.317 0 000 2.635z" fill="#171717"/><path d="M146.892 123.792h44.28v-4.729h-44.28v4.729z" fill="#fff"/><path d="M148.208 122.477h41.647v-2.099h-41.647v2.099zm42.93 2.635h-44.213c-.745 0-1.35-.604-1.35-1.354v-4.661c0-.745.605-1.354 1.35-1.354h44.213c.746 0 1.35.609 1.35 1.354v4.661a1.35 1.35 0 01-1.35 1.354z" fill="#171717"/><path d="M106.783 161.589h39.612v-6.277h-39.612v6.277z" fill="#fff"/><path d="M108.1 160.269h36.978v-3.643H108.1v3.643zm38.262 2.635h-39.546a1.35 1.35 0 01-1.35-1.349v-6.21c0-.75.605-1.354 1.35-1.354h39.546c.745 0 1.35.604 1.35 1.354v6.21a1.35 1.35 0 01-1.35 1.349" fill="#171717"/><path d="M533.049 220.624h26.698v-10.553h-26.698v10.553zm39.01 6h4.841v-6h-4.841v6z" fill="#fff"/><path d="M530.527 222.275h32.03a1.376 1.376 0 000-2.751h-32.03a1.376 1.376 0 100 2.751zm2.893-5.264h26.244a1.377 1.377 0 000-2.752H533.42a1.377 1.377 0 000 2.752zm0-5.046h26.244a1.376 1.376 0 000-2.751H533.42a1.376 1.376 0 000 2.751" fill="#171717"/><path d="M556.231 228.489h2.863a1.376 1.376 0 000-2.751h-1.485v-3.984a1.376 1.376 0 10-2.752 0v5.362c0 .76.614 1.373 1.374 1.373zm-23.045 0h2.362c.759 0 1.378-.613 1.378-1.373v-5.362a1.376 1.376 0 10-2.752 0v3.984h-.988a1.376 1.376 0 000 2.751zm40.046-2.975h1.846l.648-3.517h-3.21l.716 3.517zm2.991 2.751h-4.111a1.377 1.377 0 01-1.349-1.1l-1.276-6.268a1.37 1.37 0 011.344-1.646h6.546c.409 0 .794.18 1.057.492.263.316.37.73.297 1.129l-1.154 6.268a1.378 1.378 0 01-1.354 1.125zm-13.666-17.673a1.337 1.337 0 102.675-.007 1.337 1.337 0 00-2.675.007zm-34.792 4.875a1.337 1.337 0 102.675-.007 1.337 1.337 0 00-2.675.007z" fill="#171717"/><path d="M371.426 225.85h71.683v-28.854h-71.683v28.854z" fill="#fff"/><path d="M372.743 224.535h69.049v-26.221h-69.049v26.221zm70.332 2.634h-71.616a1.348 1.348 0 01-1.349-1.349v-28.787c0-.745.604-1.354 1.349-1.354h71.616c.746 0 1.35.609 1.35 1.354v28.787c0 .746-.604 1.349-1.35 1.349z" fill="#171717"/><path d="M378.169 215.501h10.102V205.4h-10.102v10.101zm16.845.224h8.362v-10.408h-8.362v10.408zm16.587-1.077h8.384V205.4h-8.384v9.248zm15.006 0h9.25V205.4h-9.25v9.248z" fill="#fff"/><path d="M426.759 215.725h9.098V205.4h-9.098v10.325z" fill="#fff"/><path d="M428.075 214.405h6.466v-7.69h-6.466v7.69zm7.749 2.635h-9.032a1.35 1.35 0 01-1.35-1.349v-10.257a1.35 1.35 0 011.35-1.349h9.032c.746 0 1.35.604 1.35 1.349v10.257a1.35 1.35 0 01-1.35 1.349" fill="#171717"/><path d="M410.886 215.725h9.099V205.4h-9.099v10.325z" fill="#fff"/><path d="M412.203 214.405h6.466v-7.69h-6.466v7.69zm7.749 2.635h-9.032a1.35 1.35 0 01-1.35-1.349v-10.257a1.35 1.35 0 011.35-1.349h9.032c.746 0 1.35.604 1.35 1.349v10.257a1.35 1.35 0 01-1.35 1.349zm-23.621-2.635h6.465v-7.69h-6.465v7.69zm7.782 2.635h-9.099c-.727 0-1.317-.59-1.317-1.315V205.4c0-.726.59-1.315 1.317-1.315h9.099c.727 0 1.316.589 1.316 1.315v10.325c0 .725-.589 1.315-1.316 1.315zm-23.655-2.635h6.466v-7.69h-6.466v7.69zm7.782 2.635h-9.098c-.728 0-1.317-.59-1.317-1.315V205.4c0-.726.589-1.315 1.317-1.315h9.098c.728 0 1.317.589 1.317 1.315v10.325c0 .725-.589 1.315-1.317 1.315" fill="#171717"/><path d="M371.426 196.999h71.683v-28.853h-71.683v28.853z" fill="#fff"/><path d="M372.743 195.679h69.049v-26.215h-69.049v26.215zm70.332 2.635h-71.616a1.349 1.349 0 01-1.349-1.349v-28.787c0-.745.604-1.349 1.349-1.349h71.616c.746 0 1.35.604 1.35 1.349v28.787a1.35 1.35 0 01-1.35 1.349z" fill="#171717"/><path d="M371.426 196.999h71.683v-3.805h-71.683v3.805z" fill="#fff"/><path d="M372.743 195.679h69.049v-1.168h-69.049v1.168zm70.332 2.635h-71.616a1.349 1.349 0 01-1.349-1.349v-3.74c0-.745.604-1.349 1.349-1.349h71.616c.746 0 1.35.604 1.35 1.349v3.74a1.35 1.35 0 01-1.35 1.349z" fill="#171717"/><path d="M393.013 154.469h28.27v-5.708h-28.27v5.708z" fill="#fff"/><path d="M394.126 154.016h26.283v-3.935h-26.283v3.935zm27.6 2.634H392.81a1.316 1.316 0 01-1.317-1.315v-6.574c0-.726.589-1.315 1.317-1.315h28.916c.727 0 1.316.589 1.316 1.315v6.574c0 .726-.589 1.315-1.316 1.315z" fill="#171717"/><path d="M426.759 186.869h9.098v-10.324h-9.098v10.324zm-15.158-.448h8.384v-9.082h-8.384v9.082zm-16.587.448h8.362V176.9h-8.362v9.969zm-15.842-.448h8.307v-9.876h-8.307v9.876zm-9.966-18.277h76.123l-2.22-12.809h-71.683l-2.22 12.809" fill="#fff"/><path d="M370.77 166.829h72.994l-1.763-10.179h-69.467l-1.764 10.179zm74.559 2.635h-76.123a1.32 1.32 0 01-1.007-.473 1.313 1.313 0 01-.291-1.071l2.221-12.813a1.317 1.317 0 011.297-1.091h71.683c.64 0 1.187.462 1.297 1.091l2.22 12.813c.067.385-.04.774-.289 1.071-.251.297-.62.473-1.008.473zm-17.254 16.091h6.466v-7.69h-6.466v7.69zm7.782 2.629h-9.099a1.316 1.316 0 01-1.316-1.315v-10.324c0-.726.589-1.315 1.316-1.315h9.099c.728 0 1.317.589 1.317 1.315v10.324c0 .726-.589 1.315-1.317 1.315zm-23.655-2.629h6.466v-7.69h-6.466v7.69zm7.783 2.629h-9.099a1.316 1.316 0 01-1.316-1.315v-10.324c0-.726.589-1.315 1.316-1.315h9.099c.727 0 1.317.589 1.317 1.315v10.324c0 .726-.59 1.315-1.317 1.315zm-23.655-2.629h6.466v-7.69h-6.466v7.69zm7.783 2.629h-9.099a1.316 1.316 0 01-1.317-1.315v-10.324c0-.726.589-1.315 1.317-1.315h9.099c.727 0 1.316.589 1.316 1.315v10.324c0 .726-.589 1.315-1.316 1.315z" fill="#171717"/><path d="M379.142 186.869h9.098v-10.324h-9.098v10.324z" fill="#fff"/><path d="M380.458 185.554h6.466v-7.689h-6.466v7.689zm7.749 2.63h-9.032a1.35 1.35 0 01-1.35-1.349v-10.256a1.35 1.35 0 011.35-1.349h9.032c.746 0 1.35.604 1.35 1.349v10.256a1.35 1.35 0 01-1.35 1.349z" fill="#171717"/><path d="M206.781 109.113h64.561v-7.112h-64.561v7.112z" fill="#fff"/><path d="M208.097 109.06h61.928v-5.742h-61.928v5.742zm63.245 2.634H206.78a1.316 1.316 0 01-1.316-1.319v-8.372c0-.726.589-1.315 1.316-1.315h64.562c.727 0 1.316.589 1.316 1.315v8.372c0 .73-.589 1.319-1.316 1.319" fill="#171717"/><path d="M142.086 225.704h53.891v-20.598h-53.891v20.598z" fill="#fff"/><path d="M143.403 224.389h51.257v-17.966h-51.257v17.966zm52.54 2.634H142.12a1.35 1.35 0 01-1.35-1.353v-20.528c0-.745.604-1.354 1.35-1.354h53.823c.746 0 1.35.609 1.35 1.354v20.528a1.35 1.35 0 01-1.35 1.353" fill="#171717"/><path d="M169.032 225.762h15.599v-10.261h-15.599v10.261" fill="#fff"/><path d="M170.348 224.442h12.967v-7.626h-12.967v7.626zm14.25 2.635h-15.533a1.35 1.35 0 01-1.35-1.349v-10.193a1.35 1.35 0 011.35-1.349h15.533c.746 0 1.35.604 1.35 1.349v10.193a1.35 1.35 0 01-1.35 1.349" fill="#171717"/><path d="M153.461 225.762h15.6v-10.261h-15.6v10.261" fill="#fff"/><path d="M154.777 224.442h12.967v-7.626h-12.967v7.626zm14.25 2.635h-15.533a1.35 1.35 0 01-1.35-1.349v-10.193a1.35 1.35 0 011.35-1.349h15.533c.746 0 1.35.604 1.35 1.349v10.193a1.35 1.35 0 01-1.35 1.349z" fill="#171717"/><path d="M314.378 225.704h56.008v-20.598h-56.008v20.598z" fill="#fff"/><path d="M315.695 224.389h53.374v-17.966h-53.374v17.966zm54.657 2.634h-55.94a1.35 1.35 0 01-1.35-1.353v-20.528c0-.745.604-1.354 1.35-1.354h55.94c.746 0 1.35.609 1.35 1.354v20.528a1.35 1.35 0 01-1.35 1.353" fill="#171717"/><path d="M342.382 225.762h16.212v-10.261h-16.212v10.261" fill="#fff"/><path d="M343.699 224.442h13.579v-7.626h-13.579v7.626zm14.862 2.635h-16.146a1.35 1.35 0 01-1.35-1.349v-10.193a1.35 1.35 0 011.35-1.349h16.146c.745 0 1.35.604 1.35 1.349v10.193a1.35 1.35 0 01-1.35 1.349" fill="#171717"/><path d="M326.2 225.762h16.213v-10.261H326.2v10.261" fill="#fff"/><path d="M327.517 224.442h13.579v-7.626h-13.579v7.626zm14.862 2.635h-16.146a1.35 1.35 0 01-1.35-1.349v-10.193a1.35 1.35 0 011.35-1.349h16.146c.746 0 1.35.604 1.35 1.349v10.193a1.35 1.35 0 01-1.35 1.349zm334.037-6.01a1.469 1.469 0 11-2.937.005 1.469 1.469 0 012.937-.005zm-10.057 3.921c-.74 0-1.344-.604-1.344-1.344v-4.914a3.883 3.883 0 00-1.145-2.767l-1.086-1.086a3.34 3.34 0 010-4.724l1.047-1.047a3.34 3.34 0 014.724 0l1.008 1.008a3.886 3.886 0 002.767 1.145h1.149c.745 0 1.344.604 1.344 1.344 0 .745-.599 1.349-1.344 1.349h-1.149a6.558 6.558 0 01-4.666-1.933l-1.008-1.013a.649.649 0 00-.463-.19.647.647 0 00-.462.19l-1.047 1.047a.657.657 0 000 .925l1.086 1.086a6.558 6.558 0 011.933 4.666v4.914c0 .74-.599 1.344-1.344 1.344zm7.008-19.218a2.58 2.58 0 01-5.158 0 2.579 2.579 0 015.158 0" fill="#171717"/><path d="M657.368 217.488a3.585 3.585 0 00-3.579 3.579 3.587 3.587 0 003.579 3.585 3.587 3.587 0 003.58-3.585 3.585 3.585 0 00-3.58-3.579zm0 9.852c-3.457 0-6.267-2.815-6.267-6.273a6.276 6.276 0 016.267-6.268 6.276 6.276 0 016.268 6.268c0 3.458-2.81 6.273-6.268 6.273zm17.723-9.852a3.585 3.585 0 00-3.58 3.579 3.587 3.587 0 003.58 3.585 3.587 3.587 0 003.579-3.585 3.585 3.585 0 00-3.579-3.579zm0 9.852c-3.458 0-6.268-2.815-6.268-6.273a6.276 6.276 0 016.268-6.268 6.277 6.277 0 016.268 6.268c0 3.458-2.811 6.273-6.268 6.273z" fill="#171717"/><path d="M302.573 114.802l-7.895 10.246h126.917l-6.195-10.246H302.573z" fill="#fff"/><path d="M297.874 123.475h120.933l-4.294-7.1H303.346l-5.472 7.1zm123.721 3.141H294.678a1.567 1.567 0 01-1.245-2.527l7.894-10.247a1.574 1.574 0 011.246-.609h112.826c.551 0 1.061.288 1.346.755l6.196 10.247a1.568 1.568 0 01-1.346 2.381zm214.934 12.541c-.087 2.976-1.281 5.941-3.55 8.815-2.854 3.618-5.601 5.586-7.023 6.448a21.435 21.435 0 00-1.324-.361c3.043-3.823 7.948-11.386 7.373-19.855-.224-3.297-1.096-5.781-2.216-7.646.472.244.959.526 1.451.857 3.663 2.494 5.445 6.443 5.289 11.742zm-23.308 15.248c-4.865-3.384-10.437-8.678-10.632-15.248-.219-7.519 3.59-11.016 6.76-12.623-1.13 1.87-2.011 4.358-2.235 7.67-.57 8.474 4.339 16.042 7.373 19.855-.424.103-.847.215-1.266.346zm4.334-.862c-2.542-2.932-8.332-10.626-7.758-19.159.57-8.44 5.922-10.553 8.484-11.084v30.19c-.244.014-.482.034-.726.053zm3.414-.044v-30.17c2.611.575 7.792 2.761 8.352 11.055.58 8.528-5.201 16.208-7.758 19.159a12.557 12.557 0 00-.594-.044zm11.781-28.309c-3.302-2.246-6.653-2.635-6.794-2.65h-.014c-2.786-1.831-5.518-2.07-6.268-2.099l-.049-.005h-.131l-.049.005c-.745.029-3.482.268-6.268 2.099h-.015c-.141.015-3.487.404-6.793 2.65-3.078 2.094-6.697 6.228-6.468 14.05.185 6.292 4.461 12.433 12.356 17.761a1.348 1.348 0 001.188.156 18.763 18.763 0 016.346-1.018c2.001.024 3.983.365 5.883 1.018.36.126.755.092 1.091-.093 1.324-.74 4.787-2.941 8.328-7.427 2.629-3.336 4.017-6.832 4.125-10.397.228-7.822-3.39-11.956-6.468-14.05zm-11.07 38.702c0 .755-.613 1.369-1.363 1.369h-1.486c-.75 0-1.363-.614-1.363-1.369v-3.199a8.247 8.247 0 012.216-.259 8.328 8.328 0 011.996.259v3.199zm1.807-5.454a11.314 11.314 0 00-3.769-.692 11.318 11.318 0 00-4.057.692 1.347 1.347 0 00-.882 1.266v4.188a4.06 4.06 0 004.052 4.057h1.486a4.06 4.06 0 004.052-4.057v-4.188c0-.565-.351-1.072-.882-1.266zm-30.234 24.891a1.467 1.467 0 10.003 2.933 1.467 1.467 0 00-.003-2.933zm35.396 8.615c2.684-1.091 5.304-1.505 7.788-1.227a1.345 1.345 0 00.297-2.674c-2.932-.326-5.99.146-9.098 1.407a1.349 1.349 0 00-.74 1.754 1.348 1.348 0 001.753.74zm-25.49.097c-.165 0-.336-.029-.501-.097-2.689-1.091-5.309-1.505-7.793-1.227a1.348 1.348 0 01-1.485-1.189 1.352 1.352 0 011.188-1.485c2.932-.326 5.996.146 9.098 1.407a1.348 1.348 0 01.74 1.754 1.343 1.343 0 01-1.247.837z" fill="#171717"/><path d="M241.695 224.389h-1.289v-26.367h1.289v26.367zm-3.922 0h-2.411v-24.906l2.411-8.508v33.414zm2.633-39.01v-.648h.112l-.112.648" fill="#B6B8B5"/><path d="M241.743 226.176h-6.381v-1.787h2.411v.326a1.316 1.316 0 002.633 0v-.326h1.289v1.431c0 .122.016.244.048.356" fill="#121212"/><path d="M239.09 226.03a1.316 1.316 0 01-1.317-1.315v-33.74l1.77-6.244h.863v.648l-1.923 11.104a1.313 1.313 0 001.296 1.539h.627v26.693c0 .726-.589 1.315-1.316 1.315zm3.921.146h-1.268a1.308 1.308 0 01-.048-.356v-27.798h1.316v28.154z" fill="#121212"/><path d="M243.011 195.387h-1.667l1.667-9.623v9.623" fill="#B6B8B5"/><path d="M243.011 198.022h-3.231a1.313 1.313 0 01-1.297-1.539l1.923-11.104.112-.648h2.493v1.033l-1.667 9.623h1.667v2.635z" fill="#121212"/><path d="M370.11 203.788h-3.997v-.667h3.997v.667zm0-9.258h-3.997v-7.125h3.997v7.125zm0-9.092h-3.997v-12.565h3.997v12.565zm0-14.528h-3.997v-2.24h1.886a1.32 1.32 0 001.207.794h.904v1.446" fill="#B6B8B5"/><path d="M366.113 172.873h3.997v-1.966h-3.997v1.966zm0 14.532h3.997v-1.965h-3.997v1.965z" fill="#121212"/><path d="M366.113 200.491h3.149v-3.328h-3.149v3.328z" fill="#B6B8B5"/><path d="M370.11 203.121h-3.997v-2.63h3.149v-3.331h-3.149v-2.63h3.997v8.591z" fill="#121212"/><path d="M371.426 204.324a1.344 1.344 0 00-1.074-.536h-.242v-6.789a1.352 1.352 0 001.316 1.315v6.01zm-1.316-7.359v-27.501h1.316v22.412a1.349 1.349 0 00-1.316 1.349v3.74" fill="#121212"/><path d="M371.426 198.314a1.352 1.352 0 01-1.316-1.315v-3.774c0-.736.586-1.33 1.316-1.349v6.438zm0-28.85h-2.22a1.321 1.321 0 01-1.206-.794h3.426v.794" fill="#121212"/><path d="M366.113 224.389h2.956v-17.965h-2.956v17.965z" fill="#B6B8B5"/><path d="M371.426 226.176h-5.313v-1.787h2.956v-17.966h-2.956v-2.635h4.239c.438 0 .827.21 1.074.536v21.852" fill="#121212"/><path d="M205.969 177.139h5.3v-7.581h-5.3v7.581z" fill="#B6B8B5"/><path d="M211.365 177.47h-5.396v-.331h5.3v-7.583h-5.3v-1.315h5.396v9.229z" fill="#121212"/><path d="M205.969 187.683h5.3v-7.581h-5.3v7.581z" fill="#B6B8B5"/><path d="M211.365 188.019h-5.396v-.336h5.3v-7.578h-5.3v-2.635h5.396v10.549z" fill="#121212"/><path d="M205.969 198.231h5.3v-7.581h-5.3v7.581z" fill="#B6B8B5"/><path d="M211.365 198.563h-5.396v-.332h5.3v-7.582h-5.3v-2.63h5.396v10.544" fill="#121212"/><path d="M205.969 208.609h5.3v-7.411h-5.3v7.411z" fill="#B6B8B5"/><path d="M211.365 208.61h-.096v-7.413h-5.3v-2.635h5.396v10.048" fill="#121212"/><path d="M205.969 218.822h5.3v-7.58h-5.3v7.58z" fill="#B6B8B5"/><path d="M211.365 219.558h-5.396v-.736h5.3v-7.583h-5.3v-2.629h5.396v10.948zm1.221 0h-1.221v-51.317h1.221v51.317z" fill="#121212"/><path d="M140.769 224.803h-.081v-61.899h4.331v40.884h-2.9c-.745 0-1.35.609-1.35 1.354v19.661" fill="#B6B8B5"/><path d="M140.868 226.176h-.18v-1.373h.081v.866c0 .181.035.351.099.507zm4.707-22.388h-.556v-40.884h.556v40.884zm.82 0h-.82v-40.884h.82v40.884" fill="#121212"/><path d="M140.688 160.269h4.39v-3.644h-4.39v3.644z" fill="#B6B8B5"/><path d="M146.361 162.904h-5.673v-2.635h4.39v-3.643h-4.39v-2.157h5.707v8.435h-.034" fill="#121212"/><path d="M143.403 224.389h2.992v-17.965h-2.992v17.965z" fill="#B6B8B5"/><path d="M146.395 226.176h-5.527a1.345 1.345 0 01-.098-.506v-20.528c0-.745.604-1.354 1.35-1.354h4.275v2.635h-2.992v17.966h2.992v1.787" fill="#121212"/><path d="M202.847 166.678h-.474V94.873h9.753v.034a1.324 1.324 0 00-.544.468h-7.418a1.317 1.317 0 100 2.634h7.201v2.679h-4.585c-.727 0-1.316.589-1.316 1.315v.648a1.317 1.317 0 00-.812 1.217v11.464c0 .731.59 1.32 1.317 1.32h5.396v2.051h-7.201a1.317 1.317 0 100 2.634h7.201v4.544h-5.396c-.727 0-1.317.589-1.317 1.315v11.464c0 .731.59 1.32 1.317 1.32h5.396v2.055h-7.201a1.316 1.316 0 100 2.63h7.201v4.544h-5.396c-.727 0-1.317.589-1.317 1.315v11.464c0 .731.59 1.32 1.317 1.32h5.396v2.055h-7.201c-.728 0-1.317.589-1.317 1.315" fill="#B6B8B5"/><path d="M207.285 114.018h2.97v-2.324h-2.97v2.324z" fill="#B6B8B5"/><path d="M211.365 98.01h-7.201a1.317 1.317 0 110-2.635h7.418a1.32 1.32 0 00-.217.726v1.909zm0 23.327h-7.201a1.316 1.316 0 110-2.634h7.201v2.634zm0-4.685h-5.396a1.317 1.317 0 01-1.317-1.319v-11.465c0-.55.335-1.018.812-1.217v7.724c0 .73.589 1.32 1.316 1.32h.505v2.323h2.97v-2.323h1.11v4.957" fill="#121212"/><path d="M207.285 160.673h2.97v-8.833h-2.97v8.833zm0-23.328h2.97v-8.833h-2.97v8.833z" fill="#B6B8B5"/><path d="M211.365 144.665h-7.201a1.316 1.316 0 110-2.63h7.201v2.63zm0-4.685h-5.396a1.317 1.317 0 01-1.317-1.32v-11.464c0-.726.589-1.315 1.317-1.315h5.396v14.099zm-4.08-11.469v8.834h2.97v-8.834h-2.97zm4.08 38.167h-8.518c0-.726.589-1.315 1.317-1.315h7.201v1.315zm0-3.37h-5.396a1.317 1.317 0 01-1.317-1.32v-11.464c0-.726.589-1.315 1.317-1.315h5.396v14.099zm-4.08-11.469v8.834h2.97v-8.834h-2.97zm4.841 14.839h-.761v-54.984h.761v54.984zm0-65.99h-.761V96.1c0-.267.08-.516.217-.725.133-.2.322-.365.544-.468v5.781z" fill="#121212"/><path d="M208.097 109.06h4.029v-5.741h-4.029v5.741z" fill="#B6B8B5"/><path d="M212.126 111.694h-5.346a1.316 1.316 0 01-1.316-1.319v-8.372c0-.726.589-1.315 1.316-1.315h5.346v2.63h-4.029v5.742h4.029v2.634z" fill="#121212"/></svg>