<svg viewBox="0 0 691 229" fill="none" xmlns="http://www.w3.org/2000/svg"><rect width="691" height="101" rx="50.5" fill="#4299E1"/><path fill-rule="evenodd" clip-rule="evenodd" d="M361.656 27.431c11.263 0 20.859 5.237 24.501 12.57a33.48 33.48 0 019.105-1.242c5.135 0 9.911 1.125 13.905 3.05 2.568-4.743 8.882-8.098 16.266-8.098 6.301 0 11.822 2.441 14.901 6.104 6.379-3.472 14.275-5.525 22.828-5.525 16.473 0 30.52 7.618 35.94 18.31 3.997-2.105 8.895-3.35 14.193-3.35 2.927.003 5.735.383 8.336 1.076V101H352.263V28.708c2.913-.825 6.08-1.277 9.393-1.277zm169.369 22.035c11.263 0 20.859 5.237 24.5 12.57a33.477 33.477 0 019.106-1.242c5.135 0 9.911 1.125 13.905 3.05 2.567-4.743 8.882-8.098 16.266-8.098 6.301 0 11.822 2.441 14.901 6.104 6.378-3.472 14.274-5.525 22.828-5.525 16.472 0 30.52 7.618 35.94 18.31 3.997-2.105 8.895-3.35 14.193-3.35 2.926.003 5.734.383 8.336 1.076V101.5H521.631V50.742c2.914-.824 6.081-1.276 9.394-1.276z" fill="#fff"/><path fill-rule="evenodd" clip-rule="evenodd" d="M342.793 27c-11.722 0-21.711 5.237-25.501 12.57a36.175 36.175 0 00-9.477-1.242c-5.345 0-10.316 1.125-14.473 3.05-2.672-4.743-9.244-8.098-16.93-8.098-6.558 0-12.305 2.44-15.51 6.103-6.639-3.471-14.857-5.525-23.76-5.525-17.145 0-31.766 7.619-37.407 18.311-4.161-2.106-9.259-3.35-14.773-3.35a35.19 35.19 0 00-8.677 1.075V101.5H352.57V28.276c-3.032-.824-6.328-1.276-9.777-1.276zM166.508 49.035c-11.723 0-21.711 5.237-25.501 12.57a36.185 36.185 0 00-9.477-1.242c-5.345 0-10.316 1.125-14.473 3.05-2.673-4.744-9.245-8.098-16.931-8.098-6.557 0-12.304 2.44-15.51 6.103-6.638-3.471-14.856-5.525-23.759-5.525-17.145 0-31.766 7.618-37.408 18.31-4.16-2.105-9.258-3.349-14.772-3.349A35.184 35.184 0 000 71.93V102h176.285V50.311c-3.032-.824-6.329-1.276-9.777-1.276z" fill="#fff"/><path d="M633.021 125.242c-3.305-2.246-6.658-2.636-6.799-2.651h-.015c-2.788-1.832-5.522-2.071-6.273-2.101l-.048-.004h-.132l-.049.004c-.746.03-3.485.269-6.272 2.101h-.015c-.141.015-3.49.405-6.799 2.651-3.08 2.096-6.701 6.234-6.472 14.061.185 6.297 4.464 12.443 12.364 17.775a1.354 1.354 0 001.19.156 18.737 18.737 0 016.35-1.018c2.003.024 3.987.365 5.888 1.018.36.127.755.093 1.092-.092 1.325-.741 4.791-2.944 8.334-7.433 2.632-3.339 4.021-6.838 4.128-10.406.229-7.827-3.392-11.965-6.472-14.061" fill="#F79545"/><path d="M326.478 108.628l-4.571 6.686h73.497l-3.588-6.686h-65.338" fill="#A97044"/><path d="M324.515 113.94h68.589l-2.111-3.938h-63.788l-2.69 3.938zm70.889 2.749h-73.497a1.372 1.372 0 01-1.137-2.149l4.572-6.687c.257-.376.682-.6 1.137-.6h65.338c.506 0 .973.278 1.212.722l3.588 6.691a1.373 1.373 0 01-1.213 2.023z" fill="#171717"/><path d="M294.69 225.434h127.014V125.052c-9.056-3.085-31.115-9.684-61.791-9.923-32.692-.253-56.236 6.863-65.223 9.923v100.382" fill="#DEE3E1"/><path d="M296.008 224.576h124.379v-98.515c-8.427-2.539-26.579-3.743-60.074-4.006-31.649-.249-54.929 1.209-64.305 4.006v98.515zm125.696 2.632H294.69c-.727 0-1.317-.59-1.317-1.316V125.101c0-.565.358-1.067.891-1.248 9.126-3.119 32.585-4.698 66.069-4.435 35.03.273 53.511 1.599 61.798 4.435.533.181.891.683.891 1.248v100.791c0 .726-.59 1.316-1.318 1.316zm200.238-63.233a1.37 1.37 0 01-1.364 1.369h-1.487a1.37 1.37 0 01-1.365-1.369v-3.202a8.477 8.477 0 012.218-.259 8.344 8.344 0 011.998.259v3.202zm1.808-5.454a11.203 11.203 0 00-3.772-.697 11.312 11.312 0 00-4.06.692 1.349 1.349 0 00-.882 1.267v4.192a4.062 4.062 0 004.055 4.06h1.487a4.062 4.062 0 004.055-4.06v-4.192c0-.565-.351-1.072-.883-1.262zM493.839 90.819c.287 0 .575.092.814.278a2.145 2.145 0 003.45-1.706 2.148 2.148 0 00-2.368-2.14 1.345 1.345 0 01-1.336-.731 3.447 3.447 0 00-3.085-1.9 3.445 3.445 0 00-2.676 1.266 1.356 1.356 0 01-1.408.444 2.656 2.656 0 10-.721 5.21c.545 0 1.067-.166 1.51-.478a1.344 1.344 0 011.477-.039c.546.337 1.175.517 1.818.517s1.272-.18 1.813-.517c.219-.136.463-.204.712-.204zm2.12 3.411c-.77 0-1.511-.18-2.179-.516a6.235 6.235 0 01-4.956-.01 5.352 5.352 0 01-7.662-4.82 5.352 5.352 0 015.965-5.313 6.128 6.128 0 014.187-1.642c2.037 0 3.904.994 5.044 2.637a4.85 4.85 0 014.441 4.825 4.849 4.849 0 01-4.84 4.84zm-106.252 3.417c.27 0 .538.083.769.244a2.66 2.66 0 001.513.472 2.66 2.66 0 002.655-2.656 2.66 2.66 0 00-2.655-2.656c-.244 0-.487.034-.723.102a1.343 1.343 0 01-1.406-.443 3.447 3.447 0 00-2.675-1.263 3.44 3.44 0 00-3.087 1.901 1.357 1.357 0 01-1.337.731 1.663 1.663 0 00-.221-.014 2.152 2.152 0 00-2.149 2.149c0 1.184.964 2.15 2.149 2.15a2.1 2.1 0 001.302-.444 1.354 1.354 0 011.526-.073 3.454 3.454 0 003.632 0c.217-.132.462-.2.707-.2zm2.282 3.407a5.318 5.318 0 01-2.314-.527 6.235 6.235 0 01-4.957.01 4.844 4.844 0 01-7.017-4.323 4.841 4.841 0 014.436-4.82 6.11 6.11 0 015.048-2.637c1.568 0 3.054.59 4.185 1.643.205-.025.412-.04.619-.04a5.352 5.352 0 015.346 5.347 5.352 5.352 0 01-5.346 5.347" fill="#171717"/><path d="M415.54 144.401H299.9a.985.985 0 010-1.969h115.64a.985.985 0 010 1.969zm0 15.109H299.9a.982.982 0 01-.983-.984c0-.541.44-.985.983-.985h115.64c.543 0 .983.444.983.985 0 .546-.44.984-.983.984zm0 13.452H299.9a.983.983 0 110-1.964h115.64a.983.983 0 110 1.964m0 14.543H299.9a.985.985 0 010-1.969h115.64a.985.985 0 010 1.969zm202.05 39.454a1.344 1.344 0 01-1.345-1.345v-26.158c0-4.596 1.788-8.914 5.039-12.165a17.079 17.079 0 0112.165-5.04 1.345 1.345 0 110 2.691 14.422 14.422 0 00-10.264 4.25 14.417 14.417 0 00-4.25 10.264v26.158c0 .741-.604 1.345-1.345 1.345zm-3.802 0a1.35 1.35 0 01-1.35-1.345v-26.158c0-3.875-1.506-7.52-4.25-10.264a14.42 14.42 0 00-10.264-4.25 1.345 1.345 0 110-2.691c4.596 0 8.919 1.789 12.17 5.04a17.107 17.107 0 015.039 12.165v26.158c0 .741-.604 1.345-1.345 1.345" fill="#171717"/><path d="M626.446 192.272a1.469 1.469 0 11-2.937-.003 1.469 1.469 0 012.937.003z" fill="#171717"/><path d="M593.494 182.13c-.809 0-1.467.653-1.467 1.467 0 .809.658 1.467 1.467 1.467s1.467-.658 1.467-1.467c0-.814-.658-1.467-1.467-1.467zm35.423 8.616c2.685-1.086 5.307-1.501 7.793-1.223a1.344 1.344 0 001.487-1.189 1.348 1.348 0 00-1.19-1.487c-2.934-.326-5.994.147-9.104 1.409a1.345 1.345 0 101.014 2.49zm-25.51.103c-.165 0-.336-.034-.502-.103-2.69-1.086-5.312-1.501-7.798-1.223a1.348 1.348 0 01-1.486-1.189 1.354 1.354 0 011.189-1.487c2.934-.326 5.999.147 9.104 1.409a1.345 1.345 0 01-.507 2.593" fill="#F79446"/><path d="M359.467 201.917h11.182v-5.965h-11.182v5.965z" fill="#63CBD1"/><path d="M360.784 200.601h8.547v-3.333h-8.547v3.333zm9.832 2.632H359.5a1.35 1.35 0 01-1.351-1.35v-5.897c0-.746.605-1.35 1.351-1.35h11.116a1.35 1.35 0 011.351 1.35v5.897a1.35 1.35 0 01-1.351 1.35" fill="#171717"/><path d="M347.921 195.952v5.965h11.182v-5.965h-11.182z" fill="#63CBD1"/><path d="M349.239 200.601h8.547v-3.333h-8.547v3.333zm9.831 2.632h-11.115a1.35 1.35 0 01-1.351-1.35v-5.897c0-.746.605-1.35 1.351-1.35h11.115a1.35 1.35 0 011.351 1.35v5.897a1.35 1.35 0 01-1.351 1.35z" fill="#171717"/><path d="M336.375 195.952v5.965h11.182v-5.965h-11.182z" fill="#63CBD1"/><path d="M337.693 200.601h8.547v-3.333h-8.547v3.333zm9.831 2.632h-11.115a1.35 1.35 0 01-1.351-1.35v-5.897c0-.746.604-1.35 1.351-1.35h11.115a1.35 1.35 0 011.351 1.35v5.897a1.35 1.35 0 01-1.351 1.35z" fill="#171717"/><path d="M324.83 195.952v5.965h11.182v-5.965H324.83z" fill="#63CBD1"/><path d="M326.147 200.601h8.547v-3.333h-8.547v3.333zm9.831 2.632h-11.115a1.35 1.35 0 01-1.351-1.35v-5.897c0-.746.605-1.35 1.351-1.35h11.115a1.35 1.35 0 011.351 1.35v5.897a1.35 1.35 0 01-1.351 1.35z" fill="#171717"/><path d="M313.833 195.952v5.965h11.182v-5.965h-11.182z" fill="#63CBD1"/><path d="M315.151 200.601h8.547v-3.333h-8.547v3.333zm9.831 2.632h-11.115a1.35 1.35 0 01-1.351-1.35v-5.897c0-.746.604-1.35 1.351-1.35h11.115a1.35 1.35 0 011.351 1.35v5.897a1.35 1.35 0 01-1.351 1.35zm325.984 10.552h-10.308a1.344 1.344 0 110-2.69h10.308a1.344 1.344 0 110 2.69zm-90.843 5.439h-6.18a1.344 1.344 0 01-1.345-1.345c0-.746.599-1.345 1.345-1.345h6.18a1.344 1.344 0 110 2.69z" fill="#171717"/><path d="M178.432 225.818h115.584V72.668c-8.241-4.708-28.315-14.772-56.23-15.138-29.751-.385-51.176 10.47-59.354 15.138v153.15z" fill="#83D5CA"/><path d="M179.75 224.503h112.948V73.433c-11.692-6.564-30.532-14.265-54.93-14.582-27.034-.356-47.718 8.812-58.018 14.583v151.069zm114.266 2.632H178.432c-.728 0-1.317-.59-1.317-1.317V72.668c0-.472.253-.911.664-1.145 10.291-5.878 31.776-15.679 60.024-15.309 25.428.332 44.96 8.51 56.866 15.31.411.233.665.672.665 1.144v153.15c0 .727-.591 1.317-1.318 1.317z" fill="#171717"/><path d="M294.016 73.38H178.433l6.688-4.23 24.378-8.87 22.813-2.964 18.486.8 19.88 4.527 17.75 7.043 5.588 3.694" fill="#B1E4DC"/><path d="M182.983 72.06h106.648l-1.815-1.2-17.53-6.955-19.664-4.479-18.253-.79-22.556 2.935-24.108 8.768-2.722 1.72zm111.033 2.636H178.432a1.319 1.319 0 01-.704-2.432l6.689-4.226c.08-.053.165-.092.254-.126l24.378-8.87c.091-.03.185-.054.28-.069l22.814-2.963c.075-.01.152-.01.226-.01l18.486.8c.08.004.158.014.236.033l19.879 4.528c.066.015.131.034.193.059l17.751 7.042c.084.034.165.073.24.127l5.588 3.69a1.317 1.317 0 01-.726 2.417" fill="#171717"/><path d="M179.75 224.503h112.948V73.433c-11.692-6.564-30.532-14.265-54.93-14.582-27.034-.356-47.718 8.812-58.018 14.583v151.069zm114.266 2.632H178.432c-.728 0-1.317-.59-1.317-1.317V72.668c0-.472.253-.911.664-1.145 10.291-5.878 31.776-15.679 60.024-15.309 25.428.332 44.96 8.51 56.866 15.31.411.233.665.672.665 1.144v153.15c0 .727-.591 1.317-1.318 1.317z" fill="#171717"/><path d="M86.465 222.305h.574s2.485.277 5.505-1.404c3.02-1.677 5.307-9.085 5.307-9.085l-.15-8.895-9.44-6.618-11.542 2.831-.232 2.72v8.666s-.303 1.735-.966 3.309l1.546 3.655 5.022 2.891 4.376 1.93" fill="#48A86D"/><path d="M68.516 218.922l3.132-3.923 1.74-20.47-.199-16.922-5.618-8.452-8.403-1.691-7.906 3.626-2.834 6.317-1.442 18.247.696 17.454 5.121 6.862 8.751 2.685s3.67-.433 6.36-2.281l-.542-1.203 1.143-.249" fill="#80CB9A"/><path d="M44.497 212.82s-.832-3.29-.832-6.126c0-2.837.204-15.845.204-15.845l-3.396-4.494s-7.21-1.14-7.458-1.14c-.249 0-7.011 2.383-7.011 2.383l-4.127 5.868-1.25 14.87 3.488 8.89 11.094 5.429s3.994-.487 6.201-2.183c2.207-1.691 2.459-4.299 2.459-4.299l.628-3.353zm488.362-7.384l4.011-2.018v-3.991l-7.876-7.184 3.938-1.136.989-2.193-9.533-9.236-9.231 9.007.536 2.875 3.402.381-4.128 6.428-.083 6.424v5.113s-.088 4.849-2.364 6.979c-2.271 2.13 5.863 1.901 5.863 1.901l4.509-1.653h16.093l.57-2.753-6.696-8.944" fill="#48A86D"/><path d="M512.121 191.034l-1.326 21.06-6.565 9.421s-3.285 1.311-6.95 1.067c-3.67-.243-6.77-4.328-6.77-4.328l-1.438-2.407s-2.856-6.288-3.056-8.632c-.195-2.344 0-10.815 0-10.815v-21.04l8.958-7.866 9.149 1.637 6.672 4.854 1.326 17.049" fill="#80CB9A"/><path d="M469.495 179.678l10.2 9.548-1.287 1.881-3.812.683 7.745 10.054-.677 2.252-4.993.775 7.035 8.09v3.329l-4.084 3.392h-18.53l-4.613-.891-2.798-4.021 8.092-9.256-4.764-1.418-.757-2.929 8.47-9.075-4.31-.907-.605-3.256 9.688-8.251" fill="#48A86D"/><path d="M108.814 226.306h37.48v-70.919h-37.48v70.919z" fill="#F6832F"/><path d="M110.191 224.931h34.726v-68.17h-34.726v68.17zm36.067 2.754h-37.409a1.412 1.412 0 01-1.411-1.413v-70.851c0-.78.632-1.413 1.411-1.413h37.409c.78 0 1.412.633 1.412 1.413v70.851c0 .78-.632 1.413-1.412 1.413" fill="#171717"/><path d="M277.211 92.032h5.607V80.56h-5.607v11.473zm-14.26 0h5.607V80.56h-5.607v11.473zm-14.259 0h5.607V80.56h-5.607v11.473zm-14.26 0h5.608V80.56h-5.608v11.473zm-14.26 0h5.608V80.56h-5.608v11.473zm-14.259 0h5.607V80.56h-5.607v11.473zm-14.26 0h5.608V80.56h-5.608v11.473zm85.558 23.346h5.607v-11.473h-5.607v11.473zm-14.26 0h5.607v-11.473h-5.607v11.473zm-14.259 0h5.607v-11.473h-5.607v11.473zm-14.26 0h5.608v-11.473h-5.608v11.473zm-14.26 0h5.608v-11.473h-5.608v11.473zm-14.259 0h5.608v-11.473h-5.608v11.473zm-14.26 0h5.608v-11.473h-5.608v11.473zm85.558 23.345h5.607V127.25h-5.607v11.473zm-14.26 0h5.607V127.25h-5.607v11.473zm-14.259 0h5.607V127.25h-5.607v11.473zm-14.26 0h5.608V127.25h-5.608v11.473zm-14.26 0h5.608V127.25h-5.608v11.473zm-14.259 0h5.608v-11.472h-5.608v11.472zm-14.26 0h5.608V127.25h-5.608v11.473zm85.558 23.351h5.607v-11.478h-5.607v11.478zm-14.26 0h5.607v-11.478h-5.607v11.478zm-14.259 0h5.607v-11.478h-5.607v11.478zm-14.26 0h5.608v-11.478h-5.608v11.478zm-14.26 0h5.608v-11.478h-5.608v11.478zm-14.259 0h5.608v-11.478h-5.608v11.478zm-14.26 0h5.608v-11.478h-5.608v11.478zm85.558 23.302h5.607v-11.478h-5.607v11.478zm-14.26 0h5.607v-11.478h-5.607v11.478zm-14.259 0h5.607v-11.478h-5.607v11.478zm-14.26 0h5.608v-11.478h-5.608v11.478zm-14.26 0h5.608v-11.478h-5.608v11.478zm-14.259 0h5.608v-11.478h-5.608v11.478zm-14.26 0h5.608v-11.478h-5.608v11.478zm207.736-8.296v5.61h11.475v-5.61h-11.475" fill="#7ED4DA"/><path d="M400.372 181.706h9.509v-3.641h-9.509v3.641zm10.492 1.964h-11.475a.982.982 0 01-.983-.98v-5.61c0-.541.44-.984.983-.984h11.475c.543 0 .983.443.983.984v5.61c0 .541-.44.98-.983.98z" fill="#171717"/><path d="M399.389 162.82v5.609h11.475v-5.609h-11.475" fill="#7ED4DA"/><path d="M400.372 167.445h9.509v-3.641h-9.509v3.641zm10.492 1.969h-11.475a.986.986 0 01-.983-.985v-5.609c0-.541.44-.98.983-.98h11.475c.543 0 .983.439.983.98v5.609c0 .541-.44.985-.983.985z" fill="#171717"/><path d="M399.389 148.563v5.605h11.475v-5.605h-11.475z" fill="#7ED4DA"/><path d="M400.372 153.184h9.509v-3.641h-9.509v3.641zm10.492 1.969h-11.475a.986.986 0 01-.983-.985v-5.604c0-.546.44-.985.983-.985h11.475c.543 0 .983.439.983.985v5.604c0 .541-.44.985-.983.985z" fill="#171717"/><path d="M399.389 134.303v5.605h11.475v-5.605h-11.475z" fill="#7ED4DA"/><path d="M400.372 138.928h9.509v-3.641h-9.509v3.641zm10.492 1.964h-11.475a.982.982 0 01-.983-.984v-5.605c0-.546.44-.985.983-.985h11.475c.543 0 .983.439.983.985v5.605c0 .546-.44.984-.983.984z" fill="#171717"/><path d="M376.043 177.08v5.61h11.475v-5.61h-11.475" fill="#7ED4DA"/><path d="M377.026 181.706h9.508v-3.641h-9.508v3.641zm10.492 1.964h-11.475a.982.982 0 01-.983-.98v-5.61c0-.541.44-.984.983-.984h11.475c.543 0 .983.443.983.984v5.61c0 .541-.44.98-.983.98z" fill="#171717"/><path d="M376.043 162.82v5.609h11.475v-5.609h-11.475" fill="#7ED4DA"/><path d="M377.026 167.445h9.508v-3.641h-9.508v3.641zm10.492 1.969h-11.475a.986.986 0 01-.983-.985v-5.609c0-.541.44-.98.983-.98h11.475c.543 0 .983.439.983.98v5.609c0 .541-.44.985-.983.985z" fill="#171717"/><path d="M376.043 148.563v5.605h11.475v-5.605h-11.475z" fill="#7ED4DA"/><path d="M377.026 153.184h9.508v-3.641h-9.508v3.641zm10.492 1.969h-11.475a.986.986 0 01-.983-.985v-5.604c0-.546.44-.985.983-.985h11.475c.543 0 .983.439.983.985v5.604c0 .541-.44.985-.983.985z" fill="#171717"/><path d="M376.043 134.303v5.605h11.475v-5.605h-11.475z" fill="#7ED4DA"/><path d="M377.026 138.928h9.508v-3.641h-9.508v3.641zm10.492 1.964h-11.475a.982.982 0 01-.983-.984v-5.605c0-.546.44-.985.983-.985h11.475c.543 0 .983.439.983.985v5.605c0 .546-.44.984-.983.984z" fill="#171717"/><path d="M352.697 177.08v5.61h11.475v-5.61h-11.475" fill="#7ED4DA"/><path d="M353.68 181.706h9.509v-3.641h-9.509v3.641zm10.492 1.964h-11.475a.982.982 0 01-.983-.98v-5.61c0-.541.44-.984.983-.984h11.475c.543 0 .983.443.983.984v5.61c0 .541-.44.98-.983.98z" fill="#171717"/><path d="M352.697 162.82v5.609h11.475v-5.609h-11.475" fill="#7ED4DA"/><path d="M353.68 167.445h9.509v-3.641h-9.509v3.641zm10.492 1.969h-11.475a.986.986 0 01-.983-.985v-5.609c0-.541.44-.98.983-.98h11.475c.543 0 .983.439.983.98v5.609c0 .541-.44.985-.983.985z" fill="#171717"/><path d="M352.697 148.563v5.605h11.475v-5.605h-11.475z" fill="#7ED4DA"/><path d="M353.68 153.184h9.509v-3.641h-9.509v3.641zm10.492 1.969h-11.475a.986.986 0 01-.983-.985v-5.604c0-.546.44-.985.983-.985h11.475c.543 0 .983.439.983.985v5.604c0 .541-.44.985-.983.985z" fill="#171717"/><path d="M352.697 134.303v5.605h11.475v-5.605h-11.475z" fill="#7ED4DA"/><path d="M353.68 138.928h9.509v-3.641h-9.509v3.641zm10.492 1.964h-11.475a.982.982 0 01-.983-.984v-5.605c0-.546.44-.985.983-.985h11.475c.543 0 .983.439.983.985v5.605c0 .546-.44.984-.983.984z" fill="#171717"/><path d="M329.351 177.08v5.61h11.475v-5.61h-11.475" fill="#7ED4DA"/><path d="M330.334 181.706h9.509v-3.641h-9.509v3.641zm10.492 1.964h-11.475a.982.982 0 01-.983-.98v-5.61c0-.541.44-.984.983-.984h11.475c.543 0 .983.443.983.984v5.61c0 .541-.44.98-.983.98z" fill="#171717"/><path d="M329.351 162.82v5.609h11.475v-5.609h-11.475" fill="#7ED4DA"/><path d="M330.334 167.445h9.509v-3.641h-9.509v3.641zm10.492 1.969h-11.475a.986.986 0 01-.983-.985v-5.609c0-.541.44-.98.983-.98h11.475c.543 0 .983.439.983.98v5.609c0 .541-.44.985-.983.985z" fill="#171717"/><path d="M329.351 148.563v5.605h11.475v-5.605h-11.475z" fill="#7ED4DA"/><path d="M330.334 153.184h9.509v-3.641h-9.509v3.641zm10.492 1.969h-11.475a.986.986 0 01-.983-.985v-5.604c0-.546.44-.985.983-.985h11.475c.543 0 .983.439.983.985v5.604c0 .541-.44.985-.983.985z" fill="#171717"/><path d="M329.351 134.303v5.605h11.475v-5.605h-11.475z" fill="#7ED4DA"/><path d="M330.334 138.928h9.509v-3.641h-9.509v3.641zm10.492 1.964h-11.475a.982.982 0 01-.983-.984v-5.605c0-.546.44-.985.983-.985h11.475c.543 0 .983.439.983.985v5.605c0 .546-.44.984-.983.984z" fill="#171717"/><path d="M306.049 177.08v5.61h11.475v-5.61h-11.475" fill="#7ED4DA"/><path d="M307.032 181.706h9.508v-3.641h-9.508v3.641zm10.492 1.964h-11.475a.982.982 0 01-.984-.98v-5.61c0-.541.441-.984.984-.984h11.475c.543 0 .983.443.983.984v5.61c0 .541-.44.98-.983.98z" fill="#171717"/><path d="M306.049 162.82v5.609h11.475v-5.609h-11.475" fill="#7ED4DA"/><path d="M307.032 167.445h9.508v-3.641h-9.508v3.641zm10.492 1.969h-11.475a.987.987 0 01-.984-.985v-5.609c0-.541.441-.98.984-.98h11.475c.543 0 .983.439.983.98v5.609c0 .541-.44.985-.983.985z" fill="#171717"/><path d="M306.049 148.563v5.605h11.475v-5.605h-11.475z" fill="#7ED4DA"/><path d="M307.032 153.184h9.508v-3.641h-9.508v3.641zm10.492 1.969h-11.475a.987.987 0 01-.984-.985v-5.604c0-.546.441-.985.984-.985h11.475c.543 0 .983.439.983.985v5.604c0 .541-.44.985-.983.985z" fill="#171717"/><path d="M306.049 134.303v5.605h11.475v-5.605h-11.475z" fill="#7ED4DA"/><path d="M307.032 138.928h9.508v-3.641h-9.508v3.641zm10.492 1.964h-11.475a.982.982 0 01-.984-.984v-5.605c0-.546.44-.985.984-.985h11.475c.543 0 .983.439.983.985v5.605c0 .546-.44.984-.983.984zm-42.12 50.488h9.221a1.317 1.317 0 100-2.632h-9.221a1.317 1.317 0 100 2.632zm3.124-7.325h2.972v-8.841h-2.972v8.841zm4.29 2.637h-5.607c-.728 0-1.318-.59-1.318-1.316v-11.478c0-.726.59-1.316 1.318-1.316h5.607c.728 0 1.318.59 1.318 1.316v11.478c0 .726-.59 1.316-1.318 1.316zm-21.674 4.688h9.222a1.317 1.317 0 100-2.632h-9.222a1.317 1.317 0 000 2.632zm3.125-7.325h2.972v-8.841h-2.972v8.841zm4.289 2.637h-5.607c-.728 0-1.317-.59-1.317-1.316v-11.478c0-.726.589-1.316 1.317-1.316h5.607c.728 0 1.318.59 1.318 1.316v11.478c0 .726-.59 1.316-1.318 1.316zm-21.673 4.688h9.221c.727 0 1.318-.589 1.318-1.316 0-.726-.591-1.316-1.318-1.316h-9.221a1.317 1.317 0 100 2.632zm3.125-7.325h2.971v-8.841h-2.971v8.841zm4.289 2.637h-5.607c-.728 0-1.318-.59-1.318-1.316v-11.478c0-.726.59-1.316 1.318-1.316h5.607c.728 0 1.317.59 1.317 1.316v11.478c0 .726-.589 1.316-1.317 1.316zm-21.674 4.688h9.221a1.317 1.317 0 100-2.632h-9.221a1.317 1.317 0 100 2.632zm3.125-7.325h2.972v-8.841h-2.972v8.841zm4.29 2.637h-5.608c-.727 0-1.318-.59-1.318-1.316v-11.478c0-.726.591-1.316 1.318-1.316h5.608c.727 0 1.317.59 1.317 1.316v11.478c0 .726-.59 1.316-1.317 1.316zm-21.674 4.688h9.221a1.316 1.316 0 100-2.632h-9.221a1.317 1.317 0 100 2.632zm3.124-7.325h2.972v-8.841h-2.972v8.841zm4.29 2.637h-5.607c-.728 0-1.318-.59-1.318-1.316v-11.478c0-.726.59-1.316 1.318-1.316h5.607c.728 0 1.318.59 1.318 1.316v11.478c0 .726-.59 1.316-1.318 1.316zm-21.674 4.688h9.221a1.317 1.317 0 100-2.632h-9.221a1.317 1.317 0 100 2.632zm3.125-7.325h2.972v-8.841h-2.972v8.841zm4.29 2.637h-5.608c-.728 0-1.318-.59-1.318-1.316v-11.478c0-.726.59-1.316 1.318-1.316h5.608c.727 0 1.317.59 1.317 1.316v11.478c0 .726-.59 1.316-1.317 1.316zm-21.674 4.688h9.221a1.316 1.316 0 100-2.632h-9.221a1.317 1.317 0 100 2.632zm3.124-7.325h2.972v-8.841h-2.972v8.841zm4.29 2.637h-5.608c-.727 0-1.317-.59-1.317-1.316v-11.478c0-.726.59-1.316 1.317-1.316h5.608c.727 0 1.318.59 1.318 1.316v11.478c0 .726-.591 1.316-1.318 1.316zm78.143-88.65h9.221a1.317 1.317 0 100-2.637h-9.221a1.318 1.318 0 000 2.637zm3.124-7.326h2.972v-8.84h-2.972v8.84zm4.29 2.637h-5.607c-.728 0-1.318-.59-1.318-1.32V80.558c0-.726.59-1.32 1.318-1.32h5.607c.728 0 1.318.594 1.318 1.32v11.473c0 .731-.59 1.321-1.318 1.321zm-21.674 4.689h9.222a1.318 1.318 0 000-2.637h-9.222a1.318 1.318 0 000 2.637zm3.125-7.326h2.972v-8.84h-2.972v8.84zm4.289 2.637h-5.607c-.728 0-1.317-.59-1.317-1.32V80.558c0-.726.589-1.32 1.317-1.32h5.607c.728 0 1.318.594 1.318 1.32v11.473c0 .731-.59 1.321-1.318 1.321zm-21.673 4.689h9.221a1.318 1.318 0 100-2.637h-9.221a1.318 1.318 0 000 2.637zm3.125-7.326h2.971v-8.84h-2.971v8.84zm4.289 2.637h-5.607c-.728 0-1.318-.59-1.318-1.32V80.558c0-.726.59-1.32 1.318-1.32h5.607a1.32 1.32 0 011.317 1.32v11.473c0 .731-.589 1.321-1.317 1.321zm-21.674 4.689h9.221a1.317 1.317 0 100-2.637h-9.221a1.318 1.318 0 000 2.637zm3.125-7.326h2.972v-8.84h-2.972v8.84zm4.29 2.637h-5.608c-.728 0-1.318-.59-1.318-1.32V80.558c0-.726.59-1.32 1.318-1.32h5.608c.727 0 1.317.594 1.317 1.32v11.473c0 .731-.59 1.321-1.317 1.321zm-21.674 4.689h9.221a1.318 1.318 0 000-2.637h-9.221a1.318 1.318 0 000 2.637zm3.124-7.326h2.972v-8.84h-2.972v8.84zm4.29 2.637h-5.607c-.728 0-1.318-.59-1.318-1.32V80.558c0-.726.59-1.32 1.318-1.32h5.607c.728 0 1.318.594 1.318 1.32v11.473c0 .731-.59 1.321-1.318 1.321zm-21.674 4.689h9.221a1.317 1.317 0 100-2.637h-9.221a1.318 1.318 0 000 2.637zm3.125-7.326h2.972v-8.84h-2.972v8.84zm4.29 2.637h-5.608c-.728 0-1.318-.59-1.318-1.32V80.558c0-.726.59-1.32 1.318-1.32h5.608c.727 0 1.317.594 1.317 1.32v11.473c0 .731-.59 1.321-1.317 1.321zm-21.674 4.689h9.221a1.318 1.318 0 000-2.637h-9.221a1.318 1.318 0 000 2.637zm3.124-7.326h2.972v-8.84h-2.972v8.84zm4.29 2.637h-5.608c-.727 0-1.317-.59-1.317-1.32V80.558c0-.726.59-1.32 1.317-1.32h5.608c.727 0 1.318.594 1.318 1.32v11.473c0 .731-.591 1.321-1.318 1.321zm78.143 28.034h9.221a1.317 1.317 0 100-2.632h-9.221a1.317 1.317 0 100 2.632zm3.124-7.325h2.972v-8.841h-2.972v8.841zm4.29 2.637h-5.607c-.728 0-1.318-.59-1.318-1.321v-11.473c0-.726.59-1.316 1.318-1.316h5.607c.728 0 1.318.59 1.318 1.316v11.473c0 .731-.59 1.321-1.318 1.321zm-21.674 4.688h9.222a1.317 1.317 0 100-2.632h-9.222a1.317 1.317 0 100 2.632zm3.125-7.325h2.972v-8.841h-2.972v8.841zm4.289 2.637h-5.607c-.728 0-1.317-.59-1.317-1.321v-11.473c0-.726.589-1.316 1.317-1.316h5.607c.728 0 1.318.59 1.318 1.316v11.473c0 .731-.59 1.321-1.318 1.321zm-21.673 4.688h9.221a1.315 1.315 0 100-2.632h-9.221a1.317 1.317 0 100 2.632zm3.125-7.325h2.971v-8.841h-2.971v8.841zm4.289 2.637h-5.607c-.728 0-1.318-.59-1.318-1.321v-11.473c0-.726.59-1.316 1.318-1.316h5.607c.728 0 1.317.59 1.317 1.316v11.473c0 .731-.589 1.321-1.317 1.321zm-21.674 4.688h9.221a1.317 1.317 0 100-2.632h-9.221a1.316 1.316 0 100 2.632zm3.125-7.325h2.972v-8.841h-2.972v8.841zm4.29 2.637h-5.608c-.728 0-1.318-.59-1.318-1.321v-11.473c0-.726.59-1.316 1.318-1.316h5.608c.727 0 1.317.59 1.317 1.316v11.473c0 .731-.59 1.321-1.317 1.321zm-21.674 4.688h9.221a1.316 1.316 0 100-2.632h-9.221a1.317 1.317 0 100 2.632zm3.124-7.325h2.972v-8.841h-2.972v8.841zm4.29 2.637h-5.607c-.728 0-1.318-.59-1.318-1.321v-11.473c0-.726.59-1.316 1.318-1.316h5.607c.728 0 1.318.59 1.318 1.316v11.473c0 .731-.59 1.321-1.318 1.321zm-21.674 4.688h9.221a1.317 1.317 0 100-2.636h-9.221c-.728 0-1.317.589-1.317 1.32 0 .727.589 1.316 1.317 1.316zm3.125-7.325h2.972v-8.841h-2.972v8.841zm4.29 2.637h-5.608c-.728 0-1.318-.59-1.318-1.321v-11.473c0-.726.59-1.316 1.318-1.316h5.608c.727 0 1.317.59 1.317 1.316v11.473c0 .731-.59 1.321-1.317 1.321zm-21.674 4.688h9.221a1.316 1.316 0 100-2.632h-9.221a1.317 1.317 0 100 2.632zm3.124-7.325h2.972v-8.841h-2.972v8.841zm4.29 2.637h-5.608c-.727 0-1.317-.59-1.317-1.321v-11.473c0-.726.59-1.316 1.317-1.316h5.608c.727 0 1.318.59 1.318 1.316v11.473a1.32 1.32 0 01-1.318 1.321zm78.143 28.034h9.221c.728 0 1.318-.59 1.318-1.316 0-.726-.59-1.316-1.318-1.316h-9.221c-.728 0-1.318.59-1.318 1.316 0 .726.59 1.316 1.318 1.316zm3.124-7.325h2.972v-8.842h-2.972v8.842zm4.29 2.636h-5.607a1.318 1.318 0 01-1.318-1.321V127.25c0-.726.59-1.315 1.318-1.315h5.607c.728 0 1.318.589 1.318 1.315v11.473c0 .732-.59 1.321-1.318 1.321zm-21.674 4.689h9.222a1.317 1.317 0 000-2.632h-9.222a1.317 1.317 0 000 2.632zm3.125-7.325h2.972v-8.842h-2.972v8.842zm4.289 2.636h-5.607a1.317 1.317 0 01-1.317-1.321V127.25c0-.726.589-1.315 1.317-1.315h5.607c.728 0 1.318.589 1.318 1.315v11.473c0 .732-.59 1.321-1.318 1.321zm-21.673 4.689h9.221c.727 0 1.318-.59 1.318-1.316 0-.726-.591-1.316-1.318-1.316h-9.221c-.728 0-1.318.59-1.318 1.316 0 .726.59 1.316 1.318 1.316zm3.125-7.325h2.971v-8.842h-2.971v8.842zm4.289 2.636h-5.607a1.318 1.318 0 01-1.318-1.321V127.25c0-.726.59-1.315 1.318-1.315h5.607c.728 0 1.317.589 1.317 1.315v11.473c0 .732-.589 1.321-1.317 1.321zm-21.674 4.689h9.221c.728 0 1.318-.59 1.318-1.316 0-.726-.59-1.316-1.318-1.316h-9.221a1.317 1.317 0 100 2.632zm3.125-7.325h2.972v-8.842h-2.972v8.842zm4.29 2.636h-5.608a1.318 1.318 0 01-1.318-1.321V127.25c0-.726.59-1.315 1.318-1.315h5.608c.727 0 1.317.589 1.317 1.315v11.473c0 .732-.59 1.321-1.317 1.321zm-21.674 4.689h9.221a1.317 1.317 0 100-2.632h-9.221c-.728 0-1.318.59-1.318 1.316 0 .726.59 1.316 1.318 1.316zm3.124-7.325h2.972v-8.842h-2.972v8.842zm4.29 2.636h-5.607a1.318 1.318 0 01-1.318-1.321V127.25c0-.726.59-1.315 1.318-1.315h5.607c.728 0 1.318.589 1.318 1.315v11.473c0 .732-.59 1.321-1.318 1.321zm-21.674 4.689h9.221c.728 0 1.318-.59 1.318-1.316 0-.726-.59-1.316-1.318-1.316h-9.221a1.317 1.317 0 100 2.632zm3.125-7.325h2.972v-8.842h-2.972v8.842zm4.29 2.636h-5.608a1.318 1.318 0 01-1.318-1.321V127.25c0-.726.59-1.315 1.318-1.315h5.608c.727 0 1.317.589 1.317 1.315v11.473c0 .732-.59 1.321-1.317 1.321zm-21.674 4.689h9.221a1.317 1.317 0 100-2.632h-9.221c-.728 0-1.318.59-1.318 1.316 0 .726.59 1.316 1.318 1.316zm3.124-7.325h2.972v-8.842h-2.972v8.842zm4.29 2.636h-5.608a1.318 1.318 0 01-1.317-1.321V127.25c0-.726.59-1.315 1.317-1.315h5.608c.727 0 1.318.589 1.318 1.315v11.473c0 .732-.591 1.321-1.318 1.321zm78.143 28.034h9.221a1.317 1.317 0 100-2.631h-9.221a1.317 1.317 0 100 2.631zm3.124-7.325h2.972v-8.836h-2.972v8.836zm4.29 2.637h-5.607c-.728 0-1.318-.59-1.318-1.316v-11.478c0-.726.59-1.316 1.318-1.316h5.607c.728 0 1.318.59 1.318 1.316v11.478c0 .726-.59 1.316-1.318 1.316zm-21.674 4.688h9.222a1.316 1.316 0 100-2.631h-9.222a1.317 1.317 0 100 2.631zm3.125-7.325h2.972v-8.836h-2.972v8.836zm4.289 2.637h-5.607c-.728 0-1.317-.59-1.317-1.316v-11.478c0-.726.589-1.316 1.317-1.316h5.607c.728 0 1.318.59 1.318 1.316v11.478c0 .726-.59 1.316-1.318 1.316zm-21.673 4.688h9.221c.727 0 1.318-.589 1.318-1.315 0-.727-.591-1.316-1.318-1.316h-9.221a1.317 1.317 0 100 2.631zm3.125-7.325h2.971v-8.836h-2.971v8.836zm4.289 2.637h-5.607c-.728 0-1.318-.59-1.318-1.316v-11.478c0-.726.59-1.316 1.318-1.316h5.607c.728 0 1.317.59 1.317 1.316v11.478c0 .726-.589 1.316-1.317 1.316zm-21.674 4.688h9.221a1.317 1.317 0 100-2.631h-9.221a1.316 1.316 0 100 2.631zm3.125-7.325h2.972v-8.836h-2.972v8.836zm4.29 2.637h-5.608c-.728 0-1.318-.59-1.318-1.316v-11.478c0-.726.59-1.316 1.318-1.316h5.608c.727 0 1.317.59 1.317 1.316v11.478c0 .726-.59 1.316-1.317 1.316zm-21.674 4.688h9.221a1.316 1.316 0 100-2.631h-9.221a1.317 1.317 0 100 2.631zm3.124-7.325h2.972v-8.836h-2.972v8.836zm4.29 2.637h-5.607c-.728 0-1.318-.59-1.318-1.316v-11.478c0-.726.59-1.316 1.318-1.316h5.607c.728 0 1.318.59 1.318 1.316v11.478c0 .726-.59 1.316-1.318 1.316zm-21.674 4.688h9.221a1.317 1.317 0 100-2.631h-9.221a1.316 1.316 0 100 2.631zm3.125-7.325h2.972v-8.841h-2.972v8.841zm4.29 2.637h-5.608c-.728 0-1.318-.59-1.318-1.316v-11.478c0-.726.59-1.316 1.318-1.316h5.608c.727 0 1.317.59 1.317 1.316v11.478c0 .726-.59 1.316-1.317 1.316zm-21.674 4.688h9.221a1.316 1.316 0 100-2.631h-9.221a1.317 1.317 0 100 2.631zm3.124-7.325h2.972v-8.836h-2.972v8.836zm4.29 2.637h-5.608c-.727 0-1.317-.59-1.317-1.316v-11.478c0-.726.59-1.316 1.317-1.316h5.608c.727 0 1.318.59 1.318 1.316v11.478c0 .726-.591 1.316-1.318 1.316zm-9.03-88.694h97.235a1.317 1.317 0 100-2.637h-97.235a1.318 1.318 0 000 2.637" fill="#171717"/><path d="M226.481 67.634h22.758v-4.99h-22.758v4.99z" fill="#77CF9F"/><path d="M227.798 66.318h20.123v-2.354h-20.123v2.354zm21.408 2.632h-22.692a1.35 1.35 0 01-1.351-1.35v-4.923c0-.746.605-1.35 1.351-1.35h22.692a1.35 1.35 0 011.351 1.35V67.6a1.35 1.35 0 01-1.351 1.35z" fill="#171717"/><path fill-rule="evenodd" clip-rule="evenodd" d="M212.631 225.833h52.799V97.501h-52.799v128.332z" fill="#DEE3E1"/><path d="M202.314 178.547h10.221v-10.22h-10.221v10.22z" fill="#63CBD1"/><path d="M203.631 177.231h7.586v-7.588h-7.586v7.588zm8.871 2.637h-10.155a1.351 1.351 0 01-1.351-1.355v-10.152c0-.746.605-1.35 1.351-1.35h10.155a1.35 1.35 0 011.351 1.35v10.152c0 .751-.605 1.355-1.351 1.355" fill="#171717"/><path d="M192.041 178.547h10.221v-10.22h-10.221v10.22z" fill="#63CBD1"/><path d="M193.358 177.231h7.587v-7.588h-7.587v7.588zm8.871 2.637h-10.155a1.351 1.351 0 01-1.351-1.355v-10.152c0-.746.605-1.35 1.351-1.35h10.155a1.35 1.35 0 011.351 1.35v10.152c0 .751-.605 1.355-1.351 1.355z" fill="#171717"/><path d="M202.314 189.104h10.221v-10.22h-10.221v10.22z" fill="#63CBD1"/><path d="M203.631 187.783h7.586V180.2h-7.586v7.583zm8.871 2.637h-10.155a1.35 1.35 0 01-1.351-1.35v-10.157c0-.746.605-1.35 1.351-1.35h10.155a1.35 1.35 0 011.351 1.35v10.157a1.35 1.35 0 01-1.351 1.35" fill="#171717"/><path d="M146.791 225.833h44.314V118.127h-44.314v107.706z" fill="#83D5CA"/><path d="M148.109 224.517h41.678V119.442h-41.678v105.075zm42.962 2.637h-44.247c-.746 0-1.35-.609-1.35-1.355V118.161c0-.746.604-1.355 1.35-1.355h44.247c.746 0 1.351.609 1.351 1.355v107.638c0 .746-.605 1.355-1.351 1.355" fill="#171717"/><path d="M192.041 189.104h10.221v-10.22h-10.221v10.22z" fill="#63CBD1"/><path d="M193.358 187.783h7.587V180.2h-7.587v7.583zm8.871 2.637h-10.155a1.35 1.35 0 01-1.351-1.35v-10.157c0-.746.605-1.35 1.351-1.35h10.155a1.35 1.35 0 011.351 1.35v10.157a1.35 1.35 0 01-1.351 1.35z" fill="#171717"/><path d="M202.314 199.656h10.221v-10.22h-10.221v10.22z" fill="#63CBD1"/><path d="M203.631 198.34h7.586v-7.589h-7.586v7.589zm8.871 2.637h-10.155c-.746 0-1.351-.61-1.351-1.355V189.47c0-.746.605-1.35 1.351-1.35h10.155a1.35 1.35 0 011.351 1.35v10.152c0 .745-.605 1.355-1.351 1.355" fill="#171717"/><path d="M192.041 199.656h10.221v-10.22h-10.221v10.22z" fill="#63CBD1"/><path d="M193.358 198.34h7.587v-7.589h-7.587v7.589zm8.871 2.637h-10.155c-.746 0-1.351-.61-1.351-1.355V189.47c0-.746.605-1.35 1.351-1.35h10.155a1.35 1.35 0 011.351 1.35v10.152c0 .745-.605 1.355-1.351 1.355z" fill="#171717"/><path d="M202.314 210.213h10.221v-10.226h-10.221v10.226z" fill="#63CBD1"/><path d="M203.631 208.892h7.586v-7.584h-7.586v7.584zm8.871 2.637h-10.155a1.351 1.351 0 01-1.351-1.351v-10.157c0-.745.605-1.35 1.351-1.35h10.155c.746 0 1.351.605 1.351 1.35v10.157c0 .746-.605 1.351-1.351 1.351" fill="#171717"/><path d="M192.041 210.213h10.221v-10.226h-10.221v10.226z" fill="#63CBD1"/><path d="M193.358 208.892h7.587v-7.584h-7.587v7.584zm8.871 2.637h-10.155a1.351 1.351 0 01-1.351-1.351v-10.157c0-.745.605-1.35 1.351-1.35h10.155c.746 0 1.351.605 1.351 1.35v10.157c0 .746-.605 1.351-1.351 1.351z" fill="#171717"/><path d="M242.984 224.517h-7.655v-24.925l4.184-14.762h3.471v39.687" fill="#A0A6A5"/><path d="M202.314 220.262h10.221v-10.22h-10.221v10.22z" fill="#63CBD1"/><path d="M203.631 218.947h7.586v-7.589h-7.586v7.589zm8.871 2.636h-10.155a1.355 1.355 0 01-1.351-1.355v-10.152c0-.745.605-1.35 1.351-1.35h10.155c.746 0 1.351.605 1.351 1.35v10.152c0 .746-.605 1.355-1.351 1.355" fill="#171717"/><path d="M192.041 220.262h10.221v-10.22h-10.221v10.22z" fill="#63CBD1"/><path d="M193.358 218.946h7.587v-7.588h-7.587v7.588zm8.871 2.637h-10.155a1.355 1.355 0 01-1.351-1.355v-10.152c0-.746.605-1.35 1.351-1.35h10.155a1.35 1.35 0 011.351 1.35v10.152c0 .746-.605 1.355-1.351 1.355zm11.72 2.934h50.164V97.447h-50.164v127.07zm51.482 2.637h-52.8c-.727 0-1.317-.59-1.317-1.321V96.131c0-.726.59-1.316 1.317-1.316h52.8c.727 0 1.317.59 1.317 1.316v129.702c0 .731-.59 1.321-1.317 1.321" fill="#171717"/><path d="M663.482 220.808a5.34 5.34 0 01-5.342 5.342 5.337 5.337 0 01-5.342-5.342 5.337 5.337 0 015.342-5.337 5.34 5.34 0 015.342 5.337zm16.805 1.16c0 2.666-2.164 4.83-4.835 4.83a4.833 4.833 0 110-9.665 4.834 4.834 0 014.835 4.835z" fill="#80CB9A"/><path d="M219.049 123.585h39.157a1.318 1.318 0 100-2.637h-39.157a1.317 1.317 0 100 2.637m0-6.102h39.157a1.317 1.317 0 100-2.636h-39.157a1.318 1.318 0 100 2.636m2.069 108.677c.727 0 1.317-.59 1.317-1.316v-95.849a1.318 1.318 0 10-2.635 0v95.849c0 .726.59 1.316 1.318 1.316m8.97 0c.729 0 1.318-.59 1.318-1.316v-95.849a1.318 1.318 0 10-2.635 0v95.849c0 .726.59 1.316 1.317 1.316m8.972 0c.727 0 1.317-.59 1.317-1.316v-95.849a1.318 1.318 0 10-2.635 0v95.849c0 .726.589 1.316 1.318 1.316m8.971 0c.727 0 1.317-.59 1.317-1.316v-95.849a1.318 1.318 0 10-2.635 0v95.849c0 .726.59 1.316 1.318 1.316m8.971 0c.728 0 1.317-.59 1.317-1.316v-95.849a1.318 1.318 0 10-2.635 0v95.849c0 .726.59 1.316 1.318 1.316" fill="#171717"/><path d="M242.984 225.984h70.725v-28.877h-70.725v28.877" fill="#F79545"/><path d="M244.302 224.663h68.09v-26.24h-68.09v26.24zm69.374 2.637h-70.658a1.35 1.35 0 01-1.351-1.35v-28.809c0-.746.604-1.35 1.351-1.35h70.658a1.35 1.35 0 011.351 1.35v28.809a1.35 1.35 0 01-1.351 1.35" fill="#171717"/><path d="M239.75 196.814h76.181l-2.222-12.823h-71.737l-2.222 12.823" fill="#A97044"/><path d="M241.316 195.494h73.049l-1.765-10.187h-69.52l-1.764 10.187zm74.615 2.636H239.75a1.316 1.316 0 01-1.298-1.54l2.221-12.823a1.316 1.316 0 011.299-1.091h71.737c.641 0 1.189.458 1.298 1.091l2.222 12.823a1.318 1.318 0 01-1.298 1.54" fill="#171717"/><path d="M265.578 215.549h9.105v-10.976h-9.105v10.976zm-15.885 0h9.106v-10.327h-9.106v10.327z" fill="#F79446"/><path d="M265.578 215.549h9.105v-10.327h-9.105v10.327z" fill="#63CBD1"/><path d="M266.896 214.234h6.47v-7.696h-6.47v7.696zm7.754 2.636h-9.039a1.35 1.35 0 01-1.351-1.35v-10.264c0-.746.605-1.355 1.351-1.355h9.039c.746 0 1.351.609 1.351 1.355v10.264a1.35 1.35 0 01-1.351 1.35z" fill="#171717"/><path d="M281.39 215.549h9.105v-10.327h-9.105v10.327z" fill="#63CBD1"/><path d="M282.708 214.234h6.47v-7.696h-6.47v7.696zm7.754 2.636h-9.039a1.35 1.35 0 01-1.351-1.35v-10.264c0-.746.605-1.355 1.351-1.355h9.039c.746 0 1.351.609 1.351 1.355v10.264a1.35 1.35 0 01-1.351 1.35z" fill="#171717"/><path d="M297.316 215.549h9.106v-10.327h-9.106v10.327z" fill="#63CBD1"/><path d="M298.633 214.234h6.471v-7.696h-6.471v7.696zm7.755 2.636h-9.039a1.35 1.35 0 01-1.351-1.35v-10.264c0-.746.605-1.355 1.351-1.355h9.039c.746 0 1.351.609 1.351 1.355v10.264a1.35 1.35 0 01-1.351 1.35z" fill="#171717"/><path d="M249.693 215.549h9.106v-10.327h-9.106v10.327z" fill="#63CBD1"/><path d="M251.011 214.233h6.47v-7.695h-6.47v7.695zm7.755 2.637h-9.04a1.35 1.35 0 01-1.351-1.35v-10.264c0-.746.605-1.355 1.351-1.355h9.04c.746 0 1.35.609 1.35 1.355v10.264a1.35 1.35 0 01-1.35 1.35zM60.178 204.574c-.74 0-1.338-.6-1.338-1.341a1.338 1.338 0 112.676 0 1.34 1.34 0 01-1.338 1.341zm-26.346 1.335a1.338 1.338 0 110-2.677 1.338 1.338 0 010 2.677zm56.365 13.076a11.6 11.6 0 007.085-10.449c-.18-6.234-5.304-11.254-11.582-11.254-3.754 0-7.094 1.799-9.213 4.572v-3.958a14.283 14.283 0 019.213-3.367c7.796 0 14.155 6.253 14.334 14.007a14.338 14.338 0 01-8.76 12.979 1.374 1.374 0 01-1.806-.726 1.373 1.373 0 01.729-1.804" fill="#171717"/><path d="M87.039 208.034a1.339 1.339 0 11-1.339-1.34c.74 0 1.339.599 1.339 1.34zm-53.207-24.462c3.904 0 7.448 1.575 10.036 4.114v4.445c-2.005-3.466-5.751-5.805-10.036-5.805-6.39 0-11.59 5.2-11.59 11.59v10.391c0 5.926 4.47 10.82 10.214 11.507v-10.191a1.375 1.375 0 012.753 0v17.565c0 .76-.616 1.374-1.377 1.374-.76 0-1.376-.614-1.376-1.374v-4.606c-7.265-.697-12.967-6.833-12.967-14.275v-10.391c0-7.905 6.435-14.344 14.343-14.344zm4.497 35.413a11.626 11.626 0 006.168-6.165c.33 1.16.785 2.271 1.35 3.309a14.4 14.4 0 01-6.442 5.386 1.373 1.373 0 01-1.805-.726 1.373 1.373 0 01.729-1.804zm45.995.829v-6.253a1.376 1.376 0 012.753 0v13.627c0 .76-.616 1.374-1.377 1.374-.76 0-1.376-.614-1.376-1.374v-4.606c-4.184-.399-7.844-2.607-10.2-5.824a16.36 16.36 0 001.397-2.929c1.756 3.226 4.998 5.532 8.803 5.985zm-38.489-39.059c0-7.91 6.434-14.343 14.343-14.343 7.908 0 14.342 6.433 14.342 14.343v27.552c0 5.761-3.442 10.946-8.77 13.208a1.374 1.374 0 01-1.805-.726 1.373 1.373 0 01.73-1.804c4.308-1.832 7.092-6.024 7.092-10.678v-27.552c0-6.389-5.199-11.59-11.59-11.59-6.39 0-11.589 5.201-11.589 11.59v27.552c0 5.926 4.47 10.82 10.213 11.507v-10.191a1.376 1.376 0 012.753 0v17.565c0 .76-.616 1.374-1.376 1.374-.76 0-1.377-.614-1.377-1.374v-4.606c-7.265-.697-12.966-6.833-12.966-14.275v-27.552zm-22.868-3.748h.198a1.38 1.38 0 001.376-1.379 3.394 3.394 0 011.033-2.447 3.28 3.28 0 012.338-.955 1.37 1.37 0 001.407-1.345 1.373 1.373 0 00-1.347-1.404 6.065 6.065 0 00-4.325 1.735c-.21.205-.405.424-.581.653a6.2 6.2 0 00-.581-.653 6.053 6.053 0 00-4.326-1.735 1.375 1.375 0 00.03 2.749h.099c.838 0 1.642.336 2.27.955a3.394 3.394 0 011.032 2.447 1.38 1.38 0 001.377 1.379zm-13.13-8.324h.197c.365 0 .716-.142.974-.405.258-.253.403-.609.403-.975a3.4 3.4 0 011.032-2.446 3.258 3.258 0 012.339-.951c.77.035 1.39-.584 1.406-1.345a1.38 1.38 0 00-1.347-1.408c-1.584-.034-3.164.599-4.325 1.74-.21.204-.404.424-.58.653a6.08 6.08 0 00-.582-.653c-1.162-1.141-2.754-1.774-4.325-1.74a1.38 1.38 0 00-1.347 1.408c.017.751.63 1.345 1.376 1.345h.098c.839 0 1.643.337 2.272.951a3.4 3.4 0 011.031 2.446c0 .366.145.722.403.975.258.263.609.405.974.405zm-.273 14.124h.124a1.38 1.38 0 001.377-1.379 1.62 1.62 0 011.596-1.623h.03c.747 0 1.36-.595 1.376-1.345a1.38 1.38 0 00-1.347-1.409c-1.146-.029-2.259.429-3.086 1.238l-.008.01-.007-.01c-.827-.809-1.947-1.272-3.087-1.238a1.38 1.38 0 00-1.346 1.409c.016.76.65 1.374 1.406 1.345.386 0 .794.151 1.1.453.32.312.496.726.495 1.17a1.38 1.38 0 001.377 1.379" fill="#171717"/><path d="M586.524 111.786l2.115-5.22s-.175-3.768-.565-3.719c-.39.054-3.339-2.066-3.339-2.066l-4.235-2.164-2.832-2.496-3.948-.628-3.986-1.628-7.998-1.833-6.161 3.48-11.965 6.853-.19 7.276 2.51 2.403 7.164-.721 6.853.721 11.761-.4 8.373.4 6.443-.258" fill="#63CBD1"/><path d="M569.69 123.975c.38 0 .751-.156 1.024-.453l5.034-5.585a1.38 1.38 0 00-.102-1.945 1.38 1.38 0 00-1.945.102l-5.03 5.581a1.375 1.375 0 001.019 2.3zm-6.37 0a1.39 1.39 0 001.023-.453l5.035-5.585a1.38 1.38 0 00-.102-1.945 1.38 1.38 0 00-1.945.102l-5.035 5.581a1.38 1.38 0 001.024 2.3zm-6.37 0c.375 0 .75-.156 1.023-.453l5.035-5.585a1.38 1.38 0 00-.102-1.945 1.38 1.38 0 00-1.945.102l-5.035 5.581a1.378 1.378 0 001.024 2.3zm-6.37 0c.375 0 .75-.156 1.023-.453l5.035-5.585a1.38 1.38 0 00-.102-1.945 1.38 1.38 0 00-1.945.102l-5.035 5.581a1.378 1.378 0 001.024 2.3zm28.38-14.655c.312 0 .624.102.877.312a4.543 4.543 0 007.428-3.505 4.546 4.546 0 00-5.137-4.503 1.381 1.381 0 01-1.428-.785 6.938 6.938 0 00-6.268-4.001 6.85 6.85 0 00-1.827.248 1.383 1.383 0 01-1.438-.472 8.633 8.633 0 00-6.77-3.266 8.641 8.641 0 00-6.565 3.022 1.394 1.394 0 01-1.101.478c-.088-.005-.171-.01-.259-.01a6.938 6.938 0 00-6.272 4.001 1.382 1.382 0 01-1.428.785 4.546 4.546 0 00-5.133 4.503 4.545 4.545 0 004.538 4.538 4.54 4.54 0 002.885-1.033 1.382 1.382 0 011.633-.088 6.858 6.858 0 003.777 1.121 6.861 6.861 0 003.134-.751 1.365 1.365 0 011.199-.029 8.613 8.613 0 003.592.78 8.61 8.61 0 004.552-1.292 1.373 1.373 0 011.516.044 6.875 6.875 0 003.967 1.248 6.88 6.88 0 003.777-1.121c.23-.151.493-.224.751-.224zm3.763 4.099a7.32 7.32 0 01-3.836-1.087 9.665 9.665 0 01-4.455 1.087 9.637 9.637 0 01-4.796-1.272 11.409 11.409 0 01-5.239 1.272c-1.428 0-2.817-.259-4.133-.775a9.539 9.539 0 01-3.792.775 9.68 9.68 0 01-4.459-1.087 7.322 7.322 0 01-3.836 1.087c-4.021 0-7.291-3.271-7.291-7.292a7.3 7.3 0 017.267-7.296 9.706 9.706 0 018.032-4.742 11.393 11.393 0 018.212-3.494c3.197 0 6.195 1.315 8.349 3.64a9.32 9.32 0 011.686-.15c3.422 0 6.59 1.837 8.32 4.746 4.006.015 7.267 3.28 7.267 7.296 0 4.021-3.275 7.292-7.296 7.292zm-128.364 98.022l5.272-5.274h-.087c-1.793 0-3.338-1.028-4.033-2.685-.687-1.643-.343-3.446.893-4.699l5.62-5.624h-.034a3.63 3.63 0 01-3.353-2.232c-.572-1.365-.285-2.866.739-3.909l7.413-7.413a3.834 3.834 0 015.413 0l7.376 7.374.029.029a3.546 3.546 0 01.746 3.919 3.629 3.629 0 01-3.353 2.232h-.034l5.585 5.585.029.035c1.243 1.257 1.589 3.06.902 4.703-.697 1.657-2.242 2.685-4.036 2.685h-.088l5.235 5.235.034.034c1.384 1.408 1.769 3.416 1.004 5.249-.775 1.852-2.5 2.997-4.503 2.997h-6.625c-.76 0-1.376-.614-1.376-1.374 0-.76.616-1.379 1.376-1.379h6.625c1.043 0 1.696-.678 1.964-1.311.331-.795.175-1.638-.424-2.252l-.044-.039-7.561-7.559a1.38 1.38 0 01-.298-1.501 1.37 1.37 0 011.272-.848h3.409c.999 0 1.394-.766 1.496-1.005.093-.224.351-1.018-.321-1.705l.979-.965-1.013.931-7.917-7.916a1.379 1.379 0 01.973-2.354H477a.867.867 0 00.815-.545.828.828 0 00-.196-.941l-7.364-7.364c-.419-.42-1.1-.42-1.519 0l-7.388 7.388c-.353.356-.237.761-.172.917a.867.867 0 00.814.545h3.358a1.379 1.379 0 01.973 2.354l-7.915 7.916-.034.034c-.675.687-.417 1.481-.321 1.705.098.239.496 1.005 1.493 1.005h3.41a1.37 1.37 0 011.272.848 1.38 1.38 0 01-.299 1.501l-7.561 7.559-.04.044c-.601.609-.76 1.452-.425 2.247.265.633.92 1.311 1.96 1.311h11.124c.177 0 .345.039.501.097h.009c.761 0 1.377.619 1.377 1.38v8.782c0 .76-.616 1.374-1.377 1.374-.76 0-1.376-.614-1.376-1.374v-7.506h-10.258c-2 0-3.724-1.15-4.5-2.997-.766-1.833-.382-3.841.998-5.244z" fill="#171717"/><path d="M469.496 214.77a1.338 1.338 0 110-2.676 1.338 1.338 0 010 2.676zm29.158-9.334a1.338 1.338 0 01-1.335-1.34 1.338 1.338 0 112.675 0c0 .741-.599 1.34-1.34 1.34zm19.398-2.017a1.373 1.373 0 01.97 2.349l-4.138 4.138a15.72 15.72 0 00.083-1.599v-4.888h3.085" fill="#171717"/><path d="M528.74 190.405h3.358c.541 0 .76-.414.814-.545a.836.836 0 00-.195-.941l-7.364-7.364a1.076 1.076 0 00-1.521 0l-7.389 7.388a.814.814 0 00-.17.917.86.86 0 00.814.545h3.358c.555 0 1.057.337 1.272.853a1.387 1.387 0 01-.302 1.501l-6.448 6.453v-3.894l2.154-2.159h-.034a3.59 3.59 0 01-2.12-.692v-5.941l6.92-6.921a3.83 3.83 0 015.41 0l7.375 7.374.029.029a3.554 3.554 0 01.75 3.919 3.633 3.633 0 01-3.353 2.232h-.034l5.581 5.586.034.034c1.238 1.257 1.584 3.06.896 4.703-.697 1.657-2.242 2.685-4.03 2.685h-.088l5.23 5.235.039.034c1.384 1.409 1.764 3.417.999 5.249-.775 1.852-2.5 2.997-4.499 2.997h-6.628a1.378 1.378 0 010-2.753h6.628c1.038 0 1.696-.678 1.96-1.311a2.017 2.017 0 00-.424-2.252l-.039-.039-7.565-7.559a1.377 1.377 0 01.975-2.349h3.412c.994 0 1.394-.766 1.491-1.004.098-.225.356-1.019-.321-1.706l.979-.965-1.014.931-7.915-7.916a1.376 1.376 0 01-.297-1.501c.21-.516.716-.853 1.272-.853zm-15.781 26.524h11.122c.175 0 .346.039.502.097h.009c.761 0 1.375.619 1.375 1.38v8.782c0 .761-.614 1.374-1.375 1.374-.76 0-1.379-.613-1.379-1.374v-7.506h-10.254c-.775 0-1.511-.17-2.164-.492a16.132 16.132 0 001.725-2.305c.141.029.283.044.439.044zm-28.644-8.588l-.005-.034v-2.437c.4-.478.731-1.023.985-1.628.936-2.232.555-4.674-.985-6.482v-17.005c0-7.91 6.439-14.343 14.344-14.343 7.91 0 14.344 6.433 14.344 14.343v27.552a14.339 14.339 0 01-8.768 13.208 1.377 1.377 0 01-1.809-.726 1.371 1.371 0 01.732-1.803c4.308-1.833 7.091-6.025 7.091-10.679v-27.552c0-6.389-5.2-11.59-11.59-11.59s-11.59 5.201-11.59 11.59v27.552c0 5.927 4.469 10.82 10.216 11.507v-10.191a1.378 1.378 0 012.753 0v17.565a1.376 1.376 0 01-2.753 0v-4.606c-3.943-.375-7.423-2.359-9.782-5.278.999-2.534.448-5.298-1.467-7.247l-1.716-1.716zm-346.153-41.603a2.42 2.42 0 110 4.84 2.42 2.42 0 110-4.84zm-7.02 0a2.42 2.42 0 110 4.84 2.42 2.42 0 110-4.84zm-7.019 0a2.42 2.42 0 110 4.84 2.42 2.42 0 110-4.84zm-7.019 4.84a2.42 2.42 0 110-4.84 2.42 2.42 0 110 4.84zm21.058 2.992a2.423 2.423 0 010 4.845 2.42 2.42 0 01-2.422-2.422 2.424 2.424 0 012.422-2.423zm-7.02 0a2.424 2.424 0 010 4.845 2.42 2.42 0 01-2.421-2.422 2.424 2.424 0 012.421-2.423zm-7.019 0a2.424 2.424 0 010 4.845 2.423 2.423 0 010-4.845zm-7.019 0a2.424 2.424 0 012.422 2.423 2.42 2.42 0 11-4.843 0 2.423 2.423 0 012.421-2.423zm21.058 7.838a2.423 2.423 0 010 4.844 2.424 2.424 0 01-2.422-2.422 2.423 2.423 0 012.422-2.422zm-7.02 0a2.423 2.423 0 010 4.844 2.423 2.423 0 010-4.844zm-7.019 0a2.423 2.423 0 010 4.844 2.423 2.423 0 010-4.844zm-7.019 0a2.423 2.423 0 012.422 2.422 2.424 2.424 0 01-2.422 2.422 2.423 2.423 0 010-4.844zm21.058 7.837a2.42 2.42 0 110 4.839 2.42 2.42 0 110-4.839zm-7.02 0a2.42 2.42 0 110 4.839 2.42 2.42 0 110-4.839zm-7.019 0a2.42 2.42 0 110 4.839 2.419 2.419 0 110-4.839zm-7.019 0a2.42 2.42 0 110 4.839 2.419 2.419 0 110-4.839zm21.058 7.837a2.419 2.419 0 110 4.839 2.42 2.42 0 110-4.839zm-7.02 0a2.42 2.42 0 110 4.839 2.42 2.42 0 110-4.839zm-7.019 0a2.42 2.42 0 110 4.839 2.42 2.42 0 110-4.839zm-7.019 0a2.42 2.42 0 110 4.839 2.42 2.42 0 110-4.839zm21.058 7.832a2.423 2.423 0 010 4.845 2.424 2.424 0 01-2.422-2.423 2.424 2.424 0 012.422-2.422zm-7.02 0a2.423 2.423 0 010 4.845 2.424 2.424 0 01-2.421-2.423 2.424 2.424 0 012.421-2.422zm-7.019 0a2.423 2.423 0 010 4.845 2.423 2.423 0 010-4.845zm-7.019 0a2.424 2.424 0 012.422 2.422 2.424 2.424 0 01-2.422 2.423 2.423 2.423 0 010-4.845zm21.058 7.837a2.423 2.423 0 010 4.845 2.424 2.424 0 01-2.422-2.423 2.42 2.42 0 012.422-2.422zm-7.02 0a2.424 2.424 0 010 4.845 2.424 2.424 0 01-2.421-2.423 2.42 2.42 0 012.421-2.422zm-7.019 0a2.424 2.424 0 010 4.845 2.423 2.423 0 010-4.845zm-7.019 0a2.42 2.42 0 012.422 2.422 2.424 2.424 0 01-2.422 2.423 2.423 2.423 0 010-4.845z" fill="#171717"/><path d="M153.368 185.878h5.689v-24.433h-5.689v24.433zm25.56 0h5.689v-24.433h-5.689v24.433zm0 18.696h5.689v-11.278h-5.689v11.278zm0-50.401h5.689v-24.432h-5.689v24.432zm-25.592 0h5.69v-24.432h-5.69v24.432zm.032 50.401h5.689v-11.278h-5.689v11.278zm12.78-61.825h5.689v-24.432h-5.689v24.432zm0 32.323h5.689V150.64h-5.689v24.432zm0 30.364h5.689v-22.473h-5.689v22.473z" fill="#6CCED8"/><path d="M153.336 219.985c.728 0 1.318-.59 1.318-1.321v-23.823h3.054v23.823a1.319 1.319 0 102.635 0V193.52c0-.726-.589-1.316-1.317-1.316h-5.69c-.727 0-1.317.59-1.317 1.316v25.144c0 .731.59 1.321 1.317 1.321zm12.796-11.576c.728 0 1.318-.589 1.318-1.316v-23.828h3.054v23.828a1.317 1.317 0 002.635 0v-25.144c0-.731-.589-1.321-1.318-1.321h-5.689c-.727 0-1.317.59-1.317 1.321v25.144c0 .727.59 1.316 1.317 1.316zm12.796 11.576c.728 0 1.317-.59 1.317-1.321v-23.823h3.055v23.823a1.318 1.318 0 102.635 0V193.52c0-.726-.59-1.316-1.318-1.316h-5.689c-.728 0-1.317.59-1.317 1.316v25.144c0 .731.589 1.321 1.317 1.321zm-25.592-32.08c.728 0 1.318-.59 1.318-1.316v-23.828h3.054v23.828a1.317 1.317 0 002.635 0v-25.144c0-.726-.589-1.316-1.317-1.316h-5.69c-.727 0-1.317.59-1.317 1.316v25.144c0 .726.59 1.316 1.317 1.316zm12.796-11.57c.728 0 1.318-.59 1.318-1.316v-23.828h3.054v23.828a1.317 1.317 0 002.635 0v-25.144c0-.731-.589-1.321-1.318-1.321h-5.689c-.727 0-1.317.59-1.317 1.321v25.144c0 .726.59 1.316 1.317 1.316zm12.796 11.57c.728 0 1.317-.59 1.317-1.316v-23.828h3.055v23.828a1.317 1.317 0 002.635 0v-25.144c0-.726-.59-1.316-1.318-1.316h-5.689c-.728 0-1.317.59-1.317 1.316v25.144c0 .726.589 1.316 1.317 1.316zm-25.592-32.075c.728 0 1.318-.589 1.318-1.315v-23.829h3.054v23.829a1.317 1.317 0 002.635 0V129.37c0-.726-.589-1.315-1.317-1.315h-5.69c-.727 0-1.317.589-1.317 1.315v25.145c0 .726.59 1.315 1.317 1.315zm12.796-11.57c.728 0 1.318-.59 1.318-1.321v-23.497h3.054v23.497a1.318 1.318 0 102.635 0v-24.812c0-.732-.589-1.321-1.318-1.321h-5.689c-.727 0-1.317.589-1.317 1.321v24.812c0 .731.59 1.321 1.317 1.321zm12.796 11.57c.728 0 1.317-.589 1.317-1.315v-23.829h3.055v23.829a1.317 1.317 0 002.635 0V129.37c0-.726-.59-1.315-1.318-1.315h-5.689c-.728 0-1.317.589-1.317 1.315v25.145c0 .726.589 1.315 1.317 1.315" fill="#171717"/><path d="M116.078 155.411h24.505v-6.579h-24.505v6.579" fill="#A97044"/><path d="M117.395 154.091h21.871v-3.939h-21.871v3.939zm23.155 2.636h-24.439a1.35 1.35 0 01-1.351-1.35v-6.511c0-.746.605-1.35 1.351-1.35h24.439a1.35 1.35 0 011.351 1.35v6.511a1.35 1.35 0 01-1.351 1.35" fill="#171717"/><path d="M144.569 118.706h48.757l-2.221-9.83h-44.314l-2.222 9.83z" fill="#B1E4DC"/><path d="M146.218 117.386h45.459l-1.626-7.189h-42.207l-1.626 7.189zm47.108 2.636h-48.757a1.318 1.318 0 01-1.285-1.608l2.222-9.825a1.315 1.315 0 011.285-1.029h44.314c.615 0 1.149.424 1.285 1.029l2.221 9.825c.089.39-.005.799-.255 1.116-.25.312-.629.492-1.03.492zm362.893 27.484c0 .906.731 1.638 1.637 1.638a1.639 1.639 0 000-3.276c-.906 0-1.637.736-1.637 1.638zm-6.102 0a1.639 1.639 0 103.277-.001 1.639 1.639 0 00-3.277.001zm-6.097 0c0 .906.731 1.638 1.637 1.638a1.639 1.639 0 000-3.276c-.906 0-1.637.736-1.637 1.638zm-6.102 0c0 .906.731 1.638 1.637 1.638a1.638 1.638 0 10-1.637-1.638zm-6.102 0a1.64 1.64 0 003.28 0 1.64 1.64 0 00-3.28 0zm-6.098 0c0 .906.731 1.638 1.638 1.638a1.638 1.638 0 10-1.638-1.638zm-6.102 0a1.639 1.639 0 103.278-.002 1.639 1.639 0 00-3.278.002zm-6.097 0a1.639 1.639 0 103.273-.001 1.639 1.639 0 00-3.273.001zm-6.102 0c0 .906.736 1.638 1.638 1.638a1.638 1.638 0 10-1.638-1.638zm-41.059-33.712a1.64 1.64 0 001.638 1.637 1.64 1.64 0 000-3.28c-.904 0-1.638.736-1.638 1.643zm-6.099 0a1.64 1.64 0 001.638 1.637 1.639 1.639 0 000-3.28 1.64 1.64 0 00-1.638 1.643zm-6.1 0a1.64 1.64 0 001.638 1.637 1.64 1.64 0 000-3.28 1.64 1.64 0 00-1.638 1.643zm-6.1 0a1.64 1.64 0 001.638 1.637 1.64 1.64 0 000-3.28 1.64 1.64 0 00-1.638 1.643zm-6.1 0a1.64 1.64 0 001.638 1.637 1.64 1.64 0 000-3.28 1.64 1.64 0 00-1.638 1.643zm-6.1 0a1.64 1.64 0 001.638 1.637 1.64 1.64 0 000-3.28c-.904 0-1.638.736-1.638 1.643zm-6.099 0c0 .901.733 1.637 1.637 1.637a1.64 1.64 0 000-3.28 1.64 1.64 0 00-1.637 1.643zm-6.1 0a1.64 1.64 0 001.638 1.637 1.64 1.64 0 000-3.28 1.64 1.64 0 00-1.638 1.643zm-6.1 0a1.64 1.64 0 001.638 1.637 1.64 1.64 0 000-3.28 1.64 1.64 0 00-1.638 1.643zm-310.213 22.283h23.796a1.318 1.318 0 000-2.637h-23.796a1.318 1.318 0 000 2.637zm309.667-42.724h23.796a1.318 1.318 0 000-2.637h-23.796a1.317 1.317 0 000 2.637zM28.49 155.83h30.35a1.317 1.317 0 100-2.631H28.49a1.316 1.316 0 100 2.631zm470.344-39.131h30.35a1.32 1.32 0 100-2.637h-30.35a1.318 1.318 0 000 2.637zm-397.377-23.41h31.513a1.317 1.317 0 000-2.631h-31.513c-.728 0-1.318.59-1.318 1.316 0 .726.59 1.316 1.318 1.316zm221.347 2.935h31.513a1.318 1.318 0 000-2.637h-31.513a1.317 1.317 0 000 2.637zm-306.817 3.47H35.99a1.318 1.318 0 000-2.637H15.987a1.318 1.318 0 000 2.637z" fill="#171717"/><path d="M146.791 123.844h44.314v-4.733h-44.314v4.733z" fill="#A97044"/><path d="M148.109 122.528h41.678v-2.101h-41.678v2.101zm42.962 2.636h-44.246a1.35 1.35 0 01-1.351-1.355v-4.664c0-.746.604-1.35 1.351-1.35h44.246a1.35 1.35 0 011.351 1.35v4.664c0 .751-.605 1.355-1.351 1.355z" fill="#171717"/><path d="M106.651 161.669h39.642v-6.282h-39.642v6.282z" fill="#737779"/><path d="M107.969 160.349h37.007v-3.646h-37.007v3.646zm38.291 2.636h-39.575a1.35 1.35 0 01-1.352-1.35v-6.214c0-.745.605-1.355 1.352-1.355h39.575c.746 0 1.351.61 1.351 1.355v6.214a1.35 1.35 0 01-1.351 1.35" fill="#171717"/><path d="M533.244 220.75h26.718v-10.562h-26.718v10.562zm39.039 6.004h4.845v-6.004h-4.845v6.004" fill="#367968"/><path d="M530.719 222.402h32.055a1.377 1.377 0 000-2.754h-32.055a1.377 1.377 0 100 2.754zm2.895-5.269h26.265a1.377 1.377 0 000-2.753h-26.265a1.377 1.377 0 000 2.753zm0-5.049h26.265a1.377 1.377 0 000-2.754h-26.265a1.377 1.377 0 000 2.754" fill="#171717"/><path d="M556.443 228.621h2.866a1.377 1.377 0 000-2.754h-1.487v-3.987a1.377 1.377 0 10-2.753 0v5.367c0 .76.614 1.374 1.374 1.374zm-23.063 0h2.364c.76 0 1.379-.614 1.379-1.374v-5.367a1.377 1.377 0 10-2.753 0v3.987h-.99a1.377 1.377 0 000 2.754zm40.078-2.978h1.847l.648-3.514h-3.212l.717 3.514zm2.992 2.754h-4.113a1.376 1.376 0 01-1.35-1.102l-1.277-6.267c-.083-.41.019-.829.282-1.151a1.381 1.381 0 011.063-.502h6.55c.41 0 .795.181 1.058.493.263.316.37.731.297 1.13l-1.155 6.273a1.38 1.38 0 01-1.355 1.126zm-13.676-17.687a1.338 1.338 0 102.677-.007 1.338 1.338 0 00-2.677.007zm-34.818 4.878c0 .741.599 1.336 1.34 1.336a1.338 1.338 0 10-1.34-1.336z" fill="#171717"/><path d="M371.497 225.984h71.737v-28.877h-71.737v28.877z" fill="#F79545"/><path d="M372.814 224.663h69.103v-26.24h-69.103v26.24zm70.387 2.637H371.53a1.35 1.35 0 01-1.35-1.35v-28.809c0-.746.604-1.35 1.35-1.35h71.671a1.35 1.35 0 011.351 1.35v28.809a1.35 1.35 0 01-1.351 1.35" fill="#171717"/><path d="M378.245 215.623h10.109v-10.109h-10.109v10.109zm16.858.224h8.368v-10.411h-8.368v10.411" fill="#63CBD1"/><path d="M411.702 214.77h8.391v-9.256h-8.391v9.256zm15.018 0h9.257v-9.256h-9.257v9.256z" fill="#F79446"/><path d="M426.872 215.847h9.105v-10.333h-9.105v10.333z" fill="#63CBD1"/><path d="M428.189 214.526h6.471v-7.696h-6.471v7.696zm7.755 2.637h-9.039a1.351 1.351 0 01-1.351-1.35v-10.265c0-.745.605-1.35 1.351-1.35h9.039c.746 0 1.351.605 1.351 1.35v10.265c0 .745-.605 1.35-1.351 1.35" fill="#171717"/><path d="M410.987 215.847h9.106v-10.333h-9.106v10.333z" fill="#63CBD1"/><path d="M412.305 214.526h6.471v-7.696h-6.471v7.696zm7.755 2.637h-9.039a1.351 1.351 0 01-1.351-1.35v-10.265c0-.745.605-1.35 1.351-1.35h9.039c.746 0 1.351.605 1.351 1.35v10.265c0 .745-.605 1.35-1.351 1.35zm-23.64-2.637h6.471v-7.696h-6.471v7.696zm7.789 2.637h-9.106c-.728 0-1.318-.59-1.318-1.316v-10.333c0-.726.59-1.316 1.318-1.316h9.106c.727 0 1.317.59 1.317 1.316v10.333c0 .726-.59 1.316-1.317 1.316zm-23.673-2.637h6.471v-7.696h-6.471v7.696zm7.788 2.637h-9.106c-.727 0-1.317-.59-1.317-1.316v-10.333c0-.726.59-1.316 1.317-1.316h9.106c.728 0 1.318.59 1.318 1.316v10.333c0 .726-.59 1.316-1.318 1.316" fill="#171717"/><path d="M371.497 197.107h71.737v-28.878h-71.737v28.878z" fill="#F79545"/><path d="M372.814 195.791h69.103V169.55h-69.103v26.241zm70.387 2.632H371.53a1.35 1.35 0 01-1.35-1.35v-28.809c0-.746.604-1.35 1.35-1.35h71.671a1.35 1.35 0 011.351 1.35v28.809c0 .745-.605 1.35-1.351 1.35z" fill="#171717"/><path d="M371.497 197.107h71.737v-3.811h-71.737v3.811z" fill="#A97044"/><path d="M372.814 195.791h69.103v-1.175h-69.103v1.175zm70.387 2.632H371.53a1.35 1.35 0 01-1.35-1.35v-3.743c0-.746.604-1.35 1.35-1.35h71.671a1.35 1.35 0 011.351 1.35v3.743c0 .745-.605 1.35-1.351 1.35" fill="#171717"/><path d="M393.1 154.544h28.291v-5.712H393.1v5.712z" fill="#F79545"/><path d="M394.214 154.091h26.303v-3.939h-26.303v3.939zm27.621 2.636h-28.938a1.317 1.317 0 01-1.318-1.316v-6.579c0-.727.59-1.316 1.318-1.316h28.938c.727 0 1.317.589 1.317 1.316v6.579c0 .727-.59 1.316-1.317 1.316z" fill="#171717"/><path d="M426.872 186.969h9.105v-10.332h-9.105v10.332zm-15.17-.448h8.391v-9.09h-8.391v9.09zm-16.599.448h8.368v-9.976h-8.368v9.976" fill="#63CBD1"/><path d="M379.249 186.521h8.313v-9.884h-8.313v9.884z" fill="#F79446"/><path d="M369.275 168.23h76.181l-2.222-12.819h-71.738l-2.221 12.819" fill="#A97044"/><path d="M370.841 166.913h73.049l-1.764-10.186h-69.52l-1.765 10.186zm74.615 2.637h-76.181a1.32 1.32 0 01-1.298-1.545l2.222-12.818a1.318 1.318 0 011.298-1.097h71.737c.641 0 1.189.463 1.298 1.097l2.222 12.818a1.322 1.322 0 01-1.298 1.545zm-17.267 16.103h6.471v-7.695h-6.471v7.695zm7.788 2.632h-9.105c-.728 0-1.318-.59-1.318-1.316v-10.332c0-.726.59-1.316 1.318-1.316h9.105c.728 0 1.318.59 1.318 1.316v10.332c0 .726-.59 1.316-1.318 1.316zm-23.672-2.632h6.471v-7.695h-6.471v7.695zm7.789 2.632h-9.107c-.727 0-1.317-.59-1.317-1.316v-10.332c0-.726.59-1.316 1.317-1.316h9.107c.727 0 1.317.59 1.317 1.316v10.332c0 .726-.59 1.316-1.317 1.316zm-23.674-2.632h6.471v-7.695h-6.471v7.695zm7.789 2.632h-9.106c-.728 0-1.318-.59-1.318-1.316v-10.332c0-.726.59-1.316 1.318-1.316h9.106c.727 0 1.317.59 1.317 1.316v10.332c0 .726-.59 1.316-1.317 1.316z" fill="#171717"/><path d="M379.218 186.969h9.106v-10.332h-9.106v10.332z" fill="#63CBD1"/><path d="M380.536 185.653h6.471v-7.695h-6.471v7.695zm7.755 2.632h-9.039a1.35 1.35 0 01-1.351-1.35v-10.264c0-.746.605-1.35 1.351-1.35h9.039a1.35 1.35 0 011.351 1.35v10.264a1.35 1.35 0 01-1.351 1.35z" fill="#171717"/><path d="M366.171 224.577h3.999v-55.818h-3.999v55.818z" fill="#A0A6A5"/><path d="M370.228 226.306h-4.048v-1.73h4v1.374c0 .122.016.244.048.356zm-4.048-53.344h4v-1.964h-4v1.964zm0 14.543h4v-1.969h-4v1.969z" fill="#121212"/><path d="M366.18 200.601h3.152v-3.333h-3.152v3.333z" fill="#45B0AE"/><path d="M370.18 203.233h-4v-2.632h3.152v-3.333h-3.152v-2.632h4v8.597zm1.317 23.073h-1.269a1.308 1.308 0 01-.048-.356v-28.843a1.347 1.347 0 001.317 1.316v27.883zm-1.317-29.233V169.55h1.317v22.43a1.35 1.35 0 00-1.317 1.35v3.743" fill="#121212"/><path d="M371.497 198.423a1.347 1.347 0 01-1.317-1.316v-3.777a1.35 1.35 0 011.317-1.35v6.443zm0-28.873h-2.222a1.322 1.322 0 01-1.208-.794h3.43v.794" fill="#121212"/><path d="M205.913 177.231h5.304v-7.588h-5.304v7.588z" fill="#45B0AE"/><path d="M211.313 177.563h-5.4v-.332h5.304v-7.588h-5.304v-1.316h5.4v9.236z" fill="#121212"/><path d="M205.913 187.783h5.304V180.2h-5.304v7.583z" fill="#45B0AE"/><path d="M211.313 188.12h-5.4v-.337h5.304V180.2h-5.304v-2.637h5.4v10.557z" fill="#121212"/><path d="M205.913 198.34h5.304v-7.589h-5.304v7.589z" fill="#45B0AE"/><path d="M211.313 198.671h-5.4v-.331h5.304v-7.589h-5.304v-2.631h5.4v10.551" fill="#121212"/><path d="M205.913 208.726h5.304v-7.418h-5.304v7.418z" fill="#45B0AE"/><path d="M211.313 208.726h-.096v-7.418h-5.304v-2.637h5.4v10.055" fill="#121212"/><path d="M205.913 218.947h5.304v-7.589h-5.304v7.589z" fill="#45B0AE"/><path d="M211.313 219.682h-5.4v-.735h5.304v-7.589h-5.304v-2.632h5.4v10.956zm1.222 0h-1.222v-51.355h1.222v51.355z" fill="#121212"/><path d="M140.583 224.932h4.334v-61.947h-4.334v61.947z" fill="#BB6523"/><path d="M145.572 226.306h-4.989v-1.375h4.334v-61.946h.556v62.814c0 .18.035.351.099.507" fill="#121212"/><path d="M146.294 226.306h-.722a1.331 1.331 0 01-.098-.507v-62.814h.82v63.321" fill="#121212"/><path d="M140.583 160.348h4.393v-3.645h-4.393v3.645z" fill="#545859"/><path d="M146.26 162.985h-5.677v-2.637h4.393v-3.645h-4.393v-2.159h5.711v8.441h-.034z" fill="#121212"/><path d="M202.789 166.762h-.475v-71.86h9.761v.035a1.334 1.334 0 00-.545.468h-7.423a1.318 1.318 0 100 2.637h7.206v4.547h-5.4c-.728 0-1.318.59-1.318 1.316v11.473c0 .731.59 1.321 1.318 1.321h5.4v2.051h-7.206a1.318 1.318 0 100 2.637h7.206v4.547h-5.4c-.728 0-1.318.59-1.318 1.316v11.473c0 .731.59 1.321 1.318 1.321h5.4v2.057h-7.206a1.317 1.317 0 100 2.632h7.206v4.547h-5.4c-.728 0-1.318.59-1.318 1.316v11.478c0 .726.59 1.316 1.318 1.316h5.4v2.057h-7.206c-.729 0-1.318.589-1.318 1.315" fill="#639D98"/><path d="M207.231 114.062h2.972v-8.841h-2.972v8.841zm0 23.345h2.972v-8.841h-2.972v8.841zm0 23.346h2.972v-8.841h-2.972v8.841z" fill="#58C7BA"/><path d="M211.313 98.041h-7.207a1.317 1.317 0 010-2.637h7.424a1.32 1.32 0 00-.217.727v1.91zm0 23.346h-7.207a1.318 1.318 0 010-2.637h7.207v2.637zm0-4.689h-5.4a1.318 1.318 0 01-1.318-1.32v-11.473c0-.727.59-1.316 1.318-1.316h5.4v14.109zm-4.082-11.477v8.841h2.972v-8.841h-2.972zm4.082 39.512h-7.207a1.317 1.317 0 110-2.632h7.207v2.632zm0-4.689h-5.4c-.728 0-1.318-.59-1.318-1.321V127.25c0-.726.59-1.316 1.318-1.316h5.4v14.11zm-4.082-11.478v8.841h2.972v-8.841h-2.972zm4.082 38.196h-8.524c0-.726.589-1.316 1.317-1.316h7.207v1.316zm0-3.372h-5.4c-.728 0-1.318-.59-1.318-1.316v-11.478c0-.726.59-1.316 1.318-1.316h5.4v14.11zm-4.082-11.478v8.841h2.972v-8.841h-2.972z" fill="#121212"/><path d="M212.075 166.762h-.762V96.131c0-.268.08-.517.217-.726.134-.2.323-.366.545-.468v71.825" fill="#121212"/><path d="M206.725 109.154h64.611v-7.116h-64.611v7.116z" fill="#F79545"/><path d="M208.043 109.1h61.975v-5.746h-61.975v5.746zm63.293 2.637h-64.611c-.728 0-1.317-.59-1.317-1.316v-8.383c0-.726.589-1.316 1.317-1.316h64.611c.728 0 1.317.59 1.317 1.316v8.383c0 .726-.589 1.316-1.317 1.316" fill="#171717"/><path d="M141.982 225.833h53.932v-20.611h-53.932v20.611z" fill="#F79446"/><path d="M143.299 224.517h51.297v-17.979h-51.297v17.979zm52.581 2.637h-53.865a1.355 1.355 0 01-1.351-1.355v-20.543c0-.746.605-1.355 1.351-1.355h53.865c.746 0 1.351.609 1.351 1.355v20.543c0 .746-.605 1.355-1.351 1.355" fill="#171717"/><path d="M168.948 225.892h15.611v-10.269h-15.611v10.269" fill="#737779"/><path d="M170.265 224.571h12.977v-7.633h-12.977v7.633zm14.261 2.637h-15.545a1.351 1.351 0 01-1.351-1.351v-10.2c0-.746.605-1.35 1.351-1.35h15.545a1.35 1.35 0 011.351 1.35v10.2c0 .746-.605 1.351-1.351 1.351" fill="#171717"/><path d="M153.365 225.892h15.612v-10.269h-15.612v10.269z" fill="#737779"/><path d="M154.683 224.571h12.976v-7.633h-12.976v7.633zm14.26 2.637h-15.545a1.351 1.351 0 01-1.351-1.351v-10.2c0-.746.605-1.35 1.351-1.35h15.545a1.35 1.35 0 011.351 1.35v10.2a1.35 1.35 0 01-1.351 1.351z" fill="#171717"/><path d="M314.406 225.833h56.05v-20.611h-56.05v20.611" fill="#F79446"/><path d="M315.724 224.517h53.414v-17.979h-53.414v17.979zm54.698 2.637h-55.983a1.355 1.355 0 01-1.351-1.355v-20.543c0-.746.605-1.355 1.351-1.355h55.984c.746 0 1.35.609 1.35 1.355v20.543c0 .746-.605 1.355-1.351 1.355" fill="#171717"/><path d="M342.431 225.892h16.225v-10.269h-16.225v10.269z" fill="#737779"/><path d="M343.749 224.571h13.589v-7.633h-13.589v7.633zm14.873 2.637h-16.158a1.351 1.351 0 01-1.351-1.351v-10.2c0-.746.605-1.35 1.351-1.35h16.158a1.35 1.35 0 011.351 1.35v10.2c0 .746-.605 1.351-1.351 1.351" fill="#171717"/><path d="M326.236 225.892h16.225v-10.269h-16.225v10.269z" fill="#737779"/><path d="M327.554 224.571h13.589v-7.633h-13.589v7.633zm14.874 2.637h-16.159a1.351 1.351 0 01-1.351-1.351v-10.2c0-.746.605-1.35 1.351-1.35h16.159a1.35 1.35 0 011.351 1.35v10.2c0 .746-.605 1.351-1.351 1.351zm334.291-6.015a1.47 1.47 0 11-2.94.005 1.47 1.47 0 012.94-.005zm-10.064 3.924a1.348 1.348 0 01-1.345-1.346v-4.917a3.887 3.887 0 00-1.146-2.768l-1.087-1.087a3.342 3.342 0 010-4.728l1.048-1.048a3.342 3.342 0 014.728 0l1.009 1.009a3.893 3.893 0 002.768 1.15h1.15a1.345 1.345 0 110 2.691h-1.15a6.562 6.562 0 01-4.669-1.935l-1.009-1.014a.65.65 0 00-.463-.19.65.65 0 00-.463.19l-1.048 1.048a.66.66 0 000 .926l1.087 1.087a6.556 6.556 0 011.935 4.669v4.917c0 .741-.6 1.346-1.345 1.346zm7.013-19.232a2.58 2.58 0 01-5.161 0 2.58 2.58 0 015.161 0" fill="#171717"/><path d="M657.657 217.611a3.587 3.587 0 00-3.582 3.582 3.59 3.59 0 003.582 3.588 3.59 3.59 0 003.583-3.588 3.588 3.588 0 00-3.583-3.582zm0 9.86c-3.46 0-6.272-2.817-6.272-6.278a6.28 6.28 0 016.272-6.272 6.28 6.28 0 016.273 6.272c0 3.461-2.812 6.278-6.273 6.278zm17.736-9.86a3.587 3.587 0 00-3.582 3.582 3.59 3.59 0 003.582 3.588 3.59 3.59 0 003.582-3.588 3.587 3.587 0 00-3.582-3.582zm0 9.86c-3.46 0-6.272-2.817-6.272-6.278a6.28 6.28 0 016.272-6.272 6.28 6.28 0 016.273 6.272c0 3.461-2.812 6.278-6.273 6.278z" fill="#171717"/><path d="M302.591 114.847l-7.901 10.254h127.014l-6.2-10.254H302.591z" fill="#F79545"/><path d="M297.889 123.527h121.026l-4.298-7.106H303.365l-5.476 7.106zm123.815 3.148H294.691a1.57 1.57 0 01-1.412-.882 1.568 1.568 0 01.165-1.652l7.901-10.255a1.574 1.574 0 011.246-.609h112.913a1.58 1.58 0 011.347.756l6.2 10.254c.294.483.303 1.092.024 1.584a1.572 1.572 0 01-1.371.804zm215.099 12.55c-.088 2.973-1.282 5.941-3.553 8.817-2.856 3.621-5.605 5.59-7.028 6.458a19.038 19.038 0 00-1.326-.366c3.046-3.826 7.954-11.395 7.379-19.87-.224-3.3-1.097-5.785-2.218-7.652.473.244.96.526 1.453.858 3.665 2.495 5.449 6.448 5.293 11.755zm-23.326 15.255c-4.869-3.387-10.445-8.685-10.64-15.255-.219-7.53 3.592-11.029 6.765-12.637-1.131 1.871-2.013 4.362-2.237 7.676-.57 8.48 4.342 16.054 7.379 19.87-.424.103-.848.215-1.267.346zm4.337-.862c-2.544-2.934-8.339-10.635-7.764-19.174.571-8.446 5.927-10.561 8.491-11.093v30.213c-.244.015-.483.034-.727.054zm3.417-.044V123.38c2.612.576 7.798 2.764 8.358 11.064.58 8.534-5.205 16.225-7.764 19.174-.194-.02-.394-.034-.594-.044zm11.79-28.332c-3.305-2.247-6.658-2.636-6.799-2.651h-.015c-2.788-1.833-5.522-2.071-6.273-2.101l-.048-.005h-.132l-.049.005c-.745.03-3.484.268-6.272 2.101h-.015c-.141.015-3.49.404-6.799 2.651-3.08 2.096-6.701 6.234-6.472 14.061.185 6.297 4.464 12.443 12.365 17.775a1.349 1.349 0 001.189.156 18.766 18.766 0 016.35-1.019c2.004.025 3.987.366 5.888 1.019.361.127.755.093 1.092-.093 1.325-.74 4.791-2.943 8.334-7.432 2.632-3.339 4.021-6.838 4.128-10.406.229-7.827-3.392-11.965-6.472-14.061zm-11.079 38.733a1.37 1.37 0 01-1.364 1.369h-1.487a1.37 1.37 0 01-1.364-1.369v-3.203a8.507 8.507 0 012.217-.258 8.387 8.387 0 011.998.258v3.203zm1.809-5.454a11.164 11.164 0 00-3.773-.697 11.316 11.316 0 00-4.06.692 1.349 1.349 0 00-.882 1.267v4.192a4.062 4.062 0 004.055 4.059h1.487a4.062 4.062 0 004.055-4.059v-4.192c0-.565-.351-1.072-.882-1.262z" fill="#171717"/></svg>