<svg width="691" height="229" fill="none" xmlns="http://www.w3.org/2000/svg"><rect width="691" height="101" rx="50.5" fill="#4299E1"/><path fill-rule="evenodd" clip-rule="evenodd" d="M361.656 27.4314c11.263 0 20.859 5.2369 24.501 12.5696 2.825-.7995 5.894-1.2415 9.105-1.2415 5.135 0 9.911 1.1248 13.905 3.0492 2.568-4.7427 8.882-8.0975 16.266-8.0975 6.301 0 11.822 2.441 14.901 6.1036 6.379-3.4714 14.275-5.525 22.828-5.525 16.473 0 30.52 7.6183 35.94 18.3107 3.997-2.1057 8.895-3.3498 14.193-3.3498 2.927.0025 5.735.3824 8.336 1.0752V101H352.263V28.7077c2.913-.8244 6.08-1.2763 9.393-1.2763zM531.025 49.4662c11.263 0 20.859 5.2369 24.5 12.5696 2.825-.7996 5.894-1.2416 9.106-1.2416 5.135 0 9.911 1.1249 13.905 3.0493 2.567-4.7428 8.882-8.0975 16.266-8.0975 6.301 0 11.822 2.441 14.901 6.1036 6.378-3.4714 14.274-5.525 22.828-5.525 16.472 0 30.52 7.6183 35.94 18.3107 3.997-2.1057 8.895-3.3498 14.193-3.3498 2.926.0025 5.734.3824 8.336 1.0752V101.5H521.631V50.7425c2.914-.8244 6.081-1.2763 9.394-1.2763z" fill="#fff"/><path fill-rule="evenodd" clip-rule="evenodd" d="M342.793 27c-11.722 0-21.711 5.2369-25.501 12.5697-2.94-.7996-6.135-1.2416-9.477-1.2416-5.345 0-10.316 1.1248-14.473 3.0493-2.672-4.7428-9.244-8.0975-16.93-8.0975-6.558 0-12.305 2.4409-15.51 6.1035-6.639-3.4714-14.857-5.525-23.76-5.525-17.145 0-31.766 7.6183-37.407 18.3107-4.161-2.1057-9.259-3.3498-14.773-3.3498-3.046.0025-5.969.3824-8.677 1.0752V101.5H352.57V28.2763C349.538 27.4519 346.242 27 342.793 27zM166.508 49.0348c-11.723 0-21.711 5.2369-25.501 12.5696-2.941-.7995-6.135-1.2415-9.477-1.2415-5.345 0-10.316 1.1248-14.473 3.0493-2.673-4.7428-9.245-8.0975-16.931-8.0975-6.5573 0-12.3042 2.4409-15.5091 6.1035-6.6389-3.4714-14.8574-5.525-23.7598-5.525-17.1455 0-31.7665 7.6183-37.4077 18.3107-4.1603-2.1057-9.2585-3.3498-14.77265-3.3498-3.04621.0025-5.96901.3824-8.676752 1.0752L-.0000077 102H176.285V50.3111c-3.032-.8244-6.329-1.2763-9.777-1.2763z" fill="#fff"/><path d="M632.75 125.189c-3.302-2.245-6.652-2.634-6.794-2.649h-.014c-2.786-1.831-5.518-2.07-6.268-2.099l-.049-.005h-.131l-.049.005c-.745.029-3.482.268-6.268 2.099h-.014c-.142.015-3.487.404-6.794 2.649-3.078 2.095-6.697 6.229-6.468 14.051.185 6.292 4.461 12.433 12.356 17.761.224.151.487.229.755.229.146 0 .292-.024.433-.073 2.05-.701 4.179-1.047 6.346-1.018 2.001.024 3.984.365 5.883 1.018.36.126.755.092 1.091-.093 1.324-.74 4.787-2.941 8.328-7.427 2.63-3.336 4.018-6.832 4.125-10.397.229-7.822-3.39-11.956-6.468-14.051zm-306.308-16.602l-4.568 6.682h73.441l-3.585-6.682h-65.288z" fill="#fff"/><path d="M324.481 113.896h68.536l-2.11-3.935h-63.739l-2.687 3.935zm70.834 2.751h-73.441c-.51 0-.978-.287-1.216-.735-.239-.453-.207-.998.08-1.417l4.569-6.682c.256-.375.681-.604 1.135-.604h65.288c.507 0 .973.283 1.212.726l3.585 6.682c.229.428.217.944-.031 1.358-.249.414-.697.672-1.181.672" fill="#171717"/><path d="M294.678 225.304h126.917V125c-9.05-3.083-31.092-9.677-61.744-9.916-32.667-.253-56.193 6.857-65.173 9.916v100.304" fill="#fff"/><path d="M295.995 224.447h124.284v-98.439c-8.421-2.542-26.559-3.745-60.029-4.003-31.624-.249-54.886 1.207-64.255 4.003v98.439zm125.6 2.63H294.678c-.727 0-1.317-.589-1.317-1.315V125.048c0-.565.358-1.066.891-1.246 9.119-3.117 32.56-4.695 66.019-4.432 35.003.273 53.47 1.597 61.75 4.432.533.18.891.681.891 1.246v100.714c0 .726-.589 1.315-1.317 1.315zm200.085-63.185c0 .755-.613 1.369-1.363 1.369h-1.486c-.75 0-1.363-.614-1.363-1.369v-3.199c.725-.185 1.461-.273 2.216-.258.676.004 1.344.092 1.996.258v3.199zm1.807-5.454c-1.208-.443-2.479-.677-3.769-.692-1.384-.019-2.752.215-4.057.692-.531.195-.882.701-.882 1.266v4.188c0 2.236 1.817 4.057 4.052 4.057h1.486c2.235 0 4.052-1.821 4.052-4.057v-4.188c0-.565-.351-1.071-.882-1.266zM493.674 90.7921c.288 0 .575.0926.814.2776.38.2874.828.4432 1.305.4432 1.183 0 2.143-.9643 2.143-2.1477 0-1.1835-.96-2.1477-2.143-2.1477-.078 0-.151.0048-.224.0097-.55.0584-1.081-.2338-1.334-.7305-.595-1.1688-1.773-1.8993-3.083-1.8993-1.042 0-2.016.4626-2.674 1.2662-.341.4139-.891.5893-1.407.4432-.234-.0682-.478-.1023-.721-.1023-1.466 0-2.654 1.1883-2.654 2.6542 0 1.461 1.188 2.6542 2.654 2.6542.545 0 1.066-.1656 1.51-.4773.443-.3068 1.022-.3214 1.475-.0389.546.336 1.174.5162 1.817.5162s1.271-.1802 1.811-.5162c.22-.1364.463-.2046.711-.2046zm2.119 3.4091c-.77 0-1.51-.1802-2.177-.5162-1.554.6818-3.404.6769-4.953-.0098-.721.3458-1.505.526-2.313.526-2.947 0-5.343-2.3961-5.343-5.3425s2.396-5.3425 5.343-5.3425c.204 0 .414.0097.618.0341 1.13-1.052 2.616-1.6412 4.184-1.6412 2.035 0 3.901.9935 5.04 2.6347 2.479.2045 4.437 2.2889 4.437 4.8214 0 2.6639-2.172 4.836-4.836 4.836zm-106.171 3.4139c.27 0 .538.0828.768.2387.446.3117.969.4772 1.513.4772 1.463 0 2.653-1.1883 2.653-2.6542 0-1.461-1.19-2.6542-2.653-2.6542-.244 0-.487.0341-.723.1023-.515.1461-1.066-.0292-1.405-.4432-.66-.8035-1.634-1.2613-2.672-1.2613-1.311 0-2.493.7256-3.086 1.8993-.251.4919-.781.7841-1.335.7305-.073-.0097-.147-.0146-.221-.0146-1.184 0-2.147.9643-2.147 2.1477 0 1.1835.963 2.1477 2.147 2.1477.475 0 .925-.1509 1.301-.4431.444-.3361 1.05-.3653 1.525-.0731.544.336 1.172.5162 1.816.5162.641 0 1.269-.1802 1.813-.5162.217-.1315.462-.1997.706-.1997zm2.281 3.4039c-.809 0-1.595-.18-2.313-.526-1.552.687-3.398.692-4.953.01-.67.341-1.409.516-2.176.516-2.667 0-4.836-2.1717-4.836-4.8357 0-2.5324 1.954-4.612 4.433-4.8214 1.139-1.6412 3.004-2.6347 5.045-2.6347 1.566 0 3.051.5942 4.181 1.6461.205-.0244.412-.039.619-.039 2.945 0 5.342 2.3961 5.342 5.3425s-2.397 5.3422-5.342 5.3422" fill="#171717"/><path d="M415.436 144.334H299.884c-.542 0-.982-.443-.982-.984 0-.545.44-.984.982-.984h115.552c.543 0 .982.439.982.984 0 .541-.439.984-.982.984zM415.436 159.431H299.884c-.542 0-.982-.438-.982-.983 0-.541.44-.984.982-.984h115.552c.543 0 .982.443.982.984 0 .545-.439.983-.982.983zM415.436 172.873H299.884c-.542 0-.982-.439-.982-.984 0-.541.44-.979.982-.979h115.552c.543 0 .982.438.982.979 0 .545-.439.984-.982.984zM415.436 187.405H299.884c-.542 0-.982-.443-.982-.984 0-.545.44-.983.982-.983h115.552c.543 0 .982.438.982.983 0 .541-.439.984-.982.984zm201.896 39.424c-.746 0-1.345-.604-1.345-1.345v-26.137c0-4.593 1.788-8.908 5.036-12.156 3.244-3.249 7.563-5.036 12.156-5.036.74 0 1.344.599 1.344 1.344 0 .741-.604 1.344-1.344 1.344-3.877 0-7.52 1.51-10.257 4.247-2.741 2.742-4.246 6.385-4.246 10.257v26.137c0 .741-.604 1.345-1.344 1.345zm-3.799 0c-.745 0-1.349-.604-1.349-1.345v-26.137c0-3.872-1.505-7.515-4.247-10.257-2.737-2.737-6.38-4.247-10.256-4.247-.741 0-1.344-.603-1.344-1.344 0-.745.603-1.344 1.344-1.344 4.592 0 8.912 1.787 12.16 5.036 3.244 3.248 5.036 7.563 5.036 12.156v26.137c0 .741-.604 1.345-1.344 1.345" fill="#171717"/><path d="M626.18 192.168c0 .808-.657 1.466-1.466 1.466-.813 0-1.47-.658-1.47-1.466 0-.813.657-1.471 1.47-1.471.809 0 1.466.658 1.466 1.471z" fill="#171717"/><path d="M593.253 182.029c-.808 0-1.465.657-1.465 1.47 0 .809.657 1.466 1.465 1.466.809 0 1.466-.657 1.466-1.466 0-.813-.657-1.47-1.466-1.47zm35.396 8.615c2.684-1.086 5.304-1.5 7.788-1.223.74.083 1.402-.453 1.485-1.188.083-.74-.448-1.403-1.188-1.485-2.932-.327-5.991.146-9.098 1.407-.686.278-1.018 1.062-.74 1.749.214.525.716.842 1.247.842.17 0 .341-.034.506-.102zm-25.49.102c-.165 0-.336-.034-.501-.102-2.689-1.086-5.309-1.5-7.793-1.223-.73.083-1.402-.453-1.485-1.188-.078-.74.453-1.403 1.188-1.485 2.932-.327 5.995.146 9.098 1.407.686.278 1.018 1.062.74 1.749-.209.525-.716.842-1.247.842zm-243.754 11.06h11.174v-5.962h-11.174v5.962z" fill="#fff"/><path d="M360.722 200.491h8.54v-3.331h-8.54v3.331zm9.824 2.63h-11.108c-.745 0-1.349-.604-1.349-1.349v-5.893c0-.745.604-1.349 1.35-1.349h11.107c.745 0 1.35.604 1.35 1.349v5.893c0 .745-.605 1.349-1.35 1.349" fill="#171717"/><path d="M347.869 195.845v5.961h11.173v-5.961h-11.173z" fill="#fff"/><path d="M349.185 200.491h8.541v-3.331h-8.541v3.331zm9.824 2.63h-11.107c-.745 0-1.35-.604-1.35-1.349v-5.893c0-.745.605-1.349 1.35-1.349h11.107c.745 0 1.349.604 1.349 1.349v5.893c0 .745-.604 1.349-1.349 1.349z" fill="#171717"/><path d="M336.332 195.845v5.961h11.173v-5.961h-11.173z" fill="#fff"/><path d="M337.648 200.491h8.541v-3.331h-8.541v3.331zm9.824 2.63h-11.107c-.745 0-1.35-.604-1.35-1.349v-5.893c0-.745.605-1.349 1.35-1.349h11.107c.745 0 1.35.604 1.35 1.349v5.893c0 .745-.605 1.349-1.35 1.349z" fill="#171717"/><path d="M324.794 195.845v5.961h11.174v-5.961h-11.174z" fill="#fff"/><path d="M326.111 200.491h8.54v-3.331h-8.54v3.331zm9.824 2.63h-11.107c-.746 0-1.35-.604-1.35-1.349v-5.893c0-.745.604-1.349 1.35-1.349h11.107c.745 0 1.35.604 1.35 1.349v5.893c0 .745-.605 1.349-1.35 1.349z" fill="#171717"/><path d="M313.807 195.845v5.961h11.173v-5.961h-11.173z" fill="#fff"/><path d="M315.123 200.491h8.54v-3.331h-8.54v3.331zm9.823 2.63H313.84c-.746 0-1.35-.604-1.35-1.349v-5.893c0-.745.604-1.349 1.35-1.349h11.106c.746 0 1.351.604 1.351 1.349v5.893c0 .745-.605 1.349-1.351 1.349zm325.736 10.544h-10.3c-.741 0-1.345-.604-1.345-1.344 0-.746.604-1.345 1.345-1.345h10.3c.74 0 1.344.599 1.344 1.345 0 .74-.604 1.344-1.344 1.344zm-90.774 5.435h-6.175c-.745 0-1.344-.604-1.344-1.344 0-.746.599-1.345 1.344-1.345h6.175c.74 0 1.344.599 1.344 1.345 0 .74-.604 1.344-1.344 1.344" fill="#171717"/><path d="M178.509 225.689h115.496V72.6558c-8.236-4.7045-28.294-14.7613-56.188-15.1265-29.728-.3848-51.136 10.4609-59.308 15.1265V225.689z" fill="#fff"/><path d="M179.826 224.374h112.862V73.4202c-11.684-6.56-30.509-14.2547-54.889-14.5713-27.013-.3555-47.681 8.8051-57.973 14.5713V224.374zm114.179 2.63H178.509c-.727 0-1.317-.589-1.317-1.315V72.6556c0-.4724.254-.9107.664-1.1444 10.283-5.8734 31.752-15.6672 59.978-15.297 25.409.3311 44.926 8.5032 56.823 15.297.411.2337.664.672.664 1.1444V225.689c0 .726-.59 1.315-1.316 1.315" fill="#171717"/><path d="M294.005 73.3668H178.509l6.684-4.2273 24.359-8.8635 22.796-2.9611 18.472.7987 19.864 4.5244 17.737 7.0373 5.584 3.6915" fill="#fff"/><path d="M183.056 72.047h106.567l-1.814-1.1981-17.516-6.9496-19.65-4.4756-18.238-.789-22.539 2.9318-24.09 8.7613-2.72 1.7192zm110.949 2.6347H178.509c-.586 0-1.102-.3896-1.265-.9497-.163-.5649.066-1.1688.562-1.4805l6.683-4.2223c.08-.0536.165-.0926.254-.1267l24.359-8.8636c.091-.0292.185-.0535.28-.0681l22.796-2.9611c.075-.0097.152-.0097.227-.0097l18.471.7987c.08.0049.158.0146.236.0341l19.864 4.5243c.066.0146.131.0341.193.0585l17.737 7.0373c.084.034.165.073.24.1266l5.584 3.6866c.485.3215.703.9205.536 1.4757-.168.56-.68.9399-1.261.9399" fill="#171717"/><path d="M179.826 224.374h112.862V73.4202c-11.684-6.56-30.509-14.2547-54.889-14.5713-27.013-.3555-47.681 8.8051-57.973 14.5713V224.374zm114.179 2.63H178.509c-.727 0-1.317-.589-1.317-1.315V72.6556c0-.4724.254-.9107.664-1.1444 10.283-5.8734 31.752-15.6672 59.978-15.297 25.409.3311 44.926 8.5032 56.823 15.297.411.2337.664.672.664 1.1444V225.689c0 .726-.59 1.315-1.316 1.315" fill="#171717"/><path d="M86.6115 222.178h.5737s2.4832.277 5.5007-1.403c3.0176-1.675 5.3031-9.078 5.3031-9.078l-.149-8.888-9.4339-6.613-11.5324 2.829-.2323 2.718v8.659s-.3025 1.734-.9653 3.307l1.5453 3.652 5.0182 2.888 4.3719 1.929zm-17.9356-3.38l3.13-3.921 1.7391-20.454-.1987-16.909-5.6143-8.445-8.3965-1.69-7.8998 3.624-2.832 6.311-1.4406 18.234.6955 17.44 5.117 6.857 8.7443 2.678s3.6672-.428 6.355-2.274l-.5416-1.203 1.1426-.248zM44.676 212.7s-.8318-3.287-.8318-6.121c0-2.835.2035-15.833.2035-15.833l-3.393-4.49s-7.2044-1.14-7.4528-1.14c-.2483 0-7.0052 2.382-7.0052 2.382l-4.1239 5.863-1.2486 14.859 3.4846 8.878 11.0861 5.425s3.9909-.482 6.1964-2.177c2.2051-1.689 2.4564-4.295 2.4564-4.295l.6283-3.351zm487.989-7.383l4.008-2.016v-3.984l-7.87-7.178 3.935-1.135.988-2.191-9.526-9.229-9.224 9 .536 2.873 3.399.38-4.125 6.424-.082 6.418v5.109s-.088 4.846-2.362 6.974c-2.27 2.128 5.858 1.899 5.858 1.899l4.505-1.651h16.081l.57-2.751-6.691-8.942zm-20.723-14.391l-1.324 21.049-6.56 9.414s-3.283 1.31-6.945 1.066c-3.667-.243-6.765-4.324-6.765-4.324l-1.436-2.406s-2.854-6.283-3.054-8.625c-.195-2.343 0-10.807 0-10.807v-21.024l8.951-7.861 9.141 1.637 6.668 4.85 1.324 17.031zm-42.592-11.342l10.192 9.54-1.286 1.88-3.81.682 7.74 10.047-.677 2.25-4.989.774 7.03 8.085v3.326l-4.081 3.39h-18.516l-4.609-.892-2.796-4.018 8.085-9.248-4.76-1.417-.756-2.927 8.464-9.068-4.308-.911-.604-3.248 9.681-8.245zm-360.406 46.592h37.451v-70.868h-37.451v70.868z" fill="#fff"/><path d="M110.32 224.803h34.699v-68.119H110.32v68.119zm36.04 2.751h-37.381c-.779 0-1.411-.633-1.411-1.412v-70.797c0-.779.632-1.412 1.411-1.412h37.381c.779 0 1.41.633 1.41 1.412v70.797c0 .779-.631 1.412-1.41 1.412" fill="#171717"/><path d="M277.212 92.0046h5.603V80.5404h-5.603v11.4642zm-14.248 0h5.603V80.5404h-5.603v11.4642zm-14.249 0h5.603V80.5404h-5.603v11.4642zm-14.248 0h5.603V80.5404h-5.603v11.4642zm-14.249 0h5.603V80.5404h-5.603v11.4642zm-14.249 0h5.603V80.5404h-5.603v11.4642zm-14.249 0h5.603V80.5404h-5.603v11.4642zm85.492 23.3274h5.603v-11.464h-5.603v11.464zm-14.248 0h5.603v-11.464h-5.603v11.464zm-14.249 0h5.603v-11.464h-5.603v11.464zm-14.248 0h5.603v-11.464h-5.603v11.464zm-14.249 0h5.603v-11.464h-5.603v11.464zm-14.249 0h5.603v-11.466h-5.603v11.466zm-14.249 0h5.603v-11.464h-5.603v11.464zm85.492 23.328h5.603v-11.464h-5.603v11.464zm-14.248 0h5.603v-11.464h-5.603v11.464zm-14.249 0h5.603v-11.464h-5.603v11.464zm-14.248 0h5.603v-11.464h-5.603v11.464zm-14.249 0h5.603v-11.464h-5.603v11.464zm-14.249 0h5.603v-11.466h-5.603v11.466zm-14.249 0h5.603v-11.464h-5.603v11.464zm85.492 23.328h5.603v-11.464h-5.603v11.464zm-14.248 0h5.603v-11.464h-5.603v11.464zm-14.249 0h5.603v-11.464h-5.603v11.464zm-14.248 0h5.603v-11.464h-5.603v11.464zm-14.249 0h5.603v-11.464h-5.603v11.464zm-14.249 0h5.603v-11.466h-5.603v11.466zm-14.249 0h5.603v-11.464h-5.603v11.464zm85.492 23.289h5.603v-11.469h-5.603v11.469zm-14.248 0h5.603v-11.469h-5.603v11.469zm-14.249 0h5.603v-11.469h-5.603v11.469zm-14.248 0h5.603v-11.466h-5.603v11.466zm-14.249 0h5.603v-11.469h-5.603v11.469zm-14.249 0h5.603v-11.466h-5.603v11.466zm-14.249 0h5.603v-11.469h-5.603v11.469zm207.578-8.289v5.601h11.465v-5.601h-11.465z" fill="#fff"/><path d="M400.28 181.61h9.501v-3.638h-9.501v3.638zm10.483 1.962h-11.466c-.543 0-.983-.438-.983-.983v-5.601c0-.541.44-.984.983-.984h11.466c.543 0 .983.443.983.984v5.601c0 .545-.44.983-.983.983z" fill="#171717"/><path d="M399.297 162.738v5.606h11.466v-5.606h-11.466z" fill="#fff"/><path d="M400.28 167.36h9.501v-3.638h-9.501v3.638zm10.483 1.962h-11.466c-.543 0-.983-.438-.983-.978v-5.606c0-.541.44-.984.983-.984h11.466c.543 0 .983.443.983.984v5.606c0 .54-.44.978-.983.978z" fill="#171717"/><path d="M399.297 148.488v5.606h11.466v-5.606h-11.466z" fill="#fff"/><path d="M400.28 153.11h9.501v-3.638h-9.501v3.638zm10.483 1.967h-11.466c-.543 0-.983-.443-.983-.983v-5.606c0-.541.44-.979.983-.979h11.466c.543 0 .983.438.983.979v5.606c0 .54-.44.983-.983.983z" fill="#171717"/><path d="M399.297 134.243v5.601h11.466v-5.601h-11.466z" fill="#fff"/><path d="M400.28 138.865h9.501v-3.638h-9.501v3.638zm10.483 1.962h-11.466c-.543 0-.983-.438-.983-.983v-5.601c0-.545.44-.984.983-.984h11.466c.543 0 .983.439.983.984v5.601c0 .545-.44.983-.983.983z" fill="#171717"/><path d="M375.969 176.988v5.601h11.466v-5.601h-11.466z" fill="#fff"/><path d="M376.951 181.61h9.501v-3.638h-9.501v3.638zm10.484 1.962h-11.466c-.543 0-.983-.438-.983-.983v-5.601c0-.541.44-.984.983-.984h11.466c.543 0 .983.443.983.984v5.601c0 .545-.44.983-.983.983z" fill="#171717"/><path d="M375.969 162.738v5.606h11.466v-5.606h-11.466z" fill="#fff"/><path d="M376.951 167.36h9.501v-3.638h-9.501v3.638zm10.484 1.962h-11.466c-.543 0-.983-.438-.983-.978v-5.606c0-.541.44-.984.983-.984h11.466c.543 0 .983.443.983.984v5.606c0 .54-.44.978-.983.978z" fill="#171717"/><path d="M375.969 148.488v5.606h11.466v-5.606h-11.466z" fill="#fff"/><path d="M376.951 153.11h9.501v-3.638h-9.501v3.638zm10.484 1.967h-11.466c-.543 0-.983-.443-.983-.983v-5.606c0-.541.44-.979.983-.979h11.466c.543 0 .983.438.983.979v5.606c0 .54-.44.983-.983.983z" fill="#171717"/><path d="M375.969 134.243v5.601h11.466v-5.601h-11.466z" fill="#fff"/><path d="M376.951 138.865h9.501v-3.638h-9.501v3.638zm10.484 1.962h-11.466c-.543 0-.983-.438-.983-.983v-5.601c0-.545.44-.984.983-.984h11.466c.543 0 .983.439.983.984v5.601c0 .545-.44.983-.983.983z" fill="#171717"/><path d="M352.64 176.988v5.601h11.466v-5.601H352.64z" fill="#fff"/><path d="M353.623 181.61h9.501v-3.638h-9.501v3.638zm10.484 1.962h-11.466c-.543 0-.983-.438-.983-.983v-5.601c0-.541.44-.984.983-.984h11.466c.542 0 .982.443.982.984v5.601c0 .545-.44.983-.982.983z" fill="#171717"/><path d="M352.64 162.738v5.606h11.466v-5.606H352.64z" fill="#fff"/><path d="M353.623 167.36h9.501v-3.638h-9.501v3.638zm10.484 1.962h-11.466c-.543 0-.983-.438-.983-.978v-5.606c0-.541.44-.984.983-.984h11.466c.542 0 .982.443.982.984v5.606c0 .54-.44.978-.982.978z" fill="#171717"/><path d="M352.64 148.488v5.606h11.466v-5.606H352.64z" fill="#fff"/><path d="M353.623 153.11h9.501v-3.638h-9.501v3.638zm10.484 1.967h-11.466c-.543 0-.983-.443-.983-.983v-5.606c0-.541.44-.979.983-.979h11.466c.542 0 .982.438.982.979v5.606c0 .54-.44.983-.982.983z" fill="#171717"/><path d="M352.64 134.243v5.601h11.466v-5.601H352.64z" fill="#fff"/><path d="M353.623 138.865h9.501v-3.638h-9.501v3.638zm10.484 1.962h-11.466c-.543 0-.983-.438-.983-.983v-5.601c0-.545.44-.984.983-.984h11.466c.542 0 .982.439.982.984v5.601c0 .545-.44.983-.982.983z" fill="#171717"/><path d="M329.312 176.988v5.601h11.466v-5.601h-11.466z" fill="#fff"/><path d="M330.295 181.61h9.501v-3.638h-9.501v3.638zm10.483 1.962h-11.466c-.543 0-.982-.438-.982-.983v-5.601c0-.541.439-.984.982-.984h11.466c.543 0 .983.443.983.984v5.601c0 .545-.44.983-.983.983z" fill="#171717"/><path d="M329.312 162.738v5.606h11.466v-5.606h-11.466z" fill="#fff"/><path d="M330.295 167.36h9.501v-3.638h-9.501v3.638zm10.483 1.962h-11.466c-.543 0-.982-.438-.982-.978v-5.606c0-.541.439-.984.982-.984h11.466c.543 0 .983.443.983.984v5.606c0 .54-.44.978-.983.978z" fill="#171717"/><path d="M329.312 148.488v5.606h11.466v-5.606h-11.466z" fill="#fff"/><path d="M330.295 153.11h9.501v-3.638h-9.501v3.638zm10.483 1.967h-11.466c-.543 0-.982-.443-.982-.983v-5.606c0-.541.439-.979.982-.979h11.466c.543 0 .983.438.983.979v5.606c0 .54-.44.983-.983.983z" fill="#171717"/><path d="M329.312 134.243v5.601h11.466v-5.601h-11.466z" fill="#fff"/><path d="M330.295 138.865h9.501v-3.638h-9.501v3.638zm10.483 1.962h-11.466c-.543 0-.982-.438-.982-.983v-5.601c0-.545.439-.984.982-.984h11.466c.543 0 .983.439.983.984v5.601c0 .545-.44.983-.983.983z" fill="#171717"/><path d="M306.028 176.988v5.601h11.466v-5.601h-11.466z" fill="#fff"/><path d="M307.01 181.61h9.502v-3.638h-9.502v3.638zm10.484 1.962h-11.466c-.543 0-.983-.438-.983-.983v-5.601c0-.541.44-.984.983-.984h11.466c.543 0 .983.443.983.984v5.601c0 .545-.44.983-.983.983z" fill="#171717"/><path d="M306.028 162.738v5.606h11.466v-5.606h-11.466z" fill="#fff"/><path d="M307.01 167.36h9.502v-3.638h-9.502v3.638zm10.484 1.962h-11.466c-.543 0-.983-.438-.983-.978v-5.606c0-.541.44-.984.983-.984h11.466c.543 0 .983.443.983.984v5.606c0 .54-.44.978-.983.978z" fill="#171717"/><path d="M306.028 148.488v5.606h11.466v-5.606h-11.466z" fill="#fff"/><path d="M307.01 153.11h9.502v-3.638h-9.502v3.638zm10.484 1.967h-11.466c-.543 0-.983-.443-.983-.983v-5.606c0-.541.44-.979.983-.979h11.466c.543 0 .983.438.983.979v5.606c0 .54-.44.983-.983.983z" fill="#171717"/><path d="M306.028 134.243v5.601h11.466v-5.601h-11.466z" fill="#fff"/><path d="M307.01 138.865h9.502v-3.638h-9.502v3.638zm10.484 1.962h-11.466c-.543 0-.983-.438-.983-.983v-5.601c0-.545.44-.984.983-.984h11.466c.543 0 .983.439.983.984v5.601c0 .545-.44.983-.983.983zm-42.087 50.45h9.214c.727 0 1.317-.589 1.317-1.315s-.59-1.315-1.317-1.315h-9.214c-.727 0-1.317.589-1.317 1.315s.59 1.315 1.317 1.315zm3.122-7.32h2.969v-8.834h-2.969v8.834zm4.286 2.635h-5.603c-.727 0-1.317-.589-1.317-1.32v-11.464c0-.726.59-1.315 1.317-1.315h5.603c.727 0 1.317.589 1.317 1.315v11.464c0 .731-.59 1.32-1.317 1.32zm-21.657 4.685h9.214c.727 0 1.317-.589 1.317-1.315s-.59-1.315-1.317-1.315h-9.214c-.727 0-1.316.589-1.316 1.315s.589 1.315 1.316 1.315zm3.122-7.32h2.97v-8.834h-2.97v8.834zm4.286 2.635h-5.603c-.727 0-1.316-.589-1.316-1.32v-11.464c0-.726.589-1.315 1.316-1.315h5.603c.727 0 1.317.589 1.317 1.315v11.464c0 .731-.59 1.32-1.317 1.32zm-21.656 4.685h9.213c.727 0 1.317-.589 1.317-1.315s-.59-1.315-1.317-1.315h-9.213c-.728 0-1.317.589-1.317 1.315s.589 1.315 1.317 1.315zm3.122-7.32h2.969v-8.834h-2.969v8.834zm4.286 2.635h-5.603c-.727 0-1.317-.589-1.317-1.32v-11.464c0-.726.59-1.315 1.317-1.315h5.603c.727 0 1.316.589 1.316 1.315v11.464c0 .731-.589 1.32-1.316 1.32zm-21.657 4.685h9.214c.727 0 1.316-.589 1.316-1.315s-.589-1.315-1.316-1.315h-9.214c-.728 0-1.317.589-1.317 1.315s.589 1.315 1.317 1.315zm3.122-7.32h2.97v-8.834h-2.97v8.834zm4.286 2.635h-5.603c-.727 0-1.316-.589-1.316-1.32v-11.464c0-.726.589-1.315 1.316-1.315h5.603c.728 0 1.317.589 1.317 1.315v11.464c0 .731-.589 1.32-1.317 1.32zm-21.657 4.685h9.214c.727 0 1.317-.589 1.317-1.315s-.59-1.315-1.317-1.315h-9.214c-.727 0-1.316.589-1.316 1.315s.589 1.315 1.316 1.315zm3.122-7.32h2.97v-8.834h-2.97v8.834zm4.287 2.635h-5.604c-.727 0-1.316-.589-1.316-1.32v-11.464c0-.726.589-1.315 1.316-1.315h5.604c.727 0 1.316.589 1.316 1.315v11.464c0 .731-.589 1.32-1.316 1.32zm-21.657 4.685h9.213c.728 0 1.317-.589 1.317-1.315s-.589-1.315-1.317-1.315h-9.213c-.728 0-1.317.589-1.317 1.315s.589 1.315 1.317 1.315zm3.121-7.32h2.97v-8.834h-2.97v8.834zm4.287 2.635h-5.603c-.728 0-1.317-.589-1.317-1.32v-11.464c0-.726.589-1.315 1.317-1.315h5.603c.727 0 1.316.589 1.316 1.315v11.464c0 .731-.589 1.32-1.316 1.32zm-21.657 4.685h9.214c.728 0 1.316-.589 1.316-1.315s-.588-1.315-1.316-1.315h-9.214c-.727 0-1.317.589-1.317 1.315s.59 1.315 1.317 1.315zm3.122-7.32h2.97v-8.834h-2.97v8.834zm4.286 2.635h-5.603c-.727 0-1.316-.589-1.316-1.32v-11.464c0-.726.589-1.315 1.316-1.315h5.603c.727 0 1.317.589 1.317 1.315v11.464c0 .731-.59 1.32-1.317 1.32zm78.084-88.5825h9.214c.727 0 1.317-.5893 1.317-1.3149 0-.7305-.59-1.3198-1.317-1.3198h-9.214c-.727 0-1.317.5893-1.317 1.3198 0 .7256.59 1.3149 1.317 1.3149zm3.122-7.3198h2.969v-8.8343h-2.969v8.8343zm4.286 2.6348h-5.603c-.727 0-1.317-.5893-1.317-1.3198V80.5405c0-.7306.59-1.3198 1.317-1.3198h5.603c.727 0 1.317.5892 1.317 1.3198v11.4642c0 .7305-.59 1.3198-1.317 1.3198zm-21.657 4.685h9.214c.727 0 1.317-.5893 1.317-1.3149 0-.7305-.59-1.3198-1.317-1.3198h-9.214c-.727 0-1.316.5893-1.316 1.3198 0 .7256.589 1.3149 1.316 1.3149zm3.122-7.3198h2.97v-8.8343h-2.97v8.8343zm4.286 2.6348h-5.603c-.727 0-1.316-.5893-1.316-1.3198V80.5405c0-.7306.589-1.3198 1.316-1.3198h5.603c.727 0 1.317.5892 1.317 1.3198v11.4642c0 .7305-.59 1.3198-1.317 1.3198zm-21.656 4.685h9.213c.727 0 1.317-.5893 1.317-1.3149 0-.7305-.59-1.3198-1.317-1.3198h-9.213c-.728 0-1.317.5893-1.317 1.3198 0 .7256.589 1.3149 1.317 1.3149zm3.122-7.3198h2.969v-8.8343h-2.969v8.8343zm4.286 2.6348h-5.603c-.727 0-1.317-.5893-1.317-1.3198V80.5405c0-.7306.59-1.3198 1.317-1.3198h5.603c.727 0 1.316.5892 1.316 1.3198v11.4642c0 .7305-.589 1.3198-1.316 1.3198zm-21.657 4.685h9.214c.727 0 1.316-.5893 1.316-1.3149 0-.7305-.589-1.3198-1.316-1.3198h-9.214c-.728 0-1.317.5893-1.317 1.3198 0 .7256.589 1.3149 1.317 1.3149zm3.122-7.3198h2.97v-8.8343h-2.97v8.8343zm4.286 2.6348h-5.603c-.727 0-1.316-.5893-1.316-1.3198V80.5405c0-.7306.589-1.3198 1.316-1.3198h5.603c.728 0 1.317.5892 1.317 1.3198v11.4642c0 .7305-.589 1.3198-1.317 1.3198zm-21.657 4.685h9.214c.727 0 1.317-.5893 1.317-1.3149 0-.7305-.59-1.3198-1.317-1.3198h-9.214c-.727 0-1.316.5893-1.316 1.3198 0 .7256.589 1.3149 1.316 1.3149zm3.122-7.3198h2.97v-8.8343h-2.97v8.8343zm4.287 2.6348h-5.604c-.727 0-1.316-.5893-1.316-1.3198V80.5405c0-.7306.589-1.3198 1.316-1.3198h5.604c.727 0 1.316.5892 1.316 1.3198v11.4642c0 .7305-.589 1.3198-1.316 1.3198zm-21.657 4.685h9.213c.728 0 1.317-.5893 1.317-1.3149 0-.7305-.589-1.3198-1.317-1.3198h-9.213c-.728 0-1.317.5893-1.317 1.3198 0 .7256.589 1.3149 1.317 1.3149zm3.121-7.3198h2.97v-8.8343h-2.97v8.8343zm4.287 2.6348h-5.603c-.728 0-1.317-.5893-1.317-1.3198V80.5405c0-.7306.589-1.3198 1.317-1.3198h5.603c.727 0 1.316.5892 1.316 1.3198v11.4642c0 .7305-.589 1.3198-1.316 1.3198zm-21.657 4.685h9.214c.728 0 1.316-.5893 1.316-1.3149 0-.7305-.588-1.3198-1.316-1.3198h-9.214c-.727 0-1.317.5893-1.317 1.3198 0 .7256.59 1.3149 1.317 1.3149zm3.122-7.3198h2.97v-8.8343h-2.97v8.8343zm4.286 2.6348h-5.603c-.727 0-1.316-.5893-1.316-1.3198V80.5405c0-.7306.589-1.3198 1.316-1.3198h5.603c.727 0 1.317.5892 1.317 1.3198v11.4642c0 .7305-.59 1.3198-1.317 1.3198zm78.084 28.0125h9.214c.727 0 1.317-.589 1.317-1.315 0-.73-.59-1.319-1.317-1.319h-9.214c-.727 0-1.317.589-1.317 1.319 0 .726.59 1.315 1.317 1.315zm3.122-7.319h2.969v-8.835h-2.969v8.835zm4.286 2.634h-5.603c-.727 0-1.317-.589-1.317-1.32v-11.464c0-.725.59-1.315 1.317-1.315h5.603c.727 0 1.317.59 1.317 1.315v11.464c0 .731-.59 1.32-1.317 1.32zm-21.657 4.685h9.214c.727 0 1.317-.589 1.317-1.315 0-.73-.59-1.319-1.317-1.319h-9.214c-.727 0-1.316.589-1.316 1.319 0 .726.589 1.315 1.316 1.315zm3.122-7.319h2.97v-8.835h-2.97v8.835zm4.286 2.634h-5.603c-.727 0-1.316-.589-1.316-1.32v-11.464c0-.725.589-1.315 1.316-1.315h5.603c.727 0 1.317.59 1.317 1.315v11.464c0 .731-.59 1.32-1.317 1.32zm-21.656 4.685h9.213c.727 0 1.317-.589 1.317-1.315 0-.73-.59-1.319-1.317-1.319h-9.213c-.728 0-1.317.589-1.317 1.319 0 .726.589 1.315 1.317 1.315zm3.122-7.319h2.969v-8.835h-2.969v8.835zm4.286 2.634h-5.603c-.727 0-1.317-.589-1.317-1.32v-11.464c0-.725.59-1.315 1.317-1.315h5.603c.727 0 1.316.59 1.316 1.315v11.464c0 .731-.589 1.32-1.316 1.32zm-21.657 4.685h9.214c.727 0 1.316-.589 1.316-1.315 0-.73-.589-1.319-1.316-1.319h-9.214c-.728 0-1.317.589-1.317 1.319 0 .726.589 1.315 1.317 1.315zm3.122-7.319h2.97v-8.835h-2.97v8.835zm4.286 2.634h-5.603c-.727 0-1.316-.589-1.316-1.32v-11.464c0-.725.589-1.315 1.316-1.315h5.603c.728 0 1.317.59 1.317 1.315v11.464c0 .731-.589 1.32-1.317 1.32zm-21.657 4.685h9.214c.727 0 1.317-.589 1.317-1.315 0-.73-.59-1.319-1.317-1.319h-9.214c-.727 0-1.316.589-1.316 1.319 0 .726.589 1.315 1.316 1.315zm3.122-7.319h2.97v-8.835h-2.97v8.835zm4.287 2.634h-5.604c-.727 0-1.316-.589-1.316-1.32v-11.464c0-.725.589-1.315 1.316-1.315h5.604c.727 0 1.316.59 1.316 1.315v11.464c0 .731-.589 1.32-1.316 1.32zm-21.657 4.685h9.213c.728 0 1.317-.589 1.317-1.315 0-.73-.589-1.319-1.317-1.319h-9.213c-.728 0-1.317.589-1.317 1.319 0 .726.589 1.315 1.317 1.315zm3.121-7.319h2.97v-8.835h-2.97v8.835zm4.287 2.634h-5.603c-.728 0-1.317-.589-1.317-1.32v-11.464c0-.725.589-1.315 1.317-1.315h5.603c.727 0 1.316.59 1.316 1.315v11.464c0 .731-.589 1.32-1.316 1.32zm-21.657 4.685h9.214c.728 0 1.316-.589 1.316-1.315 0-.73-.588-1.319-1.316-1.319h-9.214c-.727 0-1.317.589-1.317 1.319 0 .726.59 1.315 1.317 1.315zm3.122-7.319h2.97v-8.835h-2.97v8.835zm4.286 2.634h-5.603c-.727 0-1.316-.589-1.316-1.32v-11.464c0-.725.589-1.315 1.316-1.315h5.603c.727 0 1.317.59 1.317 1.315v11.464c0 .731-.59 1.32-1.317 1.32zm78.084 28.013h9.214c.727 0 1.317-.589 1.317-1.315 0-.725-.59-1.315-1.317-1.315h-9.214c-.727 0-1.317.59-1.317 1.315 0 .726.59 1.315 1.317 1.315zm3.122-7.32h2.969v-8.834h-2.969v8.834zm4.286 2.635h-5.603c-.727 0-1.317-.589-1.317-1.32v-11.464c0-.726.59-1.315 1.317-1.315h5.603c.727 0 1.317.589 1.317 1.315v11.464c0 .731-.59 1.32-1.317 1.32zm-21.657 4.685h9.214c.727 0 1.317-.589 1.317-1.315 0-.725-.59-1.315-1.317-1.315h-9.214c-.727 0-1.316.59-1.316 1.315 0 .726.589 1.315 1.316 1.315zm3.122-7.32h2.97v-8.834h-2.97v8.834zm4.286 2.635h-5.603c-.727 0-1.316-.589-1.316-1.32v-11.464c0-.726.589-1.315 1.316-1.315h5.603c.727 0 1.317.589 1.317 1.315v11.464c0 .731-.59 1.32-1.317 1.32zm-21.656 4.685h9.213c.727 0 1.317-.589 1.317-1.315 0-.725-.59-1.315-1.317-1.315h-9.213c-.728 0-1.317.59-1.317 1.315 0 .726.589 1.315 1.317 1.315zm3.122-7.32h2.969v-8.834h-2.969v8.834zm4.286 2.635h-5.603c-.727 0-1.317-.589-1.317-1.32v-11.464c0-.726.59-1.315 1.317-1.315h5.603c.727 0 1.316.589 1.316 1.315v11.464c0 .731-.589 1.32-1.316 1.32zm-21.657 4.685h9.214c.727 0 1.316-.589 1.316-1.315 0-.725-.589-1.315-1.316-1.315h-9.214c-.728 0-1.317.59-1.317 1.315 0 .726.589 1.315 1.317 1.315zm3.122-7.32h2.97v-8.834h-2.97v8.834zm4.286 2.635h-5.603c-.727 0-1.316-.589-1.316-1.32v-11.464c0-.726.589-1.315 1.316-1.315h5.603c.728 0 1.317.589 1.317 1.315v11.464c0 .731-.589 1.32-1.317 1.32zm-21.657 4.685h9.214c.727 0 1.317-.589 1.317-1.315 0-.725-.59-1.315-1.317-1.315h-9.214c-.727 0-1.316.59-1.316 1.315 0 .726.589 1.315 1.316 1.315zm3.122-7.32h2.97v-8.834h-2.97v8.834zm4.287 2.635h-5.604c-.727 0-1.316-.589-1.316-1.32v-11.464c0-.726.589-1.315 1.316-1.315h5.604c.727 0 1.316.589 1.316 1.315v11.464c0 .731-.589 1.32-1.316 1.32zm-21.657 4.685h9.213c.728 0 1.317-.589 1.317-1.315 0-.725-.589-1.315-1.317-1.315h-9.213c-.728 0-1.317.59-1.317 1.315 0 .726.589 1.315 1.317 1.315zm3.121-7.32h2.97v-8.834h-2.97v8.834zm4.287 2.635h-5.603c-.728 0-1.317-.589-1.317-1.32v-11.464c0-.726.589-1.315 1.317-1.315h5.603c.727 0 1.316.589 1.316 1.315v11.464c0 .731-.589 1.32-1.316 1.32zm-21.657 4.685h9.214c.728 0 1.316-.589 1.316-1.315 0-.725-.588-1.315-1.316-1.315h-9.214c-.727 0-1.317.59-1.317 1.315 0 .726.59 1.315 1.317 1.315zm3.122-7.32h2.97v-8.834h-2.97v8.834zm4.286 2.635h-5.603c-.727 0-1.316-.589-1.316-1.32v-11.464c0-.726.589-1.315 1.316-1.315h5.603c.727 0 1.317.589 1.317 1.315v11.464c0 .731-.59 1.32-1.317 1.32zm78.084 28.013h9.214c.727 0 1.317-.589 1.317-1.315s-.59-1.315-1.317-1.315h-9.214c-.727 0-1.317.589-1.317 1.315s.59 1.315 1.317 1.315zm3.122-7.32h2.969v-8.834h-2.969v8.834zm4.286 2.635h-5.603c-.727 0-1.317-.589-1.317-1.32v-11.464c0-.726.59-1.315 1.317-1.315h5.603c.727 0 1.317.589 1.317 1.315v11.464c0 .731-.59 1.32-1.317 1.32zm-21.657 4.685h9.214c.727 0 1.317-.589 1.317-1.315s-.59-1.315-1.317-1.315h-9.214c-.727 0-1.316.589-1.316 1.315s.589 1.315 1.316 1.315zm3.122-7.32h2.97v-8.834h-2.97v8.834zm4.286 2.635h-5.603c-.727 0-1.316-.589-1.316-1.32v-11.464c0-.726.589-1.315 1.316-1.315h5.603c.727 0 1.317.589 1.317 1.315v11.464c0 .731-.59 1.32-1.317 1.32zm-21.656 4.685h9.213c.727 0 1.317-.589 1.317-1.315s-.59-1.315-1.317-1.315h-9.213c-.728 0-1.317.589-1.317 1.315s.589 1.315 1.317 1.315zm3.122-7.32h2.969v-8.834h-2.969v8.834zm4.286 2.635h-5.603c-.727 0-1.317-.589-1.317-1.32v-11.464c0-.726.59-1.315 1.317-1.315h5.603c.727 0 1.316.589 1.316 1.315v11.464c0 .731-.589 1.32-1.316 1.32zm-21.657 4.685h9.214c.727 0 1.316-.589 1.316-1.315s-.589-1.315-1.316-1.315h-9.214c-.728 0-1.317.589-1.317 1.315s.589 1.315 1.317 1.315zm3.122-7.32h2.97v-8.834h-2.97v8.834zm4.286 2.635h-5.603c-.727 0-1.316-.589-1.316-1.32v-11.464c0-.726.589-1.315 1.316-1.315h5.603c.728 0 1.317.589 1.317 1.315v11.464c0 .731-.589 1.32-1.317 1.32zm-21.657 4.685h9.214c.727 0 1.317-.589 1.317-1.315s-.59-1.315-1.317-1.315h-9.214c-.727 0-1.316.589-1.316 1.315s.589 1.315 1.316 1.315zm3.122-7.32h2.97v-8.834h-2.97v8.834zm4.287 2.635h-5.604c-.727 0-1.316-.589-1.316-1.32v-11.464c0-.726.589-1.315 1.316-1.315h5.604c.727 0 1.316.589 1.316 1.315v11.464c0 .731-.589 1.32-1.316 1.32zm-21.657 4.685h9.213c.728 0 1.317-.589 1.317-1.315s-.589-1.315-1.317-1.315h-9.213c-.728 0-1.317.589-1.317 1.315s.589 1.315 1.317 1.315zm3.121-7.32h2.97v-8.834h-2.97v8.834zm4.287 2.635h-5.603c-.728 0-1.317-.589-1.317-1.32v-11.464c0-.726.589-1.315 1.317-1.315h5.603c.727 0 1.316.589 1.316 1.315v11.464c0 .731-.589 1.32-1.316 1.32zm-21.657 4.685h9.214c.728 0 1.316-.589 1.316-1.315s-.588-1.315-1.316-1.315h-9.214c-.727 0-1.317.589-1.317 1.315s.59 1.315 1.317 1.315zm3.122-7.32h2.97v-8.834h-2.97v8.834zm4.286 2.635h-5.603c-.727 0-1.316-.589-1.316-1.32v-11.464c0-.726.589-1.315 1.316-1.315h5.603c.727 0 1.317.589 1.317 1.315v11.464c0 .731-.59 1.32-1.317 1.32zM188.3 74.6817h97.161c.727 0 1.317-.5893 1.317-1.3149 0-.7305-.59-1.3198-1.317-1.3198H188.3c-.727 0-1.317.5893-1.317 1.3198 0 .7256.59 1.3149 1.317 1.3149z" fill="#171717"/><path d="M226.521 67.625h22.74v-4.9869h-22.74v4.9869z" fill="#fff"/><path d="M227.837 66.31h20.108v-2.3523h-20.108V66.31zm21.391 2.6298h-22.674c-.746 0-1.35-.6039-1.35-1.349V62.672c0-.7451.604-1.349 1.35-1.349h22.674c.745 0 1.35.6039 1.35 1.349v4.9188c0 .7451-.605 1.349-1.35 1.349z" fill="#171717"/><path fill-rule="evenodd" clip-rule="evenodd" d="M212.682 225.704h52.758V97.468h-52.758v128.236z" fill="#fff"/><path d="M202.373 178.454h10.213V168.24h-10.213v10.214z" fill="#fff"/><path d="M203.689 177.139h7.58v-7.583h-7.58v7.583zm8.864 2.635h-10.147c-.746 0-1.35-.609-1.35-1.354v-10.145c0-.745.604-1.349 1.35-1.349h10.147c.745 0 1.35.604 1.35 1.349v10.145c0 .745-.605 1.354-1.35 1.354" fill="#171717"/><path d="M192.107 178.454h10.214v-10.213h-10.214v10.213z" fill="#fff"/><path d="M193.423 177.139h7.581v-7.583h-7.581v7.583zm8.864 2.635H192.14c-.746 0-1.35-.609-1.35-1.354v-10.145c0-.745.604-1.349 1.35-1.349h10.147c.746 0 1.35.604 1.35 1.349v10.145c0 .745-.604 1.354-1.35 1.354" fill="#171717"/><path d="M202.373 189.002h10.213v-10.213h-10.213v10.213z" fill="#fff"/><path d="M203.689 187.683h7.58v-7.578h-7.58v7.578zm8.864 2.634h-10.147c-.746 0-1.35-.603-1.35-1.349v-10.149c0-.745.604-1.349 1.35-1.349h10.147c.745 0 1.35.604 1.35 1.349v10.149c0 .746-.605 1.349-1.35 1.349" fill="#171717"/><path d="M146.892 225.704h44.28V118.079h-44.28v107.625z" fill="#fff"/><path d="M148.208 224.389h41.647V119.394h-41.647v104.995zm42.93 2.634h-44.213c-.745 0-1.35-.604-1.35-1.354V118.113c0-.75.605-1.354 1.35-1.354h44.213c.746 0 1.35.604 1.35 1.354v107.556c0 .75-.604 1.354-1.35 1.354" fill="#171717"/><path d="M192.107 189.003h10.214V178.79h-10.214v10.213z" fill="#fff"/><path d="M193.423 187.683h7.581v-7.578h-7.581v7.578zm8.864 2.634H192.14c-.746 0-1.35-.603-1.35-1.349v-10.149c0-.745.604-1.349 1.35-1.349h10.147c.746 0 1.35.604 1.35 1.349v10.149c0 .746-.604 1.349-1.35 1.349z" fill="#171717"/><path d="M202.373 199.546h10.213v-10.213h-10.213v10.213z" fill="#fff"/><path d="M203.689 198.231h7.58v-7.582h-7.58v7.582zm8.864 2.635h-10.147c-.746 0-1.35-.609-1.35-1.354v-10.144c0-.745.604-1.349 1.35-1.349h10.147c.745 0 1.35.604 1.35 1.349v10.144c0 .745-.605 1.354-1.35 1.354" fill="#171717"/><path d="M192.107 199.546h10.214v-10.212h-10.214v10.212z" fill="#fff"/><path d="M193.423 198.231h7.581v-7.582h-7.581v7.582zm8.864 2.635H192.14c-.746 0-1.35-.609-1.35-1.354v-10.144c0-.745.604-1.349 1.35-1.349h10.147c.746 0 1.35.604 1.35 1.349v10.144c0 .745-.604 1.354-1.35 1.354z" fill="#171717"/><path d="M202.373 210.095h10.213v-10.214h-10.213v10.214z" fill="#fff"/><path d="M203.689 208.775h7.58v-7.578h-7.58v7.578zm8.864 2.635h-10.147c-.746 0-1.35-.604-1.35-1.349v-10.149c0-.746.604-1.35 1.35-1.35h10.147c.745 0 1.35.604 1.35 1.35v10.149c0 .745-.605 1.349-1.35 1.349" fill="#171717"/><path d="M192.107 210.095h10.214v-10.218h-10.214v10.218z" fill="#fff"/><path d="M193.423 208.775h7.581v-7.578h-7.581v7.578zm8.864 2.635H192.14c-.746 0-1.35-.604-1.35-1.349v-10.149c0-.746.604-1.35 1.35-1.35h10.147c.746 0 1.35.604 1.35 1.35v10.149c0 .745-.604 1.349-1.35 1.349z" fill="#171717"/><path d="M202.373 220.137h10.213v-10.214h-10.213v10.214z" fill="#fff"/><path d="M203.689 218.822h7.58v-7.583h-7.58v7.583zm8.864 2.635h-10.147c-.746 0-1.35-.609-1.35-1.354v-10.144c0-.745.604-1.349 1.35-1.349h10.147c.745 0 1.35.604 1.35 1.349v10.144c0 .745-.605 1.354-1.35 1.354" fill="#171717"/><path d="M192.107 220.137h10.214v-10.213h-10.214v10.213z" fill="#fff"/><path d="M193.423 218.822h7.581v-7.583h-7.581v7.583zm8.864 2.63H192.14c-.746 0-1.35-.604-1.35-1.349v-10.144c0-.746.604-1.349 1.35-1.349h10.147c.746 0 1.35.603 1.35 1.349v10.144c0 .745-.604 1.349-1.35 1.349zm11.711 2.937h50.126V97.4154h-50.126V224.389zm51.442 2.634h-52.758c-.727 0-1.317-.594-1.317-1.319V96.1005c0-.7257.59-1.315 1.317-1.315h52.758c.728 0 1.317.5893 1.317 1.315V225.704c0 .725-.589 1.319-1.317 1.319" fill="#171717"/><path d="M663.188 220.683c0 2.951-2.391 5.337-5.338 5.337-2.951 0-5.337-2.386-5.337-5.337 0-2.947 2.386-5.338 5.337-5.338 2.947 0 5.338 2.391 5.338 5.338zm16.792 1.159c0 2.664-2.162 4.826-4.831 4.826-2.669 0-4.831-2.162-4.831-4.826 0-2.669 2.162-4.831 4.831-4.831 2.669 0 4.831 2.162 4.831 4.831zm-421.758-99.628h-39.128 39.128" fill="#fff"/><path d="M219.094 123.534h39.128c.727 0 1.316-.59 1.316-1.32 0-.726-.589-1.315-1.316-1.315h-39.128c-.727 0-1.316.589-1.316 1.315 0 .73.589 1.32 1.316 1.32zM219.094 117.436h39.128c.727 0 1.316-.589 1.316-1.315 0-.73-.589-1.319-1.316-1.319h-39.128c-.727 0-1.316.589-1.316 1.319 0 .726.589 1.315 1.316 1.315M221.162 226.03c.727 0 1.316-.589 1.316-1.315V128.94c0-.731-.589-1.32-1.316-1.32-.728 0-1.317.589-1.317 1.32v95.775c0 .726.589 1.315 1.317 1.315M230.125 226.03c.728 0 1.317-.589 1.317-1.315V128.94c0-.731-.589-1.32-1.317-1.32-.727 0-1.316.589-1.316 1.32v95.775c0 .726.589 1.315 1.316 1.315M239.09 226.03c.727 0 1.316-.589 1.316-1.315V128.94c0-.731-.589-1.32-1.316-1.32-.728 0-1.317.589-1.317 1.32v95.775c0 .726.589 1.315 1.317 1.315M248.054 226.03c.727 0 1.317-.589 1.317-1.315V128.94c0-.731-.59-1.32-1.317-1.32s-1.317.589-1.317 1.32v95.775c0 .726.59 1.315 1.317 1.315M257.019 226.03c.727 0 1.316-.589 1.316-1.315V128.94c0-.731-.589-1.32-1.316-1.32-.727 0-1.317.589-1.317 1.32v95.775c0 .726.59 1.315 1.317 1.315" fill="#171717"/><path d="M243.011 225.85h70.671v-28.854h-70.671v28.854z" fill="#fff"/><path d="M244.328 224.535h68.038v-26.221h-68.038v26.221zm69.321 2.634h-70.605c-.745 0-1.349-.603-1.349-1.349v-28.787c0-.745.604-1.354 1.349-1.354h70.605c.745 0 1.35.609 1.35 1.354v28.787c0 .746-.605 1.349-1.35 1.349z" fill="#171717"/><path d="M239.78 196.707h76.123l-2.22-12.813H242l-2.22 12.813" fill="#fff"/><path d="M241.344 195.387h72.994l-1.764-10.178h-69.466l-1.764 10.178zm74.559 2.635H239.78c-.389 0-.757-.171-1.008-.468-.25-.297-.356-.691-.289-1.071l2.22-12.813c.109-.633.656-1.091 1.297-1.091h71.682c.641 0 1.188.458 1.298 1.091l2.22 12.813c.066.38-.04.774-.29 1.071-.25.297-.619.468-1.007.468" fill="#171717"/><path d="M265.588 215.428h9.099V204.46h-9.099v10.968zm-15.872 0h9.099v-10.32h-9.099v10.32z" fill="#fff"/><path d="M265.588 215.428h9.099v-10.32h-9.099v10.32z" fill="#fff"/><path d="M266.905 214.113h6.465v-7.69h-6.465v7.69zm7.749 2.635h-9.033c-.745 0-1.35-.604-1.35-1.349v-10.257c0-.745.605-1.354 1.35-1.354h9.033c.745 0 1.349.609 1.349 1.354v10.257c0 .745-.604 1.349-1.349 1.349z" fill="#171717"/><path d="M281.388 215.428h9.098v-10.32h-9.098v10.32z" fill="#fff"/><path d="M282.705 214.113h6.465v-7.69h-6.465v7.69zm7.748 2.635h-9.032c-.745 0-1.35-.604-1.35-1.349v-10.257c0-.745.605-1.354 1.35-1.354h9.032c.746 0 1.35.609 1.35 1.354v10.257c0 .745-.604 1.349-1.35 1.349z" fill="#171717"/><path d="M297.302 215.428h9.099v-10.32h-9.099v10.32z" fill="#fff"/><path d="M298.618 214.113h6.466v-7.69h-6.466v7.69zm7.749 2.635h-9.032c-.746 0-1.35-.604-1.35-1.349v-10.257c0-.745.604-1.354 1.35-1.354h9.032c.746 0 1.35.609 1.35 1.354v10.257c0 .745-.604 1.349-1.35 1.349z" fill="#171717"/><path d="M249.716 215.428h9.099v-10.32h-9.099v10.32z" fill="#fff"/><path d="M251.032 214.113h6.465v-7.69h-6.465v7.69zm7.749 2.634h-9.032c-.746 0-1.35-.603-1.35-1.349v-10.256c0-.745.604-1.354 1.35-1.354h9.032c.745 0 1.35.609 1.35 1.354v10.256c0 .746-.605 1.349-1.35 1.349zM60.3446 204.46c-.7384 0-1.3369-.599-1.3369-1.339s.5985-1.339 1.3369-1.339c.7387 0 1.3373.599 1.3373 1.339s-.5986 1.339-1.3373 1.339zm-26.3253 1.335c-.7383 0-1.3372-.599-1.3372-1.335 0-.74.5989-1.339 1.3372-1.339.7385 0 1.3368.599 1.3368 1.339 0 .736-.5983 1.335-1.3368 1.335zm56.3212 13.061c4.2345-1.797 6.9891-5.878 7.0797-10.436-.1798-6.229-5.2997-11.246-11.5724-11.246-3.7514 0-7.0894 1.798-9.2064 4.569v-3.955c2.492-2.099 5.7024-3.365 9.2064-3.365 7.7897 0 14.1433 6.248 14.3232 13.997-.091 5.663-3.5028 10.738-8.7547 12.969-.6989.297-1.5068-.025-1.8039-.726-.2971-.701.0287-1.51.7281-1.807" fill="#171717"/><path d="M87.1851 207.918c0 .74-.599 1.334-1.3373 1.334s-1.3373-.594-1.3373-1.334c0-.74.599-1.339 1.3373-1.339s1.3373.599 1.3373 1.339zm-53.1658-24.443c3.9011 0 7.4419 1.573 10.0284 4.11v4.442c-2.004-3.463-5.7474-5.801-10.0284-5.801-6.3857 0-11.5807 5.197-11.5807 11.582v10.383c0 5.922 4.4658 10.811 10.2053 11.498v-10.183c0-.76.6156-1.374 1.3754-1.374.7596 0 1.3756.614 1.3756 1.374v17.551c0 .755-.616 1.374-1.3756 1.374-.7598 0-1.3754-.619-1.3754-1.374v-4.602c-7.2597-.696-12.9566-6.828-12.9566-14.264v-10.383c0-7.9 6.4295-14.333 14.332-14.333zm4.4929 35.381c2.8399-1.203 5.011-3.438 6.1638-6.156.3297 1.159.7841 2.265 1.3485 3.307-1.5277 2.338-3.7388 4.237-6.4369 5.382-.6986.297-1.5065-.025-1.8035-.726-.2971-.701.0288-1.51.7281-1.807zm45.9603.833v-6.248c0-.76.6156-1.374 1.3753-1.374.7597 0 1.3758.614 1.3758 1.374v13.616c0 .755-.6161 1.374-1.3758 1.374-.7597 0-1.3753-.619-1.3753-1.374v-4.602c-4.1805-.399-7.8384-2.605-10.1917-5.825.5601-.92 1.0271-1.899 1.3953-2.922 1.7552 3.224 4.9943 5.528 8.7964 5.981zM46.0128 180.66c0-7.904 6.429-14.333 14.3318-14.333 7.9022 0 14.3317 6.429 14.3317 14.333v27.531c0 5.756-3.4398 10.938-8.7633 13.198-.6988.297-1.5068-.025-1.8039-.726-.297-.701.0293-1.51.7286-1.807 4.3057-1.826 7.0875-6.014 7.0875-10.665V180.66c0-6.385-5.195-11.581-11.5806-11.581-6.3852 0-11.5807 5.196-11.5807 11.581v27.531c0 5.922 4.4659 10.811 10.2048 11.498v-10.183c0-.76.6161-1.374 1.3759-1.374.7597 0 1.3753.614 1.3753 1.374v17.551c0 .755-.6156 1.374-1.3753 1.374-.7598 0-1.3759-.619-1.3759-1.374v-4.602c-7.2588-.696-12.9559-6.828-12.9559-14.264V180.66zm-22.8507-3.745h.198c.3648 0 .7153-.146.9732-.404.258-.259.4026-.609.4022-.974-.0011-.926.365-1.793 1.0315-2.445.6451-.633 1.495-.969 2.3368-.955.7646.02 1.389-.584 1.4052-1.344.0165-.76-.5858-1.388-1.3452-1.403-1.5805-.029-3.161.595-4.322 1.734-.2105.205-.4043.424-.5808.653-.1766-.229-.3705-.448-.5807-.653-1.1614-1.139-2.7339-1.763-4.322-1.734-.7596.015-1.3617.643-1.3451 1.403.0159.75.6285 1.349 1.3743 1.349l.0991-.005c.8374 0 1.6406.336 2.2686.955.6662.652 1.0324 1.519 1.0312 2.445-.0003.365.1444.715.4022.974.2579.258.6084.404.9735.404zm-13.1208-8.318h.198c.3649 0 .7154-.142.9733-.4.2579-.263.4027-.608.4023-.974-.0011-.925.3649-1.797 1.0313-2.449.6447-.629 1.4723-.965 2.3373-.95.7695.034 1.3882-.584 1.4047-1.344.0166-.76-.5861-1.388-1.3455-1.408-1.5828-.034-3.1614.599-4.3221 1.739-.2103.205-.4036.424-.5802.653-.17632-.229-.3702-.448-.5804-.653-1.16142-1.14-2.75219-1.773-4.32202-1.739-.75944.02-1.36212.648-1.34556 1.408.01617.75.62873 1.344 1.3743 1.344h.09832c.8382 0 1.64196.336 2.26976.95.66599.652 1.03203 1.524 1.03091 2.449-.00039.366.14435.711.40212.974.25797.258.60842.4.97347.4zm-.27164 14.113h.12419c.36505 0 .71515-.146.97345-.404.2578-.258.4025-.609.4022-.974-.0004-.443.1754-.857.4946-1.169.3067-.302.714-.453 1.0996-.453h.0308c.7457 0 1.3583-.594 1.3743-1.344.0165-.76-.5856-1.388-1.3452-1.407-1.146-.03-2.2575.428-3.08454 1.237l-.0074.009-.00687-.009c-.82714-.809-1.94594-1.271-3.08506-1.237-.75945.019-1.36154.647-1.34517 1.407.01617.76.64981 1.373 1.40507 1.344.38542 0 .79329.151 1.10016.453.31923.312.49499.726.49421 1.169-.00034.365.14421.716.40218.974s.60837.404.97348.404" fill="#171717"/><path d="M586.289 111.743l2.114-5.216s-.175-3.764-.565-3.716c-.39.054-3.336-2.065-3.336-2.065l-4.232-2.1619-2.83-2.4934-3.944-.6283-3.984-1.6266-7.992-1.8312-6.156 3.4773-11.956 6.8471-.19 7.271 2.508 2.401 7.159-.72 6.848.72 11.751-.399 8.367.399 6.438-.258" fill="#fff"/><path d="M569.468 123.923c.38 0 .75-.156 1.023-.458l5.03-5.576c.507-.565.463-1.437-.102-1.943-.565-.511-1.432-.463-1.943.102l-5.026 5.577c-.511.564-.468 1.436.097 1.943.263.238.595.355.921.355zm-6.365 0c.375 0 .75-.156 1.022-.458l5.031-5.576c.507-.565.463-1.437-.102-1.943-.565-.511-1.432-.463-1.943.102l-5.031 5.577c-.507.564-.463 1.436.102 1.943.263.238.594.355.921.355zm-6.366 0c.375 0 .75-.156 1.023-.458l5.031-5.576c.506-.565.463-1.437-.102-1.943-.565-.511-1.432-.463-1.944.102l-5.03 5.577c-.507.564-.463 1.436.102 1.943.263.238.594.355.92.355zm-6.365 0c.375 0 .75-.156 1.023-.458l5.031-5.576c.506-.565.462-1.437-.103-1.943-.564-.511-1.436-.463-1.943.102l-5.031 5.577c-.506.564-.462 1.436.103 1.943.263.238.589.355.92.355zm28.359-14.644c.311 0 .623.102.876.311.809.668 1.832 1.033 2.884 1.033 2.503 0 4.538-2.036 4.538-4.539 0-2.498-2.035-4.534-4.538-4.534-.19 0-.39.01-.595.039-.599.073-1.173-.239-1.427-.784-1.129-2.4304-3.589-3.9985-6.263-3.9985-.613 0-1.227.0828-1.826.2435-.531.1461-1.096-.039-1.437-.4676-1.655-2.0697-4.12-3.2629-6.764-3.2629-2.523 0-4.914 1.1006-6.56 3.0194-.273.3166-.682.4919-1.101.4773-.087-.0049-.17-.0097-.258-.0097-2.678 0-5.138 1.5681-6.268 3.9985-.253.545-.828.857-1.427.784-.199-.029-.399-.039-.594-.039-2.498 0-4.534 2.036-4.534 4.534 0 2.503 2.036 4.539 4.534 4.539 1.052 0 2.075-.365 2.883-1.033.468-.384 1.125-.418 1.632-.087 1.12.735 2.425 1.12 3.774 1.12 1.101 0 2.153-.253 3.132-.75.375-.195.818-.205 1.198-.029 1.134.521 2.342.779 3.589.779 1.612 0 3.185-.448 4.549-1.291.467-.292 1.066-.272 1.514.039 1.169.823 2.538 1.252 3.964 1.252 1.345 0 2.65-.385 3.775-1.12.229-.151.492-.224.75-.224zm3.76 4.096c-1.359 0-2.689-.38-3.833-1.086-1.369.711-2.893 1.086-4.452 1.086-1.694 0-3.336-.439-4.792-1.272-1.612.833-3.404 1.272-5.235 1.272-1.427 0-2.815-.259-4.13-.775-1.198.516-2.474.775-3.789.775-1.563 0-3.083-.375-4.456-1.086-1.145.706-2.474 1.086-3.833 1.086-4.018 0-7.285-3.268-7.285-7.291 0-4.008 3.253-7.271 7.261-7.2857 1.675-2.8295 4.714-4.6412 8.026-4.7386 2.143-2.2256 5.099-3.4918 8.206-3.4918 3.195 0 6.19 1.3149 8.342 3.6379.556-.1022 1.121-.1509 1.685-.1509 3.419 0 6.585 1.836 8.314 4.7434 4.003.0147 7.261 3.2777 7.261 7.2857 0 4.023-3.273 7.291-7.29 7.291z" fill="#171717"/><path d="M56.4404 90.7044c0 4.5048 3.655 8.1623 8.1648 8.1623 4.5087 0 8.1642-3.6575 8.1642-8.1623 0-4.5097-3.6555-8.1672-8.1642-8.1672-4.5098 0-8.1648 3.6575-8.1648 8.1672" fill="#fff"/><path d="M454.225 211.322l5.268-5.269h-.087c-1.791 0-3.335-1.028-4.029-2.684-.687-1.641-.343-3.443.891-4.695l5.616-5.62h-.034c-1.467 0-2.782-.876-3.35-2.23-.572-1.364-.285-2.864.738-3.906l7.408-7.407c1.491-1.491 3.917-1.491 5.408 0l7.371 7.368.029.029c1.032 1.052 1.32 2.552.745 3.916-.565 1.354-1.885 2.23-3.35 2.23h-.034l5.58 5.582.03.034c1.241 1.256 1.587 3.058.901 4.699-.697 1.656-2.241 2.684-4.033 2.684h-.088l5.231 5.23.034.034c1.383 1.408 1.768 3.414 1.003 5.245-.774 1.846-2.498 2.995-4.5 2.995h-6.619c-.76 0-1.375-.613-1.375-1.373s.615-1.378 1.375-1.378h6.619c1.043 0 1.695-.677 1.963-1.31.331-.799.175-1.637-.424-2.25l-.044-.039-7.555-7.554c-.393-.394-.51-.988-.298-1.5.213-.516.715-.852 1.271-.852h3.407c.999 0 1.393-.765 1.495-.998.093-.224.351-1.023-.321-1.705l.979-.964-1.013.93-7.911-7.909c-.394-.394-.511-.989-.298-1.5.213-.516.714-.847 1.27-.847h3.355c.543 0 .76-.419.814-.551.066-.156.181-.56-.195-.94l-7.359-7.358c-.418-.419-1.1-.419-1.518 0l-7.382 7.383c-.353.355-.237.759-.172.915.054.132.271.551.813.551h3.356c.556 0 1.058.331 1.27.847.213.511.095 1.106-.298 1.5l-7.909 7.909-.034.034c-.675.682-.417 1.481-.321 1.705.098.233.496.998 1.492.998h3.408c.556 0 1.057.336 1.271.852.213.512.095 1.106-.299 1.5l-7.555 7.554-.041.044c-.6.608-.758 1.446-.424 2.245.265.633.919 1.31 1.958 1.31h11.116c.177 0 .345.039.5.097h.01c.76 0 1.376.619 1.376 1.378v8.776c0 .76-.616 1.374-1.376 1.374-.759 0-1.375-.614-1.375-1.374v-7.5h-10.251c-1.998 0-3.721-1.149-4.496-2.995-.765-1.831-.382-3.837.997-5.24z" fill="#171717"/><path d="M469.35 214.648c-.738 0-1.337-.599-1.337-1.334 0-.74.599-1.339 1.337-1.339.739 0 1.337.599 1.337 1.339 0 .735-.598 1.334-1.337 1.334zm29.136-9.331c-.735 0-1.334-.594-1.334-1.334 0-.74.599-1.339 1.334-1.339.741 0 1.34.599 1.34 1.339s-.599 1.334-1.34 1.334zm19.383-2.016c.556 0 1.057.336 1.271.852.21.512.093 1.106-.301 1.5l-4.135 4.135c.053-.526.083-1.062.083-1.597v-4.89h3.082" fill="#171717"/><path d="M528.55 190.308h3.355c.541 0 .76-.419.813-.551.064-.156.181-.56-.194-.94l-7.359-7.358c-.419-.419-1.101-.419-1.52 0l-7.383 7.383c-.35.355-.238.759-.17.915.053.132.268.551.813.551h3.356c.555 0 1.057.331 1.271.847.209.511.092 1.106-.302 1.5l-6.443 6.448v-3.891l2.152-2.158h-.034c-.784 0-1.514-.253-2.118-.691v-5.937l6.915-6.915c1.491-1.491 3.916-1.491 5.406 0l7.369 7.368.029.029c1.032 1.052 1.32 2.552.75 3.916-.57 1.354-1.885 2.23-3.351 2.23h-.034l5.576 5.582.034.034c1.237 1.256 1.583 3.058.896 4.699-.696 1.656-2.24 2.684-4.027 2.684h-.088l5.226 5.23.039.034c1.383 1.408 1.763 3.414.998 5.245-.774 1.846-2.498 2.995-4.495 2.995h-6.623c-.76 0-1.374-.613-1.374-1.373s.614-1.378 1.374-1.378h6.623c1.037 0 1.695-.677 1.958-1.31.336-.799.175-1.637-.424-2.25l-.039-.039-7.558-7.554c-.395-.394-.512-.988-.297-1.5.214-.516.716-.852 1.271-.852h3.409c.993 0 1.393-.765 1.49-.998.098-.224.356-1.023-.321-1.705l.979-.964-1.013.93-7.909-7.909c-.395-.394-.512-.989-.297-1.5.209-.516.715-.847 1.271-.847zm-15.77 26.498h11.114c.175 0 .346.039.501.097h.01c.76 0 1.374.619 1.374 1.379v8.775c0 .76-.614 1.374-1.374 1.374-.76 0-1.378-.614-1.378-1.374v-7.5H512.78c-.774 0-1.51-.175-2.162-.491.643-.716 1.222-1.491 1.724-2.304.141.029.282.044.438.044zm-28.621-8.581l-.005-.034v-2.435c.399-.478.73-1.023.984-1.627.935-2.23.555-4.67-.984-6.482V180.66c0-7.904 6.433-14.333 14.332-14.333 7.905 0 14.333 6.429 14.333 14.333v27.531c0 5.756-3.438 10.938-8.761 13.198-.701.297-1.51-.025-1.807-.726-.297-.701.029-1.51.731-1.807 4.305-1.826 7.086-6.014 7.086-10.665V180.66c0-6.385-5.197-11.581-11.582-11.581-6.384 0-11.581 5.196-11.581 11.581v27.531c0 5.922 4.466 10.811 10.208 11.498v-10.183c0-.76.614-1.374 1.373-1.374.76 0 1.379.614 1.379 1.374v17.551c0 .755-.619 1.374-1.379 1.374-.759 0-1.373-.619-1.373-1.374v-4.602c-3.94-.375-7.417-2.357-9.774-5.274.998-2.537.448-5.294-1.466-7.242l-1.714-1.714zm-345.89-41.571c1.337 0 2.42 1.081 2.42 2.415 0 1.339-1.083 2.421-2.42 2.421-1.336 0-2.419-1.082-2.419-2.421 0-1.334 1.083-2.415 2.419-2.415zm-7.014 0c1.337 0 2.42 1.081 2.42 2.415 0 1.339-1.083 2.421-2.42 2.421-1.335 0-2.419-1.082-2.419-2.421 0-1.334 1.084-2.415 2.419-2.415zm-7.013 0c1.336 0 2.419 1.081 2.419 2.415 0 1.339-1.083 2.421-2.419 2.421s-2.42-1.082-2.42-2.421c0-1.334 1.084-2.415 2.42-2.415zm-7.014 4.836c-1.337 0-2.419-1.082-2.419-2.421 0-1.334 1.082-2.415 2.419-2.415 1.336 0 2.42 1.081 2.42 2.415 0 1.339-1.084 2.421-2.42 2.421zm21.041 2.99c1.337 0 2.42 1.086 2.42 2.42 0 1.335-1.083 2.421-2.42 2.421-1.336 0-2.419-1.086-2.419-2.421 0-1.334 1.083-2.42 2.419-2.42zm-7.014 0c1.337 0 2.42 1.086 2.42 2.42 0 1.335-1.083 2.421-2.42 2.421-1.335 0-2.419-1.086-2.419-2.421 0-1.334 1.084-2.42 2.419-2.42zm-7.013 0c1.336 0 2.419 1.086 2.419 2.42 0 1.335-1.083 2.421-2.419 2.421s-2.42-1.086-2.42-2.421c0-1.334 1.084-2.42 2.42-2.42zm-7.014 0c1.336 0 2.42 1.086 2.42 2.42 0 1.335-1.084 2.421-2.42 2.421-1.337 0-2.419-1.086-2.419-2.421 0-1.334 1.082-2.42 2.419-2.42zm21.041 7.831c1.337 0 2.42 1.081 2.42 2.42 0 1.335-1.083 2.421-2.42 2.421-1.336 0-2.419-1.086-2.419-2.421 0-1.339 1.083-2.42 2.419-2.42zm-7.014 0c1.337 0 2.42 1.081 2.42 2.42 0 1.335-1.083 2.421-2.42 2.421-1.335 0-2.419-1.086-2.419-2.421 0-1.339 1.084-2.42 2.419-2.42zm-7.013 0c1.336 0 2.419 1.081 2.419 2.42 0 1.335-1.083 2.421-2.419 2.421s-2.42-1.086-2.42-2.421c0-1.339 1.084-2.42 2.42-2.42zm-7.014 0c1.336 0 2.42 1.081 2.42 2.42 0 1.335-1.084 2.421-2.42 2.421-1.337 0-2.419-1.086-2.419-2.421 0-1.339 1.082-2.42 2.419-2.42zm21.041 7.831c1.337 0 2.42 1.081 2.42 2.421 0 1.334-1.083 2.415-2.42 2.415-1.336 0-2.419-1.081-2.419-2.415 0-1.34 1.083-2.421 2.419-2.421zm-7.014 0c1.337 0 2.42 1.081 2.42 2.421 0 1.334-1.083 2.415-2.42 2.415-1.335 0-2.419-1.081-2.419-2.415 0-1.34 1.084-2.421 2.419-2.421zm-7.013 0c1.336 0 2.419 1.081 2.419 2.421 0 1.334-1.083 2.415-2.419 2.415s-2.42-1.081-2.42-2.415c0-1.34 1.084-2.421 2.42-2.421zm-7.014 0c1.336 0 2.42 1.081 2.42 2.421 0 1.334-1.084 2.415-2.42 2.415-1.337 0-2.419-1.081-2.419-2.415 0-1.34 1.082-2.421 2.419-2.421zm21.041 7.831c1.337 0 2.42 1.081 2.42 2.416 0 1.339-1.083 2.42-2.42 2.42-1.336 0-2.419-1.081-2.419-2.42 0-1.335 1.083-2.416 2.419-2.416zm-7.014 0c1.337 0 2.42 1.081 2.42 2.416 0 1.339-1.083 2.42-2.42 2.42-1.335 0-2.419-1.081-2.419-2.42 0-1.335 1.084-2.416 2.419-2.416zm-7.013 0c1.336 0 2.419 1.081 2.419 2.416 0 1.339-1.083 2.42-2.419 2.42s-2.42-1.081-2.42-2.42c0-1.335 1.084-2.416 2.42-2.416zm-7.014 0c1.336 0 2.42 1.081 2.42 2.416 0 1.339-1.084 2.42-2.42 2.42-1.337 0-2.419-1.081-2.419-2.42 0-1.335 1.082-2.416 2.419-2.416zm21.041 7.826c1.337 0 2.42 1.086 2.42 2.421 0 1.334-1.083 2.42-2.42 2.42-1.336 0-2.419-1.086-2.419-2.42 0-1.335 1.083-2.421 2.419-2.421zm-7.014 0c1.337 0 2.42 1.086 2.42 2.421 0 1.334-1.083 2.42-2.42 2.42-1.335 0-2.419-1.086-2.419-2.42 0-1.335 1.084-2.421 2.419-2.421zm-7.013 0c1.336 0 2.419 1.086 2.419 2.421 0 1.334-1.083 2.42-2.419 2.42s-2.42-1.086-2.42-2.42c0-1.335 1.084-2.421 2.42-2.421zm-7.014 0c1.336 0 2.42 1.086 2.42 2.421 0 1.334-1.084 2.42-2.42 2.42-1.337 0-2.419-1.086-2.419-2.42 0-1.335 1.082-2.421 2.419-2.421zm21.041 7.832c1.337 0 2.42 1.081 2.42 2.42 0 1.334-1.083 2.42-2.42 2.42-1.336 0-2.419-1.086-2.419-2.42 0-1.339 1.083-2.42 2.419-2.42zm-7.014 0c1.337 0 2.42 1.081 2.42 2.42 0 1.334-1.083 2.42-2.42 2.42-1.335 0-2.419-1.086-2.419-2.42 0-1.339 1.084-2.42 2.419-2.42zm-7.013 0c1.336 0 2.419 1.081 2.419 2.42 0 1.334-1.083 2.42-2.419 2.42s-2.42-1.086-2.42-2.42c0-1.339 1.084-2.42 2.42-2.42zm-7.014 0c1.336 0 2.42 1.081 2.42 2.42 0 1.334-1.084 2.42-2.42 2.42-1.337 0-2.419-1.086-2.419-2.42 0-1.339 1.082-2.42 2.419-2.42z" fill="#171717"/><path d="M153.464 185.778h5.685v-24.413h-5.685v24.413zm25.54 0h5.685v-24.413h-5.685v24.413zm0 18.682h5.685v-11.269h-5.685v11.269zm0-50.362h5.685v-24.413h-5.685v24.413zm-25.572 0h5.685v-24.413h-5.685v24.413zm.032 50.362h5.685v-11.269h-5.685v11.269zm12.77-61.777h5.685v-24.414h-5.685v24.414zm0 32.298h5.685v-24.413h-5.685v24.413zm0 30.336h5.685v-22.451h-5.685v22.451z" fill="#fff"/><path d="M153.432 219.855c.727 0 1.317-.59 1.317-1.315v-23.805h3.052v23.805c0 .725.589 1.315 1.316 1.315.728 0 1.316-.59 1.316-1.315v-25.125c0-.726-.588-1.315-1.316-1.315h-5.685c-.727 0-1.316.589-1.316 1.315v25.125c0 .725.589 1.315 1.316 1.315zm12.786-11.562c.728 0 1.316-.589 1.316-1.315v-23.81h3.053v23.81c0 .726.589 1.315 1.316 1.315.728 0 1.316-.589 1.316-1.315v-25.125c0-.73-.588-1.32-1.316-1.32h-5.685c-.727 0-1.316.59-1.316 1.32v25.125c0 .726.589 1.315 1.316 1.315zm12.786 11.562c.728 0 1.316-.59 1.316-1.315v-23.805h3.053v23.805c0 .725.589 1.315 1.316 1.315.728 0 1.316-.59 1.316-1.315v-25.125c0-.726-.588-1.315-1.316-1.315h-5.685c-.727 0-1.316.589-1.316 1.315v25.125c0 .725.589 1.315 1.316 1.315zm-25.572-32.051c.727 0 1.317-.589 1.317-1.314v-23.81h3.052v23.81c0 .725.589 1.314 1.316 1.314.728 0 1.316-.589 1.316-1.314v-25.125c0-.726-.588-1.315-1.316-1.315h-5.685c-.727 0-1.316.589-1.316 1.315v25.125c0 .725.589 1.314 1.316 1.314zm12.786-11.561c.728 0 1.316-.589 1.316-1.32v-23.805h3.053v23.805c0 .731.589 1.32 1.316 1.32.728 0 1.316-.589 1.316-1.32v-25.12c0-.73-.588-1.32-1.316-1.32h-5.685c-.727 0-1.316.59-1.316 1.32v25.12c0 .731.589 1.32 1.316 1.32zm12.786 11.561c.728 0 1.316-.589 1.316-1.314v-23.81h3.053v23.81c0 .725.589 1.314 1.316 1.314.728 0 1.316-.589 1.316-1.314v-25.125c0-.726-.588-1.315-1.316-1.315h-5.685c-.727 0-1.316.589-1.316 1.315v25.125c0 .725.589 1.314 1.316 1.314zm-25.572-32.05c.727 0 1.317-.589 1.317-1.315v-23.81h3.052v23.81c0 .726.589 1.315 1.316 1.315.728 0 1.316-.589 1.316-1.315v-25.124c0-.726-.588-1.315-1.316-1.315h-5.685c-.727 0-1.316.589-1.316 1.315v25.124c0 .726.589 1.315 1.316 1.315zm12.786-11.561c.728 0 1.316-.59 1.316-1.32v-23.479h3.053v23.479c0 .73.589 1.32 1.316 1.32.728 0 1.316-.59 1.316-1.32v-24.794c0-.725-.588-1.32-1.316-1.32h-5.685c-.727 0-1.316.595-1.316 1.32v24.794c0 .73.589 1.32 1.316 1.32zm12.786 11.561c.728 0 1.316-.589 1.316-1.315v-23.81h3.053v23.81c0 .726.589 1.315 1.316 1.315.728 0 1.316-.589 1.316-1.315v-25.124c0-.726-.588-1.315-1.316-1.315h-5.685c-.727 0-1.316.589-1.316 1.315v25.124c0 .726.589 1.315 1.316 1.315" fill="#171717"/><path d="M116.202 155.335h24.487v-6.574h-24.487v6.574" fill="#fff"/><path d="M117.518 154.016h21.854v-3.935h-21.854v3.935zm23.137 2.634h-24.42c-.746 0-1.35-.603-1.35-1.349v-6.506c0-.745.604-1.349 1.35-1.349h24.42c.746 0 1.35.604 1.35 1.349v6.506c0 .746-.604 1.349-1.35 1.349" fill="#171717"/><path d="M144.671 118.659h48.72l-2.219-9.823h-44.28l-2.221 9.823z" fill="#fff"/><path d="M146.319 117.339h45.425l-1.625-7.188h-42.175l-1.625 7.188zm47.073 2.635h-48.721c-.399 0-.778-.181-1.028-.492-.25-.317-.344-.726-.256-1.116l2.221-9.818c.135-.604.669-1.027 1.284-1.027h44.28c.615 0 1.148.423 1.284 1.027l2.22 9.818c.088.39-.006.799-.256 1.116-.25.311-.628.492-1.028.492zm362.615 27.462c0 .906.731 1.636 1.636 1.636.901 0 1.637-.73 1.637-1.636 0-.901-.736-1.636-1.637-1.636-.905 0-1.636.735-1.636 1.636zm-6.097 0c0 .906.735 1.636 1.636 1.636.906 0 1.636-.73 1.636-1.636 0-.901-.73-1.636-1.636-1.636-.901 0-1.636.735-1.636 1.636zm-6.093 0c0 .906.731 1.636 1.637 1.636.901 0 1.636-.73 1.636-1.636 0-.901-.735-1.636-1.636-1.636-.906 0-1.637.735-1.637 1.636zm-6.097 0c0 .906.73 1.636 1.636 1.636.906 0 1.637-.73 1.637-1.636 0-.901-.731-1.636-1.637-1.636s-1.636.735-1.636 1.636zm-6.097 0c0 .906.735 1.636 1.636 1.636.906 0 1.641-.73 1.641-1.636 0-.901-.735-1.636-1.641-1.636-.901 0-1.636.735-1.636 1.636zm-6.093 0c0 .906.731 1.636 1.636 1.636.906 0 1.637-.73 1.637-1.636 0-.901-.731-1.636-1.637-1.636-.905 0-1.636.735-1.636 1.636zm-6.097 0c0 .906.735 1.636 1.636 1.636.906 0 1.636-.73 1.636-1.636 0-.901-.73-1.636-1.636-1.636-.901 0-1.636.735-1.636 1.636zm-6.093 0c0 .906.731 1.636 1.637 1.636.901 0 1.636-.73 1.636-1.636 0-.901-.735-1.636-1.636-1.636-.906 0-1.637.735-1.637 1.636zm-6.097 0c0 .906.735 1.636 1.636 1.636.906 0 1.637-.73 1.637-1.636 0-.901-.731-1.636-1.637-1.636-.901 0-1.636.735-1.636 1.636zm-41.028-33.686c0 .901.733 1.636 1.637 1.636s1.637-.735 1.637-1.636c0-.906-.733-1.642-1.637-1.642s-1.637.736-1.637 1.642zm-6.095 0c0 .901.733 1.636 1.637 1.636s1.636-.735 1.636-1.636c0-.906-.732-1.642-1.636-1.642-.904 0-1.637.736-1.637 1.642zm-6.095 0c0 .901.733 1.636 1.637 1.636s1.636-.735 1.636-1.636c0-.906-.732-1.642-1.636-1.642-.904 0-1.637.736-1.637 1.642zm-6.095 0c0 .901.733 1.636 1.637 1.636s1.636-.735 1.636-1.636c0-.906-.732-1.642-1.636-1.642-.904 0-1.637.736-1.637 1.642zm-6.095 0c0 .901.732 1.636 1.636 1.636.904 0 1.637-.735 1.637-1.636 0-.906-.733-1.642-1.637-1.642s-1.636.736-1.636 1.642zm-6.095 0c0 .901.732 1.636 1.636 1.636.904 0 1.637-.735 1.637-1.636 0-.906-.733-1.642-1.637-1.642s-1.636.736-1.636 1.642zm-6.095 0c0 .901.732 1.636 1.636 1.636.904 0 1.637-.735 1.637-1.636 0-.906-.733-1.642-1.637-1.642s-1.636.736-1.636 1.642zm-6.096 0c0 .901.733 1.636 1.637 1.636s1.637-.735 1.637-1.636c0-.906-.733-1.642-1.637-1.642s-1.637.736-1.637 1.642zm-6.095 0c0 .901.733 1.636 1.637 1.636s1.636-.735 1.636-1.636c0-.906-.732-1.642-1.636-1.642-.904 0-1.637.736-1.637 1.642zm-309.976 22.266h23.777c.728 0 1.317-.59 1.317-1.32 0-.726-.589-1.315-1.317-1.315h-23.777c-.727 0-1.316.589-1.316 1.315 0 .73.589 1.32 1.316 1.32zm309.431-42.6965h23.777c.727 0 1.316-.5844 1.316-1.3149 0-.7256-.589-1.3149-1.316-1.3149h-23.777c-.728 0-1.317.5893-1.317 1.3149 0 .7305.589 1.3149 1.317 1.3149zM28.6808 155.754h30.3271c.7271 0 1.3163-.589 1.3163-1.315 0-.725-.5892-1.315-1.3163-1.315H28.6808c-.7272 0-1.3164.59-1.3164 1.315 0 .726.5892 1.315 1.3164 1.315zm469.9862-39.102h30.326c.73 0 1.319-.589 1.319-1.32 0-.725-.589-1.315-1.319-1.315h-30.326c-.726 0-1.315.59-1.315 1.315 0 .731.589 1.32 1.315 1.32zM101.592 93.2611h31.489c.727 0 1.317-.5893 1.317-1.3149 0-.7257-.59-1.315-1.317-1.315h-31.489c-.727 0-1.316.5893-1.316 1.315 0 .7256.589 1.3149 1.316 1.3149zm221.179 2.9318h31.489c.727 0 1.316-.5893 1.316-1.3198 0-.7257-.589-1.3149-1.316-1.3149h-31.489c-.727 0-1.317.5892-1.317 1.3149 0 .7305.59 1.3198 1.317 1.3198zM16.1881 99.6604h19.987c.7273 0 1.3164-.5893 1.3164-1.3198 0-.7256-.5891-1.3149-1.3164-1.3149h-19.987c-.7273 0-1.3165.5893-1.3165 1.3149 0 .7305.5892 1.3198 1.3165 1.3198z" fill="#171717"/><path d="M146.892 123.792h44.28v-4.729h-44.28v4.729z" fill="#fff"/><path d="M148.208 122.477h41.647v-2.099h-41.647v2.099zm42.93 2.635h-44.213c-.745 0-1.35-.604-1.35-1.354v-4.661c0-.745.605-1.354 1.35-1.354h44.213c.746 0 1.35.609 1.35 1.354v4.661c0 .75-.604 1.354-1.35 1.354z" fill="#171717"/><path d="M106.783 161.589h39.612v-6.277h-39.612v6.277z" fill="#fff"/><path d="M108.1 160.269h36.978v-3.643H108.1v3.643zm38.262 2.635h-39.546c-.745 0-1.35-.604-1.35-1.349v-6.21c0-.75.605-1.354 1.35-1.354h39.546c.745 0 1.35.604 1.35 1.354v6.21c0 .745-.605 1.349-1.35 1.349" fill="#171717"/><path d="M533.049 220.624h26.698v-10.553h-26.698v10.553zm39.01 6h4.841v-6h-4.841v6z" fill="#fff"/><path d="M530.527 222.275h32.03c.76 0 1.374-.618 1.374-1.378 0-.76-.614-1.373-1.374-1.373h-32.03c-.76 0-1.379.613-1.379 1.373s.619 1.378 1.379 1.378zm2.893-5.264h26.244c.76 0 1.374-.619 1.374-1.379 0-.759-.614-1.373-1.374-1.373H533.42c-.76 0-1.374.614-1.374 1.373 0 .76.614 1.379 1.374 1.379zm0-5.046h26.244c.76 0 1.374-.614 1.374-1.373 0-.76-.614-1.378-1.374-1.378H533.42c-.76 0-1.374.618-1.374 1.378 0 .759.614 1.373 1.374 1.373" fill="#171717"/><path d="M556.231 228.489h2.863c.76 0 1.374-.613 1.374-1.373s-.614-1.378-1.374-1.378h-1.485v-3.984c0-.76-.618-1.378-1.378-1.378-.76 0-1.374.618-1.374 1.378v5.362c0 .76.614 1.373 1.374 1.373zm-23.045 0h2.362c.759 0 1.378-.613 1.378-1.373v-5.362c0-.76-.619-1.378-1.378-1.378-.76 0-1.374.618-1.374 1.378v3.984h-.988c-.76 0-1.374.618-1.374 1.378 0 .76.614 1.373 1.374 1.373zm40.046-2.975h1.846l.648-3.517h-3.21l.716 3.517zm2.991 2.751h-4.111c-.652 0-1.217-.458-1.349-1.1l-1.276-6.268c-.083-.404.02-.823.283-1.145.258-.316.652-.501 1.061-.501h6.546c.409 0 .794.18 1.057.492.263.316.37.73.297 1.129l-1.154 6.268c-.122.653-.692 1.125-1.354 1.125zm-13.666-17.673c0 .735.599 1.334 1.339 1.334.736 0 1.335-.599 1.335-1.334 0-.741-.599-1.34-1.335-1.34-.74 0-1.339.599-1.339 1.34zm-34.792 4.875c0 .735.599 1.334 1.339 1.334.736 0 1.335-.599 1.335-1.334 0-.741-.599-1.34-1.335-1.34-.74 0-1.339.599-1.339 1.34z" fill="#171717"/><path d="M371.426 225.85h71.683v-28.854h-71.683v28.854z" fill="#fff"/><path d="M372.743 224.535h69.049v-26.221h-69.049v26.221zm70.332 2.634h-71.616c-.745 0-1.349-.603-1.349-1.349v-28.787c0-.745.604-1.354 1.349-1.354h71.616c.746 0 1.35.609 1.35 1.354v28.787c0 .746-.604 1.349-1.35 1.349z" fill="#171717"/><path d="M378.169 215.501h10.102V205.4h-10.102v10.101zm16.845.224h8.362v-10.408h-8.362v10.408zm16.587-1.077h8.384V205.4h-8.384v9.248zm15.006 0h9.25V205.4h-9.25v9.248z" fill="#fff"/><path d="M426.759 215.725h9.098V205.4h-9.098v10.325z" fill="#fff"/><path d="M428.075 214.405h6.466v-7.69h-6.466v7.69zm7.749 2.635h-9.032c-.746 0-1.35-.604-1.35-1.349v-10.257c0-.745.604-1.349 1.35-1.349h9.032c.746 0 1.35.604 1.35 1.349v10.257c0 .745-.604 1.349-1.35 1.349" fill="#171717"/><path d="M410.886 215.725h9.099V205.4h-9.099v10.325z" fill="#fff"/><path d="M412.203 214.405h6.466v-7.69h-6.466v7.69zm7.749 2.635h-9.032c-.746 0-1.35-.604-1.35-1.349v-10.257c0-.745.604-1.349 1.35-1.349h9.032c.746 0 1.35.604 1.35 1.349v10.257c0 .745-.605 1.349-1.35 1.349zm-23.621-2.635h6.465v-7.69h-6.465v7.69zm7.782 2.635h-9.099c-.727 0-1.317-.59-1.317-1.315V205.4c0-.726.59-1.315 1.317-1.315h9.099c.727 0 1.316.589 1.316 1.315v10.325c0 .725-.589 1.315-1.316 1.315zm-23.655-2.635h6.466v-7.69h-6.466v7.69zm7.782 2.635h-9.098c-.728 0-1.317-.59-1.317-1.315V205.4c0-.726.589-1.315 1.317-1.315h9.098c.728 0 1.317.589 1.317 1.315v10.325c0 .725-.589 1.315-1.317 1.315" fill="#171717"/><path d="M371.426 196.999h71.683v-28.853h-71.683v28.853z" fill="#fff"/><path d="M372.743 195.679h69.049v-26.215h-69.049v26.215zm70.332 2.635h-71.616c-.745 0-1.349-.604-1.349-1.349v-28.787c0-.745.604-1.349 1.349-1.349h71.616c.746 0 1.35.604 1.35 1.349v28.787c0 .745-.604 1.349-1.35 1.349z" fill="#171717"/><path d="M371.426 196.999h71.683v-3.805h-71.683v3.805z" fill="#fff"/><path d="M372.743 195.679h69.049v-1.168h-69.049v1.168zm70.332 2.635h-71.616c-.745 0-1.349-.604-1.349-1.349v-3.74c0-.745.604-1.349 1.349-1.349h71.616c.746 0 1.35.604 1.35 1.349v3.74c0 .745-.604 1.349-1.35 1.349z" fill="#171717"/><path d="M393.013 154.469h28.27v-5.708h-28.27v5.708z" fill="#fff"/><path d="M394.126 154.016h26.283v-3.935h-26.283v3.935zm27.6 2.634H392.81c-.728 0-1.317-.589-1.317-1.315v-6.574c0-.726.589-1.315 1.317-1.315h28.916c.727 0 1.316.589 1.316 1.315v6.574c0 .726-.589 1.315-1.316 1.315z" fill="#171717"/><path d="M426.759 186.869h9.098v-10.324h-9.098v10.324zm-15.158-.448h8.384v-9.082h-8.384v9.082zm-16.587.448h8.362V176.9h-8.362v9.969zm-15.842-.448h8.307v-9.876h-8.307v9.876zm-9.966-18.277h76.123l-2.22-12.809h-71.683l-2.22 12.809" fill="#fff"/><path d="M370.77 166.829h72.994l-1.763-10.179h-69.467l-1.764 10.179zm74.559 2.635h-76.123c-.388 0-.758-.176-1.007-.473-.25-.297-.357-.686-.291-1.071l2.221-12.813c.109-.629.656-1.091 1.297-1.091h71.683c.64 0 1.187.462 1.297 1.091l2.22 12.813c.067.385-.04.774-.289 1.071-.251.297-.62.473-1.008.473zm-17.254 16.091h6.466v-7.69h-6.466v7.69zm7.782 2.629h-9.099c-.727 0-1.316-.589-1.316-1.315v-10.324c0-.726.589-1.315 1.316-1.315h9.099c.728 0 1.317.589 1.317 1.315v10.324c0 .726-.589 1.315-1.317 1.315zm-23.655-2.629h6.466v-7.69h-6.466v7.69zm7.783 2.629h-9.099c-.727 0-1.316-.589-1.316-1.315v-10.324c0-.726.589-1.315 1.316-1.315h9.099c.727 0 1.317.589 1.317 1.315v10.324c0 .726-.59 1.315-1.317 1.315zm-23.655-2.629h6.466v-7.69h-6.466v7.69zm7.783 2.629h-9.099c-.728 0-1.317-.589-1.317-1.315v-10.324c0-.726.589-1.315 1.317-1.315h9.099c.727 0 1.316.589 1.316 1.315v10.324c0 .726-.589 1.315-1.316 1.315z" fill="#171717"/><path d="M379.142 186.869h9.098v-10.324h-9.098v10.324z" fill="#fff"/><path d="M380.458 185.554h6.466v-7.689h-6.466v7.689zm7.749 2.63h-9.032c-.745 0-1.35-.604-1.35-1.349v-10.256c0-.745.605-1.349 1.35-1.349h9.032c.746 0 1.35.604 1.35 1.349v10.256c0 .745-.604 1.349-1.35 1.349z" fill="#171717"/><path d="M206.781 109.113h64.561v-7.112h-64.561v7.112z" fill="#fff"/><path d="M208.097 109.06h61.928v-5.742h-61.928v5.742zm63.245 2.634H206.78c-.727 0-1.316-.589-1.316-1.319v-8.372c0-.726.589-1.315 1.316-1.315h64.562c.727 0 1.316.589 1.316 1.315v8.372c0 .73-.589 1.319-1.316 1.319" fill="#171717"/><path d="M142.086 225.704h53.891v-20.598h-53.891v20.598z" fill="#fff"/><path d="M143.403 224.389h51.257v-17.966h-51.257v17.966zm52.54 2.634H142.12c-.746 0-1.35-.603-1.35-1.353v-20.528c0-.745.604-1.354 1.35-1.354h53.823c.746 0 1.35.609 1.35 1.354v20.528c0 .75-.604 1.353-1.35 1.353" fill="#171717"/><path d="M169.032 225.762h15.599v-10.261h-15.599v10.261" fill="#fff"/><path d="M170.348 224.442h12.967v-7.626h-12.967v7.626zm14.25 2.635h-15.533c-.746 0-1.35-.604-1.35-1.349v-10.193c0-.745.604-1.349 1.35-1.349h15.533c.746 0 1.35.604 1.35 1.349v10.193c0 .745-.604 1.349-1.35 1.349" fill="#171717"/><path d="M153.461 225.762h15.6v-10.261h-15.6v10.261" fill="#fff"/><path d="M154.777 224.442h12.967v-7.626h-12.967v7.626zm14.25 2.635h-15.533c-.746 0-1.35-.604-1.35-1.349v-10.193c0-.745.604-1.349 1.35-1.349h15.533c.746 0 1.35.604 1.35 1.349v10.193c0 .745-.604 1.349-1.35 1.349z" fill="#171717"/><path d="M314.378 225.704h56.008v-20.598h-56.008v20.598z" fill="#fff"/><path d="M315.695 224.389h53.374v-17.966h-53.374v17.966zm54.657 2.634h-55.94c-.746 0-1.35-.603-1.35-1.353v-20.528c0-.745.604-1.354 1.35-1.354h55.94c.746 0 1.35.609 1.35 1.354v20.528c0 .75-.604 1.353-1.35 1.353" fill="#171717"/><path d="M342.382 225.762h16.212v-10.261h-16.212v10.261" fill="#fff"/><path d="M343.699 224.442h13.579v-7.626h-13.579v7.626zm14.862 2.635h-16.146c-.745 0-1.35-.604-1.35-1.349v-10.193c0-.745.605-1.349 1.35-1.349h16.146c.745 0 1.35.604 1.35 1.349v10.193c0 .745-.605 1.349-1.35 1.349" fill="#171717"/><path d="M326.2 225.762h16.213v-10.261H326.2v10.261" fill="#fff"/><path d="M327.517 224.442h13.579v-7.626h-13.579v7.626zm14.862 2.635h-16.146c-.745 0-1.35-.604-1.35-1.349v-10.193c0-.745.605-1.349 1.35-1.349h16.146c.746 0 1.35.604 1.35 1.349v10.193c0 .745-.604 1.349-1.35 1.349zm334.037-6.01c0 .814-.658 1.471-1.466 1.471-.814 0-1.471-.657-1.471-1.471 0-.808.657-1.466 1.471-1.466.808 0 1.466.658 1.466 1.466zm-10.057 3.921c-.74 0-1.344-.604-1.344-1.344v-4.914c0-1.047-.405-2.026-1.145-2.767l-1.086-1.086c-1.305-1.3-1.305-3.423 0-4.724l1.047-1.047c1.301-1.305 3.424-1.305 4.724 0l1.008 1.008c.741.741 1.724 1.145 2.767 1.145h1.149c.745 0 1.344.604 1.344 1.344 0 .745-.599 1.349-1.344 1.349h-1.149c-1.763 0-3.419-.687-4.666-1.933l-1.008-1.013c-.166-.166-.36-.19-.463-.19-.102 0-.297.024-.462.19l-1.047 1.047c-.254.253-.254.667 0 .925l1.086 1.086c1.246 1.247 1.933 2.903 1.933 4.666v4.914c0 .74-.599 1.344-1.344 1.344zm7.008-19.218c0 1.422-1.154 2.577-2.576 2.577-1.427 0-2.582-1.155-2.582-2.577s1.155-2.576 2.582-2.576c1.422 0 2.576 1.154 2.576 2.576" fill="#171717"/><path d="M657.368 217.488c-1.972 0-3.579 1.607-3.579 3.579 0 1.977 1.607 3.585 3.579 3.585 1.973 0 3.58-1.608 3.58-3.585 0-1.972-1.607-3.579-3.58-3.579zm0 9.852c-3.457 0-6.267-2.815-6.267-6.273 0-3.453 2.81-6.268 6.267-6.268 3.458 0 6.268 2.815 6.268 6.268 0 3.458-2.81 6.273-6.268 6.273zm17.723-9.852c-1.973 0-3.58 1.607-3.58 3.579 0 1.977 1.607 3.585 3.58 3.585 1.972 0 3.579-1.608 3.579-3.585 0-1.972-1.607-3.579-3.579-3.579zm0 9.852c-3.458 0-6.268-2.815-6.268-6.273 0-3.453 2.81-6.268 6.268-6.268 3.457 0 6.268 2.815 6.268 6.268 0 3.458-2.811 6.273-6.268 6.273z" fill="#171717"/><path d="M302.573 114.802l-7.895 10.246h126.917l-6.195-10.246H302.573z" fill="#fff"/><path d="M297.874 123.475h120.933l-4.294-7.1H303.346l-5.472 7.1zm123.721 3.141H294.678c-.599 0-1.146-.336-1.411-.876-.264-.536-.2-1.179.166-1.651l7.894-10.247c.298-.385.758-.609 1.246-.609h112.826c.551 0 1.061.288 1.346.755l6.196 10.247c.293.482.303 1.091.024 1.583-.279.496-.803.798-1.37.798zm214.934 12.541c-.087 2.976-1.281 5.941-3.55 8.815-2.854 3.618-5.601 5.586-7.023 6.448-.438-.137-.881-.253-1.324-.361 3.043-3.823 7.948-11.386 7.373-19.855-.224-3.297-1.096-5.781-2.216-7.646.472.244.959.526 1.451.857 3.663 2.494 5.445 6.443 5.289 11.742zm-23.308 15.248c-4.865-3.384-10.437-8.678-10.632-15.248-.219-7.519 3.59-11.016 6.76-12.623-1.13 1.87-2.011 4.358-2.235 7.67-.57 8.474 4.339 16.042 7.373 19.855-.424.103-.847.215-1.266.346zm4.334-.862c-2.542-2.932-8.332-10.626-7.758-19.159.57-8.44 5.922-10.553 8.484-11.084v30.19c-.244.014-.482.034-.726.053zm3.414-.044v-30.17c2.611.575 7.792 2.761 8.352 11.055.58 8.528-5.201 16.208-7.758 19.159-.194-.019-.394-.034-.594-.044zm11.781-28.309c-3.302-2.246-6.653-2.635-6.794-2.65h-.014c-2.786-1.831-5.518-2.07-6.268-2.099l-.049-.005h-.131l-.049.005c-.745.029-3.482.268-6.268 2.099h-.015c-.141.015-3.487.404-6.793 2.65-3.078 2.094-6.697 6.228-6.468 14.05.185 6.292 4.461 12.433 12.356 17.761.224.151.487.229.754.229.147 0 .293-.024.434-.073 2.05-.701 4.179-1.047 6.346-1.018 2.001.024 3.983.365 5.883 1.018.36.126.755.092 1.091-.093 1.324-.74 4.787-2.941 8.328-7.427 2.629-3.336 4.017-6.832 4.125-10.397.228-7.822-3.39-11.956-6.468-14.05zm-11.07 38.702c0 .755-.613 1.369-1.363 1.369h-1.486c-.75 0-1.363-.614-1.363-1.369v-3.199c.725-.186 1.461-.273 2.216-.259.676.005 1.344.093 1.996.259v3.199zm1.807-5.454c-1.208-.443-2.479-.677-3.769-.692-1.383-.019-2.752.214-4.057.692-.531.194-.882.701-.882 1.266v4.188c0 2.236 1.817 4.057 4.052 4.057h1.486c2.235 0 4.052-1.821 4.052-4.057v-4.188c0-.565-.351-1.072-.882-1.266zm-30.234 24.891c-.808 0-1.465.657-1.465 1.466 0 .813.657 1.466 1.465 1.466.809 0 1.466-.653 1.466-1.466 0-.809-.657-1.466-1.466-1.466zm35.396 8.615c2.684-1.091 5.304-1.505 7.788-1.227.74.083 1.402-.448 1.485-1.189.083-.735-.448-1.402-1.188-1.485-2.932-.326-5.99.146-9.098 1.407-.686.278-1.017 1.062-.74 1.754.214.521.716.837 1.247.837.17 0 .341-.029.506-.097zm-25.49.097c-.165 0-.336-.029-.501-.097-2.689-1.091-5.309-1.505-7.793-1.227-.73.083-1.402-.448-1.485-1.189-.078-.735.453-1.402 1.188-1.485 2.932-.326 5.996.146 9.098 1.407.686.278 1.018 1.062.74 1.754-.209.521-.716.837-1.247.837z" fill="#171717"/><path d="M241.695 224.389h-1.289v-26.367h1.289v26.367zm-3.922 0h-2.411v-24.906l2.411-8.508v33.414zm2.633-39.01v-.648h.112l-.112.648" fill="#B6B8B5"/><path d="M241.743 226.176h-6.381v-1.787h2.411v.326c0 .726.589 1.315 1.317 1.315.727 0 1.316-.589 1.316-1.315v-.326h1.289v1.431c0 .122.016.244.048.356" fill="#121212"/><path d="M239.09 226.03c-.728 0-1.317-.589-1.317-1.315v-33.74l1.77-6.244h.863v.648l-1.923 11.104c-.067.38.039.774.289 1.071.251.297.619.468 1.007.468h.627v26.693c0 .726-.589 1.315-1.316 1.315zm3.921.146h-1.268c-.032-.112-.048-.234-.048-.356v-27.798h1.316v28.154z" fill="#121212"/><path d="M243.011 195.387h-1.667l1.667-9.623v9.623" fill="#B6B8B5"/><path d="M243.011 198.022h-3.231c-.389 0-.757-.171-1.008-.468-.25-.297-.356-.691-.289-1.071l1.923-11.104.112-.648h2.493v1.033l-1.667 9.623h1.667v2.635z" fill="#121212"/><path d="M370.11 203.788h-3.997v-.667h3.997v.667zm0-9.258h-3.997v-7.125h3.997v7.125zm0-9.092h-3.997v-12.565h3.997v12.565zm0-14.528h-3.997v-2.24h1.886c.05.117.117.224.2.321.249.297.619.473 1.007.473h.904v1.446" fill="#B6B8B5"/><path d="M366.113 172.873h3.997v-1.966h-3.997v1.966zm0 14.532h3.997v-1.965h-3.997v1.965z" fill="#121212"/><path d="M366.113 200.491h3.149v-3.328h-3.149v3.328z" fill="#B6B8B5"/><path d="M370.11 203.121h-3.997v-2.63h3.149v-3.331h-3.149v-2.63h3.997v8.591z" fill="#121212"/><path d="M371.426 204.324c-.247-.326-.636-.536-1.074-.536h-.242v-6.755-.034c.017.716.597 1.296 1.316 1.315v6.01zm-1.316-7.359v-27.501h1.316v22.412c-.73.019-1.316.613-1.316 1.349v3.74" fill="#121212"/><path d="M371.426 198.314c-.719-.019-1.299-.599-1.316-1.315v-3.774c0-.736.586-1.33 1.316-1.349v6.438zm0-28.85h-2.22c-.388 0-.757-.176-1.007-.473-.083-.097-.15-.204-.199-.321h3.426v.794" fill="#121212"/><path d="M366.113 224.389h2.956v-17.965h-2.956v17.965z" fill="#B6B8B5"/><path d="M371.426 226.176h-5.313v-1.787h2.956v-17.966h-2.956v-2.635h4.239c.438 0 .827.21 1.074.536v21.852" fill="#121212"/><path d="M205.969 177.139h5.3v-7.581h-5.3v7.581z" fill="#B6B8B5"/><path d="M211.365 177.47h-5.396v-.331h5.3v-7.583h-5.3v-1.315h5.396v9.229z" fill="#121212"/><path d="M205.969 187.683h5.3v-7.581h-5.3v7.581z" fill="#B6B8B5"/><path d="M211.365 188.019h-5.396v-.336h5.3v-7.578h-5.3v-2.635h5.396v10.549z" fill="#121212"/><path d="M205.969 198.231h5.3v-7.581h-5.3v7.581z" fill="#B6B8B5"/><path d="M211.365 198.563h-5.396v-.332h5.3v-7.582h-5.3v-2.63h5.396v10.544" fill="#121212"/><path d="M205.969 208.609h5.3v-7.411h-5.3v7.411z" fill="#B6B8B5"/><path d="M211.365 208.61h-.096v-7.413h-5.3v-2.635h5.396v10.048" fill="#121212"/><path d="M205.969 218.822h5.3v-7.58h-5.3v7.58z" fill="#B6B8B5"/><path d="M211.365 219.558h-5.396v-.736h5.3v-7.583h-5.3v-2.629h5.396v10.948zm1.221 0h-1.221v-51.317h1.221v51.317z" fill="#121212"/><path d="M140.769 224.803h-.081v-61.899h4.331v40.884h-2.9c-.745 0-1.35.609-1.35 1.354v19.661" fill="#B6B8B5"/><path d="M140.868 226.176h-.18v-1.373h.081v.866c0 .181.035.351.099.507zm4.707-22.388h-.556v-40.884h.556v40.884zm.82 0h-.82v-40.884h.82v40.884" fill="#121212"/><path d="M140.688 160.269h4.39v-3.644h-4.39v3.644z" fill="#B6B8B5"/><path d="M146.361 162.904h-5.673v-2.635h4.39v-3.643h-4.39v-2.157h5.707v8.435h-.034" fill="#121212"/><path d="M143.403 224.389h2.992v-17.965h-2.992v17.965z" fill="#B6B8B5"/><path d="M146.395 226.176h-5.527c-.063-.156-.098-.326-.098-.506v-20.528c0-.745.604-1.354 1.35-1.354h4.275v2.635h-2.992v17.966h2.992v1.787" fill="#121212"/><path d="M202.847 166.678h-.474V94.8732h9.753v.0341c-.222.1022-.411.2678-.544.4675h-7.418c-.728 0-1.317.5893-1.317 1.3198 0 .7256.589 1.3149 1.317 1.3149h7.201v2.6785h-4.585c-.727 0-1.316.589-1.316 1.315v.648c-.477.199-.812.667-.812 1.217v11.464c0 .731.59 1.32 1.317 1.32h5.396v2.051h-7.201c-.728 0-1.317.589-1.317 1.319 0 .726.589 1.315 1.317 1.315h7.201v4.544h-5.396c-.727 0-1.317.589-1.317 1.315v11.464c0 .731.59 1.32 1.317 1.32h5.396v2.055h-7.201c-.728 0-1.317.59-1.317 1.315 0 .726.589 1.315 1.317 1.315h7.201v4.544h-5.396c-.727 0-1.317.589-1.317 1.315v11.464c0 .731.59 1.32 1.317 1.32h5.396v2.055h-7.201c-.728 0-1.317.589-1.317 1.315" fill="#B6B8B5"/><path d="M207.285 114.018h2.97v-2.324h-2.97v2.324z" fill="#B6B8B5"/><path d="M211.365 98.0096h-7.201c-.728 0-1.317-.5893-1.317-1.3149 0-.7305.589-1.3198 1.317-1.3198h7.418c-.137.2094-.217.4578-.217.7256v1.9091zm0 23.3274h-7.201c-.728 0-1.317-.589-1.317-1.315 0-.73.589-1.319 1.317-1.319h7.201v2.634zm0-4.685h-5.396c-.728 0-1.317-.589-1.317-1.319v-11.465c0-.55.335-1.018.812-1.217v7.724c0 .73.589 1.32 1.316 1.32h.505v2.323h2.97v-2.323h1.11v4.957" fill="#121212"/><path d="M207.285 160.673h2.97v-8.833h-2.97v8.833zm0-23.328h2.97v-8.833h-2.97v8.833z" fill="#B6B8B5"/><path d="M211.365 144.665h-7.201c-.728 0-1.317-.589-1.317-1.315s.589-1.315 1.317-1.315h7.201v2.63zm0-4.685h-5.396c-.728 0-1.317-.589-1.317-1.32v-11.464c0-.726.589-1.315 1.317-1.315h5.396v14.099zm-4.08-11.469v8.834h2.97v-8.834h-2.97zm4.08 38.167h-8.518c0-.726.589-1.315 1.317-1.315h7.201v1.315zm0-3.37h-5.396c-.728 0-1.317-.589-1.317-1.32v-11.464c0-.726.589-1.315 1.317-1.315h5.396v14.099zm-4.08-11.469v8.834h2.97v-8.834h-2.97zm4.841 14.839h-.761v-54.984h.761v54.984zm0-65.99h-.761v-4.5876c0-.2678.08-.5162.217-.7256.133-.1997.322-.3653.544-.4676v5.7808z" fill="#121212"/><path d="M208.097 109.06h4.029v-5.741h-4.029v5.741z" fill="#B6B8B5"/><path d="M212.126 111.694h-5.346c-.727 0-1.316-.589-1.316-1.319v-8.372c0-.726.589-1.315 1.316-1.315h5.346v2.63h-4.029v5.742h4.029v2.634z" fill="#121212"/></svg>