<svg width="853" height="965" fill="none" xmlns="http://www.w3.org/2000/svg"><path d="M515.078 963.933C474.734 659.922 14.8025 279.015 97.2736 160.62" stroke="#000" stroke-width=".5" stroke-miterlimit="22.9256"/><path fill-rule="evenodd" clip-rule="evenodd" d="M65.6077 205.057s20.3272-20.569 31.6358-42.203c0 0-13.0203 4.943-31.6358 42.203z" fill="#DD6B20"/><path fill-rule="evenodd" clip-rule="evenodd" d="M40.9625 202.544s34.1227-18.184 57.1178-41.364c-.0456-.037-18.5884 1.149-57.1178 41.364z" fill="#DD6B20"/><path fill-rule="evenodd" clip-rule="evenodd" d="M45.2575 183.997s30.7842-7.223 53.7838-20.737c.0373-.046-14.9014-2.986-53.7838 20.737z" fill="#DD6B20"/><path fill-rule="evenodd" clip-rule="evenodd" d="M45.0455 163.055s28.427-5.27 52.6454-2.421c0 0-11.3795 7.958-52.6454 2.421z" fill="#DD6B20"/><path fill-rule="evenodd" clip-rule="evenodd" d="M253.198 61.3044l-65.834 43.7416.771 1.011c.953 1.16 36.309 56.787 36.591 57.093 1.239-3.095 1.959-16.807 2.443-20.747 2.39-20.03 7.48-46.5227 17.376-66.8017.435-1.0896 8.616-14.2513 8.653-14.2969z" fill="#FBD38D"/><path fill-rule="evenodd" clip-rule="evenodd" d="M224.715 163.071l-37.084-58.257-106.5518 67.942c2.7962-1.745 11.1851-4.467 14.7561-3.904 12.0267 1.852 24.1767-.075 29.4627.902 14.032 2.655 94.384-1.367 99.417-6.683z" fill="#ED8936"/><path fill-rule="evenodd" clip-rule="evenodd" d="M253.498 61.4037l-65.756 43.2743-.575-1.156c-.676-1.313-38.042-57.3667-38.203-57.7271 3.318.1282 16.157 5.0782 19.914 6.2504 19.301 5.977 45.488 12.1856 68.09 11.4305 1.131.0124 16.492-2.0265 16.53-2.0721z" fill="#F6AD55"/><path fill-rule="evenodd" clip-rule="evenodd" d="M148.972 45.8779l39.093 58.6841-106.5841 68.446c2.7424-1.864 8.6165-8.393 9.565-11.877 3.2639-11.708 9.9331-21.998 11.1671-27.227 3.417-13.94 39.928-85.6272 46.759-88.0261z" fill="#DD6B20"/></svg>