<svg width="735" height="729" viewBox="0 0 735 729" fill="none" xmlns="http://www.w3.org/2000/svg">
<path d="M479.369 728.399C448.883 498.672 101.334 210.838 163.654 121.373" stroke="black" stroke-width="0.5" stroke-miterlimit="22.9256"/>
<path fill-rule="evenodd" clip-rule="evenodd" d="M139.726 154.952C139.726 154.952 155.086 139.409 163.631 123.061C163.631 123.061 153.792 126.796 139.726 154.952Z" fill="#DD6B20"/>
<path fill-rule="evenodd" clip-rule="evenodd" d="M121.102 153.053C121.102 153.053 146.887 139.312 164.264 121.797C164.229 121.768 150.217 122.664 121.102 153.053Z" fill="#DD6B20"/>
<path fill-rule="evenodd" clip-rule="evenodd" d="M124.348 139.038C124.348 139.038 147.61 133.58 164.99 123.368C165.018 123.333 153.729 121.111 124.348 139.038Z" fill="#DD6B20"/>
<path fill-rule="evenodd" clip-rule="evenodd" d="M124.188 123.213C124.188 123.213 145.669 119.23 163.969 121.383C163.969 121.383 155.37 127.397 124.188 123.213Z" fill="#DD6B20"/>
<path fill-rule="evenodd" clip-rule="evenodd" d="M281.478 46.3258L231.731 79.3796L232.313 80.1434C233.033 81.0198 259.75 123.054 259.963 123.286C260.899 120.947 261.443 110.586 261.809 107.609C263.615 92.4727 267.461 72.4532 274.939 57.1293C275.268 56.306 281.45 46.3602 281.478 46.3258Z" fill="#FBD38D"/>
<path fill-rule="evenodd" clip-rule="evenodd" d="M259.955 123.225L231.932 79.2032L151.417 130.543C153.53 129.225 159.869 127.168 162.567 127.594C171.655 128.993 180.836 127.537 184.831 128.275C195.434 130.281 256.152 127.242 259.955 123.225Z" fill="#ED8936"/>
<path fill-rule="evenodd" clip-rule="evenodd" d="M281.705 46.3999L232.017 79.0999L231.582 78.2265C231.072 77.2342 202.836 34.8774 202.714 34.605C205.221 34.702 214.923 38.4424 217.762 39.3282C232.347 43.8447 252.135 48.5363 269.215 47.9657C270.069 47.9751 281.677 46.4343 281.705 46.3999Z" fill="#F6AD55"/>
<path fill-rule="evenodd" clip-rule="evenodd" d="M202.72 34.6678L232.261 79.0123L151.72 130.734C153.792 129.326 158.231 124.392 158.948 121.759C161.414 112.912 166.454 105.136 167.387 101.185C169.969 90.6512 197.558 36.4805 202.72 34.6678Z" fill="#DD6B20"/>
</svg>
