<svg width="361" height="729" fill="none" xmlns="http://www.w3.org/2000/svg"><rect x="5.191" y="1.888" width="351.562" height="724.831" rx="54.74" fill="#fff" stroke="#fff" stroke-width="3.775"/><path fill-rule="evenodd" clip-rule="evenodd" d="M8.966 57.571c0-28.407 23.029-51.436 51.437-51.436h240.666c28.408 0 51.437 23.029 51.437 51.436v613.936c0 28.408-23.029 51.437-51.437 51.437H60.403c-28.408 0-51.437-23.029-51.437-51.437V57.571zm11.326-.472c0-21.892 17.747-39.639 39.639-39.639h29.763a4.719 4.719 0 014.685 4.693v4.273c0 9.383 7.606 16.988 16.988 16.988h138.266c9.382 0 16.988-7.606 16.988-16.988V22.18a4.72 4.72 0 014.678-4.719h30.242c21.892 0 39.64 17.747 39.64 39.64v614.407c0 21.892-17.748 39.639-39.64 39.639H59.931c-21.892 0-39.64-17.747-39.64-39.639V57.099z" fill="#E4E8EF"/><rect x="160.917" y="23.595" width="40.111" height="6.607" rx="3.303" fill="#E4E8EF"/><circle cx="216.6" cy="26.898" r="3.303" fill="#E4E8EF"/><mask id="a" maskUnits="userSpaceOnUse" x="3" y="2" width="356" height="706"><rect x="4.888" y="3.888" width="352.225" height="702.225" rx="54.74" fill="#fff" stroke="#fff" stroke-width="3.775"/></mask><g mask="url(#a)"><path d="M40.528 268.368c0-1.109.24-2.096.72-2.96a5.09 5.09 0 012-2.032c.864-.491 1.84-.736 2.928-.736 1.333 0 2.475.352 3.424 1.056.95.704 1.584 1.664 1.904 2.88h-3.008a2.414 2.414 0 00-.96-1.072 2.638 2.638 0 00-1.392-.368c-.843 0-1.525.293-2.048.88-.523.587-.784 1.371-.784 2.352 0 .981.261 1.765.784 2.352s1.205.88 2.048.88c.523 0 .987-.123 1.392-.368.416-.245.736-.603.96-1.072h3.008c-.32 1.216-.955 2.176-1.904 2.88-.95.693-2.09 1.04-3.424 1.04-1.088 0-2.064-.24-2.928-.72a5.234 5.234 0 01-2-2.032c-.48-.864-.72-1.851-.72-2.96zm12.108 1.152c0-.917.17-1.723.511-2.416.352-.693.827-1.227 1.425-1.6a3.7 3.7 0 012-.56c.629 0 1.178.128 1.647.384.48.256.849.592 1.105 1.008v-1.264h2.736V274h-2.736v-1.264a2.94 2.94 0 01-1.12 1.008c-.47.256-1.02.384-1.648.384a3.671 3.671 0 01-1.984-.56c-.598-.384-1.073-.923-1.425-1.616-.34-.704-.511-1.515-.511-2.432zm6.688.016c0-.683-.192-1.221-.576-1.616a1.819 1.819 0 00-1.377-.592 1.87 1.87 0 00-1.392.592c-.373.384-.56.917-.56 1.6s.187 1.227.56 1.632a1.87 1.87 0 001.392.592c.544 0 1.003-.197 1.377-.592.384-.395.576-.933.576-1.616zm16.107-4.56c1.11 0 1.99.336 2.64 1.008.661.672.992 1.605.992 2.8V274h-2.72v-4.848c0-.576-.155-1.019-.464-1.328-.299-.32-.715-.48-1.248-.48-.534 0-.955.16-1.264.48-.299.309-.448.752-.448 1.328V274h-2.72v-4.848c0-.576-.155-1.019-.464-1.328-.299-.32-.715-.48-1.248-.48s-.955.16-1.264.48c-.299.309-.448.752-.448 1.328V274h-2.736v-8.928h2.736v1.12a2.86 2.86 0 011.088-.88 3.352 3.352 0 011.52-.336c.672 0 1.27.144 1.792.432.533.288.95.699 1.248 1.232a3.59 3.59 0 011.264-1.2 3.418 3.418 0 011.744-.464zm8.281 1.36a2.97 2.97 0 011.104-1.008c.47-.256 1.019-.384 1.648-.384a3.7 3.7 0 012 .56c.598.373 1.067.907 1.408 1.6.352.693.528 1.499.528 2.416 0 .917-.176 1.728-.528 2.432-.341.693-.81 1.232-1.408 1.616a3.7 3.7 0 01-2 .56c-.618 0-1.168-.128-1.648-.384a3.025 3.025 0 01-1.104-.992v5.504h-2.736v-13.184h2.736v1.264zm3.904 3.184c0-.683-.192-1.216-.576-1.6a1.837 1.837 0 00-1.392-.592 1.87 1.87 0 00-1.392.592c-.373.395-.56.933-.56 1.616s.187 1.221.56 1.616a1.87 1.87 0 001.392.592 1.87 1.87 0 001.392-.592c.384-.405.576-.949.576-1.632zm3.676 0c0-.917.17-1.723.512-2.416.352-.693.826-1.227 1.424-1.6a3.7 3.7 0 012-.56c.63 0 1.178.128 1.648.384.48.256.848.592 1.104 1.008v-1.264h2.736V274H97.98v-1.264a2.94 2.94 0 01-1.12 1.008c-.47.256-1.019.384-1.648.384a3.671 3.671 0 01-1.984-.56c-.598-.384-1.072-.923-1.424-1.616-.342-.704-.512-1.515-.512-2.432zm6.688.016c0-.683-.192-1.221-.576-1.616a1.819 1.819 0 00-1.376-.592 1.87 1.87 0 00-1.392.592c-.374.384-.56.917-.56 1.6s.186 1.227.56 1.632a1.87 1.87 0 001.392.592c.544 0 1.002-.197 1.376-.592.384-.395.576-.933.576-1.616zm6.091-5.392c-.48 0-.875-.139-1.184-.416a1.41 1.41 0 01-.448-1.056c0-.427.149-.779.448-1.056.309-.288.704-.432 1.184-.432.469 0 .853.144 1.152.432.309.277.464.629.464 1.056 0 .416-.155.768-.464 1.056-.299.277-.683.416-1.152.416zm1.36.928V274h-2.736v-8.928h2.736zm5.375-.128c.629 0 1.179.128 1.648.384.48.256.848.592 1.104 1.008v-1.264h2.736v8.912c0 .821-.165 1.563-.496 2.224a3.648 3.648 0 01-1.488 1.6c-.661.395-1.488.592-2.48.592-1.323 0-2.395-.315-3.216-.944-.821-.619-1.291-1.461-1.408-2.528h2.704c.085.341.288.608.608.8.32.203.715.304 1.184.304.565 0 1.013-.165 1.344-.496.341-.32.512-.837.512-1.552v-1.264a3.11 3.11 0 01-1.104 1.024c-.469.256-1.019.384-1.648.384a3.699 3.699 0 01-2-.56c-.597-.384-1.072-.923-1.424-1.616-.341-.704-.512-1.515-.512-2.432s.171-1.723.512-2.416c.352-.693.827-1.227 1.424-1.6a3.699 3.699 0 012-.56zm2.752 4.592c0-.683-.192-1.221-.576-1.616a1.818 1.818 0 00-1.376-.592 1.87 1.87 0 00-1.392.592c-.373.384-.56.917-.56 1.6s.187 1.227.56 1.632a1.87 1.87 0 001.392.592c.544 0 1.003-.197 1.376-.592.384-.395.576-.933.576-1.616zm10.155-4.56c1.046 0 1.878.341 2.496 1.024.63.672.944 1.6.944 2.784V274h-2.72v-4.848c0-.597-.154-1.061-.464-1.392-.309-.331-.725-.496-1.248-.496-.522 0-.938.165-1.248.496-.309.331-.464.795-.464 1.392V274h-2.736v-8.928h2.736v1.184a2.828 2.828 0 011.12-.928c.47-.235.998-.352 1.584-.352zm18.78 9.024h-2.736l-4.576-6.928V274h-2.736v-11.232h2.736l4.576 6.96v-6.96h2.736V274zm10.399-4.608c0 .256-.016.523-.048.8h-6.192c.043.555.219.981.528 1.28.32.288.71.432 1.168.432.683 0 1.158-.288 1.424-.864h2.912a3.932 3.932 0 01-.816 1.584 3.976 3.976 0 01-1.456 1.104c-.586.267-1.242.4-1.968.4-.874 0-1.653-.187-2.336-.56a3.987 3.987 0 01-1.6-1.6c-.384-.693-.576-1.504-.576-2.432 0-.928.187-1.739.56-2.432a3.987 3.987 0 011.6-1.6c.683-.373 1.467-.56 2.352-.56.864 0 1.632.181 2.304.544.672.363 1.195.88 1.568 1.552.384.672.576 1.456.576 2.352zm-2.8-.72c0-.469-.16-.843-.48-1.12-.32-.277-.72-.416-1.2-.416-.458 0-.848.133-1.168.4-.309.267-.501.645-.576 1.136h3.424zm17.06-3.6L164.736 274h-3.024l-1.408-5.792-1.456 5.792h-3.008l-2.432-8.928h2.736l1.264 6.384 1.504-6.384h2.896l1.52 6.352 1.248-6.352h2.576zm4.675 9.056c-.779 0-1.472-.133-2.08-.4-.608-.267-1.088-.629-1.44-1.088a2.926 2.926 0 01-.592-1.568h2.704c.032.309.176.56.432.752.256.192.571.288.944.288.341 0 .603-.064.784-.192.192-.139.288-.315.288-.528 0-.256-.133-.443-.4-.56-.267-.128-.699-.267-1.296-.416a13.14 13.14 0 01-1.6-.464 2.871 2.871 0 01-1.104-.784c-.309-.363-.464-.848-.464-1.456 0-.512.139-.976.416-1.392.288-.427.704-.763 1.248-1.008.555-.245 1.211-.368 1.968-.368 1.12 0 2 .277 2.64.832.651.555 1.024 1.291 1.12 2.208h-2.528a1.078 1.078 0 00-.416-.736c-.224-.181-.523-.272-.896-.272-.32 0-.565.064-.736.192a.567.567 0 00-.256.496c0 .256.133.448.4.576.277.128.704.256 1.28.384.661.171 1.2.341 1.616.512.416.16.779.427 1.088.8.32.363.485.853.496 1.472 0 .523-.149.992-.448 1.408-.288.405-.709.725-1.264.96-.544.235-1.179.352-1.904.352z" fill="#000"/><rect x="62" y="295" width="100" height="10" rx="5" fill="#B1BBCC"/><rect x="40" y="99" width="100" height="10" rx="5" fill="#B1BBCC"/><rect x="40" y="124" width="228" height="10" rx="5" fill="#E5EBF7"/><rect x="40" y="144" width="161" height="10" rx="5" fill="#E5EBF7"/><rect x="40" y="164" width="194" height="10" rx="5" fill="#E5EBF7"/><path fill="#B3BCCD" d="M44 300h2v264h-2z"/><circle cx="45" cy="300" r="5" fill="#B3BCCD"/><circle cx="45" cy="564" r="5" fill="#B3BCCD"/><path fill="#F0FFF4" stroke="#DCFCE5" d="M62.5 313.5h259v109h-259z"/><rect x="40.5" y="191.5" width="227" height="50" rx="25" fill="#F0FFF4" stroke="#DCFCE5"/><rect x="75" y="345" width="33" height="10" rx="5" fill="#B1BBCC"/><rect x="201" y="375" width="105" height="10" rx="5" fill="#B1BBCC"/><rect x="201" y="345" width="33" height="10" rx="5" fill="#B1BBCC"/><path d="M79.716 334.084a4.34 4.34 0 01-2.16-.552 4.135 4.135 0 01-1.56-1.524c-.384-.656-.576-1.396-.576-2.22 0-.816.192-1.548.576-2.196a4.108 4.108 0 011.56-1.536 4.34 4.34 0 012.16-.552c.792 0 1.512.184 2.16.552.656.368 1.172.88 1.548 1.536.384.648.576 1.38.576 2.196 0 .824-.192 1.564-.576 2.22a4.047 4.047 0 01-1.548 1.524 4.34 4.34 0 01-2.16.552zm0-1.5c.504 0 .948-.112 1.332-.336.384-.232.684-.56.9-.984.216-.424.324-.916.324-1.476 0-.56-.108-1.048-.324-1.464a2.305 2.305 0 00-.9-.972c-.384-.224-.828-.336-1.332-.336a2.66 2.66 0 00-1.344.336 2.305 2.305 0 00-.9.972c-.216.416-.324.904-.324 1.464 0 .56.108 1.052.324 1.476.216.424.516.752.9.984.392.224.84.336 1.344.336zm7.214-4.272a2.51 2.51 0 01.888-.756c.384-.208.82-.312 1.308-.312a2.876 2.876 0 012.628 1.62c.272.512.408 1.108.408 1.788 0 .68-.136 1.284-.408 1.812-.264.52-.628.924-1.092 1.212a2.816 2.816 0 01-1.536.432c-.488 0-.92-.1-1.296-.3a2.786 2.786 0 01-.9-.756v4.116h-1.68v-9.816h1.68v.96zm3.516 2.34c0-.4-.084-.744-.252-1.032a1.701 1.701 0 00-1.512-.9c-.304 0-.592.08-.864.24-.264.152-.48.376-.648.672-.16.296-.24.644-.24 1.044s.08.748.24 1.044c.168.296.384.524.648.684.272.152.56.228.864.228.312 0 .6-.08.864-.24.272-.16.488-.388.648-.684.168-.296.252-.648.252-1.056zm9.117-.12c0 .24-.016.456-.048.648h-4.86c.04.48.208.856.504 1.128.296.272.66.408 1.092.408.624 0 1.068-.268 1.332-.804h1.812a3.059 3.059 0 01-1.104 1.584c-.544.408-1.212.612-2.004.612-.64 0-1.216-.14-1.728-.42a3.091 3.091 0 01-1.188-1.212c-.28-.52-.42-1.12-.42-1.8 0-.688.14-1.292.42-1.812.28-.52.672-.92 1.176-1.2.504-.28 1.084-.42 1.74-.42.632 0 1.196.136 1.692.408.504.272.892.66 1.164 1.164.28.496.42 1.068.42 1.716zm-1.74-.48c-.008-.432-.164-.776-.468-1.032-.304-.264-.676-.396-1.116-.396-.416 0-.768.128-1.056.384-.28.248-.452.596-.516 1.044h3.156zm4.646-1.668c.216-.352.496-.628.84-.828.352-.2.752-.3 1.2-.3v1.764h-.444c-.528 0-.928.124-1.2.372-.264.248-.396.68-.396 1.296V334h-1.68v-6.648h1.68v1.032zm2.739 2.268c0-.672.132-1.268.396-1.788.273-.52.637-.92 1.093-1.2.464-.28.98-.42 1.548-.42.496 0 .928.1 1.296.3.376.2.676.452.9.756v-.948h1.692V334h-1.692v-.972a2.539 2.539 0 01-.9.78c-.376.2-.812.3-1.308.3-.56 0-1.072-.144-1.536-.432a3.101 3.101 0 01-1.093-1.212c-.264-.528-.396-1.132-.396-1.812zm5.233.024c0-.408-.08-.756-.24-1.044a1.642 1.642 0 00-.648-.672 1.699 1.699 0 00-.876-.24c-.312 0-.6.076-.865.228a1.753 1.753 0 00-.647.672c-.16.288-.24.632-.24 1.032s.08.752.24 1.056c.168.296.384.524.647.684.273.16.561.24.865.24.312 0 .604-.076.876-.228.272-.16.488-.384.648-.672.16-.296.24-.648.24-1.056zm5.288-1.944v3.216c0 .224.052.388.156.492.112.096.296.144.552.144h.78V334h-1.056c-1.416 0-2.124-.688-2.124-2.064v-3.204h-.792v-1.38h.792v-1.644h1.692v1.644h1.488v1.38h-1.488zm3.549-2.172c-.296 0-.544-.092-.744-.276a.962.962 0 01-.288-.708c0-.28.096-.512.288-.696.2-.192.448-.288.744-.288s.54.096.732.288c.2.184.3.416.3.696 0 .28-.1.516-.3.708a1.015 1.015 0 01-.732.276zm.828.792V334h-1.68v-6.648h1.68zm4.612 6.756c-.64 0-1.216-.14-1.728-.42a3.15 3.15 0 01-1.212-1.212c-.288-.52-.432-1.12-.432-1.8 0-.68.148-1.28.444-1.8.304-.52.716-.92 1.236-1.2a3.53 3.53 0 011.74-.432c.64 0 1.22.144 1.74.432.52.28.928.68 1.224 1.2.304.52.456 1.12.456 1.8 0 .68-.156 1.28-.469 1.8a3.18 3.18 0 01-1.247 1.212c-.52.28-1.104.42-1.752.42zm0-1.464c.304 0 .588-.072.852-.216.272-.152.488-.376.648-.672.16-.296.24-.656.24-1.08 0-.632-.168-1.116-.504-1.452a1.609 1.609 0 00-1.212-.516c-.48 0-.884.172-1.212.516-.32.336-.48.82-.48 1.452s.156 1.12.468 1.464c.32.336.72.504 1.2.504zm8.384-5.388c.792 0 1.432.252 1.92.756.488.496.732 1.192.732 2.088v3.9h-1.68v-3.672c0-.528-.132-.932-.396-1.212-.264-.288-.624-.432-1.08-.432-.464 0-.832.144-1.104.432-.264.28-.396.684-.396 1.212V334h-1.68v-6.648h1.68v.828c.224-.288.508-.512.852-.672a2.64 2.64 0 011.152-.252zm6.701 2.544c0-.824.184-1.56.552-2.208a3.984 3.984 0 011.524-1.524c.648-.368 1.372-.552 2.172-.552.936 0 1.756.24 2.46.72s1.196 1.144 1.476 1.992h-1.932c-.192-.4-.464-.7-.816-.9-.344-.2-.744-.3-1.2-.3a2.48 2.48 0 00-1.308.348 2.346 2.346 0 00-.888.96c-.208.416-.312.904-.312 1.464 0 .552.104 1.04.312 1.464.216.416.512.74.888.972.384.224.82.336 1.308.336.456 0 .856-.1 1.2-.3.352-.208.624-.512.816-.912h1.932c-.28.856-.772 1.524-1.476 2.004-.696.472-1.516.708-2.46.708-.8 0-1.524-.18-2.172-.54a4.097 4.097 0 01-1.524-1.524c-.368-.648-.552-1.384-.552-2.208zm12.571 4.308c-.64 0-1.216-.14-1.728-.42a3.15 3.15 0 01-1.212-1.212c-.288-.52-.432-1.12-.432-1.8 0-.68.148-1.28.444-1.8.304-.52.716-.92 1.236-1.2a3.53 3.53 0 011.74-.432c.64 0 1.22.144 1.74.432.52.28.928.68 1.224 1.2.304.52.456 1.12.456 1.8 0 .68-.156 1.28-.468 1.8-.304.52-.72.924-1.248 1.212-.52.28-1.104.42-1.752.42zm0-1.464c.304 0 .588-.072.852-.216.272-.152.488-.376.648-.672.16-.296.24-.656.24-1.08 0-.632-.168-1.116-.504-1.452a1.609 1.609 0 00-1.212-.516c-.48 0-.884.172-1.212.516-.32.336-.48.82-.48 1.452s.156 1.12.468 1.464c.32.336.72.504 1.2.504zm10.976-5.292V334h-1.692v-.84a2.26 2.26 0 01-.852.684c-.344.16-.72.24-1.128.24-.52 0-.98-.108-1.38-.324a2.413 2.413 0 01-.948-.972c-.224-.432-.336-.944-.336-1.536v-3.9h1.68v3.66c0 .528.132.936.396 1.224.264.28.624.42 1.08.42.464 0 .828-.14 1.092-.42.264-.288.396-.696.396-1.224v-3.66h1.692zm5.342-.096c.792 0 1.432.252 1.92.756.488.496.732 1.192.732 2.088v3.9h-1.68v-3.672c0-.528-.132-.932-.396-1.212-.264-.288-.624-.432-1.08-.432-.464 0-.832.144-1.104.432-.264.28-.396.684-.396 1.212V334h-1.68v-6.648h1.68v.828c.224-.288.508-.512.852-.672a2.64 2.64 0 011.152-.252zm6.205 1.476v3.216c0 .224.052.388.156.492.112.096.296.144.552.144h.78V334h-1.056c-1.416 0-2.124-.688-2.124-2.064v-3.204h-.792v-1.38h.792v-1.644h1.692v1.644h1.488v1.38h-1.488zM81 375.624v1.356h-3.492v2.148h2.676v1.332h-2.676V384h-1.68v-8.376H81zm2.871 2.76c.216-.352.496-.628.84-.828.352-.2.752-.3 1.2-.3v1.764h-.444c-.528 0-.928.124-1.2.372-.264.248-.396.68-.396 1.296V384h-1.68v-6.648h1.68v1.032zm6.124 5.724c-.64 0-1.216-.14-1.728-.42a3.15 3.15 0 01-1.212-1.212c-.288-.52-.432-1.12-.432-1.8 0-.68.148-1.28.444-1.8.304-.52.716-.92 1.236-1.2a3.53 3.53 0 011.74-.432c.64 0 1.22.144 1.74.432.52.28.928.68 1.224 1.2.304.52.456 1.12.456 1.8 0 .68-.156 1.28-.468 1.8-.304.52-.72.924-1.248 1.212-.52.28-1.104.42-1.752.42zm0-1.464c.304 0 .588-.072.852-.216.272-.152.488-.376.648-.672.16-.296.24-.656.24-1.08 0-.632-.168-1.116-.504-1.452a1.609 1.609 0 00-1.212-.516c-.48 0-.884.172-1.212.516-.32.336-.48.82-.48 1.452s.156 1.12.468 1.464c.32.336.72.504 1.2.504zm12.956-5.388c.816 0 1.472.252 1.968.756.504.496.756 1.192.756 2.088v3.9h-1.68v-3.672c0-.52-.132-.916-.396-1.188-.264-.28-.624-.42-1.08-.42-.456 0-.82.14-1.092.42-.264.272-.396.668-.396 1.188V384h-1.68v-3.672c0-.52-.132-.916-.396-1.188-.264-.28-.624-.42-1.08-.42-.464 0-.832.14-1.104.42-.264.272-.396.668-.396 1.188V384h-1.68v-6.648h1.68v.804c.216-.28.492-.5.828-.66.344-.16.72-.24 1.128-.24.52 0 .984.112 1.392.336.408.216.724.528.948.936.216-.384.528-.692.936-.924a2.715 2.715 0 011.344-.348z" fill="#484F5B"/><rect x="201" y="398" width="105" height="10" rx="5" fill="#B1BBCC"/><path d="M80.964 405.404h-3.336L77.076 407h-1.764l3.012-8.388h1.956L83.292 407h-1.776l-.552-1.596zm-.456-1.344l-1.212-3.504-1.212 3.504h2.424zm12.166-3.804c.816 0 1.472.252 1.968.756.504.496.756 1.192.756 2.088v3.9h-1.68v-3.672c0-.52-.132-.916-.396-1.188-.264-.28-.624-.42-1.08-.42-.456 0-.82.14-1.092.42-.264.272-.396.668-.396 1.188V407h-1.68v-3.672c0-.52-.132-.916-.396-1.188-.264-.28-.624-.42-1.08-.42-.464 0-.832.14-1.104.42-.264.272-.396.668-.396 1.188V407h-1.68v-6.648h1.68v.804c.216-.28.492-.5.828-.66.344-.16.72-.24 1.128-.24.52 0 .984.112 1.392.336.408.216.724.528.948.936.216-.384.528-.692.936-.924a2.715 2.715 0 011.344-.348zm7.27 6.852c-.64 0-1.216-.14-1.728-.42a3.15 3.15 0 01-1.212-1.212c-.288-.52-.432-1.12-.432-1.8 0-.68.148-1.28.444-1.8.304-.52.716-.92 1.236-1.2a3.53 3.53 0 011.74-.432c.64 0 1.22.144 1.74.432.52.28.928.68 1.224 1.2.304.52.456 1.12.456 1.8 0 .68-.156 1.28-.468 1.8-.304.52-.72.924-1.248 1.212-.52.28-1.104.42-1.752.42zm0-1.464c.304 0 .588-.072.852-.216.272-.152.488-.376.648-.672.16-.296.24-.656.24-1.08 0-.632-.168-1.116-.504-1.452a1.609 1.609 0 00-1.212-.516c-.48 0-.884.172-1.212.516-.32.336-.48.82-.48 1.452s.156 1.12.468 1.464c.32.336.72.504 1.2.504zm10.976-5.292V407h-1.692v-.84a2.26 2.26 0 01-.852.684c-.344.16-.72.24-1.128.24-.52 0-.98-.108-1.38-.324a2.413 2.413 0 01-.948-.972c-.224-.432-.336-.944-.336-1.536v-3.9h1.68v3.66c0 .528.132.936.396 1.224.264.28.624.42 1.08.42.464 0 .828-.14 1.092-.42.264-.288.396-.696.396-1.224v-3.66h1.692zm5.342-.096c.792 0 1.432.252 1.92.756.488.496.732 1.192.732 2.088v3.9h-1.68v-3.672c0-.528-.132-.932-.396-1.212-.264-.288-.624-.432-1.08-.432-.464 0-.832.144-1.104.432-.264.28-.396.684-.396 1.212V407h-1.68v-6.648h1.68v.828c.224-.288.508-.512.852-.672a2.64 2.64 0 011.152-.252zm6.206 1.476v3.216c0 .224.052.388.156.492.112.096.296.144.552.144h.78V407H122.9c-1.416 0-2.124-.688-2.124-2.064v-3.204h-.792v-1.38h.792v-1.644h1.692v1.644h1.488v1.38h-1.488zM203.508 325.624V334h-1.68v-8.376h1.68zm5.344 1.632c.792 0 1.432.252 1.92.756.488.496.732 1.192.732 2.088v3.9h-1.68v-3.672c0-.528-.132-.932-.396-1.212-.264-.288-.624-.432-1.08-.432-.464 0-.832.144-1.104.432-.264.28-.396.684-.396 1.212V334h-1.68v-6.648h1.68v.828c.224-.288.508-.512.852-.672a2.64 2.64 0 011.152-.252zm3.817 3.42c0-.688.14-1.288.42-1.8.28-.52.668-.92 1.164-1.2.496-.288 1.064-.432 1.704-.432.824 0 1.504.208 2.04.624.544.408.908.984 1.092 1.728h-1.812a1.282 1.282 0 00-.492-.672c-.224-.168-.504-.252-.84-.252-.48 0-.86.176-1.14.528-.28.344-.42.836-.42 1.476 0 .632.14 1.124.42 1.476.28.344.66.516 1.14.516.68 0 1.124-.304 1.332-.912h1.812c-.184.72-.548 1.292-1.092 1.716-.544.424-1.224.636-2.04.636-.64 0-1.208-.14-1.704-.42a3.054 3.054 0 01-1.164-1.2c-.28-.52-.42-1.124-.42-1.812zm10.603 3.432c-.64 0-1.216-.14-1.728-.42a3.15 3.15 0 01-1.212-1.212c-.288-.52-.432-1.12-.432-1.8 0-.68.148-1.28.444-1.8.304-.52.716-.92 1.236-1.2a3.53 3.53 0 011.74-.432c.64 0 1.22.144 1.74.432.52.28.928.68 1.224 1.2.304.52.456 1.12.456 1.8 0 .68-.156 1.28-.468 1.8-.304.52-.72.924-1.248 1.212-.52.28-1.104.42-1.752.42zm0-1.464c.304 0 .588-.072.852-.216.272-.152.488-.376.648-.672.16-.296.24-.656.24-1.08 0-.632-.168-1.116-.504-1.452a1.609 1.609 0 00-1.212-.516c-.48 0-.884.172-1.212.516-.32.336-.48.82-.48 1.452s.156 1.12.468 1.464c.32.336.72.504 1.2.504zm12.957-5.388c.816 0 1.472.252 1.968.756.504.496.756 1.192.756 2.088v3.9h-1.68v-3.672c0-.52-.132-.916-.396-1.188-.264-.28-.624-.42-1.08-.42-.456 0-.82.14-1.092.42-.264.272-.396.668-.396 1.188V334h-1.68v-3.672c0-.52-.132-.916-.396-1.188-.264-.28-.624-.42-1.08-.42-.464 0-.832.14-1.104.42-.264.272-.396.668-.396 1.188V334h-1.68v-6.648h1.68v.804c.216-.28.492-.5.828-.66.344-.16.72-.24 1.128-.24.52 0 .984.112 1.392.336.408.216.724.528.948.936.216-.384.528-.692.936-.924a2.715 2.715 0 011.344-.348zm5.17-.696c-.296 0-.544-.092-.744-.276a.962.962 0 01-.288-.708c0-.28.096-.512.288-.696.2-.192.448-.288.744-.288s.54.096.732.288c.2.184.3.416.3.696 0 .28-.1.516-.3.708a1.015 1.015 0 01-.732.276zm.828.792V334h-1.68v-6.648h1.68zm5.344-.096c.792 0 1.432.252 1.92.756.488.496.732 1.192.732 2.088v3.9h-1.68v-3.672c0-.528-.132-.932-.396-1.212-.264-.288-.624-.432-1.08-.432-.464 0-.832.144-1.104.432-.264.28-.396.684-.396 1.212V334h-1.68v-6.648h1.68v.828c.224-.288.508-.512.852-.672a2.64 2.64 0 011.152-.252zm6.853-.012c.496 0 .932.1 1.308.3.376.192.672.444.888.756v-.948h1.692v6.696c0 .616-.124 1.164-.372 1.644-.248.488-.62.872-1.116 1.152-.496.288-1.096.432-1.8.432-.944 0-1.72-.22-2.328-.66-.6-.44-.94-1.04-1.02-1.8h1.668c.088.304.276.544.564.72.296.184.652.276 1.068.276.488 0 .884-.148 1.188-.444.304-.288.456-.728.456-1.32v-1.032a2.539 2.539 0 01-.9.78 2.633 2.633 0 01-1.296.312c-.56 0-1.072-.144-1.536-.432a3.06 3.06 0 01-1.104-1.212c-.264-.528-.396-1.132-.396-1.812 0-.672.132-1.268.396-1.788.272-.52.636-.92 1.092-1.2.464-.28.98-.42 1.548-.42zm2.196 3.432c0-.408-.08-.756-.24-1.044a1.642 1.642 0 00-.648-.672 1.699 1.699 0 00-.876-.24c-.312 0-.6.076-.864.228-.264.152-.48.376-.648.672-.16.288-.24.632-.24 1.032s.08.752.24 1.056c.168.296.384.524.648.684.272.16.56.24.864.24.312 0 .604-.076.876-.228.272-.16.488-.384.648-.672.16-.296.24-.648.24-1.056zm9.084 3.408c-.584 0-1.112-.1-1.584-.3a2.597 2.597 0 01-1.104-.864c-.272-.376-.412-.82-.42-1.332h1.8c.024.344.144.616.36.816.224.2.528.3.912.3.392 0 .7-.092.924-.276a.935.935 0 00.336-.744.853.853 0 00-.228-.612 1.527 1.527 0 00-.576-.372 7.887 7.887 0 00-.936-.312c-.544-.16-.988-.316-1.332-.468a2.469 2.469 0 01-.876-.708c-.24-.32-.36-.744-.36-1.272 0-.496.124-.928.372-1.296a2.328 2.328 0 011.044-.84c.448-.2.96-.3 1.536-.3.864 0 1.564.212 2.1.636.544.416.844 1 .9 1.752h-1.848a.935.935 0 00-.372-.708c-.224-.192-.524-.288-.9-.288-.328 0-.592.084-.792.252-.192.168-.288.412-.288.732 0 .224.072.412.216.564.152.144.336.264.552.36.224.088.536.192.936.312.544.16.988.32 1.332.48.344.16.64.4.888.72.248.32.372.74.372 1.26 0 .448-.116.864-.348 1.248-.232.384-.572.692-1.02.924-.448.224-.98.336-1.596.336zm10.697-6.732V334h-1.692v-.84a2.26 2.26 0 01-.852.684c-.344.16-.72.24-1.128.24-.52 0-.98-.108-1.38-.324a2.413 2.413 0 01-.948-.972c-.224-.432-.336-.944-.336-1.536v-3.9h1.68v3.66c0 .528.132.936.396 1.224.264.28.624.42 1.08.42.464 0 .828-.14 1.092-.42.264-.288.396-.696.396-1.224v-3.66h1.692zm3.337.96a2.51 2.51 0 01.888-.756c.384-.208.82-.312 1.308-.312a2.876 2.876 0 012.628 1.62c.272.512.408 1.108.408 1.788 0 .68-.136 1.284-.408 1.812-.264.52-.628.924-1.092 1.212a2.816 2.816 0 01-1.536.432c-.488 0-.92-.1-1.296-.3a2.786 2.786 0 01-.9-.756v4.116h-1.68v-9.816h1.68v.96zm3.516 2.34c0-.4-.084-.744-.252-1.032a1.701 1.701 0 00-1.512-.9c-.304 0-.592.08-.864.24-.264.152-.48.376-.648.672-.16.296-.24.644-.24 1.044s.08.748.24 1.044c.168.296.384.524.648.684.272.152.56.228.864.228.312 0 .6-.08.864-.24.272-.16.488-.388.648-.684.168-.296.252-.648.252-1.056zm4.617-2.34a2.51 2.51 0 01.888-.756c.384-.208.82-.312 1.308-.312a2.876 2.876 0 012.628 1.62c.272.512.408 1.108.408 1.788 0 .68-.136 1.284-.408 1.812-.264.52-.628.924-1.092 1.212a2.816 2.816 0 01-1.536.432c-.488 0-.92-.1-1.296-.3a2.786 2.786 0 01-.9-.756v4.116h-1.68v-9.816h1.68v.96zm3.516 2.34c0-.4-.084-.744-.252-1.032a1.701 1.701 0 00-1.512-.9c-.304 0-.592.08-.864.24-.264.152-.48.376-.648.672-.16.296-.24.644-.24 1.044s.08.748.24 1.044c.168.296.384.524.648.684.272.152.56.228.864.228.312 0 .6-.08.864-.24.272-.16.488-.388.648-.684.168-.296.252-.648.252-1.056zm5.889 3.456c-.64 0-1.216-.14-1.728-.42a3.15 3.15 0 01-1.212-1.212c-.288-.52-.432-1.12-.432-1.8 0-.68.148-1.28.444-1.8.304-.52.716-.92 1.236-1.2a3.53 3.53 0 011.74-.432c.64 0 1.22.144 1.74.432.52.28.928.68 1.224 1.2.304.52.456 1.12.456 1.8 0 .68-.156 1.28-.468 1.8-.304.52-.72.924-1.248 1.212-.52.28-1.104.42-1.752.42zm0-1.464c.304 0 .588-.072.852-.216.272-.152.488-.376.648-.672.16-.296.24-.656.24-1.08 0-.632-.168-1.116-.504-1.452a1.609 1.609 0 00-1.212-.516c-.48 0-.884.172-1.212.516-.32.336-.48.82-.48 1.452s.156 1.12.468 1.464c.32.336.72.504 1.2.504zm6.38-4.26c.216-.352.496-.628.84-.828.352-.2.752-.3 1.2-.3v1.764h-.444c-.528 0-.928.124-1.2.372-.264.248-.396.68-.396 1.296V334h-1.68v-6.648h1.68v1.032zm5.128.348v3.216c0 .224.052.388.156.492.112.096.296.144.552.144h.78V334h-1.056c-1.416 0-2.124-.688-2.124-2.064v-3.204h-.792v-1.38h.792v-1.644h1.692v1.644h1.488v1.38h-1.488z" fill="#484F5B"/><path fill="#FFF0F0" stroke="#FCDCDC" d="M62.5 431.5h259v109h-259z"/><rect x="75" y="463" width="33" height="10" rx="5" fill="#B1BBCC"/><rect x="201" y="493" width="105" height="10" rx="5" fill="#B1BBCC"/><rect x="201" y="463" width="33" height="10" rx="5" fill="#B1BBCC"/><path d="M79.716 452.084a4.34 4.34 0 01-2.16-.552 4.135 4.135 0 01-1.56-1.524c-.384-.656-.576-1.396-.576-2.22 0-.816.192-1.548.576-2.196a4.108 4.108 0 011.56-1.536 4.34 4.34 0 012.16-.552c.792 0 1.512.184 2.16.552.656.368 1.172.88 1.548 1.536.384.648.576 1.38.576 2.196 0 .824-.192 1.564-.576 2.22a4.047 4.047 0 01-1.548 1.524 4.34 4.34 0 01-2.16.552zm0-1.5c.504 0 .948-.112 1.332-.336.384-.232.684-.56.9-.984.216-.424.324-.916.324-1.476 0-.56-.108-1.048-.324-1.464a2.305 2.305 0 00-.9-.972c-.384-.224-.828-.336-1.332-.336a2.66 2.66 0 00-1.344.336 2.305 2.305 0 00-.9.972c-.216.416-.324.904-.324 1.464 0 .56.108 1.052.324 1.476.216.424.516.752.9.984.392.224.84.336 1.344.336zm7.214-4.272a2.51 2.51 0 01.888-.756c.384-.208.82-.312 1.308-.312a2.876 2.876 0 012.628 1.62c.272.512.408 1.108.408 1.788 0 .68-.136 1.284-.408 1.812-.264.52-.628.924-1.092 1.212a2.816 2.816 0 01-1.536.432c-.488 0-.92-.1-1.296-.3a2.786 2.786 0 01-.9-.756v4.116h-1.68v-9.816h1.68v.96zm3.516 2.34c0-.4-.084-.744-.252-1.032a1.701 1.701 0 00-1.512-.9c-.304 0-.592.08-.864.24-.264.152-.48.376-.648.672-.16.296-.24.644-.24 1.044s.08.748.24 1.044c.168.296.384.524.648.684.272.152.56.228.864.228.312 0 .6-.08.864-.24.272-.16.488-.388.648-.684.168-.296.252-.648.252-1.056zm9.117-.12c0 .24-.016.456-.048.648h-4.86c.04.48.208.856.504 1.128.296.272.66.408 1.092.408.624 0 1.068-.268 1.332-.804h1.812a3.059 3.059 0 01-1.104 1.584c-.544.408-1.212.612-2.004.612-.64 0-1.216-.14-1.728-.42a3.091 3.091 0 01-1.188-1.212c-.28-.52-.42-1.12-.42-1.8 0-.688.14-1.292.42-1.812.28-.52.672-.92 1.176-1.2.504-.28 1.084-.42 1.74-.42.632 0 1.196.136 1.692.408.504.272.892.66 1.164 1.164.28.496.42 1.068.42 1.716zm-1.74-.48c-.008-.432-.164-.776-.468-1.032-.304-.264-.676-.396-1.116-.396-.416 0-.768.128-1.056.384-.28.248-.452.596-.516 1.044h3.156zm4.646-1.668c.216-.352.496-.628.84-.828.352-.2.752-.3 1.2-.3v1.764h-.444c-.528 0-.928.124-1.2.372-.264.248-.396.68-.396 1.296V452h-1.68v-6.648h1.68v1.032zm2.739 2.268c0-.672.132-1.268.396-1.788.273-.52.637-.92 1.093-1.2.464-.28.98-.42 1.548-.42.496 0 .928.1 1.296.3.376.2.676.452.9.756v-.948h1.692V452h-1.692v-.972a2.539 2.539 0 01-.9.78c-.376.2-.812.3-1.308.3-.56 0-1.072-.144-1.536-.432a3.101 3.101 0 01-1.093-1.212c-.264-.528-.396-1.132-.396-1.812zm5.233.024c0-.408-.08-.756-.24-1.044a1.642 1.642 0 00-.648-.672 1.699 1.699 0 00-.876-.24c-.312 0-.6.076-.865.228a1.753 1.753 0 00-.647.672c-.16.288-.24.632-.24 1.032s.08.752.24 1.056c.168.296.384.524.647.684.273.16.561.24.865.24.312 0 .604-.076.876-.228.272-.16.488-.384.648-.672.16-.296.24-.648.24-1.056zm5.288-1.944v3.216c0 .224.052.388.156.492.112.096.296.144.552.144h.78V452h-1.056c-1.416 0-2.124-.688-2.124-2.064v-3.204h-.792v-1.38h.792v-1.644h1.692v1.644h1.488v1.38h-1.488zm3.549-2.172c-.296 0-.544-.092-.744-.276a.962.962 0 01-.288-.708c0-.28.096-.512.288-.696.2-.192.448-.288.744-.288s.54.096.732.288c.2.184.3.416.3.696 0 .28-.1.516-.3.708a1.015 1.015 0 01-.732.276zm.828.792V452h-1.68v-6.648h1.68zm4.612 6.756c-.64 0-1.216-.14-1.728-.42a3.15 3.15 0 01-1.212-1.212c-.288-.52-.432-1.12-.432-1.8 0-.68.148-1.28.444-1.8.304-.52.716-.92 1.236-1.2a3.53 3.53 0 011.74-.432c.64 0 1.22.144 1.74.432.52.28.928.68 1.224 1.2.304.52.456 1.12.456 1.8 0 .68-.156 1.28-.469 1.8a3.18 3.18 0 01-1.247 1.212c-.52.28-1.104.42-1.752.42zm0-1.464c.304 0 .588-.072.852-.216.272-.152.488-.376.648-.672.16-.296.24-.656.24-1.08 0-.632-.168-1.116-.504-1.452a1.609 1.609 0 00-1.212-.516c-.48 0-.884.172-1.212.516-.32.336-.48.82-.48 1.452s.156 1.12.468 1.464c.32.336.72.504 1.2.504zm8.384-5.388c.792 0 1.432.252 1.92.756.488.496.732 1.192.732 2.088v3.9h-1.68v-3.672c0-.528-.132-.932-.396-1.212-.264-.288-.624-.432-1.08-.432-.464 0-.832.144-1.104.432-.264.28-.396.684-.396 1.212V452h-1.68v-6.648h1.68v.828c.224-.288.508-.512.852-.672a2.64 2.64 0 011.152-.252zm6.701 2.544c0-.824.184-1.56.552-2.208a3.984 3.984 0 011.524-1.524c.648-.368 1.372-.552 2.172-.552.936 0 1.756.24 2.46.72s1.196 1.144 1.476 1.992h-1.932c-.192-.4-.464-.7-.816-.9-.344-.2-.744-.3-1.2-.3a2.48 2.48 0 00-1.308.348 2.346 2.346 0 00-.888.96c-.208.416-.312.904-.312 1.464 0 .552.104 1.04.312 1.464.216.416.512.74.888.972.384.224.82.336 1.308.336.456 0 .856-.1 1.2-.3.352-.208.624-.512.816-.912h1.932c-.28.856-.772 1.524-1.476 2.004-.696.472-1.516.708-2.46.708-.8 0-1.524-.18-2.172-.54a4.097 4.097 0 01-1.524-1.524c-.368-.648-.552-1.384-.552-2.208zm12.571 4.308c-.64 0-1.216-.14-1.728-.42a3.15 3.15 0 01-1.212-1.212c-.288-.52-.432-1.12-.432-1.8 0-.68.148-1.28.444-1.8.304-.52.716-.92 1.236-1.2a3.53 3.53 0 011.74-.432c.64 0 1.22.144 1.74.432.52.28.928.68 1.224 1.2.304.52.456 1.12.456 1.8 0 .68-.156 1.28-.468 1.8-.304.52-.72.924-1.248 1.212-.52.28-1.104.42-1.752.42zm0-1.464c.304 0 .588-.072.852-.216.272-.152.488-.376.648-.672.16-.296.24-.656.24-1.08 0-.632-.168-1.116-.504-1.452a1.609 1.609 0 00-1.212-.516c-.48 0-.884.172-1.212.516-.32.336-.48.82-.48 1.452s.156 1.12.468 1.464c.32.336.72.504 1.2.504zm10.976-5.292V452h-1.692v-.84a2.26 2.26 0 01-.852.684c-.344.16-.72.24-1.128.24-.52 0-.98-.108-1.38-.324a2.413 2.413 0 01-.948-.972c-.224-.432-.336-.944-.336-1.536v-3.9h1.68v3.66c0 .528.132.936.396 1.224.264.28.624.42 1.08.42.464 0 .828-.14 1.092-.42.264-.288.396-.696.396-1.224v-3.66h1.692zm5.342-.096c.792 0 1.432.252 1.92.756.488.496.732 1.192.732 2.088v3.9h-1.68v-3.672c0-.528-.132-.932-.396-1.212-.264-.288-.624-.432-1.08-.432-.464 0-.832.144-1.104.432-.264.28-.396.684-.396 1.212V452h-1.68v-6.648h1.68v.828c.224-.288.508-.512.852-.672a2.64 2.64 0 011.152-.252zm6.205 1.476v3.216c0 .224.052.388.156.492.112.096.296.144.552.144h.78V452h-1.056c-1.416 0-2.124-.688-2.124-2.064v-3.204h-.792v-1.38h.792v-1.644h1.692v1.644h1.488v1.38h-1.488zM81.528 493.624v1.356h-2.232V502h-1.68v-7.02h-2.232v-1.356h6.144zm4.178 8.484c-.64 0-1.216-.14-1.728-.42a3.15 3.15 0 01-1.212-1.212c-.288-.52-.432-1.12-.432-1.8 0-.68.148-1.28.444-1.8.304-.52.716-.92 1.236-1.2a3.53 3.53 0 011.74-.432c.64 0 1.22.144 1.74.432.52.28.928.68 1.224 1.2.304.52.456 1.12.456 1.8 0 .68-.156 1.28-.468 1.8-.304.52-.72.924-1.248 1.212-.52.28-1.104.42-1.752.42zm0-1.464c.304 0 .588-.072.852-.216.272-.152.488-.376.648-.672.16-.296.24-.656.24-1.08 0-.632-.168-1.116-.504-1.452a1.609 1.609 0 00-1.212-.516c-.48 0-.884.172-1.212.516-.32.336-.48.82-.48 1.452s.156 1.12.468 1.464c.32.336.72.504 1.2.504z" fill="#484F5B"/><rect x="201" y="516" width="105" height="10" rx="5" fill="#B1BBCC"/><path d="M80.964 523.404h-3.336L77.076 525h-1.764l3.012-8.388h1.956L83.292 525h-1.776l-.552-1.596zm-.456-1.344l-1.212-3.504-1.212 3.504h2.424zm12.166-3.804c.816 0 1.472.252 1.968.756.504.496.756 1.192.756 2.088v3.9h-1.68v-3.672c0-.52-.132-.916-.396-1.188-.264-.28-.624-.42-1.08-.42-.456 0-.82.14-1.092.42-.264.272-.396.668-.396 1.188V525h-1.68v-3.672c0-.52-.132-.916-.396-1.188-.264-.28-.624-.42-1.08-.42-.464 0-.832.14-1.104.42-.264.272-.396.668-.396 1.188V525h-1.68v-6.648h1.68v.804c.216-.28.492-.5.828-.66.344-.16.72-.24 1.128-.24.52 0 .984.112 1.392.336.408.216.724.528.948.936.216-.384.528-.692.936-.924a2.715 2.715 0 011.344-.348zm7.27 6.852c-.64 0-1.216-.14-1.728-.42a3.15 3.15 0 01-1.212-1.212c-.288-.52-.432-1.12-.432-1.8 0-.68.148-1.28.444-1.8.304-.52.716-.92 1.236-1.2a3.53 3.53 0 011.74-.432c.64 0 1.22.144 1.74.432.52.28.928.68 1.224 1.2.304.52.456 1.12.456 1.8 0 .68-.156 1.28-.468 1.8-.304.52-.72.924-1.248 1.212-.52.28-1.104.42-1.752.42zm0-1.464c.304 0 .588-.072.852-.216.272-.152.488-.376.648-.672.16-.296.24-.656.24-1.08 0-.632-.168-1.116-.504-1.452a1.609 1.609 0 00-1.212-.516c-.48 0-.884.172-1.212.516-.32.336-.48.82-.48 1.452s.156 1.12.468 1.464c.32.336.72.504 1.2.504zm10.976-5.292V525h-1.692v-.84a2.26 2.26 0 01-.852.684c-.344.16-.72.24-1.128.24-.52 0-.98-.108-1.38-.324a2.413 2.413 0 01-.948-.972c-.224-.432-.336-.944-.336-1.536v-3.9h1.68v3.66c0 .528.132.936.396 1.224.264.28.624.42 1.08.42.464 0 .828-.14 1.092-.42.264-.288.396-.696.396-1.224v-3.66h1.692zm5.342-.096c.792 0 1.432.252 1.92.756.488.496.732 1.192.732 2.088v3.9h-1.68v-3.672c0-.528-.132-.932-.396-1.212-.264-.288-.624-.432-1.08-.432-.464 0-.832.144-1.104.432-.264.28-.396.684-.396 1.212V525h-1.68v-6.648h1.68v.828c.224-.288.508-.512.852-.672a2.64 2.64 0 011.152-.252zm6.206 1.476v3.216c0 .224.052.388.156.492.112.096.296.144.552.144h.78V525H122.9c-1.416 0-2.124-.688-2.124-2.064v-3.204h-.792v-1.38h.792v-1.644h1.692v1.644h1.488v1.38h-1.488zM205.716 452.084a4.34 4.34 0 01-2.16-.552 4.135 4.135 0 01-1.56-1.524c-.384-.656-.576-1.396-.576-2.22 0-.816.192-1.548.576-2.196a4.108 4.108 0 011.56-1.536 4.34 4.34 0 012.16-.552c.792 0 1.512.184 2.16.552.656.368 1.172.88 1.548 1.536.384.648.576 1.38.576 2.196 0 .824-.192 1.564-.576 2.22a4.047 4.047 0 01-1.548 1.524 4.34 4.34 0 01-2.16.552zm0-1.5c.504 0 .948-.112 1.332-.336.384-.232.684-.56.9-.984.216-.424.324-.916.324-1.476 0-.56-.108-1.048-.324-1.464a2.305 2.305 0 00-.9-.972c-.384-.224-.828-.336-1.332-.336a2.66 2.66 0 00-1.344.336 2.305 2.305 0 00-.9.972c-.216.416-.324.904-.324 1.464 0 .56.108 1.052.324 1.476.216.424.516.752.9.984.392.224.84.336 1.344.336zm11.81-5.232V452h-1.692v-.84a2.26 2.26 0 01-.852.684c-.344.16-.72.24-1.128.24-.52 0-.98-.108-1.38-.324a2.413 2.413 0 01-.948-.972c-.224-.432-.336-.944-.336-1.536v-3.9h1.68v3.66c0 .528.132.936.396 1.224.264.28.624.42 1.08.42.464 0 .828-.14 1.092-.42.264-.288.396-.696.396-1.224v-3.66h1.692zm3.613 1.38v3.216c0 .224.052.388.156.492.112.096.296.144.552.144h.78V452h-1.056c-1.416 0-2.124-.688-2.124-2.064v-3.204h-.792v-1.38h.792v-1.644h1.692v1.644h1.488v1.38h-1.488zm5.301-1.488c.496 0 .932.1 1.308.3.376.192.672.444.888.756v-.948h1.692v6.696c0 .616-.124 1.164-.372 1.644-.248.488-.62.872-1.116 1.152-.496.288-1.096.432-1.8.432-.944 0-1.72-.22-2.328-.66-.6-.44-.94-1.04-1.02-1.8h1.668c.088.304.276.544.564.72.296.184.652.276 1.068.276.488 0 .884-.148 1.188-.444.304-.288.456-.728.456-1.32v-1.032a2.539 2.539 0 01-.9.78 2.633 2.633 0 01-1.296.312c-.56 0-1.072-.144-1.536-.432a3.06 3.06 0 01-1.104-1.212c-.264-.528-.396-1.132-.396-1.812 0-.672.132-1.268.396-1.788.272-.52.636-.92 1.092-1.2.464-.28.98-.42 1.548-.42zm2.196 3.432c0-.408-.08-.756-.24-1.044a1.642 1.642 0 00-.648-.672 1.699 1.699 0 00-.876-.24c-.312 0-.6.076-.864.228-.264.152-.48.376-.648.672-.16.288-.24.632-.24 1.032s.08.752.24 1.056c.168.296.384.524.648.684.272.16.56.24.864.24.312 0 .604-.076.876-.228.272-.16.488-.384.648-.672.16-.296.24-.648.24-1.056zm6.285 3.432c-.64 0-1.216-.14-1.728-.42a3.15 3.15 0 01-1.212-1.212c-.288-.52-.432-1.12-.432-1.8 0-.68.148-1.28.444-1.8.304-.52.716-.92 1.236-1.2a3.53 3.53 0 011.74-.432c.64 0 1.22.144 1.74.432.52.28.928.68 1.224 1.2.304.52.456 1.12.456 1.8 0 .68-.156 1.28-.468 1.8-.304.52-.72.924-1.248 1.212-.52.28-1.104.42-1.752.42zm0-1.464c.304 0 .588-.072.852-.216.272-.152.488-.376.648-.672.16-.296.24-.656.24-1.08 0-.632-.168-1.116-.504-1.452a1.609 1.609 0 00-1.212-.516c-.48 0-.884.172-1.212.516-.32.336-.48.82-.48 1.452s.156 1.12.468 1.464c.32.336.72.504 1.2.504zm5.552-6.084c-.296 0-.544-.092-.744-.276a.962.962 0 01-.288-.708c0-.28.096-.512.288-.696.2-.192.448-.288.744-.288s.54.096.732.288c.2.184.3.416.3.696 0 .28-.1.516-.3.708a1.015 1.015 0 01-.732.276zm.828.792V452h-1.68v-6.648h1.68zm5.344-.096c.792 0 1.432.252 1.92.756.488.496.732 1.192.732 2.088v3.9h-1.68v-3.672c0-.528-.132-.932-.396-1.212-.264-.288-.624-.432-1.08-.432-.464 0-.832.144-1.104.432-.264.28-.396.684-.396 1.212V452h-1.68v-6.648h1.68v.828c.224-.288.508-.512.852-.672a2.64 2.64 0 011.152-.252zm6.853-.012c.496 0 .932.1 1.308.3.376.192.672.444.888.756v-.948h1.692v6.696c0 .616-.124 1.164-.372 1.644-.248.488-.62.872-1.116 1.152-.496.288-1.096.432-1.8.432-.944 0-1.72-.22-2.328-.66-.6-.44-.94-1.04-1.02-1.8h1.668c.088.304.276.544.564.72.296.184.652.276 1.068.276.488 0 .884-.148 1.188-.444.304-.288.456-.728.456-1.32v-1.032a2.539 2.539 0 01-.9.78 2.633 2.633 0 01-1.296.312c-.56 0-1.072-.144-1.536-.432a3.06 3.06 0 01-1.104-1.212c-.264-.528-.396-1.132-.396-1.812 0-.672.132-1.268.396-1.788.272-.52.636-.92 1.092-1.2.464-.28.98-.42 1.548-.42zm2.196 3.432c0-.408-.08-.756-.24-1.044a1.642 1.642 0 00-.648-.672 1.699 1.699 0 00-.876-.24c-.312 0-.6.076-.864.228-.264.152-.48.376-.648.672-.16.288-.24.632-.24 1.032s.08.752.24 1.056c.168.296.384.524.648.684.272.16.56.24.864.24.312 0 .604-.076.876-.228.272-.16.488-.384.648-.672.16-.296.24-.648.24-1.056zm9.085 3.408c-.584 0-1.112-.1-1.584-.3a2.597 2.597 0 01-1.104-.864c-.272-.376-.412-.82-.42-1.332h1.8c.024.344.144.616.36.816.224.2.528.3.912.3.392 0 .7-.092.924-.276a.935.935 0 00.336-.744.853.853 0 00-.228-.612 1.527 1.527 0 00-.576-.372 7.887 7.887 0 00-.936-.312c-.544-.16-.988-.316-1.332-.468a2.469 2.469 0 01-.876-.708c-.24-.32-.36-.744-.36-1.272 0-.496.124-.928.372-1.296a2.328 2.328 0 011.044-.84c.448-.2.96-.3 1.536-.3.864 0 1.564.212 2.1.636.544.416.844 1 .9 1.752h-1.848a.935.935 0 00-.372-.708c-.224-.192-.524-.288-.9-.288-.328 0-.592.084-.792.252-.192.168-.288.412-.288.732 0 .224.072.412.216.564.152.144.336.264.552.36.224.088.536.192.936.312.544.16.988.32 1.332.48.344.16.64.4.888.72.248.32.372.74.372 1.26 0 .448-.116.864-.348 1.248-.232.384-.572.692-1.02.924-.448.224-.98.336-1.596.336zm10.696-6.732V452h-1.692v-.84a2.26 2.26 0 01-.852.684c-.344.16-.72.24-1.128.24-.52 0-.98-.108-1.38-.324a2.413 2.413 0 01-.948-.972c-.224-.432-.336-.944-.336-1.536v-3.9h1.68v3.66c0 .528.132.936.396 1.224.264.28.624.42 1.08.42.464 0 .828-.14 1.092-.42.264-.288.396-.696.396-1.224v-3.66h1.692zm3.338.96a2.51 2.51 0 01.888-.756c.384-.208.82-.312 1.308-.312a2.876 2.876 0 012.628 1.62c.272.512.408 1.108.408 1.788 0 .68-.136 1.284-.408 1.812-.264.52-.628.924-1.092 1.212a2.816 2.816 0 01-1.536.432c-.488 0-.92-.1-1.296-.3a2.786 2.786 0 01-.9-.756v4.116h-1.68v-9.816h1.68v.96zm3.516 2.34c0-.4-.084-.744-.252-1.032a1.701 1.701 0 00-1.512-.9c-.304 0-.592.08-.864.24-.264.152-.48.376-.648.672-.16.296-.24.644-.24 1.044s.08.748.24 1.044c.168.296.384.524.648.684.272.152.56.228.864.228.312 0 .6-.08.864-.24.272-.16.488-.388.648-.684.168-.296.252-.648.252-1.056zm4.617-2.34a2.51 2.51 0 01.888-.756c.384-.208.82-.312 1.308-.312a2.876 2.876 0 012.628 1.62c.272.512.408 1.108.408 1.788 0 .68-.136 1.284-.408 1.812-.264.52-.628.924-1.092 1.212a2.816 2.816 0 01-1.536.432c-.488 0-.92-.1-1.296-.3a2.786 2.786 0 01-.9-.756v4.116h-1.68v-9.816h1.68v.96zm3.516 2.34c0-.4-.084-.744-.252-1.032a1.701 1.701 0 00-1.512-.9c-.304 0-.592.08-.864.24-.264.152-.48.376-.648.672-.16.296-.24.644-.24 1.044s.08.748.24 1.044c.168.296.384.524.648.684.272.152.56.228.864.228.312 0 .6-.08.864-.24.272-.16.488-.388.648-.684.168-.296.252-.648.252-1.056zm5.888 3.456c-.64 0-1.216-.14-1.728-.42a3.15 3.15 0 01-1.212-1.212c-.288-.52-.432-1.12-.432-1.8 0-.68.148-1.28.444-1.8.304-.52.716-.92 1.236-1.2a3.53 3.53 0 011.74-.432c.64 0 1.22.144 1.74.432.52.28.928.68 1.224 1.2.304.52.456 1.12.456 1.8 0 .68-.156 1.28-.468 1.8-.304.52-.72.924-1.248 1.212-.52.28-1.104.42-1.752.42zm0-1.464c.304 0 .588-.072.852-.216.272-.152.488-.376.648-.672.16-.296.24-.656.24-1.08 0-.632-.168-1.116-.504-1.452a1.609 1.609 0 00-1.212-.516c-.48 0-.884.172-1.212.516-.32.336-.48.82-.48 1.452s.156 1.12.468 1.464c.32.336.72.504 1.2.504zm6.381-4.26c.216-.352.496-.628.84-.828.352-.2.752-.3 1.2-.3v1.764h-.444c-.528 0-.928.124-1.2.372-.264.248-.396.68-.396 1.296V452h-1.68v-6.648h1.68v1.032zm5.127.348v3.216c0 .224.052.388.156.492.112.096.296.144.552.144h.78V452h-1.056c-1.416 0-2.124-.688-2.124-2.064v-3.204h-.792v-1.38h.792v-1.644h1.692v1.644h1.488v1.38h-1.488z" fill="#484F5B"/><rect x="62" y="560" width="100" height="10" rx="5" fill="#B1BBCC"/><path fill="#F0FFF4" stroke="#DCFCE5" d="M62.5 578.5h259v109h-259z"/><rect x="75" y="610" width="33" height="10" rx="5" fill="#B1BBCC"/><rect x="201" y="640" width="105" height="10" rx="5" fill="#B1BBCC"/><rect x="201" y="610" width="33" height="10" rx="5" fill="#B1BBCC"/><path d="M79.716 599.084a4.34 4.34 0 01-2.16-.552 4.135 4.135 0 01-1.56-1.524c-.384-.656-.576-1.396-.576-2.22 0-.816.192-1.548.576-2.196a4.108 4.108 0 011.56-1.536 4.34 4.34 0 012.16-.552c.792 0 1.512.184 2.16.552.656.368 1.172.88 1.548 1.536.384.648.576 1.38.576 2.196 0 .824-.192 1.564-.576 2.22a4.047 4.047 0 01-1.548 1.524 4.34 4.34 0 01-2.16.552zm0-1.5c.504 0 .948-.112 1.332-.336.384-.232.684-.56.9-.984.216-.424.324-.916.324-1.476 0-.56-.108-1.048-.324-1.464a2.305 2.305 0 00-.9-.972c-.384-.224-.828-.336-1.332-.336a2.66 2.66 0 00-1.344.336 2.305 2.305 0 00-.9.972c-.216.416-.324.904-.324 1.464 0 .56.108 1.052.324 1.476.216.424.516.752.9.984.392.224.84.336 1.344.336zm7.214-4.272a2.51 2.51 0 01.888-.756c.384-.208.82-.312 1.308-.312a2.876 2.876 0 012.628 1.62c.272.512.408 1.108.408 1.788 0 .68-.136 1.284-.408 1.812-.264.52-.628.924-1.092 1.212a2.816 2.816 0 01-1.536.432c-.488 0-.92-.1-1.296-.3a2.786 2.786 0 01-.9-.756v4.116h-1.68v-9.816h1.68v.96zm3.516 2.34c0-.4-.084-.744-.252-1.032a1.701 1.701 0 00-1.512-.9c-.304 0-.592.08-.864.24-.264.152-.48.376-.648.672-.16.296-.24.644-.24 1.044s.08.748.24 1.044c.168.296.384.524.648.684.272.152.56.228.864.228.312 0 .6-.08.864-.24.272-.16.488-.388.648-.684.168-.296.252-.648.252-1.056zm9.117-.12c0 .24-.016.456-.048.648h-4.86c.04.48.208.856.504 1.128.296.272.66.408 1.092.408.624 0 1.068-.268 1.332-.804h1.812a3.059 3.059 0 01-1.104 1.584c-.544.408-1.212.612-2.004.612-.64 0-1.216-.14-1.728-.42a3.091 3.091 0 01-1.188-1.212c-.28-.52-.42-1.12-.42-1.8 0-.688.14-1.292.42-1.812.28-.52.672-.92 1.176-1.2.504-.28 1.084-.42 1.74-.42.632 0 1.196.136 1.692.408.504.272.892.66 1.164 1.164.28.496.42 1.068.42 1.716zm-1.74-.48c-.008-.432-.164-.776-.468-1.032-.304-.264-.676-.396-1.116-.396-.416 0-.768.128-1.056.384-.28.248-.452.596-.516 1.044h3.156zm4.646-1.668c.216-.352.496-.628.84-.828.352-.2.752-.3 1.2-.3v1.764h-.444c-.528 0-.928.124-1.2.372-.264.248-.396.68-.396 1.296V599h-1.68v-6.648h1.68v1.032zm2.739 2.268c0-.672.132-1.268.396-1.788.273-.52.637-.92 1.093-1.2.464-.28.98-.42 1.548-.42.496 0 .928.1 1.296.3.376.2.676.452.9.756v-.948h1.692V599h-1.692v-.972a2.539 2.539 0 01-.9.78c-.376.2-.812.3-1.308.3-.56 0-1.072-.144-1.536-.432a3.101 3.101 0 01-1.093-1.212c-.264-.528-.396-1.132-.396-1.812zm5.233.024c0-.408-.08-.756-.24-1.044a1.642 1.642 0 00-.648-.672 1.699 1.699 0 00-.876-.24c-.312 0-.6.076-.865.228a1.753 1.753 0 00-.647.672c-.16.288-.24.632-.24 1.032s.08.752.24 1.056c.168.296.384.524.647.684.273.16.561.24.865.24.312 0 .604-.076.876-.228.272-.16.488-.384.648-.672.16-.296.24-.648.24-1.056zm5.288-1.944v3.216c0 .224.052.388.156.492.112.096.296.144.552.144h.78V599h-1.056c-1.416 0-2.124-.688-2.124-2.064v-3.204h-.792v-1.38h.792v-1.644h1.692v1.644h1.488v1.38h-1.488zm3.549-2.172c-.296 0-.544-.092-.744-.276a.962.962 0 01-.288-.708c0-.28.096-.512.288-.696.2-.192.448-.288.744-.288s.54.096.732.288c.2.184.3.416.3.696 0 .28-.1.516-.3.708a1.015 1.015 0 01-.732.276zm.828.792V599h-1.68v-6.648h1.68zm4.612 6.756c-.64 0-1.216-.14-1.728-.42a3.15 3.15 0 01-1.212-1.212c-.288-.52-.432-1.12-.432-1.8 0-.68.148-1.28.444-1.8.304-.52.716-.92 1.236-1.2a3.53 3.53 0 011.74-.432c.64 0 1.22.144 1.74.432.52.28.928.68 1.224 1.2.304.52.456 1.12.456 1.8 0 .68-.156 1.28-.469 1.8a3.18 3.18 0 01-1.247 1.212c-.52.28-1.104.42-1.752.42zm0-1.464c.304 0 .588-.072.852-.216.272-.152.488-.376.648-.672.16-.296.24-.656.24-1.08 0-.632-.168-1.116-.504-1.452a1.609 1.609 0 00-1.212-.516c-.48 0-.884.172-1.212.516-.32.336-.48.82-.48 1.452s.156 1.12.468 1.464c.32.336.72.504 1.2.504zm8.384-5.388c.792 0 1.432.252 1.92.756.488.496.732 1.192.732 2.088v3.9h-1.68v-3.672c0-.528-.132-.932-.396-1.212-.264-.288-.624-.432-1.08-.432-.464 0-.832.144-1.104.432-.264.28-.396.684-.396 1.212V599h-1.68v-6.648h1.68v.828c.224-.288.508-.512.852-.672a2.64 2.64 0 011.152-.252zm6.701 2.544c0-.824.184-1.56.552-2.208a3.984 3.984 0 011.524-1.524c.648-.368 1.372-.552 2.172-.552.936 0 1.756.24 2.46.72s1.196 1.144 1.476 1.992h-1.932c-.192-.4-.464-.7-.816-.9-.344-.2-.744-.3-1.2-.3a2.48 2.48 0 00-1.308.348 2.346 2.346 0 00-.888.96c-.208.416-.312.904-.312 1.464 0 .552.104 1.04.312 1.464.216.416.512.74.888.972.384.224.82.336 1.308.336.456 0 .856-.1 1.2-.3.352-.208.624-.512.816-.912h1.932c-.28.856-.772 1.524-1.476 2.004-.696.472-1.516.708-2.46.708-.8 0-1.524-.18-2.172-.54a4.097 4.097 0 01-1.524-1.524c-.368-.648-.552-1.384-.552-2.208zm12.571 4.308c-.64 0-1.216-.14-1.728-.42a3.15 3.15 0 01-1.212-1.212c-.288-.52-.432-1.12-.432-1.8 0-.68.148-1.28.444-1.8.304-.52.716-.92 1.236-1.2a3.53 3.53 0 011.74-.432c.64 0 1.22.144 1.74.432.52.28.928.68 1.224 1.2.304.52.456 1.12.456 1.8 0 .68-.156 1.28-.468 1.8-.304.52-.72.924-1.248 1.212-.52.28-1.104.42-1.752.42zm0-1.464c.304 0 .588-.072.852-.216.272-.152.488-.376.648-.672.16-.296.24-.656.24-1.08 0-.632-.168-1.116-.504-1.452a1.609 1.609 0 00-1.212-.516c-.48 0-.884.172-1.212.516-.32.336-.48.82-.48 1.452s.156 1.12.468 1.464c.32.336.72.504 1.2.504zm10.976-5.292V599h-1.692v-.84a2.26 2.26 0 01-.852.684c-.344.16-.72.24-1.128.24-.52 0-.98-.108-1.38-.324a2.413 2.413 0 01-.948-.972c-.224-.432-.336-.944-.336-1.536v-3.9h1.68v3.66c0 .528.132.936.396 1.224.264.28.624.42 1.08.42.464 0 .828-.14 1.092-.42.264-.288.396-.696.396-1.224v-3.66h1.692zm5.342-.096c.792 0 1.432.252 1.92.756.488.496.732 1.192.732 2.088v3.9h-1.68v-3.672c0-.528-.132-.932-.396-1.212-.264-.288-.624-.432-1.08-.432-.464 0-.832.144-1.104.432-.264.28-.396.684-.396 1.212V599h-1.68v-6.648h1.68v.828c.224-.288.508-.512.852-.672a2.64 2.64 0 011.152-.252zm6.205 1.476v3.216c0 .224.052.388.156.492.112.096.296.144.552.144h.78V599h-1.056c-1.416 0-2.124-.688-2.124-2.064v-3.204h-.792v-1.38h.792v-1.644h1.692v1.644h1.488v1.38h-1.488zM81 640.624v1.356h-3.492v2.148h2.676v1.332h-2.676V649h-1.68v-8.376H81zm2.871 2.76c.216-.352.496-.628.84-.828.352-.2.752-.3 1.2-.3v1.764h-.444c-.528 0-.928.124-1.2.372-.264.248-.396.68-.396 1.296V649h-1.68v-6.648h1.68v1.032zm6.124 5.724c-.64 0-1.216-.14-1.728-.42a3.15 3.15 0 01-1.212-1.212c-.288-.52-.432-1.12-.432-1.8 0-.68.148-1.28.444-1.8.304-.52.716-.92 1.236-1.2a3.53 3.53 0 011.74-.432c.64 0 1.22.144 1.74.432.52.28.928.68 1.224 1.2.304.52.456 1.12.456 1.8 0 .68-.156 1.28-.468 1.8-.304.52-.72.924-1.248 1.212-.52.28-1.104.42-1.752.42zm0-1.464c.304 0 .588-.072.852-.216.272-.152.488-.376.648-.672.16-.296.24-.656.24-1.08 0-.632-.168-1.116-.504-1.452a1.609 1.609 0 00-1.212-.516c-.48 0-.884.172-1.212.516-.32.336-.48.82-.48 1.452s.156 1.12.468 1.464c.32.336.72.504 1.2.504zm12.956-5.388c.816 0 1.472.252 1.968.756.504.496.756 1.192.756 2.088v3.9h-1.68v-3.672c0-.52-.132-.916-.396-1.188-.264-.28-.624-.42-1.08-.42-.456 0-.82.14-1.092.42-.264.272-.396.668-.396 1.188V649h-1.68v-3.672c0-.52-.132-.916-.396-1.188-.264-.28-.624-.42-1.08-.42-.464 0-.832.14-1.104.42-.264.272-.396.668-.396 1.188V649h-1.68v-6.648h1.68v.804c.216-.28.492-.5.828-.66.344-.16.72-.24 1.128-.24.52 0 .984.112 1.392.336.408.216.724.528.948.936.216-.384.528-.692.936-.924a2.715 2.715 0 011.344-.348z" fill="#484F5B"/><rect x="201" y="663" width="105" height="10" rx="5" fill="#B1BBCC"/><path d="M80.964 670.404h-3.336L77.076 672h-1.764l3.012-8.388h1.956L83.292 672h-1.776l-.552-1.596zm-.456-1.344l-1.212-3.504-1.212 3.504h2.424zm12.166-3.804c.816 0 1.472.252 1.968.756.504.496.756 1.192.756 2.088v3.9h-1.68v-3.672c0-.52-.132-.916-.396-1.188-.264-.28-.624-.42-1.08-.42-.456 0-.82.14-1.092.42-.264.272-.396.668-.396 1.188V672h-1.68v-3.672c0-.52-.132-.916-.396-1.188-.264-.28-.624-.42-1.08-.42-.464 0-.832.14-1.104.42-.264.272-.396.668-.396 1.188V672h-1.68v-6.648h1.68v.804c.216-.28.492-.5.828-.66.344-.16.72-.24 1.128-.24.52 0 .984.112 1.392.336.408.216.724.528.948.936.216-.384.528-.692.936-.924a2.715 2.715 0 011.344-.348zm7.27 6.852c-.64 0-1.216-.14-1.728-.42a3.15 3.15 0 01-1.212-1.212c-.288-.52-.432-1.12-.432-1.8 0-.68.148-1.28.444-1.8.304-.52.716-.92 1.236-1.2a3.53 3.53 0 011.74-.432c.64 0 1.22.144 1.74.432.52.28.928.68 1.224 1.2.304.52.456 1.12.456 1.8 0 .68-.156 1.28-.468 1.8-.304.52-.72.924-1.248 1.212-.52.28-1.104.42-1.752.42zm0-1.464c.304 0 .588-.072.852-.216.272-.152.488-.376.648-.672.16-.296.24-.656.24-1.08 0-.632-.168-1.116-.504-1.452a1.609 1.609 0 00-1.212-.516c-.48 0-.884.172-1.212.516-.32.336-.48.82-.48 1.452s.156 1.12.468 1.464c.32.336.72.504 1.2.504zm10.976-5.292V672h-1.692v-.84a2.26 2.26 0 01-.852.684c-.344.16-.72.24-1.128.24-.52 0-.98-.108-1.38-.324a2.413 2.413 0 01-.948-.972c-.224-.432-.336-.944-.336-1.536v-3.9h1.68v3.66c0 .528.132.936.396 1.224.264.28.624.42 1.08.42.464 0 .828-.14 1.092-.42.264-.288.396-.696.396-1.224v-3.66h1.692zm5.342-.096c.792 0 1.432.252 1.92.756.488.496.732 1.192.732 2.088v3.9h-1.68v-3.672c0-.528-.132-.932-.396-1.212-.264-.288-.624-.432-1.08-.432-.464 0-.832.144-1.104.432-.264.28-.396.684-.396 1.212V672h-1.68v-6.648h1.68v.828c.224-.288.508-.512.852-.672a2.64 2.64 0 011.152-.252zm6.206 1.476v3.216c0 .224.052.388.156.492.112.096.296.144.552.144h.78V672H122.9c-1.416 0-2.124-.688-2.124-2.064v-3.204h-.792v-1.38h.792v-1.644h1.692v1.644h1.488v1.38h-1.488zM203.508 590.624V599h-1.68v-8.376h1.68zm5.344 1.632c.792 0 1.432.252 1.92.756.488.496.732 1.192.732 2.088v3.9h-1.68v-3.672c0-.528-.132-.932-.396-1.212-.264-.288-.624-.432-1.08-.432-.464 0-.832.144-1.104.432-.264.28-.396.684-.396 1.212V599h-1.68v-6.648h1.68v.828c.224-.288.508-.512.852-.672a2.64 2.64 0 011.152-.252zm3.817 3.42c0-.688.14-1.288.42-1.8.28-.52.668-.92 1.164-1.2.496-.288 1.064-.432 1.704-.432.824 0 1.504.208 2.04.624.544.408.908.984 1.092 1.728h-1.812a1.282 1.282 0 00-.492-.672c-.224-.168-.504-.252-.84-.252-.48 0-.86.176-1.14.528-.28.344-.42.836-.42 1.476 0 .632.14 1.124.42 1.476.28.344.66.516 1.14.516.68 0 1.124-.304 1.332-.912h1.812c-.184.72-.548 1.292-1.092 1.716-.544.424-1.224.636-2.04.636-.64 0-1.208-.14-1.704-.42a3.054 3.054 0 01-1.164-1.2c-.28-.52-.42-1.124-.42-1.812zm10.603 3.432c-.64 0-1.216-.14-1.728-.42a3.15 3.15 0 01-1.212-1.212c-.288-.52-.432-1.12-.432-1.8 0-.68.148-1.28.444-1.8.304-.52.716-.92 1.236-1.2a3.53 3.53 0 011.74-.432c.64 0 1.22.144 1.74.432.52.28.928.68 1.224 1.2.304.52.456 1.12.456 1.8 0 .68-.156 1.28-.468 1.8-.304.52-.72.924-1.248 1.212-.52.28-1.104.42-1.752.42zm0-1.464c.304 0 .588-.072.852-.216.272-.152.488-.376.648-.672.16-.296.24-.656.24-1.08 0-.632-.168-1.116-.504-1.452a1.609 1.609 0 00-1.212-.516c-.48 0-.884.172-1.212.516-.32.336-.48.82-.48 1.452s.156 1.12.468 1.464c.32.336.72.504 1.2.504zm12.957-5.388c.816 0 1.472.252 1.968.756.504.496.756 1.192.756 2.088v3.9h-1.68v-3.672c0-.52-.132-.916-.396-1.188-.264-.28-.624-.42-1.08-.42-.456 0-.82.14-1.092.42-.264.272-.396.668-.396 1.188V599h-1.68v-3.672c0-.52-.132-.916-.396-1.188-.264-.28-.624-.42-1.08-.42-.464 0-.832.14-1.104.42-.264.272-.396.668-.396 1.188V599h-1.68v-6.648h1.68v.804c.216-.28.492-.5.828-.66.344-.16.72-.24 1.128-.24.52 0 .984.112 1.392.336.408.216.724.528.948.936.216-.384.528-.692.936-.924a2.715 2.715 0 011.344-.348zm5.17-.696c-.296 0-.544-.092-.744-.276a.962.962 0 01-.288-.708c0-.28.096-.512.288-.696.2-.192.448-.288.744-.288s.54.096.732.288c.2.184.3.416.3.696 0 .28-.1.516-.3.708a1.015 1.015 0 01-.732.276zm.828.792V599h-1.68v-6.648h1.68zm5.344-.096c.792 0 1.432.252 1.92.756.488.496.732 1.192.732 2.088v3.9h-1.68v-3.672c0-.528-.132-.932-.396-1.212-.264-.288-.624-.432-1.08-.432-.464 0-.832.144-1.104.432-.264.28-.396.684-.396 1.212V599h-1.68v-6.648h1.68v.828c.224-.288.508-.512.852-.672a2.64 2.64 0 011.152-.252zm6.853-.012c.496 0 .932.1 1.308.3.376.192.672.444.888.756v-.948h1.692v6.696c0 .616-.124 1.164-.372 1.644-.248.488-.62.872-1.116 1.152-.496.288-1.096.432-1.8.432-.944 0-1.72-.22-2.328-.66-.6-.44-.94-1.04-1.02-1.8h1.668c.088.304.276.544.564.72.296.184.652.276 1.068.276.488 0 .884-.148 1.188-.444.304-.288.456-.728.456-1.32v-1.032a2.539 2.539 0 01-.9.78 2.633 2.633 0 01-1.296.312c-.56 0-1.072-.144-1.536-.432a3.06 3.06 0 01-1.104-1.212c-.264-.528-.396-1.132-.396-1.812 0-.672.132-1.268.396-1.788.272-.52.636-.92 1.092-1.2.464-.28.98-.42 1.548-.42zm2.196 3.432c0-.408-.08-.756-.24-1.044a1.642 1.642 0 00-.648-.672 1.699 1.699 0 00-.876-.24c-.312 0-.6.076-.864.228-.264.152-.48.376-.648.672-.16.288-.24.632-.24 1.032s.08.752.24 1.056c.168.296.384.524.648.684.272.16.56.24.864.24.312 0 .604-.076.876-.228.272-.16.488-.384.648-.672.16-.296.24-.648.24-1.056zm9.084 3.408c-.584 0-1.112-.1-1.584-.3a2.597 2.597 0 01-1.104-.864c-.272-.376-.412-.82-.42-1.332h1.8c.024.344.144.616.36.816.224.2.528.3.912.3.392 0 .7-.092.924-.276a.935.935 0 00.336-.744.853.853 0 00-.228-.612 1.527 1.527 0 00-.576-.372 7.887 7.887 0 00-.936-.312c-.544-.16-.988-.316-1.332-.468a2.469 2.469 0 01-.876-.708c-.24-.32-.36-.744-.36-1.272 0-.496.124-.928.372-1.296a2.328 2.328 0 011.044-.84c.448-.2.96-.3 1.536-.3.864 0 1.564.212 2.1.636.544.416.844 1 .9 1.752h-1.848a.935.935 0 00-.372-.708c-.224-.192-.524-.288-.9-.288-.328 0-.592.084-.792.252-.192.168-.288.412-.288.732 0 .224.072.412.216.564.152.144.336.264.552.36.224.088.536.192.936.312.544.16.988.32 1.332.48.344.16.64.4.888.72.248.32.372.74.372 1.26 0 .448-.116.864-.348 1.248-.232.384-.572.692-1.02.924-.448.224-.98.336-1.596.336zm10.697-6.732V599h-1.692v-.84a2.26 2.26 0 01-.852.684c-.344.16-.72.24-1.128.24-.52 0-.98-.108-1.38-.324a2.413 2.413 0 01-.948-.972c-.224-.432-.336-.944-.336-1.536v-3.9h1.68v3.66c0 .528.132.936.396 1.224.264.28.624.42 1.08.42.464 0 .828-.14 1.092-.42.264-.288.396-.696.396-1.224v-3.66h1.692zm3.337.96a2.51 2.51 0 01.888-.756c.384-.208.82-.312 1.308-.312a2.876 2.876 0 012.628 1.62c.272.512.408 1.108.408 1.788 0 .68-.136 1.284-.408 1.812-.264.52-.628.924-1.092 1.212a2.816 2.816 0 01-1.536.432c-.488 0-.92-.1-1.296-.3a2.786 2.786 0 01-.9-.756v4.116h-1.68v-9.816h1.68v.96zm3.516 2.34c0-.4-.084-.744-.252-1.032a1.701 1.701 0 00-1.512-.9c-.304 0-.592.08-.864.24-.264.152-.48.376-.648.672-.16.296-.24.644-.24 1.044s.08.748.24 1.044c.168.296.384.524.648.684.272.152.56.228.864.228.312 0 .6-.08.864-.24.272-.16.488-.388.648-.684.168-.296.252-.648.252-1.056zm4.617-2.34a2.51 2.51 0 01.888-.756c.384-.208.82-.312 1.308-.312a2.876 2.876 0 012.628 1.62c.272.512.408 1.108.408 1.788 0 .68-.136 1.284-.408 1.812-.264.52-.628.924-1.092 1.212a2.816 2.816 0 01-1.536.432c-.488 0-.92-.1-1.296-.3a2.786 2.786 0 01-.9-.756v4.116h-1.68v-9.816h1.68v.96zm3.516 2.34c0-.4-.084-.744-.252-1.032a1.701 1.701 0 00-1.512-.9c-.304 0-.592.08-.864.24-.264.152-.48.376-.648.672-.16.296-.24.644-.24 1.044s.08.748.24 1.044c.168.296.384.524.648.684.272.152.56.228.864.228.312 0 .6-.08.864-.24.272-.16.488-.388.648-.684.168-.296.252-.648.252-1.056zm5.889 3.456c-.64 0-1.216-.14-1.728-.42a3.15 3.15 0 01-1.212-1.212c-.288-.52-.432-1.12-.432-1.8 0-.68.148-1.28.444-1.8.304-.52.716-.92 1.236-1.2a3.53 3.53 0 011.74-.432c.64 0 1.22.144 1.74.432.52.28.928.68 1.224 1.2.304.52.456 1.12.456 1.8 0 .68-.156 1.28-.468 1.8-.304.52-.72.924-1.248 1.212-.52.28-1.104.42-1.752.42zm0-1.464c.304 0 .588-.072.852-.216.272-.152.488-.376.648-.672.16-.296.24-.656.24-1.08 0-.632-.168-1.116-.504-1.452a1.609 1.609 0 00-1.212-.516c-.48 0-.884.172-1.212.516-.32.336-.48.82-.48 1.452s.156 1.12.468 1.464c.32.336.72.504 1.2.504zm6.38-4.26c.216-.352.496-.628.84-.828.352-.2.752-.3 1.2-.3v1.764h-.444c-.528 0-.928.124-1.2.372-.264.248-.396.68-.396 1.296V599h-1.68v-6.648h1.68v1.032zm5.128.348v3.216c0 .224.052.388.156.492.112.096.296.144.552.144h.78V599h-1.056c-1.416 0-2.124-.688-2.124-2.064v-3.204h-.792v-1.38h.792v-1.644h1.692v1.644h1.488v1.38h-1.488z" fill="#484F5B"/><path fill="#FFF0F0" stroke="#FCDCDC" d="M62.5 696.5h259v109h-259z"/><path d="M77.508 708.624V717h-1.68v-8.376h1.68zm-.84-.804a.766.766 0 01-.564-.228.766.766 0 01-.228-.564c0-.224.076-.412.228-.564.152-.16.34-.24.564-.24.224 0 .412.08.564.24.16.152.24.34.24.564 0 .224-.08.412-.24.564a.766.766 0 01-.564.228zm5.572 9.72c.44 0 .808.112 1.104.336.304.224.456.548.456.972 0 .432-.156.764-.468.996-.304.232-.68.348-1.128.348H80.5v-.984h1.428c.192 0 .336-.028.432-.084.104-.056.156-.156.156-.3s-.052-.244-.156-.3c-.096-.048-.24-.072-.432-.072h-.744v-1.38c-.688-.088-1.248-.332-1.68-.732-.432-.4-.664-.88-.696-1.44H80.5a.928.928 0 00.372.636c.224.168.5.252.828.252.32 0 .568-.064.744-.192.184-.128.276-.292.276-.492 0-.216-.112-.376-.336-.48-.216-.112-.564-.232-1.044-.36a9.196 9.196 0 01-1.224-.372 2.176 2.176 0 01-.816-.588c-.224-.264-.336-.62-.336-1.068 0-.368.104-.704.312-1.008.216-.304.52-.544.912-.72.4-.176.868-.264 1.404-.264.792 0 1.424.2 1.896.6.472.392.732.924.78 1.596H82.66a.844.844 0 00-.336-.624c-.192-.16-.452-.24-.78-.24-.304 0-.54.056-.708.168a.54.54 0 00-.24.468c0 .224.112.396.336.516.224.112.572.228 1.044.348.48.12.876.244 1.188.372.312.128.58.328.804.6.232.264.352.616.36 1.056 0 .512-.188.948-.564 1.308-.368.36-.876.58-1.524.66v.468zm5.147-9.42V717h-1.68v-8.88h1.68zm7.84 5.412c0 .24-.016.456-.048.648h-4.86c.04.48.208.856.504 1.128.296.272.66.408 1.092.408.624 0 1.068-.268 1.332-.804h1.812a3.059 3.059 0 01-1.104 1.584c-.544.408-1.212.612-2.004.612-.64 0-1.216-.14-1.728-.42a3.091 3.091 0 01-1.188-1.212c-.28-.52-.42-1.12-.42-1.8 0-.688.14-1.292.42-1.812.28-.52.672-.92 1.176-1.2.504-.28 1.084-.42 1.74-.42.632 0 1.196.136 1.692.408.504.272.892.66 1.164 1.164.28.496.42 1.068.42 1.716zm-1.74-.48c-.008-.432-.164-.776-.468-1.032-.304-.264-.676-.396-1.116-.396-.416 0-.768.128-1.056.384-.28.248-.452.596-.516 1.044h3.156zm11.222-2.796c.816 0 1.472.252 1.968.756.504.496.756 1.192.756 2.088v3.9h-1.68v-3.672c0-.52-.132-.916-.396-1.188-.264-.28-.624-.42-1.08-.42-.456 0-.82.14-1.092.42-.264.272-.396.668-.396 1.188V717h-1.68v-3.672c0-.52-.132-.916-.396-1.188-.264-.28-.624-.42-1.08-.42-.464 0-.832.14-1.104.42-.264.272-.396.668-.396 1.188V717h-1.68v-6.648h1.68v.804c.216-.28.492-.5.828-.66.344-.16.72-.24 1.128-.24.52 0 .984.112 1.392.336.408.216.724.528.948.936.216-.384.528-.692.936-.924a2.715 2.715 0 011.344-.348zm10.07 6.828c-.584 0-1.112-.1-1.584-.3a2.597 2.597 0 01-1.104-.864c-.272-.376-.412-.82-.42-1.332h1.8c.024.344.144.616.36.816.224.2.528.3.912.3.392 0 .7-.092.924-.276a.935.935 0 00.336-.744.853.853 0 00-.228-.612 1.527 1.527 0 00-.576-.372 7.887 7.887 0 00-.936-.312c-.544-.16-.988-.316-1.332-.468a2.469 2.469 0 01-.876-.708c-.24-.32-.36-.744-.36-1.272 0-.496.124-.928.372-1.296a2.328 2.328 0 011.044-.84c.448-.2.96-.3 1.536-.3.864 0 1.564.212 2.1.636.544.416.844 1 .9 1.752h-1.848a.935.935 0 00-.372-.708c-.224-.192-.524-.288-.9-.288-.328 0-.592.084-.792.252-.192.168-.288.412-.288.732 0 .224.072.412.216.564.152.144.336.264.552.36.224.088.536.192.936.312.544.16.988.32 1.332.48.344.16.64.4.888.72.248.32.372.74.372 1.26 0 .448-.116.864-.348 1.248-.232.384-.572.692-1.02.924-.448.224-.98.336-1.596.336zm3.988-3.432c0-.672.132-1.268.396-1.788.272-.52.636-.92 1.092-1.2.464-.28.98-.42 1.548-.42.496 0 .928.1 1.296.3.376.2.676.452.9.756v-.948h1.692V717h-1.692v-.972a2.539 2.539 0 01-.9.78c-.376.2-.812.3-1.308.3-.56 0-1.072-.144-1.536-.432a3.091 3.091 0 01-1.092-1.212c-.264-.528-.396-1.132-.396-1.812zm5.232.024c0-.408-.08-.756-.24-1.044a1.642 1.642 0 00-.648-.672 1.699 1.699 0 00-.876-.24c-.312 0-.6.076-.864.228-.264.152-.48.376-.648.672-.16.288-.24.632-.24 1.032s.08.752.24 1.056c.168.296.384.524.648.684.272.16.56.24.864.24.312 0 .604-.076.876-.228.272-.16.488-.384.648-.672.16-.296.24-.648.24-1.056zm9.693-3.324l-4.116 9.792h-1.788l1.44-3.312-2.664-6.48h1.884l1.716 4.644 1.74-4.644h1.788zm2.658 0V717h-1.68v-6.648h1.68zm4.272 6.756a3.568 3.568 0 01-1.464-.288 2.686 2.686 0 01-1.032-.804 2.046 2.046 0 01-.408-1.116h1.692a.928.928 0 00.372.636c.224.168.5.252.828.252.32 0 .568-.064.744-.192.184-.128.276-.292.276-.492 0-.216-.112-.376-.336-.48-.216-.112-.564-.232-1.044-.36a9.196 9.196 0 01-1.224-.372 2.176 2.176 0 01-.816-.588c-.224-.264-.336-.62-.336-1.068 0-.368.104-.704.312-1.008.216-.304.52-.544.912-.72.4-.176.868-.264 1.404-.264.792 0 1.424.2 1.896.6.472.392.732.924.78 1.596h-1.608a.844.844 0 00-.336-.624c-.192-.16-.452-.24-.78-.24-.304 0-.54.056-.708.168a.54.54 0 00-.24.468c0 .224.112.396.336.516.224.112.572.228 1.044.348.48.12.876.244 1.188.372.312.128.58.328.804.6.232.264.352.616.36 1.056 0 .384-.108.728-.324 1.032-.208.304-.512.544-.912.72-.392.168-.852.252-1.38.252zm5.747-6.756V717h-1.68v-6.648h1.68z" fill="#484F5B"/><path d="M45.056 83.112c-.821 0-1.557-.133-2.208-.4a3.655 3.655 0 01-1.568-1.184c-.384-.523-.587-1.152-.608-1.888h2.912c.043.416.187.736.432.96.245.213.565.32.96.32.405 0 .725-.09.96-.272.235-.192.352-.453.352-.784a.906.906 0 00-.288-.688 2.136 2.136 0 00-.688-.448c-.267-.117-.65-.25-1.152-.4-.725-.224-1.317-.448-1.776-.672a3.282 3.282 0 01-1.184-.992c-.33-.437-.496-1.008-.496-1.712 0-1.045.379-1.861 1.136-2.448.757-.597 1.744-.896 2.96-.896 1.237 0 2.235.299 2.992.896.757.587 1.163 1.408 1.216 2.464h-2.96c-.021-.363-.155-.645-.4-.848-.245-.213-.56-.32-.944-.32-.33 0-.597.09-.8.272-.203.17-.304.421-.304.752 0 .363.17.645.512.848.341.203.875.421 1.6.656.725.245 1.312.48 1.76.704.459.224.853.55 1.184.976.33.427.496.976.496 1.648 0 .64-.165 1.221-.496 1.744-.32.523-.79.939-1.408 1.248-.619.31-1.35.464-2.192.464zm10.756-2.432V83H54.42c-.992 0-1.766-.24-2.32-.72-.555-.49-.832-1.285-.832-2.384v-3.552H50.18v-2.272h1.088v-2.176h2.736v2.176h1.792v2.272h-1.792v3.584c0 .267.064.459.192.576.128.117.341.176.64.176h.976zm10.34-6.608V83h-2.736v-1.216a3.055 3.055 0 01-1.136.96c-.47.235-.992.352-1.568.352-.683 0-1.286-.15-1.808-.448a3.125 3.125 0 01-1.216-1.328c-.288-.576-.432-1.253-.432-2.032v-5.216h2.72v4.848c0 .597.154 1.061.464 1.392.31.33.725.496 1.248.496.533 0 .954-.165 1.264-.496.31-.33.464-.795.464-1.392v-4.848h2.736zm1.421 4.448c0-.917.17-1.723.512-2.416.352-.693.827-1.227 1.424-1.6a3.697 3.697 0 012-.56c.587 0 1.12.123 1.6.368.49.245.875.576 1.152.992V71.16h2.736V83h-2.736v-1.28a2.774 2.774 0 01-1.104 1.024c-.47.256-1.019.384-1.648.384a3.697 3.697 0 01-2-.56c-.597-.384-1.072-.923-1.424-1.616-.341-.704-.512-1.515-.512-2.432zm6.688.016c0-.683-.192-1.221-.576-1.616a1.82 1.82 0 00-1.376-.592 1.87 1.87 0 00-1.392.592c-.373.384-.56.917-.56 1.6s.187 1.227.56 1.632a1.87 1.87 0 001.392.592 1.82 1.82 0 001.376-.592c.384-.395.576-.933.576-1.616zm13.131-.144c0 .256-.016.523-.048.8h-6.192c.043.555.219.981.528 1.28.32.288.71.432 1.168.432.683 0 1.158-.288 1.424-.864h2.912a3.945 3.945 0 01-.816 1.584c-.384.47-.869.837-1.456 1.104-.586.267-1.242.4-1.968.4-.874 0-1.653-.187-2.336-.56a3.983 3.983 0 01-1.6-1.6c-.384-.693-.576-1.504-.576-2.432 0-.928.187-1.739.56-2.432a3.983 3.983 0 011.6-1.6c.683-.373 1.467-.56 2.352-.56.864 0 1.632.181 2.304.544.672.363 1.195.88 1.568 1.552.384.672.576 1.456.576 2.352zm-2.8-.72c0-.47-.16-.843-.48-1.12-.32-.277-.72-.416-1.2-.416-.458 0-.848.133-1.168.4-.309.267-.501.645-.576 1.136h3.424zm9.684-3.696c1.045 0 1.877.341 2.496 1.024.63.672.944 1.6.944 2.784V83h-2.72v-4.848c0-.597-.155-1.061-.464-1.392-.31-.33-.726-.496-1.248-.496-.523 0-.939.165-1.248.496-.31.33-.464.795-.464 1.392V83h-2.736v-8.928h2.736v1.184c.277-.395.65-.704 1.12-.928.47-.235.997-.352 1.584-.352zm10.317 6.704V83h-1.392c-.992 0-1.765-.24-2.32-.72-.555-.49-.832-1.285-.832-2.384v-3.552h-1.088v-2.272h1.088v-2.176h2.736v2.176h1.792v2.272h-1.792v3.584c0 .267.064.459.192.576.128.117.341.176.64.176h.976z" fill="#000"/><path d="M120.056 223.112c-.821 0-1.557-.133-2.208-.4a3.655 3.655 0 01-1.568-1.184c-.384-.523-.587-1.152-.608-1.888h2.912c.043.416.187.736.432.96.245.213.565.32.96.32.405 0 .725-.091.96-.272.235-.192.352-.453.352-.784a.906.906 0 00-.288-.688 2.136 2.136 0 00-.688-.448 10.447 10.447 0 00-1.152-.4c-.725-.224-1.317-.448-1.776-.672a3.285 3.285 0 01-1.184-.992c-.331-.437-.496-1.008-.496-1.712 0-1.045.379-1.861 1.136-2.448.757-.597 1.744-.896 2.96-.896 1.237 0 2.235.299 2.992.896.757.587 1.163 1.408 1.216 2.464h-2.96c-.021-.363-.155-.645-.4-.848-.245-.213-.56-.32-.944-.32-.331 0-.597.091-.8.272-.203.171-.304.421-.304.752 0 .363.171.645.512.848.341.203.875.421 1.6.656.725.245 1.312.48 1.76.704a3.34 3.34 0 011.184.976c.331.427.496.976.496 1.648 0 .64-.165 1.221-.496 1.744-.32.523-.789.939-1.408 1.248-.619.309-1.349.464-2.192.464zm14.596-9.04V223h-2.736v-1.216a3.054 3.054 0 01-1.136.96c-.47.235-.992.352-1.568.352-.683 0-1.286-.149-1.808-.448a3.122 3.122 0 01-1.216-1.328c-.288-.576-.432-1.253-.432-2.032v-5.216h2.72v4.848c0 .597.154 1.061.464 1.392.309.331.725.496 1.248.496.533 0 .954-.165 1.264-.496.309-.331.464-.795.464-1.392v-4.848h2.736zm4.701 1.264a2.975 2.975 0 011.104-1.008c.469-.256 1.019-.384 1.648-.384.736 0 1.403.187 2 .56.597.373 1.067.907 1.408 1.6.352.693.528 1.499.528 2.416 0 .917-.176 1.728-.528 2.432-.341.693-.811 1.232-1.408 1.616a3.699 3.699 0 01-2 .56c-.619 0-1.168-.128-1.648-.384a3.031 3.031 0 01-1.104-.992v5.504h-2.736v-13.184h2.736v1.264zm3.904 3.184c0-.683-.192-1.216-.576-1.6a1.836 1.836 0 00-1.392-.592 1.87 1.87 0 00-1.392.592c-.373.395-.56.933-.56 1.616s.187 1.221.56 1.616a1.87 1.87 0 001.392.592 1.87 1.87 0 001.392-.592c.384-.405.576-.949.576-1.632zm6.955-3.184a2.975 2.975 0 011.104-1.008c.47-.256 1.019-.384 1.648-.384.736 0 1.403.187 2 .56.598.373 1.067.907 1.408 1.6.352.693.528 1.499.528 2.416 0 .917-.176 1.728-.528 2.432-.341.693-.81 1.232-1.408 1.616a3.699 3.699 0 01-2 .56c-.618 0-1.168-.128-1.648-.384a3.031 3.031 0 01-1.104-.992v5.504h-2.736v-13.184h2.736v1.264zm3.904 3.184c0-.683-.192-1.216-.576-1.6a1.836 1.836 0 00-1.392-.592 1.87 1.87 0 00-1.392.592c-.373.395-.56.933-.56 1.616s.187 1.221.56 1.616a1.87 1.87 0 001.392.592 1.87 1.87 0 001.392-.592c.384-.405.576-.949.576-1.632zm8.284 4.608c-.875 0-1.664-.187-2.368-.56a4.162 4.162 0 01-1.648-1.6c-.395-.693-.592-1.504-.592-2.432 0-.917.202-1.723.608-2.416a4.107 4.107 0 011.664-1.616c.704-.373 1.493-.56 2.368-.56.874 0 1.664.187 2.368.56a4.113 4.113 0 011.664 1.616c.405.693.608 1.499.608 2.416 0 .917-.208 1.728-.624 2.432a4.123 4.123 0 01-1.68 1.6c-.704.373-1.494.56-2.368.56zm0-2.368c.522 0 .965-.192 1.328-.576.373-.384.56-.933.56-1.648 0-.715-.182-1.264-.544-1.648a1.708 1.708 0 00-1.312-.576c-.534 0-.976.192-1.328.576-.352.373-.528.923-.528 1.648 0 .715.17 1.264.512 1.648.352.384.789.576 1.312.576zm8.859-5.2c.32-.491.72-.875 1.2-1.152a3.052 3.052 0 011.6-.432v2.896h-.752c-.682 0-1.194.149-1.536.448-.341.288-.512.8-.512 1.536V223h-2.736v-8.928h2.736v1.488zm9.084 5.12V223h-1.392c-.992 0-1.765-.24-2.32-.72-.555-.491-.832-1.285-.832-2.384v-3.552h-1.088v-2.272h1.088v-2.176h2.736v2.176h1.792v2.272h-1.792v3.584c0 .267.064.459.192.576.128.117.341.176.64.176h.976z" fill="#62AB76"/></g></svg>