<svg width="361" height="729" fill="none" xmlns="http://www.w3.org/2000/svg"><rect x="5.191" y="1.888" width="351.562" height="724.831" rx="54.74" fill="#fff" stroke="#fff" stroke-width="3.775"/><path fill-rule="evenodd" clip-rule="evenodd" d="M8.966 57.571c0-28.407 23.029-51.436 51.437-51.436h240.666c28.408 0 51.437 23.029 51.437 51.436v613.936c0 28.408-23.029 51.437-51.437 51.437H60.403c-28.408 0-51.437-23.029-51.437-51.437V57.571zm11.326-.472c0-21.892 17.747-39.639 39.639-39.639h29.763a4.719 4.719 0 014.685 4.693v4.273c0 9.383 7.606 16.988 16.988 16.988h138.266c9.382 0 16.988-7.606 16.988-16.988V22.18a4.72 4.72 0 014.678-4.719h30.242c21.892 0 39.639 17.747 39.639 39.64v614.407c0 21.892-17.747 39.639-39.639 39.639H59.931c-21.892 0-39.64-17.747-39.64-39.639V57.099z" fill="#E4E8EF"/><rect x="160.916" y="23.595" width="40.111" height="6.607" rx="3.303" fill="#E4E8EF"/><circle cx="216.6" cy="26.898" r="3.303" fill="#E4E8EF"/><mask id="a" maskUnits="userSpaceOnUse" x="3" y="2" width="356" height="706"><rect x="4.888" y="3.888" width="352.225" height="702.225" rx="54.74" fill="#fff" stroke="#fff" stroke-width="3.775"/></mask><g mask="url(#a)"><path d="M47.504 274l-3.776-4.96V274h-2.736v-11.232h2.736v4.928l3.744-4.928h3.216l-4.352 5.504L50.848 274h-3.344zm4.1-4.48c0-.917.17-1.723.512-2.416.352-.693.827-1.227 1.424-1.6a3.7 3.7 0 012-.56c.63 0 1.179.128 1.648.384.48.256.848.592 1.104 1.008v-1.264h2.736V274h-2.736v-1.264a2.94 2.94 0 01-1.12 1.008c-.47.256-1.018.384-1.648.384a3.671 3.671 0 01-1.984-.56c-.597-.384-1.072-.923-1.424-1.616-.341-.704-.512-1.515-.512-2.432zm6.688.016c0-.683-.192-1.221-.576-1.616a1.819 1.819 0 00-1.376-.592 1.87 1.87 0 00-1.392.592c-.373.384-.56.917-.56 1.6s.187 1.227.56 1.632a1.87 1.87 0 001.392.592c.544 0 1.003-.197 1.376-.592.384-.395.576-.933.576-1.616zm16.108-4.56c1.109 0 1.989.336 2.64 1.008.661.672.992 1.605.992 2.8V274h-2.72v-4.848c0-.576-.155-1.019-.464-1.328-.299-.32-.715-.48-1.248-.48-.534 0-.955.16-1.264.48-.299.309-.448.752-.448 1.328V274h-2.72v-4.848c0-.576-.155-1.019-.464-1.328-.299-.32-.715-.48-1.248-.48-.534 0-.955.16-1.264.48-.299.309-.448.752-.448 1.328V274h-2.736v-8.928h2.736v1.12a2.86 2.86 0 011.088-.88 3.352 3.352 0 011.52-.336c.672 0 1.269.144 1.792.432.533.288.949.699 1.248 1.232.309-.491.73-.891 1.264-1.2a3.419 3.419 0 011.744-.464zm8.281 1.36a2.97 2.97 0 011.104-1.008c.47-.256 1.019-.384 1.648-.384a3.7 3.7 0 012 .56c.597.373 1.067.907 1.408 1.6.352.693.528 1.499.528 2.416 0 .917-.176 1.728-.528 2.432-.341.693-.81 1.232-1.408 1.616a3.7 3.7 0 01-2 .56c-.619 0-1.168-.128-1.648-.384a3.026 3.026 0 01-1.104-.992v5.504h-2.736v-13.184h2.736v1.264zm3.904 3.184c0-.683-.192-1.216-.576-1.6a1.837 1.837 0 00-1.392-.592 1.87 1.87 0 00-1.392.592c-.373.395-.56.933-.56 1.616s.187 1.221.56 1.616a1.87 1.87 0 001.392.592 1.87 1.87 0 001.392-.592c.384-.405.576-.949.576-1.632zm3.675 0c0-.917.171-1.723.512-2.416.352-.693.827-1.227 1.424-1.6a3.7 3.7 0 012-.56c.63 0 1.18.128 1.648.384.48.256.849.592 1.105 1.008v-1.264h2.736V274h-2.737v-1.264a2.94 2.94 0 01-1.12 1.008c-.469.256-1.018.384-1.648.384a3.671 3.671 0 01-1.984-.56c-.597-.384-1.072-.923-1.424-1.616-.34-.704-.512-1.515-.512-2.432zm6.688.016c0-.683-.191-1.221-.575-1.616a1.819 1.819 0 00-1.377-.592 1.87 1.87 0 00-1.391.592c-.374.384-.56.917-.56 1.6s.186 1.227.56 1.632a1.87 1.87 0 001.391.592c.544 0 1.003-.197 1.377-.592.383-.395.575-.933.575-1.616zm10.156-4.56c1.045 0 1.877.341 2.496 1.024.629.672.944 1.6.944 2.784V274h-2.72v-4.848c0-.597-.155-1.061-.464-1.392-.309-.331-.725-.496-1.248-.496s-.939.165-1.248.496c-.309.331-.464.795-.464 1.392V274h-2.736v-8.928h2.736v1.184a2.821 2.821 0 011.12-.928 3.487 3.487 0 011.584-.352zm14.461.096l-5.6 13.168h-2.944l2.048-4.544-3.632-8.624h3.056l2.064 5.584 2.048-5.584h2.96zm.446 4.448c0-.917.17-1.723.512-2.416.352-.693.826-1.227 1.424-1.6a3.699 3.699 0 012-.56c.629 0 1.178.128 1.648.384.48.256.848.592 1.104 1.008v-1.264h2.736V274h-2.736v-1.264c-.267.416-.64.752-1.12 1.008-.47.256-1.019.384-1.648.384a3.669 3.669 0 01-1.984-.56c-.598-.384-1.072-.923-1.424-1.616-.342-.704-.512-1.515-.512-2.432zm6.688.016c0-.683-.192-1.221-.576-1.616a1.82 1.82 0 00-1.376-.592 1.87 1.87 0 00-1.392.592c-.374.384-.56.917-.56 1.6s.186 1.227.56 1.632a1.87 1.87 0 001.392.592 1.82 1.82 0 001.376-.592c.384-.395.576-.933.576-1.616zm15.561-3.216a1.986 1.986 0 00-.879-.848c-.374-.203-.816-.304-1.328-.304-.886 0-1.595.293-2.129.88-.533.576-.799 1.349-.799 2.32 0 1.035.277 1.845.832 2.432.565.576 1.338.864 2.32.864.672 0 1.237-.171 1.696-.512.469-.341.81-.832 1.024-1.472h-3.472v-2.016h5.952v2.544a5.32 5.32 0 01-1.04 1.904c-.48.587-1.094 1.061-1.84 1.424-.747.363-1.59.544-2.528.544-1.11 0-2.102-.24-2.976-.72a5.31 5.31 0 01-2.032-2.032c-.48-.864-.721-1.851-.721-2.96s.241-2.096.721-2.96a5.164 5.164 0 012.032-2.032c.864-.491 1.85-.736 2.96-.736 1.344 0 2.474.325 3.392.976.928.651 1.541 1.552 1.84 2.704h-3.025zm13.148 3.072c0 .256-.016.523-.048.8h-6.192c.043.555.219.981.528 1.28.32.288.709.432 1.168.432.683 0 1.157-.288 1.424-.864h2.912a3.932 3.932 0 01-.816 1.584 3.976 3.976 0 01-1.456 1.104c-.587.267-1.243.4-1.968.4-.875 0-1.653-.187-2.336-.56a3.981 3.981 0 01-1.6-1.6c-.384-.693-.576-1.504-.576-2.432 0-.928.187-1.739.56-2.432a3.981 3.981 0 011.6-1.6c.683-.373 1.467-.56 2.352-.56.864 0 1.632.181 2.304.544.672.363 1.195.88 1.568 1.552.384.672.576 1.456.576 2.352zm-2.8-.72c0-.469-.16-.843-.48-1.12-.32-.277-.72-.416-1.2-.416-.459 0-.848.133-1.168.4-.309.267-.501.645-.576 1.136h3.424zm6.979-6.512V274h-2.736v-11.84h2.736zm3.359 1.984c-.48 0-.875-.139-1.184-.416a1.41 1.41 0 01-.448-1.056c0-.427.149-.779.448-1.056.309-.288.704-.432 1.184-.432.469 0 .853.144 1.152.432.309.277.464.629.464 1.056 0 .416-.155.768-.464 1.056-.299.277-.683.416-1.152.416zm1.36.928V274h-2.736v-8.928h2.736zm6.495 9.584c.555 0 1.04.149 1.456.448.416.309.624.768.624 1.376 0 .608-.219 1.067-.656 1.376-.437.32-.96.48-1.568.48h-2.464v-1.504h2.096c.213 0 .373-.032.48-.096.107-.064.16-.171.16-.32s-.053-.256-.16-.32c-.107-.053-.267-.08-.48-.08h-1.136v-1.936c-.971-.128-1.76-.464-2.368-1.008-.597-.555-.923-1.221-.976-2h2.704c.032.309.176.56.432.752.256.192.571.288.944.288.341 0 .603-.064.784-.192.192-.139.288-.315.288-.528 0-.256-.133-.443-.4-.56-.267-.128-.699-.267-1.296-.416a13.14 13.14 0 01-1.6-.464 2.871 2.871 0 01-1.104-.784c-.309-.363-.464-.848-.464-1.456 0-.512.139-.976.416-1.392.288-.427.704-.763 1.248-1.008.555-.245 1.211-.368 1.968-.368 1.12 0 2 .277 2.64.832.651.555 1.024 1.291 1.12 2.208h-2.528a1.078 1.078 0 00-.416-.736c-.224-.181-.523-.272-.896-.272-.32 0-.565.064-.736.192a.567.567 0 00-.256.496c0 .256.133.448.4.576.277.128.704.256 1.28.384.661.171 1.2.341 1.616.512.416.16.779.427 1.088.8.32.363.485.853.496 1.472 0 .683-.245 1.264-.736 1.744-.48.469-1.147.773-2 .912v.592zm15.802-9.68c1.109 0 1.989.336 2.64 1.008.661.672.992 1.605.992 2.8V274h-2.72v-4.848c0-.576-.155-1.019-.464-1.328-.299-.32-.715-.48-1.248-.48-.534 0-.955.16-1.264.48-.299.309-.448.752-.448 1.328V274h-2.72v-4.848c0-.576-.155-1.019-.464-1.328-.299-.32-.715-.48-1.248-.48-.534 0-.955.16-1.264.48-.299.309-.448.752-.448 1.328V274h-2.736v-8.928h2.736v1.12c.277-.373.64-.667 1.088-.88a3.35 3.35 0 011.52-.336c.672 0 1.269.144 1.792.432a3.09 3.09 0 011.248 1.232c.309-.491.73-.891 1.264-1.2a3.416 3.416 0 011.744-.464zm13.961 4.416c0 .256-.016.523-.048.8h-6.192c.043.555.219.981.528 1.28.32.288.71.432 1.168.432.683 0 1.158-.288 1.424-.864h2.912a3.932 3.932 0 01-.816 1.584 3.976 3.976 0 01-1.456 1.104c-.586.267-1.242.4-1.968.4-.874 0-1.653-.187-2.336-.56a3.987 3.987 0 01-1.6-1.6c-.384-.693-.576-1.504-.576-2.432 0-.928.187-1.739.56-2.432a3.987 3.987 0 011.6-1.6c.683-.373 1.467-.56 2.352-.56.864 0 1.632.181 2.304.544.672.363 1.195.88 1.568 1.552.384.672.576 1.456.576 2.352zm-2.8-.72c0-.469-.16-.843-.48-1.12-.32-.277-.72-.416-1.2-.416-.458 0-.848.133-1.168.4-.309.267-.501.645-.576 1.136h3.424zm6.98-6.512V274h-2.736v-11.84h2.736zm10.398 7.232c0 .256-.016.523-.048.8h-6.192c.043.555.219.981.528 1.28.32.288.71.432 1.168.432.683 0 1.158-.288 1.424-.864h2.912a3.932 3.932 0 01-.816 1.584 3.976 3.976 0 01-1.456 1.104c-.586.267-1.242.4-1.968.4-.874 0-1.653-.187-2.336-.56a3.987 3.987 0 01-1.6-1.6c-.384-.693-.576-1.504-.576-2.432 0-.928.187-1.739.56-2.432a3.987 3.987 0 011.6-1.6c.683-.373 1.467-.56 2.352-.56.864 0 1.632.181 2.304.544.672.363 1.195.88 1.568 1.552.384.672.576 1.456.576 2.352zm-2.8-.72c0-.469-.16-.843-.48-1.12-.32-.277-.72-.416-1.2-.416-.458 0-.848.133-1.168.4-.309.267-.501.645-.576 1.136h3.424zm6.98-2.112c.32-.491.72-.875 1.2-1.152a3.05 3.05 0 011.6-.432v2.896h-.752c-.683 0-1.195.149-1.536.448-.342.288-.512.8-.512 1.536V274h-2.736v-8.928h2.736v1.488zm5.484-2.416c-.48 0-.875-.139-1.184-.416a1.41 1.41 0 01-.448-1.056c0-.427.149-.779.448-1.056.309-.288.704-.432 1.184-.432.469 0 .853.144 1.152.432.309.277.464.629.464 1.056 0 .416-.155.768-.464 1.056-.299.277-.683.416-1.152.416zm1.36.928V274h-2.736v-8.928h2.736z" fill="#000"/><rect x="62" y="295" width="100" height="10" rx="5" fill="#B1BBCC"/><rect x="40" y="99" width="100" height="10" rx="5" fill="#B1BBCC"/><rect x="40" y="124" width="228" height="10" rx="5" fill="#E5EBF7"/><rect x="40" y="144" width="161" height="10" rx="5" fill="#E5EBF7"/><rect x="40" y="164" width="194" height="10" rx="5" fill="#E5EBF7"/><path fill="#B3BCCD" d="M44 300h2v264h-2z"/><circle cx="45" cy="300" r="5" fill="#B3BCCD"/><circle cx="45" cy="564" r="5" fill="#B3BCCD"/><path fill="#F0FFF4" stroke="#DCFCE5" d="M62.5 313.5h259v109h-259z"/><rect x="40.5" y="191.5" width="227" height="50" rx="25" fill="#F0FFF4" stroke="#DCFCE5"/><rect x="75" y="345" width="33" height="10" rx="5" fill="#B1BBCC"/><rect x="201" y="375" width="105" height="10" rx="5" fill="#B1BBCC"/><rect x="201" y="345" width="33" height="10" rx="5" fill="#B1BBCC"/><path d="M77.508 325.624V334h-1.68v-8.376h1.68zm-.84-.804a.766.766 0 01-.564-.228.766.766 0 01-.228-.564c0-.224.076-.412.228-.564.152-.16.34-.24.564-.24.224 0 .412.08.564.24.16.152.24.34.24.564 0 .224-.08.412-.24.564a.766.766 0 01-.564.228zm5.572 9.72c.44 0 .808.112 1.104.336.304.224.456.548.456.972 0 .432-.156.764-.468.996-.304.232-.68.348-1.128.348H80.5v-.984h1.428c.192 0 .336-.028.432-.084.104-.056.156-.156.156-.3s-.052-.244-.156-.3c-.096-.048-.24-.072-.432-.072h-.744v-1.38c-.688-.088-1.248-.332-1.68-.732-.432-.4-.664-.88-.696-1.44H80.5a.928.928 0 00.372.636c.224.168.5.252.828.252.32 0 .568-.064.744-.192.184-.128.276-.292.276-.492 0-.216-.112-.376-.336-.48-.216-.112-.564-.232-1.044-.36a9.196 9.196 0 01-1.224-.372 2.176 2.176 0 01-.816-.588c-.224-.264-.336-.62-.336-1.068 0-.368.104-.704.312-1.008.216-.304.52-.544.912-.72.4-.176.868-.264 1.404-.264.792 0 1.424.2 1.896.6.472.392.732.924.78 1.596H82.66a.844.844 0 00-.336-.624c-.192-.16-.452-.24-.78-.24-.304 0-.54.056-.708.168a.54.54 0 00-.24.468c0 .224.112.396.336.516.224.112.572.228 1.044.348.48.12.876.244 1.188.372.312.128.58.328.804.6.232.264.352.616.36 1.056 0 .512-.188.948-.564 1.308-.368.36-.876.58-1.524.66v.468zm5.147-9.42V334h-1.68v-8.88h1.68zm7.84 5.412c0 .24-.016.456-.048.648h-4.86c.04.48.208.856.504 1.128.296.272.66.408 1.092.408.624 0 1.068-.268 1.332-.804h1.812a3.059 3.059 0 01-1.104 1.584c-.544.408-1.212.612-2.004.612-.64 0-1.216-.14-1.728-.42a3.091 3.091 0 01-1.188-1.212c-.28-.52-.42-1.12-.42-1.8 0-.688.14-1.292.42-1.812.28-.52.672-.92 1.176-1.2.504-.28 1.084-.42 1.74-.42.632 0 1.196.136 1.692.408.504.272.892.66 1.164 1.164.28.496.42 1.068.42 1.716zm-1.74-.48c-.008-.432-.164-.776-.468-1.032-.304-.264-.676-.396-1.116-.396-.416 0-.768.128-1.056.384-.28.248-.452.596-.516 1.044h3.156zm11.222-2.796c.816 0 1.472.252 1.968.756.504.496.756 1.192.756 2.088v3.9h-1.68v-3.672c0-.52-.132-.916-.396-1.188-.264-.28-.624-.42-1.08-.42-.456 0-.82.14-1.092.42-.264.272-.396.668-.396 1.188V334h-1.68v-3.672c0-.52-.132-.916-.396-1.188-.264-.28-.624-.42-1.08-.42-.464 0-.832.14-1.104.42-.264.272-.396.668-.396 1.188V334h-1.68v-6.648h1.68v.804c.216-.28.492-.5.828-.66.344-.16.72-.24 1.128-.24.52 0 .984.112 1.392.336.408.216.724.528.948.936.216-.384.528-.692.936-.924a2.715 2.715 0 011.344-.348zm10.07 6.828c-.584 0-1.112-.1-1.584-.3a2.597 2.597 0 01-1.104-.864c-.272-.376-.412-.82-.42-1.332h1.8c.024.344.144.616.36.816.224.2.528.3.912.3.392 0 .7-.092.924-.276a.935.935 0 00.336-.744.853.853 0 00-.228-.612 1.527 1.527 0 00-.576-.372 7.887 7.887 0 00-.936-.312c-.544-.16-.988-.316-1.332-.468a2.469 2.469 0 01-.876-.708c-.24-.32-.36-.744-.36-1.272 0-.496.124-.928.372-1.296a2.328 2.328 0 011.044-.84c.448-.2.96-.3 1.536-.3.864 0 1.564.212 2.1.636.544.416.844 1 .9 1.752h-1.848a.935.935 0 00-.372-.708c-.224-.192-.524-.288-.9-.288-.328 0-.592.084-.792.252-.192.168-.288.412-.288.732 0 .224.072.412.216.564.152.144.336.264.552.36.224.088.536.192.936.312.544.16.988.32 1.332.48.344.16.64.4.888.72.248.32.372.74.372 1.26 0 .448-.116.864-.348 1.248-.232.384-.572.692-1.02.924-.448.224-.98.336-1.596.336zm3.988-3.432c0-.672.132-1.268.396-1.788.272-.52.636-.92 1.092-1.2.464-.28.98-.42 1.548-.42.496 0 .928.1 1.296.3.376.2.676.452.9.756v-.948h1.692V334h-1.692v-.972a2.539 2.539 0 01-.9.78c-.376.2-.812.3-1.308.3-.56 0-1.072-.144-1.536-.432a3.091 3.091 0 01-1.092-1.212c-.264-.528-.396-1.132-.396-1.812zm5.232.024c0-.408-.08-.756-.24-1.044a1.642 1.642 0 00-.648-.672 1.699 1.699 0 00-.876-.24c-.312 0-.6.076-.864.228-.264.152-.48.376-.648.672-.16.288-.24.632-.24 1.032s.08.752.24 1.056c.168.296.384.524.648.684.272.16.56.24.864.24.312 0 .604-.076.876-.228.272-.16.488-.384.648-.672.16-.296.24-.648.24-1.056zm9.693-3.324l-4.116 9.792h-1.788l1.44-3.312-2.664-6.48h1.884l1.716 4.644 1.74-4.644h1.788zm2.658 0V334h-1.68v-6.648h1.68zm4.272 6.756a3.568 3.568 0 01-1.464-.288 2.686 2.686 0 01-1.032-.804 2.046 2.046 0 01-.408-1.116h1.692a.928.928 0 00.372.636c.224.168.5.252.828.252.32 0 .568-.064.744-.192.184-.128.276-.292.276-.492 0-.216-.112-.376-.336-.48-.216-.112-.564-.232-1.044-.36a9.196 9.196 0 01-1.224-.372 2.176 2.176 0 01-.816-.588c-.224-.264-.336-.62-.336-1.068 0-.368.104-.704.312-1.008.216-.304.52-.544.912-.72.4-.176.868-.264 1.404-.264.792 0 1.424.2 1.896.6.472.392.732.924.78 1.596h-1.608a.844.844 0 00-.336-.624c-.192-.16-.452-.24-.78-.24-.304 0-.54.056-.708.168a.54.54 0 00-.24.468c0 .224.112.396.336.516.224.112.572.228 1.044.348.48.12.876.244 1.188.372.312.128.58.328.804.6.232.264.352.616.36 1.056 0 .384-.108.728-.324 1.032-.208.304-.512.544-.912.72-.392.168-.852.252-1.38.252zm5.747-6.756V334h-1.68v-6.648h1.68zM80.556 384l-3.048-3.732V384h-1.68v-8.376h1.68v3.756l3.048-3.756h2.028l-3.456 4.152L82.68 384h-2.124zm4.081-7.44c-.296 0-.544-.092-.744-.276a.962.962 0 01-.288-.708c0-.28.096-.512.288-.696.2-.192.448-.288.744-.288s.54.096.732.288c.2.184.3.416.3.696 0 .28-.1.516-.3.708a1.015 1.015 0 01-.732.276zm.828.792V384h-1.68v-6.648h1.68zm9.916-.096c.816 0 1.472.252 1.968.756.504.496.756 1.192.756 2.088v3.9h-1.68v-3.672c0-.52-.132-.916-.396-1.188-.264-.28-.624-.42-1.08-.42-.456 0-.82.14-1.092.42-.264.272-.396.668-.396 1.188V384h-1.68v-3.672c0-.52-.132-.916-.396-1.188-.264-.28-.624-.42-1.08-.42-.464 0-.832.14-1.104.42-.264.272-.396.668-.396 1.188V384h-1.68v-6.648h1.68v.804c.216-.28.492-.5.828-.66.344-.16.72-.24 1.128-.24.52 0 .984.112 1.392.336.408.216.724.528.948.936.216-.384.528-.692.936-.924a2.715 2.715 0 011.344-.348zm3.886 3.396c0-.672.132-1.268.396-1.788.272-.52.64-.92 1.104-1.2.464-.28.98-.42 1.548-.42.432 0 .844.096 1.236.288.392.184.704.432.936.744v-3.156h1.704V384h-1.704v-.984c-.208.328-.5.592-.876.792-.376.2-.812.3-1.308.3-.56 0-1.072-.144-1.536-.432a3.06 3.06 0 01-1.104-1.212c-.264-.528-.396-1.132-.396-1.812zm5.232.024c0-.408-.08-.756-.24-1.044a1.642 1.642 0 00-.648-.672 1.699 1.699 0 00-.876-.24c-.312 0-.6.076-.864.228-.264.152-.48.376-.648.672-.16.288-.24.632-.24 1.032s.08.752.24 1.056c.168.296.384.524.648.684.272.16.56.24.864.24.312 0 .604-.076.876-.228.272-.16.488-.384.648-.672.16-.296.24-.648.24-1.056zm9.513-.144c0 .24-.016.456-.048.648h-4.86c.04.48.208.856.504 1.128.296.272.66.408 1.092.408.624 0 1.068-.268 1.332-.804h1.812a3.059 3.059 0 01-1.104 1.584c-.544.408-1.212.612-2.004.612-.64 0-1.216-.14-1.728-.42a3.091 3.091 0 01-1.188-1.212c-.28-.52-.42-1.12-.42-1.8 0-.688.14-1.292.42-1.812.28-.52.672-.92 1.176-1.2.504-.28 1.084-.42 1.74-.42.632 0 1.196.136 1.692.408.504.272.892.66 1.164 1.164.28.496.42 1.068.42 1.716zm-1.74-.48c-.008-.432-.164-.776-.468-1.032-.304-.264-.676-.396-1.116-.396-.416 0-.768.128-1.056.384-.28.248-.452.596-.516 1.044h3.156zm6.65-2.796c.792 0 1.432.252 1.92.756.488.496.732 1.192.732 2.088v3.9h-1.68v-3.672c0-.528-.132-.932-.396-1.212-.264-.288-.624-.432-1.08-.432-.464 0-.832.144-1.104.432-.264.28-.396.684-.396 1.212V384h-1.68v-6.648h1.68v.828c.224-.288.508-.512.852-.672a2.64 2.64 0 011.152-.252z" fill="#484F5B"/><rect x="201" y="398" width="105" height="10" rx="5" fill="#B1BBCC"/><path d="M82.992 407h-1.68l-3.804-5.748V407h-1.68v-8.388h1.68l3.804 5.76v-5.76h1.68V407zm7.84-3.468c0 .24-.016.456-.048.648h-4.86c.04.48.208.856.504 1.128.296.272.66.408 1.092.408.624 0 1.068-.268 1.332-.804h1.812a3.059 3.059 0 01-1.104 1.584c-.544.408-1.212.612-2.004.612-.64 0-1.216-.14-1.728-.42a3.091 3.091 0 01-1.188-1.212c-.28-.52-.42-1.12-.42-1.8 0-.688.14-1.292.42-1.812.28-.52.672-.92 1.176-1.2.504-.28 1.084-.42 1.74-.42.632 0 1.196.136 1.692.408.504.272.892.66 1.164 1.164.28.496.42 1.068.42 1.716zm-1.74-.48c-.008-.432-.164-.776-.468-1.032-.304-.264-.676-.396-1.116-.396-.416 0-.768.128-1.056.384-.28.248-.452.596-.516 1.044h3.156zM99.646 407l-3.048-3.732V407h-1.68v-8.376h1.68v3.756l3.048-3.756h2.028l-3.456 4.152L101.77 407h-2.124zm2.797-3.348c0-.672.132-1.268.396-1.788.272-.52.636-.92 1.092-1.2.464-.28.98-.42 1.548-.42.496 0 .928.1 1.296.3.376.2.676.452.9.756v-.948h1.692V407h-1.692v-.972a2.539 2.539 0 01-.9.78c-.376.2-.812.3-1.308.3-.56 0-1.072-.144-1.536-.432a3.091 3.091 0 01-1.092-1.212c-.264-.528-.396-1.132-.396-1.812zm5.232.024c0-.408-.08-.756-.24-1.044a1.642 1.642 0 00-.648-.672 1.699 1.699 0 00-.876-.24c-.312 0-.6.076-.864.228-.264.152-.48.376-.648.672-.16.288-.24.632-.24 1.032s.08.752.24 1.056c.168.296.384.524.648.684.272.16.56.24.864.24.312 0 .604-.076.876-.228.272-.16.488-.384.648-.672.16-.296.24-.648.24-1.056zm2.901-.024c0-.672.132-1.268.396-1.788.272-.52.64-.92 1.104-1.2.464-.28.98-.42 1.548-.42.432 0 .844.096 1.236.288.392.184.704.432.936.744v-3.156h1.704V407h-1.704v-.984c-.208.328-.5.592-.876.792-.376.2-.812.3-1.308.3-.56 0-1.072-.144-1.536-.432a3.06 3.06 0 01-1.104-1.212c-.264-.528-.396-1.132-.396-1.812zm5.232.024c0-.408-.08-.756-.24-1.044a1.642 1.642 0 00-.648-.672 1.699 1.699 0 00-.876-.24c-.312 0-.6.076-.864.228-.264.152-.48.376-.648.672-.16.288-.24.632-.24 1.032s.08.752.24 1.056c.168.296.384.524.648.684.272.16.56.24.864.24.312 0 .604-.076.876-.228.272-.16.488-.384.648-.672.16-.296.24-.648.24-1.056zm2.9-.024c0-.672.132-1.268.396-1.788.273-.52.637-.92 1.093-1.2.464-.28.98-.42 1.548-.42.496 0 .928.1 1.296.3.376.2.676.452.9.756v-.948h1.692V407h-1.692v-.972a2.539 2.539 0 01-.9.78c-.376.2-.812.3-1.308.3-.56 0-1.072-.144-1.536-.432a3.101 3.101 0 01-1.093-1.212c-.264-.528-.396-1.132-.396-1.812zm5.233.024c0-.408-.08-.756-.24-1.044a1.642 1.642 0 00-.648-.672 1.699 1.699 0 00-.876-.24c-.312 0-.6.076-.865.228a1.753 1.753 0 00-.647.672c-.16.288-.24.632-.24 1.032s.08.752.24 1.056c.168.296.384.524.647.684.273.16.561.24.865.24.312 0 .604-.076.876-.228.272-.16.488-.384.648-.672.16-.296.24-.648.24-1.056zm5.012-2.292c.216-.352.496-.628.84-.828.352-.2.752-.3 1.2-.3v1.764h-.444c-.528 0-.928.124-1.2.372-.264.248-.396.68-.396 1.296V407h-1.68v-6.648h1.68v1.032zM207.66 328.144a1.967 1.967 0 00-.792-.804c-.336-.184-.728-.276-1.176-.276-.496 0-.936.112-1.32.336a2.32 2.32 0 00-.9.96c-.216.416-.324.896-.324 1.44 0 .56.108 1.048.324 1.464.224.416.532.736.924.96.392.224.848.336 1.368.336.64 0 1.164-.168 1.572-.504.408-.344.676-.82.804-1.428h-2.88v-1.284h4.536v1.464a3.935 3.935 0 01-.72 1.62 4.108 4.108 0 01-1.428 1.2c-.576.296-1.224.444-1.944.444-.808 0-1.54-.18-2.196-.54a4.071 4.071 0 01-1.536-1.524c-.368-.648-.552-1.384-.552-2.208 0-.824.184-1.56.552-2.208a3.96 3.96 0 011.536-1.524 4.387 4.387 0 012.184-.552c.944 0 1.764.232 2.46.696.696.456 1.176 1.1 1.44 1.932h-1.932zm9.559 2.388c0 .24-.016.456-.048.648h-4.86c.04.48.208.856.504 1.128.296.272.66.408 1.092.408.624 0 1.068-.268 1.332-.804h1.812a3.059 3.059 0 01-1.104 1.584c-.544.408-1.212.612-2.004.612-.64 0-1.216-.14-1.728-.42a3.091 3.091 0 01-1.188-1.212c-.28-.52-.42-1.12-.42-1.8 0-.688.14-1.292.42-1.812.28-.52.672-.92 1.176-1.2.504-.28 1.084-.42 1.74-.42.632 0 1.196.136 1.692.408.504.272.892.66 1.164 1.164.28.496.42 1.068.42 1.716zm-1.74-.48c-.008-.432-.164-.776-.468-1.032-.304-.264-.676-.396-1.116-.396-.416 0-.768.128-1.056.384-.28.248-.452.596-.516 1.044h3.156zm4.646-4.932V334h-1.68v-8.88h1.68zm7.84 5.412c0 .24-.016.456-.048.648h-4.86c.04.48.208.856.504 1.128.296.272.66.408 1.092.408.624 0 1.068-.268 1.332-.804h1.812a3.059 3.059 0 01-1.104 1.584c-.544.408-1.212.612-2.004.612-.64 0-1.216-.14-1.728-.42a3.091 3.091 0 01-1.188-1.212c-.28-.52-.42-1.12-.42-1.8 0-.688.14-1.292.42-1.812.28-.52.672-.92 1.176-1.2.504-.28 1.084-.42 1.74-.42.632 0 1.196.136 1.692.408.504.272.892.66 1.164 1.164.28.496.42 1.068.42 1.716zm-1.74-.48c-.008-.432-.164-.776-.468-1.032-.304-.264-.676-.396-1.116-.396-.416 0-.768.128-1.056.384-.28.248-.452.596-.516 1.044h3.156zm6.65-2.796c.792 0 1.432.252 1.92.756.488.496.732 1.192.732 2.088v3.9h-1.68v-3.672c0-.528-.132-.932-.396-1.212-.264-.288-.624-.432-1.08-.432-.464 0-.832.144-1.104.432-.264.28-.396.684-.396 1.212V334h-1.68v-6.648h1.68v.828c.224-.288.508-.512.852-.672a2.64 2.64 0 011.152-.252zm10.037-1.632c.88 0 1.652.172 2.316.516a3.63 3.63 0 011.548 1.476c.368.632.552 1.368.552 2.208 0 .84-.184 1.576-.552 2.208a3.673 3.673 0 01-1.548 1.452c-.664.344-1.436.516-2.316.516h-2.928v-8.376h2.928zm-.06 6.948c.88 0 1.56-.24 2.04-.72s.72-1.156.72-2.028c0-.872-.24-1.552-.72-2.04-.48-.496-1.16-.744-2.04-.744h-1.188v5.532h1.188zm11.914-2.04c0 .24-.016.456-.048.648h-4.86c.04.48.208.856.504 1.128.296.272.66.408 1.092.408.624 0 1.068-.268 1.332-.804h1.812a3.059 3.059 0 01-1.104 1.584c-.544.408-1.212.612-2.004.612-.64 0-1.216-.14-1.728-.42a3.091 3.091 0 01-1.188-1.212c-.28-.52-.42-1.12-.42-1.8 0-.688.14-1.292.42-1.812.28-.52.672-.92 1.176-1.2.504-.28 1.084-.42 1.74-.42.632 0 1.196.136 1.692.408.504.272.892.66 1.164 1.164.28.496.42 1.068.42 1.716zm-1.74-.48c-.008-.432-.164-.776-.468-1.032-.304-.264-.676-.396-1.116-.396-.416 0-.768.128-1.056.384-.28.248-.452.596-.516 1.044h3.156zm5.51 4.056a3.568 3.568 0 01-1.464-.288 2.686 2.686 0 01-1.032-.804 2.046 2.046 0 01-.408-1.116h1.692a.928.928 0 00.372.636c.224.168.5.252.828.252.32 0 .568-.064.744-.192.184-.128.276-.292.276-.492 0-.216-.112-.376-.336-.48-.216-.112-.564-.232-1.044-.36a9.196 9.196 0 01-1.224-.372 2.176 2.176 0 01-.816-.588c-.224-.264-.336-.62-.336-1.068 0-.368.104-.704.312-1.008.216-.304.52-.544.912-.72.4-.176.868-.264 1.404-.264.792 0 1.424.2 1.896.6.472.392.732.924.78 1.596h-1.608a.844.844 0 00-.336-.624c-.192-.16-.452-.24-.78-.24-.304 0-.54.056-.708.168a.54.54 0 00-.24.468c0 .224.112.396.336.516.224.112.572.228 1.044.348.48.12.876.244 1.188.372.312.128.58.328.804.6.232.264.352.616.36 1.056 0 .384-.108.728-.324 1.032-.208.304-.512.544-.912.72-.392.168-.852.252-1.38.252zm5.951-5.376v3.216c0 .224.052.388.156.492.112.096.296.144.552.144h.78V334h-1.056c-1.416 0-2.124-.688-2.124-2.064v-3.204h-.792v-1.38h.792v-1.644h1.692v1.644h1.488v1.38h-1.488zm8.876 1.8c0 .24-.016.456-.048.648h-4.86c.04.48.208.856.504 1.128.296.272.66.408 1.092.408.624 0 1.068-.268 1.332-.804h1.812a3.059 3.059 0 01-1.104 1.584c-.544.408-1.212.612-2.004.612-.64 0-1.216-.14-1.728-.42a3.091 3.091 0 01-1.188-1.212c-.28-.52-.42-1.12-.42-1.8 0-.688.14-1.292.42-1.812.28-.52.672-.92 1.176-1.2.504-.28 1.084-.42 1.74-.42.632 0 1.196.136 1.692.408.504.272.892.66 1.164 1.164.28.496.42 1.068.42 1.716zm-1.74-.48c-.008-.432-.164-.776-.468-1.032-.304-.264-.676-.396-1.116-.396-.416 0-.768.128-1.056.384-.28.248-.452.596-.516 1.044h3.156zm6.903 3.948l-2.256-2.832V334h-1.68v-8.88h1.68v5.052l2.232-2.82h2.184l-2.928 3.336L280.71 334h-2.184z" fill="#484F5B"/><path fill="#FFF0F0" stroke="#FCDCDC" d="M62.5 431.5h259v109h-259z"/><rect x="75" y="463" width="33" height="10" rx="5" fill="#B1BBCC"/><rect x="201" y="493" width="105" height="10" rx="5" fill="#B1BBCC"/><rect x="201" y="463" width="33" height="10" rx="5" fill="#B1BBCC"/><path d="M77.508 443.624V452h-1.68v-8.376h1.68zm-.84-.804a.766.766 0 01-.564-.228.766.766 0 01-.228-.564c0-.224.076-.412.228-.564.152-.16.34-.24.564-.24.224 0 .412.08.564.24.16.152.24.34.24.564 0 .224-.08.412-.24.564a.766.766 0 01-.564.228zm5.572 9.72c.44 0 .808.112 1.104.336.304.224.456.548.456.972 0 .432-.156.764-.468.996-.304.232-.68.348-1.128.348H80.5v-.984h1.428c.192 0 .336-.028.432-.084.104-.056.156-.156.156-.3s-.052-.244-.156-.3c-.096-.048-.24-.072-.432-.072h-.744v-1.38c-.688-.088-1.248-.332-1.68-.732-.432-.4-.664-.88-.696-1.44H80.5a.928.928 0 00.372.636c.224.168.5.252.828.252.32 0 .568-.064.744-.192.184-.128.276-.292.276-.492 0-.216-.112-.376-.336-.48-.216-.112-.564-.232-1.044-.36a9.196 9.196 0 01-1.224-.372 2.176 2.176 0 01-.816-.588c-.224-.264-.336-.62-.336-1.068 0-.368.104-.704.312-1.008.216-.304.52-.544.912-.72.4-.176.868-.264 1.404-.264.792 0 1.424.2 1.896.6.472.392.732.924.78 1.596H82.66a.844.844 0 00-.336-.624c-.192-.16-.452-.24-.78-.24-.304 0-.54.056-.708.168a.54.54 0 00-.24.468c0 .224.112.396.336.516.224.112.572.228 1.044.348.48.12.876.244 1.188.372.312.128.58.328.804.6.232.264.352.616.36 1.056 0 .512-.188.948-.564 1.308-.368.36-.876.58-1.524.66v.468zm5.147-9.42V452h-1.68v-8.88h1.68zm7.84 5.412c0 .24-.016.456-.048.648h-4.86c.04.48.208.856.504 1.128.296.272.66.408 1.092.408.624 0 1.068-.268 1.332-.804h1.812a3.059 3.059 0 01-1.104 1.584c-.544.408-1.212.612-2.004.612-.64 0-1.216-.14-1.728-.42a3.091 3.091 0 01-1.188-1.212c-.28-.52-.42-1.12-.42-1.8 0-.688.14-1.292.42-1.812.28-.52.672-.92 1.176-1.2.504-.28 1.084-.42 1.74-.42.632 0 1.196.136 1.692.408.504.272.892.66 1.164 1.164.28.496.42 1.068.42 1.716zm-1.74-.48c-.008-.432-.164-.776-.468-1.032-.304-.264-.676-.396-1.116-.396-.416 0-.768.128-1.056.384-.28.248-.452.596-.516 1.044h3.156zm11.222-2.796c.816 0 1.472.252 1.968.756.504.496.756 1.192.756 2.088v3.9h-1.68v-3.672c0-.52-.132-.916-.396-1.188-.264-.28-.624-.42-1.08-.42-.456 0-.82.14-1.092.42-.264.272-.396.668-.396 1.188V452h-1.68v-3.672c0-.52-.132-.916-.396-1.188-.264-.28-.624-.42-1.08-.42-.464 0-.832.14-1.104.42-.264.272-.396.668-.396 1.188V452h-1.68v-6.648h1.68v.804c.216-.28.492-.5.828-.66.344-.16.72-.24 1.128-.24.52 0 .984.112 1.392.336.408.216.724.528.948.936.216-.384.528-.692.936-.924a2.715 2.715 0 011.344-.348zm10.07 6.828c-.584 0-1.112-.1-1.584-.3a2.597 2.597 0 01-1.104-.864c-.272-.376-.412-.82-.42-1.332h1.8c.024.344.144.616.36.816.224.2.528.3.912.3.392 0 .7-.092.924-.276a.935.935 0 00.336-.744.853.853 0 00-.228-.612 1.527 1.527 0 00-.576-.372 7.887 7.887 0 00-.936-.312c-.544-.16-.988-.316-1.332-.468a2.469 2.469 0 01-.876-.708c-.24-.32-.36-.744-.36-1.272 0-.496.124-.928.372-1.296a2.328 2.328 0 011.044-.84c.448-.2.96-.3 1.536-.3.864 0 1.564.212 2.1.636.544.416.844 1 .9 1.752h-1.848a.935.935 0 00-.372-.708c-.224-.192-.524-.288-.9-.288-.328 0-.592.084-.792.252-.192.168-.288.412-.288.732 0 .224.072.412.216.564.152.144.336.264.552.36.224.088.536.192.936.312.544.16.988.32 1.332.48.344.16.64.4.888.72.248.32.372.74.372 1.26 0 .448-.116.864-.348 1.248-.232.384-.572.692-1.02.924-.448.224-.98.336-1.596.336zm3.988-3.432c0-.672.132-1.268.396-1.788.272-.52.636-.92 1.092-1.2.464-.28.98-.42 1.548-.42.496 0 .928.1 1.296.3.376.2.676.452.9.756v-.948h1.692V452h-1.692v-.972a2.539 2.539 0 01-.9.78c-.376.2-.812.3-1.308.3-.56 0-1.072-.144-1.536-.432a3.091 3.091 0 01-1.092-1.212c-.264-.528-.396-1.132-.396-1.812zm5.232.024c0-.408-.08-.756-.24-1.044a1.642 1.642 0 00-.648-.672 1.699 1.699 0 00-.876-.24c-.312 0-.6.076-.864.228-.264.152-.48.376-.648.672-.16.288-.24.632-.24 1.032s.08.752.24 1.056c.168.296.384.524.648.684.272.16.56.24.864.24.312 0 .604-.076.876-.228.272-.16.488-.384.648-.672.16-.296.24-.648.24-1.056zm9.693-3.324l-4.116 9.792h-1.788l1.44-3.312-2.664-6.48h1.884l1.716 4.644 1.74-4.644h1.788zm2.658 0V452h-1.68v-6.648h1.68zm4.272 6.756a3.568 3.568 0 01-1.464-.288 2.686 2.686 0 01-1.032-.804 2.046 2.046 0 01-.408-1.116h1.692a.928.928 0 00.372.636c.224.168.5.252.828.252.32 0 .568-.064.744-.192.184-.128.276-.292.276-.492 0-.216-.112-.376-.336-.48-.216-.112-.564-.232-1.044-.36a9.196 9.196 0 01-1.224-.372 2.176 2.176 0 01-.816-.588c-.224-.264-.336-.62-.336-1.068 0-.368.104-.704.312-1.008.216-.304.52-.544.912-.72.4-.176.868-.264 1.404-.264.792 0 1.424.2 1.896.6.472.392.732.924.78 1.596h-1.608a.844.844 0 00-.336-.624c-.192-.16-.452-.24-.78-.24-.304 0-.54.056-.708.168a.54.54 0 00-.24.468c0 .224.112.396.336.516.224.112.572.228 1.044.348.48.12.876.244 1.188.372.312.128.58.328.804.6.232.264.352.616.36 1.056 0 .384-.108.728-.324 1.032-.208.304-.512.544-.912.72-.392.168-.852.252-1.38.252zm5.747-6.756V452h-1.68v-6.648h1.68zM80.556 502l-3.048-3.732V502h-1.68v-8.376h1.68v3.756l3.048-3.756h2.028l-3.456 4.152L82.68 502h-2.124zm4.081-7.44c-.296 0-.544-.092-.744-.276a.962.962 0 01-.288-.708c0-.28.096-.512.288-.696.2-.192.448-.288.744-.288s.54.096.732.288c.2.184.3.416.3.696 0 .28-.1.516-.3.708a1.015 1.015 0 01-.732.276zm.828.792V502h-1.68v-6.648h1.68zm9.916-.096c.816 0 1.472.252 1.968.756.504.496.756 1.192.756 2.088v3.9h-1.68v-3.672c0-.52-.132-.916-.396-1.188-.264-.28-.624-.42-1.08-.42-.456 0-.82.14-1.092.42-.264.272-.396.668-.396 1.188V502h-1.68v-3.672c0-.52-.132-.916-.396-1.188-.264-.28-.624-.42-1.08-.42-.464 0-.832.14-1.104.42-.264.272-.396.668-.396 1.188V502h-1.68v-6.648h1.68v.804c.216-.28.492-.5.828-.66.344-.16.72-.24 1.128-.24.52 0 .984.112 1.392.336.408.216.724.528.948.936.216-.384.528-.692.936-.924a2.715 2.715 0 011.344-.348zm10.498 3.276c0 .24-.016.456-.048.648h-4.86c.04.48.208.856.504 1.128.296.272.66.408 1.092.408.624 0 1.068-.268 1.332-.804h1.812a3.059 3.059 0 01-1.104 1.584c-.544.408-1.212.612-2.004.612-.64 0-1.216-.14-1.728-.42a3.091 3.091 0 01-1.188-1.212c-.28-.52-.42-1.12-.42-1.8 0-.688.14-1.292.42-1.812.28-.52.672-.92 1.176-1.2.504-.28 1.084-.42 1.74-.42.632 0 1.196.136 1.692.408.504.272.892.66 1.164 1.164.28.496.42 1.068.42 1.716zm-1.74-.48c-.008-.432-.164-.776-.468-1.032-.304-.264-.676-.396-1.116-.396-.416 0-.768.128-1.056.384-.28.248-.452.596-.516 1.044h3.156z" fill="#484F5B"/><rect x="201" y="516" width="105" height="10" rx="5" fill="#B1BBCC"/><path d="M82.992 525h-1.68l-3.804-5.748V525h-1.68v-8.388h1.68l3.804 5.76v-5.76h1.68V525zm7.84-3.468c0 .24-.016.456-.048.648h-4.86c.04.48.208.856.504 1.128.296.272.66.408 1.092.408.624 0 1.068-.268 1.332-.804h1.812a3.059 3.059 0 01-1.104 1.584c-.544.408-1.212.612-2.004.612-.64 0-1.216-.14-1.728-.42a3.091 3.091 0 01-1.188-1.212c-.28-.52-.42-1.12-.42-1.8 0-.688.14-1.292.42-1.812.28-.52.672-.92 1.176-1.2.504-.28 1.084-.42 1.74-.42.632 0 1.196.136 1.692.408.504.272.892.66 1.164 1.164.28.496.42 1.068.42 1.716zm-1.74-.48c-.008-.432-.164-.776-.468-1.032-.304-.264-.676-.396-1.116-.396-.416 0-.768.128-1.056.384-.28.248-.452.596-.516 1.044h3.156zM99.646 525l-3.048-3.732V525h-1.68v-8.376h1.68v3.756l3.048-3.756h2.028l-3.456 4.152L101.77 525h-2.124zm2.797-3.348c0-.672.132-1.268.396-1.788.272-.52.636-.92 1.092-1.2.464-.28.98-.42 1.548-.42.496 0 .928.1 1.296.3.376.2.676.452.9.756v-.948h1.692V525h-1.692v-.972a2.539 2.539 0 01-.9.78c-.376.2-.812.3-1.308.3-.56 0-1.072-.144-1.536-.432a3.091 3.091 0 01-1.092-1.212c-.264-.528-.396-1.132-.396-1.812zm5.232.024c0-.408-.08-.756-.24-1.044a1.642 1.642 0 00-.648-.672 1.699 1.699 0 00-.876-.24c-.312 0-.6.076-.864.228-.264.152-.48.376-.648.672-.16.288-.24.632-.24 1.032s.08.752.24 1.056c.168.296.384.524.648.684.272.16.56.24.864.24.312 0 .604-.076.876-.228.272-.16.488-.384.648-.672.16-.296.24-.648.24-1.056zm2.901-.024c0-.672.132-1.268.396-1.788.272-.52.64-.92 1.104-1.2.464-.28.98-.42 1.548-.42.432 0 .844.096 1.236.288.392.184.704.432.936.744v-3.156h1.704V525h-1.704v-.984c-.208.328-.5.592-.876.792-.376.2-.812.3-1.308.3-.56 0-1.072-.144-1.536-.432a3.06 3.06 0 01-1.104-1.212c-.264-.528-.396-1.132-.396-1.812zm5.232.024c0-.408-.08-.756-.24-1.044a1.642 1.642 0 00-.648-.672 1.699 1.699 0 00-.876-.24c-.312 0-.6.076-.864.228-.264.152-.48.376-.648.672-.16.288-.24.632-.24 1.032s.08.752.24 1.056c.168.296.384.524.648.684.272.16.56.24.864.24.312 0 .604-.076.876-.228.272-.16.488-.384.648-.672.16-.296.24-.648.24-1.056zm2.9-.024c0-.672.132-1.268.396-1.788.273-.52.637-.92 1.093-1.2.464-.28.98-.42 1.548-.42.496 0 .928.1 1.296.3.376.2.676.452.9.756v-.948h1.692V525h-1.692v-.972a2.539 2.539 0 01-.9.78c-.376.2-.812.3-1.308.3-.56 0-1.072-.144-1.536-.432a3.101 3.101 0 01-1.093-1.212c-.264-.528-.396-1.132-.396-1.812zm5.233.024c0-.408-.08-.756-.24-1.044a1.642 1.642 0 00-.648-.672 1.699 1.699 0 00-.876-.24c-.312 0-.6.076-.865.228a1.753 1.753 0 00-.647.672c-.16.288-.24.632-.24 1.032s.08.752.24 1.056c.168.296.384.524.647.684.273.16.561.24.865.24.312 0 .604-.076.876-.228.272-.16.488-.384.648-.672.16-.296.24-.648.24-1.056zm5.012-2.292c.216-.352.496-.628.84-.828.352-.2.752-.3 1.2-.3v1.764h-.444c-.528 0-.928.124-1.2.372-.264.248-.396.68-.396 1.296V525h-1.68v-6.648h1.68v1.032zM208.776 443.624V452h-1.68v-3.564h-3.588V452h-1.68v-8.376h1.68v3.444h3.588v-3.444h1.68zm1.222 5.028c0-.672.132-1.268.396-1.788.272-.52.636-.92 1.092-1.2.464-.28.98-.42 1.548-.42.496 0 .928.1 1.296.3.376.2.676.452.9.756v-.948h1.692V452h-1.692v-.972a2.539 2.539 0 01-.9.78c-.376.2-.812.3-1.308.3-.56 0-1.072-.144-1.536-.432a3.091 3.091 0 01-1.092-1.212c-.264-.528-.396-1.132-.396-1.812zm5.232.024c0-.408-.08-.756-.24-1.044a1.642 1.642 0 00-.648-.672 1.699 1.699 0 00-.876-.24c-.312 0-.6.076-.864.228-.264.152-.48.376-.648.672-.16.288-.24.632-.24 1.032s.08.752.24 1.056c.168.296.384.524.648.684.272.16.56.24.864.24.312 0 .604-.076.876-.228.272-.16.488-.384.648-.672.16-.296.24-.648.24-1.056zm5.012-2.292c.216-.352.496-.628.84-.828.352-.2.752-.3 1.2-.3v1.764h-.444c-.528 0-.928.124-1.2.372-.264.248-.396.68-.396 1.296V452h-1.68v-6.648h1.68v1.032zm2.74 2.292c0-.688.14-1.288.42-1.8.28-.52.668-.92 1.164-1.2.496-.288 1.064-.432 1.704-.432.824 0 1.504.208 2.04.624.544.408.908.984 1.092 1.728h-1.812a1.282 1.282 0 00-.492-.672c-.224-.168-.504-.252-.84-.252-.48 0-.86.176-1.14.528-.28.344-.42.836-.42 1.476 0 .632.14 1.124.42 1.476.28.344.66.516 1.14.516.68 0 1.124-.304 1.332-.912h1.812c-.184.72-.548 1.292-1.092 1.716-.544.424-1.224.636-2.04.636-.64 0-1.208-.14-1.704-.42a3.054 3.054 0 01-1.164-1.2c-.28-.52-.42-1.124-.42-1.812zm7.219-.024c0-.672.132-1.268.396-1.788.272-.52.636-.92 1.092-1.2.464-.28.98-.42 1.548-.42.496 0 .928.1 1.296.3.376.2.676.452.9.756v-.948h1.692V452h-1.692v-.972a2.539 2.539 0 01-.9.78c-.376.2-.812.3-1.308.3-.56 0-1.072-.144-1.536-.432a3.091 3.091 0 01-1.092-1.212c-.264-.528-.396-1.132-.396-1.812zm5.232.024c0-.408-.08-.756-.24-1.044a1.642 1.642 0 00-.648-.672 1.699 1.699 0 00-.876-.24c-.312 0-.6.076-.864.228-.264.152-.48.376-.648.672-.16.288-.24.632-.24 1.032s.08.752.24 1.056c.168.296.384.524.648.684.272.16.56.24.864.24.312 0 .604-.076.876-.228.272-.16.488-.384.648-.672.16-.296.24-.648.24-1.056zm7.017-3.42c.792 0 1.432.252 1.92.756.488.496.732 1.192.732 2.088v3.9h-1.68v-3.672c0-.528-.132-.932-.396-1.212-.264-.288-.624-.432-1.08-.432-.464 0-.832.144-1.104.432-.264.28-.396.684-.396 1.212V452h-1.68v-6.648h1.68v.828c.224-.288.508-.512.852-.672a2.64 2.64 0 011.152-.252zm3.817 3.396c0-.672.132-1.268.396-1.788.272-.52.636-.92 1.092-1.2.464-.28.98-.42 1.548-.42.496 0 .928.1 1.296.3.376.2.676.452.9.756v-.948h1.692V452h-1.692v-.972a2.539 2.539 0 01-.9.78c-.376.2-.812.3-1.308.3-.56 0-1.072-.144-1.536-.432a3.091 3.091 0 01-1.092-1.212c-.264-.528-.396-1.132-.396-1.812zm5.232.024c0-.408-.08-.756-.24-1.044a1.642 1.642 0 00-.648-.672 1.699 1.699 0 00-.876-.24c-.312 0-.6.076-.864.228-.264.152-.48.376-.648.672-.16.288-.24.632-.24 1.032s.08.752.24 1.056c.168.296.384.524.648.684.272.16.56.24.864.24.312 0 .604-.076.876-.228.272-.16.488-.384.648-.672.16-.296.24-.648.24-1.056zm7.017-3.42c.792 0 1.432.252 1.92.756.488.496.732 1.192.732 2.088v3.9h-1.68v-3.672c0-.528-.132-.932-.396-1.212-.264-.288-.624-.432-1.08-.432-.464 0-.832.144-1.104.432-.264.28-.396.684-.396 1.212V452h-1.68v-6.648h1.68v.828c.224-.288.508-.512.852-.672a2.64 2.64 0 011.152-.252zm10.037-1.632c.88 0 1.652.172 2.316.516a3.63 3.63 0 011.548 1.476c.368.632.552 1.368.552 2.208 0 .84-.184 1.576-.552 2.208a3.673 3.673 0 01-1.548 1.452c-.664.344-1.436.516-2.316.516h-2.928v-8.376h2.928zm-.06 6.948c.88 0 1.56-.24 2.04-.72s.72-1.156.72-2.028c0-.872-.24-1.552-.72-2.04-.48-.496-1.16-.744-2.04-.744h-1.188v5.532h1.188zm11.913-2.04c0 .24-.016.456-.048.648h-4.86c.04.48.208.856.504 1.128.296.272.66.408 1.092.408.624 0 1.068-.268 1.332-.804h1.812a3.059 3.059 0 01-1.104 1.584c-.544.408-1.212.612-2.004.612-.64 0-1.216-.14-1.728-.42a3.091 3.091 0 01-1.188-1.212c-.28-.52-.42-1.12-.42-1.8 0-.688.14-1.292.42-1.812.28-.52.672-.92 1.176-1.2.504-.28 1.084-.42 1.74-.42.632 0 1.196.136 1.692.408.504.272.892.66 1.164 1.164.28.496.42 1.068.42 1.716zm-1.74-.48c-.008-.432-.164-.776-.468-1.032-.304-.264-.676-.396-1.116-.396-.416 0-.768.128-1.056.384-.28.248-.452.596-.516 1.044h3.156zm5.511 4.056a3.568 3.568 0 01-1.464-.288 2.686 2.686 0 01-1.032-.804 2.046 2.046 0 01-.408-1.116h1.692a.928.928 0 00.372.636c.224.168.5.252.828.252.32 0 .568-.064.744-.192.184-.128.276-.292.276-.492 0-.216-.112-.376-.336-.48-.216-.112-.564-.232-1.044-.36a9.196 9.196 0 01-1.224-.372 2.176 2.176 0 01-.816-.588c-.224-.264-.336-.62-.336-1.068 0-.368.104-.704.312-1.008.216-.304.52-.544.912-.72.4-.176.868-.264 1.404-.264.792 0 1.424.2 1.896.6.472.392.732.924.78 1.596h-1.608a.844.844 0 00-.336-.624c-.192-.16-.452-.24-.78-.24-.304 0-.54.056-.708.168a.54.54 0 00-.24.468c0 .224.112.396.336.516.224.112.572.228 1.044.348.48.12.876.244 1.188.372.312.128.58.328.804.6.232.264.352.616.36 1.056 0 .384-.108.728-.324 1.032-.208.304-.512.544-.912.72-.392.168-.852.252-1.38.252zm5.951-5.376v3.216c0 .224.052.388.156.492.112.096.296.144.552.144h.78V452h-1.056c-1.416 0-2.124-.688-2.124-2.064v-3.204h-.792v-1.38h.792v-1.644h1.692v1.644h1.488v1.38h-1.488zm8.876 1.8c0 .24-.016.456-.048.648h-4.86c.04.48.208.856.504 1.128.296.272.66.408 1.092.408.624 0 1.068-.268 1.332-.804h1.812a3.059 3.059 0 01-1.104 1.584c-.544.408-1.212.612-2.004.612-.64 0-1.216-.14-1.728-.42a3.091 3.091 0 01-1.188-1.212c-.28-.52-.42-1.12-.42-1.8 0-.688.14-1.292.42-1.812.28-.52.672-.92 1.176-1.2.504-.28 1.084-.42 1.74-.42.632 0 1.196.136 1.692.408.504.272.892.66 1.164 1.164.28.496.42 1.068.42 1.716zm-1.74-.48c-.008-.432-.164-.776-.468-1.032-.304-.264-.676-.396-1.116-.396-.416 0-.768.128-1.056.384-.28.248-.452.596-.516 1.044h3.156zm6.902 3.948l-2.256-2.832V452h-1.68v-8.88h1.68v5.052l2.232-2.82h2.184l-2.928 3.336L306.35 452h-2.184z" fill="#484F5B"/><rect x="62" y="560" width="100" height="10" rx="5" fill="#B1BBCC"/><path fill="#F0FFF4" stroke="#DCFCE5" d="M62.5 578.5h259v109h-259z"/><rect x="75" y="610" width="33" height="10" rx="5" fill="#B1BBCC"/><rect x="201" y="640" width="105" height="10" rx="5" fill="#B1BBCC"/><rect x="201" y="610" width="33" height="10" rx="5" fill="#B1BBCC"/><path d="M77.508 590.624V599h-1.68v-8.376h1.68zm-.84-.804a.766.766 0 01-.564-.228.766.766 0 01-.228-.564c0-.224.076-.412.228-.564.152-.16.34-.24.564-.24.224 0 .412.08.564.24.16.152.24.34.24.564 0 .224-.08.412-.24.564a.766.766 0 01-.564.228zm5.572 9.72c.44 0 .808.112 1.104.336.304.224.456.548.456.972 0 .432-.156.764-.468.996-.304.232-.68.348-1.128.348H80.5v-.984h1.428c.192 0 .336-.028.432-.084.104-.056.156-.156.156-.3s-.052-.244-.156-.3c-.096-.048-.24-.072-.432-.072h-.744v-1.38c-.688-.088-1.248-.332-1.68-.732-.432-.4-.664-.88-.696-1.44H80.5a.928.928 0 00.372.636c.224.168.5.252.828.252.32 0 .568-.064.744-.192.184-.128.276-.292.276-.492 0-.216-.112-.376-.336-.48-.216-.112-.564-.232-1.044-.36a9.196 9.196 0 01-1.224-.372 2.176 2.176 0 01-.816-.588c-.224-.264-.336-.62-.336-1.068 0-.368.104-.704.312-1.008.216-.304.52-.544.912-.72.4-.176.868-.264 1.404-.264.792 0 1.424.2 1.896.6.472.392.732.924.78 1.596H82.66a.844.844 0 00-.336-.624c-.192-.16-.452-.24-.78-.24-.304 0-.54.056-.708.168a.54.54 0 00-.24.468c0 .224.112.396.336.516.224.112.572.228 1.044.348.48.12.876.244 1.188.372.312.128.58.328.804.6.232.264.352.616.36 1.056 0 .512-.188.948-.564 1.308-.368.36-.876.58-1.524.66v.468zm5.147-9.42V599h-1.68v-8.88h1.68zm7.84 5.412c0 .24-.016.456-.048.648h-4.86c.04.48.208.856.504 1.128.296.272.66.408 1.092.408.624 0 1.068-.268 1.332-.804h1.812a3.059 3.059 0 01-1.104 1.584c-.544.408-1.212.612-2.004.612-.64 0-1.216-.14-1.728-.42a3.091 3.091 0 01-1.188-1.212c-.28-.52-.42-1.12-.42-1.8 0-.688.14-1.292.42-1.812.28-.52.672-.92 1.176-1.2.504-.28 1.084-.42 1.74-.42.632 0 1.196.136 1.692.408.504.272.892.66 1.164 1.164.28.496.42 1.068.42 1.716zm-1.74-.48c-.008-.432-.164-.776-.468-1.032-.304-.264-.676-.396-1.116-.396-.416 0-.768.128-1.056.384-.28.248-.452.596-.516 1.044h3.156zm11.222-2.796c.816 0 1.472.252 1.968.756.504.496.756 1.192.756 2.088v3.9h-1.68v-3.672c0-.52-.132-.916-.396-1.188-.264-.28-.624-.42-1.08-.42-.456 0-.82.14-1.092.42-.264.272-.396.668-.396 1.188V599h-1.68v-3.672c0-.52-.132-.916-.396-1.188-.264-.28-.624-.42-1.08-.42-.464 0-.832.14-1.104.42-.264.272-.396.668-.396 1.188V599h-1.68v-6.648h1.68v.804c.216-.28.492-.5.828-.66.344-.16.72-.24 1.128-.24.52 0 .984.112 1.392.336.408.216.724.528.948.936.216-.384.528-.692.936-.924a2.715 2.715 0 011.344-.348zm10.07 6.828c-.584 0-1.112-.1-1.584-.3a2.597 2.597 0 01-1.104-.864c-.272-.376-.412-.82-.42-1.332h1.8c.024.344.144.616.36.816.224.2.528.3.912.3.392 0 .7-.092.924-.276a.935.935 0 00.336-.744.853.853 0 00-.228-.612 1.527 1.527 0 00-.576-.372 7.887 7.887 0 00-.936-.312c-.544-.16-.988-.316-1.332-.468a2.469 2.469 0 01-.876-.708c-.24-.32-.36-.744-.36-1.272 0-.496.124-.928.372-1.296a2.328 2.328 0 011.044-.84c.448-.2.96-.3 1.536-.3.864 0 1.564.212 2.1.636.544.416.844 1 .9 1.752h-1.848a.935.935 0 00-.372-.708c-.224-.192-.524-.288-.9-.288-.328 0-.592.084-.792.252-.192.168-.288.412-.288.732 0 .224.072.412.216.564.152.144.336.264.552.36.224.088.536.192.936.312.544.16.988.32 1.332.48.344.16.64.4.888.72.248.32.372.74.372 1.26 0 .448-.116.864-.348 1.248-.232.384-.572.692-1.02.924-.448.224-.98.336-1.596.336zm3.988-3.432c0-.672.132-1.268.396-1.788.272-.52.636-.92 1.092-1.2.464-.28.98-.42 1.548-.42.496 0 .928.1 1.296.3.376.2.676.452.9.756v-.948h1.692V599h-1.692v-.972a2.539 2.539 0 01-.9.78c-.376.2-.812.3-1.308.3-.56 0-1.072-.144-1.536-.432a3.091 3.091 0 01-1.092-1.212c-.264-.528-.396-1.132-.396-1.812zm5.232.024c0-.408-.08-.756-.24-1.044a1.642 1.642 0 00-.648-.672 1.699 1.699 0 00-.876-.24c-.312 0-.6.076-.864.228-.264.152-.48.376-.648.672-.16.288-.24.632-.24 1.032s.08.752.24 1.056c.168.296.384.524.648.684.272.16.56.24.864.24.312 0 .604-.076.876-.228.272-.16.488-.384.648-.672.16-.296.24-.648.24-1.056zm9.693-3.324l-4.116 9.792h-1.788l1.44-3.312-2.664-6.48h1.884l1.716 4.644 1.74-4.644h1.788zm2.658 0V599h-1.68v-6.648h1.68zm4.272 6.756a3.568 3.568 0 01-1.464-.288 2.686 2.686 0 01-1.032-.804 2.046 2.046 0 01-.408-1.116h1.692a.928.928 0 00.372.636c.224.168.5.252.828.252.32 0 .568-.064.744-.192.184-.128.276-.292.276-.492 0-.216-.112-.376-.336-.48-.216-.112-.564-.232-1.044-.36a9.196 9.196 0 01-1.224-.372 2.176 2.176 0 01-.816-.588c-.224-.264-.336-.62-.336-1.068 0-.368.104-.704.312-1.008.216-.304.52-.544.912-.72.4-.176.868-.264 1.404-.264.792 0 1.424.2 1.896.6.472.392.732.924.78 1.596h-1.608a.844.844 0 00-.336-.624c-.192-.16-.452-.24-.78-.24-.304 0-.54.056-.708.168a.54.54 0 00-.24.468c0 .224.112.396.336.516.224.112.572.228 1.044.348.48.12.876.244 1.188.372.312.128.58.328.804.6.232.264.352.616.36 1.056 0 .384-.108.728-.324 1.032-.208.304-.512.544-.912.72-.392.168-.852.252-1.38.252zm5.747-6.756V599h-1.68v-6.648h1.68zM80.556 649l-3.048-3.732V649h-1.68v-8.376h1.68v3.756l3.048-3.756h2.028l-3.456 4.152L82.68 649h-2.124zm4.081-7.44c-.296 0-.544-.092-.744-.276a.962.962 0 01-.288-.708c0-.28.096-.512.288-.696.2-.192.448-.288.744-.288s.54.096.732.288c.2.184.3.416.3.696 0 .28-.1.516-.3.708a1.015 1.015 0 01-.732.276zm.828.792V649h-1.68v-6.648h1.68zm9.916-.096c.816 0 1.472.252 1.968.756.504.496.756 1.192.756 2.088v3.9h-1.68v-3.672c0-.52-.132-.916-.396-1.188-.264-.28-.624-.42-1.08-.42-.456 0-.82.14-1.092.42-.264.272-.396.668-.396 1.188V649h-1.68v-3.672c0-.52-.132-.916-.396-1.188-.264-.28-.624-.42-1.08-.42-.464 0-.832.14-1.104.42-.264.272-.396.668-.396 1.188V649h-1.68v-6.648h1.68v.804c.216-.28.492-.5.828-.66.344-.16.72-.24 1.128-.24.52 0 .984.112 1.392.336.408.216.724.528.948.936.216-.384.528-.692.936-.924a2.715 2.715 0 011.344-.348zm3.886 3.396c0-.672.132-1.268.396-1.788.272-.52.64-.92 1.104-1.2.464-.28.98-.42 1.548-.42.432 0 .844.096 1.236.288.392.184.704.432.936.744v-3.156h1.704V649h-1.704v-.984c-.208.328-.5.592-.876.792-.376.2-.812.3-1.308.3-.56 0-1.072-.144-1.536-.432a3.06 3.06 0 01-1.104-1.212c-.264-.528-.396-1.132-.396-1.812zm5.232.024c0-.408-.08-.756-.24-1.044a1.642 1.642 0 00-.648-.672 1.699 1.699 0 00-.876-.24c-.312 0-.6.076-.864.228-.264.152-.48.376-.648.672-.16.288-.24.632-.24 1.032s.08.752.24 1.056c.168.296.384.524.648.684.272.16.56.24.864.24.312 0 .604-.076.876-.228.272-.16.488-.384.648-.672.16-.296.24-.648.24-1.056zm9.513-.144c0 .24-.016.456-.048.648h-4.86c.04.48.208.856.504 1.128.296.272.66.408 1.092.408.624 0 1.068-.268 1.332-.804h1.812a3.059 3.059 0 01-1.104 1.584c-.544.408-1.212.612-2.004.612-.64 0-1.216-.14-1.728-.42a3.091 3.091 0 01-1.188-1.212c-.28-.52-.42-1.12-.42-1.8 0-.688.14-1.292.42-1.812.28-.52.672-.92 1.176-1.2.504-.28 1.084-.42 1.74-.42.632 0 1.196.136 1.692.408.504.272.892.66 1.164 1.164.28.496.42 1.068.42 1.716zm-1.74-.48c-.008-.432-.164-.776-.468-1.032-.304-.264-.676-.396-1.116-.396-.416 0-.768.128-1.056.384-.28.248-.452.596-.516 1.044h3.156zm6.65-2.796c.792 0 1.432.252 1.92.756.488.496.732 1.192.732 2.088v3.9h-1.68v-3.672c0-.528-.132-.932-.396-1.212-.264-.288-.624-.432-1.08-.432-.464 0-.832.144-1.104.432-.264.28-.396.684-.396 1.212V649h-1.68v-6.648h1.68v.828c.224-.288.508-.512.852-.672a2.64 2.64 0 011.152-.252z" fill="#484F5B"/><rect x="201" y="663" width="105" height="10" rx="5" fill="#B1BBCC"/><path d="M82.992 672h-1.68l-3.804-5.748V672h-1.68v-8.388h1.68l3.804 5.76v-5.76h1.68V672zm7.84-3.468c0 .24-.016.456-.048.648h-4.86c.04.48.208.856.504 1.128.296.272.66.408 1.092.408.624 0 1.068-.268 1.332-.804h1.812a3.059 3.059 0 01-1.104 1.584c-.544.408-1.212.612-2.004.612-.64 0-1.216-.14-1.728-.42a3.091 3.091 0 01-1.188-1.212c-.28-.52-.42-1.12-.42-1.8 0-.688.14-1.292.42-1.812.28-.52.672-.92 1.176-1.2.504-.28 1.084-.42 1.74-.42.632 0 1.196.136 1.692.408.504.272.892.66 1.164 1.164.28.496.42 1.068.42 1.716zm-1.74-.48c-.008-.432-.164-.776-.468-1.032-.304-.264-.676-.396-1.116-.396-.416 0-.768.128-1.056.384-.28.248-.452.596-.516 1.044h3.156zM99.646 672l-3.048-3.732V672h-1.68v-8.376h1.68v3.756l3.048-3.756h2.028l-3.456 4.152L101.77 672h-2.124zm2.797-3.348c0-.672.132-1.268.396-1.788.272-.52.636-.92 1.092-1.2.464-.28.98-.42 1.548-.42.496 0 .928.1 1.296.3.376.2.676.452.9.756v-.948h1.692V672h-1.692v-.972a2.539 2.539 0 01-.9.78c-.376.2-.812.3-1.308.3-.56 0-1.072-.144-1.536-.432a3.091 3.091 0 01-1.092-1.212c-.264-.528-.396-1.132-.396-1.812zm5.232.024c0-.408-.08-.756-.24-1.044a1.642 1.642 0 00-.648-.672 1.699 1.699 0 00-.876-.24c-.312 0-.6.076-.864.228-.264.152-.48.376-.648.672-.16.288-.24.632-.24 1.032s.08.752.24 1.056c.168.296.384.524.648.684.272.16.56.24.864.24.312 0 .604-.076.876-.228.272-.16.488-.384.648-.672.16-.296.24-.648.24-1.056zm2.901-.024c0-.672.132-1.268.396-1.788.272-.52.64-.92 1.104-1.2.464-.28.98-.42 1.548-.42.432 0 .844.096 1.236.288.392.184.704.432.936.744v-3.156h1.704V672h-1.704v-.984c-.208.328-.5.592-.876.792-.376.2-.812.3-1.308.3-.56 0-1.072-.144-1.536-.432a3.06 3.06 0 01-1.104-1.212c-.264-.528-.396-1.132-.396-1.812zm5.232.024c0-.408-.08-.756-.24-1.044a1.642 1.642 0 00-.648-.672 1.699 1.699 0 00-.876-.24c-.312 0-.6.076-.864.228-.264.152-.48.376-.648.672-.16.288-.24.632-.24 1.032s.08.752.24 1.056c.168.296.384.524.648.684.272.16.56.24.864.24.312 0 .604-.076.876-.228.272-.16.488-.384.648-.672.16-.296.24-.648.24-1.056zm2.9-.024c0-.672.132-1.268.396-1.788.273-.52.637-.92 1.093-1.2.464-.28.98-.42 1.548-.42.496 0 .928.1 1.296.3.376.2.676.452.9.756v-.948h1.692V672h-1.692v-.972a2.539 2.539 0 01-.9.78c-.376.2-.812.3-1.308.3-.56 0-1.072-.144-1.536-.432a3.101 3.101 0 01-1.093-1.212c-.264-.528-.396-1.132-.396-1.812zm5.233.024c0-.408-.08-.756-.24-1.044a1.642 1.642 0 00-.648-.672 1.699 1.699 0 00-.876-.24c-.312 0-.6.076-.865.228a1.753 1.753 0 00-.647.672c-.16.288-.24.632-.24 1.032s.08.752.24 1.056c.168.296.384.524.647.684.273.16.561.24.865.24.312 0 .604-.076.876-.228.272-.16.488-.384.648-.672.16-.296.24-.648.24-1.056zm5.012-2.292c.216-.352.496-.628.84-.828.352-.2.752-.3 1.2-.3v1.764h-.444c-.528 0-.928.124-1.2.372-.264.248-.396.68-.396 1.296V672h-1.68v-6.648h1.68v1.032zM207.66 593.144a1.967 1.967 0 00-.792-.804c-.336-.184-.728-.276-1.176-.276-.496 0-.936.112-1.32.336a2.32 2.32 0 00-.9.96c-.216.416-.324.896-.324 1.44 0 .56.108 1.048.324 1.464.224.416.532.736.924.96.392.224.848.336 1.368.336.64 0 1.164-.168 1.572-.504.408-.344.676-.82.804-1.428h-2.88v-1.284h4.536v1.464a3.935 3.935 0 01-.72 1.62 4.108 4.108 0 01-1.428 1.2c-.576.296-1.224.444-1.944.444-.808 0-1.54-.18-2.196-.54a4.071 4.071 0 01-1.536-1.524c-.368-.648-.552-1.384-.552-2.208 0-.824.184-1.56.552-2.208a3.96 3.96 0 011.536-1.524 4.387 4.387 0 012.184-.552c.944 0 1.764.232 2.46.696.696.456 1.176 1.1 1.44 1.932h-1.932zm9.559 2.388c0 .24-.016.456-.048.648h-4.86c.04.48.208.856.504 1.128.296.272.66.408 1.092.408.624 0 1.068-.268 1.332-.804h1.812a3.059 3.059 0 01-1.104 1.584c-.544.408-1.212.612-2.004.612-.64 0-1.216-.14-1.728-.42a3.091 3.091 0 01-1.188-1.212c-.28-.52-.42-1.12-.42-1.8 0-.688.14-1.292.42-1.812.28-.52.672-.92 1.176-1.2.504-.28 1.084-.42 1.74-.42.632 0 1.196.136 1.692.408.504.272.892.66 1.164 1.164.28.496.42 1.068.42 1.716zm-1.74-.48c-.008-.432-.164-.776-.468-1.032-.304-.264-.676-.396-1.116-.396-.416 0-.768.128-1.056.384-.28.248-.452.596-.516 1.044h3.156zm4.646-4.932V599h-1.68v-8.88h1.68zm7.84 5.412c0 .24-.016.456-.048.648h-4.86c.04.48.208.856.504 1.128.296.272.66.408 1.092.408.624 0 1.068-.268 1.332-.804h1.812a3.059 3.059 0 01-1.104 1.584c-.544.408-1.212.612-2.004.612-.64 0-1.216-.14-1.728-.42a3.091 3.091 0 01-1.188-1.212c-.28-.52-.42-1.12-.42-1.8 0-.688.14-1.292.42-1.812.28-.52.672-.92 1.176-1.2.504-.28 1.084-.42 1.74-.42.632 0 1.196.136 1.692.408.504.272.892.66 1.164 1.164.28.496.42 1.068.42 1.716zm-1.74-.48c-.008-.432-.164-.776-.468-1.032-.304-.264-.676-.396-1.116-.396-.416 0-.768.128-1.056.384-.28.248-.452.596-.516 1.044h3.156zm6.65-2.796c.792 0 1.432.252 1.92.756.488.496.732 1.192.732 2.088v3.9h-1.68v-3.672c0-.528-.132-.932-.396-1.212-.264-.288-.624-.432-1.08-.432-.464 0-.832.144-1.104.432-.264.28-.396.684-.396 1.212V599h-1.68v-6.648h1.68v.828c.224-.288.508-.512.852-.672a2.64 2.64 0 011.152-.252zm10.037-1.632c.88 0 1.652.172 2.316.516a3.63 3.63 0 011.548 1.476c.368.632.552 1.368.552 2.208 0 .84-.184 1.576-.552 2.208a3.673 3.673 0 01-1.548 1.452c-.664.344-1.436.516-2.316.516h-2.928v-8.376h2.928zm-.06 6.948c.88 0 1.56-.24 2.04-.72s.72-1.156.72-2.028c0-.872-.24-1.552-.72-2.04-.48-.496-1.16-.744-2.04-.744h-1.188v5.532h1.188zm11.914-2.04c0 .24-.016.456-.048.648h-4.86c.04.48.208.856.504 1.128.296.272.66.408 1.092.408.624 0 1.068-.268 1.332-.804h1.812a3.059 3.059 0 01-1.104 1.584c-.544.408-1.212.612-2.004.612-.64 0-1.216-.14-1.728-.42a3.091 3.091 0 01-1.188-1.212c-.28-.52-.42-1.12-.42-1.8 0-.688.14-1.292.42-1.812.28-.52.672-.92 1.176-1.2.504-.28 1.084-.42 1.74-.42.632 0 1.196.136 1.692.408.504.272.892.66 1.164 1.164.28.496.42 1.068.42 1.716zm-1.74-.48c-.008-.432-.164-.776-.468-1.032-.304-.264-.676-.396-1.116-.396-.416 0-.768.128-1.056.384-.28.248-.452.596-.516 1.044h3.156zm5.51 4.056a3.568 3.568 0 01-1.464-.288 2.686 2.686 0 01-1.032-.804 2.046 2.046 0 01-.408-1.116h1.692a.928.928 0 00.372.636c.224.168.5.252.828.252.32 0 .568-.064.744-.192.184-.128.276-.292.276-.492 0-.216-.112-.376-.336-.48-.216-.112-.564-.232-1.044-.36a9.196 9.196 0 01-1.224-.372 2.176 2.176 0 01-.816-.588c-.224-.264-.336-.62-.336-1.068 0-.368.104-.704.312-1.008.216-.304.52-.544.912-.72.4-.176.868-.264 1.404-.264.792 0 1.424.2 1.896.6.472.392.732.924.78 1.596h-1.608a.844.844 0 00-.336-.624c-.192-.16-.452-.24-.78-.24-.304 0-.54.056-.708.168a.54.54 0 00-.24.468c0 .224.112.396.336.516.224.112.572.228 1.044.348.48.12.876.244 1.188.372.312.128.58.328.804.6.232.264.352.616.36 1.056 0 .384-.108.728-.324 1.032-.208.304-.512.544-.912.72-.392.168-.852.252-1.38.252zm5.951-5.376v3.216c0 .224.052.388.156.492.112.096.296.144.552.144h.78V599h-1.056c-1.416 0-2.124-.688-2.124-2.064v-3.204h-.792v-1.38h.792v-1.644h1.692v1.644h1.488v1.38h-1.488zm8.876 1.8c0 .24-.016.456-.048.648h-4.86c.04.48.208.856.504 1.128.296.272.66.408 1.092.408.624 0 1.068-.268 1.332-.804h1.812a3.059 3.059 0 01-1.104 1.584c-.544.408-1.212.612-2.004.612-.64 0-1.216-.14-1.728-.42a3.091 3.091 0 01-1.188-1.212c-.28-.52-.42-1.12-.42-1.8 0-.688.14-1.292.42-1.812.28-.52.672-.92 1.176-1.2.504-.28 1.084-.42 1.74-.42.632 0 1.196.136 1.692.408.504.272.892.66 1.164 1.164.28.496.42 1.068.42 1.716zm-1.74-.48c-.008-.432-.164-.776-.468-1.032-.304-.264-.676-.396-1.116-.396-.416 0-.768.128-1.056.384-.28.248-.452.596-.516 1.044h3.156zm6.903 3.948l-2.256-2.832V599h-1.68v-8.88h1.68v5.052l2.232-2.82h2.184l-2.928 3.336L280.71 599h-2.184z" fill="#484F5B"/><path fill="#FFF0F0" stroke="#FCDCDC" d="M62.5 696.5h259v109h-259z"/><path d="M77.508 708.624V717h-1.68v-8.376h1.68zm-.84-.804a.766.766 0 01-.564-.228.766.766 0 01-.228-.564c0-.224.076-.412.228-.564.152-.16.34-.24.564-.24.224 0 .412.08.564.24.16.152.24.34.24.564 0 .224-.08.412-.24.564a.766.766 0 01-.564.228zm5.572 9.72c.44 0 .808.112 1.104.336.304.224.456.548.456.972 0 .432-.156.764-.468.996-.304.232-.68.348-1.128.348H80.5v-.984h1.428c.192 0 .336-.028.432-.084.104-.056.156-.156.156-.3s-.052-.244-.156-.3c-.096-.048-.24-.072-.432-.072h-.744v-1.38c-.688-.088-1.248-.332-1.68-.732-.432-.4-.664-.88-.696-1.44H80.5a.928.928 0 00.372.636c.224.168.5.252.828.252.32 0 .568-.064.744-.192.184-.128.276-.292.276-.492 0-.216-.112-.376-.336-.48-.216-.112-.564-.232-1.044-.36a9.196 9.196 0 01-1.224-.372 2.176 2.176 0 01-.816-.588c-.224-.264-.336-.62-.336-1.068 0-.368.104-.704.312-1.008.216-.304.52-.544.912-.72.4-.176.868-.264 1.404-.264.792 0 1.424.2 1.896.6.472.392.732.924.78 1.596H82.66a.844.844 0 00-.336-.624c-.192-.16-.452-.24-.78-.24-.304 0-.54.056-.708.168a.54.54 0 00-.24.468c0 .224.112.396.336.516.224.112.572.228 1.044.348.48.12.876.244 1.188.372.312.128.58.328.804.6.232.264.352.616.36 1.056 0 .512-.188.948-.564 1.308-.368.36-.876.58-1.524.66v.468zm5.147-9.42V717h-1.68v-8.88h1.68zm7.84 5.412c0 .24-.016.456-.048.648h-4.86c.04.48.208.856.504 1.128.296.272.66.408 1.092.408.624 0 1.068-.268 1.332-.804h1.812a3.059 3.059 0 01-1.104 1.584c-.544.408-1.212.612-2.004.612-.64 0-1.216-.14-1.728-.42a3.091 3.091 0 01-1.188-1.212c-.28-.52-.42-1.12-.42-1.8 0-.688.14-1.292.42-1.812.28-.52.672-.92 1.176-1.2.504-.28 1.084-.42 1.74-.42.632 0 1.196.136 1.692.408.504.272.892.66 1.164 1.164.28.496.42 1.068.42 1.716zm-1.74-.48c-.008-.432-.164-.776-.468-1.032-.304-.264-.676-.396-1.116-.396-.416 0-.768.128-1.056.384-.28.248-.452.596-.516 1.044h3.156zm11.222-2.796c.816 0 1.472.252 1.968.756.504.496.756 1.192.756 2.088v3.9h-1.68v-3.672c0-.52-.132-.916-.396-1.188-.264-.28-.624-.42-1.08-.42-.456 0-.82.14-1.092.42-.264.272-.396.668-.396 1.188V717h-1.68v-3.672c0-.52-.132-.916-.396-1.188-.264-.28-.624-.42-1.08-.42-.464 0-.832.14-1.104.42-.264.272-.396.668-.396 1.188V717h-1.68v-6.648h1.68v.804c.216-.28.492-.5.828-.66.344-.16.72-.24 1.128-.24.52 0 .984.112 1.392.336.408.216.724.528.948.936.216-.384.528-.692.936-.924a2.715 2.715 0 011.344-.348zm10.07 6.828c-.584 0-1.112-.1-1.584-.3a2.597 2.597 0 01-1.104-.864c-.272-.376-.412-.82-.42-1.332h1.8c.024.344.144.616.36.816.224.2.528.3.912.3.392 0 .7-.092.924-.276a.935.935 0 00.336-.744.853.853 0 00-.228-.612 1.527 1.527 0 00-.576-.372 7.887 7.887 0 00-.936-.312c-.544-.16-.988-.316-1.332-.468a2.469 2.469 0 01-.876-.708c-.24-.32-.36-.744-.36-1.272 0-.496.124-.928.372-1.296a2.328 2.328 0 011.044-.84c.448-.2.96-.3 1.536-.3.864 0 1.564.212 2.1.636.544.416.844 1 .9 1.752h-1.848a.935.935 0 00-.372-.708c-.224-.192-.524-.288-.9-.288-.328 0-.592.084-.792.252-.192.168-.288.412-.288.732 0 .224.072.412.216.564.152.144.336.264.552.36.224.088.536.192.936.312.544.16.988.32 1.332.48.344.16.64.4.888.72.248.32.372.74.372 1.26 0 .448-.116.864-.348 1.248-.232.384-.572.692-1.02.924-.448.224-.98.336-1.596.336zm3.988-3.432c0-.672.132-1.268.396-1.788.272-.52.636-.92 1.092-1.2.464-.28.98-.42 1.548-.42.496 0 .928.1 1.296.3.376.2.676.452.9.756v-.948h1.692V717h-1.692v-.972a2.539 2.539 0 01-.9.78c-.376.2-.812.3-1.308.3-.56 0-1.072-.144-1.536-.432a3.091 3.091 0 01-1.092-1.212c-.264-.528-.396-1.132-.396-1.812zm5.232.024c0-.408-.08-.756-.24-1.044a1.642 1.642 0 00-.648-.672 1.699 1.699 0 00-.876-.24c-.312 0-.6.076-.864.228-.264.152-.48.376-.648.672-.16.288-.24.632-.24 1.032s.08.752.24 1.056c.168.296.384.524.648.684.272.16.56.24.864.24.312 0 .604-.076.876-.228.272-.16.488-.384.648-.672.16-.296.24-.648.24-1.056zm9.693-3.324l-4.116 9.792h-1.788l1.44-3.312-2.664-6.48h1.884l1.716 4.644 1.74-4.644h1.788zm2.658 0V717h-1.68v-6.648h1.68zm4.272 6.756a3.568 3.568 0 01-1.464-.288 2.686 2.686 0 01-1.032-.804 2.046 2.046 0 01-.408-1.116h1.692a.928.928 0 00.372.636c.224.168.5.252.828.252.32 0 .568-.064.744-.192.184-.128.276-.292.276-.492 0-.216-.112-.376-.336-.48-.216-.112-.564-.232-1.044-.36a9.196 9.196 0 01-1.224-.372 2.176 2.176 0 01-.816-.588c-.224-.264-.336-.62-.336-1.068 0-.368.104-.704.312-1.008.216-.304.52-.544.912-.72.4-.176.868-.264 1.404-.264.792 0 1.424.2 1.896.6.472.392.732.924.78 1.596h-1.608a.844.844 0 00-.336-.624c-.192-.16-.452-.24-.78-.24-.304 0-.54.056-.708.168a.54.54 0 00-.24.468c0 .224.112.396.336.516.224.112.572.228 1.044.348.48.12.876.244 1.188.372.312.128.58.328.804.6.232.264.352.616.36 1.056 0 .384-.108.728-.324 1.032-.208.304-.512.544-.912.72-.392.168-.852.252-1.38.252zm5.747-6.756V717h-1.68v-6.648h1.68z" fill="#484F5B"/><path d="M46.304 83.112a5.906 5.906 0 01-2.912-.736 5.595 5.595 0 01-2.096-2.048c-.512-.885-.768-1.877-.768-2.976s.256-2.085.768-2.96a5.595 5.595 0 012.096-2.048 5.906 5.906 0 012.912-.736c1.056 0 2.021.245 2.896.736a5.332 5.332 0 012.08 2.048c.512.875.768 1.861.768 2.96s-.256 2.09-.768 2.976a5.477 5.477 0 01-2.08 2.048c-.875.49-1.84.736-2.896.736zm0-2.496c.896 0 1.61-.299 2.144-.896.544-.597.816-1.387.816-2.368 0-.992-.272-1.781-.816-2.368-.533-.597-1.248-.896-2.144-.896-.907 0-1.632.293-2.176.88-.533.587-.8 1.381-.8 2.384 0 .992.267 1.787.8 2.384.544.587 1.27.88 2.176.88zm-1.616-9.872a1.13 1.13 0 01-.832-.336 1.13 1.13 0 01-.336-.832c0-.33.112-.608.336-.832.224-.235.501-.352.832-.352a1.15 1.15 0 011.184 1.184c0 .33-.117.608-.352.832a1.13 1.13 0 01-.832.336zm3.2 0a1.13 1.13 0 01-.832-.336 1.13 1.13 0 01-.336-.832c0-.33.112-.608.336-.832.224-.235.501-.352.832-.352a1.15 1.15 0 011.184 1.184c0 .33-.117.608-.352.832a1.13 1.13 0 01-.832.336zm9.074 3.2c.63 0 1.179.128 1.648.384.48.256.848.592 1.104 1.008v-1.264h2.736v8.912c0 .821-.165 1.563-.496 2.224a3.646 3.646 0 01-1.488 1.6c-.661.395-1.488.592-2.48.592-1.322 0-2.394-.315-3.216-.944-.821-.619-1.29-1.461-1.408-2.528h2.704c.085.341.288.608.608.8.32.203.715.304 1.184.304.566 0 1.014-.165 1.344-.496.342-.32.512-.837.512-1.552V81.72a3.1 3.1 0 01-1.104 1.024c-.47.256-1.018.384-1.648.384a3.697 3.697 0 01-2-.56c-.597-.384-1.072-.923-1.424-1.616-.341-.704-.512-1.515-.512-2.432s.17-1.723.512-2.416c.352-.693.827-1.227 1.424-1.6a3.697 3.697 0 012-.56zm2.752 4.592c0-.683-.192-1.221-.576-1.616a1.82 1.82 0 00-1.376-.592 1.87 1.87 0 00-1.392.592c-.373.384-.56.917-.56 1.6s.187 1.227.56 1.632a1.87 1.87 0 001.392.592 1.82 1.82 0 001.376-.592c.384-.395.576-.933.576-1.616zm1.088-7.872c0 .875-.25 1.552-.752 2.032-.501.48-1.162.72-1.984.72-.821 0-1.483-.24-1.984-.72-.49-.49-.736-1.173-.736-2.048v-.304h1.36c0 .352.101.619.304.8.203.181.555.272 1.056.272.502 0 .853-.09 1.056-.272.203-.181.304-.448.304-.8h1.376v.32zm6.363 4.896c.32-.49.72-.875 1.2-1.152a3.05 3.05 0 011.6-.432v2.896h-.752c-.682 0-1.194.15-1.535.448-.342.288-.513.8-.513 1.536V83H64.43v-8.928h2.736v1.488zm12.524 2.832c0 .256-.016.523-.048.8H73.45c.043.555.219.981.528 1.28.32.288.71.432 1.168.432.683 0 1.158-.288 1.424-.864h2.912a3.945 3.945 0 01-.816 1.584c-.384.47-.87.837-1.456 1.104-.586.267-1.242.4-1.968.4-.874 0-1.653-.187-2.336-.56a3.983 3.983 0 01-1.6-1.6c-.384-.693-.576-1.504-.576-2.432 0-.928.187-1.739.56-2.432a3.983 3.983 0 011.6-1.6c.683-.373 1.467-.56 2.352-.56.864 0 1.632.181 2.304.544.672.363 1.195.88 1.568 1.552.384.672.576 1.456.576 2.352zm-2.8-.72c0-.47-.16-.843-.48-1.12-.32-.277-.72-.416-1.2-.416-.458 0-.848.133-1.168.4-.31.267-.501.645-.576 1.136h3.424zm9.684-3.696c1.045 0 1.877.341 2.496 1.024.629.672.944 1.6.944 2.784V83h-2.72v-4.848c0-.597-.155-1.061-.464-1.392-.31-.33-.726-.496-1.248-.496-.523 0-.939.165-1.248.496-.31.33-.464.795-.464 1.392V83h-2.736v-8.928h2.736v1.184c.277-.395.65-.704 1.12-.928.469-.235.997-.352 1.584-.352zm4.797 4.56c0-.928.186-1.739.56-2.432a4.012 4.012 0 011.584-1.6c.683-.373 1.461-.56 2.336-.56 1.12 0 2.053.293 2.8.88.757.587 1.253 1.413 1.488 2.48h-2.912c-.245-.683-.72-1.024-1.424-1.024-.502 0-.902.197-1.2.592-.299.384-.448.939-.448 1.664s.15 1.285.448 1.68c.298.384.698.576 1.2.576.704 0 1.178-.341 1.424-1.024h2.912c-.235 1.045-.73 1.867-1.488 2.464s-1.69.896-2.8.896c-.875 0-1.653-.187-2.336-.56a4.012 4.012 0 01-1.584-1.6c-.374-.693-.56-1.504-.56-2.432zm11.607-5.392c-.48 0-.874-.139-1.184-.416a1.413 1.413 0 01-.448-1.056c0-.427.15-.779.448-1.056.31-.288.704-.432 1.184-.432.47 0 .854.144 1.152.432.31.277.464.63.464 1.056 0 .416-.154.768-.464 1.056-.298.277-.682.416-1.152.416zm1.36.928V83h-2.736v-8.928h2.736z" fill="#000"/><path d="M120.2 211.768c1.184 0 2.219.235 3.104.704a4.965 4.965 0 012.048 1.984c.491.843.736 1.819.736 2.928 0 1.099-.245 2.075-.736 2.928a4.94 4.94 0 01-2.064 1.984c-.885.469-1.915.704-3.088.704h-4.208v-11.232h4.208zm-.176 8.864c1.035 0 1.84-.283 2.416-.848.576-.565.864-1.365.864-2.4s-.288-1.84-.864-2.416c-.576-.576-1.381-.864-2.416-.864h-1.296v6.528h1.296zm16.009-2.24c0 .256-.016.523-.048.8h-6.192c.043.555.219.981.528 1.28.32.288.709.432 1.168.432.683 0 1.157-.288 1.424-.864h2.912a3.932 3.932 0 01-.816 1.584 3.976 3.976 0 01-1.456 1.104c-.587.267-1.243.4-1.968.4-.875 0-1.653-.187-2.336-.56a3.981 3.981 0 01-1.6-1.6c-.384-.693-.576-1.504-.576-2.432 0-.928.187-1.739.56-2.432a3.981 3.981 0 011.6-1.6c.683-.373 1.467-.56 2.352-.56.864 0 1.632.181 2.304.544.672.363 1.195.88 1.568 1.552.384.672.576 1.456.576 2.352zm-2.8-.72c0-.469-.16-.843-.48-1.12-.32-.277-.72-.416-1.2-.416-.459 0-.848.133-1.168.4-.309.267-.501.645-.576 1.136h3.424zm7.875 5.456c-.778 0-1.472-.133-2.08-.4-.608-.267-1.088-.629-1.44-1.088a2.926 2.926 0 01-.592-1.568h2.704c.032.309.176.56.432.752.256.192.571.288.944.288.342 0 .603-.064.784-.192.192-.139.288-.315.288-.528 0-.256-.133-.443-.4-.56-.266-.128-.698-.267-1.296-.416a13.14 13.14 0 01-1.6-.464 2.886 2.886 0 01-1.104-.784c-.309-.363-.464-.848-.464-1.456 0-.512.139-.976.416-1.392.288-.427.704-.763 1.248-1.008.555-.245 1.211-.368 1.968-.368 1.12 0 2 .277 2.64.832.651.555 1.024 1.291 1.12 2.208h-2.528a1.074 1.074 0 00-.416-.736c-.224-.181-.522-.272-.896-.272-.32 0-.565.064-.736.192a.569.569 0 00-.256.496c0 .256.134.448.4.576.278.128.704.256 1.28.384.662.171 1.2.341 1.616.512.416.16.779.427 1.088.8.32.363.486.853.496 1.472 0 .523-.149.992-.448 1.408-.288.405-.709.725-1.264.96-.544.235-1.178.352-1.904.352zm10.266-2.448V223h-1.392c-.992 0-1.765-.24-2.32-.72-.554-.491-.832-1.285-.832-2.384v-3.552h-1.088v-2.272h1.088v-2.176h2.736v2.176h1.792v2.272h-1.792v3.584c0 .267.064.459.192.576.128.117.342.176.64.176h.976zm9.94-2.288c0 .256-.016.523-.048.8h-6.192c.043.555.219.981.528 1.28.32.288.71.432 1.168.432.683 0 1.158-.288 1.424-.864h2.912a3.932 3.932 0 01-.816 1.584 3.976 3.976 0 01-1.456 1.104c-.586.267-1.242.4-1.968.4-.874 0-1.653-.187-2.336-.56a3.987 3.987 0 01-1.6-1.6c-.384-.693-.576-1.504-.576-2.432 0-.928.187-1.739.56-2.432a3.987 3.987 0 011.6-1.6c.683-.373 1.467-.56 2.352-.56.864 0 1.632.181 2.304.544.672.363 1.195.88 1.568 1.552.384.672.576 1.456.576 2.352zm-2.8-.72c0-.469-.16-.843-.48-1.12-.32-.277-.72-.416-1.2-.416-.458 0-.848.133-1.168.4-.309.267-.501.645-.576 1.136h3.424zm9.7 5.328l-2.72-3.744V223h-2.736v-11.84h2.736v6.544l2.704-3.632h3.376l-3.712 4.48 3.744 4.448h-3.392zm13.137.112a5.902 5.902 0 01-2.912-.736 5.595 5.595 0 01-2.096-2.048c-.512-.885-.768-1.877-.768-2.976s.256-2.085.768-2.96a5.595 5.595 0 012.096-2.048 5.902 5.902 0 012.912-.736c1.056 0 2.021.245 2.896.736a5.332 5.332 0 012.08 2.048c.512.875.768 1.861.768 2.96s-.256 2.091-.768 2.976a5.475 5.475 0 01-2.08 2.048c-.875.491-1.84.736-2.896.736zm0-2.496c.896 0 1.611-.299 2.144-.896.544-.597.816-1.387.816-2.368 0-.992-.272-1.781-.816-2.368-.533-.597-1.248-.896-2.144-.896-.907 0-1.632.293-2.176.88-.533.587-.8 1.381-.8 2.384 0 .992.267 1.787.8 2.384.544.587 1.269.88 2.176.88zm10.002-9.456V223h-2.736v-11.84h2.736z" fill="#62AB76"/></g></svg>