<svg width="1280" height="693" viewBox="0 0 1280 693" fill="none" xmlns="http://www.w3.org/2000/svg">
<mask id="mask0" mask-type="alpha" maskUnits="userSpaceOnUse" x="0" y="0" width="1280" height="693">
<rect width="1280" height="693" fill="#C4C4C4"/>
</mask>
<g mask="url(#mask0)">
<rect x="-88" y="-8" width="1448" height="563" fill="#4299E1"/>
<path fill-rule="evenodd" clip-rule="evenodd" d="M965.738 0H312.525C306.38 8.6157 301.439 18.404 297.996 29.0274C288.71 21.3757 277.33 16.855 265.022 16.855C258.223 16.8641 251.698 18.2446 245.655 20.7621L245.654 22.2758C238.886 19.28 231.528 17.6378 223.832 17.6378C197.665 17.6378 175.37 36.6679 166.91 63.3135C160.346 60.408 153.216 58.8019 145.756 58.8019C133.825 58.8019 122.729 62.8894 113.451 69.8824C107.485 52.648 92.816 40.4576 75.66 40.4576C61.0222 40.4576 48.1946 49.3275 41.041 62.6368C26.2223 50.0223 7.87781 42.56 -11.9933 42.56C-50.2638 42.56 -82.8997 70.2434 -95.4913 109.097C-104.778 101.446 -116.157 96.9251 -128.466 96.9251C-135.265 96.9341 -141.789 98.3147 -147.833 100.832V337.918H245.654L245.655 257.848H639.142V256.28H1031.51V19.1944C1025.47 16.6769 1018.94 15.2963 1012.14 15.2873C999.837 15.2873 988.457 19.808 979.171 27.4597C975.935 17.4754 971.376 8.2288 965.738 0ZM1110.26 61.7458C1101.8 35.1002 1079.5 16.0701 1053.34 16.0701C1045.64 16.0701 1038.28 17.7124 1031.51 20.7081V336.35H1425V99.2645C1418.96 96.747 1412.43 95.3664 1405.63 95.3574C1393.32 95.3574 1381.94 99.8781 1372.66 107.53C1360.07 68.6757 1327.43 40.9923 1289.16 40.9923C1269.29 40.9923 1250.94 48.4546 1236.13 61.0691C1228.97 47.7598 1216.14 38.8899 1201.51 38.8899C1184.35 38.8899 1169.68 51.0803 1163.72 68.3147C1154.44 61.3217 1143.34 57.2342 1131.41 57.2342C1123.95 57.2342 1116.82 58.8403 1110.26 61.7458Z" fill="white"/>
<path d="M1360 246H-80V725H1360V246Z" fill="#68D391"/>
<path fill-rule="evenodd" clip-rule="evenodd" d="M664.359 264.903C668.482 236.684 658.643 219.93 646.948 217.86C634.925 215.725 626.81 211.323 623.18 192.22C619.55 173.117 617.316 153.718 603.897 156.248C590.477 158.761 585.73 175.81 584.613 195.39C583.496 214.953 575.103 212.719 563.638 220.389C554.686 226.385 561.092 253.388 564.311 264.903H664.359Z" fill="#48BB78"/>
<path opacity="0.2" fill-rule="evenodd" clip-rule="evenodd" d="M651.334 243.09C645.881 239.279 634.843 246.9 626.039 245.915C617.234 244.929 619.468 217.531 607.166 217.531C594.863 217.531 595.848 248.839 586.059 248.986C576.269 249.118 577.107 235.435 569.14 240.002C562.57 243.763 566.841 259.499 568.533 264.903H647.786C650.808 257.725 655.095 245.718 651.334 243.09Z" fill="black"/>
<path d="M604.932 170.357C604.932 170.357 609.81 226.385 605.556 264.903" stroke="#94CFB9" stroke-width="1.0001" stroke-miterlimit="10"/>
<path d="M611.387 174.086L605.769 181.986" stroke="#94CFB9" stroke-width="1.0001" stroke-miterlimit="10"/>
<path d="M594.994 178.948L606.229 189.756" stroke="#94CFB9" stroke-width="1.0001" stroke-miterlimit="10"/>
<path d="M618.795 193.254L606.952 206.461" stroke="#94CFB9" stroke-width="1.0001" stroke-miterlimit="10"/>
<path d="M589.163 199.857L607.297 217.63" stroke="#94CFB9" stroke-width="1.0001" stroke-miterlimit="10"/>
<path d="M628.732 208.744L607.281 229.44" stroke="#94CFB9" stroke-width="1.0001" stroke-miterlimit="10"/>
<path d="M594.37 231.526L607.001 243.96" stroke="#94CFB9" stroke-width="1.0001" stroke-miterlimit="10"/>
<path d="M622.868 234.844L606.623 252.025" stroke="#94CFB9" stroke-width="1.0001" stroke-miterlimit="10"/>
<path d="M574.462 229.391C574.462 229.391 579.357 237.423 580.145 264.903" stroke="#94CFB9" stroke-width="1.0001" stroke-miterlimit="10"/>
<path d="M586.321 242.531L579.423 253.931" stroke="#94CFB9" stroke-width="1.0001" stroke-miterlimit="10"/>
<path d="M564.788 250.366L579.62 256.132" stroke="#94CFB9" stroke-width="1.0001" stroke-miterlimit="10"/>
<path d="M644.484 235.567C644.484 235.567 641.971 237.423 641.183 264.903" stroke="#94CFB9" stroke-width="1.0001" stroke-miterlimit="10"/>
<path d="M635.023 242.564L641.906 253.931" stroke="#94CFB9" stroke-width="1.0001" stroke-miterlimit="10"/>
<path d="M652.155 252.074L641.709 256.132" stroke="#94CFB9" stroke-width="1.0001" stroke-miterlimit="10"/>
<path fill-rule="evenodd" clip-rule="evenodd" d="M572.687 264.804C572.687 264.804 578.272 191.612 565.509 190.035C552.73 188.458 554.997 220.685 542.284 220.406C529.587 220.127 522.639 209.499 517.99 220.932C513.342 232.364 513.227 243.484 502.255 240.051C491.266 236.618 475.054 264.788 475.054 264.788H572.687V264.804Z" fill="#2F855A"/>
<path opacity="0.11" fill-rule="evenodd" clip-rule="evenodd" d="M502.239 240.051C513.228 243.484 513.343 232.364 517.975 220.931C521.9 211.257 527.485 217.367 536.782 219.65V264.788H475.022C475.038 264.804 491.25 236.618 502.239 240.051Z" fill="black" stroke="#7DBD77" stroke-width="0.216" stroke-miterlimit="22.9256"/>
<path fill-rule="evenodd" clip-rule="evenodd" d="M95.5073 264.903H-80V186.536C-76.3699 166.546 -70.4732 150.449 -60.8806 149.924C-35.1418 148.528 -33.992 214.542 4.04967 210.304C33.9114 206.986 73.2013 207.824 95.5073 235.567V264.903Z" fill="#2F855A"/>
<path fill-rule="evenodd" clip-rule="evenodd" d="M7.21139 264.804C7.21139 264.804 -0.50863 163.705 17.1324 161.537C34.7735 159.368 31.6526 203.865 49.2116 203.488C66.7541 203.11 76.3466 188.425 82.769 204.21C89.175 220.012 89.3393 235.37 104.516 230.623C119.694 225.876 142.098 264.804 142.098 264.804H7.21139V264.804Z" fill="#48BB78"/>
<path opacity="0.11" fill-rule="evenodd" clip-rule="evenodd" d="M104.516 230.623C89.3392 235.37 89.1914 219.995 82.769 204.21C77.3485 190.856 69.6449 199.299 56.7837 202.453V264.804H142.098C142.082 264.804 119.677 225.876 104.516 230.623Z" fill="black" stroke="#7DBD77" stroke-width="0.216" stroke-miterlimit="22.9256"/>
<path d="M69.5793 225.908C69.5793 225.908 64.9309 224.824 63.7811 264.788" stroke="#94CFB9" stroke-width="1.0001" stroke-miterlimit="10"/>
<path d="M54.8127 232.298L64.8323 248.822" stroke="#94CFB9" stroke-width="1.0001" stroke-miterlimit="10"/>
<path d="M80.7815 245.718L64.5366 252.025" stroke="#94CFB9" stroke-width="1.0001" stroke-miterlimit="10"/>
<path d="M23.522 188.261C23.522 188.261 19.4977 218.5 24.6225 264.903" stroke="#94CFB9" stroke-width="1.0001" stroke-miterlimit="10"/>
<path d="M32.2111 198.445L22.5364 207.939" stroke="#94CFB9" stroke-width="1.0001" stroke-miterlimit="10"/>
<path d="M16.6068 216.431L22.5364 222.163" stroke="#94CFB9" stroke-width="1.0001" stroke-miterlimit="10"/>
<path d="M41.163 219.995L22.8813 239.657" stroke="#94CFB9" stroke-width="1.0001" stroke-miterlimit="10"/>
<path d="M11.0221 240.823L23.3413 249.381" stroke="#94CFB9" stroke-width="1.0001" stroke-miterlimit="10"/>
<path fill-rule="evenodd" clip-rule="evenodd" d="M864.783 225.81C849.261 237.587 824.13 226.861 810.201 214.805C807.77 212.702 805.98 209.926 805.323 206.773C802.153 191.661 826.019 187.949 826.709 174.414C827.021 168.485 822.553 163.573 819.252 158.646C811.745 147.378 809.61 133.12 811.203 119.668C812.796 106.215 817.839 93.4033 823.703 81.1991C828.499 71.2124 837.073 59.928 847.898 62.3261C854.846 63.8701 859.297 70.7853 861.334 77.6019C864.11 86.9809 863.716 97.0662 861.843 106.675C861.022 110.929 859.905 115.348 861.055 119.536C863.995 130.246 879.008 132.66 884.445 142.335C889.997 152.174 883.377 164.165 877.25 173.659C872.011 181.789 868.791 186.832 872.224 193.764C873.128 195.603 874.474 197.18 876.035 198.527C879.336 201.385 885.529 210.074 864.783 225.81Z" fill="#EF855A"/>
<path fill-rule="evenodd" clip-rule="evenodd" d="M844.383 90.1017C844.366 93.469 840.966 277.55 840.966 277.55L854.304 278.717L844.383 90.1017Z" fill="#9C4F5F"/>
<path fill-rule="evenodd" clip-rule="evenodd" d="M844.958 220.587L817.642 191.628L847.323 218.156C848.029 218.78 848.079 219.864 847.454 220.554C846.83 221.26 845.746 221.309 845.056 220.685C845.023 220.652 844.991 220.619 844.958 220.587Z" fill="#9C4F5F"/>
<path fill-rule="evenodd" clip-rule="evenodd" d="M842.346 137.112L831.292 115.446L844.531 135.863C844.909 136.455 844.744 137.227 844.153 137.605C843.578 137.982 842.79 137.818 842.412 137.227C842.395 137.194 842.363 137.161 842.346 137.112Z" fill="#9C4F5F"/>
<path fill-rule="evenodd" clip-rule="evenodd" d="M847.06 182.545L873.489 142.68L847.06 182.545Z" fill="#9C4F5F"/>
<path fill-rule="evenodd" clip-rule="evenodd" d="M845.697 181.641L873.489 142.68L848.424 183.448C847.947 184.22 846.945 184.467 846.173 183.99C845.401 183.514 845.155 182.512 845.631 181.74C845.648 181.707 845.681 181.674 845.697 181.641Z" fill="#9C4F5F"/>
<path fill-rule="evenodd" clip-rule="evenodd" d="M1212 322.903H1359.81V204.326C1350.61 202.224 1347.9 223.298 1340.54 223.856C1331.7 224.513 1330 170.309 1318.63 170.769C1307.25 171.213 1304.46 225.483 1292.58 233.564C1280.7 241.629 1265.8 214.97 1258.5 233.564C1251.19 252.158 1257.2 287.21 1244.5 286.799C1231.81 286.372 1212.84 279.145 1212 322.903Z" fill="#2F855A"/>
<path d="M1267.68 244.865C1267.68 244.865 1275.97 284.779 1276.67 323.001" stroke="#94CFB9" stroke-width="1.0001" stroke-miterlimit="10"/>
<path d="M1273.58 248.265L1270.55 260.798" stroke="#94CFB9" stroke-width="1.0001" stroke-miterlimit="10"/>
<path d="M1283.41 254.589L1273.99 285.42" stroke="#94CFB9" stroke-width="1.0001" stroke-miterlimit="10"/>
<path d="M1286.08 281.839L1276.02 307.725" stroke="#94CFB9" stroke-width="1.0001" stroke-miterlimit="10"/>
<path d="M1263.89 259.943L1271.35 265.807" stroke="#94CFB9" stroke-width="1.0001" stroke-miterlimit="10"/>
<path d="M1259.82 278.751L1274.52 290.216" stroke="#94CFB9" stroke-width="1.0001" stroke-miterlimit="10"/>
<path d="M1262.99 302.798L1276.21 310.797" stroke="#94CFB9" stroke-width="1.0001" stroke-miterlimit="10"/>
<path fill-rule="evenodd" clip-rule="evenodd" d="M1284.04 283.81C1268.52 295.587 1243.39 284.861 1229.46 272.805C1227.03 270.702 1225.24 267.926 1224.58 264.773C1221.41 249.661 1245.27 245.949 1245.96 232.414C1246.28 226.485 1241.81 221.573 1238.51 216.646C1231 205.378 1228.87 191.12 1230.46 177.668C1232.05 164.215 1237.09 151.403 1242.96 139.199C1247.75 129.212 1256.33 117.928 1267.15 120.326C1274.1 121.87 1278.55 128.785 1280.59 135.602C1283.37 144.981 1282.97 155.066 1281.1 164.675C1280.28 168.929 1279.16 173.348 1280.31 177.536C1283.25 188.246 1298.26 190.66 1303.7 200.335C1309.25 210.174 1302.63 222.165 1296.51 231.659C1291.27 239.789 1288.05 244.832 1291.48 251.764C1292.38 253.603 1293.73 255.18 1295.29 256.527C1298.59 259.385 1304.78 268.074 1284.04 283.81Z" fill="#EF855A"/>
<path fill-rule="evenodd" clip-rule="evenodd" d="M1263.64 148.102C1263.62 151.469 1260.22 335.55 1260.22 335.55L1273.56 336.717L1263.64 148.102Z" fill="#9C4F5F"/>
<path fill-rule="evenodd" clip-rule="evenodd" d="M1264.21 278.587L1236.9 249.628L1266.58 276.156C1267.28 276.78 1267.33 277.864 1266.71 278.554C1266.09 279.26 1265 279.309 1264.31 278.685C1264.28 278.652 1264.25 278.619 1264.21 278.587Z" fill="#9C4F5F"/>
<path fill-rule="evenodd" clip-rule="evenodd" d="M1261.6 195.112L1250.55 173.446L1263.79 193.863C1264.16 194.455 1264 195.227 1263.41 195.605C1262.83 195.982 1262.05 195.818 1261.67 195.227C1261.65 195.194 1261.62 195.161 1261.6 195.112Z" fill="#9C4F5F"/>
<path fill-rule="evenodd" clip-rule="evenodd" d="M1266.32 240.545L1292.74 200.68L1266.32 240.545Z" fill="#9C4F5F"/>
<path fill-rule="evenodd" clip-rule="evenodd" d="M1264.95 239.641L1292.74 200.68L1267.68 241.448C1267.2 242.22 1266.2 242.467 1265.43 241.99C1264.66 241.514 1264.41 240.512 1264.89 239.74C1264.9 239.707 1264.94 239.674 1264.95 239.641Z" fill="#9C4F5F"/>
<path fill-rule="evenodd" clip-rule="evenodd" d="M824.787 234.877C812.895 243.894 793.628 235.682 782.968 226.45C781.111 224.841 779.732 222.705 779.222 220.291C776.791 208.711 795.073 205.869 795.615 195.488C795.845 190.955 792.429 187.177 789.915 183.399C784.167 174.759 782.524 163.836 783.74 153.537C784.955 143.222 788.815 133.416 793.316 124.053C796.995 116.399 803.565 107.759 811.86 109.599C817.182 110.782 820.598 116.071 822.159 121.31C824.294 128.505 823.982 136.225 822.553 143.583C821.912 146.836 821.075 150.236 821.945 153.439C824.196 161.635 835.71 163.491 839.882 170.916C844.136 178.455 839.061 187.637 834.363 194.93C830.339 201.155 827.875 205.015 830.52 210.337C831.209 211.75 832.244 212.949 833.427 213.983C835.956 216.152 840.687 222.804 824.787 234.877Z" fill="#F3AF47"/>
<path fill-rule="evenodd" clip-rule="evenodd" d="M807.82 128.258C807.803 131.018 803.992 262.915 803.992 262.915L814.965 263.884L807.82 128.258Z" fill="#9C4F5F"/>
<path fill-rule="evenodd" clip-rule="evenodd" d="M810.842 207.857L833.312 184.023L808.887 205.853C808.312 206.362 808.263 207.249 808.772 207.824C809.281 208.399 810.168 208.448 810.743 207.939C810.776 207.922 810.809 207.89 810.842 207.857Z" fill="#9C4F5F"/>
<path fill-rule="evenodd" clip-rule="evenodd" d="M806.144 166.941L797.044 149.119L807.934 165.906C808.247 166.382 808.115 167.023 807.622 167.335C807.146 167.647 806.505 167.516 806.193 167.023C806.177 166.99 806.161 166.973 806.144 166.941Z" fill="#9C4F5F"/>
<path fill-rule="evenodd" clip-rule="evenodd" d="M810.037 204.309L831.768 171.507L810.037 204.309Z" fill="#9C4F5F"/>
<path fill-rule="evenodd" clip-rule="evenodd" d="M379.294 264.903C382.661 241.89 374.629 228.241 365.102 226.549C355.296 224.808 348.693 221.227 345.736 205.656C342.779 190.084 340.956 174.283 330.017 176.336C319.077 178.389 315.201 192.285 314.298 208.234C313.394 224.184 306.545 222.36 297.215 228.619C289.922 233.513 295.129 255.524 297.773 264.903H379.294Z" fill="#2F855A"/>
<path opacity="0.2" fill-rule="evenodd" clip-rule="evenodd" d="M368.683 247.114C364.231 244.009 355.246 250.218 348.069 249.413C340.891 248.609 342.714 226.286 332.694 226.286C322.675 226.286 323.463 251.812 315.497 251.927C307.514 252.042 308.204 240.872 301.715 244.601C296.361 247.672 299.843 260.501 301.223 264.903H365.808C368.239 259.055 371.738 249.266 368.683 247.114Z" fill="black"/>
<path d="M330.838 187.85C330.838 187.85 334.813 233.513 331.347 264.903" stroke="#94CFB9" stroke-width="1.0001" stroke-miterlimit="10"/>
<path d="M336.111 190.889L331.528 197.328" stroke="#94CFB9" stroke-width="1.0001" stroke-miterlimit="10"/>
<path d="M322.757 194.848L331.906 203.652" stroke="#94CFB9" stroke-width="1.0001" stroke-miterlimit="10"/>
<path d="M342.155 206.51L332.497 217.269" stroke="#94CFB9" stroke-width="1.0001" stroke-miterlimit="10"/>
<path d="M317.993 211.897L332.776 226.385" stroke="#94CFB9" stroke-width="1.0001" stroke-miterlimit="10"/>
<path d="M350.237 219.141L332.776 235.994" stroke="#94CFB9" stroke-width="1.0001" stroke-miterlimit="10"/>
<path d="M322.247 237.702L332.546 247.837" stroke="#94CFB9" stroke-width="1.0001" stroke-miterlimit="10"/>
<path d="M345.473 240.396L332.234 254.407" stroke="#94CFB9" stroke-width="1.0001" stroke-miterlimit="10"/>
<path d="M306.019 235.961C306.019 235.961 310.01 242.515 310.651 264.903" stroke="#94CFB9" stroke-width="1.0001" stroke-miterlimit="10"/>
<path d="M315.694 246.67L310.06 255.951" stroke="#94CFB9" stroke-width="1.0001" stroke-miterlimit="10"/>
<path d="M298.135 253.06L310.224 257.741" stroke="#94CFB9" stroke-width="1.0001" stroke-miterlimit="10"/>
<path d="M363.098 241.004C363.098 241.004 361.045 242.515 360.404 264.919" stroke="#94CFB9" stroke-width="1.0001" stroke-miterlimit="10"/>
<path d="M355.378 246.703L360.995 255.951" stroke="#94CFB9" stroke-width="1.0001" stroke-miterlimit="10"/>
<path d="M369.34 254.44L360.831 257.741" stroke="#94CFB9" stroke-width="1.0001" stroke-miterlimit="10"/>
<path fill-rule="evenodd" clip-rule="evenodd" d="M314.61 264.903C316.942 248.986 311.39 239.525 304.787 238.359C298.003 237.16 293.437 234.663 291.384 223.905C289.331 213.129 288.066 202.19 280.494 203.602C272.922 205.015 270.244 214.64 269.604 225.678C268.979 236.716 264.249 235.452 257.777 239.788C252.718 243.172 256.332 258.398 258.155 264.903H314.61Z" fill="#48BB78"/>
<path opacity="0.2" fill-rule="evenodd" clip-rule="evenodd" d="M307.678 252.6C304.607 250.448 298.365 254.752 293.404 254.193C288.444 253.635 289.692 238.178 282.761 238.178C275.829 238.178 276.371 255.836 270.852 255.918C265.333 256 265.809 248.264 261.309 250.842C257.597 252.961 260.011 261.848 260.964 264.886H305.658C307.382 260.846 309.797 254.078 307.678 252.6Z" fill="black"/>
<path fill-rule="evenodd" clip-rule="evenodd" d="M381.183 268.878C373.89 274.413 362.08 269.37 355.542 263.704C354.392 262.718 353.555 261.404 353.243 259.926C351.764 252.83 362.967 251.089 363.295 244.732C363.443 241.956 361.34 239.64 359.796 237.324C356.265 232.035 355.263 225.333 356.019 219.026C356.758 212.702 359.123 206.69 361.882 200.958C364.133 196.26 368.157 190.971 373.249 192.088C376.518 192.811 378.604 196.063 379.556 199.266C380.87 203.668 380.673 208.415 379.803 212.916C379.409 214.92 378.899 216.989 379.425 218.96C380.805 223.987 387.851 225.12 390.414 229.67C393.025 234.285 389.904 239.919 387.03 244.387C384.566 248.198 383.055 250.563 384.665 253.832C385.092 254.702 385.716 255.442 386.455 256.066C388.032 257.413 390.923 261.486 381.183 268.878Z" fill="#F3AF47"/>
<path fill-rule="evenodd" clip-rule="evenodd" d="M392.533 269.633C387.556 273.411 379.491 269.962 375.023 266.102C374.235 265.428 373.66 264.541 373.446 263.523C372.428 258.677 380.082 257.478 380.312 253.142C380.411 251.237 378.982 249.66 377.914 248.083C375.499 244.469 374.826 239.887 375.335 235.583C375.844 231.263 377.454 227.157 379.343 223.248C380.887 220.045 383.63 216.414 387.096 217.186C389.33 217.679 390.759 219.897 391.416 222.081C392.303 225.087 392.171 228.323 391.58 231.411C391.317 232.774 390.956 234.187 391.334 235.534C392.27 238.967 397.099 239.739 398.84 242.843C400.614 245.997 398.495 249.841 396.54 252.896C394.865 255.507 393.83 257.117 394.931 259.351C395.226 259.942 395.653 260.451 396.146 260.879C397.214 261.798 399.201 264.591 392.533 269.633Z" fill="#2F855A"/>
<path fill-rule="evenodd" clip-rule="evenodd" d="M-39.7902 193.994C-33.105 188.655 -1.12439 176.862 0.0254021 185.551C2.02932 200.679 -39.7902 193.994 -39.7902 193.994Z" fill="#F3AF47"/>
<path fill-rule="evenodd" clip-rule="evenodd" d="M-32.1688 171.441C-32.1688 171.441 1.81575 153.849 5.15015 163.639C9.24011 175.728 -32.1688 171.441 -32.1688 171.441Z" fill="#F3AF47"/>
<path fill-rule="evenodd" clip-rule="evenodd" d="M242.501 579.338C245.392 559.528 238.493 547.768 230.281 546.306C221.838 544.811 216.155 541.723 213.592 528.303C211.046 514.9 209.469 501.283 200.058 503.041C190.629 504.815 187.295 516.773 186.523 530.521C185.735 544.253 179.854 542.692 171.806 548.08C165.515 552.285 170.015 571.24 172.282 579.338H242.501V579.338Z" fill="#2F855A"/>
<path opacity="0.2" fill-rule="evenodd" clip-rule="evenodd" d="M233.369 564.012C229.542 561.335 221.789 566.69 215.613 566C209.437 565.31 210.997 546.076 202.357 546.076C193.717 546.076 194.407 568.053 187.541 568.152C180.675 568.25 181.267 558.641 175.666 561.844C171.05 564.489 174.039 575.527 175.239 579.321H230.872C232.991 574.295 236.013 565.852 233.369 564.012Z" fill="black"/>
<path d="M200.78 512.962C200.78 512.962 204.213 552.301 201.224 579.338" stroke="#94CFB9" stroke-width="1.0001" stroke-miterlimit="10"/>
<path d="M205.314 515.573L201.372 521.125" stroke="#94CFB9" stroke-width="1.0001" stroke-miterlimit="10"/>
<path d="M193.816 518.99L201.7 526.579" stroke="#94CFB9" stroke-width="1.0001" stroke-miterlimit="10"/>
<path d="M210.521 529.026L202.193 538.306" stroke="#94CFB9" stroke-width="1.0001" stroke-miterlimit="10"/>
<path d="M189.709 533.674L202.439 546.141" stroke="#94CFB9" stroke-width="1.0001" stroke-miterlimit="10"/>
<path d="M217.485 539.9L202.439 554.436" stroke="#94CFB9" stroke-width="1.0001" stroke-miterlimit="10"/>
<path d="M193.372 555.898L202.242 564.62" stroke="#94CFB9" stroke-width="1.0001" stroke-miterlimit="10"/>
<path d="M213.379 558.214L201.979 570.287" stroke="#94CFB9" stroke-width="1.0001" stroke-miterlimit="10"/>
<path d="M179.394 554.404C179.394 554.404 182.827 560.038 183.386 579.338" stroke="#94CFB9" stroke-width="1.0001" stroke-miterlimit="10"/>
<path d="M187.722 563.618L182.876 571.617" stroke="#94CFB9" stroke-width="1.0001" stroke-miterlimit="10"/>
<path d="M172.611 569.137L183.024 573.162" stroke="#94CFB9" stroke-width="1.0001" stroke-miterlimit="10"/>
<path d="M228.556 558.74C228.556 558.74 226.798 560.038 226.24 579.338" stroke="#94CFB9" stroke-width="1.0001" stroke-miterlimit="10"/>
<path d="M221.92 563.651L226.749 571.618" stroke="#94CFB9" stroke-width="1.0001" stroke-miterlimit="10"/>
<path d="M233.944 570.32L226.601 573.162" stroke="#94CFB9" stroke-width="1.0001" stroke-miterlimit="10"/>
<path fill-rule="evenodd" clip-rule="evenodd" d="M60.7687 568.103C43.2591 581.391 14.8921 569.285 -0.827187 555.685C-3.57026 553.303 -5.5906 550.166 -6.32975 546.618C-9.91053 529.568 17.0274 525.38 17.8158 510.104C18.1608 503.419 13.1181 497.883 9.40595 492.315C0.930349 479.601 -1.46778 463.521 0.322605 448.344C2.11299 433.166 7.79624 418.712 14.4322 404.931C19.8526 393.663 29.5273 380.917 41.7315 383.627C49.5665 385.368 54.6091 393.17 56.8923 400.874C60.0296 411.468 59.5861 422.835 57.4672 433.676C56.5309 438.472 55.2826 443.465 56.5802 448.179C59.8817 460.252 76.8329 462.995 82.9761 473.902C89.2342 485.006 81.7606 498.54 74.8619 509.25C68.9487 518.415 65.3186 524.115 69.195 531.95C70.2299 534.019 71.7246 535.81 73.4821 537.321C77.2107 540.54 84.1752 550.346 60.7687 568.103Z" fill="#EF855A"/>
<path fill-rule="evenodd" clip-rule="evenodd" d="M37.7401 414.967C37.7072 418.761 33.8965 626.512 33.8965 626.512L48.9588 627.826L37.7401 414.967Z" fill="#9C4F5F"/>
<path fill-rule="evenodd" clip-rule="evenodd" d="M38.3971 562.206L7.5827 529.519L41.0744 559.463C41.8629 560.169 41.9286 561.384 41.2223 562.173C40.516 562.961 39.3005 563.027 38.5121 562.321C38.4628 562.288 38.4299 562.255 38.3971 562.206Z" fill="#9C4F5F"/>
<path fill-rule="evenodd" clip-rule="evenodd" d="M35.4569 468.021L22.9735 443.564L37.9208 466.592C38.3478 467.249 38.1671 468.136 37.4937 468.563C36.8367 468.991 35.9497 468.81 35.5226 468.136C35.5062 468.104 35.4733 468.071 35.4569 468.021Z" fill="#9C4F5F"/>
<path fill-rule="evenodd" clip-rule="evenodd" d="M40.7789 519.286L70.5913 474.296L40.7789 519.286Z" fill="#9C4F5F"/>
<path fill-rule="evenodd" clip-rule="evenodd" d="M39.2348 518.267L70.5913 474.296L42.3228 520.304C41.7808 521.175 40.6474 521.454 39.7769 520.912C38.9063 520.37 38.6271 519.236 39.1691 518.366C39.1855 518.333 39.2184 518.3 39.2348 518.267Z" fill="#9C4F5F"/>
<path fill-rule="evenodd" clip-rule="evenodd" d="M717.496 622.128C702.713 633.347 678.781 623.13 665.526 611.649C663.21 609.645 661.501 607 660.877 603.994C657.855 589.622 680.588 586.074 681.245 573.18C681.541 567.546 677.286 562.865 674.149 558.151C666.988 547.425 664.967 533.857 666.478 521.045C667.99 508.233 672.786 496.046 678.387 484.416C682.953 474.906 691.117 464.164 701.416 466.447C708.035 467.909 712.289 474.495 714.211 481C716.856 489.935 716.478 499.544 714.687 508.693C713.899 512.75 712.848 516.955 713.932 520.93C716.724 531.131 731.031 533.43 736.205 542.645C741.494 552.024 735.187 563.44 729.355 572.474C724.362 580.21 721.307 585.006 724.576 591.626C725.446 593.384 726.711 594.878 728.206 596.159C731.376 598.87 737.256 607.148 717.496 622.128Z" fill="#F3AF47"/>
<path fill-rule="evenodd" clip-rule="evenodd" d="M696.406 489.656C696.389 493.089 691.642 657 691.642 657L705.276 658.199L696.406 489.656Z" fill="#9C4F5F"/>
<path fill-rule="evenodd" clip-rule="evenodd" d="M700.167 588.571L728.091 558.955L697.753 586.074C697.03 586.715 696.981 587.815 697.621 588.538C698.262 589.261 699.362 589.31 700.069 588.669C700.085 588.636 700.134 588.604 700.167 588.571Z" fill="#9C4F5F"/>
<path fill-rule="evenodd" clip-rule="evenodd" d="M694.336 537.717L683.035 515.559L696.57 536.42C696.964 537.011 696.784 537.816 696.192 538.194C695.601 538.588 694.796 538.407 694.418 537.816C694.385 537.783 694.353 537.75 694.336 537.717Z" fill="#9C4F5F"/>
<path fill-rule="evenodd" clip-rule="evenodd" d="M699.165 584.152L726.169 543.4L699.165 584.152Z" fill="#9C4F5F"/>
<path fill-rule="evenodd" clip-rule="evenodd" d="M665.427 628.485C646.143 643.12 614.902 629.783 597.606 614.803C594.584 612.191 592.35 608.725 591.545 604.816C587.603 586.041 617.251 581.426 618.121 564.606C618.499 557.247 612.964 551.137 608.874 545.01C599.544 530.999 596.9 513.292 598.871 496.588C600.842 479.866 607.116 463.95 614.409 448.789C620.372 436.388 631.032 422.36 644.468 425.333C653.108 427.255 658.643 435.846 661.156 444.321C664.606 455.984 664.113 468.516 661.797 480.458C660.779 485.747 659.399 491.233 660.828 496.423C664.474 509.728 683.134 512.734 689.901 524.757C696.8 536.995 688.571 551.893 680.966 563.686C674.461 573.788 670.453 580.046 674.724 588.669C675.857 590.953 677.516 592.924 679.454 594.583C683.528 598.131 691.215 608.922 665.427 628.485Z" fill="#EF855A"/>
<path fill-rule="evenodd" clip-rule="evenodd" d="M640.082 459.86C640.05 464.032 635.845 692.808 635.845 692.808L652.434 694.269L640.082 459.86Z" fill="#9C4F5F"/>
<path fill-rule="evenodd" clip-rule="evenodd" d="M640.805 621.997L606.87 586.008L643.762 618.975C644.632 619.747 644.714 621.093 643.926 621.964C643.154 622.835 641.807 622.917 640.937 622.128C640.887 622.079 640.838 622.03 640.805 621.997Z" fill="#9C4F5F"/>
<path fill-rule="evenodd" clip-rule="evenodd" d="M637.569 518.269L623.821 491.348L640.263 516.709C640.739 517.432 640.526 518.401 639.803 518.877C639.08 519.353 638.111 519.14 637.635 518.417C637.619 518.368 637.586 518.319 637.569 518.269Z" fill="#9C4F5F"/>
<path fill-rule="evenodd" clip-rule="evenodd" d="M643.417 574.724L676.252 525.184L643.417 574.724Z" fill="#9C4F5F"/>
<path fill-rule="evenodd" clip-rule="evenodd" d="M641.725 573.591L676.252 525.168L645.109 575.841C644.517 576.794 643.269 577.106 642.3 576.514C641.331 575.923 641.035 574.675 641.626 573.706C641.676 573.673 641.709 573.64 641.725 573.591Z" fill="#9C4F5F"/>
<path fill-rule="evenodd" clip-rule="evenodd" d="M501.056 694.877C503.389 678.961 497.837 669.5 491.234 668.334C484.45 667.134 479.884 664.654 477.831 653.879C475.777 643.104 474.513 632.164 466.94 633.577C459.368 635.006 456.691 644.615 456.05 655.653C455.426 666.691 450.696 665.426 444.224 669.763C439.165 673.146 442.778 688.373 444.602 694.877H501.056V694.877Z" fill="#22543D"/>
<path opacity="0.2" fill-rule="evenodd" clip-rule="evenodd" d="M494.125 682.558C491.053 680.406 484.828 684.71 479.851 684.151C474.874 683.593 476.139 668.136 469.207 668.136C462.276 668.136 462.818 685.794 457.299 685.876C451.78 685.958 452.256 678.222 447.755 680.801C444.043 682.919 446.458 691.806 447.41 694.844H492.104C493.829 690.82 496.244 684.053 494.125 682.558Z" fill="black"/>
<path fill-rule="evenodd" clip-rule="evenodd" d="M553.996 694.877C556.887 675.068 549.988 663.307 541.759 661.845C533.316 660.351 527.633 657.263 525.087 643.843C522.541 630.44 520.964 616.823 511.536 618.58C502.108 620.338 498.773 632.312 498.001 646.06C497.213 659.792 491.333 658.232 483.284 663.619C476.993 667.824 481.494 686.779 483.76 694.877H553.996Z" fill="#2F855A"/>
<path opacity="0.2" fill-rule="evenodd" clip-rule="evenodd" d="M544.847 679.552C541.02 676.875 533.267 682.229 527.091 681.54C520.915 680.85 522.475 661.615 513.852 661.615C505.212 661.615 505.902 683.593 499.036 683.691C492.17 683.79 492.761 674.165 487.16 677.384C482.545 680.028 485.551 691.066 486.733 694.861H542.367C544.469 689.834 547.491 681.408 544.847 679.552Z" fill="black"/>
<path d="M512.259 628.501C512.259 628.501 515.692 667.841 512.702 694.877" stroke="#94CFB9" stroke-width="1.0001" stroke-miterlimit="10"/>
<path d="M516.809 631.13L512.85 636.665" stroke="#94CFB9" stroke-width="1.0001" stroke-miterlimit="10"/>
<path d="M505.294 634.53L513.179 642.118" stroke="#94CFB9" stroke-width="1.0001" stroke-miterlimit="10"/>
<path d="M521.999 644.582L513.688 653.846" stroke="#94CFB9" stroke-width="1.0001" stroke-miterlimit="10"/>
<path d="M501.204 649.214L513.934 661.681" stroke="#94CFB9" stroke-width="1.0001" stroke-miterlimit="10"/>
<path d="M528.98 655.456L513.918 669.976" stroke="#94CFB9" stroke-width="1.0001" stroke-miterlimit="10"/>
<path d="M504.867 671.438L513.721 680.16" stroke="#94CFB9" stroke-width="1.0001" stroke-miterlimit="10"/>
<path d="M524.857 673.77L513.458 685.827" stroke="#94CFB9" stroke-width="1.0001" stroke-miterlimit="10"/>
<path d="M490.872 669.943C490.872 669.943 494.322 675.577 494.864 694.861" stroke="#94CFB9" stroke-width="1.0001" stroke-miterlimit="10"/>
<path d="M499.217 679.174L494.355 687.157" stroke="#94CFB9" stroke-width="1.0001" stroke-miterlimit="10"/>
<path d="M484.089 684.677L494.503 688.701" stroke="#94CFB9" stroke-width="1.0001" stroke-miterlimit="10"/>
<path d="M540.051 674.28C540.051 674.28 538.277 675.577 537.735 694.877" stroke="#94CFB9" stroke-width="1.0001" stroke-miterlimit="10"/>
<path d="M533.398 679.191L538.244 687.157" stroke="#94CFB9" stroke-width="1.0001" stroke-miterlimit="10"/>
<path d="M545.422 685.859L538.096 688.701" stroke="#94CFB9" stroke-width="1.0001" stroke-miterlimit="10"/>
<path fill-rule="evenodd" clip-rule="evenodd" d="M507.939 401.219C514.115 405.9 524.101 401.629 529.637 396.833C530.606 395.995 531.312 394.895 531.575 393.646C532.84 387.635 523.346 386.156 523.067 380.785C522.935 378.436 524.726 376.465 526.023 374.511C529.013 370.026 529.85 364.36 529.226 359.005C528.602 353.65 526.598 348.558 524.249 343.713C522.344 339.738 518.927 335.253 514.624 336.206C511.864 336.814 510.09 339.573 509.286 342.284C508.185 346.012 508.333 350.02 509.072 353.847C509.4 355.539 509.844 357.297 509.384 358.956C508.218 363.21 502.239 364.179 500.071 368.023C497.87 371.932 500.498 376.712 502.929 380.49C505.015 383.725 506.296 385.729 504.933 388.489C504.571 389.228 504.046 389.852 503.422 390.378C502.14 391.511 499.693 394.96 507.939 401.219Z" fill="#22543D"/>
<path fill-rule="evenodd" clip-rule="evenodd" d="M585.599 403.436C588.49 383.66 581.591 371.932 573.395 370.47C564.968 368.975 559.285 365.887 556.739 352.517C554.193 339.13 552.633 325.546 543.221 327.32C533.825 329.077 530.491 341.035 529.702 354.734C528.914 368.45 523.05 366.873 515.018 372.26C508.743 376.465 513.228 395.371 515.494 403.452H585.599V403.436Z" fill="#2F855A"/>
<path opacity="0.2" fill-rule="evenodd" clip-rule="evenodd" d="M576.466 388.144C572.639 385.483 564.902 390.805 558.743 390.131C552.567 389.442 554.144 370.256 545.52 370.256C536.897 370.256 537.587 392.185 530.737 392.283C523.888 392.382 524.479 382.789 518.894 385.992C514.295 388.637 517.285 399.658 518.467 403.436H573.986C576.105 398.41 579.111 390 576.466 388.144Z" fill="black"/>
<path d="M543.96 337.208C543.96 337.208 547.377 376.465 544.403 403.436" stroke="#94CFB9" stroke-width="1.0001" stroke-miterlimit="10"/>
<path d="M548.477 339.82L544.551 345.339" stroke="#94CFB9" stroke-width="1.0001" stroke-miterlimit="10"/>
<path d="M536.995 343.22L544.863 350.792" stroke="#94CFB9" stroke-width="1.0001" stroke-miterlimit="10"/>
<path d="M553.667 353.24L545.373 362.487" stroke="#94CFB9" stroke-width="1.0001" stroke-miterlimit="10"/>
<path d="M532.905 357.872L545.619 370.322" stroke="#94CFB9" stroke-width="1.0001" stroke-miterlimit="10"/>
<path d="M560.632 364.097L545.619 378.584" stroke="#94CFB9" stroke-width="1.0001" stroke-miterlimit="10"/>
<path d="M536.568 380.062L545.405 388.768" stroke="#94CFB9" stroke-width="1.0001" stroke-miterlimit="10"/>
<path d="M556.526 382.379L545.143 394.418" stroke="#94CFB9" stroke-width="1.0001" stroke-miterlimit="10"/>
<path d="M522.607 378.568C522.607 378.568 526.04 384.202 526.598 403.436" stroke="#94CFB9" stroke-width="1.0001" stroke-miterlimit="10"/>
<path d="M530.918 387.766L526.089 395.749" stroke="#94CFB9" stroke-width="1.0001" stroke-miterlimit="10"/>
<path d="M515.839 393.252L526.237 397.293" stroke="#94CFB9" stroke-width="1.0001" stroke-miterlimit="10"/>
<path d="M571.67 382.888C571.67 382.888 569.912 384.185 569.354 403.436" stroke="#94CFB9" stroke-width="1.0001" stroke-miterlimit="10"/>
<path d="M565.05 387.782L569.863 395.749" stroke="#94CFB9" stroke-width="1.0001" stroke-miterlimit="10"/>
<path d="M577.041 394.451L569.732 397.293" stroke="#94CFB9" stroke-width="1.0001" stroke-miterlimit="10"/>
<path fill-rule="evenodd" clip-rule="evenodd" d="M578.996 403.354C578.996 403.354 575.234 353.979 583.841 352.911C592.465 351.843 590.937 373.591 599.511 373.394C608.085 373.213 612.767 366.035 615.904 373.755C619.041 381.475 619.107 388.982 626.515 386.649C633.923 384.333 644.862 403.338 644.862 403.338H578.996V403.354Z" fill="#22543D"/>
<path opacity="0.11" fill-rule="evenodd" clip-rule="evenodd" d="M626.515 386.649C619.107 388.965 619.025 381.459 615.904 373.755C613.26 367.234 609.498 371.357 603.207 372.901V403.354H644.879C644.862 403.354 633.923 384.333 626.515 386.649Z" fill="black" stroke="#7DBD77" stroke-width="0.216" stroke-miterlimit="22.9256"/>
<path fill-rule="evenodd" clip-rule="evenodd" d="M375.943 618.613C370.637 617.447 365.381 620.814 364.231 626.12C369.52 627.286 374.776 623.919 375.943 618.613Z" fill="#22543D"/>
<path fill-rule="evenodd" clip-rule="evenodd" d="M362.589 626.317C361.948 620.913 357.037 617.069 351.649 617.726C352.29 623.114 357.201 626.974 362.589 626.317Z" fill="#22543D"/>
<path fill-rule="evenodd" clip-rule="evenodd" d="M375.943 606.59C370.637 605.423 365.381 608.791 364.231 614.113C369.52 615.262 374.776 611.895 375.943 606.59Z" fill="#22543D"/>
<path fill-rule="evenodd" clip-rule="evenodd" d="M363.246 595.864C359.386 599.707 359.386 605.933 363.213 609.776C367.073 605.949 367.089 599.724 363.246 595.864Z" fill="#22543D"/>
<path fill-rule="evenodd" clip-rule="evenodd" d="M362.589 614.31C361.948 608.906 357.037 605.062 351.649 605.719C352.29 611.107 357.201 614.95 362.589 614.31Z" fill="#22543D"/>
<path d="M363.41 603.65H363.049V638.357H363.41V603.65Z" fill="#68D391" stroke="#486640" stroke-width="0.4997" stroke-miterlimit="22.9256"/>
<path fill-rule="evenodd" clip-rule="evenodd" d="M363.229 615.032L357.119 609.891L357.349 609.629L363.246 614.573L370.572 609.382L370.769 609.661L363.229 615.032Z" fill="#68D391" stroke="#486640" stroke-width="0.4997" stroke-miterlimit="22.9256"/>
<path fill-rule="evenodd" clip-rule="evenodd" d="M363.229 627.253L357.119 622.128L357.349 621.865L363.246 626.81L370.572 621.603L370.769 621.898L363.229 627.253Z" fill="#68D391" stroke="#486640" stroke-width="0.4997" stroke-miterlimit="22.9256"/>
<path fill-rule="evenodd" clip-rule="evenodd" d="M341.58 635.334C341.58 635.334 345.013 638.57 348.594 640.328C348.594 640.311 347.74 638.209 341.58 635.334Z" fill="#486640"/>
<path fill-rule="evenodd" clip-rule="evenodd" d="M340.841 630.046C340.841 630.046 347.723 636.517 354.885 640.032C354.885 640.032 353.16 635.827 340.841 630.046Z" fill="#486640"/>
<path fill-rule="evenodd" clip-rule="evenodd" d="M349.728 631.951C349.728 631.951 355.361 637.24 361.225 640.114C361.225 640.114 359.813 636.665 349.728 631.951Z" fill="#486640"/>
<path fill-rule="evenodd" clip-rule="evenodd" d="M376.715 630.85C376.715 630.85 370.243 636.928 363.525 640.213C363.525 640.213 365.151 636.271 376.715 630.85Z" fill="#486640"/>
<path fill-rule="evenodd" clip-rule="evenodd" d="M376.304 635.334C376.304 635.334 372.871 638.57 369.29 640.328C369.29 640.311 370.144 638.209 376.304 635.334Z" fill="#486640"/>
<path fill-rule="evenodd" clip-rule="evenodd" d="M381.527 635.334C381.527 635.334 378.094 638.57 374.514 640.328C374.514 640.311 375.368 638.209 381.527 635.334Z" fill="#486640"/>
<path fill-rule="evenodd" clip-rule="evenodd" d="M571.637 574.149C566.331 572.983 561.075 576.35 559.926 581.672C565.231 582.822 570.487 579.455 571.637 574.149Z" fill="#22543D"/>
<path fill-rule="evenodd" clip-rule="evenodd" d="M558.299 581.869C557.659 576.465 552.748 572.622 547.36 573.279C548.001 578.666 552.912 582.51 558.299 581.869Z" fill="#22543D"/>
<path fill-rule="evenodd" clip-rule="evenodd" d="M571.637 562.142C566.331 560.976 561.075 564.343 559.926 569.665C565.231 570.815 570.487 567.448 571.637 562.142Z" fill="#22543D"/>
<path fill-rule="evenodd" clip-rule="evenodd" d="M558.957 551.416C555.113 555.26 555.096 561.485 558.94 565.329C562.784 561.502 562.8 555.26 558.957 551.416Z" fill="#22543D"/>
<path fill-rule="evenodd" clip-rule="evenodd" d="M558.299 569.846C557.659 564.458 552.748 560.598 547.36 561.255C548.001 566.659 552.912 570.503 558.299 569.846Z" fill="#22543D"/>
<path d="M559.121 559.186H558.759V593.893H559.121V559.186Z" fill="#68D391" stroke="#486640" stroke-width="0.4997" stroke-miterlimit="22.9256"/>
<path fill-rule="evenodd" clip-rule="evenodd" d="M558.94 570.568L552.83 565.444L553.06 565.164L558.956 570.125L566.282 564.918L566.479 565.214L558.94 570.568Z" fill="#68D391" stroke="#486640" stroke-width="0.4997" stroke-miterlimit="22.9256"/>
<path fill-rule="evenodd" clip-rule="evenodd" d="M558.94 582.806L552.83 577.681L553.06 577.402L558.956 582.346L566.282 577.155L566.479 577.451L558.94 582.806Z" fill="#68D391" stroke="#486640" stroke-width="0.4997" stroke-miterlimit="22.9256"/>
<path fill-rule="evenodd" clip-rule="evenodd" d="M537.291 590.87C537.291 590.87 540.724 594.106 544.305 595.864C544.305 595.864 543.451 593.761 537.291 590.87Z" fill="#486640"/>
<path fill-rule="evenodd" clip-rule="evenodd" d="M536.552 585.581C536.552 585.581 543.434 592.053 550.596 595.568C550.596 595.568 548.871 591.363 536.552 585.581Z" fill="#486640"/>
<path fill-rule="evenodd" clip-rule="evenodd" d="M545.438 587.487C545.438 587.487 551.072 592.776 556.936 595.65C556.92 595.65 555.507 592.217 545.438 587.487Z" fill="#486640"/>
<path fill-rule="evenodd" clip-rule="evenodd" d="M572.426 586.386C572.426 586.386 565.97 592.464 559.236 595.749C559.236 595.765 560.862 591.807 572.426 586.386Z" fill="#486640"/>
<path fill-rule="evenodd" clip-rule="evenodd" d="M572.015 590.87C572.015 590.87 568.582 594.106 565.001 595.864C564.985 595.864 565.855 593.761 572.015 590.87Z" fill="#486640"/>
<path fill-rule="evenodd" clip-rule="evenodd" d="M577.238 590.87C577.238 590.87 573.805 594.106 570.225 595.864C570.225 595.864 571.079 593.761 577.238 590.87Z" fill="#486640"/>
<path fill-rule="evenodd" clip-rule="evenodd" d="M242.6 455.834C237.294 454.667 232.055 458.035 230.889 463.357C236.21 464.506 241.45 461.139 242.6 455.834Z" fill="#22543D"/>
<path fill-rule="evenodd" clip-rule="evenodd" d="M229.262 463.554C228.605 458.15 223.711 454.306 218.323 454.963C218.964 460.351 223.875 464.194 229.262 463.554Z" fill="#22543D"/>
<path fill-rule="evenodd" clip-rule="evenodd" d="M242.6 443.827C237.294 442.66 232.055 446.028 230.889 451.35C236.21 452.499 241.45 449.132 242.6 443.827Z" fill="#22543D"/>
<path fill-rule="evenodd" clip-rule="evenodd" d="M229.919 433.101C226.076 436.944 226.059 443.169 229.903 447.013C233.747 443.186 233.763 436.944 229.919 433.101Z" fill="#22543D"/>
<path fill-rule="evenodd" clip-rule="evenodd" d="M229.262 451.53C228.605 446.126 223.711 442.283 218.323 442.94C218.964 448.344 223.875 452.187 229.262 451.53Z" fill="#22543D"/>
<path d="M230.084 440.87H229.722V475.577H230.084V440.87Z" fill="#68D391" stroke="#486640" stroke-width="0.4997" stroke-miterlimit="22.9256"/>
<path fill-rule="evenodd" clip-rule="evenodd" d="M229.903 452.253L223.793 447.128L224.023 446.849L229.919 451.793L237.245 446.603L237.442 446.898L229.903 452.253Z" fill="#68D391" stroke="#486640" stroke-width="0.4997" stroke-miterlimit="22.9256"/>
<path fill-rule="evenodd" clip-rule="evenodd" d="M229.903 464.49L223.793 459.365L224.023 459.086L229.919 464.03L237.245 458.839L237.442 459.135L229.903 464.49Z" fill="#68D391" stroke="#486640" stroke-width="0.4997" stroke-miterlimit="22.9256"/>
<path fill-rule="evenodd" clip-rule="evenodd" d="M380.558 462.059C380.558 462.059 384.008 465.295 387.572 467.052C387.572 467.052 386.718 464.95 380.558 462.059Z" fill="#486640"/>
<path fill-rule="evenodd" clip-rule="evenodd" d="M379.819 456.77C379.819 456.77 386.702 463.242 393.863 466.757C393.863 466.757 392.138 462.552 379.819 456.77Z" fill="#486640"/>
<path fill-rule="evenodd" clip-rule="evenodd" d="M388.705 458.675C388.705 458.675 394.339 463.964 400.203 466.839C400.203 466.839 398.791 463.406 388.705 458.675Z" fill="#486640"/>
<path fill-rule="evenodd" clip-rule="evenodd" d="M415.693 457.575C415.693 457.575 409.237 463.652 402.503 466.937C402.503 466.937 404.129 462.995 415.693 457.575Z" fill="#486640"/>
<path fill-rule="evenodd" clip-rule="evenodd" d="M415.282 462.059C415.282 462.059 411.849 465.295 408.268 467.052C408.268 467.052 409.122 464.95 415.282 462.059Z" fill="#486640"/>
<path fill-rule="evenodd" clip-rule="evenodd" d="M420.505 462.059C420.505 462.059 417.056 465.295 413.492 467.052C413.492 467.052 414.346 464.95 420.505 462.059Z" fill="#486640"/>
<path fill-rule="evenodd" clip-rule="evenodd" d="M89.6449 602.432C84.3394 601.266 79.0997 604.633 77.9335 609.955C83.2389 611.121 88.4787 607.754 89.6449 602.432Z" fill="#22543D"/>
<path fill-rule="evenodd" clip-rule="evenodd" d="M76.3073 610.152C75.6667 604.748 70.7555 600.904 65.3679 601.561C66.0085 606.965 70.9033 610.809 76.3073 610.152Z" fill="#22543D"/>
<path fill-rule="evenodd" clip-rule="evenodd" d="M89.6449 590.425C84.3394 589.259 79.0997 592.626 77.9335 597.948C83.2389 599.098 88.4787 595.73 89.6449 590.425Z" fill="#22543D"/>
<path fill-rule="evenodd" clip-rule="evenodd" d="M76.9643 579.699C73.1208 583.543 73.1043 589.768 76.9479 593.611C80.7915 589.784 80.7915 583.559 76.9643 579.699Z" fill="#22543D"/>
<path fill-rule="evenodd" clip-rule="evenodd" d="M76.3073 598.145C75.6667 592.741 70.7555 588.897 65.3679 589.554C66.0085 594.942 70.9033 598.802 76.3073 598.145Z" fill="#22543D"/>
<path d="M77.1286 587.485H76.7672V622.192H77.1286V587.485Z" fill="#68D391" stroke="#486640" stroke-width="0.4997" stroke-miterlimit="22.9256"/>
<path fill-rule="evenodd" clip-rule="evenodd" d="M76.9314 598.868L70.8211 593.743L71.0675 593.464L76.9479 598.408L84.2737 593.217L84.4872 593.497L76.9314 598.868Z" fill="#68D391" stroke="#486640" stroke-width="0.4997" stroke-miterlimit="22.9256"/>
<path fill-rule="evenodd" clip-rule="evenodd" d="M76.9314 611.105L70.8211 605.963L71.0675 605.701L76.9479 610.645L84.2737 605.438L84.4872 605.734L76.9314 611.105Z" fill="#68D391" stroke="#486640" stroke-width="0.4997" stroke-miterlimit="22.9256"/>
<path fill-rule="evenodd" clip-rule="evenodd" d="M55.2826 619.17C55.2826 619.17 58.7156 622.405 62.2963 624.163C62.3128 624.146 61.4422 622.044 55.2826 619.17Z" fill="#486640"/>
<path fill-rule="evenodd" clip-rule="evenodd" d="M54.5435 613.881C54.5435 613.881 61.4258 620.352 68.5873 623.867C68.6037 623.867 66.8791 619.662 54.5435 613.881Z" fill="#486640"/>
<path fill-rule="evenodd" clip-rule="evenodd" d="M63.4461 615.786C63.4461 615.786 69.0801 621.075 74.944 623.949C74.9276 623.949 73.515 620.5 63.4461 615.786Z" fill="#486640"/>
<path fill-rule="evenodd" clip-rule="evenodd" d="M90.4169 614.685C90.4169 614.685 83.9617 620.763 77.2436 624.048C77.2436 624.048 78.8533 620.106 90.4169 614.685Z" fill="#486640"/>
<path fill-rule="evenodd" clip-rule="evenodd" d="M90.0063 619.17C90.0063 619.17 86.5569 622.405 82.9926 624.163C82.9926 624.146 83.8631 622.044 90.0063 619.17Z" fill="#486640"/>
<path fill-rule="evenodd" clip-rule="evenodd" d="M95.2296 619.17C95.2296 619.17 91.7802 622.405 88.2159 624.163C88.2159 624.146 89.0864 622.044 95.2296 619.17Z" fill="#486640"/>
<path fill-rule="evenodd" clip-rule="evenodd" d="M498.593 462.979C494.618 462.108 490.708 464.621 489.838 468.596C493.813 469.467 497.738 466.954 498.593 462.979Z" fill="#22543D"/>
<path fill-rule="evenodd" clip-rule="evenodd" d="M488.622 468.744C488.129 464.704 484.467 461.829 480.442 462.322C480.935 466.362 484.598 469.237 488.622 468.744Z" fill="#22543D"/>
<path fill-rule="evenodd" clip-rule="evenodd" d="M498.593 453.994C494.618 453.123 490.708 455.636 489.838 459.611C493.813 460.482 497.738 457.969 498.593 453.994Z" fill="#22543D"/>
<path fill-rule="evenodd" clip-rule="evenodd" d="M489.115 445.978C486.24 448.853 486.224 453.501 489.098 456.376C491.989 453.518 491.989 448.853 489.115 445.978Z" fill="#22543D"/>
<path fill-rule="evenodd" clip-rule="evenodd" d="M488.622 459.759C488.129 455.719 484.467 452.844 480.442 453.337C480.935 457.378 484.598 460.252 488.622 459.759Z" fill="#22543D"/>
<path d="M489.23 451.793H488.967V477.745H489.23V451.793Z" fill="#68D391" stroke="#486640" stroke-width="0.4997" stroke-miterlimit="22.9256"/>
<path fill-rule="evenodd" clip-rule="evenodd" d="M489.098 460.301L484.532 456.474L484.713 456.261L489.115 459.973L494.585 456.08L494.749 456.294L489.098 460.301Z" fill="#68D391" stroke="#486640" stroke-width="0.4997" stroke-miterlimit="22.9256"/>
<path fill-rule="evenodd" clip-rule="evenodd" d="M489.098 469.45L484.532 465.623L484.713 465.41L489.115 469.105L494.585 465.229L494.749 465.443L489.098 469.45Z" fill="#68D391" stroke="#486640" stroke-width="0.4997" stroke-miterlimit="22.9256"/>
<path fill-rule="evenodd" clip-rule="evenodd" d="M468.107 474.033C468.107 474.033 471.556 477.269 475.12 479.027C475.12 479.01 474.266 476.908 468.107 474.033Z" fill="#486640"/>
<path fill-rule="evenodd" clip-rule="evenodd" d="M467.368 468.744C467.368 468.744 474.25 475.216 481.411 478.731C481.411 478.731 479.687 474.526 467.368 468.744Z" fill="#486640"/>
<path fill-rule="evenodd" clip-rule="evenodd" d="M476.254 470.65C476.254 470.65 481.888 475.939 487.735 478.813C487.752 478.813 486.339 475.364 476.254 470.65Z" fill="#486640"/>
<path fill-rule="evenodd" clip-rule="evenodd" d="M503.241 469.549C503.241 469.549 496.769 475.626 490.051 478.912C490.051 478.912 491.677 474.969 503.241 469.549Z" fill="#486640"/>
<path fill-rule="evenodd" clip-rule="evenodd" d="M502.83 474.033C502.83 474.033 499.397 477.269 495.817 479.027C495.817 479.01 496.671 476.908 502.83 474.033Z" fill="#486640"/>
<path fill-rule="evenodd" clip-rule="evenodd" d="M508.054 474.033C508.054 474.033 504.604 477.269 501.04 479.027C501.04 479.01 501.894 476.908 508.054 474.033Z" fill="#486640"/>
<path fill-rule="evenodd" clip-rule="evenodd" d="M582.675 674.674C577.369 673.507 572.113 676.875 570.964 682.197C576.285 683.346 581.525 679.996 582.675 674.674Z" fill="#22543D"/>
<path fill-rule="evenodd" clip-rule="evenodd" d="M569.337 682.394C568.68 676.99 563.786 673.146 558.398 673.803C559.055 679.191 563.95 683.051 569.337 682.394Z" fill="#22543D"/>
<path fill-rule="evenodd" clip-rule="evenodd" d="M582.675 662.667C577.369 661.5 572.113 664.868 570.964 670.19C576.285 671.339 581.525 667.972 582.675 662.667Z" fill="#22543D"/>
<path fill-rule="evenodd" clip-rule="evenodd" d="M569.994 651.941C566.151 655.784 566.134 662.01 569.978 665.853C573.822 662.026 573.838 655.801 569.994 651.941Z" fill="#22543D"/>
<path fill-rule="evenodd" clip-rule="evenodd" d="M569.337 670.387C568.68 664.983 563.786 661.139 558.398 661.796C559.055 667.184 563.95 671.027 569.337 670.387Z" fill="#22543D"/>
<path d="M570.159 659.71H569.797V694.417H570.159V659.71Z" fill="#68D391" stroke="#486640" stroke-width="0.4997" stroke-miterlimit="22.9256"/>
<path fill-rule="evenodd" clip-rule="evenodd" d="M569.978 671.109L563.868 665.968L564.098 665.705L569.994 670.649L577.32 665.443L577.517 665.738L569.978 671.109Z" fill="#68D391" stroke="#486640" stroke-width="0.4997" stroke-miterlimit="22.9256"/>
<path fill-rule="evenodd" clip-rule="evenodd" d="M569.978 683.33L563.868 678.205L564.098 677.926L569.994 682.886L577.32 677.68L577.517 677.975L569.978 683.33Z" fill="#68D391" stroke="#486640" stroke-width="0.4997" stroke-miterlimit="22.9256"/>
<path fill-rule="evenodd" clip-rule="evenodd" d="M548.329 691.411C548.329 691.411 551.762 694.647 555.343 696.405C555.343 696.388 554.489 694.286 548.329 691.411Z" fill="#486640"/>
<path fill-rule="evenodd" clip-rule="evenodd" d="M547.59 686.122C547.59 686.122 554.472 692.594 561.634 696.109C561.634 696.109 559.909 691.904 547.59 686.122Z" fill="#486640"/>
<path fill-rule="evenodd" clip-rule="evenodd" d="M556.476 688.028C556.476 688.028 562.11 693.317 567.974 696.191C567.974 696.191 566.562 692.742 556.476 688.028Z" fill="#486640"/>
<path fill-rule="evenodd" clip-rule="evenodd" d="M583.464 686.927C583.464 686.927 577.008 693.005 570.29 696.29C570.29 696.29 571.9 692.348 583.464 686.927Z" fill="#486640"/>
<path fill-rule="evenodd" clip-rule="evenodd" d="M583.053 691.411C583.053 691.411 579.603 694.647 576.039 696.405C576.039 696.388 576.893 694.286 583.053 691.411Z" fill="#486640"/>
<path fill-rule="evenodd" clip-rule="evenodd" d="M588.276 691.411C588.276 691.411 584.827 694.647 581.262 696.405C581.262 696.388 582.117 694.286 588.276 691.411Z" fill="#486640"/>
<path fill-rule="evenodd" clip-rule="evenodd" d="M1152.31 585.128C1137.53 596.347 1113.6 586.13 1100.34 574.649C1098.03 572.645 1096.32 570 1095.69 566.994C1092.67 552.622 1115.4 549.074 1116.06 536.18C1116.36 530.546 1112.1 525.865 1108.97 521.151C1101.8 510.425 1099.78 496.857 1101.29 484.045C1102.81 471.233 1107.6 459.046 1113.2 447.416C1117.77 437.906 1125.93 427.164 1136.23 429.447C1142.85 430.909 1147.11 437.495 1149.03 444C1151.67 452.935 1151.29 462.544 1149.5 471.693C1148.71 475.75 1147.66 479.955 1148.75 483.93C1151.54 494.131 1165.85 496.43 1171.02 505.645C1176.31 515.024 1170 526.44 1164.17 535.474C1159.18 543.21 1156.12 548.006 1159.39 554.626C1160.26 556.384 1161.53 557.878 1163.02 559.159C1166.19 561.87 1172.07 570.148 1152.31 585.128Z" fill="#F3AF47"/>
<path fill-rule="evenodd" clip-rule="evenodd" d="M1131.22 452.656C1131.21 456.089 1126.46 620 1126.46 620L1140.09 621.199L1131.22 452.656Z" fill="#9C4F5F"/>
<path fill-rule="evenodd" clip-rule="evenodd" d="M1134.98 551.571L1162.91 521.955L1132.57 549.074C1131.85 549.715 1131.8 550.815 1132.44 551.538C1133.08 552.261 1134.18 552.31 1134.88 551.669C1134.9 551.636 1134.95 551.604 1134.98 551.571Z" fill="#9C4F5F"/>
<path fill-rule="evenodd" clip-rule="evenodd" d="M1129.15 500.717L1117.85 478.559L1131.39 499.42C1131.78 500.011 1131.6 500.816 1131.01 501.194C1130.42 501.588 1129.61 501.407 1129.23 500.816C1129.2 500.783 1129.17 500.75 1129.15 500.717Z" fill="#9C4F5F"/>
<path fill-rule="evenodd" clip-rule="evenodd" d="M1133.98 547.152L1160.98 506.4L1133.98 547.152Z" fill="#9C4F5F"/>
<path fill-rule="evenodd" clip-rule="evenodd" d="M1100.24 591.485C1080.96 606.12 1049.72 592.783 1032.42 577.803C1029.4 575.191 1027.17 571.725 1026.36 567.816C1022.42 549.041 1052.07 544.426 1052.94 527.606C1053.32 520.247 1047.78 514.137 1043.69 508.01C1034.36 493.999 1031.72 476.292 1033.69 459.588C1035.66 442.866 1041.93 426.95 1049.23 411.789C1055.19 399.388 1065.85 385.36 1079.28 388.333C1087.92 390.255 1093.46 398.846 1095.97 407.321C1099.42 418.984 1098.93 431.516 1096.61 443.458C1095.59 448.747 1094.21 454.233 1095.64 459.423C1099.29 472.728 1117.95 475.734 1124.72 487.757C1131.62 499.995 1123.39 514.893 1115.78 526.686C1109.28 536.788 1105.27 543.046 1109.54 551.669C1110.67 553.953 1112.33 555.924 1114.27 557.583C1118.34 561.131 1126.03 571.922 1100.24 591.485Z" fill="#EF855A"/>
<path fill-rule="evenodd" clip-rule="evenodd" d="M1074.9 422.86C1074.87 427.032 1070.66 655.808 1070.66 655.808L1087.25 657.269L1074.9 422.86Z" fill="#9C4F5F"/>
<path fill-rule="evenodd" clip-rule="evenodd" d="M1075.62 584.997L1041.69 549.008L1078.58 581.975C1079.45 582.747 1079.53 584.093 1078.74 584.964C1077.97 585.835 1076.62 585.917 1075.75 585.128C1075.7 585.079 1075.65 585.03 1075.62 584.997Z" fill="#9C4F5F"/>
<path fill-rule="evenodd" clip-rule="evenodd" d="M1072.39 481.269L1058.64 454.348L1075.08 479.709C1075.56 480.432 1075.34 481.401 1074.62 481.877C1073.9 482.353 1072.93 482.14 1072.45 481.417C1072.43 481.368 1072.4 481.319 1072.39 481.269Z" fill="#9C4F5F"/>
<path fill-rule="evenodd" clip-rule="evenodd" d="M1078.23 537.724L1111.07 488.184L1078.23 537.724Z" fill="#9C4F5F"/>
<path fill-rule="evenodd" clip-rule="evenodd" d="M1076.54 536.591L1111.07 488.168L1079.92 538.841C1079.33 539.794 1078.08 540.106 1077.12 539.514C1076.15 538.923 1075.85 537.675 1076.44 536.706C1076.49 536.673 1076.52 536.64 1076.54 536.591Z" fill="#9C4F5F"/>
<path fill-rule="evenodd" clip-rule="evenodd" d="M1156.23 657.877C1158.57 641.961 1153.01 632.5 1146.41 631.334C1139.63 630.134 1135.06 627.654 1133.01 616.879C1130.95 606.104 1129.69 595.164 1122.12 596.577C1114.54 598.006 1111.87 607.615 1111.23 618.653C1110.6 629.691 1105.87 628.426 1099.4 632.763C1094.34 636.146 1097.95 651.373 1099.78 657.877H1156.23V657.877Z" fill="#22543D"/>
<path opacity="0.2" fill-rule="evenodd" clip-rule="evenodd" d="M1149.3 645.558C1146.23 643.406 1140 647.71 1135.03 647.151C1130.05 646.593 1131.32 631.136 1124.38 631.136C1117.45 631.136 1117.99 648.794 1112.48 648.876C1106.96 648.958 1107.43 641.222 1102.93 643.801C1099.22 645.919 1101.63 654.806 1102.59 657.844H1147.28C1149.01 653.82 1151.42 647.053 1149.3 645.558Z" fill="black"/>
<path fill-rule="evenodd" clip-rule="evenodd" d="M1209.17 657.877C1212.06 638.068 1205.16 626.307 1196.94 624.845C1188.49 623.351 1182.81 620.263 1180.26 606.843C1177.72 593.44 1176.14 579.823 1166.71 581.58C1157.28 583.338 1153.95 595.312 1153.18 609.06C1152.39 622.792 1146.51 621.232 1138.46 626.619C1132.17 630.824 1136.67 649.779 1138.94 657.877H1209.17Z" fill="#2F855A"/>
<path opacity="0.2" fill-rule="evenodd" clip-rule="evenodd" d="M1200.02 642.552C1196.2 639.875 1188.44 645.229 1182.27 644.54C1176.09 643.85 1177.65 624.615 1169.03 624.615C1160.39 624.615 1161.08 646.593 1154.21 646.691C1147.35 646.79 1147.94 637.165 1142.34 640.384C1137.72 643.028 1140.73 654.066 1141.91 657.861H1197.54C1199.65 652.834 1202.67 644.408 1200.02 642.552Z" fill="black"/>
<path d="M1167.43 591.501C1167.43 591.501 1170.87 630.841 1167.88 657.877" stroke="#94CFB9" stroke-width="1.0001" stroke-miterlimit="10"/>
<path d="M1171.99 594.13L1168.03 599.665" stroke="#94CFB9" stroke-width="1.0001" stroke-miterlimit="10"/>
<path d="M1160.47 597.53L1168.35 605.118" stroke="#94CFB9" stroke-width="1.0001" stroke-miterlimit="10"/>
<path d="M1177.18 607.582L1168.86 616.846" stroke="#94CFB9" stroke-width="1.0001" stroke-miterlimit="10"/>
<path d="M1156.38 612.214L1169.11 624.681" stroke="#94CFB9" stroke-width="1.0001" stroke-miterlimit="10"/>
<path d="M1184.16 618.456L1169.09 632.976" stroke="#94CFB9" stroke-width="1.0001" stroke-miterlimit="10"/>
<path d="M1160.04 634.438L1168.9 643.16" stroke="#94CFB9" stroke-width="1.0001" stroke-miterlimit="10"/>
<path d="M1180.03 636.77L1168.63 648.827" stroke="#94CFB9" stroke-width="1.0001" stroke-miterlimit="10"/>
<path d="M1146.05 632.943C1146.05 632.943 1149.5 638.577 1150.04 657.861" stroke="#94CFB9" stroke-width="1.0001" stroke-miterlimit="10"/>
<path d="M1154.39 642.174L1149.53 650.157" stroke="#94CFB9" stroke-width="1.0001" stroke-miterlimit="10"/>
<path d="M1139.27 647.677L1149.68 651.701" stroke="#94CFB9" stroke-width="1.0001" stroke-miterlimit="10"/>
<path d="M1195.23 637.28C1195.23 637.28 1193.45 638.577 1192.91 657.877" stroke="#94CFB9" stroke-width="1.0001" stroke-miterlimit="10"/>
<path d="M1188.57 642.191L1193.42 650.157" stroke="#94CFB9" stroke-width="1.0001" stroke-miterlimit="10"/>
<path d="M1200.6 648.859L1193.27 651.701" stroke="#94CFB9" stroke-width="1.0001" stroke-miterlimit="10"/>
<path fill-rule="evenodd" clip-rule="evenodd" d="M1237.85 637.674C1232.55 636.507 1227.29 639.875 1226.14 645.197C1231.46 646.346 1236.7 642.996 1237.85 637.674Z" fill="#22543D"/>
<path fill-rule="evenodd" clip-rule="evenodd" d="M1224.51 645.394C1223.86 639.99 1218.96 636.146 1213.57 636.803C1214.23 642.191 1219.13 646.051 1224.51 645.394Z" fill="#22543D"/>
<path fill-rule="evenodd" clip-rule="evenodd" d="M1237.85 625.667C1232.55 624.5 1227.29 627.868 1226.14 633.19C1231.46 634.339 1236.7 630.972 1237.85 625.667Z" fill="#22543D"/>
<path fill-rule="evenodd" clip-rule="evenodd" d="M1225.17 614.941C1221.33 618.784 1221.31 625.01 1225.15 628.853C1229 625.026 1229.01 618.801 1225.17 614.941Z" fill="#22543D"/>
<path fill-rule="evenodd" clip-rule="evenodd" d="M1224.51 633.387C1223.86 627.983 1218.96 624.139 1213.57 624.796C1214.23 630.184 1219.13 634.027 1224.51 633.387Z" fill="#22543D"/>
<path d="M1225.34 622.71H1224.97V657.417H1225.34V622.71Z" fill="#68D391" stroke="#486640" stroke-width="0.4997" stroke-miterlimit="22.9256"/>
<path fill-rule="evenodd" clip-rule="evenodd" d="M1225.15 634.109L1219.04 628.968L1219.27 628.705L1225.17 633.649L1232.5 628.443L1232.69 628.738L1225.15 634.109Z" fill="#68D391" stroke="#486640" stroke-width="0.4997" stroke-miterlimit="22.9256"/>
<path fill-rule="evenodd" clip-rule="evenodd" d="M1225.15 646.33L1219.04 641.205L1219.27 640.926L1225.17 645.886L1232.5 640.68L1232.69 640.975L1225.15 646.33Z" fill="#68D391" stroke="#486640" stroke-width="0.4997" stroke-miterlimit="22.9256"/>
<path fill-rule="evenodd" clip-rule="evenodd" d="M1203.51 654.411C1203.51 654.411 1206.94 657.647 1210.52 659.405C1210.52 659.388 1209.67 657.286 1203.51 654.411Z" fill="#486640"/>
<path fill-rule="evenodd" clip-rule="evenodd" d="M1202.77 649.122C1202.77 649.122 1209.65 655.594 1216.81 659.109C1216.81 659.109 1215.09 654.904 1202.77 649.122Z" fill="#486640"/>
<path fill-rule="evenodd" clip-rule="evenodd" d="M1211.65 651.028C1211.65 651.028 1217.29 656.317 1223.15 659.191C1223.15 659.191 1221.74 655.742 1211.65 651.028Z" fill="#486640"/>
<path fill-rule="evenodd" clip-rule="evenodd" d="M1238.64 649.927C1238.64 649.927 1232.18 656.005 1225.47 659.29C1225.47 659.29 1227.08 655.348 1238.64 649.927Z" fill="#486640"/>
<path fill-rule="evenodd" clip-rule="evenodd" d="M1238.23 654.411C1238.23 654.411 1234.78 657.647 1231.22 659.405C1231.22 659.388 1232.07 657.286 1238.23 654.411Z" fill="#486640"/>
<path fill-rule="evenodd" clip-rule="evenodd" d="M1243.45 654.411C1243.45 654.411 1240 657.647 1236.44 659.405C1236.44 659.388 1237.29 657.286 1243.45 654.411Z" fill="#486640"/>
<path fill-rule="evenodd" clip-rule="evenodd" d="M289.134 559.58C289.134 559.58 292.566 562.816 296.147 564.557C296.147 564.557 295.277 562.454 289.134 559.58Z" fill="#486640"/>
<path fill-rule="evenodd" clip-rule="evenodd" d="M288.394 554.291C288.394 554.291 295.277 560.762 302.438 564.277C302.438 564.277 300.714 560.072 288.394 554.291Z" fill="#486640"/>
<path fill-rule="evenodd" clip-rule="evenodd" d="M297.281 556.196C297.281 556.196 302.915 561.485 308.779 564.359C308.762 564.359 307.349 560.91 297.281 556.196Z" fill="#486640"/>
<path fill-rule="evenodd" clip-rule="evenodd" d="M324.268 555.095C324.268 555.095 317.796 561.173 311.078 564.458C311.078 564.458 312.704 560.516 324.268 555.095Z" fill="#486640"/>
<path fill-rule="evenodd" clip-rule="evenodd" d="M323.857 559.58C323.857 559.58 320.408 562.816 316.844 564.557C316.827 564.557 317.698 562.454 323.857 559.58Z" fill="#486640"/>
<path fill-rule="evenodd" clip-rule="evenodd" d="M329.081 559.58C329.081 559.58 325.631 562.816 322.067 564.557C322.05 564.557 322.921 562.454 329.081 559.58Z" fill="#486640"/>
<path fill-rule="evenodd" clip-rule="evenodd" d="M423.199 300.579C423.199 300.579 426.632 303.815 430.213 305.572C430.229 305.572 429.359 303.47 423.199 300.579Z" fill="#486640"/>
<path fill-rule="evenodd" clip-rule="evenodd" d="M422.46 295.307C422.46 295.307 429.342 301.778 436.504 305.293C436.52 305.277 434.779 301.072 422.46 295.307Z" fill="#486640"/>
<path fill-rule="evenodd" clip-rule="evenodd" d="M431.363 297.195C431.363 297.195 436.997 302.484 442.861 305.359C442.844 305.359 441.432 301.926 431.363 297.195Z" fill="#486640"/>
<path fill-rule="evenodd" clip-rule="evenodd" d="M458.334 296.111C458.334 296.111 451.862 302.189 445.144 305.474C445.16 305.474 446.786 301.532 458.334 296.111Z" fill="#486640"/>
<path fill-rule="evenodd" clip-rule="evenodd" d="M457.923 300.579C457.923 300.579 454.49 303.815 450.909 305.572C450.909 305.572 451.78 303.47 457.923 300.579Z" fill="#486640"/>
<path fill-rule="evenodd" clip-rule="evenodd" d="M463.163 300.579C463.163 300.579 459.713 303.815 456.149 305.572C456.133 305.572 457.003 303.47 463.163 300.579Z" fill="#486640"/>
<path fill-rule="evenodd" clip-rule="evenodd" d="M575.891 343.466C575.891 343.466 579.324 346.702 582.905 348.46C582.905 348.443 582.051 346.341 575.891 343.466Z" fill="#486640"/>
<path fill-rule="evenodd" clip-rule="evenodd" d="M575.152 338.177C575.152 338.177 582.034 344.649 589.196 348.164C589.196 348.164 587.471 343.959 575.152 338.177Z" fill="#486640"/>
<path fill-rule="evenodd" clip-rule="evenodd" d="M584.055 340.083C584.055 340.083 589.689 345.372 595.536 348.246C595.536 348.246 594.124 344.797 584.055 340.083Z" fill="#486640"/>
<path fill-rule="evenodd" clip-rule="evenodd" d="M611.026 338.982C611.026 338.982 604.554 345.06 597.836 348.345C597.852 348.345 599.462 344.403 611.026 338.982Z" fill="#486640"/>
<path fill-rule="evenodd" clip-rule="evenodd" d="M610.615 343.466C610.615 343.466 607.182 346.702 603.601 348.46C603.601 348.443 604.472 346.341 610.615 343.466Z" fill="#486640"/>
<path fill-rule="evenodd" clip-rule="evenodd" d="M615.838 343.466C615.838 343.466 612.389 346.702 608.825 348.46C608.825 348.443 609.695 346.341 615.838 343.466Z" fill="#486640"/>
<path fill-rule="evenodd" clip-rule="evenodd" d="M208.599 473.031C208.599 473.031 212.032 476.267 215.613 478.025C215.613 478.008 214.742 475.906 208.599 473.031Z" fill="#486640"/>
<path fill-rule="evenodd" clip-rule="evenodd" d="M207.86 467.742C207.86 467.742 214.742 474.214 221.904 477.729C221.904 477.729 220.179 473.524 207.86 467.742Z" fill="#486640"/>
<path fill-rule="evenodd" clip-rule="evenodd" d="M216.746 469.648C216.746 469.648 222.38 474.937 228.228 477.811C228.228 477.811 226.815 474.362 216.746 469.648Z" fill="#486640"/>
<path fill-rule="evenodd" clip-rule="evenodd" d="M243.733 468.547C243.733 468.547 237.262 474.625 230.543 477.91C230.543 477.91 232.17 473.967 243.733 468.547Z" fill="#486640"/>
<path fill-rule="evenodd" clip-rule="evenodd" d="M243.323 473.031C243.323 473.031 239.89 476.267 236.309 478.025C236.293 478.008 237.163 475.906 243.323 473.031Z" fill="#486640"/>
<path fill-rule="evenodd" clip-rule="evenodd" d="M248.546 473.031C248.546 473.031 245.113 476.267 241.532 478.025C241.516 478.008 242.386 475.906 248.546 473.031Z" fill="#486640"/>
<path fill-rule="evenodd" clip-rule="evenodd" d="M720.502 683.297C720.502 683.297 723.935 686.533 727.516 688.29C727.516 688.29 726.645 686.188 720.502 683.297Z" fill="#486640"/>
<path fill-rule="evenodd" clip-rule="evenodd" d="M719.763 678.008C719.763 678.008 726.645 684.48 733.807 687.995C733.807 687.995 732.082 683.79 719.763 678.008Z" fill="#486640"/>
<path fill-rule="evenodd" clip-rule="evenodd" d="M728.649 679.913C728.649 679.913 734.283 685.203 740.131 688.077C740.131 688.077 738.718 684.644 728.649 679.913Z" fill="#486640"/>
<path fill-rule="evenodd" clip-rule="evenodd" d="M755.636 678.813C755.636 678.813 749.165 684.89 742.447 688.176C742.447 688.176 744.073 684.233 755.636 678.813Z" fill="#486640"/>
<path fill-rule="evenodd" clip-rule="evenodd" d="M755.226 683.297C755.226 683.297 751.793 686.533 748.212 688.29C748.196 688.29 749.066 686.188 755.226 683.297Z" fill="#486640"/>
<path fill-rule="evenodd" clip-rule="evenodd" d="M760.449 683.297C760.449 683.297 757.016 686.533 753.435 688.29C753.435 688.29 754.29 686.188 760.449 683.297Z" fill="#486640"/>
<path fill-rule="evenodd" clip-rule="evenodd" d="M673.722 552.942C673.722 552.942 677.155 556.178 680.736 557.935C680.736 557.935 679.882 555.833 673.722 552.942Z" fill="#486640"/>
<path fill-rule="evenodd" clip-rule="evenodd" d="M672.983 547.653C672.983 547.653 679.865 554.124 687.027 557.639C687.027 557.639 685.302 553.434 672.983 547.653Z" fill="#486640"/>
<path fill-rule="evenodd" clip-rule="evenodd" d="M681.869 549.558C681.869 549.558 687.503 554.847 693.367 557.721C693.367 557.721 691.954 554.289 681.869 549.558Z" fill="#486640"/>
<path fill-rule="evenodd" clip-rule="evenodd" d="M708.856 548.458C708.856 548.458 702.401 554.535 695.667 557.82C695.667 557.82 697.293 553.878 708.856 548.458Z" fill="#486640"/>
<path fill-rule="evenodd" clip-rule="evenodd" d="M708.446 552.942C708.446 552.942 705.013 556.178 701.432 557.935C701.432 557.935 702.286 555.833 708.446 552.942Z" fill="#486640"/>
<path fill-rule="evenodd" clip-rule="evenodd" d="M713.669 552.942C713.669 552.942 710.22 556.178 706.655 557.935C706.655 557.935 707.509 555.833 713.669 552.942Z" fill="#486640"/>
<path fill-rule="evenodd" clip-rule="evenodd" d="M314.429 380.835C317.402 383.085 322.215 381.032 324.892 378.732C325.352 378.321 325.697 377.796 325.828 377.188C326.436 374.297 321.87 373.591 321.722 370.996C321.656 369.862 322.51 368.926 323.151 367.973C324.596 365.822 324.991 363.078 324.695 360.5C324.399 357.921 323.43 355.473 322.297 353.125C321.377 351.219 319.734 349.051 317.665 349.511C316.334 349.807 315.48 351.137 315.086 352.435C314.544 354.225 314.626 356.163 314.987 358.003C315.152 358.824 315.349 359.662 315.135 360.467C314.577 362.52 311.702 362.98 310.651 364.836C309.583 366.725 310.865 369.025 312.031 370.831C313.033 372.392 313.657 373.361 313 374.691C312.819 375.036 312.573 375.348 312.277 375.611C311.637 376.153 310.454 377.829 314.429 380.835Z" fill="#0D6D6B"/>
<path fill-rule="evenodd" clip-rule="evenodd" d="M319.192 381.639C321.426 366.364 316.104 357.313 309.764 356.18C303.259 355.03 298.874 352.648 296.903 342.317C294.932 331.985 293.733 321.489 286.473 322.852C279.212 324.216 276.634 333.447 276.042 344.025C275.435 354.619 270.901 353.404 264.692 357.559C259.847 360.812 263.312 375.414 265.054 381.639H319.192Z" fill="#2F855A"/>
<path opacity="0.2" fill-rule="evenodd" clip-rule="evenodd" d="M312.146 369.829C309.206 367.776 303.227 371.899 298.463 371.357C293.7 370.831 294.915 355.999 288.247 355.999C281.594 355.999 282.12 372.934 276.831 373.016C271.542 373.098 271.985 365.674 267.682 368.154C264.117 370.191 266.433 378.699 267.353 381.623H310.224C311.867 377.763 314.183 371.258 312.146 369.829Z" fill="black"/>
<path d="M287.031 330.49C287.031 330.49 289.676 360.812 287.376 381.639" stroke="#94CFB9" stroke-width="1.0001" stroke-miterlimit="10"/>
<path d="M290.53 332.51L287.491 336.781" stroke="#94CFB9" stroke-width="1.0001" stroke-miterlimit="10"/>
<path d="M281.66 335.139L287.737 340.986" stroke="#94CFB9" stroke-width="1.0001" stroke-miterlimit="10"/>
<path d="M294.538 342.875L288.132 350.02" stroke="#94CFB9" stroke-width="1.0001" stroke-miterlimit="10"/>
<path d="M278.506 346.456L288.329 356.065" stroke="#94CFB9" stroke-width="1.0001" stroke-miterlimit="10"/>
<path d="M299.925 351.252L288.312 362.454" stroke="#94CFB9" stroke-width="1.0001" stroke-miterlimit="10"/>
<path d="M281.331 363.588L288.164 370.306" stroke="#94CFB9" stroke-width="1.0001" stroke-miterlimit="10"/>
<path d="M296.755 365.378L287.951 374.675" stroke="#94CFB9" stroke-width="1.0001" stroke-miterlimit="10"/>
<path d="M270.556 362.438C270.556 362.438 273.217 366.791 273.628 381.639" stroke="#94CFB9" stroke-width="1.0001" stroke-miterlimit="10"/>
<path d="M276.979 369.534L273.25 375.693" stroke="#94CFB9" stroke-width="1.0001" stroke-miterlimit="10"/>
<path d="M265.333 373.771L273.348 376.892" stroke="#94CFB9" stroke-width="1.0001" stroke-miterlimit="10"/>
<path d="M308.45 365.772C308.45 365.772 307.087 366.774 306.66 381.639" stroke="#94CFB9" stroke-width="1.0001" stroke-miterlimit="10"/>
<path d="M303.325 369.55L307.054 375.693" stroke="#94CFB9" stroke-width="1.0001" stroke-miterlimit="10"/>
<path d="M312.589 374.708L306.939 376.892" stroke="#94CFB9" stroke-width="1.0001" stroke-miterlimit="10"/>
<path fill-rule="evenodd" clip-rule="evenodd" d="M24.2547 328.437C24.2547 328.437 27.2277 331.229 30.3157 332.74C30.3157 332.757 29.5766 330.934 24.2547 328.437Z" fill="#486640"/>
<path fill-rule="evenodd" clip-rule="evenodd" d="M23.6141 323.871C23.6141 323.871 29.5602 329.455 35.7526 332.494C35.7526 332.494 34.2579 328.864 23.6141 323.871Z" fill="#486640"/>
<path fill-rule="evenodd" clip-rule="evenodd" d="M31.3013 325.513C31.3013 325.513 36.1633 330.08 41.2224 332.56C41.2224 332.576 40.0069 329.603 31.3013 325.513Z" fill="#486640"/>
<path fill-rule="evenodd" clip-rule="evenodd" d="M54.6091 324.577C54.6091 324.577 49.0244 329.817 43.2262 332.675C43.2262 332.658 44.6224 329.258 54.6091 324.577Z" fill="#486640"/>
<path fill-rule="evenodd" clip-rule="evenodd" d="M54.2642 328.437C54.2642 328.437 51.2912 331.229 48.2032 332.74C48.1868 332.757 48.9424 330.934 54.2642 328.437Z" fill="#486640"/>
<path fill-rule="evenodd" clip-rule="evenodd" d="M58.7648 328.437C58.7648 328.437 55.7918 331.229 52.7038 332.74C52.7038 332.757 53.4593 330.934 58.7648 328.437Z" fill="#486640"/>
<path fill-rule="evenodd" clip-rule="evenodd" d="M725.036 484.003C725.036 484.003 728.468 487.239 732.049 488.997C732.049 488.98 731.195 486.878 725.036 484.003Z" fill="#486640"/>
<path fill-rule="evenodd" clip-rule="evenodd" d="M724.296 478.714C724.296 478.714 731.179 485.186 738.34 488.701C738.34 488.701 736.615 484.496 724.296 478.714Z" fill="#486640"/>
<path fill-rule="evenodd" clip-rule="evenodd" d="M733.183 480.62C733.183 480.62 738.817 485.909 744.681 488.783C744.681 488.783 743.268 485.334 733.183 480.62Z" fill="#486640"/>
<path fill-rule="evenodd" clip-rule="evenodd" d="M760.17 479.519C760.17 479.519 753.698 485.597 746.98 488.882C746.997 488.882 748.606 484.94 760.17 479.519Z" fill="#486640"/>
<path fill-rule="evenodd" clip-rule="evenodd" d="M759.759 484.003C759.759 484.003 756.31 487.239 752.745 488.997C752.745 488.98 753.6 486.878 759.759 484.003Z" fill="#486640"/>
<path fill-rule="evenodd" clip-rule="evenodd" d="M764.983 484.003C764.983 484.003 761.55 487.239 757.969 488.997C757.969 488.98 758.823 486.878 764.983 484.003Z" fill="#486640"/>
<path fill-rule="evenodd" clip-rule="evenodd" d="M768.169 304.948C762.863 303.782 757.624 307.149 756.458 312.455C761.763 313.621 767.003 310.254 768.169 304.948Z" fill="#22543D"/>
<path fill-rule="evenodd" clip-rule="evenodd" d="M754.815 312.668C754.174 307.281 749.263 303.421 743.876 304.078C744.533 309.465 749.427 313.309 754.815 312.668Z" fill="#22543D"/>
<path fill-rule="evenodd" clip-rule="evenodd" d="M768.169 292.941C762.863 291.775 757.624 295.142 756.458 300.464C761.763 301.614 767.003 298.247 768.169 292.941Z" fill="#22543D"/>
<path fill-rule="evenodd" clip-rule="evenodd" d="M755.489 282.215C751.645 286.059 751.628 292.284 755.472 296.128C759.316 292.284 759.316 286.059 755.489 282.215Z" fill="#22543D"/>
<path fill-rule="evenodd" clip-rule="evenodd" d="M754.815 300.645C754.174 295.257 749.263 291.397 743.876 292.054C744.533 297.458 749.427 301.302 754.815 300.645Z" fill="#22543D"/>
<path d="M755.653 289.985H755.291V324.692H755.653V289.985Z" fill="#68D391" stroke="#486640" stroke-width="0.4997" stroke-miterlimit="22.9256"/>
<path fill-rule="evenodd" clip-rule="evenodd" d="M755.456 301.367L749.345 296.243L749.575 295.963L755.472 300.908L762.798 295.717L763.011 296.013L755.456 301.367Z" fill="#68D391" stroke="#486640" stroke-width="0.4997" stroke-miterlimit="22.9256"/>
<path fill-rule="evenodd" clip-rule="evenodd" d="M755.456 313.605L749.345 308.48L749.575 308.201L755.472 313.145L762.798 307.954L763.011 308.25L755.456 313.605Z" fill="#68D391" stroke="#486640" stroke-width="0.4997" stroke-miterlimit="22.9256"/>
<path fill-rule="evenodd" clip-rule="evenodd" d="M733.807 321.67C733.807 321.67 737.256 324.905 740.82 326.646C740.837 326.663 739.966 324.56 733.807 321.67Z" fill="#486640"/>
<path fill-rule="evenodd" clip-rule="evenodd" d="M733.068 316.38C733.068 316.38 739.95 322.852 747.111 326.367C747.111 326.367 745.387 322.162 733.068 316.38Z" fill="#486640"/>
<path fill-rule="evenodd" clip-rule="evenodd" d="M741.954 318.286C741.954 318.286 747.588 323.575 753.452 326.449C753.452 326.449 752.039 323.016 741.954 318.286Z" fill="#486640"/>
<path fill-rule="evenodd" clip-rule="evenodd" d="M768.941 317.185C768.941 317.185 762.486 323.263 755.751 326.548C755.768 326.564 757.377 322.606 768.941 317.185Z" fill="#486640"/>
<path fill-rule="evenodd" clip-rule="evenodd" d="M768.53 321.67C768.53 321.67 765.081 324.905 761.516 326.646C761.516 326.663 762.371 324.56 768.53 321.67Z" fill="#486640"/>
<path fill-rule="evenodd" clip-rule="evenodd" d="M773.754 321.67C773.754 321.67 770.321 324.905 766.74 326.646C766.74 326.663 767.61 324.56 773.754 321.67Z" fill="#486640"/>
</g>
</svg>
