<svg width="1280" height="693" fill="none" xmlns="http://www.w3.org/2000/svg"><mask id="a" maskUnits="userSpaceOnUse" x="0" y="0" width="1280" height="693"><path fill="#C4C4C4" d="M0 0h1280v693H0z"/></mask><g mask="url(#a)"><path fill="#4299E1" d="M-88-8h1448v563H-88z"/><path fill-rule="evenodd" clip-rule="evenodd" d="M965.738 0H312.525c-6.145 8.616-11.086 18.404-14.529 29.027-9.286-7.651-20.666-12.172-32.974-12.172-6.799.01-13.324 1.39-19.367 3.907l-.001 1.514c-6.768-2.996-14.126-4.638-21.822-4.638-26.167 0-48.462 19.03-56.922 45.675-6.564-2.905-13.694-4.511-21.154-4.511-11.931 0-23.027 4.087-32.305 11.08-5.966-17.234-20.635-29.424-37.791-29.424-14.638 0-27.465 8.87-34.619 22.179C26.222 50.022 7.878 42.56-11.993 42.56c-38.27 0-70.907 27.683-83.498 66.537-9.287-7.651-20.666-12.172-32.975-12.172-6.799.01-13.323 1.39-19.367 3.907v237.086h393.487l.001-80.07h393.487v-1.568h392.368V19.194a50.367 50.367 0 00-19.37-3.907c-12.303 0-23.683 4.521-32.969 12.173-3.236-9.985-7.795-19.231-13.433-27.46zm144.522 61.746c-8.46-26.646-30.76-45.676-56.92-45.676-7.7 0-15.06 1.642-21.83 4.638V336.35H1425V99.264a50.367 50.367 0 00-19.37-3.907c-12.31 0-23.69 4.521-32.97 12.173-12.59-38.854-45.23-66.538-83.5-66.538-19.87 0-38.22 7.463-53.03 20.077-7.16-13.31-19.99-22.18-34.62-22.18-17.16 0-31.83 12.191-37.79 29.426-9.28-6.993-20.38-11.08-32.31-11.08-7.46 0-14.59 1.605-21.15 4.51z" fill="#fff"/><path d="M1360 246H-80v479h1440V246z" fill="#68D391"/><path fill-rule="evenodd" clip-rule="evenodd" d="M664.359 264.903c4.123-28.219-5.716-44.973-17.411-47.043-12.023-2.135-20.138-6.537-23.768-25.64-3.63-19.103-5.864-38.502-19.283-35.972-13.42 2.513-18.167 19.562-19.284 39.142-1.117 19.563-9.51 17.329-20.975 24.999-8.952 5.996-2.546 32.999.673 44.514h100.048z" fill="#48BB78"/><path opacity=".2" fill-rule="evenodd" clip-rule="evenodd" d="M651.334 243.09c-5.453-3.811-16.491 3.81-25.295 2.825-8.805-.986-6.571-28.384-18.873-28.384-12.303 0-11.318 31.308-21.107 31.455-9.79.132-8.952-13.551-16.919-8.984-6.57 3.761-2.299 19.497-.607 24.901h79.253c3.022-7.178 7.309-19.185 3.548-21.813z" fill="#000"/><path d="M604.932 170.357s4.878 56.028.624 94.546M611.387 174.086l-5.618 7.9M594.994 178.948l11.235 10.808M618.795 193.254l-11.843 13.207M589.163 199.857l18.134 17.773M628.732 208.744l-21.451 20.696M594.37 231.526l12.631 12.434M622.868 234.844l-16.245 17.181M574.462 229.391s4.895 8.032 5.683 35.512M586.321 242.531l-6.898 11.4M564.788 250.366l14.832 5.766M644.484 235.567s-2.513 1.856-3.301 29.336M635.023 242.564l6.883 11.367M652.155 252.074l-10.446 4.058" stroke="#94CFB9" stroke-miterlimit="10"/><path fill-rule="evenodd" clip-rule="evenodd" d="M572.687 264.804s5.585-73.192-7.178-74.769c-12.779-1.577-10.512 30.65-23.225 30.371-12.697-.279-19.645-10.907-24.294.526-4.648 11.432-4.763 22.552-15.735 19.119-10.989-3.433-27.201 24.737-27.201 24.737h97.633v.016z" fill="#2F855A"/><path opacity=".11" fill-rule="evenodd" clip-rule="evenodd" d="M502.239 240.051c10.989 3.433 11.104-7.687 15.736-19.12 3.925-9.674 9.51-3.564 18.807-1.281v45.138h-61.76c.016.016 16.228-28.17 27.217-24.737z" fill="#000" stroke="#7DBD77" stroke-width=".216" stroke-miterlimit="22.926"/><path fill-rule="evenodd" clip-rule="evenodd" d="M95.507 264.903H-80v-78.367c3.63-19.99 9.527-36.087 19.12-36.612 25.738-1.396 26.888 64.618 64.93 60.38 29.861-3.318 69.151-2.48 91.457 25.263v29.336z" fill="#2F855A"/><path fill-rule="evenodd" clip-rule="evenodd" d="M7.211 264.804s-7.72-101.099 9.921-103.267c17.641-2.169 14.52 42.328 32.08 41.951 17.542-.378 27.135-15.063 33.557.722 6.406 15.802 6.57 31.16 21.747 26.413 15.178-4.747 37.582 34.181 37.582 34.181H7.211z" fill="#48BB78"/><path opacity=".11" fill-rule="evenodd" clip-rule="evenodd" d="M104.516 230.623c-15.177 4.747-15.325-10.628-21.747-26.413-5.42-13.354-13.124-4.911-25.985-1.757v62.351h85.314c-.016 0-22.421-38.928-37.582-34.181z" fill="#000" stroke="#7DBD77" stroke-width=".216" stroke-miterlimit="22.926"/><path d="M69.58 225.908s-4.65-1.084-5.799 38.88M54.813 232.298l10.02 16.524M80.781 245.718l-16.244 6.307M23.522 188.261s-4.024 30.239 1.1 76.642M32.211 198.445l-9.675 9.494M16.607 216.431l5.93 5.732M41.163 219.995l-18.282 19.662M11.022 240.823l12.32 8.558" stroke="#94CFB9" stroke-miterlimit="10"/><path fill-rule="evenodd" clip-rule="evenodd" d="M864.783 225.81c-15.522 11.777-40.653 1.051-54.582-11.005-2.431-2.103-4.221-4.879-4.878-8.032-3.17-15.112 20.696-18.824 21.386-32.359.312-5.929-4.156-10.841-7.457-15.768-7.507-11.268-9.642-25.526-8.049-38.978 1.593-13.453 6.636-26.265 12.5-38.469 4.796-9.987 13.37-21.271 24.195-18.873 6.948 1.544 11.399 8.46 13.436 15.276 2.776 9.379 2.382 19.464.509 29.073-.821 4.254-1.938 8.673-.788 12.861 2.94 10.71 17.953 13.124 23.39 22.799 5.552 9.839-1.068 21.83-7.195 31.324-5.239 8.13-8.459 13.173-5.026 20.105.904 1.839 2.25 3.416 3.811 4.763 3.301 2.858 9.494 11.547-11.252 27.283z" fill="#EF855A"/><path fill-rule="evenodd" clip-rule="evenodd" d="M844.383 90.102c-.017 3.367-3.417 187.448-3.417 187.448l13.338 1.167-9.921-188.615z" fill="#9C4F5F"/><path fill-rule="evenodd" clip-rule="evenodd" d="M844.958 220.587l-27.316-28.959 29.681 26.528c.706.624.756 1.708.131 2.398a1.693 1.693 0 01-2.398.131l-.098-.098zM842.346 137.112l-11.054-21.666 13.239 20.417a1.253 1.253 0 01-.378 1.742 1.256 1.256 0 01-1.741-.378c-.017-.033-.049-.066-.066-.115zM847.06 182.545l26.429-39.865-26.429 39.865zM845.697 181.641l27.792-38.961-25.065 40.768a1.633 1.633 0 01-2.251.542 1.633 1.633 0 01-.542-2.25c.017-.033.05-.066.066-.099z" fill="#9C4F5F"/><path fill-rule="evenodd" clip-rule="evenodd" d="M1212 322.903h147.81V204.326c-9.2-2.102-11.91 18.972-19.27 19.53-8.84.657-10.54-53.547-21.91-53.087-11.38.444-14.17 54.714-26.05 62.795-11.88 8.065-26.78-18.594-34.08 0-7.31 18.594-1.3 53.646-14 53.235-12.69-.427-31.66-7.654-32.5 36.104z" fill="#2F855A"/><path d="M1267.68 244.865s8.29 39.914 8.99 78.136M1273.58 248.265l-3.03 12.533M1283.41 254.589l-9.42 30.831M1286.08 281.839l-10.06 25.886M1263.89 259.943l7.46 5.864M1259.82 278.751l14.7 11.465M1262.99 302.798l13.22 7.999" stroke="#94CFB9" stroke-miterlimit="10"/><path fill-rule="evenodd" clip-rule="evenodd" d="M1284.04 283.81c-15.52 11.777-40.65 1.051-54.58-11.005-2.43-2.103-4.22-4.879-4.88-8.032-3.17-15.112 20.69-18.824 21.38-32.359.32-5.929-4.15-10.841-7.45-15.768-7.51-11.268-9.64-25.526-8.05-38.978 1.59-13.453 6.63-26.265 12.5-38.469 4.79-9.987 13.37-21.271 24.19-18.873 6.95 1.544 11.4 8.459 13.44 15.276 2.78 9.379 2.38 19.464.51 29.073-.82 4.254-1.94 8.673-.79 12.861 2.94 10.71 17.95 13.124 23.39 22.799 5.55 9.839-1.07 21.83-7.19 31.324-5.24 8.13-8.46 13.173-5.03 20.105.9 1.839 2.25 3.416 3.81 4.763 3.3 2.858 9.49 11.547-11.25 27.283z" fill="#EF855A"/><path fill-rule="evenodd" clip-rule="evenodd" d="M1263.64 148.102c-.02 3.367-3.42 187.448-3.42 187.448l13.34 1.167-9.92-188.615z" fill="#9C4F5F"/><path fill-rule="evenodd" clip-rule="evenodd" d="M1264.21 278.587l-27.31-28.959 29.68 26.528c.7.624.75 1.708.13 2.398-.62.706-1.71.755-2.4.131a.848.848 0 00-.1-.098zM1261.6 195.112l-11.05-21.666 13.24 20.417c.37.592.21 1.364-.38 1.742-.58.377-1.36.213-1.74-.378-.02-.033-.05-.066-.07-.115zM1266.32 240.545l26.42-39.865-26.42 39.865zM1264.95 239.641l27.79-38.961-25.06 40.768a1.633 1.633 0 01-2.25.542 1.63 1.63 0 01-.54-2.25c.01-.033.05-.066.06-.099z" fill="#9C4F5F"/><path fill-rule="evenodd" clip-rule="evenodd" d="M824.787 234.877c-11.892 9.017-31.159.805-41.819-8.427-1.857-1.609-3.236-3.745-3.746-6.159-2.431-11.58 15.851-14.422 16.393-24.803.23-4.533-3.186-8.311-5.7-12.089-5.748-8.64-7.391-19.563-6.175-29.862 1.215-10.315 5.075-20.121 9.576-29.484 3.679-7.654 10.249-16.294 18.544-14.454 5.322 1.183 8.738 6.472 10.299 11.711 2.135 7.195 1.823 14.915.394 22.273-.641 3.253-1.478 6.653-.608 9.856 2.251 8.196 13.765 10.052 17.937 17.477 4.254 7.539-.821 16.721-5.519 24.014-4.024 6.225-6.488 10.085-3.843 15.407.689 1.413 1.724 2.612 2.907 3.646 2.529 2.169 7.26 8.821-8.64 20.894z" fill="#F3AF47"/><path fill-rule="evenodd" clip-rule="evenodd" d="M807.82 128.258c-.017 2.76-3.828 134.657-3.828 134.657l10.973.969-7.145-135.626z" fill="#9C4F5F"/><path fill-rule="evenodd" clip-rule="evenodd" d="M810.842 207.857l22.47-23.834-24.425 21.83a1.4 1.4 0 00-.115 1.971 1.4 1.4 0 001.971.115.448.448 0 00.099-.082zM806.144 166.941l-9.1-17.822 10.89 16.787a1.021 1.021 0 01-.312 1.429 1.022 1.022 0 01-1.429-.312c-.016-.033-.032-.05-.049-.082zM810.037 204.309l21.731-32.802-21.731 32.802z" fill="#9C4F5F"/><path fill-rule="evenodd" clip-rule="evenodd" d="M379.294 264.903c3.367-23.013-4.665-36.662-14.192-38.354-9.806-1.741-16.409-5.322-19.366-20.893-2.957-15.572-4.78-31.373-15.719-29.32-10.94 2.053-14.816 15.949-15.719 31.898-.904 15.95-7.753 14.126-17.083 20.385-7.293 4.894-2.086 26.905.558 36.284h81.521z" fill="#2F855A"/><path opacity=".2" fill-rule="evenodd" clip-rule="evenodd" d="M368.683 247.114c-4.452-3.105-13.437 3.104-20.614 2.299-7.178-.804-5.355-23.127-15.375-23.127-10.019 0-9.231 25.526-17.197 25.641-7.983.115-7.293-11.055-13.782-7.326-5.354 3.071-1.872 15.9-.492 20.302h64.585c2.431-5.848 5.93-15.637 2.875-17.789z" fill="#000"/><path d="M330.838 187.85s3.975 45.663.509 77.053M336.111 190.889l-4.583 6.439M322.757 194.848l9.149 8.804M342.155 206.51l-9.658 10.759M317.993 211.897l14.783 14.488M350.237 219.141l-17.461 16.853M322.247 237.702l10.299 10.135M345.473 240.396l-13.239 14.011M306.019 235.961s3.991 6.554 4.632 28.942M315.694 246.67l-5.634 9.281M298.135 253.06l12.089 4.681M363.098 241.004s-2.053 1.511-2.694 23.915M355.378 246.703l5.617 9.248M369.34 254.44l-8.509 3.301" stroke="#94CFB9" stroke-miterlimit="10"/><path fill-rule="evenodd" clip-rule="evenodd" d="M314.61 264.903c2.332-15.917-3.22-25.378-9.823-26.544-6.784-1.199-11.35-3.696-13.403-14.454-2.053-10.776-3.318-21.715-10.89-20.303-7.572 1.413-10.25 11.038-10.89 22.076-.625 11.038-5.355 9.774-11.827 14.11-5.059 3.384-1.445 18.61.378 25.115h56.455z" fill="#48BB78"/><path opacity=".2" fill-rule="evenodd" clip-rule="evenodd" d="M307.678 252.6c-3.071-2.152-9.313 2.152-14.274 1.593-4.96-.558-3.712-16.015-10.643-16.015-6.932 0-6.39 17.658-11.909 17.74-5.519.082-5.043-7.654-9.543-5.076-3.712 2.119-1.298 11.006-.345 14.044h44.694c1.724-4.04 4.139-10.808 2.02-12.286z" fill="#000"/><path fill-rule="evenodd" clip-rule="evenodd" d="M381.183 268.878c-7.293 5.535-19.103.492-25.641-5.174-1.15-.986-1.987-2.3-2.299-3.778-1.479-7.096 9.724-8.837 10.052-15.194.148-2.776-1.955-5.092-3.499-7.408-3.531-5.289-4.533-11.991-3.777-18.298.739-6.324 3.104-12.336 5.863-18.068 2.251-4.698 6.275-9.987 11.367-8.87 3.269.723 5.355 3.975 6.307 7.178 1.314 4.402 1.117 9.149.247 13.65-.394 2.004-.904 4.073-.378 6.044 1.38 5.027 8.426 6.16 10.989 10.71 2.611 4.615-.51 10.249-3.384 14.717-2.464 3.811-3.975 6.176-2.365 9.445.427.87 1.051 1.61 1.79 2.234 1.577 1.347 4.468 5.42-5.272 12.812z" fill="#F3AF47"/><path fill-rule="evenodd" clip-rule="evenodd" d="M392.533 269.633c-4.977 3.778-13.042.329-17.51-3.531-.788-.674-1.363-1.561-1.577-2.579-1.018-4.846 6.636-6.045 6.866-10.381.099-1.905-1.33-3.482-2.398-5.059-2.415-3.614-3.088-8.196-2.579-12.5.509-4.32 2.119-8.426 4.008-12.335 1.544-3.203 4.287-6.834 7.753-6.062 2.234.493 3.663 2.711 4.32 4.895.887 3.006.755 6.242.164 9.33-.263 1.363-.624 2.776-.246 4.123.936 3.433 5.765 4.205 7.506 7.309 1.774 3.154-.345 6.998-2.3 10.053-1.675 2.611-2.71 4.221-1.609 6.455.295.591.722 1.1 1.215 1.528 1.068.919 3.055 3.712-3.613 8.754z" fill="#2F855A"/><path fill-rule="evenodd" clip-rule="evenodd" d="M-39.79 193.994c6.685-5.339 38.666-17.132 39.815-8.443 2.004 15.128-39.815 8.443-39.815 8.443zM-32.169 171.441s33.985-17.592 37.32-7.802c4.09 12.089-37.32 7.802-37.32 7.802z" fill="#F3AF47"/><path fill-rule="evenodd" clip-rule="evenodd" d="M242.501 579.338c2.891-19.81-4.008-31.57-12.22-33.032-8.443-1.495-14.126-4.583-16.689-18.003-2.546-13.403-4.123-27.02-13.534-25.262-9.429 1.774-12.763 13.732-13.535 27.48-.788 13.732-6.669 12.171-14.717 17.559-6.291 4.205-1.791 23.16.476 31.258h70.219z" fill="#2F855A"/><path opacity=".2" fill-rule="evenodd" clip-rule="evenodd" d="M233.369 564.012c-3.827-2.677-11.58 2.678-17.756 1.988s-4.616-19.924-13.256-19.924-7.95 21.977-14.816 22.076c-6.866.098-6.274-9.511-11.875-6.308-4.616 2.645-1.627 13.683-.427 17.477h55.633c2.119-5.026 5.141-13.469 2.497-15.309z" fill="#000"/><path d="M200.78 512.962s3.433 39.339.444 66.376M205.314 515.573l-3.942 5.552M193.816 518.99l7.884 7.589M210.521 529.026l-8.328 9.28M189.709 533.674l12.73 12.467M217.485 539.9l-15.046 14.536M193.372 555.898l8.87 8.722M213.379 558.214l-11.4 12.073M179.394 554.404s3.433 5.634 3.992 24.934M187.722 563.618l-4.846 7.999M172.611 569.137l10.413 4.025M228.556 558.74s-1.758 1.298-2.316 20.598M221.92 563.651l4.829 7.967M233.944 570.32l-7.343 2.842" stroke="#94CFB9" stroke-miterlimit="10"/><path fill-rule="evenodd" clip-rule="evenodd" d="M60.769 568.103c-17.51 13.288-45.877 1.182-61.596-12.418-2.743-2.382-4.764-5.519-5.503-9.067-3.58-17.05 23.357-21.238 24.146-36.514.345-6.685-4.698-12.221-8.41-17.789C.93 479.601-1.468 463.521.323 448.344c1.79-15.178 7.473-29.632 14.11-43.413 5.42-11.268 15.094-24.014 27.298-21.304 7.835 1.741 12.878 9.543 15.161 17.247 3.138 10.594 2.694 21.961.575 32.802-.936 4.796-2.184 9.789-.887 14.503 3.302 12.073 20.253 14.816 26.396 25.723 6.258 11.104-1.215 24.638-8.114 35.348-5.913 9.165-9.543 14.865-5.667 22.7 1.035 2.069 2.53 3.86 4.287 5.371 3.729 3.219 10.693 13.025-12.713 30.782z" fill="#EF855A"/><path fill-rule="evenodd" clip-rule="evenodd" d="M37.74 414.967c-.033 3.794-3.843 211.545-3.843 211.545l15.062 1.314L37.74 414.967z" fill="#9C4F5F"/><path fill-rule="evenodd" clip-rule="evenodd" d="M38.397 562.206L7.583 529.519l33.491 29.944a1.92 1.92 0 01.148 2.71 1.922 1.922 0 01-2.71.148.388.388 0 01-.115-.115zM35.457 468.021l-12.483-24.457 14.947 23.028a1.417 1.417 0 01-.427 1.971 1.416 1.416 0 01-1.971-.427c-.017-.032-.05-.065-.066-.115zM40.779 519.286l29.812-44.99-29.812 44.99z" fill="#9C4F5F"/><path fill-rule="evenodd" clip-rule="evenodd" d="M39.235 518.267l31.356-43.971-28.268 46.008a1.846 1.846 0 01-2.546.608 1.847 1.847 0 01-.608-2.546c.017-.033.05-.066.066-.099z" fill="#9C4F5F"/><path fill-rule="evenodd" clip-rule="evenodd" d="M717.496 622.128c-14.783 11.219-38.715 1.002-51.97-10.479-2.316-2.004-4.025-4.649-4.649-7.655-3.022-14.372 19.711-17.92 20.368-30.814.296-5.634-3.959-10.315-7.096-15.029-7.161-10.726-9.182-24.294-7.671-37.106 1.512-12.812 6.308-24.999 11.909-36.629 4.566-9.51 12.73-20.252 23.029-17.969 6.619 1.462 10.873 8.048 12.795 14.553 2.645 8.935 2.267 18.544.476 27.693-.788 4.057-1.839 8.262-.755 12.237 2.792 10.201 17.099 12.5 22.273 21.715 5.289 9.379-1.018 20.795-6.85 29.829-4.993 7.736-8.048 12.532-4.779 19.152.87 1.758 2.135 3.252 3.63 4.533 3.17 2.711 9.05 10.989-10.71 25.969z" fill="#F3AF47"/><path fill-rule="evenodd" clip-rule="evenodd" d="M696.406 489.656c-.017 3.433-4.764 167.344-4.764 167.344l13.634 1.199-8.87-168.543z" fill="#9C4F5F"/><path fill-rule="evenodd" clip-rule="evenodd" d="M700.167 588.571l27.924-29.616-30.338 27.119a1.742 1.742 0 00-.132 2.464 1.723 1.723 0 002.448.131c.016-.033.065-.065.098-.098zM694.336 537.717l-11.301-22.158 13.535 20.861a1.276 1.276 0 01-.378 1.774 1.277 1.277 0 01-1.774-.378.448.448 0 01-.082-.099zM699.165 584.152l27.004-40.752-27.004 40.752z" fill="#9C4F5F"/><path fill-rule="evenodd" clip-rule="evenodd" d="M665.427 628.485c-19.284 14.635-50.525 1.298-67.821-13.682-3.022-2.612-5.256-6.078-6.061-9.987-3.942-18.775 25.706-23.39 26.576-40.21.378-7.359-5.157-13.469-9.247-19.596-9.33-14.011-11.974-31.718-10.003-48.422 1.971-16.722 8.245-32.638 15.538-47.799 5.963-12.401 16.623-26.429 30.059-23.456 8.64 1.922 14.175 10.513 16.688 18.988 3.45 11.663 2.957 24.195.641 36.137-1.018 5.289-2.398 10.775-.969 15.965 3.646 13.305 22.306 16.311 29.073 28.334 6.899 12.238-1.33 27.136-8.935 38.929-6.505 10.102-10.513 16.36-6.242 24.983 1.133 2.284 2.792 4.255 4.73 5.914 4.074 3.548 11.761 14.339-14.027 33.902z" fill="#EF855A"/><path fill-rule="evenodd" clip-rule="evenodd" d="M640.082 459.86c-.032 4.172-4.237 232.948-4.237 232.948l16.589 1.461-12.352-234.409z" fill="#9C4F5F"/><path fill-rule="evenodd" clip-rule="evenodd" d="M640.805 621.997l-33.935-35.989 36.892 32.967a2.11 2.11 0 01.164 2.989 2.108 2.108 0 01-2.989.164l-.132-.131zM637.569 518.269l-13.748-26.921 16.442 25.361a1.567 1.567 0 11-2.628 1.708c-.016-.049-.049-.098-.066-.148zM643.417 574.724l32.835-49.54-32.835 49.54zM641.725 573.591l34.527-48.423-31.143 50.673a2.047 2.047 0 01-2.809.673 2.033 2.033 0 01-.674-2.808c.05-.033.083-.066.099-.115z" fill="#9C4F5F"/><path fill-rule="evenodd" clip-rule="evenodd" d="M501.056 694.877c2.333-15.916-3.219-25.377-9.822-26.543-6.784-1.2-11.35-3.68-13.403-14.455-2.054-10.775-3.318-21.715-10.891-20.302-7.572 1.429-10.249 11.038-10.89 22.076-.624 11.038-5.354 9.773-11.826 14.11-5.059 3.383-1.446 18.61.378 25.114h56.454z" fill="#22543D"/><path opacity=".2" fill-rule="evenodd" clip-rule="evenodd" d="M494.125 682.558c-3.072-2.152-9.297 2.152-14.274 1.593-4.977-.558-3.712-16.015-10.644-16.015-6.931 0-6.389 17.658-11.908 17.74-5.519.082-5.043-7.654-9.544-5.075-3.712 2.118-1.297 11.005-.345 14.043h44.694c1.725-4.024 4.14-10.791 2.021-12.286z" fill="#000"/><path fill-rule="evenodd" clip-rule="evenodd" d="M553.996 694.877c2.891-19.809-4.008-31.57-12.237-33.032-8.443-1.494-14.126-4.582-16.672-18.002-2.546-13.403-4.123-27.02-13.551-25.263-9.428 1.758-12.763 13.732-13.535 27.48-.788 13.732-6.668 12.172-14.717 17.559-6.291 4.205-1.79 23.16.476 31.258h70.236z" fill="#2F855A"/><path opacity=".2" fill-rule="evenodd" clip-rule="evenodd" d="M544.847 679.552c-3.827-2.677-11.58 2.677-17.756 1.988-6.176-.69-4.616-19.925-13.239-19.925-8.64 0-7.95 21.978-14.816 22.076-6.866.099-6.275-9.526-11.876-6.307-4.615 2.644-1.609 13.682-.427 17.477h55.634c2.102-5.027 5.124-13.453 2.48-15.309z" fill="#000"/><path d="M512.259 628.501s3.433 39.34.443 66.376M516.809 631.13l-3.959 5.535M505.294 634.53l7.885 7.588M521.999 644.582l-8.311 9.264M501.204 649.214l12.73 12.467M528.98 655.456l-15.062 14.52M504.867 671.438l8.854 8.722M524.857 673.77l-11.399 12.057M490.872 669.943s3.45 5.634 3.992 24.918M499.217 679.174l-4.862 7.983M484.089 684.677l10.414 4.024M540.051 674.28s-1.774 1.297-2.316 20.597M533.398 679.191l4.846 7.966M545.422 685.859l-7.326 2.842" stroke="#94CFB9" stroke-miterlimit="10"/><path fill-rule="evenodd" clip-rule="evenodd" d="M507.939 401.219c6.176 4.681 16.162.41 21.698-4.386.969-.838 1.675-1.938 1.938-3.187 1.265-6.011-8.229-7.49-8.508-12.861-.132-2.349 1.659-4.32 2.956-6.274 2.99-4.485 3.827-10.151 3.203-15.506-.624-5.355-2.628-10.447-4.977-15.292-1.905-3.975-5.322-8.46-9.625-7.507-2.76.608-4.534 3.367-5.338 6.078-1.101 3.728-.953 7.736-.214 11.563.328 1.692.772 3.45.312 5.109-1.166 4.254-7.145 5.223-9.313 9.067-2.201 3.909.427 8.689 2.858 12.467 2.086 3.235 3.367 5.239 2.004 7.999-.362.739-.887 1.363-1.511 1.889-1.282 1.133-3.729 4.582 4.517 10.841z" fill="#22543D"/><path fill-rule="evenodd" clip-rule="evenodd" d="M585.599 403.436c2.891-19.776-4.008-31.504-12.204-32.966-8.427-1.495-14.11-4.583-16.656-17.953-2.546-13.387-4.106-26.971-13.518-25.197-9.396 1.757-12.73 13.715-13.519 27.414-.788 13.716-6.652 12.139-14.684 17.526-6.275 4.205-1.79 23.111.476 31.192h70.105v-.016z" fill="#2F855A"/><path opacity=".2" fill-rule="evenodd" clip-rule="evenodd" d="M576.466 388.144c-3.827-2.661-11.564 2.661-17.723 1.987-6.176-.689-4.599-19.875-13.223-19.875-8.623 0-7.933 21.929-14.783 22.027-6.849.099-6.258-9.494-11.843-6.291-4.599 2.645-1.609 13.666-.427 17.444h55.519c2.119-5.026 5.125-13.436 2.48-15.292z" fill="#000"/><path d="M543.96 337.208s3.417 39.257.443 66.228M548.477 339.82l-3.926 5.519M536.995 343.22l7.868 7.572M553.667 353.24l-8.294 9.247M532.905 357.872l12.714 12.45M560.632 364.097l-15.013 14.487M536.568 380.062l8.837 8.706M556.526 382.379l-11.383 12.039M522.607 378.568s3.433 5.634 3.991 24.868M530.918 387.766l-4.829 7.983M515.839 393.252l10.398 4.041M571.67 382.888s-1.758 1.297-2.316 20.548M565.05 387.782l4.813 7.967M577.041 394.451l-7.309 2.842" stroke="#94CFB9" stroke-miterlimit="10"/><path fill-rule="evenodd" clip-rule="evenodd" d="M578.996 403.354s-3.762-49.375 4.845-50.443c8.624-1.068 7.096 20.68 15.67 20.483 8.574-.181 13.256-7.359 16.393.361 3.137 7.72 3.203 15.227 10.611 12.894 7.408-2.316 18.347 16.689 18.347 16.689h-65.866v.016z" fill="#22543D"/><path opacity=".11" fill-rule="evenodd" clip-rule="evenodd" d="M626.515 386.649c-7.408 2.316-7.49-5.19-10.611-12.894-2.644-6.521-6.406-2.398-12.697-.854v30.453h41.672c-.017 0-10.956-19.021-18.364-16.705z" fill="#000" stroke="#7DBD77" stroke-width=".216" stroke-miterlimit="22.926"/><path fill-rule="evenodd" clip-rule="evenodd" d="M375.943 618.613c-5.306-1.166-10.562 2.201-11.712 7.507 5.289 1.166 10.545-2.201 11.712-7.507zM362.589 626.317c-.641-5.404-5.552-9.248-10.94-8.591.641 5.388 5.552 9.248 10.94 8.591zM375.943 606.59c-5.306-1.167-10.562 2.201-11.712 7.523 5.289 1.149 10.545-2.218 11.712-7.523zM363.246 595.864a9.834 9.834 0 00-.033 13.912c3.86-3.827 3.876-10.052.033-13.912zM362.589 614.31c-.641-5.404-5.552-9.248-10.94-8.591.641 5.388 5.552 9.231 10.94 8.591z" fill="#22543D"/><path d="M363.41 603.65h-.361v34.707h.361V603.65z" fill="#68D391" stroke="#486640" stroke-width=".5" stroke-miterlimit="22.926"/><path fill-rule="evenodd" clip-rule="evenodd" d="M363.229 615.032l-6.11-5.141.23-.262 5.897 4.944 7.326-5.191.197.279-7.54 5.371zM363.229 627.253l-6.11-5.125.23-.263 5.897 4.945 7.326-5.207.197.295-7.54 5.355z" fill="#68D391" stroke="#486640" stroke-width=".5" stroke-miterlimit="22.926"/><path fill-rule="evenodd" clip-rule="evenodd" d="M341.58 635.334s3.433 3.236 7.014 4.994c0-.017-.854-2.119-7.014-4.994zM340.841 630.046s6.882 6.471 14.044 9.986c0 0-1.725-4.205-14.044-9.986zM349.728 631.951s5.633 5.289 11.497 8.163c0 0-1.412-3.449-11.497-8.163zM376.715 630.85s-6.472 6.078-13.19 9.363c0 0 1.626-3.942 13.19-9.363zM376.304 635.334s-3.433 3.236-7.014 4.994c0-.017.854-2.119 7.014-4.994zM381.527 635.334s-3.433 3.236-7.013 4.994c0-.017.854-2.119 7.013-4.994z" fill="#486640"/><path fill-rule="evenodd" clip-rule="evenodd" d="M571.637 574.149c-5.306-1.166-10.562 2.201-11.711 7.523 5.305 1.15 10.561-2.217 11.711-7.523zM558.299 581.869c-.64-5.404-5.551-9.247-10.939-8.59.641 5.387 5.552 9.231 10.939 8.59zM571.637 562.142c-5.306-1.166-10.562 2.201-11.711 7.523 5.305 1.15 10.561-2.217 11.711-7.523zM558.957 551.416c-3.844 3.844-3.861 10.069-.017 13.913 3.844-3.827 3.86-10.069.017-13.913zM558.299 569.846c-.64-5.388-5.551-9.248-10.939-8.591.641 5.404 5.552 9.248 10.939 8.591z" fill="#22543D"/><path d="M559.121 559.186h-.362v34.707h.362v-34.707z" fill="#68D391" stroke="#486640" stroke-width=".5" stroke-miterlimit="22.926"/><path fill-rule="evenodd" clip-rule="evenodd" d="M558.94 570.568l-6.11-5.124.23-.28 5.896 4.961 7.326-5.207.197.296-7.539 5.354zM558.94 582.806l-6.11-5.125.23-.279 5.896 4.944 7.326-5.191.197.296-7.539 5.355z" fill="#68D391" stroke="#486640" stroke-width=".5" stroke-miterlimit="22.926"/><path fill-rule="evenodd" clip-rule="evenodd" d="M537.291 590.87s3.433 3.236 7.014 4.994c0 0-.854-2.103-7.014-4.994zM536.552 585.581s6.882 6.472 14.044 9.987c0 0-1.725-4.205-14.044-9.987zM545.438 587.487s5.634 5.289 11.498 8.163c-.016 0-1.429-3.433-11.498-8.163zM572.426 586.386s-6.456 6.078-13.19 9.363c0 .016 1.626-3.942 13.19-9.363zM572.015 590.87s-3.433 3.236-7.014 4.994c-.016 0 .854-2.103 7.014-4.994zM577.238 590.87s-3.433 3.236-7.013 4.994c0 0 .854-2.103 7.013-4.994z" fill="#486640"/><path fill-rule="evenodd" clip-rule="evenodd" d="M242.6 455.834c-5.306-1.167-10.545 2.201-11.711 7.523 5.321 1.149 10.561-2.218 11.711-7.523zM229.262 463.554c-.657-5.404-5.551-9.248-10.939-8.591.641 5.388 5.552 9.231 10.939 8.591zM242.6 443.827c-5.306-1.167-10.545 2.201-11.711 7.523 5.321 1.149 10.561-2.218 11.711-7.523zM229.919 433.101c-3.843 3.843-3.86 10.068-.016 13.912 3.844-3.827 3.86-10.069.016-13.912zM229.262 451.53c-.657-5.404-5.551-9.247-10.939-8.59.641 5.404 5.552 9.247 10.939 8.59z" fill="#22543D"/><path d="M230.084 440.87h-.362v34.707h.362V440.87z" fill="#68D391" stroke="#486640" stroke-width=".5" stroke-miterlimit="22.926"/><path fill-rule="evenodd" clip-rule="evenodd" d="M229.903 452.253l-6.11-5.125.23-.279 5.896 4.944 7.326-5.19.197.295-7.539 5.355zM229.903 464.49l-6.11-5.125.23-.279 5.896 4.944 7.326-5.191.197.296-7.539 5.355z" fill="#68D391" stroke="#486640" stroke-width=".5" stroke-miterlimit="22.926"/><path fill-rule="evenodd" clip-rule="evenodd" d="M380.558 462.059s3.45 3.236 7.014 4.993c0 0-.854-2.102-7.014-4.993zM379.819 456.77s6.883 6.472 14.044 9.987c0 0-1.725-4.205-14.044-9.987zM388.705 458.675s5.634 5.289 11.498 8.164c0 0-1.412-3.433-11.498-8.164zM415.693 457.575s-6.456 6.077-13.19 9.362c0 0 1.626-3.942 13.19-9.362zM415.282 462.059s-3.433 3.236-7.014 4.993c0 0 .854-2.102 7.014-4.993zM420.505 462.059s-3.449 3.236-7.013 4.993c0 0 .854-2.102 7.013-4.993z" fill="#486640"/><path fill-rule="evenodd" clip-rule="evenodd" d="M89.645 602.432c-5.306-1.166-10.545 2.201-11.712 7.523 5.306 1.166 10.546-2.201 11.712-7.523zM76.307 610.152c-.64-5.404-5.552-9.248-10.94-8.591a9.811 9.811 0 0010.94 8.591zM89.645 590.425c-5.306-1.166-10.545 2.201-11.712 7.523 5.306 1.15 10.546-2.218 11.712-7.523zM76.964 579.699c-3.843 3.844-3.86 10.069-.016 13.912 3.844-3.827 3.844-10.052.016-13.912zM76.307 598.145c-.64-5.404-5.552-9.248-10.94-8.591.641 5.388 5.536 9.248 10.94 8.591z" fill="#22543D"/><path d="M77.129 587.485h-.362v34.707h.362v-34.707z" fill="#68D391" stroke="#486640" stroke-width=".5" stroke-miterlimit="22.926"/><path fill-rule="evenodd" clip-rule="evenodd" d="M76.931 598.868l-6.11-5.125.246-.279 5.88 4.944 7.327-5.191.213.28-7.556 5.371zM76.931 611.105l-6.11-5.142.246-.262 5.88 4.944 7.327-5.207.213.296-7.556 5.371z" fill="#68D391" stroke="#486640" stroke-width=".5" stroke-miterlimit="22.926"/><path fill-rule="evenodd" clip-rule="evenodd" d="M55.283 619.17s3.433 3.235 7.013 4.993c.017-.017-.854-2.119-7.013-4.993zM54.544 613.881s6.882 6.471 14.043 9.986c.017 0-1.708-4.205-14.044-9.986zM63.446 615.786s5.634 5.289 11.498 8.163c-.016 0-1.429-3.449-11.498-8.163zM90.417 614.685s-6.455 6.078-13.173 9.363c0 0 1.61-3.942 13.173-9.363zM90.006 619.17s-3.45 3.235-7.013 4.993c0-.017.87-2.119 7.013-4.993zM95.23 619.17s-3.45 3.235-7.014 4.993c0-.017.87-2.119 7.014-4.993z" fill="#486640"/><path fill-rule="evenodd" clip-rule="evenodd" d="M498.593 462.979a7.346 7.346 0 00-8.755 5.617c3.975.871 7.9-1.642 8.755-5.617zM488.622 468.744c-.493-4.04-4.155-6.915-8.18-6.422.493 4.04 4.156 6.915 8.18 6.422zM498.593 453.994a7.346 7.346 0 00-8.755 5.617c3.975.871 7.9-1.642 8.755-5.617zM489.115 445.978c-2.875 2.875-2.891 7.523-.017 10.398 2.891-2.858 2.891-7.523.017-10.398zM488.622 459.759c-.493-4.04-4.155-6.915-8.18-6.422.493 4.041 4.156 6.915 8.18 6.422z" fill="#22543D"/><path d="M489.23 451.793h-.263v25.952h.263v-25.952z" fill="#68D391" stroke="#486640" stroke-width=".5" stroke-miterlimit="22.926"/><path fill-rule="evenodd" clip-rule="evenodd" d="M489.098 460.301l-4.566-3.827.181-.213 4.402 3.712 5.47-3.893.164.214-5.651 4.007zM489.098 469.45l-4.566-3.827.181-.213 4.402 3.695 5.47-3.876.164.214-5.651 4.007z" fill="#68D391" stroke="#486640" stroke-width=".5" stroke-miterlimit="22.926"/><path fill-rule="evenodd" clip-rule="evenodd" d="M468.107 474.033s3.449 3.236 7.013 4.994c0-.017-.854-2.119-7.013-4.994zM467.368 468.744s6.882 6.472 14.043 9.987c0 0-1.724-4.205-14.043-9.987zM476.254 470.65s5.634 5.289 11.481 8.163c.017 0-1.396-3.449-11.481-8.163zM503.241 469.549s-6.472 6.077-13.19 9.363c0 0 1.626-3.943 13.19-9.363zM502.83 474.033s-3.433 3.236-7.013 4.994c0-.017.854-2.119 7.013-4.994zM508.054 474.033s-3.45 3.236-7.014 4.994c0-.017.854-2.119 7.014-4.994z" fill="#486640"/><path fill-rule="evenodd" clip-rule="evenodd" d="M582.675 674.674c-5.306-1.167-10.562 2.201-11.711 7.523 5.321 1.149 10.561-2.201 11.711-7.523zM569.337 682.394c-.657-5.404-5.551-9.248-10.939-8.591.657 5.388 5.552 9.248 10.939 8.591zM582.675 662.667c-5.306-1.167-10.562 2.201-11.711 7.523 5.321 1.149 10.561-2.218 11.711-7.523zM569.994 651.941c-3.843 3.843-3.86 10.069-.016 13.912 3.844-3.827 3.86-10.052.016-13.912zM569.337 670.387c-.657-5.404-5.551-9.248-10.939-8.591.657 5.388 5.552 9.231 10.939 8.591z" fill="#22543D"/><path d="M570.159 659.71h-.362v34.707h.362V659.71z" fill="#68D391" stroke="#486640" stroke-width=".5" stroke-miterlimit="22.926"/><path fill-rule="evenodd" clip-rule="evenodd" d="M569.978 671.109l-6.11-5.141.23-.263 5.896 4.944 7.326-5.206.197.295-7.539 5.371zM569.978 683.33l-6.11-5.125.23-.279 5.896 4.96 7.326-5.206.197.295-7.539 5.355z" fill="#68D391" stroke="#486640" stroke-width=".5" stroke-miterlimit="22.926"/><path fill-rule="evenodd" clip-rule="evenodd" d="M548.329 691.411s3.433 3.236 7.014 4.994c0-.017-.854-2.119-7.014-4.994zM547.59 686.122s6.882 6.472 14.044 9.987c0 0-1.725-4.205-14.044-9.987zM556.476 688.028s5.634 5.289 11.498 8.163c0 0-1.412-3.449-11.498-8.163zM583.464 686.927s-6.456 6.078-13.174 9.363c0 0 1.61-3.942 13.174-9.363zM583.053 691.411s-3.45 3.236-7.014 4.994c0-.017.854-2.119 7.014-4.994zM588.276 691.411s-3.449 3.236-7.014 4.994c0-.017.855-2.119 7.014-4.994z" fill="#486640"/><path fill-rule="evenodd" clip-rule="evenodd" d="M1152.31 585.128c-14.78 11.219-38.71 1.002-51.97-10.479-2.31-2.004-4.02-4.649-4.65-7.655-3.02-14.372 19.71-17.92 20.37-30.814.3-5.634-3.96-10.315-7.09-15.029-7.17-10.726-9.19-24.294-7.68-37.106 1.52-12.812 6.31-24.999 11.91-36.629 4.57-9.51 12.73-20.252 23.03-17.969 6.62 1.462 10.88 8.048 12.8 14.553 2.64 8.935 2.26 18.544.47 27.693-.79 4.057-1.84 8.262-.75 12.237 2.79 10.201 17.1 12.5 22.27 21.715 5.29 9.379-1.02 20.795-6.85 29.829-4.99 7.736-8.05 12.532-4.78 19.152.87 1.758 2.14 3.252 3.63 4.533 3.17 2.711 9.05 10.989-10.71 25.969z" fill="#F3AF47"/><path fill-rule="evenodd" clip-rule="evenodd" d="M1131.22 452.656c-.01 3.433-4.76 167.344-4.76 167.344l13.63 1.199-8.87-168.543z" fill="#9C4F5F"/><path fill-rule="evenodd" clip-rule="evenodd" d="M1134.98 551.571l27.93-29.616-30.34 27.119a1.745 1.745 0 00-.13 2.464c.64.723 1.74.772 2.44.131.02-.033.07-.065.1-.098zM1129.15 500.717l-11.3-22.158 13.54 20.861c.39.591.21 1.396-.38 1.774-.59.394-1.4.213-1.78-.378a.695.695 0 01-.08-.099zM1133.98 547.152l27-40.752-27 40.752z" fill="#9C4F5F"/><path fill-rule="evenodd" clip-rule="evenodd" d="M1100.24 591.485c-19.28 14.635-50.52 1.298-67.82-13.682-3.02-2.612-5.25-6.078-6.06-9.987-3.94-18.775 25.71-23.39 26.58-40.21.38-7.359-5.16-13.469-9.25-19.596-9.33-14.011-11.97-31.718-10-48.422 1.97-16.722 8.24-32.638 15.54-47.799 5.96-12.401 16.62-26.429 30.05-23.456 8.64 1.922 14.18 10.513 16.69 18.988 3.45 11.663 2.96 24.195.64 36.137-1.02 5.289-2.4 10.775-.97 15.965 3.65 13.305 22.31 16.311 29.08 28.334 6.9 12.238-1.33 27.136-8.94 38.929-6.5 10.102-10.51 16.36-6.24 24.983 1.13 2.284 2.79 4.255 4.73 5.914 4.07 3.548 11.76 14.339-14.03 33.902z" fill="#EF855A"/><path fill-rule="evenodd" clip-rule="evenodd" d="M1074.9 422.86c-.03 4.172-4.24 232.948-4.24 232.948l16.59 1.461-12.35-234.409z" fill="#9C4F5F"/><path fill-rule="evenodd" clip-rule="evenodd" d="M1075.62 584.997l-33.93-35.989 36.89 32.967c.87.772.95 2.118.16 2.989a2.11 2.11 0 01-2.99.164c-.05-.049-.1-.098-.13-.131zM1072.39 481.269l-13.75-26.921 16.44 25.361c.48.723.26 1.692-.46 2.168-.72.476-1.69.263-2.17-.46-.02-.049-.05-.098-.06-.148zM1078.23 537.724l32.84-49.54-32.84 49.54zM1076.54 536.591l34.53-48.423-31.15 50.673a2.038 2.038 0 01-2.8.673 2.034 2.034 0 01-.68-2.808.24.24 0 00.1-.115z" fill="#9C4F5F"/><path fill-rule="evenodd" clip-rule="evenodd" d="M1156.23 657.877c2.34-15.916-3.22-25.377-9.82-26.543-6.78-1.2-11.35-3.68-13.4-14.455-2.06-10.775-3.32-21.715-10.89-20.302-7.58 1.429-10.25 11.038-10.89 22.076-.63 11.038-5.36 9.773-11.83 14.11-5.06 3.383-1.45 18.61.38 25.114h56.45z" fill="#22543D"/><path opacity=".2" fill-rule="evenodd" clip-rule="evenodd" d="M1149.3 645.558c-3.07-2.152-9.3 2.152-14.27 1.593-4.98-.558-3.71-16.015-10.65-16.015-6.93 0-6.39 17.658-11.9 17.74-5.52.082-5.05-7.654-9.55-5.075-3.71 2.118-1.3 11.005-.34 14.043h44.69c1.73-4.024 4.14-10.791 2.02-12.286z" fill="#000"/><path fill-rule="evenodd" clip-rule="evenodd" d="M1209.17 657.877c2.89-19.809-4.01-31.57-12.23-33.032-8.45-1.494-14.13-4.582-16.68-18.002-2.54-13.403-4.12-27.02-13.55-25.263-9.43 1.758-12.76 13.732-13.53 27.48-.79 13.732-6.67 12.172-14.72 17.559-6.29 4.205-1.79 23.16.48 31.258h70.23z" fill="#2F855A"/><path opacity=".2" fill-rule="evenodd" clip-rule="evenodd" d="M1200.02 642.552c-3.82-2.677-11.58 2.677-17.75 1.988-6.18-.69-4.62-19.925-13.24-19.925-8.64 0-7.95 21.978-14.82 22.076-6.86.099-6.27-9.526-11.87-6.307-4.62 2.644-1.61 13.682-.43 17.477h55.63c2.11-5.027 5.13-13.453 2.48-15.309z" fill="#000"/><path d="M1167.43 591.501s3.44 39.34.45 66.376M1171.99 594.13l-3.96 5.535M1160.47 597.53l7.88 7.588M1177.18 607.582l-8.32 9.264M1156.38 612.214l12.73 12.467M1184.16 618.456l-15.07 14.52M1160.04 634.438l8.86 8.722M1180.03 636.77l-11.4 12.057M1146.05 632.943s3.45 5.634 3.99 24.918M1154.39 642.174l-4.86 7.983M1139.27 647.677l10.41 4.024M1195.23 637.28s-1.78 1.297-2.32 20.597M1188.57 642.191l4.85 7.966M1200.6 648.859l-7.33 2.842" stroke="#94CFB9" stroke-miterlimit="10"/><path fill-rule="evenodd" clip-rule="evenodd" d="M1237.85 637.674c-5.3-1.167-10.56 2.201-11.71 7.523 5.32 1.149 10.56-2.201 11.71-7.523zM1224.51 645.394c-.65-5.404-5.55-9.248-10.94-8.591.66 5.388 5.56 9.248 10.94 8.591zM1237.85 625.667c-5.3-1.167-10.56 2.201-11.71 7.523 5.32 1.149 10.56-2.218 11.71-7.523zM1225.17 614.941c-3.84 3.843-3.86 10.069-.02 13.912 3.85-3.827 3.86-10.052.02-13.912zM1224.51 633.387c-.65-5.404-5.55-9.248-10.94-8.591.66 5.388 5.56 9.231 10.94 8.591z" fill="#22543D"/><path d="M1225.34 622.71h-.37v34.707h.37V622.71z" fill="#68D391" stroke="#486640" stroke-width=".5" stroke-miterlimit="22.926"/><path fill-rule="evenodd" clip-rule="evenodd" d="M1225.15 634.109l-6.11-5.141.23-.263 5.9 4.944 7.33-5.206.19.295-7.54 5.371zM1225.15 646.33l-6.11-5.125.23-.279 5.9 4.96 7.33-5.206.19.295-7.54 5.355z" fill="#68D391" stroke="#486640" stroke-width=".5" stroke-miterlimit="22.926"/><path fill-rule="evenodd" clip-rule="evenodd" d="M1203.51 654.411s3.43 3.236 7.01 4.994c0-.017-.85-2.119-7.01-4.994zM1202.77 649.122s6.88 6.472 14.04 9.987c0 0-1.72-4.205-14.04-9.987zM1211.65 651.028s5.64 5.289 11.5 8.163c0 0-1.41-3.449-11.5-8.163zM1238.64 649.927s-6.46 6.078-13.17 9.363c0 0 1.61-3.942 13.17-9.363zM1238.23 654.411s-3.45 3.236-7.01 4.994c0-.017.85-2.119 7.01-4.994zM1243.45 654.411s-3.45 3.236-7.01 4.994c0-.017.85-2.119 7.01-4.994zM289.134 559.58s3.432 3.236 7.013 4.977c0 0-.87-2.103-7.013-4.977zM288.394 554.291s6.883 6.471 14.044 9.986c0 0-1.724-4.205-14.044-9.986zM297.281 556.196s5.634 5.289 11.498 8.163c-.017 0-1.43-3.449-11.498-8.163zM324.268 555.095s-6.472 6.078-13.19 9.363c0 0 1.626-3.942 13.19-9.363zM323.857 559.58s-3.449 3.236-7.013 4.977c-.017 0 .854-2.103 7.013-4.977zM329.081 559.58s-3.45 3.236-7.014 4.977c-.017 0 .854-2.103 7.014-4.977zM423.199 300.579s3.433 3.236 7.014 4.993c.016 0-.854-2.102-7.014-4.993zM422.46 295.307s6.882 6.471 14.044 9.986c.016-.016-1.725-4.221-14.044-9.986zM431.363 297.195s5.634 5.289 11.498 8.164c-.017 0-1.429-3.433-11.498-8.164zM458.334 296.111s-6.472 6.078-13.19 9.363c.016 0 1.642-3.942 13.19-9.363zM457.923 300.579s-3.433 3.236-7.014 4.993c0 0 .871-2.102 7.014-4.993zM463.163 300.579s-3.45 3.236-7.014 4.993c-.016 0 .854-2.102 7.014-4.993zM575.891 343.466s3.433 3.236 7.014 4.994c0-.017-.854-2.119-7.014-4.994zM575.152 338.177s6.882 6.472 14.044 9.987c0 0-1.725-4.205-14.044-9.987zM584.055 340.083s5.634 5.289 11.481 8.163c0 0-1.412-3.449-11.481-8.163zM611.026 338.982s-6.472 6.078-13.19 9.363c.016 0 1.626-3.942 13.19-9.363zM610.615 343.466s-3.433 3.236-7.014 4.994c0-.017.871-2.119 7.014-4.994zM615.838 343.466s-3.449 3.236-7.013 4.994c0-.017.87-2.119 7.013-4.994zM208.599 473.031s3.433 3.236 7.014 4.994c0-.017-.871-2.119-7.014-4.994zM207.86 467.742s6.882 6.472 14.044 9.987c0 0-1.725-4.205-14.044-9.987zM216.746 469.648s5.634 5.289 11.482 8.163c0 0-1.413-3.449-11.482-8.163zM243.733 468.547s-6.471 6.078-13.19 9.363c0 0 1.627-3.943 13.19-9.363zM243.323 473.031s-3.433 3.236-7.014 4.994c-.016-.017.854-2.119 7.014-4.994zM248.546 473.031s-3.433 3.236-7.014 4.994c-.016-.017.854-2.119 7.014-4.994zM720.502 683.297s3.433 3.236 7.014 4.993c0 0-.871-2.102-7.014-4.993zM719.763 678.008s6.882 6.472 14.044 9.987c0 0-1.725-4.205-14.044-9.987zM728.649 679.913s5.634 5.29 11.482 8.164c0 0-1.413-3.433-11.482-8.164zM755.636 678.813s-6.471 6.077-13.189 9.363c0 0 1.626-3.943 13.189-9.363zM755.226 683.297s-3.433 3.236-7.014 4.993c-.016 0 .854-2.102 7.014-4.993zM760.449 683.297s-3.433 3.236-7.014 4.993c0 0 .855-2.102 7.014-4.993zM673.722 552.942s3.433 3.236 7.014 4.993c0 0-.854-2.102-7.014-4.993zM672.983 547.653s6.882 6.471 14.044 9.986c0 0-1.725-4.205-14.044-9.986zM681.869 549.558s5.634 5.289 11.498 8.163c0 0-1.413-3.432-11.498-8.163zM708.856 548.458s-6.455 6.077-13.189 9.362c0 0 1.626-3.942 13.189-9.362zM708.446 552.942s-3.433 3.236-7.014 4.993c0 0 .854-2.102 7.014-4.993zM713.669 552.942s-3.449 3.236-7.014 4.993c0 0 .854-2.102 7.014-4.993z" fill="#486640"/><path fill-rule="evenodd" clip-rule="evenodd" d="M314.429 380.835c2.973 2.25 7.786.197 10.463-2.103.46-.411.805-.936.936-1.544.608-2.891-3.958-3.597-4.106-6.192-.066-1.134.788-2.07 1.429-3.023 1.445-2.151 1.84-4.895 1.544-7.473-.296-2.579-1.265-5.027-2.398-7.375-.92-1.906-2.563-4.074-4.632-3.614-1.331.296-2.185 1.626-2.579 2.924-.542 1.79-.46 3.728-.099 5.568.165.821.362 1.659.148 2.464-.558 2.053-3.433 2.513-4.484 4.369-1.068 1.889.214 4.189 1.38 5.995 1.002 1.561 1.626 2.53.969 3.86a3.261 3.261 0 01-.723.92c-.64.542-1.823 2.218 2.152 5.224z" fill="#0D6D6B"/><path fill-rule="evenodd" clip-rule="evenodd" d="M319.192 381.639c2.234-15.275-3.088-24.326-9.428-25.459-6.505-1.15-10.89-3.532-12.861-13.863-1.971-10.332-3.17-20.828-10.43-19.465-7.261 1.364-9.839 10.595-10.431 21.173-.607 10.594-5.141 9.379-11.35 13.534-4.845 3.253-1.38 17.855.362 24.08h54.138z" fill="#2F855A"/><path opacity=".2" fill-rule="evenodd" clip-rule="evenodd" d="M312.146 369.829c-2.94-2.053-8.919 2.07-13.683 1.528-4.763-.526-3.548-15.358-10.216-15.358-6.653 0-6.127 16.935-11.416 17.017-5.289.082-4.846-7.342-9.149-4.862-3.565 2.037-1.249 10.545-.329 13.469h42.871c1.643-3.86 3.959-10.365 1.922-11.794z" fill="#000"/><path d="M287.031 330.49s2.645 30.322.345 51.149M290.53 332.51l-3.039 4.271M281.66 335.139l6.077 5.847M294.538 342.875l-6.406 7.145M278.506 346.456l9.823 9.609M299.925 351.252l-11.613 11.202M281.331 363.588l6.833 6.718M296.755 365.378l-8.804 9.297M270.556 362.438s2.661 4.353 3.072 19.201M276.979 369.534l-3.729 6.159M265.333 373.771l8.015 3.121M308.45 365.772s-1.363 1.002-1.79 15.867M303.325 369.55l3.729 6.143M312.589 374.708l-5.65 2.184" stroke="#94CFB9" stroke-miterlimit="10"/><path fill-rule="evenodd" clip-rule="evenodd" d="M24.255 328.437s2.973 2.792 6.06 4.303c0 .017-.738-1.806-6.06-4.303zM23.614 323.871s5.946 5.584 12.139 8.623c0 0-1.495-3.63-12.139-8.623zM31.301 325.513s4.862 4.567 9.921 7.047c0 .016-1.215-2.957-9.92-7.047zM54.61 324.577s-5.586 5.24-11.384 8.098c0-.017 1.396-3.417 11.383-8.098zM54.264 328.437s-2.973 2.792-6.06 4.303c-.017.017.738-1.806 6.06-4.303zM58.765 328.437s-2.973 2.792-6.061 4.303c0 .017.755-1.806 6.06-4.303zM725.036 484.003s3.432 3.236 7.013 4.994c0-.017-.854-2.119-7.013-4.994zM724.296 478.714s6.883 6.472 14.044 9.987c0 0-1.725-4.205-14.044-9.987zM733.183 480.62s5.634 5.289 11.498 8.163c0 0-1.413-3.449-11.498-8.163zM760.17 479.519s-6.472 6.078-13.19 9.363c.017 0 1.626-3.942 13.19-9.363zM759.759 484.003s-3.449 3.236-7.014 4.994c0-.017.855-2.119 7.014-4.994zM764.983 484.003s-3.433 3.236-7.014 4.994c0-.017.854-2.119 7.014-4.994z" fill="#486640"/><path fill-rule="evenodd" clip-rule="evenodd" d="M768.169 304.948c-5.306-1.166-10.545 2.201-11.711 7.507 5.305 1.166 10.545-2.201 11.711-7.507zM754.815 312.668c-.641-5.387-5.552-9.247-10.939-8.59.657 5.387 5.551 9.231 10.939 8.59zM768.169 292.941c-5.306-1.166-10.545 2.201-11.711 7.523 5.305 1.15 10.545-2.217 11.711-7.523zM755.489 282.215c-3.844 3.844-3.861 10.069-.017 13.913 3.844-3.844 3.844-10.069.017-13.913zM754.815 300.645c-.641-5.388-5.552-9.248-10.939-8.591.657 5.404 5.551 9.248 10.939 8.591z" fill="#22543D"/><path d="M755.653 289.985h-.362v34.707h.362v-34.707z" fill="#68D391" stroke="#486640" stroke-width=".5" stroke-miterlimit="22.926"/><path fill-rule="evenodd" clip-rule="evenodd" d="M755.456 301.367l-6.111-5.124.23-.28 5.897 4.945 7.326-5.191.213.296-7.555 5.354zM755.456 313.605l-6.111-5.125.23-.279 5.897 4.944 7.326-5.191.213.296-7.555 5.355z" fill="#68D391" stroke="#486640" stroke-width=".5" stroke-miterlimit="22.926"/><path fill-rule="evenodd" clip-rule="evenodd" d="M733.807 321.67s3.449 3.235 7.013 4.976c.017.017-.854-2.086-7.013-4.976zM733.068 316.38s6.882 6.472 14.043 9.987c0 0-1.724-4.205-14.043-9.987zM741.954 318.286s5.634 5.289 11.498 8.163c0 0-1.413-3.433-11.498-8.163zM768.941 317.185s-6.455 6.078-13.19 9.363c.017.016 1.626-3.942 13.19-9.363zM768.53 321.67s-3.449 3.235-7.014 4.976c0 .017.855-2.086 7.014-4.976zM773.754 321.67s-3.433 3.235-7.014 4.976c0 .017.87-2.086 7.014-4.976z" fill="#486640"/></g></svg>