<svg width="905" height="689" viewBox="0 0 905 689" fill="none" xmlns="http://www.w3.org/2000/svg">
<path d="M131.784 688.159C278.399 446.743 807.312 295.886 781.617 165.504" stroke="#9C4F5F" stroke-width="0.5" stroke-miterlimit="22.9256"/>
<path fill-rule="evenodd" clip-rule="evenodd" d="M791.861 214.704C791.861 214.704 782.339 189.83 780.815 167.4C780.815 167.4 789.964 176.39 791.861 214.704Z" fill="#3182CE"/>
<path fill-rule="evenodd" clip-rule="evenodd" d="M813.574 221.713C813.574 221.713 791.535 193.741 780.729 165.678C780.781 165.664 795.978 173.531 813.574 221.713Z" fill="#3182CE"/>
<path fill-rule="evenodd" clip-rule="evenodd" d="M816.822 204.482C816.822 204.482 793.538 186.99 779.149 167.076C779.134 167.024 792.82 170.077 816.822 204.482Z" fill="#3182CE"/>
<path fill-rule="evenodd" clip-rule="evenodd" d="M824.756 186.902C824.756 186.902 802.738 171.929 781.26 165.362C781.26 165.362 787.908 176.287 824.756 186.902Z" fill="#3182CE"/>
<path fill-rule="evenodd" clip-rule="evenodd" d="M686.916 24.0079L726.23 85.2759L725.206 85.8429C723.973 86.468 673.557 120.28 673.205 120.435C673.307 117.366 677.778 105.537 678.829 102.035C684.233 84.2595 689.752 60.0342 688.918 39.2687C688.955 38.1889 686.931 24.0601 686.916 24.0079Z" fill="#90CDF4"/>
<path fill-rule="evenodd" clip-rule="evenodd" d="M673.244 120.372L726.092 84.9812L790.778 181.736C789.066 179.229 783.001 173.827 779.781 172.979C768.954 170.086 759.422 163.961 754.602 162.828C741.787 159.87 675.52 126.718 673.244 120.372Z" fill="#4299E1"/>
<path fill-rule="evenodd" clip-rule="evenodd" d="M686.627 23.9805L726.048 84.8246L726.962 84.0633C728.018 83.206 780.287 49.7781 780.556 49.534C777.711 48.4132 765.051 47.8323 761.449 47.4291C742.959 45.3207 718.578 40.8576 699.798 31.8497C698.84 31.4413 686.642 24.0327 686.627 23.9805Z" fill="#63B3ED"/>
<path fill-rule="evenodd" clip-rule="evenodd" d="M780.519 49.6009L725.819 84.6072L790.346 181.8C788.724 179.213 786.189 171.531 786.679 168.242C788.263 157.161 786.451 146.013 787.346 141.147C789.628 128.126 785.391 54.1539 780.519 49.6009Z" fill="#3182CE"/>
</svg>
