<svg width="1179" height="946" fill="none" xmlns="http://www.w3.org/2000/svg"><path d="M181.706 945.154C382.957 613.775 1108.97 406.7 1073.7 227.732" stroke="#9C4F5F" stroke-width=".5" stroke-miterlimit="22.9256"/><path fill-rule="evenodd" clip-rule="evenodd" d="M1087.76 295.267s-13.07-34.143-15.16-64.933c0 0 12.56 12.34 15.16 64.933z" fill="#3182CE"/><path fill-rule="evenodd" clip-rule="evenodd" d="M1117.56 304.887s-30.25-38.395-45.08-76.916c.07-.02 20.93 10.78 45.08 76.916z" fill="#3182CE"/><path fill-rule="evenodd" clip-rule="evenodd" d="M1122.02 281.235s-31.96-24.01-51.71-51.345c-.02-.072 18.77 4.119 51.71 51.345z" fill="#3182CE"/><path fill-rule="evenodd" clip-rule="evenodd" d="M1132.91 257.104s-30.22-20.553-59.7-29.568c0 0 9.12 14.998 59.7 29.568z" fill="#3182CE"/><path fill-rule="evenodd" clip-rule="evenodd" d="M943.708 33.507l53.964 84.1-1.405.778c-1.693.858-70.897 47.27-71.379 47.482.14-4.212 6.277-20.45 7.719-25.256 7.417-24.4 14.994-57.6526 13.849-86.1562.051-1.4823-2.728-20.8761-2.748-20.9478z" fill="#90CDF4"/><path fill-rule="evenodd" clip-rule="evenodd" d="M924.941 165.781l72.541-48.579 88.788 132.811c-2.35-3.441-10.67-10.856-15.09-12.02-14.86-3.971-27.95-12.379-34.56-13.935-17.59-4.06-108.555-49.565-111.679-58.277z" fill="#4299E1"/><path fill-rule="evenodd" clip-rule="evenodd" d="M943.311 33.4698l54.111 83.5172 1.254-1.045c1.454-1.176 73.194-47.0611 73.564-47.3962-3.9-1.5385-21.28-2.3358-26.23-2.8893-25.37-2.894-58.841-9.0203-84.62-21.385-1.315-.5606-18.059-10.73-18.079-10.8017z" fill="#63B3ED"/><path fill-rule="evenodd" clip-rule="evenodd" d="M1072.19 68.6377l-75.082 48.0513 88.572 133.412c-2.23-3.552-5.71-14.096-5.03-18.611 2.17-15.21-.32-30.512.91-37.191 3.13-17.873-2.68-119.4117-9.37-125.6613z" fill="#3182CE"/></svg>